<?xml version="1.0" encoding="UTF-8"?>
<svg width="24" height="24" viewBox="0 0 24 24" fill="none" xmlns="http://www.w3.org/2000/svg">
  <path d="M13.75 9.49022C13.4715 9.49022 13.2369 9.39437 13.046 9.20269C12.8552 9.01099 12.7598 8.7753 12.7598 8.49562C12.7598 8.21592 12.8552 7.98168 13.046 7.79292C13.2369 7.60415 13.4715 7.50977 13.75 7.50977H16.0098V3.74999C16.0098 3.47154 16.1056 3.23689 16.2973 3.04604C16.489 2.85519 16.7247 2.75977 17.0044 2.75977C17.2841 2.75977 17.5183 2.85519 17.7071 3.04604C17.8958 3.23689 17.9902 3.47154 17.9902 3.74999V7.50977H20.25C20.5284 7.50977 20.7631 7.60561 20.9539 7.79729C21.1448 7.98899 21.2402 8.22468 21.2402 8.50437C21.2402 8.78407 21.1448 9.0183 20.9539 9.20707C20.7631 9.39583 20.5284 9.49022 20.25 9.49022H13.75ZM16.9956 21.2402C16.7159 21.2402 16.4817 21.1448 16.2929 20.9539C16.1041 20.7631 16.0098 20.5284 16.0098 20.25V11.825C16.0098 11.5466 16.1056 11.3119 16.2973 11.1211C16.489 10.9302 16.7247 10.8348 17.0044 10.8348C17.2841 10.8348 17.5183 10.9302 17.7071 11.1211C17.8958 11.3119 17.9902 11.5466 17.9902 11.825V20.25C17.9902 20.5284 17.8944 20.7631 17.7027 20.9539C17.511 21.1448 17.2753 21.2402 16.9956 21.2402ZM6.99562 21.2402C6.71592 21.2402 6.48168 21.1448 6.29292 20.9539C6.10415 20.7631 6.00977 20.5284 6.00977 20.25V16.7402H3.74999C3.47154 16.7402 3.23689 16.6444 3.04604 16.4527C2.85519 16.261 2.75977 16.0253 2.75977 15.7456C2.75977 15.4659 2.85519 15.2317 3.04604 15.0429C3.23689 14.8542 3.47154 14.7598 3.74999 14.7598H10.25C10.5284 14.7598 10.7631 14.8556 10.9539 15.0473C11.1448 15.239 11.2402 15.4747 11.2402 15.7544C11.2402 16.0341 11.1448 16.2683 10.9539 16.4571C10.7631 16.6458 10.5284 16.7402 10.25 16.7402H7.99022V20.25C7.99022 20.5284 7.89437 20.7631 7.70269 20.9539C7.51099 21.1448 7.2753 21.2402 6.99562 21.2402ZM6.99562 13.4152C6.71592 13.4152 6.48168 13.3198 6.29292 13.1289C6.10415 12.9381 6.00977 12.7034 6.00977 12.425V3.74999C6.00977 3.47154 6.10561 3.23689 6.29729 3.04604C6.48899 2.85519 6.72468 2.75977 7.00437 2.75977C7.28407 2.75977 7.5183 2.85519 7.70707 3.04604C7.89583 3.23689 7.99022 3.47154 7.99022 3.74999V12.425C7.99022 12.7034 7.89437 12.9381 7.70269 13.1289C7.51099 13.3198 7.2753 13.4152 6.99562 13.4152Z" fill="#22A148"/>
</svg> 
