<?xml version="1.0" encoding="UTF-8"?>
<svg width="165" height="160" viewBox="0 0 165 160" fill="none" xmlns="http://www.w3.org/2000/svg">
<path d="M52.5 30H130V130H52.5V30Z" fill="#D5AB88"/>
<rect x="107.5" y="30" width="15" height="100" fill="#F3D2A2"/>
<rect x="30.2939" y="45.3253" width="99.7062" height="7.5" fill="#DF4535"/>
<path fill-rule="evenodd" clip-rule="evenodd" d="M52.5 30H45V130H52.5V52.8125H75.4631V56.7765C75.4631 58.0529 76.4978 59.0876 77.7742 59.0876H97.2258C98.5022 59.0876 99.5369 58.0529 99.5369 56.7765V52.8125H122.5V95.1962H52.7277V102.696H122.5V130H130V52.8125V45.3125V30H122.5V45.3125H52.5V30Z" fill="#AF7357"/>
<path d="M30 30H45V130H30V30Z" fill="#F3D2A2"/>
<path fill-rule="evenodd" clip-rule="evenodd" d="M78.5444 48.3994H81.5777V54.3695H80.7594V55.5075H78.5444V48.3994ZM94.9113 54.3695V48.3994H94.2937V54.3695H94.9113ZM93.6761 54.3695V48.3994H93.0584V54.3695H93.6761ZM92.132 54.3695V48.3994H91.5144V54.3695H92.132ZM89.6615 54.3695V48.3994H89.0439V54.3695H89.6615ZM88.1175 54.3695V48.3994H87.4999V54.3695H88.1175ZM86.9138 54.3695V48.3994H86.2962V54.3695H86.9138ZM84.7555 54.3695V48.3994H82.5938V54.3695H84.7555ZM95.8377 48.3994H96.4553V55.5075H95.8377V48.3994ZM81.626 55.2361H82.2037V56.0064H81.626V55.2361ZM84.4186 55.2361H83.8408V56.0064H84.4186V55.2361ZM85.574 55.2361H86.1518V56.0064H85.574V55.2361ZM87.8851 55.2361H87.3074V56.0064H87.8851V55.2361ZM89.0407 55.2361H89.6185V56.0064H89.0407V55.2361ZM91.3518 55.2361H90.774V56.0064H91.3518V55.2361ZM92.5073 55.2361H93.0851V56.0064H92.5073V55.2361ZM94.8184 55.2361H94.2406V56.0064H94.8184V55.2361Z" fill="white"/>
<path d="M133.927 80.1515C133.991 79.9544 133.844 79.7524 133.637 79.7524H127.874C127.742 79.7524 127.625 79.8378 127.584 79.9637L124.251 90.2735C124.187 90.4706 124.334 90.6725 124.541 90.6725H130.304C130.436 90.6725 130.553 90.5872 130.594 90.4612L133.927 80.1515Z" fill="#112AB8"/>
<path d="M140.392 79.0558H126.895L132.35 104.671C132.673 106.186 134.01 107.268 135.559 107.268H142.347C144.434 107.268 145.99 105.346 145.556 103.305L140.392 79.0558Z" fill="#1C41D6"/>
<path d="M149.883 70.8707C149.883 65.3402 145.4 60.8569 139.869 60.8569H102.178C101.684 60.8569 101.32 61.32 101.437 61.8004L105.942 80.302C106.025 80.6438 106.331 80.8844 106.683 80.8844H139.869C145.4 80.8844 149.883 76.4011 149.883 70.8707Z" fill="#ABC8FF"/>
<path d="M145.529 70.8707C145.529 67.7448 142.995 65.2107 139.869 65.2107H118.116C117.62 65.2107 117.256 65.6752 117.375 66.156L119.786 75.95C119.869 76.291 120.175 76.5306 120.526 76.5306H139.869C142.995 76.5306 145.529 73.9966 145.529 70.8707Z" fill="#5482FF"/>
<path d="M111.395 60.8569H102.178C101.684 60.8569 101.32 61.32 101.437 61.8003L105.942 80.302C106.025 80.6438 106.331 80.8844 106.683 80.8844H116.271L111.395 60.8569Z" fill="#1C41D6"/>
</svg>
