<?xml version="1.0" encoding="UTF-8"?>
<svg width="362" height="340" viewBox="0 0 362 340" fill="none" xmlns="http://www.w3.org/2000/svg">
<path d="M187.729 0.0131011C105.698 1.6624 97.8636 68.4356 72.2317 100.456C64.5871 109.998 -30.9585 173.473 10.2939 233.931C24.6838 255.043 42.0557 259.661 51.5227 284.659C73.3204 342.173 114.573 367.054 204.391 298.796C218.023 288.429 234.733 278.722 249.454 270.475C273.358 257.116 305.806 247.385 317.001 219.064C360.857 108.09 258.684 -1.37703 187.729 0.0131011Z" fill="#FFFAE5"/>
<path d="M295.814 40.4916H253.564L248.522 324.546H305.029V53.7277C305.029 42.8601 298.886 40.3755 295.814 40.4916Z" fill="#FFE380"/>
<path d="M262.776 193.284C256.219 193.284 255.277 199.923 255.626 203.242L256.323 230.145C256.323 234.897 261.788 235.736 264.869 235.561C272.543 234.629 289.111 232.591 293.995 231.892C298.878 231.194 300.568 227.001 300.099 224.031C298.994 217.043 296.96 202.369 296.262 198.875C295.573 195.424 292.076 193.284 288.937 193.284H262.776Z" fill="white"/>
<path d="M289.398 200.272L290.095 209.356M260.621 201.67L261.493 211.802M263.411 199.399V203.766M264.458 207.435V209.356M268.294 209.007V210.929M267.946 204.989V207.085M268.643 201.146V203.242M271.434 204.29V206.386M274.05 206.561V208.658M277.015 208.658V210.929M274.922 198.001V200.272M278.933 197.302V199.573M276.84 201.495V203.766M279.282 203.766V205.862M283.119 202.019V204.29M285.386 204.29V206.386M282.77 206.386V208.658M285.735 208.133V210.405M286.258 202.718V200.272" stroke="black" stroke-width="1.76762"/>
<path d="M260.446 216.694L262.19 231.368" stroke="black" stroke-width="1.47302" stroke-linecap="round"/>
<path d="M271.944 216.254L273.03 230.153" stroke="black" stroke-width="1.47302" stroke-linecap="round"/>
<path d="M279.657 214.787L281.195 229.602" stroke="black" stroke-width="1.47302" stroke-linecap="round"/>
<path d="M290.475 214.367L291.839 228.224" stroke="black" stroke-width="1.47302" stroke-linecap="round"/>
<path d="M293.575 214.597L294.102 228.353" stroke="black" stroke-width="0.589206" stroke-linecap="round"/>
<path d="M295.053 214.248L296.198 227.966" stroke="black" stroke-width="0.589206" stroke-linecap="round"/>
<path d="M286.682 214.248L288.002 228.573" stroke="black" stroke-width="0.589206" stroke-linecap="round"/>
<path d="M284.608 214.248L285.928 228.573" stroke="black" stroke-width="0.589206" stroke-linecap="round"/>
<path d="M282.515 214.597L283.835 228.922" stroke="black" stroke-width="0.589206" stroke-linecap="round"/>
<path d="M275.887 215.645L277.208 229.971" stroke="black" stroke-width="0.589206" stroke-linecap="round"/>
<path d="M274.143 215.995L275.463 230.32" stroke="black" stroke-width="0.589206" stroke-linecap="round"/>
<path d="M267.865 215.995L269.185 230.32" stroke="black" stroke-width="0.589206" stroke-linecap="round"/>
<path d="M265.423 215.995L266.743 230.32" stroke="black" stroke-width="0.589206" stroke-linecap="round"/>
<path d="M263.679 216.344L265 230.669" stroke="black" stroke-width="0.589206" stroke-linecap="round"/>
<path d="M252.01 324.545H36.7935V51.2425C36.7935 44.7269 42.0809 39.448 48.5965 39.4584L254.801 39.7891L252.01 324.545Z" fill="#FFF0B3"/>
<path d="M137.6 111.764V38.042H170.563C172.016 59.7044 175.167 105.405 176.144 114.909C177.12 124.412 171.086 125.391 167.947 124.692C163.819 124.342 153.401 123.364 144.751 122.246C138.472 121.435 137.6 114.909 137.6 111.764Z" fill="#FFFAE5"/>
<line x1="2.50413" y1="-2.50413" x2="66.7828" y2="-2.50413" transform="matrix(0.0545124 0.998513 -0.998499 0.0547771 150.157 38.042)" stroke="white" stroke-width="5.00825" stroke-linecap="round"/>
<ellipse cx="290.787" cy="84.4056" rx="71.2131" ry="71.3287" fill="#00875A"/>
<path d="M273.337 107.877L250.651 85.1542L242.925 92.8375L273.337 123.298L338.621 57.9083L330.95 50.225L273.337 107.877Z" stroke="white" stroke-width="2.30172"/>
<mask id="mask0_9150_12267" style="mask-type:luminance" maskUnits="userSpaceOnUse" x="241" y="48" width="100" height="77">
<path d="M273.337 107.877L250.651 85.1542L242.925 92.8375L273.337 123.298L338.621 57.9083L330.95 50.225L273.337 107.877Z" fill="white" stroke="white" stroke-width="2.30172"/>
</mask>
<g mask="url(#mask0_9150_12267)">
<path fill-rule="evenodd" clip-rule="evenodd" d="M224.374 150.544H354.942V19.7639H224.374V150.544Z" fill="white"/>
<rect x="225.525" y="20.9148" width="128.266" height="128.478" stroke="white" stroke-width="2.30172"/>
</g>
</svg>
