<?xml version="1.0" encoding="UTF-8"?>
<svg xmlns="http://www.w3.org/2000/svg" width="20" height="20" viewBox="0 0 20 20" fill="none">
  <path d="M3.856 6.3705V16.144H16.144V6.3705H13.4982V12.1685C13.4982 12.4783 13.3676 12.7165 13.1065 12.8832C12.8453 13.0498 12.5791 13.0619 12.308 12.9194L10 11.7699L7.69207 12.9194C7.42093 13.0619 7.15673 13.0498 6.89948 12.8832C6.64223 12.7165 6.51361 12.4783 6.51361 12.1685V6.3705H3.856ZM3.856 17.7944C3.3941 17.7944 3.00357 17.6348 2.6844 17.3156C2.36522 16.9965 2.20563 16.6059 2.20563 16.144V5.54712C2.20563 5.36276 2.23627 5.1833 2.29756 5.00875C2.35886 4.83419 2.4476 4.67353 2.56379 4.52677L3.89223 2.76448C4.04063 2.57217 4.22402 2.42898 4.44238 2.33492C4.66074 2.24086 4.89312 2.19383 5.13952 2.19383H14.8515C15.0898 2.19383 15.3181 2.24086 15.5366 2.33492C15.7551 2.42898 15.9385 2.57217 16.087 2.76448L17.448 4.52677C17.5564 4.67353 17.6432 4.83419 17.7084 5.00875C17.7736 5.1833 17.8062 5.36276 17.8062 5.54712V16.144C17.8062 16.6059 17.6455 16.9965 17.324 17.3156C17.0025 17.6348 16.6092 17.7944 16.144 17.7944H3.856ZM4.41036 4.80254H15.5689L14.8103 3.84421H5.16036L4.41036 4.80254ZM8.08154 6.3705V10.9801L10 10.0208L11.9303 10.9801V6.3705H8.08154Z" fill="#2A55E5"/>
</svg>
