<?xml version="1.0" encoding="UTF-8"?>
<svg width="24" height="24" viewBox="0 0 24 24" fill="none" xmlns="http://www.w3.org/2000/svg">
  <path d="M16.1315 17.2032L17.1185 16.2771C17.2728 16.1211 17.35 15.9491 17.35 15.7612C17.35 15.5733 17.2728 15.4021 17.1185 15.2478L13.4457 11.5608C13.5007 11.3558 13.5533 11.1478 13.6033 10.9369C13.6533 10.726 13.6783 10.5028 13.6783 10.2674C13.6783 9.28185 13.3295 8.44036 12.6321 7.74289C11.9346 7.04544 11.0915 6.69672 10.1026 6.69672C9.9132 6.69672 9.72573 6.71628 9.54023 6.75539C9.35471 6.79453 9.1687 6.84743 8.9822 6.91409C8.82377 7.00684 8.70887 7.12451 8.6375 7.26709C8.56612 7.40968 8.58985 7.53585 8.7087 7.64562L10.4065 9.31844L9.19783 10.4521L7.56413 8.84344C7.46196 8.75069 7.3395 8.715 7.19675 8.73637C7.05399 8.75775 6.9529 8.83511 6.89348 8.96844C6.80073 9.17063 6.73298 9.3853 6.69023 9.61247C6.64746 9.83963 6.62608 10.0563 6.62608 10.2624C6.62608 11.2345 6.96177 12.0545 7.63315 12.7222C8.30454 13.39 9.12935 13.7239 10.1076 13.7239C10.3221 13.7239 10.5426 13.7078 10.7691 13.6755C10.9957 13.6433 11.2194 13.5902 11.4402 13.5163L15.088 17.2032C15.23 17.3409 15.405 17.4097 15.613 17.4097C15.821 17.4097 15.9938 17.3409 16.1315 17.2032ZM12 22.3532C10.5768 22.3532 9.23575 22.0833 7.9768 21.5434C6.71787 21.0035 5.61808 20.2632 4.67743 19.3225C3.7368 18.3819 2.99652 17.2821 2.4566 16.0232C1.91669 14.7642 1.64673 13.4232 1.64673 12C1.64673 10.5601 1.91669 9.21072 2.4566 7.95177C2.99652 6.69284 3.7368 5.59721 4.67743 4.66489C5.61808 3.73259 6.71787 2.99413 7.9768 2.44949C9.23575 1.90488 10.5768 1.63257 12 1.63257C13.4399 1.63257 14.7893 1.90488 16.0482 2.44949C17.3071 2.99413 18.4028 3.73259 19.3351 4.66489C20.2674 5.59721 21.0058 6.69284 21.5505 7.95177C22.0951 9.21072 22.3674 10.5601 22.3674 12C22.3674 13.4232 22.0951 14.7642 21.5505 16.0232C21.0058 17.2821 20.2674 18.3819 19.3351 19.3225C18.4028 20.2632 17.3071 21.0035 16.0482 21.5434C14.7893 22.0833 13.4399 22.3532 12 22.3532ZM12 20.3728C14.329 20.3728 16.3067 19.5578 17.9332 17.9277C19.5596 16.2976 20.3728 14.3217 20.3728 12C20.3728 9.67099 19.5596 7.69327 17.9332 6.06682C16.3067 4.44037 14.329 3.62714 12 3.62714C9.67827 3.62714 7.70236 4.44037 6.07228 6.06682C4.44221 7.69327 3.62718 9.67099 3.62718 12C3.62718 14.3217 4.44221 16.2976 6.07228 17.9277C7.70236 19.5578 9.67827 20.3728 12 20.3728Z" fill="#22A148"/>
</svg> 
