<?xml version="1.0" encoding="UTF-8"?>
<svg xmlns="http://www.w3.org/2000/svg" xmlns:xlink="http://www.w3.org/1999/xlink" width="30px" height="30px" viewBox="0 0 30 30" version="1.1">
<g id="surface1">
<rect x="0" y="0" width="30" height="30" style="fill:rgb(100%,100%,100%);fill-opacity:1;stroke:none;"/>
<path style=" stroke:none;fill-rule:nonzero;fill:rgb(0%,0%,0%);fill-opacity:1;" d="M 21.015625 6.257812 C 20.589844 5.828125 19.898438 5.828125 19.472656 6.257812 L 15 10.730469 L 10.527344 6.257812 C 10.097656 5.828125 9.410156 5.828125 8.984375 6.257812 C 8.554688 6.683594 8.554688 7.371094 8.984375 7.796875 L 13.457031 12.273438 L 8.984375 16.746094 C 8.558594 17.171875 8.558594 17.863281 8.984375 18.289062 C 9.410156 18.714844 10.101562 18.714844 10.527344 18.289062 L 15 13.816406 L 19.472656 18.289062 C 19.898438 18.714844 20.589844 18.714844 21.015625 18.289062 C 21.441406 17.863281 21.441406 17.171875 21.015625 16.746094 L 16.542969 12.273438 L 21.015625 7.796875 C 21.441406 7.371094 21.441406 6.679688 21.015625 6.253906 Z M 21.015625 6.257812 "/>
</g>
</svg>
