<?xml version="1.0" encoding="UTF-8"?>
<svg width="275" height="284" viewBox="0 0 275 284" fill="none" xmlns="http://www.w3.org/2000/svg">
<path d="M157.142 0.0109432C88.476 1.3886 81.9185 57.1639 60.4628 83.91C54.0638 91.8808 -25.9143 144.901 8.61673 195.402C20.662 213.036 35.2035 216.893 43.128 237.774C61.3742 285.815 95.9052 306.598 171.089 249.583C182.5 240.923 196.487 232.815 208.81 225.926C228.819 214.767 255.98 206.639 265.351 182.983C302.061 90.2866 216.536 -1.15022 157.142 0.0109432Z" fill="#FFFAE5"/>
<path fill-rule="evenodd" clip-rule="evenodd" d="M200.207 209.999L211.793 119.656L60.6003 117.708L67.2302 209.999H200.207Z" fill="url(#paint0_linear_75_1098)"/>
<path fill-rule="evenodd" clip-rule="evenodd" d="M60.6001 115.678H22.0511L36.985 209.999H67.2301L60.6001 115.678Z" fill="url(#paint1_linear_75_1098)"/>
<g style="mix-blend-mode:multiply" opacity="0.2">
<path fill-rule="evenodd" clip-rule="evenodd" d="M173.999 209.999H92.7327L93.1593 122.701H181.466L173.999 209.999Z" fill="#B32472"/>
</g>
<path fill-rule="evenodd" clip-rule="evenodd" d="M200.601 236.828L212.203 116.464L61.0104 113.845L67.624 236.828H200.601Z" fill="#2684FF"/>
<path fill-rule="evenodd" clip-rule="evenodd" d="M61.0105 113.845H22.4451L37.3789 236.828H67.624L61.0105 113.845Z" fill="#0747A6"/>
<path fill-rule="evenodd" clip-rule="evenodd" d="M215.863 116.529L219.867 122.701H53.8554L57.2688 113.845L215.863 116.529Z" fill="#2684FF"/>
<path fill-rule="evenodd" clip-rule="evenodd" d="M22.4452 113.845L15.9137 121.686L53.8555 122.701L57.2689 113.845H22.4452Z" fill="#0747A6"/>
<path fill-rule="evenodd" clip-rule="evenodd" d="M175.739 236.828L183.928 122.701H181.86L174.393 236.828H175.739Z" fill="#0747A6"/>
<g style="mix-blend-mode:multiply" opacity="0.2">
<path fill-rule="evenodd" clip-rule="evenodd" d="M174.393 236.828H93.1429L93.5532 122.701H181.86L174.393 236.828Z" fill="#2684FF"/>
</g>
<g style="mix-blend-mode:multiply" opacity="0.5">
<path fill-rule="evenodd" clip-rule="evenodd" d="M210.743 131.524L61.6506 129.887L23.9549 126.269L23.397 121.686L53.8554 122.701H211.596L210.743 131.524Z" fill="#B32472"/>
</g>
<g style="mix-blend-mode:multiply" opacity="0.2">
<path fill-rule="evenodd" clip-rule="evenodd" d="M56.465 236.828L48.8668 122.537L30.5359 121.931L44.2225 236.828H56.465Z" fill="#B32472"/>
</g>
<g style="mix-blend-mode:multiply" opacity="0.5">
<path fill-rule="evenodd" clip-rule="evenodd" d="M44.2221 236.828H45.8632L33.4402 121.686L30.5355 121.932L44.2221 236.828Z" fill="#334462"/>
</g>
<path fill-rule="evenodd" clip-rule="evenodd" d="M156.817 135.305L155.176 142.393H119.335L117.694 134.65L156.817 135.305Z" fill="#334462"/>
<path d="M149.708 162.239C155.841 162.239 156.722 168.525 156.395 171.668L155.743 197.142C155.743 201.641 150.633 202.435 147.751 202.27C140.575 201.388 125.08 199.458 120.514 198.796C115.947 198.134 114.366 194.164 114.805 191.352C115.838 184.736 117.741 170.841 118.393 167.532C119.038 164.265 122.308 162.239 125.243 162.239H149.708Z" fill="white"/>
<path d="M125.379 166.643L124.747 175.007M151.448 167.929L150.658 177.258M148.92 165.838V169.859M147.972 173.237V175.007M144.496 174.685V176.454M144.812 170.985V172.916M144.18 167.447V169.377M141.652 170.342V172.272M139.282 172.433V174.363M136.597 174.363V176.454M138.492 164.552V166.643M134.859 163.908V165.999M136.755 167.768V169.859M134.543 169.859V171.79M131.067 168.251V170.342M129.013 170.342V172.272M131.383 172.272V174.363M128.697 173.881V175.972M128.223 168.894V166.643" stroke="black" stroke-width="0.617244"/>
<path d="M151.448 183.933L149.779 197.283" stroke="black" stroke-width="0.51437" stroke-linecap="round"/>
<path d="M141.282 182.94L140.266 195.921" stroke="black" stroke-width="0.51437" stroke-linecap="round"/>
<path d="M134.066 181.57L132.627 195.406" stroke="black" stroke-width="0.51437" stroke-linecap="round"/>
<path d="M123.945 181.178L122.669 194.119" stroke="black" stroke-width="0.51437" stroke-linecap="round"/>
<path d="M121.045 181.393L120.553 194.24" stroke="black" stroke-width="0.205748" stroke-linecap="round"/>
<path d="M119.662 181.066L118.591 193.879" stroke="black" stroke-width="0.205748" stroke-linecap="round"/>
<path d="M127.494 181.066L126.259 194.446" stroke="black" stroke-width="0.205748" stroke-linecap="round"/>
<path d="M129.435 181.066L128.199 194.446" stroke="black" stroke-width="0.205748" stroke-linecap="round"/>
<path d="M131.393 181.393L130.157 194.772" stroke="black" stroke-width="0.205748" stroke-linecap="round"/>
<path d="M137.593 182.372L136.357 195.751" stroke="black" stroke-width="0.205748" stroke-linecap="round"/>
<path d="M139.224 182.698L137.989 196.077" stroke="black" stroke-width="0.205748" stroke-linecap="round"/>
<path d="M145.098 182.698L143.863 196.077" stroke="black" stroke-width="0.205748" stroke-linecap="round"/>
<path d="M147.382 182.698L146.147 196.077" stroke="black" stroke-width="0.205748" stroke-linecap="round"/>
<path d="M149.014 183.024L147.779 196.404" stroke="black" stroke-width="0.205748" stroke-linecap="round"/>
<circle cx="214.175" cy="105.888" r="60.0323" fill="#57D9A3"/>
<path d="M199.465 125.642L180.34 106.518L173.828 112.984L199.465 138.621L254.499 83.587L248.032 77.1205L199.465 125.642Z" stroke="white" stroke-width="2.30172"/>
<mask id="mask0_75_1098" style="mask-type:alpha" maskUnits="userSpaceOnUse" x="172" y="75" width="85" height="66">
<path d="M199.465 125.642L180.34 106.518L173.828 112.984L199.465 138.621L254.499 83.587L248.032 77.1205L199.465 125.642Z" fill="white" stroke="white" stroke-width="2.30172"/>
</mask>
<g mask="url(#mask0_75_1098)">
<path fill-rule="evenodd" clip-rule="evenodd" d="M158.189 161.552H268.257V51.4836H158.189V161.552Z" fill="white"/>
<rect x="159.34" y="52.6345" width="107.767" height="107.767" stroke="white" stroke-width="2.30172"/>
</g>
<defs>
<linearGradient id="paint0_linear_75_1098" x1="136.205" y1="209.999" x2="136.205" y2="117.708" gradientUnits="userSpaceOnUse">
<stop stop-color="#6D3EAD"/>
<stop offset="1" stop-color="#655EC9"/>
</linearGradient>
<linearGradient id="paint1_linear_75_1098" x1="44.6488" y1="209.999" x2="44.6488" y2="115.678" gradientUnits="userSpaceOnUse">
<stop stop-color="#400F5B"/>
<stop offset="1" stop-color="#4E48A4"/>
</linearGradient>
</defs>
</svg>
