<?xml version="1.0" encoding="UTF-8"?>
<svg width="24" height="24" viewBox="0 0 24 24" fill="none" xmlns="http://www.w3.org/2000/svg">
  <path d="M8.04544 22.1684L6.52369 19.5608L3.48021 18.9358C3.23093 18.8931 3.0273 18.7642 2.86934 18.5493C2.71137 18.3343 2.64905 18.1034 2.68239 17.8565L3.03239 14.9172L1.09976 12.6554C0.928762 12.4713 0.843262 12.2519 0.843262 11.9972C0.843262 11.7425 0.928762 11.5249 1.09976 11.3445L3.03239 9.1077L2.68239 6.16842C2.64905 5.92151 2.71137 5.69057 2.86934 5.47562C3.0273 5.26067 3.23093 5.12711 3.48021 5.07492L6.52806 4.46127L8.04544 1.83145C8.17255 1.6218 8.35859 1.47084 8.60354 1.37857C8.84849 1.28629 9.09108 1.29595 9.33131 1.40755L11.9998 2.65427L14.6683 1.40755C14.9081 1.30536 15.1506 1.29371 15.3957 1.3726C15.6408 1.4515 15.8269 1.59611 15.9541 1.80645L17.4965 4.46127L20.5194 5.07492C20.7686 5.12711 20.9723 5.26067 21.1302 5.47562C21.2882 5.69057 21.3505 5.92151 21.3172 6.16842L20.9672 9.1077L22.8998 11.3445C23.0708 11.5286 23.1563 11.748 23.1563 12.0027C23.1563 12.2574 23.0708 12.4749 22.8998 12.6554L20.9672 14.9172L21.3172 17.8565C21.3505 18.1034 21.2882 18.3343 21.1302 18.5493C20.9723 18.7642 20.7686 18.8931 20.5194 18.9358L17.5009 19.5608L15.9541 22.1934C15.8269 22.4038 15.6408 22.5484 15.3957 22.6273C15.1506 22.7062 14.9081 22.6945 14.6683 22.5923L11.9998 21.3456L9.33131 22.5924C9.09146 22.6945 8.84899 22.702 8.60389 22.6148C8.35879 22.5276 8.17264 22.3788 8.04544 22.1684ZM9.37759 20.3695L11.9978 19.2507L14.6933 20.3695L16.34 17.9119L19.2085 17.176L18.9226 14.2407L20.8911 11.9987L18.9226 9.70647L19.2085 6.77387L16.34 6.088L14.6481 3.6304L12.0024 4.74775L9.30631 3.6304L7.66356 6.0914L4.80524 6.76752L5.07696 9.70647L3.10849 11.9999L5.07696 14.2434L4.80524 17.2325L7.66096 17.9086L9.37759 20.3695ZM11.9998 17.3532C12.3273 17.3532 12.5985 17.2481 12.8134 17.038C13.0282 16.8278 13.1357 16.559 13.1357 16.2315C13.1357 15.9039 13.0282 15.6304 12.8134 15.4108C12.5985 15.1912 12.3273 15.0814 11.9998 15.0814C11.6723 15.0814 11.4011 15.1912 11.1862 15.4108C10.9713 15.6304 10.8639 15.9039 10.8639 16.2315C10.8639 16.559 10.9713 16.8278 11.1862 17.038C11.4011 17.2481 11.6723 17.3532 11.9998 17.3532ZM12.0748 13.1891C12.3574 13.1891 12.5931 13.0947 12.7819 12.9059C12.9706 12.7172 13.065 12.4815 13.065 12.1988V7.61407C13.065 7.33147 12.9706 7.09578 12.7819 6.907C12.5931 6.71823 12.3574 6.62385 12.0748 6.62385C11.7922 6.62385 11.5565 6.71823 11.3677 6.907C11.1789 7.09578 11.0846 7.33147 11.0846 7.61407V12.1988C11.0846 12.4815 11.1789 12.7172 11.3677 12.9059C11.5565 13.0947 11.7922 13.1891 12.0748 13.1891Z" fill="#DF4535"/>
</svg> 
