<?xml version="1.0" encoding="UTF-8"?>
<svg width="16" height="16" viewBox="0 0 16 16" fill="none" xmlns="http://www.w3.org/2000/svg">
<rect width="16" height="16" fill="white" fill-opacity="0.01"/>
<path fill-rule="evenodd" clip-rule="evenodd" d="M3.33341 3.33329C3.1566 3.33329 2.98703 3.40353 2.86201 3.52855C2.73699 3.65358 2.66675 3.82315 2.66675 3.99996V4.66663H13.3334V3.99996C13.3334 3.82315 13.2632 3.65358 13.1382 3.52855C13.0131 3.40353 12.8436 3.33329 12.6667 3.33329H3.33341ZM10.7667 13.3333H5.23008C5.07237 13.3332 4.91979 13.2773 4.79944 13.1754C4.67909 13.0735 4.59877 12.9322 4.57275 12.7766L3.33341 5.33329H12.6667L11.4241 12.7773C11.398 12.9328 11.3177 13.074 11.1973 13.1758C11.077 13.2776 10.9244 13.3334 10.7667 13.3333ZM6.00008 2.99996C6.00007 2.91258 6.03436 2.8287 6.09558 2.76635C6.1568 2.70401 6.24005 2.6682 6.32741 2.66663H9.67275C9.76011 2.6682 9.84336 2.70401 9.90458 2.76635C9.9658 2.8287 10.0001 2.91258 10.0001 2.99996V3.33329H6.00008V2.99996Z" fill="#DF4535"/>
</svg>
