<?xml version="1.0" encoding="UTF-8"?>
<svg xmlns="http://www.w3.org/2000/svg" width="20" height="20" viewBox="0 0 20 20" fill="none">
  <path
    d="M7.87506 12.7768L15.2845 5.37919C15.4507 5.21494 15.6476 5.13281 15.8752 5.13281C16.1028 5.13281 16.2987 5.21531 16.4629 5.38029C16.6272 5.54528 16.7093 5.74286 16.7093 5.97304C16.7093 6.20324 16.6272 6.40203 16.4629 6.56942L8.46564 14.5667C8.29853 14.731 8.10095 14.8131 7.87291 14.8131C7.64487 14.8131 7.44872 14.731 7.28447 14.5667L3.51635 10.7986C3.3521 10.6303 3.27148 10.4309 3.2745 10.2004C3.27752 9.96996 3.36153 9.7726 3.52652 9.60835C3.6915 9.4441 3.88909 9.36198 4.11927 9.36198C4.34946 9.36198 4.54825 9.4441 4.71564 9.60835L7.87506 12.7768Z"
    fill="white" />
</svg>
