<?xml version="1.0" encoding="UTF-8"?>
<svg width="152" height="146" viewBox="0 0 152 146" fill="none" xmlns="http://www.w3.org/2000/svg">
<path d="M48.8398 27.375H119.559V118.625H48.8398V27.375Z" fill="#D5AB88"/>
<rect x="99.0273" y="27.375" width="13.6875" height="91.25" fill="#F3D2A2"/>
<rect x="28.5762" y="41.3594" width="90.9819" height="6.84375" fill="#DF4535"/>
<path fill-rule="evenodd" clip-rule="evenodd" d="M112.715 27.375H119.559V41.3477V48.1914V118.625H112.715V93.7103H49.0476V86.8665H112.715V48.1914H91.7611V51.8086C91.7611 52.9733 90.817 53.9175 89.6523 53.9175H71.9027C70.738 53.9175 69.7938 52.9733 69.7938 51.8086V48.1914H48.8398L48.8398 118.625H41.9961V27.375H48.8398V41.3477H112.715V27.375Z" fill="#AF7357"/>
<path d="M28.3086 27.375H41.9961V118.625H28.3086V27.375Z" fill="#F3D2A2"/>
<path fill-rule="evenodd" clip-rule="evenodd" d="M72.6055 44.1644H75.3734V49.6123H74.6264V50.6506H72.6055V44.1644ZM87.5402 49.6123V44.1644H86.9766V49.6123H87.5402ZM86.4131 49.6123V44.1644H85.8495V49.6123H86.4131ZM85.0041 49.6123V44.1644H84.4406V49.6123H85.0041ZM82.7498 49.6123V44.1644H82.1863V49.6123H82.7498ZM81.3409 49.6123V44.1644H80.7773V49.6123H81.3409ZM80.2425 49.6123V44.1644H79.6789V49.6123H80.2425ZM78.273 49.6123V44.1644H76.3005V49.6123H78.273ZM88.3856 44.1644H88.9492V50.6506H88.3856V44.1644ZM75.4173 50.403H75.9445V51.106H75.4173V50.403ZM77.9657 50.403H77.4384V51.106H77.9657V50.403ZM79.0199 50.403H79.5471V51.106H79.0199V50.403ZM81.1288 50.403H80.6016V51.106H81.1288V50.403ZM82.1833 50.403H82.7106V51.106H82.1833V50.403ZM84.2923 50.403H83.7651V51.106H84.2923V50.403ZM85.3465 50.403H85.8737V51.106H85.3465V50.403ZM87.4555 50.403H86.9282V51.106H87.4555V50.403Z" fill="white"/>
<path fill-rule="evenodd" clip-rule="evenodd" d="M86.6395 66.4935C89.752 66.4935 92.2751 63.9703 92.2751 60.8579C92.2751 57.7454 89.752 55.2223 86.6395 55.2223C83.527 55.2223 81.0039 57.7454 81.0039 60.8579C81.0039 63.9703 83.527 66.4935 86.6395 66.4935ZM86.6395 65.1662C89.0189 65.1662 90.9479 63.2373 90.9479 60.8579C90.9479 58.4784 89.0189 56.5495 86.6395 56.5495C84.2601 56.5495 82.3311 58.4784 82.3311 60.8579C82.3311 63.2373 84.2601 65.1662 86.6395 65.1662Z" fill="#ABC8FF"/>
<path d="M73.2969 85.8827H101.522L99.1897 60.0763C99.1829 60.0003 99.1192 59.9421 99.0428 59.9421H75.7702C75.6939 59.9421 75.6302 60.0003 75.6233 60.0763L73.2969 85.8827Z" fill="#ABC8FF"/>
<path d="M73.2969 85.8827H101.522L98.2201 83.5679C98.1953 83.5505 98.1658 83.5412 98.1355 83.5412H75.6966C75.6574 83.5412 75.6199 83.5568 75.5922 83.5845L73.2969 85.8827Z" fill="#5482FF"/>
<path d="M72.4121 85.8827H98.3203L96.1793 60.0774C96.1729 60.0009 96.109 59.9421 96.0323 59.9421H74.6944C74.6177 59.9421 74.5538 60.0009 74.5475 60.0774L72.4121 85.8827Z" fill="#CFE1FF"/>
<path d="M75.875 77.136C75.8889 76.9022 76.0825 76.7198 76.3167 76.7198H94.5241C94.7537 76.7198 94.9452 76.8954 94.965 77.1241L95.4784 83.0605C95.5008 83.319 95.297 83.5412 95.0376 83.5412H75.9637C75.709 83.5412 75.5069 83.3267 75.522 83.0724L75.875 77.136Z" fill="#F0F5FF"/>
<path d="M82.7648 63.8065C82.7787 63.5727 82.9723 63.3903 83.2065 63.3903H90.0133C90.2429 63.3903 90.4343 63.5659 90.4541 63.7946L90.6141 65.6445C90.6364 65.9029 90.4327 66.1251 90.1733 66.1251H83.0965C82.8418 66.1251 82.6397 65.9106 82.6548 65.6563L82.7648 63.8065Z" fill="#5482FF"/>
<path fill-rule="evenodd" clip-rule="evenodd" d="M76.1156 86.9883H54.4434V65.2913H76.1156V86.9883ZM62.2806 68.3324C61.7849 68.3324 61.383 68.7342 61.383 69.2299C61.383 69.7257 61.7849 70.1275 62.2806 70.1275H68.2782C68.774 70.1275 69.1758 69.7257 69.1758 69.2299C69.1758 68.7342 68.774 68.3324 68.2782 68.3324H62.2806Z" fill="#FEEFD4"/>
<path d="M123.143 73.1387C123.201 72.9588 123.067 72.7745 122.878 72.7745H117.619C117.498 72.7745 117.391 72.8524 117.354 72.9673L114.312 82.375C114.254 82.5548 114.388 82.7391 114.577 82.7391H119.836C119.957 82.7391 120.064 82.6613 120.101 82.5463L123.143 73.1387Z" fill="#112AB8"/>
<path d="M129.041 72.1389H116.725L121.703 95.5129C121.998 96.8949 123.218 97.8829 124.631 97.8829H130.826C132.73 97.8829 134.15 96.1283 133.754 94.2658L129.041 72.1389Z" fill="#1C41D6"/>
<path d="M137.701 64.6699C137.701 59.6234 133.61 55.5323 128.564 55.5323H94.1708C93.7196 55.5323 93.3876 55.9549 93.4944 56.3932L97.6049 73.276C97.6809 73.5879 97.9603 73.8074 98.2814 73.8074H128.564C133.61 73.8074 137.701 69.7164 137.701 64.6699Z" fill="#ABC8FF"/>
<path d="M133.729 64.6699C133.729 61.8176 131.416 59.5052 128.564 59.5052H108.714C108.262 59.5052 107.93 59.9291 108.038 60.3678L110.238 69.3049C110.314 69.616 110.593 69.8346 110.914 69.8346H128.564C131.416 69.8346 133.729 67.5223 133.729 64.6699Z" fill="#5482FF"/>
<path d="M102.582 55.5323H94.1712C93.7201 55.5323 93.3881 55.9549 93.4948 56.3932L97.6054 73.276C97.6813 73.5879 97.9608 73.8074 98.2818 73.8074H107.031L102.582 55.5323Z" fill="#1C41D6"/>
</svg>
