<?xml version="1.0" encoding="UTF-8"?>
<svg width="328" height="178" viewBox="0 0 328 178" fill="none" xmlns="http://www.w3.org/2000/svg">
<g clip-path="url(#clip0_4110_14720)">
<path d="M0.369369 155.27H328V154.537H0.369369C0.165374 154.537 0 154.701 0 154.904C0 155.106 0.16537 155.27 0.369369 155.27Z" fill="#FFC200"/>
<mask id="path-2-inside-1_4110_14720" fill="white">
<path d="M212.402 142.57C216.49 144.373 220.761 146.212 225.232 146.036C229.703 145.86 234.408 143.006 235.104 138.625C235.464 136.363 234.751 133.936 235.624 131.817C236.8 128.965 240.591 127.865 243.538 128.842C246.485 129.819 248.651 132.34 250.203 135.009C253.107 140.002 254.271 146.555 251.157 151.423C248.457 155.643 243.337 157.549 238.574 159.185C232.23 161.363 225.147 163.525 219 160.849C212.818 158.158 209.45 150.383 211.739 144.086"/>
</mask>
<path d="M212.402 142.57C216.49 144.373 220.761 146.212 225.232 146.036C229.703 145.86 234.408 143.006 235.104 138.625C235.464 136.363 234.751 133.936 235.624 131.817C236.8 128.965 240.591 127.865 243.538 128.842C246.485 129.819 248.651 132.34 250.203 135.009C253.107 140.002 254.271 146.555 251.157 151.423C248.457 155.643 243.337 157.549 238.574 159.185C232.23 161.363 225.147 163.525 219 160.849C212.818 158.158 209.45 150.383 211.739 144.086" fill="#F0CF65"/>
<path d="M235.104 138.625L235.598 138.703V138.703L235.104 138.625ZM235.624 131.817L236.086 132.007V132.007L235.624 131.817ZM250.203 135.009L249.771 135.26L250.203 135.009ZM251.157 151.423L250.736 151.154L251.157 151.423ZM238.574 159.185L238.737 159.658V159.658L238.574 159.185ZM219 160.849L219.2 160.391L219 160.849ZM212.2 143.027C216.27 144.822 220.646 146.717 225.252 146.536L225.212 145.537C220.876 145.707 216.71 143.923 212.603 142.112L212.2 143.027ZM225.252 146.536C227.58 146.444 229.968 145.657 231.871 144.316C233.776 142.975 235.224 141.057 235.598 138.703L234.61 138.546C234.288 140.573 233.035 142.274 231.296 143.499C229.555 144.725 227.354 145.452 225.212 145.537L225.252 146.536ZM235.598 138.703C235.787 137.514 235.695 136.272 235.671 135.157C235.647 134.011 235.692 132.964 236.086 132.007L235.162 131.626C234.683 132.788 234.647 134.015 234.672 135.178C234.697 136.371 234.781 137.473 234.61 138.546L235.598 138.703ZM236.086 132.007C236.608 130.743 237.72 129.839 239.081 129.366C240.444 128.891 242.016 128.864 243.381 129.317L243.696 128.367C242.114 127.843 240.316 127.877 238.752 128.421C237.187 128.966 235.816 130.039 235.162 131.626L236.086 132.007ZM243.381 129.317C246.156 130.237 248.241 132.631 249.771 135.26L250.635 134.757C249.06 132.049 246.815 129.402 243.696 128.367L243.381 129.317ZM249.771 135.26C252.629 140.175 253.706 146.511 250.736 151.154L251.578 151.692C254.837 146.6 253.585 139.829 250.635 134.757L249.771 135.26ZM250.736 151.154C248.145 155.203 243.205 157.066 238.412 158.712L238.737 159.658C243.469 158.033 248.77 156.082 251.578 151.692L250.736 151.154ZM238.412 158.712C235.24 159.801 231.923 160.872 228.642 161.343C225.366 161.813 222.16 161.68 219.2 160.391L218.801 161.308C221.987 162.695 225.397 162.819 228.785 162.332C232.168 161.847 235.565 160.747 238.737 159.658L238.412 158.712ZM219.2 160.391C213.257 157.804 210.011 150.303 212.209 144.256L211.269 143.915C208.889 150.463 212.378 158.512 218.801 161.308L219.2 160.391Z" fill="black" mask="url(#path-2-inside-1_4110_14720)"/>
<path d="M164.628 16.6426C164.628 16.6426 171.074 0.232378 161.843 0.00275123C152.611 -0.226875 145.32 13.9939 145.32 13.9939C145.32 13.9939 122.15 55.8623 153.894 53.6045C185.638 51.3466 170.469 34.6331 170.469 34.6331C170.469 34.6331 163.229 25.8088 164.628 16.6426Z" fill="#353535"/>
<path d="M162.221 159.243L162.309 159.232L174.868 157.768L174.885 157.766L174.902 157.766L174.897 158.016C174.902 157.766 174.902 157.766 174.902 157.766H174.903L174.904 157.766L174.909 157.766L174.927 157.767C174.936 157.767 174.948 157.768 174.963 157.768L174.997 157.769C175.058 157.772 175.147 157.776 175.262 157.782C175.492 157.795 175.826 157.818 176.242 157.859C177.075 157.94 178.238 158.09 179.565 158.366C182.213 158.919 185.534 159.982 188.163 162.03C189.423 163.011 190.565 163.412 191.563 163.477C192.563 163.541 193.44 163.271 194.17 162.877C194.901 162.481 195.48 161.963 195.878 161.541C196.077 161.33 196.229 161.145 196.331 161.013C196.381 160.947 196.42 160.895 196.445 160.859C196.458 160.841 196.467 160.828 196.473 160.819L196.479 160.81L196.481 160.808L196.481 160.808L162.221 159.243ZM162.221 159.243L162.159 159.306L162.338 159.481L162.159 159.306L162.159 159.307L162.157 159.308L162.152 159.313L162.13 159.336C162.111 159.355 162.081 159.384 162.043 159.422C161.967 159.498 161.854 159.609 161.709 159.747C161.42 160.023 161.005 160.407 160.501 160.842C159.491 161.712 158.132 162.776 156.722 163.565C155.3 164.361 153.877 164.848 152.721 164.641C152.153 164.54 151.642 164.269 151.216 163.769C150.787 163.265 150.434 162.515 150.209 161.443C149.287 157.059 148.873 153.819 148.69 151.678C148.598 150.608 148.563 149.812 148.552 149.286C148.546 149.022 148.546 148.826 148.548 148.697C148.548 148.632 148.549 148.584 148.55 148.552L148.551 148.518L148.551 148.517L151.504 128.026L151.515 127.954L151.485 127.887L151.257 127.99C151.485 127.887 151.485 127.887 151.485 127.887L151.484 127.886L151.483 127.883L151.477 127.87L151.454 127.817C151.444 127.795 151.433 127.769 151.419 127.737C151.403 127.7 151.384 127.655 151.363 127.604C151.284 127.416 151.17 127.136 151.03 126.771C150.751 126.041 150.369 124.971 149.961 123.616C149.145 120.905 148.226 117.054 147.812 112.497C146.985 103.384 148.181 91.4569 156.262 80.1682L156.292 80.1265L156.303 80.0764L156.059 80.0227C156.303 80.0764 156.303 80.0762 156.303 80.076L156.303 80.0751L156.304 80.0715L156.307 80.0579L156.318 80.0048C156.328 79.9581 156.343 79.889 156.361 79.7989C156.398 79.6188 156.451 79.3546 156.515 79.0179C156.642 78.3443 156.813 77.3799 156.987 76.2148C157.334 73.8855 157.694 70.7497 157.74 67.5308C157.786 64.3158 157.521 60.9985 156.607 58.3154C155.693 55.6307 154.111 53.5375 151.504 52.8673C149.348 52.3131 146.104 51.1708 142.98 49.4828C139.851 47.7921 136.872 45.57 135.213 42.8692C133.784 40.5436 133.563 37.7786 133.717 34.9177C133.786 33.6524 133.927 32.3776 134.067 31.1189C134.085 30.9558 134.103 30.793 134.121 30.6304C134.276 29.2178 134.417 27.8299 134.431 26.5248L134.431 26.5243C134.453 24.0171 135.14 22.0615 136.635 20.9013C138.13 19.7419 139.727 19.106 141.346 18.8413L141.347 18.8413C143.804 18.4369 146.132 17.0718 148.156 15.4196C150.182 13.7654 151.92 11.8084 153.198 10.1928C156.236 6.3498 160.347 3.44473 165.056 2.03253C169.26 0.771503 174.167 0.556322 178.442 3.69543C183.427 7.35563 187.931 11.0028 191.05 14.6862C194.171 18.3717 195.873 22.0539 195.334 25.7944C194.783 29.6186 193.633 33.6766 192.619 36.7833C192.113 38.3355 191.641 39.6481 191.295 40.5723C191.123 41.0344 190.982 41.3993 190.884 41.6485C190.835 41.773 190.797 41.8687 190.772 41.9331L190.742 42.0059L190.735 42.0242L190.733 42.0287L190.733 42.0298L190.733 42.03L190.964 42.1245L190.733 42.0301L190.696 42.1205L190.73 42.2119L201.811 71.8714L201.84 71.9494L201.91 71.9943L202.045 71.7839C201.91 71.9943 201.91 71.9943 201.91 71.9945L201.911 71.9952L201.916 71.9982L201.936 72.0111C201.954 72.0226 201.98 72.0401 202.015 72.0635C202.086 72.1104 202.191 72.1811 202.328 72.2755C202.602 72.4645 203.004 72.7488 203.514 73.1285C204.533 73.888 205.984 75.0293 207.704 76.5541C211.144 79.6038 215.66 84.1859 219.961 90.3129C228.561 102.564 236.302 120.994 232.859 145.716C231.651 154.392 224.604 161.12 215.81 161.997C209.64 162.613 202.544 162.617 196.768 160.708L196.586 160.648L196.481 160.807L162.221 159.243Z" fill="#F0CF65" stroke="black" stroke-width="0.5"/>
<path fill-rule="evenodd" clip-rule="evenodd" d="M143 32.5C143 32.7761 142.776 33 142.5 33C142.224 33 142 32.7761 142 32.5C142 32.2239 142.224 32 142.5 32C142.776 32 143 32.2239 143 32.5ZM142 34.5C142 34.7761 141.776 35 141.5 35C141.224 35 141 34.7761 141 34.5C141 34.2239 141.224 34 141.5 34C141.776 34 142 34.2239 142 34.5ZM145.5 36C145.776 36 146 35.7761 146 35.5C146 35.2239 145.776 35 145.5 35C145.224 35 145 35.2239 145 35.5C145 35.7761 145.224 36 145.5 36ZM144 34.5C144 34.7761 143.776 35 143.5 35C143.224 35 143 34.7761 143 34.5C143 34.2239 143.224 34 143.5 34C143.776 34 144 34.2239 144 34.5ZM144.5 34C144.776 34 145 33.7761 145 33.5C145 33.2239 144.776 33 144.5 33C144.224 33 144 33.2239 144 33.5C144 33.7761 144.224 34 144.5 34Z" fill="#353535"/>
<path d="M133.5 38C134.167 37.8333 135.9 37.7 137.5 38.5C139.5 39.5 143 42 148 44.5" stroke="#353535" stroke-linejoin="round"/>
<ellipse cx="159" cy="16.0012" rx="3" ry="6" transform="rotate(16 159 16.0012)" fill="black"/>
<ellipse cx="158.072" cy="16.5154" rx="2.25" ry="3.75" transform="rotate(16 158.072 16.5154)" fill="white"/>
<path d="M204.261 114.259L200.198 164.424C200.198 164.424 205.739 178.338 186.901 177.606C168.063 176.874 179.144 148.313 179.144 148.313L185.054 110.964" fill="#F0CF65"/>
<path d="M188.303 178C187.842 178 187.37 177.991 186.886 177.972C182.716 177.81 179.645 176.287 177.759 173.447C172.365 165.324 178.364 149.314 178.785 148.218L184.689 110.907C184.721 110.707 184.908 110.572 185.111 110.602C185.313 110.633 185.45 110.821 185.419 111.021L179.509 148.37C179.505 148.395 179.498 148.42 179.489 148.444C179.424 148.61 173.117 165.125 178.376 173.045C180.124 175.676 182.997 177.088 186.915 177.24C193.066 177.478 197.203 176.177 199.214 173.37C201.846 169.698 199.875 164.609 199.854 164.558C199.834 164.506 199.825 164.45 199.83 164.395L203.893 114.23C203.909 114.029 204.084 113.882 204.291 113.894C204.494 113.911 204.646 114.087 204.629 114.289L200.573 164.371C200.841 165.089 202.524 170.012 199.82 173.79C197.819 176.586 193.947 178 188.303 178Z" fill="#353535"/>
<path d="M170.649 124.512C170.649 124.512 171.757 171.015 148.487 169.916C125.216 168.818 146.27 154.171 146.27 154.171L148.302 148.496" fill="#F0CF65"/>
<path d="M149.285 170.302C149.015 170.302 148.743 170.295 148.469 170.282C141.824 169.969 138.07 168.493 137.311 165.896C135.943 161.217 144.861 154.72 145.961 153.94L147.954 148.373C148.022 148.182 148.233 148.083 148.425 148.151C148.617 148.218 148.718 148.427 148.65 148.618L146.618 154.294C146.593 154.365 146.545 154.427 146.482 154.471C146.385 154.539 136.739 161.313 138.021 165.692C138.683 167.955 142.21 169.253 148.504 169.551C152.696 169.751 156.37 168.353 159.419 165.402C170.852 154.338 170.286 124.817 170.279 124.52C170.274 124.318 170.436 124.151 170.64 124.146C170.833 124.146 171.013 124.301 171.018 124.503C171.047 125.728 171.599 154.638 159.936 165.926C156.934 168.832 153.353 170.302 149.285 170.302Z" fill="#353535"/>
<path d="M134.181 26.5221C136.833 26.837 140.985 26.8223 144.424 24.5485C148.106 22.1135 144.283 19.8432 141.306 18.5946C139.648 18.8656 138.011 19.5174 136.482 20.7037C134.901 21.9304 134.203 23.9773 134.181 26.5221Z" fill="#353535"/>
<path d="M177.038 19.9381C177.038 19.9381 170.593 3.52788 179.824 3.29825C189.055 3.06863 196.347 17.2894 196.347 17.2894C196.347 17.2894 219.517 59.1578 187.772 56.9C156.028 54.6421 171.197 37.9286 171.197 37.9286C171.197 37.9286 178.438 29.1043 177.038 19.9381Z" fill="#353535"/>
<path d="M198.763 63.5037C198.763 63.5037 206.889 67.5315 202.826 71.9255C198.763 76.3195 173.646 88.7691 164.412 86.9383C155.177 85.1075 152.961 79.615 152.961 78.1503C152.961 76.6856 153.658 58.9681 156.613 59.7004C159.568 60.4328 178.078 77.0518 198.763 63.5037Z" fill="#6C63FF"/>
</g>
<defs>
<clipPath id="clip0_4110_14720">
<rect width="328" height="178" fill="white"/>
</clipPath>
</defs>
</svg>
