<?xml version="1.0" encoding="UTF-8"?>
<svg width="81" height="81" viewBox="0 0 81 81" fill="none" xmlns="http://www.w3.org/2000/svg">
<path d="M7.98438 36.4036H32.2455V65.4999H12.6719C10.083 65.4999 7.98438 63.4013 7.98438 60.8124V36.4036Z" fill="#ABC8FF"/>
<path d="M26.1152 36.4036H73.0002V60.8124C73.0002 63.4013 70.9016 65.4999 68.3127 65.4999H30.8027C28.2139 65.4999 26.1152 63.4013 26.1152 60.8124V36.4036Z" fill="#CFE1FF"/>
<path d="M40.582 36.4036H59.7848L58.5473 39.533C58.1583 40.5168 57.2078 41.1631 56.1498 41.1631H44.217C43.1591 41.1631 42.2086 40.5168 41.8195 39.533L40.582 36.4036Z" fill="#ABC8FF"/>
<path d="M51.4519 17.0119C50.4276 16.0388 46.701 13.4028 41.5385 13.5256C35.0853 13.6792 32.2461 15.1682 32.2461 17.0119C32.2461 19.8696 51.4519 18.1394 51.4519 23.1577C51.4519 26.5379 36.3945 23.1577 36.3945 27.9207C36.3945 31.7312 42.9501 33.6057 46.2279 34.0666" stroke="#ABC8FF" stroke-width="0.78125" stroke-linecap="round" stroke-dasharray="1.56 1.56"/>
</svg>
