<?xml version="1.0" encoding="UTF-8"?>
<svg width="158" height="159" viewBox="0 0 158 159" fill="none" xmlns="http://www.w3.org/2000/svg">
<g id="error">
<path id="vector" d="M78.9758 114.742C81.1481 114.742 82.9415 114.059 84.3561 112.691C85.7705 111.324 86.4777 109.554 86.4777 107.382C86.4777 105.209 85.7785 103.4 84.3801 101.955C82.9817 100.509 81.1963 99.7865 79.0239 99.7865C76.8516 99.7865 75.0582 100.508 73.6437 101.952C72.2292 103.395 71.522 105.203 71.522 107.376C71.522 109.548 72.2212 111.319 73.6196 112.688C75.0181 114.058 76.8035 114.742 78.9758 114.742ZM79.5224 87.3284C81.3638 87.3284 82.9058 86.7002 84.1485 85.4437C85.3913 84.1873 86.0126 82.6425 86.0126 80.8094V50.6263C86.0126 48.7933 85.3817 47.2485 84.1197 45.992C82.8577 44.7355 81.3061 44.1073 79.4648 44.1073C77.6235 44.1073 76.0814 44.7355 74.8387 45.992C73.596 47.2485 72.9746 48.7933 72.9746 50.6263V80.8094C72.9746 82.6425 73.6056 84.1873 74.8675 85.4437C76.1295 86.7002 77.6812 87.3284 79.5224 87.3284ZM79.0565 147.659C69.5981 147.659 60.7377 145.882 52.4753 142.327C44.213 138.773 36.9855 133.899 30.7929 127.707C24.6004 121.514 19.7269 114.287 16.1725 106.025C12.618 97.7631 10.8408 88.8982 10.8408 79.4305C10.8408 69.9628 12.618 61.0937 16.1725 52.8232C19.7269 44.5526 24.5956 37.3469 30.7784 31.206C36.9612 25.065 44.1858 20.2035 52.4524 16.6212C60.7189 13.039 69.5886 11.2479 79.0616 11.2479C88.5345 11.2479 97.4098 13.0366 105.688 16.614C113.966 20.1914 121.173 25.0464 127.309 31.1791C133.445 37.3118 138.303 44.5234 141.883 52.8139C145.462 61.1044 147.252 69.9852 147.252 79.4562C147.252 88.9231 145.461 97.7873 141.879 106.049C138.296 114.31 133.435 121.523 127.294 127.688C121.153 133.853 113.943 138.722 105.663 142.297C97.3838 145.872 88.5149 147.659 79.0565 147.659V147.659ZM79.0822 134.621C94.3598 134.621 107.352 129.259 118.06 118.536C128.767 107.813 134.121 94.7732 134.121 79.4177C134.121 64.1401 128.777 51.1475 118.091 40.4401C107.404 29.7326 94.358 24.3789 78.9533 24.3789C63.6996 24.3789 50.7071 29.7223 39.9757 40.4093C29.2444 51.0961 23.8788 64.1419 23.8788 79.5465C23.8788 94.8002 29.2405 107.793 39.9638 118.524C50.6872 129.255 63.7267 134.621 79.0822 134.621Z" fill="#DF4535"/>
</g>
</svg>
