<?xml version="1.0" encoding="UTF-8"?>
<svg width="14" height="14" viewBox="0 0 14 14" fill="none" xmlns="http://www.w3.org/2000/svg">
  <path d="M2.975 12.25C2.63812 12.25 2.34974 12.1301 2.10984 11.8902C1.86995 11.6503 1.75 11.3619 1.75 11.025V2.975C1.75 2.63812 1.86995 2.34974 2.10984 2.10984C2.34974 1.86995 2.63812 1.75 2.975 1.75H6.44776C6.61175 1.75 6.75451 1.81076 6.87604 1.93229C6.99757 2.05382 7.05833 2.19722 7.05833 2.3625C7.05833 2.52778 6.99757 2.67118 6.87604 2.79271C6.75451 2.91424 6.61175 2.975 6.44776 2.975H2.975V11.025H11.025V7.55224C11.025 7.38825 11.0858 7.24549 11.2073 7.12396C11.3288 7.00243 11.4722 6.94167 11.6375 6.94167C11.8028 6.94167 11.9462 7.00243 12.0677 7.12396C12.1892 7.24549 12.25 7.38825 12.25 7.55224V11.025C12.25 11.3619 12.1301 11.6503 11.8902 11.8902C11.6503 12.1301 11.3619 12.25 11.025 12.25H2.975ZM5.24937 8.74937C5.13312 8.63312 5.075 8.48993 5.075 8.31979C5.075 8.14965 5.13333 8.00625 5.25 7.88958L10.1646 2.975H8.89583C8.73056 2.975 8.58715 2.91424 8.46562 2.79271C8.3441 2.67118 8.28333 2.52778 8.28333 2.3625C8.28333 2.19722 8.3441 2.05382 8.46562 1.93229C8.58715 1.81076 8.73056 1.75 8.89583 1.75H11.6375C11.8028 1.75 11.9462 1.81076 12.0677 1.93229C12.1892 2.05382 12.25 2.19722 12.25 2.3625V5.10417C12.25 5.26944 12.1892 5.41285 12.0677 5.53437C11.9462 5.6559 11.8028 5.71667 11.6375 5.71667C11.4722 5.71667 11.3288 5.6559 11.2073 5.53437C11.0858 5.41285 11.025 5.26944 11.025 5.10417V3.83542L6.09583 8.76458C5.98391 8.88125 5.84656 8.93958 5.68377 8.93958C5.52098 8.93958 5.37618 8.87618 5.24937 8.74937Z" fill="#212121"/>
</svg> 
