<?xml version="1.0" encoding="UTF-8"?>
<svg width="124px" height="112px" viewBox="0 0 124 112" version="1.1" xmlns="http://www.w3.org/2000/svg" xmlns:xlink="http://www.w3.org/1999/xlink">
    <!-- Generator: Sketch 63.1 (92452) - https://sketch.com -->
    <title>Group 5</title>
    <desc>Created with Sketch.</desc>
    <defs>
        <filter x="-13.1%" y="-9.0%" width="126.8%" height="117.9%" filterUnits="objectBoundingBox" id="filter-1">
            <feOffset dx="0" dy="2" in="SourceAlpha" result="shadowOffsetOuter1"></feOffset>
            <feGaussianBlur stdDeviation="2" in="shadowOffsetOuter1" result="shadowBlurOuter1"></feGaussianBlur>
            <feColorMatrix values="0 0 0 0 0.0352941176   0 0 0 0 0.117647059   0 0 0 0 0.258823529  0 0 0 0.25 0" type="matrix" in="shadowBlurOuter1" result="shadowMatrixOuter1"></feColorMatrix>
            <feMerge>
                <feMergeNode in="shadowMatrixOuter1"></feMergeNode>
                <feMergeNode in="SourceGraphic"></feMergeNode>
            </feMerge>
        </filter>
        <path d="M11.1677561,0.633231707 C9.57691463,0.633231707 7.99342683,1.82370732 8.01467073,3.4505 L8.01467073,3.4505 C8.21567073,19.5255976 0.826060976,12.5142927 0.353792683,22.2243902 L0.353792683,22.2243902 L0.303134146,22.2243902 L0.303134146,49.9158171 C0.303134146,54.7447195 4.1294878,55.9613415 8.84808537,55.9613415 L8.84808537,55.9613415 L15.4957927,55.9613415 C20.2152073,55.9613415 24.041561,54.7447195 24.041561,49.9158171 L24.041561,49.9158171 L24.041561,22.2243902 L23.9909024,22.2243902 C23.5186341,12.5142927 16.3308415,19.5255976 16.3308415,3.4505 L16.3308415,3.4505 C16.3308415,1.82370732 14.7677805,0.633231707 13.1777561,0.633231707 L13.1777561,0.633231707 L11.1677561,0.633231707 Z" id="path-2"></path>
        <path d="M35,8.75 C49.4974747,8.75 61.25,20.5025253 61.25,35 C61.25,49.4974747 49.4974747,61.25 35,61.25 C20.5025253,61.25 8.75,49.4974747 8.75,35 C8.75,20.5025253 20.5025253,8.75 35,8.75 Z M41.6876052,27.1042719 L32.0833333,36.7085438 L28.3123948,32.9376052 C27.1733656,31.798576 25.3266344,31.798576 24.1876052,32.9376052 C23.048576,34.0766344 23.048576,35.9233656 24.1876052,37.0623948 L30.0209386,42.8957281 C31.1599677,44.0347573 33.0066989,44.0347573 34.1457281,42.8957281 L45.8123948,31.2290614 C46.951424,30.0900323 46.951424,28.2433011 45.8123948,27.1042719 C44.6733656,25.9652427 42.8266344,25.9652427 41.6876052,27.1042719 Z" id="path-4"></path>
    </defs>
    <g id="Page-1" stroke="none" stroke-width="1" fill="none" fill-rule="evenodd">
        <g id="rc_6" transform="translate(-125.000000, -187.000000)">
            <g id="Group-6" transform="translate(111.000000, 167.000000)">
                <g id="Group-5" transform="translate(14.000000, 0.000000)">
                    <g id="grocery/billing" filter="url(#filter-1)">
                        <g id="Group-14">
                            <path d="M44.6473293,22.2030646 L15.4484024,22.2030646 C14.7710488,22.2030646 14.2227927,22.7513207 14.2227927,23.4286744 L14.2227927,30.1156012 L7.62819512,41.9844061 L7.62819512,89.4604427 L37.9604024,89.4604427 L37.9604024,41.9844061 L39.0438415,41.9844061 L45.872939,30.1156012 L45.872939,23.4286744 C45.872939,22.7513207 45.3246829,22.2030646 44.6473293,22.2030646" id="Fill-2" fill="#FFE600"></path>
                            <path d="M29.8911512,34.5469159 L31.2605659,36.9580988 L31.285078,36.9433915 C31.9052366,37.7375866 33.4903585,37.7384037 34.9676268,36.8992695 C36.4448951,36.0609524 37.2554317,34.6988915 36.8910171,33.7600744 L36.9163463,33.7453671 L35.5469317,31.3350012 L29.8911512,34.5469159 Z" id="Fill-4" fill="#CCCCCC"></path>
                            <path d="M35.5466866,31.3349195 C36.0786012,32.2712854 35.2443695,33.7510049 33.6829427,34.6375293 C32.1206988,35.5240537 30.4236378,35.4840171 29.8909061,34.5468341 C29.3589915,33.6096512 30.1932232,32.1315659 31.7554671,31.2442244 C33.3168939,30.3568829 35.014772,30.3977366 35.5466866,31.3349195" id="Fill-6" fill="#FFFFFF"></path>
                            <polygon id="Fill-8" fill="#F4BE18" points="45.8731841 30.1156829 37.9606476 41.9844878 37.9606476 89.4605244 45.8731841 89.4605244 53.7857207 89.4605244 53.7857207 41.9844878"></polygon>
                            <polygon id="Fill-10" fill="#EFA603" points="37.9604024 73.6354512 53.7854756 73.6354512 53.7854756 61.7666463 37.9604024 61.7666463"></polygon>
                            <polygon id="Fill-12" fill="#F4BE18" points="12.8484756 74.1698171 37.8362073 74.1698171 37.8362073 61.7666463 12.8484756 61.7666463"></polygon>
                            <path d="M72.1982195,55.7246354 C71.7259512,46.0145378 64.5381585,53.0258427 64.5381585,36.9507451 C64.5381585,35.3231354 62.9750976,34.1334768 61.3842561,34.1334768 L59.3750732,34.1334768 C57.7842317,34.1334768 56.2007439,35.3231354 56.2211707,36.9507451 C56.4238049,53.0258427 49.033378,46.0145378 48.5611098,55.7246354 L48.5104512,55.7246354 L48.5104512,83.4160622 C48.5104512,88.2449646 52.3368049,89.4607695 57.0562195,89.4607695 L63.7039268,89.4607695 C68.4225244,89.4607695 72.248878,88.2449646 72.248878,83.4160622 L72.248878,55.7246354 L72.1982195,55.7246354 Z" id="Fill-13" fill="#2060E0"></path>
                        </g>
                        <g id="Group-17" transform="translate(48.207317, 33.500000)">
                            <mask id="mask-3" fill="white">
                                <use xlink:href="#path-2"></use>
                            </mask>
                            <g id="Clip-16"></g>
                            <polygon id="Fill-15" fill="#2060E0" mask="url(#mask-3)" points="-4.97107317 45.7781585 14.8102683 45.7781585 14.8102683 24.309561 -4.97107317 24.309561"></polygon>
                        </g>
                        <g id="Group-43">
                            <path d="M63.789311,31.4342756 L56.9700183,31.4342756 C56.4258476,31.4342756 55.983811,31.8763122 55.983811,32.4213 L55.983811,33.146861 C55.983811,33.6918488 56.4258476,34.1330683 56.9700183,34.1330683 L63.789311,34.1330683 C64.3342988,34.1330683 64.7755183,33.6918488 64.7755183,33.146861 L64.7755183,32.4213 C64.7755183,31.8763122 64.3342988,31.4342756 63.789311,31.4342756" id="Fill-18" fill="#56B94D"></path>
                            <path d="M65.2772829,37.260661 C64.7756,35.7678683 64.7756,34.2758927 64.7756,32.7839171 L55.9838927,32.7839171 C55.9838927,34.2758927 55.9838927,35.7678683 55.4822098,37.260661 C55.3375878,37.6912585 55.5671854,38.1815024 55.9144415,38.1815024 L64.8450512,38.1815024 C65.1923073,38.1815024 65.4219049,37.6912585 65.2772829,37.260661" id="Fill-20" fill="#56B94D"></path>
                            <path d="M60.0792268,55.8319171 L56.9473854,55.8319171 C54.6252634,55.8319171 52.7427268,57.7144537 52.7427268,60.0365756 L52.7427268,73.0754293 C52.7427268,75.3975512 54.6252634,77.2800878 56.9473854,77.2800878 L60.0792268,77.2800878 C62.4013488,77.2800878 64.2838854,75.3975512 64.2838854,73.0754293 L64.2838854,60.0365756 C64.2838854,57.7144537 62.4013488,55.8319171 60.0792268,55.8319171" id="Fill-22" fill="#F4BE18"></path>
                            <polyline id="Fill-24" fill="#FFFFFF" points="20.0166585 101.187485 20.0166585 118.281473 67.7566098 118.578888 73.5896951 81.8465463 18.9332195 101.385217"></polyline>
                            <path d="M65.6070537,118.578643 L14.7483341,118.578643 C10.816578,118.578643 7.62835854,115.39124 7.62835854,111.458667 L7.62835854,77.3229841 L72.7270293,77.3229841 L72.7270293,111.458667 C72.7270293,115.39124 69.5388098,118.578643 65.6070537,118.578643" id="Fill-26" fill="#56B94D"></path>
                            <path d="M73.4549598,74.1698171 L6.15100854,74.1698171 C5.58069146,74.1698171 5.11741098,74.6322805 5.11741098,75.2034146 L5.11741098,81.4090854 C5.11741098,81.9802195 5.58069146,82.4426829 6.15100854,82.4426829 L73.4549598,82.4426829 C74.0252768,82.4426829 74.4885573,81.9802195 74.4885573,81.4090854 L74.4885573,75.2034146 C74.4885573,74.6322805 74.0252768,74.1698171 73.4549598,74.1698171" id="Fill-28" fill="#89D15E"></path>
                            <path d="M38.3633012,76.4379305 L4.99566707,109.805565 C3.54781341,111.253418 3.54781341,113.600052 4.99566707,115.047906 L4.99566707,115.047906 C6.44270366,116.494943 8.79015488,116.494943 10.2371915,115.047906 L43.6048256,81.680272 C45.0526793,80.2324183 45.0526793,77.8849671 43.6048256,76.4379305 C42.157789,74.9908939 39.8103378,74.9908939 38.3633012,76.4379305" id="Fill-30" fill="#89D15E"></path>
                            <path d="M47.1544366,79.0858195 C47.1544366,74.6793439 43.5821927,71.1079171 39.1765341,71.1079171 C34.7700585,71.1079171 31.1978146,74.6793439 31.1978146,79.0858195 C31.1978146,83.4922951 34.7700585,87.064539 39.1765341,87.064539 C43.5821927,87.064539 47.1544366,83.4922951 47.1544366,79.0858195" id="Fill-32" fill="#2D9B51"></path>
                            <path d="M42.5967207,79.0858195 C42.5967207,77.1967463 41.0655256,75.6655512 39.1764524,75.6655512 C37.2873793,75.6655512 35.7553671,77.1967463 35.7553671,79.0858195 C35.7553671,80.9748927 37.2873793,82.5069049 39.1764524,82.5069049 C41.0655256,82.5069049 42.5967207,80.9748927 42.5967207,79.0858195" id="Fill-34" fill="#89D15E"></path>
                            <path d="M60.6734841,87.0207439 C55.6926061,93.1381707 56.3152159,108.431329 60.6734841,113.783976 L81.7106671,113.783976 L81.7106671,87.0207439 L60.6734841,87.0207439 Z" id="Fill-36" fill="#EA4B4B"></path>
                            <path d="M81.7109122,87.0207439 C76.7300341,93.1381707 77.3526439,108.431329 81.7109122,113.783976 C86.0691805,108.431329 86.6917902,93.1381707 81.7109122,87.0207439" id="Fill-38" fill="#DD3131"></path>
                            <polygon id="Fill-40" fill="#DD3131" points="60.6734024 87.0207439 81.7105854 87.0207439 81.7105854 82.432878 60.6734024 82.432878"></polygon>
                            <polygon id="Fill-42" fill="#DD3131" points="60.6734024 118.371841 81.7105854 118.371841 81.7105854 113.783976 60.6734024 113.783976"></polygon>
                        </g>
                    </g>
                    <g id="standard/action/check-circle" transform="translate(62.000000, 70.000000)">
                        <mask id="mask-5" fill="white">
                            <use xlink:href="#path-4"></use>
                        </mask>
                        <use id="Combined-Shape" fill="#42526E" fill-rule="evenodd" xlink:href="#path-4"></use>
                        <g id="Neutral-/-N000" mask="url(#mask-5)" fill="#FFFFFF" fill-rule="evenodd">
                            <polygon id="N0" points="0 70 70 70 70 0 0 0"></polygon>
                        </g>
                    </g>
                </g>
            </g>
        </g>
    </g>
</svg>