<?xml version="1.0" encoding="UTF-8"?>
<svg width="24" height="24" viewBox="0 0 24 24" fill="none" xmlns="http://www.w3.org/2000/svg">
<path fill-rule="evenodd" clip-rule="evenodd" d="M10.297 4.29149L3.298 11.2905C3.296 11.2915 3.294 11.2925 3.291 11.2945C3.097 11.4885 3 11.7455 3 12.0025C3 12.2595 3.097 12.5165 3.291 12.7115C3.294 12.7125 3.297 12.7135 3.299 12.7155L10.294 19.7105C10.683 20.1005 11.319 20.1005 11.708 19.7105C12.097 19.3225 12.097 18.6855 11.708 18.2965L6.414 13.0025H20C20.55 13.0025 21 12.5525 21 12.0025C21 11.4535 20.55 11.0035 20 11.0035H6.414L11.711 5.70549C12.1 5.31649 12.1 4.68049 11.711 4.29149C11.516 4.09749 11.26 4.00049 11.003 4.00049C10.747 4.00049 10.49 4.09749 10.297 4.29149Z" fill="white"/>
<mask id="mask0_861_353" style="mask-type:alpha" maskUnits="userSpaceOnUse" x="3" y="4" width="18" height="17">
<path fill-rule="evenodd" clip-rule="evenodd" d="M10.297 4.29149L3.298 11.2905C3.296 11.2915 3.294 11.2925 3.291 11.2945C3.097 11.4885 3 11.7455 3 12.0025C3 12.2595 3.097 12.5165 3.291 12.7115C3.294 12.7125 3.297 12.7135 3.299 12.7155L10.294 19.7105C10.683 20.1005 11.319 20.1005 11.708 19.7105C12.097 19.3225 12.097 18.6855 11.708 18.2965L6.414 13.0025H20C20.55 13.0025 21 12.5525 21 12.0025C21 11.4535 20.55 11.0035 20 11.0035H6.414L11.711 5.70549C12.1 5.31649 12.1 4.68049 11.711 4.29149C11.516 4.09749 11.26 4.00049 11.003 4.00049C10.747 4.00049 10.49 4.09749 10.297 4.29149Z" fill="white"/>
</mask>
<g mask="url(#mask0_861_353)">
<path fill-rule="evenodd" clip-rule="evenodd" d="M6 24H30V0H6V24Z" fill="white"/>
</g>
</svg>
