<?xml version="1.0" encoding="UTF-8"?>
<svg width="22px" height="43px" viewBox="0 0 22 43" version="1.1" xmlns="http://www.w3.org/2000/svg" xmlns:xlink="http://www.w3.org/1999/xlink">
    <!-- Generator: Sketch 52.5 (67469) - http://www.bohemiancoding.com/sketch -->
    <title>google_maps_pin</title>
    <desc>Created with Sketch.</desc>
    <defs>
        <filter x="-37.5%" y="-200.0%" width="175.0%" height="500.0%" filterUnits="objectBoundingBox" id="filter-1">
            <feGaussianBlur stdDeviation="1" in="SourceGraphic"></feGaussianBlur>
        </filter>
        <linearGradient x1="50%" y1="0%" x2="50%" y2="100%" id="linearGradient-2">
            <stop stop-color="#FB7467" offset="0%"></stop>
            <stop stop-color="#F3443B" offset="100%"></stop>
        </linearGradient>
    </defs>
    <g id="Page-1" stroke="none" stroke-width="1" fill="none" fill-rule="evenodd">
        <g id="Desktop-HD-Copy-6" transform="translate(-520.000000, -394.000000)">
            <g id="google_maps_pin" transform="translate(520.000000, 394.000000)">
                <path d="M11,41.2 C13.209139,41.2 15,40.8642136 15,40.45 C15,40.0357864 13.209139,39.7 11,39.7 C8.790861,39.7 7,40.0357864 7,40.45 C7,40.8642136 8.790861,41.2 11,41.2 Z" id="circle" fill-opacity="0.5" fill="#000000" filter="url(#filter-1)"></path>
                <path d="M10.7534547,39.5 L11.1982344,39.5 L11.2021423,37.9773435 C11.7001254,34.5484817 12.3504736,31.3640671 13.1606259,28.9962495 C14.1346945,26.1493563 16.6501368,21.6852741 19.5549842,17.0893699 C20.8132917,15.324891 21.5,13.2147168 21.5,11 C21.5,5.20101013 16.7989899,0.5 11,0.5 C5.20101013,0.5 0.5,5.20101013 0.5,11 C0.5,13.2125342 1.18535021,15.3207496 2.45784347,17.1089014 C5.30943191,21.6619913 7.81077631,26.1349328 8.78977997,28.9962495 C9.59993222,31.3640671 10.2502804,34.5484817 10.7534547,38.049206 L10.7534547,39.5 Z" id="pin" stroke="#B73830" fill="url(#linearGradient-2)"></path>
                <path d="M11,16 C13.209139,16 15,14.209139 15,12 C15,9.790861 13.209139,8 11,8 C8.790861,8 7,9.790861 7,12 C7,14.209139 8.790861,16 11,16 Z" id="circle" fill="#5C1410"></path>
            </g>
        </g>
    </g>
</svg>