<?xml version="1.0" encoding="UTF-8"?>
<svg width="260" height="180" viewBox="0 0 260 180" fill="none" xmlns="http://www.w3.org/2000/svg">
<path d="M221.923 141.854C234.422 128.053 225.931 106.756 211.903 96.1201C199.688 86.8559 189.528 81.2296 168.821 80.5206C148.113 79.8115 136.761 79.8079 124.402 65.2773C112.043 50.7466 95.3333 28.7903 76.6468 28.0527C58.6115 27.3401 47.5917 33.369 37.2397 75.9134C26.8878 118.458 34.4865 137.964 37.9111 140.788C54.5648 154.521 203.769 156.517 221.923 141.854Z" fill="#E5EDF6"/>
<mask id="mask0_4540_22934" style="mask-type:alpha" maskUnits="userSpaceOnUse" x="32" y="28" width="196" height="124">
<path d="M221.923 141.854C234.422 128.053 225.931 106.756 211.903 96.1201C199.688 86.8559 189.528 81.2296 168.821 80.5206C148.113 79.8115 136.761 79.8079 124.402 65.2773C112.043 50.7466 95.3333 28.7903 76.6468 28.0527C58.6115 27.3401 47.5917 33.369 37.2397 75.9134C26.8878 118.458 34.4865 137.964 37.9111 140.788C54.5648 154.521 203.769 156.517 221.923 141.854Z" fill="#E5EDF6"/>
</mask>
<g mask="url(#mask0_4540_22934)">
<g clip-path="url(#clip0_4540_22934)">
<path d="M89.0684 59.9492C92.3792 53.8756 99.973 51.6437 106.029 54.9639C112.086 58.2841 114.312 65.8998 111.001 71.9736C109.677 74.4016 107.668 76.2128 105.348 77.3037L104.476 83.4268L96.4873 82.9736L96.043 77.8398C95.3625 77.609 94.6921 77.3165 94.04 76.959C87.9838 73.6387 85.7577 66.023 89.0684 59.9492Z" fill="#FFCCA2"/>
<path d="M66.4922 144.166V145.216C66.4937 146.955 67.1854 148.623 68.4154 149.853C69.6455 151.083 71.3134 151.775 73.0529 151.777H128.688C130.428 151.776 132.096 151.085 133.326 149.854C134.557 148.624 135.248 146.956 135.249 145.216V144.166C135.252 142.631 134.713 141.144 133.726 139.967C133.398 139.577 133.027 139.225 132.619 138.918H103.762C103.414 138.917 103.081 138.779 102.835 138.533C102.589 138.287 102.45 137.953 102.45 137.605H73.0529C71.3136 137.608 69.6463 138.3 68.4164 139.53C67.1866 140.76 66.4946 142.427 66.4922 144.166Z" fill="#D4DFEC"/>
<path d="M107.55 83.2785C107.55 83.2785 100.641 78.1519 93.1705 83.2785L88 126H103.525L105.825 112.329L111 91.8228L107.55 83.2785Z" fill="white"/>
<path d="M123.074 148.816L95.1698 139.749L81.867 150.253L95.999 171.753L88.6075 181.399L88.3961 181.16C87.4791 180.12 65.9378 155.623 66.0001 148.675C66.062 141.786 68.3559 134.86 68.3791 134.79L75.3766 124.906L85.3081 122L118.188 126.592L118.242 126.6L131.526 134.646C132.841 135.487 133.949 136.61 134.769 137.934C135.589 139.257 136.099 140.747 136.263 142.293C136.834 147.403 137.981 188.319 137.992 188.732L138 189H123.651L123.074 148.816Z" fill="#9FAAFF"/>
<path d="M105.964 138.707C101.039 136.6 94.7496 128.371 93.713 126.984C91.6866 128.046 76.9083 135.65 72.7422 133.695C72.137 134.017 69.4018 135.588 68.9091 137.959L68.7856 138.554L68.4285 138.055C68.3627 137.962 61.9442 128.773 70.2475 123.062C77.8186 117.856 79.8554 112.596 80.0688 111.994L75.9608 91.0886L76.0686 90.9922C76.4055 90.6909 84.4026 83.6065 91.6996 82.764L96.2008 82L96.3976 98.499V119.621C100.035 119.181 105.789 82.2746 105.789 82.2746L108.795 83.3353C109.572 83.4788 118.303 85.158 120.62 88.5042L120.695 88.6129L112.754 109.285L110.432 112.652V116.961L124 128.321L123.807 128.515C123.345 128.982 113.34 139.001 107.511 139C106.98 139.008 106.453 138.908 105.964 138.707Z" fill="#BFC6FF"/>
<path d="M97.0454 142.498C97.1403 141.797 97.3992 141.123 97.8038 140.525C98.2084 139.927 98.7488 139.419 99.3871 139.036C100.025 138.654 100.746 138.406 101.498 138.311C102.25 138.216 103.015 138.276 103.74 138.486L111.338 130L118 133.044L107.088 144.888C106.629 145.998 105.747 146.913 104.612 147.459C103.477 148.005 102.166 148.143 100.928 147.849C99.6896 147.554 98.6107 146.847 97.8951 145.861C97.1796 144.874 96.8773 143.678 97.0454 142.498Z" fill="#FFCCA2"/>
<path d="M102 135.188L114.054 119.863L111.068 104.68L115.912 87.5747L116.034 87.5255C116.131 87.4859 118.45 86.5661 120.214 87.2555C120.575 87.3958 120.901 87.605 121.172 87.87C121.443 88.1349 121.652 88.4499 121.787 88.7949C122.987 91.6183 125.878 120.372 126 121.645C125.975 121.877 125.382 127.361 124.175 129.635C122.974 131.897 112.016 143.314 111.55 143.8L111.357 144L102 135.188Z" fill="#BFC6FF"/>
<path d="M110.639 62.8865C106.489 68.2206 99.3756 67.2432 93.6845 65.2912C94.0155 69.5614 92.881 73.8161 90.4757 77.3242C91.2106 74.2986 89.4743 74.0452 87.9717 72.7016C87.0326 71.9338 84.9606 70.3554 84.6751 69.2465C83.5478 67.7109 82.7128 59.0733 84.6752 57.8388C87.1128 54.5041 90.0386 50.3406 94.683 51.2165C98.3579 46.8353 104.38 47.9747 108.489 51.0395C110.337 52.4364 112.017 54.0502 113.496 55.8477C113.023 58.2131 112.143 60.4737 110.895 62.5241" fill="#5F5D5D"/>
<path d="M101.955 146.192C101.86 145.452 101.601 144.741 101.196 144.11C100.792 143.478 100.251 142.942 99.613 142.538C98.9747 142.134 98.2542 141.873 97.5022 141.773C96.7502 141.673 95.985 141.736 95.2605 141.958L87.6618 133L81 136.213L91.9115 148.715C92.3714 149.887 93.2525 150.853 94.388 151.429C95.5235 152.005 96.8344 152.151 98.0724 151.84C99.3104 151.529 100.389 150.783 101.105 149.742C101.82 148.701 102.123 147.438 101.955 146.192Z" fill="#FFCCA2"/>
<path d="M87.8535 144.859C87.1734 144.373 71.1756 132.918 69.3883 129.512C67.5983 126.101 68.042 116.001 68.0652 115.541C68.093 115.383 70.8782 99.5977 73.2341 93.9867C75.6785 88.1649 81.8268 90.4293 81.8886 90.453L82.0744 90.5238L79.3973 120.28L94 138.736L88.0506 145L87.8535 144.859Z" fill="#BFC6FF"/>
</g>
<path d="M138.097 89H185.735C186.261 88.9993 186.78 89.1327 187.247 89.3889C187.713 89.645 188.114 90.0164 188.415 90.4711C188.716 90.9258 188.907 91.4505 188.974 92.0002C189.04 92.55 188.98 93.1085 188.797 93.6282L176.785 128H121L133.421 92.4248C133.775 91.419 134.413 90.5514 135.249 89.9391C136.085 89.3267 137.079 88.999 138.097 89Z" fill="#D4DFEC"/>
<path d="M176.969 128.146H104.664C104.179 128.146 103.698 128.272 103.25 128.517C102.801 128.762 102.394 129.12 102.051 129.572C101.708 130.025 101.436 130.561 101.25 131.152C101.064 131.743 100.969 132.376 100.969 133.015V133.146H173.274C174.254 133.146 175.194 132.634 175.887 131.72C176.579 130.807 176.969 129.569 176.969 128.278V128.146Z" fill="#F0F5FB"/>
<path d="M36.5703 133.053C39.6384 133.706 42.9572 138.419 46.4984 138.989L212.642 139.053C216.183 138.483 219.502 133.77 222.57 133.116L36.5703 133.053Z" fill="#D4DFEC"/>
<path d="M54.1211 136H58.1211V147L54.1211 146.312V136Z" fill="#D4DFEC"/>
<path d="M208.133 137.645H204.133V148.645L208.133 147.957V137.645Z" fill="#D4DFEC"/>
</g>
<path d="M161.751 46C148.082 46 137.002 54.0589 137.002 64C137.002 71.6005 143.479 78.0997 152.638 80.7393C155.717 84.8376 164.325 86 169.335 86C168.784 84.7706 168.232 83.139 167.931 81.4336C178.609 79.4372 186.5 72.3892 186.5 64C186.5 54.0589 175.42 46.0001 161.751 46Z" fill="#E66F61"/>
<path d="M168.611 68.781C169.13 69.2997 169.13 70.1066 168.611 70.6254C168.352 70.8847 168.036 71 167.69 71C167.345 71 167.028 70.8847 166.769 70.6254L161.5 65.3516L156.231 70.6254C155.972 70.8847 155.655 71 155.31 71C154.964 71 154.648 70.8847 154.389 70.6254C153.87 70.1066 153.87 69.2997 154.389 68.781L159.657 63.5072L154.389 58.2334C153.87 57.7147 153.87 56.9078 154.389 56.389C154.907 55.8703 155.713 55.8703 156.231 56.389L161.5 61.6628L166.769 56.389C167.287 55.8703 168.093 55.8703 168.611 56.389C169.13 56.9078 169.13 57.7147 168.611 58.2334L163.343 63.5072L168.611 68.781Z" fill="white"/>
<defs>
<clipPath id="clip0_4540_22934">
<rect width="76" height="110" fill="white" transform="translate(64 44)"/>
</clipPath>
</defs>
</svg>
