<?xml version="1.0" encoding="UTF-8"?>
<svg width="20" height="20" viewBox="0 0 20 20" fill="none" xmlns="http://www.w3.org/2000/svg">
<path d="M5.83336 16.6667V7.47918C5.83336 7.02085 6.00003 6.63196 6.33336 6.31252C6.6667 5.99307 7.06253 5.83335 7.52086 5.83335H16.6667C17.125 5.83335 17.5174 5.99654 17.8438 6.32293C18.1702 6.64932 18.3334 7.04168 18.3334 7.50002V14.1667L14.1667 18.3333H7.50003C7.0417 18.3333 6.64934 18.1702 6.32295 17.8438C5.99656 17.5174 5.83336 17.125 5.83336 16.6667ZM1.68753 5.20835C1.6042 4.75002 1.69448 4.33682 1.95837 3.96877C2.22225 3.60071 2.58337 3.37502 3.0417 3.29168L12.0834 1.68752C12.5417 1.60418 12.9549 1.69446 13.3229 1.95835C13.691 2.22224 13.9167 2.58335 14 3.04168L14.2084 4.16668H12.5L12.3542 3.33335L3.33337 4.93752L4.1667 9.64585V15.4584C3.94448 15.3334 3.7535 15.1667 3.59378 14.9584C3.43406 14.75 3.33337 14.5139 3.2917 14.25L1.68753 5.20835ZM7.50003 7.50002V16.6667H13.3334V13.3334H16.6667V7.50002H7.50003Z" fill="#2A55E5"/>
</svg>
