<?xml version="1.0" encoding="UTF-8"?>
<svg width="272" height="163" viewBox="0 0 272 163" fill="none" xmlns="http://www.w3.org/2000/svg">
<ellipse cx="135.848" cy="157.425" rx="135.848" ry="5.51384" fill="#E6E6E6"/>
<circle cx="133" cy="80" r="80" fill="#FFAB00"/>
<path d="M139.516 103.782H126.553L125.543 24H140.603L139.516 103.782ZM125 128.06C125 125.77 125.699 123.861 127.096 122.334C128.545 120.756 130.667 119.967 133.461 119.967C136.256 119.967 138.377 120.756 139.826 122.334C141.275 123.861 142 125.77 142 128.06C142 130.35 141.275 132.259 139.826 133.786C138.377 135.262 136.256 136 133.461 136C130.667 136 128.545 135.262 127.096 133.786C125.699 132.259 125 130.35 125 128.06Z" fill="white"/>
<g clip-path="url(#clip0)">
<rect x="156" y="126.573" width="65.9091" height="35.72" rx="3" transform="rotate(-20 156 126.573)" fill="#006644"/>
<path d="M161.676 130.011L162.616 129.669L161.676 130.011ZM161.505 129.542L160.566 129.884L161.505 129.542ZM161.334 129.072L160.992 128.132C160.473 128.321 160.206 128.895 160.395 129.414L161.334 129.072ZM161.804 128.901L162.146 129.84L161.804 128.901ZM162.274 128.73L161.932 127.79L162.274 128.73ZM172.029 125.179L172.968 124.837C172.779 124.318 172.205 124.051 171.687 124.24L172.029 125.179ZM172.371 126.119L172.713 127.059C173.232 126.87 173.499 126.296 173.31 125.777L172.371 126.119ZM162.616 129.669L162.274 128.73C161.755 128.919 161.488 129.492 161.676 130.011L162.616 129.669ZM171.555 154.229L170.615 154.571C170.706 154.82 170.892 155.023 171.133 155.135C171.373 155.247 171.648 155.259 171.897 155.169L171.555 154.229ZM180.84 150.85L180.498 149.91L180.84 150.85ZM181.31 150.679L182.249 150.337C182.06 149.818 181.486 149.55 180.967 149.739L181.31 150.679ZM181.652 151.618L181.994 152.558C182.513 152.369 182.78 151.795 182.591 151.276L181.652 151.618ZM170.957 155.511L170.018 155.853C170.207 156.372 170.78 156.639 171.299 156.45L170.957 155.511ZM170.615 154.571L169.676 154.913L170.615 154.571ZM162.616 129.669L162.445 129.2L160.566 129.884L160.737 130.353L162.616 129.669ZM162.445 129.2L162.274 128.73L160.395 129.414L160.566 129.884L162.445 129.2ZM161.676 130.011L162.146 129.84L161.462 127.961L160.992 128.132L161.676 130.011ZM162.146 129.84L162.616 129.669L161.932 127.79L161.462 127.961L162.146 129.84ZM171.217 124.411L161.932 127.79L162.616 129.669L171.901 126.29L171.217 124.411ZM171.687 124.24L171.217 124.411L171.901 126.29L172.371 126.119L171.687 124.24ZM173.31 125.777L172.968 124.837L171.089 125.521L171.431 126.461L173.31 125.777ZM172.243 127.23L172.713 127.059L172.029 125.179L171.559 125.35L172.243 127.23ZM162.958 130.609L172.243 127.23L171.559 125.35L162.274 128.73L162.958 130.609ZM161.676 130.011L170.615 154.571L172.495 153.887L163.556 129.327L161.676 130.011ZM180.498 149.91L171.213 153.289L171.897 155.169L181.182 151.789L180.498 149.91ZM180.967 149.739L180.498 149.91L181.182 151.789L181.652 151.618L180.967 149.739ZM182.591 151.276L182.249 150.337L180.37 151.021L180.712 151.96L182.591 151.276ZM181.524 152.729L181.994 152.558L181.31 150.679L180.84 150.85L181.524 152.729ZM172.239 156.108L181.524 152.729L180.84 150.85L171.555 154.229L172.239 156.108ZM171.555 154.229L171.085 154.4L171.769 156.279L172.239 156.108L171.555 154.229ZM171.085 154.4L170.615 154.571L171.299 156.45L171.769 156.279L171.085 154.4ZM171.897 155.169L171.726 154.699L169.847 155.383L170.018 155.853L171.897 155.169ZM171.726 154.699L171.555 154.229L169.676 154.913L169.847 155.383L171.726 154.699ZM171.555 154.229L162.616 129.669L160.737 130.353L169.676 154.913L171.555 154.229Z" fill="#379EFC"/>
<path d="M215.796 110.313L216.735 109.971L215.796 110.313ZM215.454 109.374L215.112 108.434C215.631 108.245 216.205 108.513 216.393 109.032L215.454 109.374ZM214.514 109.716L214.172 108.776L214.514 109.716ZM205.229 113.095L205.572 114.035L205.229 113.095ZM204.76 113.266L203.82 113.608C203.729 113.359 203.741 113.084 203.853 112.843C203.965 112.603 204.168 112.417 204.418 112.326L204.76 113.266ZM205.102 114.206L205.444 115.145C204.925 115.334 204.351 115.067 204.162 114.548L205.102 114.206ZM214.856 110.655L214.514 109.716C214.763 109.625 215.038 109.637 215.279 109.749C215.519 109.861 215.705 110.064 215.796 110.313L214.856 110.655ZM223.795 135.215L224.735 134.873C224.825 135.122 224.813 135.397 224.701 135.637C224.589 135.878 224.386 136.064 224.137 136.155L223.795 135.215ZM214.51 138.594L214.168 137.654L214.51 138.594ZM214.041 138.765L213.101 139.107C212.912 138.588 213.18 138.014 213.699 137.825L214.041 138.765ZM214.383 139.705L214.725 140.644C214.206 140.833 213.632 140.566 213.443 140.047L214.383 139.705ZM214.852 139.534L214.51 138.594L214.852 139.534ZM224.137 136.155L224.479 137.094L224.137 136.155ZM225.077 135.812L226.016 135.47C226.205 135.989 225.938 136.563 225.419 136.752L225.077 135.812ZM224.735 134.873L223.795 135.215L224.735 134.873ZM214.856 110.655L214.685 110.185L216.564 109.501L216.735 109.971L214.856 110.655ZM214.685 110.185L214.514 109.716L216.393 109.032L216.564 109.501L214.685 110.185ZM215.796 110.313L215.326 110.484L214.642 108.605L215.112 108.434L215.796 110.313ZM215.326 110.484L214.856 110.655L214.172 108.776L214.642 108.605L215.326 110.484ZM204.887 112.155L214.172 108.776L214.856 110.655L205.572 114.035L204.887 112.155ZM204.418 112.326L204.887 112.155L205.572 114.035L205.102 114.206L204.418 112.326ZM204.162 114.548L203.82 113.608L205.699 112.924L206.041 113.864L204.162 114.548ZM205.914 114.974L205.444 115.145L204.76 113.266L205.229 113.095L205.914 114.974ZM215.198 111.595L205.914 114.974L205.229 113.095L214.514 109.716L215.198 111.595ZM215.796 110.313L224.735 134.873L222.855 135.557L213.916 110.997L215.796 110.313ZM214.168 137.654L223.453 134.275L224.137 136.155L214.852 139.534L214.168 137.654ZM213.699 137.825L214.168 137.654L214.852 139.534L214.383 139.705L213.699 137.825ZM213.443 140.047L213.101 139.107L214.98 138.423L215.322 139.363L213.443 140.047ZM215.195 140.473L214.725 140.644L214.041 138.765L214.51 138.594L215.195 140.473ZM224.479 137.094L215.195 140.473L214.51 138.594L223.795 135.215L224.479 137.094ZM223.795 135.215L224.265 135.044L224.949 136.923L224.479 137.094L223.795 135.215ZM224.265 135.044L224.735 134.873L225.419 136.752L224.949 136.923L224.265 135.044ZM224.137 136.155L223.966 135.685L225.845 135.001L226.016 135.47L224.137 136.155ZM223.966 135.685L223.795 135.215L225.674 134.531L225.845 135.001L223.966 135.685ZM223.795 135.215L214.856 110.655L216.735 109.971L225.674 134.531L223.795 135.215Z" fill="#00875A"/>
<ellipse cx="193.076" cy="132.085" rx="10.9848" ry="11.02" transform="rotate(-20 193.076 132.085)" fill="#00875A"/>
<path d="M197.506 123.203L194.907 124.149C195.593 124.573 196.155 125.191 196.592 126.005L198.806 125.199L198.932 127.124L197.259 127.733C197.602 129.088 197.443 130.26 196.78 131.249C196.118 132.239 194.982 133.026 193.375 133.611L201.096 137.934L201.144 138.066L198.645 138.976L190.335 134.306L189.823 132.933L192.565 131.935C193.48 131.594 194.153 131.124 194.584 130.527C195.013 129.922 195.181 129.254 195.089 128.522L188.713 130.843L188.587 128.919L194.434 126.79C193.574 125.524 192.23 125.19 190.403 125.788L187.308 126.915L187.193 124.986L197.379 121.279L197.506 123.203Z" fill="#006644"/>
</g>
<g clip-path="url(#clip1)">
<rect x="160.121" y="124.105" width="65.9091" height="35.72" rx="3" fill="#00875A"/>
<path d="M164.279 128.277V127.277C163.727 127.277 163.279 127.725 163.279 128.277H164.279ZM175.66 128.277H176.66C176.66 127.725 176.212 127.277 175.66 127.277V128.277ZM175.66 129.277V130.277C176.212 130.277 176.66 129.83 176.66 129.277H175.66ZM165.279 129.277V128.277C164.727 128.277 164.279 128.725 164.279 129.277H165.279ZM165.279 155.413H164.279C164.279 155.965 164.727 156.413 165.279 156.413V155.413ZM175.66 155.413H176.66C176.66 154.861 176.212 154.413 175.66 154.413V155.413ZM175.66 156.413V157.413C176.212 157.413 176.66 156.965 176.66 156.413H175.66ZM164.279 156.413H163.279C163.279 156.965 163.727 157.413 164.279 157.413V156.413ZM165.279 129.277V128.777H163.279V129.277H165.279ZM165.279 128.777V128.277H163.279V128.777H165.279ZM164.279 129.277H164.779V127.277H164.279V129.277ZM164.779 129.277H165.279V127.277H164.779V129.277ZM175.16 127.277H165.279V129.277H175.16V127.277ZM175.66 127.277H175.16V129.277H175.66V127.277ZM176.66 129.277V128.277H174.66V129.277H176.66ZM175.16 130.277H175.66V128.277H175.16V130.277ZM165.279 130.277H175.16V128.277H165.279V130.277ZM164.279 129.277V155.413H166.279V129.277H164.279ZM175.16 154.413H165.279V156.413H175.16V154.413ZM175.66 154.413H175.16V156.413H175.66V154.413ZM176.66 156.413V155.413H174.66V156.413H176.66ZM175.16 157.413H175.66V155.413H175.16V157.413ZM165.279 157.413H175.16V155.413H165.279V157.413ZM165.279 155.413H164.779V157.413H165.279V155.413ZM164.779 155.413H164.279V157.413H164.779V155.413ZM165.279 156.413V155.913H163.279V156.413H165.279ZM165.279 155.913V155.413H163.279V155.913H165.279ZM165.279 155.413V129.277H163.279V155.413H165.279Z" fill="#36B37E"/>
<path fill-rule="evenodd" clip-rule="evenodd" d="M221.872 129.277V128.777V128.277H221.372H220.872H210.991H210.491V129.277H210.991H220.872V155.413H210.991H210.491V156.413H210.991H220.872H221.372H221.872V155.913V155.413V129.277Z" fill="#36B37E"/>
<path d="M221.872 128.277V127.277C222.424 127.277 222.872 127.725 222.872 128.277H221.872ZM210.491 128.277H209.491C209.491 127.725 209.939 127.277 210.491 127.277V128.277ZM210.491 129.277V130.277C209.939 130.277 209.491 129.83 209.491 129.277H210.491ZM220.872 129.277V128.277C221.424 128.277 221.872 128.725 221.872 129.277H220.872ZM220.872 155.413H221.872C221.872 155.965 221.424 156.413 220.872 156.413V155.413ZM210.491 155.413H209.491C209.491 154.861 209.939 154.413 210.491 154.413V155.413ZM210.491 156.413V157.413C209.939 157.413 209.491 156.965 209.491 156.413H210.491ZM221.872 156.413H222.872C222.872 156.965 222.424 157.413 221.872 157.413V156.413ZM220.872 129.277V128.777H222.872V129.277H220.872ZM220.872 128.777V128.277H222.872V128.777H220.872ZM221.872 129.277H221.372V127.277H221.872V129.277ZM221.372 129.277H220.872V127.277H221.372V129.277ZM210.991 127.277H220.872V129.277H210.991V127.277ZM210.491 127.277H210.991V129.277H210.491V127.277ZM209.491 129.277V128.277H211.491V129.277H209.491ZM210.991 130.277H210.491V128.277H210.991V130.277ZM220.872 130.277H210.991V128.277H220.872V130.277ZM221.872 129.277V155.413H219.872V129.277H221.872ZM210.991 154.413H220.872V156.413H210.991V154.413ZM210.491 154.413H210.991V156.413H210.491V154.413ZM209.491 156.413V155.413H211.491V156.413H209.491ZM210.991 157.413H210.491V155.413H210.991V157.413ZM220.872 157.413H210.991V155.413H220.872V157.413ZM220.872 155.413H221.372V157.413H220.872V155.413ZM221.372 155.413H221.872V157.413H221.372V155.413ZM220.872 156.413V155.913H222.872V156.413H220.872ZM220.872 155.913V155.413H222.872V155.913H220.872ZM220.872 155.413V129.277H222.872V155.413H220.872Z" fill="#36B37E"/>
<ellipse cx="193.076" cy="141.965" rx="10.9848" ry="11.02" fill="#36B37E"/>
<path d="M198.367 135.789H195.602C196.102 136.422 196.418 137.195 196.551 138.109H198.906L198.367 139.961H196.586C196.445 141.352 195.895 142.398 194.934 143.102C193.973 143.805 192.637 144.156 190.926 144.156L196.703 150.859V151H194.043L187.832 143.77L187.82 142.305H190.738C191.715 142.297 192.508 142.086 193.117 141.672C193.727 141.25 194.113 140.68 194.277 139.961H187.492L188.031 138.109H194.254C193.879 136.625 192.73 135.852 190.809 135.789H187.516L188.066 133.938H198.906L198.367 135.789Z" fill="#006644"/>
</g>
<defs>
<clipPath id="clip0">
<rect width="66" height="36" fill="white" transform="translate(156 126.573) rotate(-20)"/>
</clipPath>
<clipPath id="clip1">
<rect width="66" height="36" fill="white" transform="translate(160.121 124.105)"/>
</clipPath>
</defs>
</svg>
