<?xml version="1.0" encoding="UTF-8"?>
<svg width="24" height="24" viewBox="0 0 24 24" fill="none" xmlns="http://www.w3.org/2000/svg">
<rect width="24" height="24" rx="2" fill="#ABF5D1"/>
<path d="M11.7695 11.5352V11.9395C11.7695 12.5879 11.6816 13.1699 11.5059 13.6855C11.3301 14.2012 11.082 14.6406 10.7617 15.0039C10.4414 15.3633 10.0586 15.6387 9.61328 15.8301C9.17188 16.0215 8.68164 16.1172 8.14258 16.1172C7.60742 16.1172 7.11719 16.0215 6.67188 15.8301C6.23047 15.6387 5.84766 15.3633 5.52344 15.0039C5.19922 14.6406 4.94727 14.2012 4.76758 13.6855C4.5918 13.1699 4.50391 12.5879 4.50391 11.9395V11.5352C4.50391 10.8828 4.5918 10.3008 4.76758 9.78906C4.94336 9.27344 5.19141 8.83398 5.51172 8.4707C5.83594 8.10742 6.21875 7.83008 6.66016 7.63867C7.10547 7.44727 7.5957 7.35156 8.13086 7.35156C8.66992 7.35156 9.16016 7.44727 9.60156 7.63867C10.0469 7.83008 10.4297 8.10742 10.75 8.4707C11.0742 8.83398 11.3242 9.27344 11.5 9.78906C11.6797 10.3008 11.7695 10.8828 11.7695 11.5352ZM9.99414 11.9395V11.5234C9.99414 11.0703 9.95312 10.6719 9.87109 10.3281C9.78906 9.98438 9.66797 9.69531 9.50781 9.46094C9.34766 9.22656 9.15234 9.05078 8.92188 8.93359C8.69141 8.8125 8.42773 8.75195 8.13086 8.75195C7.83398 8.75195 7.57031 8.8125 7.33984 8.93359C7.11328 9.05078 6.91992 9.22656 6.75977 9.46094C6.60352 9.69531 6.48438 9.98438 6.40234 10.3281C6.32031 10.6719 6.2793 11.0703 6.2793 11.5234V11.9395C6.2793 12.3887 6.32031 12.7871 6.40234 13.1348C6.48438 13.4785 6.60547 13.7695 6.76562 14.0078C6.92578 14.2422 7.12109 14.4199 7.35156 14.541C7.58203 14.6621 7.8457 14.7227 8.14258 14.7227C8.43945 14.7227 8.70312 14.6621 8.93359 14.541C9.16406 14.4199 9.35742 14.2422 9.51367 14.0078C9.66992 13.7695 9.78906 13.4785 9.87109 13.1348C9.95312 12.7871 9.99414 12.3887 9.99414 11.9395ZM15.513 7.46875V16H13.7552V7.46875H15.513ZM18.9114 11.1133V12.4844H15.0325V11.1133H18.9114ZM19.3216 7.46875V8.8457H15.0325V7.46875H19.3216Z" fill="#334462"/>
</svg>
