<?xml version="1.0" encoding="UTF-8"?>
<svg width="131" height="24" viewBox="0 0 131 24" fill="none" xmlns="http://www.w3.org/2000/svg">
<rect width="131" height="24" rx="12" fill="#FFF0B3"/>
<path d="M14.0869 13.1035V17H12.7744V7.04688H16.4453C17.5345 7.04688 18.3867 7.32487 19.002 7.88086C19.6217 8.43685 19.9316 9.17285 19.9316 10.0889C19.9316 11.055 19.6286 11.8001 19.0225 12.3242C18.4209 12.8438 17.5573 13.1035 16.4316 13.1035H14.0869ZM14.0869 12.0303H16.4453C17.1471 12.0303 17.6849 11.8662 18.0586 11.5381C18.4323 11.2054 18.6191 10.7269 18.6191 10.1025C18.6191 9.51009 18.4323 9.03613 18.0586 8.68066C17.6849 8.3252 17.1722 8.14062 16.5205 8.12695H14.0869V12.0303ZM24.3818 17.1367C23.3792 17.1367 22.5635 16.8086 21.9346 16.1523C21.3057 15.4915 20.9912 14.6097 20.9912 13.5068V13.2744C20.9912 12.5407 21.1302 11.8867 21.4082 11.3125C21.6908 10.7337 22.0827 10.2826 22.584 9.95898C23.0898 9.63086 23.6367 9.4668 24.2246 9.4668C25.1862 9.4668 25.9336 9.78353 26.4668 10.417C27 11.0505 27.2666 11.9574 27.2666 13.1377V13.6641H22.2559C22.2741 14.3932 22.486 14.9834 22.8916 15.4346C23.3018 15.8812 23.8213 16.1045 24.4502 16.1045C24.8968 16.1045 25.2751 16.0133 25.585 15.8311C25.8949 15.6488 26.166 15.4072 26.3984 15.1064L27.1709 15.708C26.5511 16.6605 25.6214 17.1367 24.3818 17.1367ZM24.2246 10.5059C23.7142 10.5059 23.2858 10.6927 22.9395 11.0664C22.5931 11.4355 22.3789 11.9551 22.2969 12.625H26.002V12.5293C25.9655 11.8867 25.7923 11.39 25.4824 11.0391C25.1725 10.6836 24.7533 10.5059 24.2246 10.5059ZM29.9326 9.60352L29.9736 10.5332C30.5387 9.82227 31.277 9.4668 32.1885 9.4668C33.7516 9.4668 34.54 10.3486 34.5537 12.1123V17H33.2891V12.1055C33.2845 11.5723 33.1615 11.1781 32.9199 10.9229C32.6829 10.6676 32.3115 10.54 31.8057 10.54C31.3955 10.54 31.0355 10.6494 30.7256 10.8682C30.4157 11.0869 30.1742 11.374 30.001 11.7295V17H28.7363V9.60352H29.9326ZM36.1533 13.2402C36.1533 12.1055 36.4222 11.194 36.96 10.5059C37.4977 9.81315 38.2018 9.4668 39.0723 9.4668C39.9382 9.4668 40.624 9.76302 41.1299 10.3555V6.5H42.3945V17H41.2324L41.1709 16.207C40.665 16.8268 39.9609 17.1367 39.0586 17.1367C38.2018 17.1367 37.5023 16.7858 36.96 16.084C36.4222 15.3822 36.1533 14.4661 36.1533 13.3359V13.2402ZM37.418 13.3838C37.418 14.2223 37.5911 14.8786 37.9375 15.3525C38.2839 15.8265 38.7624 16.0635 39.373 16.0635C40.1751 16.0635 40.7607 15.7035 41.1299 14.9834V11.5859C40.7516 10.8887 40.1706 10.54 39.3867 10.54C38.7669 10.54 38.2839 10.7793 37.9375 11.2578C37.5911 11.7363 37.418 12.445 37.418 13.3838ZM45.7373 17H44.4727V9.60352H45.7373V17ZM44.3701 7.6416C44.3701 7.43652 44.4316 7.26335 44.5547 7.12207C44.6823 6.98079 44.8691 6.91016 45.1152 6.91016C45.3613 6.91016 45.5482 6.98079 45.6758 7.12207C45.8034 7.26335 45.8672 7.43652 45.8672 7.6416C45.8672 7.84668 45.8034 8.01758 45.6758 8.1543C45.5482 8.29102 45.3613 8.35938 45.1152 8.35938C44.8691 8.35938 44.6823 8.29102 44.5547 8.1543C44.4316 8.01758 44.3701 7.84668 44.3701 7.6416ZM48.9639 9.60352L49.0049 10.5332C49.57 9.82227 50.3083 9.4668 51.2197 9.4668C52.7829 9.4668 53.5713 10.3486 53.585 12.1123V17H52.3203V12.1055C52.3158 11.5723 52.1927 11.1781 51.9512 10.9229C51.7142 10.6676 51.3428 10.54 50.8369 10.54C50.4268 10.54 50.0667 10.6494 49.7568 10.8682C49.4469 11.0869 49.2054 11.374 49.0322 11.7295V17H47.7676V9.60352H48.9639ZM55.1914 13.2402C55.1914 12.0872 55.458 11.1712 55.9912 10.4922C56.5244 9.80859 57.2308 9.4668 58.1104 9.4668C59.0127 9.4668 59.7168 9.78581 60.2227 10.4238L60.2842 9.60352H61.4395V16.8223C61.4395 17.7793 61.1546 18.5335 60.585 19.085C60.0199 19.6364 59.2588 19.9121 58.3018 19.9121C57.7686 19.9121 57.2467 19.7982 56.7363 19.5703C56.2259 19.3424 55.8363 19.0303 55.5674 18.6338L56.2236 17.875C56.766 18.5449 57.429 18.8799 58.2129 18.8799C58.8281 18.8799 59.3066 18.7067 59.6484 18.3604C59.9948 18.014 60.168 17.5264 60.168 16.8975V16.2617C59.6621 16.8451 58.9717 17.1367 58.0967 17.1367C57.2308 17.1367 56.529 16.7881 55.9912 16.0908C55.458 15.3936 55.1914 14.4434 55.1914 13.2402ZM56.4629 13.3838C56.4629 14.2178 56.6338 14.874 56.9756 15.3525C57.3174 15.8265 57.7959 16.0635 58.4111 16.0635C59.2087 16.0635 59.7943 15.7012 60.168 14.9766V11.5996C59.7806 10.8932 59.1995 10.54 58.4248 10.54C57.8096 10.54 57.3288 10.7793 56.9824 11.2578C56.6361 11.7363 56.4629 12.445 56.4629 13.3838ZM71.3926 17C71.3197 16.8542 71.2604 16.5944 71.2148 16.2207C70.627 16.8314 69.9251 17.1367 69.1094 17.1367C68.3802 17.1367 67.7809 16.9316 67.3115 16.5215C66.8467 16.1068 66.6143 15.5827 66.6143 14.9492C66.6143 14.179 66.9059 13.582 67.4893 13.1582C68.0771 12.7298 68.902 12.5156 69.9639 12.5156H71.1943V11.9346C71.1943 11.4925 71.0622 11.1416 70.7979 10.8818C70.5335 10.6175 70.1439 10.4854 69.6289 10.4854C69.1777 10.4854 68.7995 10.5993 68.4941 10.8271C68.1888 11.055 68.0361 11.3307 68.0361 11.6543H66.7646C66.7646 11.2852 66.8945 10.9297 67.1543 10.5879C67.4186 10.2415 67.7741 9.9681 68.2207 9.76758C68.6719 9.56706 69.1663 9.4668 69.7041 9.4668C70.5563 9.4668 71.224 9.68099 71.707 10.1094C72.1901 10.5332 72.4408 11.1188 72.459 11.8662V15.2705C72.459 15.9495 72.5456 16.4896 72.7188 16.8906V17H71.3926ZM69.2939 16.0361C69.6904 16.0361 70.0664 15.9336 70.4219 15.7285C70.7773 15.5234 71.0348 15.2568 71.1943 14.9287V13.4111H70.2031C68.6536 13.4111 67.8789 13.8646 67.8789 14.7715C67.8789 15.168 68.0111 15.4779 68.2754 15.7012C68.5397 15.9245 68.8792 16.0361 69.2939 16.0361ZM80.6895 13.3838C80.6895 14.5094 80.432 15.4163 79.917 16.1045C79.402 16.7926 78.7048 17.1367 77.8252 17.1367C76.9274 17.1367 76.221 16.8519 75.7061 16.2822V19.8438H74.4414V9.60352H75.5967L75.6582 10.4238C76.1732 9.78581 76.8887 9.4668 77.8047 9.4668C78.6934 9.4668 79.3952 9.80176 79.9102 10.4717C80.4297 11.1416 80.6895 12.0736 80.6895 13.2676V13.3838ZM79.4248 13.2402C79.4248 12.4062 79.2471 11.7477 78.8916 11.2646C78.5361 10.7816 78.0485 10.54 77.4287 10.54C76.6631 10.54 76.0889 10.8796 75.7061 11.5586V15.0928C76.0843 15.7673 76.6631 16.1045 77.4424 16.1045C78.0485 16.1045 78.5293 15.8652 78.8848 15.3867C79.2448 14.9036 79.4248 14.1882 79.4248 13.2402ZM88.5508 13.3838C88.5508 14.5094 88.2933 15.4163 87.7783 16.1045C87.2633 16.7926 86.5661 17.1367 85.6865 17.1367C84.7887 17.1367 84.0824 16.8519 83.5674 16.2822V19.8438H82.3027V9.60352H83.458L83.5195 10.4238C84.0345 9.78581 84.75 9.4668 85.666 9.4668C86.5547 9.4668 87.2565 9.80176 87.7715 10.4717C88.291 11.1416 88.5508 12.0736 88.5508 13.2676V13.3838ZM87.2861 13.2402C87.2861 12.4062 87.1084 11.7477 86.7529 11.2646C86.3975 10.7816 85.9098 10.54 85.29 10.54C84.5244 10.54 83.9502 10.8796 83.5674 11.5586V15.0928C83.9456 15.7673 84.5244 16.1045 85.3037 16.1045C85.9098 16.1045 86.3906 15.8652 86.7461 15.3867C87.1061 14.9036 87.2861 14.1882 87.2861 13.2402ZM93.7393 10.7383C93.5479 10.7064 93.3405 10.6904 93.1172 10.6904C92.2878 10.6904 91.7249 11.0436 91.4287 11.75V17H90.1641V9.60352H91.3945L91.415 10.458C91.8298 9.7972 92.4176 9.4668 93.1787 9.4668C93.4248 9.4668 93.6117 9.4987 93.7393 9.5625V10.7383ZM94.4365 13.2334C94.4365 12.5088 94.5778 11.8571 94.8604 11.2783C95.1475 10.6995 95.5439 10.2529 96.0498 9.93848C96.5602 9.62402 97.1413 9.4668 97.793 9.4668C98.8001 9.4668 99.6136 9.81543 100.233 10.5127C100.858 11.21 101.17 12.1374 101.17 13.2949V13.3838C101.17 14.1038 101.031 14.751 100.753 15.3252C100.479 15.8949 100.085 16.3392 99.5703 16.6582C99.0599 16.9772 98.472 17.1367 97.8066 17.1367C96.804 17.1367 95.9906 16.7881 95.3662 16.0908C94.7464 15.3936 94.4365 14.4707 94.4365 13.3223V13.2334ZM95.708 13.3838C95.708 14.2041 95.8971 14.8626 96.2754 15.3594C96.6582 15.8561 97.1686 16.1045 97.8066 16.1045C98.4492 16.1045 98.9596 15.8538 99.3379 15.3525C99.7161 14.8467 99.9053 14.1403 99.9053 13.2334C99.9053 12.4222 99.7116 11.766 99.3242 11.2646C98.9414 10.7588 98.431 10.5059 97.793 10.5059C97.1686 10.5059 96.665 10.7542 96.2822 11.251C95.8994 11.7477 95.708 12.4587 95.708 13.3838ZM105.087 15.2842L106.919 9.60352H108.211L105.559 17H104.595L101.915 9.60352H103.207L105.087 15.2842ZM113.885 17C113.812 16.8542 113.753 16.5944 113.707 16.2207C113.119 16.8314 112.417 17.1367 111.602 17.1367C110.872 17.1367 110.273 16.9316 109.804 16.5215C109.339 16.1068 109.106 15.5827 109.106 14.9492C109.106 14.179 109.398 13.582 109.981 13.1582C110.569 12.7298 111.394 12.5156 112.456 12.5156H113.687V11.9346C113.687 11.4925 113.554 11.1416 113.29 10.8818C113.026 10.6175 112.636 10.4854 112.121 10.4854C111.67 10.4854 111.292 10.5993 110.986 10.8271C110.681 11.055 110.528 11.3307 110.528 11.6543H109.257C109.257 11.2852 109.387 10.9297 109.646 10.5879C109.911 10.2415 110.266 9.9681 110.713 9.76758C111.164 9.56706 111.659 9.4668 112.196 9.4668C113.049 9.4668 113.716 9.68099 114.199 10.1094C114.682 10.5332 114.933 11.1188 114.951 11.8662V15.2705C114.951 15.9495 115.038 16.4896 115.211 16.8906V17H113.885ZM111.786 16.0361C112.183 16.0361 112.559 15.9336 112.914 15.7285C113.27 15.5234 113.527 15.2568 113.687 14.9287V13.4111H112.695C111.146 13.4111 110.371 13.8646 110.371 14.7715C110.371 15.168 110.503 15.4779 110.768 15.7012C111.032 15.9245 111.371 16.0361 111.786 16.0361ZM118.308 17H117.043V6.5H118.308V17Z" fill="#FF8B00"/>
</svg>
