<?xml version="1.0" encoding="UTF-8"?>
<svg width="325" height="269" viewBox="0 0 325 269" fill="none" xmlns="http://www.w3.org/2000/svg">
<path d="M36.0826 73.5337C40.7487 93.5572 23.4931 105.744 15.2382 115.899C10.0112 122.601 -2.69937 133.563 0.513338 173.856C2.05971 193.251 12.0619 220.881 34.0077 227.24C46.2371 235.104 155.966 222.889 213.595 229.75C274.645 237.018 287.363 229.249 317.195 206.682C329.529 197.351 324.94 171.429 319.107 154.264C312.701 137.646 308.589 110.667 320.446 76.6112C333.303 39.6794 314.677 25.39 305.434 19.0642C293.992 12.0205 270.247 4.80573 241.849 17.9359C205.241 34.862 189.164 28.3989 176.161 26.5525C163.157 24.7061 118.791 9.72951 80.1618 1.21544C49.2585 -5.59582 30.9194 17.9359 28.3377 29.2195C25.7561 47.8889 31.4166 53.5103 36.0826 73.5337Z" fill="#FFEBE5"/>
<path d="M82.3916 253.335L80.1064 253.33L80.2705 252.41L82.4209 252.416C82.7881 252.416 83.124 252.353 83.4287 252.228C83.7373 252.103 83.9912 251.916 84.1904 251.666C84.3936 251.416 84.5186 251.097 84.5654 250.71C84.6084 250.378 84.5752 250.093 84.4658 249.855C84.3604 249.613 84.1924 249.425 83.9619 249.292C83.7314 249.16 83.4521 249.087 83.124 249.076L81.1084 249.07L79.79 256.675H78.6826L80.165 248.144L83.1533 248.15C83.6611 248.162 84.1123 248.269 84.5068 248.472C84.9053 248.671 85.21 248.958 85.4209 249.333C85.6318 249.708 85.7139 250.164 85.667 250.699C85.6162 251.3 85.4365 251.796 85.1279 252.187C84.8232 252.578 84.4307 252.867 83.9502 253.054C83.4736 253.242 82.9541 253.335 82.3916 253.335ZM89.9033 255.152L90.7354 250.335H91.8018L90.7002 256.675H89.6865L89.9033 255.152ZM90.3018 253.875L90.7354 253.857C90.6846 254.255 90.5947 254.634 90.4658 254.994C90.3369 255.349 90.1611 255.666 89.9385 255.943C89.7197 256.216 89.4463 256.431 89.1182 256.587C88.7939 256.74 88.4092 256.81 87.9639 256.798C87.6162 256.787 87.3252 256.716 87.0908 256.587C86.8604 256.458 86.6787 256.285 86.5459 256.066C86.4131 255.847 86.3252 255.597 86.2822 255.316C86.2393 255.035 86.2334 254.738 86.2646 254.425L86.9502 250.335H88.0107L87.3252 254.443C87.3096 254.615 87.3076 254.785 87.3193 254.953C87.3311 255.117 87.3662 255.267 87.4248 255.404C87.4834 255.541 87.5732 255.652 87.6943 255.738C87.8193 255.82 87.9834 255.865 88.1865 255.873C88.6084 255.888 88.9658 255.81 89.2588 255.638C89.5518 255.462 89.7842 255.22 89.9561 254.912C90.1279 254.603 90.2432 254.257 90.3018 253.875ZM96.208 254.958C96.2432 254.716 96.1982 254.527 96.0732 254.39C95.9521 254.253 95.792 254.15 95.5928 254.08C95.3975 254.005 95.2061 253.945 95.0186 253.898C94.7842 253.839 94.5479 253.767 94.3096 253.681C94.0713 253.595 93.8525 253.486 93.6533 253.353C93.458 253.216 93.3018 253.048 93.1846 252.849C93.0713 252.646 93.0205 252.4 93.0322 252.111C93.0479 251.798 93.1299 251.523 93.2783 251.285C93.4307 251.046 93.626 250.847 93.8643 250.687C94.1064 250.527 94.3701 250.408 94.6553 250.33C94.9404 250.251 95.2236 250.214 95.5049 250.218C95.9033 250.226 96.2646 250.308 96.5889 250.464C96.917 250.621 97.1768 250.845 97.3682 251.138C97.5596 251.431 97.6494 251.787 97.6377 252.205L96.5889 252.199C96.5967 251.976 96.5518 251.785 96.4541 251.625C96.3564 251.464 96.2217 251.341 96.0498 251.255C95.8779 251.166 95.6826 251.119 95.4639 251.115C95.2568 251.111 95.0537 251.144 94.8545 251.214C94.6553 251.281 94.4854 251.386 94.3447 251.531C94.2041 251.671 94.1182 251.855 94.0869 252.082C94.0635 252.25 94.0889 252.388 94.1631 252.498C94.2373 252.603 94.3389 252.689 94.4678 252.755C94.6006 252.818 94.7393 252.871 94.8838 252.914C95.0322 252.953 95.167 252.988 95.2881 253.019C95.6084 253.109 95.9248 253.222 96.2373 253.359C96.5498 253.496 96.8037 253.685 96.999 253.927C97.1943 254.166 97.2822 254.48 97.2627 254.871C97.2471 255.203 97.1592 255.492 96.999 255.738C96.8428 255.98 96.6396 256.181 96.3896 256.341C96.1436 256.498 95.8721 256.613 95.5752 256.687C95.2783 256.761 94.9814 256.796 94.6846 256.792C94.2744 256.785 93.8916 256.701 93.5361 256.541C93.1846 256.376 92.9033 256.142 92.6924 255.837C92.4814 255.529 92.3818 255.154 92.3936 254.712L93.4541 254.718C93.4541 254.972 93.5068 255.187 93.6123 255.363C93.7217 255.535 93.8721 255.666 94.0635 255.755C94.2549 255.845 94.4736 255.892 94.7197 255.896C94.9268 255.9 95.1377 255.873 95.3525 255.814C95.5713 255.755 95.7588 255.658 95.915 255.521C96.0752 255.38 96.1729 255.193 96.208 254.958ZM100.931 247.675L99.3662 256.675H98.3057L99.8701 247.675H100.931ZM99.7295 253.265L99.2959 253.253C99.3506 252.875 99.4502 252.503 99.5947 252.14C99.7432 251.773 99.9365 251.443 100.175 251.15C100.417 250.857 100.704 250.626 101.036 250.458C101.372 250.287 101.755 250.207 102.185 250.218C102.524 250.226 102.808 250.292 103.034 250.417C103.265 250.539 103.444 250.705 103.573 250.916C103.702 251.126 103.788 251.371 103.831 251.648C103.874 251.921 103.878 252.212 103.843 252.521L103.151 256.675H102.085L102.788 252.503C102.815 252.25 102.806 252.021 102.759 251.818C102.716 251.611 102.618 251.447 102.466 251.326C102.317 251.201 102.103 251.134 101.821 251.126C101.524 251.119 101.257 251.175 101.019 251.296C100.78 251.417 100.571 251.583 100.392 251.794C100.216 252.001 100.071 252.234 99.958 252.492C99.8486 252.746 99.7725 253.003 99.7295 253.265ZM111.354 250.335L111.208 251.167H107.874L108.021 250.335H111.354ZM109.415 248.794H110.47L109.397 255.117C109.386 255.253 109.39 255.376 109.409 255.486C109.429 255.595 109.476 255.683 109.55 255.75C109.624 255.812 109.737 255.845 109.89 255.849C109.976 255.849 110.06 255.843 110.142 255.832C110.228 255.816 110.313 255.802 110.399 255.791L110.323 256.681C110.198 256.716 110.069 256.742 109.937 256.757C109.808 256.777 109.679 256.785 109.55 256.781C109.226 256.777 108.972 256.695 108.788 256.535C108.604 256.375 108.479 256.167 108.413 255.914C108.347 255.66 108.327 255.388 108.354 255.099L109.415 248.794ZM114.103 247.675L112.538 256.675H111.478L113.042 247.675H114.103ZM112.901 253.265L112.468 253.253C112.522 252.875 112.622 252.503 112.767 252.14C112.915 251.773 113.108 251.443 113.347 251.15C113.589 250.857 113.876 250.626 114.208 250.458C114.544 250.287 114.927 250.207 115.356 250.218C115.696 250.226 115.979 250.292 116.206 250.417C116.437 250.539 116.616 250.705 116.745 250.916C116.874 251.126 116.96 251.371 117.003 251.648C117.046 251.921 117.05 252.212 117.015 252.521L116.323 256.675H115.257L115.96 252.503C115.987 252.25 115.978 252.021 115.931 251.818C115.888 251.611 115.79 251.447 115.638 251.326C115.489 251.201 115.274 251.134 114.993 251.126C114.696 251.119 114.429 251.175 114.19 251.296C113.952 251.417 113.743 251.583 113.563 251.794C113.388 252.001 113.243 252.234 113.13 252.492C113.021 252.746 112.944 253.003 112.901 253.265ZM120.571 256.792C120.138 256.785 119.761 256.699 119.44 256.535C119.124 256.367 118.864 256.142 118.661 255.861C118.462 255.576 118.319 255.251 118.233 254.888C118.147 254.525 118.122 254.144 118.157 253.746L118.181 253.494C118.22 253.087 118.319 252.689 118.479 252.298C118.64 251.904 118.853 251.548 119.118 251.232C119.388 250.916 119.704 250.666 120.067 250.482C120.435 250.294 120.841 250.207 121.286 250.218C121.728 250.226 122.095 250.32 122.388 250.5C122.681 250.679 122.909 250.917 123.073 251.214C123.241 251.507 123.351 251.837 123.401 252.205C123.452 252.568 123.456 252.941 123.413 253.324L123.349 253.81H118.749L118.89 252.925L122.399 252.931L122.417 252.837C122.456 252.556 122.44 252.285 122.37 252.023C122.3 251.761 122.171 251.546 121.983 251.378C121.8 251.207 121.552 251.117 121.239 251.109C120.915 251.097 120.634 251.164 120.396 251.308C120.157 251.449 119.958 251.64 119.798 251.882C119.638 252.121 119.511 252.382 119.417 252.667C119.327 252.949 119.265 253.224 119.229 253.494L119.206 253.74C119.183 253.99 119.19 254.242 119.229 254.496C119.269 254.75 119.343 254.982 119.452 255.193C119.565 255.4 119.722 255.57 119.921 255.703C120.12 255.832 120.366 255.9 120.659 255.908C121.015 255.916 121.333 255.839 121.614 255.679C121.899 255.515 122.159 255.308 122.394 255.058L122.997 255.574C122.813 255.843 122.595 256.07 122.341 256.253C122.087 256.437 121.81 256.574 121.509 256.664C121.208 256.753 120.896 256.796 120.571 256.792ZM129.267 250.335L128.165 256.675H127.104L128.206 250.335H129.267ZM128.417 248.671C128.417 248.488 128.474 248.335 128.587 248.214C128.704 248.089 128.854 248.025 129.038 248.021C129.222 248.017 129.372 248.074 129.489 248.191C129.61 248.308 129.669 248.457 129.665 248.636C129.665 248.816 129.604 248.966 129.483 249.087C129.366 249.205 129.218 249.265 129.038 249.269C128.858 249.273 128.71 249.22 128.593 249.111C128.476 248.998 128.417 248.851 128.417 248.671ZM133.538 250.335L133.392 251.167H130.058L130.204 250.335H133.538ZM131.599 248.794H132.653L131.581 255.117C131.569 255.253 131.573 255.376 131.593 255.486C131.612 255.595 131.659 255.683 131.733 255.75C131.808 255.812 131.921 255.845 132.073 255.849C132.159 255.849 132.243 255.843 132.325 255.832C132.411 255.816 132.497 255.802 132.583 255.791L132.507 256.681C132.382 256.716 132.253 256.742 132.12 256.757C131.991 256.777 131.862 256.785 131.733 256.781C131.409 256.777 131.155 256.695 130.972 256.535C130.788 256.375 130.663 256.167 130.597 255.914C130.53 255.66 130.511 255.388 130.538 255.099L131.599 248.794ZM136.345 256.792C135.911 256.785 135.534 256.699 135.214 256.535C134.897 256.367 134.638 256.142 134.435 255.861C134.235 255.576 134.093 255.251 134.007 254.888C133.921 254.525 133.896 254.144 133.931 253.746L133.954 253.494C133.993 253.087 134.093 252.689 134.253 252.298C134.413 251.904 134.626 251.548 134.892 251.232C135.161 250.916 135.478 250.666 135.841 250.482C136.208 250.294 136.614 250.207 137.06 250.218C137.501 250.226 137.868 250.32 138.161 250.5C138.454 250.679 138.683 250.917 138.847 251.214C139.015 251.507 139.124 251.837 139.175 252.205C139.226 252.568 139.229 252.941 139.187 253.324L139.122 253.81H134.522L134.663 252.925L138.173 252.931L138.19 252.837C138.229 252.556 138.214 252.285 138.144 252.023C138.073 251.761 137.944 251.546 137.757 251.378C137.573 251.207 137.325 251.117 137.013 251.109C136.688 251.097 136.407 251.164 136.169 251.308C135.931 251.449 135.731 251.64 135.571 251.882C135.411 252.121 135.284 252.382 135.19 252.667C135.101 252.949 135.038 253.224 135.003 253.494L134.979 253.74C134.956 253.99 134.964 254.242 135.003 254.496C135.042 254.75 135.116 254.982 135.226 255.193C135.339 255.4 135.495 255.57 135.694 255.703C135.894 255.832 136.14 255.9 136.433 255.908C136.788 255.916 137.106 255.839 137.388 255.679C137.673 255.515 137.933 255.308 138.167 255.058L138.771 255.574C138.587 255.843 138.368 256.07 138.114 256.253C137.86 256.437 137.583 256.574 137.282 256.664C136.981 256.753 136.669 256.796 136.345 256.792ZM141.759 251.66L140.892 256.675H139.825L140.927 250.335H141.935L141.759 251.66ZM141.284 253.265L140.804 253.253C140.858 252.859 140.956 252.478 141.097 252.111C141.237 251.744 141.425 251.416 141.659 251.126C141.897 250.837 142.185 250.611 142.521 250.447C142.856 250.283 143.245 250.207 143.687 250.218C144.015 250.226 144.292 250.291 144.519 250.412C144.745 250.529 144.927 250.691 145.063 250.898C145.204 251.101 145.298 251.335 145.345 251.601C145.396 251.867 145.407 252.15 145.38 252.451L144.671 256.675H143.61L144.313 252.498C144.345 252.232 144.329 251.998 144.267 251.794C144.208 251.591 144.097 251.431 143.933 251.314C143.769 251.193 143.546 251.128 143.265 251.121C142.948 251.113 142.673 251.167 142.438 251.285C142.208 251.402 142.015 251.564 141.858 251.771C141.706 251.974 141.583 252.207 141.489 252.468C141.396 252.726 141.327 252.992 141.284 253.265ZM145.38 252.667L144.618 252.89C144.665 252.527 144.763 252.183 144.911 251.859C145.063 251.535 145.261 251.248 145.503 250.998C145.745 250.748 146.026 250.552 146.347 250.412C146.667 250.271 147.021 250.205 147.407 250.212C147.751 250.22 148.042 250.285 148.28 250.406C148.519 250.523 148.708 250.685 148.849 250.892C148.993 251.099 149.089 251.341 149.136 251.619C149.187 251.892 149.194 252.189 149.159 252.509L148.462 256.675H147.396L148.099 252.492C148.13 252.222 148.116 251.986 148.058 251.783C148.003 251.58 147.894 251.421 147.729 251.308C147.565 251.191 147.339 251.13 147.05 251.126C146.819 251.119 146.608 251.154 146.417 251.232C146.226 251.31 146.06 251.421 145.919 251.566C145.778 251.707 145.661 251.871 145.567 252.058C145.478 252.246 145.415 252.449 145.38 252.667ZM156.683 250.335L156.536 251.167H153.202L153.349 250.335H156.683ZM154.743 248.794H155.798L154.726 255.117C154.714 255.253 154.718 255.376 154.737 255.486C154.757 255.595 154.804 255.683 154.878 255.75C154.952 255.812 155.065 255.845 155.218 255.849C155.304 255.849 155.388 255.843 155.47 255.832C155.556 255.816 155.642 255.802 155.728 255.791L155.651 256.681C155.526 256.716 155.397 256.742 155.265 256.757C155.136 256.777 155.007 256.785 154.878 256.781C154.554 256.777 154.3 256.695 154.116 256.535C153.933 256.375 153.808 256.167 153.741 255.914C153.675 255.66 153.655 255.388 153.683 255.099L154.743 248.794ZM159.431 247.675L157.866 256.675H156.806L158.37 247.675H159.431ZM158.229 253.265L157.796 253.253C157.851 252.875 157.95 252.503 158.095 252.14C158.243 251.773 158.437 251.443 158.675 251.15C158.917 250.857 159.204 250.626 159.536 250.458C159.872 250.287 160.255 250.207 160.685 250.218C161.024 250.226 161.308 250.292 161.534 250.417C161.765 250.539 161.944 250.705 162.073 250.916C162.202 251.126 162.288 251.371 162.331 251.648C162.374 251.921 162.378 252.212 162.343 252.521L161.651 256.675H160.585L161.288 252.503C161.315 252.25 161.306 252.021 161.259 251.818C161.216 251.611 161.118 251.447 160.966 251.326C160.817 251.201 160.603 251.134 160.321 251.126C160.024 251.119 159.757 251.175 159.519 251.296C159.28 251.417 159.071 251.583 158.892 251.794C158.716 252.001 158.571 252.234 158.458 252.492C158.349 252.746 158.272 253.003 158.229 253.265ZM165.196 251.378L164.276 256.675H163.216L164.317 250.335H165.349L165.196 251.378ZM167.253 250.283L167.153 251.302C167.071 251.287 166.987 251.273 166.901 251.261C166.819 251.25 166.737 251.244 166.655 251.244C166.401 251.24 166.173 251.279 165.97 251.361C165.771 251.439 165.593 251.55 165.437 251.695C165.284 251.839 165.153 252.009 165.044 252.205C164.938 252.4 164.854 252.611 164.792 252.837L164.458 253.013C164.501 252.697 164.571 252.373 164.669 252.041C164.771 251.708 164.909 251.402 165.085 251.121C165.265 250.839 165.489 250.613 165.759 250.441C166.032 250.269 166.36 250.189 166.743 250.201C166.829 250.201 166.913 250.208 166.995 250.224C167.081 250.24 167.167 250.259 167.253 250.283ZM167.323 253.611L167.341 253.476C167.388 253.05 167.493 252.64 167.657 252.246C167.825 251.851 168.046 251.5 168.319 251.191C168.593 250.882 168.917 250.64 169.292 250.464C169.667 250.289 170.085 250.207 170.546 250.218C170.991 250.226 171.372 250.322 171.688 250.505C172.009 250.689 172.267 250.933 172.462 251.238C172.661 251.539 172.8 251.878 172.878 252.257C172.956 252.636 172.976 253.027 172.937 253.429L172.925 253.564C172.874 253.99 172.765 254.398 172.597 254.789C172.429 255.179 172.206 255.527 171.929 255.832C171.655 256.136 171.331 256.376 170.956 256.552C170.581 256.724 170.165 256.804 169.708 256.792C169.267 256.785 168.886 256.691 168.565 256.511C168.249 256.328 167.993 256.085 167.798 255.785C167.603 255.484 167.466 255.146 167.388 254.771C167.31 254.396 167.288 254.009 167.323 253.611ZM168.396 253.476L168.384 253.617C168.356 253.863 168.354 254.119 168.378 254.384C168.405 254.65 168.468 254.896 168.565 255.123C168.667 255.349 168.813 255.535 169.005 255.679C169.196 255.824 169.444 255.9 169.749 255.908C170.073 255.916 170.358 255.853 170.604 255.72C170.851 255.583 171.06 255.4 171.231 255.169C171.407 254.939 171.546 254.683 171.647 254.402C171.753 254.121 171.823 253.841 171.858 253.564L171.87 253.429C171.897 253.183 171.897 252.927 171.87 252.662C171.847 252.392 171.784 252.142 171.683 251.912C171.585 251.677 171.44 251.488 171.249 251.343C171.058 251.195 170.81 251.117 170.505 251.109C170.181 251.097 169.894 251.162 169.644 251.302C169.397 251.439 169.188 251.625 169.017 251.859C168.845 252.093 168.706 252.353 168.601 252.638C168.499 252.919 168.431 253.199 168.396 253.476ZM177.724 255.152L178.556 250.335H179.622L178.521 256.675H177.507L177.724 255.152ZM178.122 253.875L178.556 253.857C178.505 254.255 178.415 254.634 178.286 254.994C178.157 255.349 177.981 255.666 177.759 255.943C177.54 256.216 177.267 256.431 176.938 256.587C176.614 256.74 176.229 256.81 175.784 256.798C175.437 256.787 175.146 256.716 174.911 256.587C174.681 256.458 174.499 256.285 174.366 256.066C174.233 255.847 174.146 255.597 174.103 255.316C174.06 255.035 174.054 254.738 174.085 254.425L174.771 250.335H175.831L175.146 254.443C175.13 254.615 175.128 254.785 175.14 254.953C175.151 255.117 175.187 255.267 175.245 255.404C175.304 255.541 175.394 255.652 175.515 255.738C175.64 255.82 175.804 255.865 176.007 255.873C176.429 255.888 176.786 255.81 177.079 255.638C177.372 255.462 177.604 255.22 177.776 254.912C177.948 254.603 178.063 254.257 178.122 253.875ZM185.194 250.335H186.167L185.106 256.535C185.032 257.062 184.862 257.527 184.597 257.929C184.335 258.332 183.991 258.644 183.565 258.867C183.144 259.089 182.661 259.195 182.118 259.183C181.833 259.175 181.554 259.126 181.28 259.037C181.007 258.947 180.755 258.82 180.524 258.656C180.294 258.492 180.101 258.291 179.944 258.052L180.554 257.419C180.737 257.681 180.954 257.888 181.204 258.041C181.458 258.197 181.747 258.281 182.071 258.292C182.427 258.3 182.741 258.234 183.015 258.093C183.292 257.957 183.517 257.759 183.688 257.501C183.864 257.244 183.979 256.941 184.034 256.593L184.866 251.677L185.194 250.335ZM180.407 253.623L180.425 253.494C180.472 253.103 180.563 252.712 180.7 252.322C180.841 251.931 181.028 251.576 181.263 251.255C181.497 250.931 181.784 250.675 182.124 250.488C182.464 250.296 182.86 250.205 183.313 250.212C183.724 250.224 184.065 250.32 184.339 250.5C184.612 250.679 184.827 250.917 184.983 251.214C185.144 251.507 185.251 251.83 185.306 252.181C185.364 252.533 185.382 252.886 185.358 253.242L185.294 253.781C185.228 254.16 185.118 254.531 184.966 254.894C184.813 255.257 184.616 255.585 184.374 255.878C184.132 256.167 183.843 256.396 183.507 256.564C183.175 256.732 182.796 256.81 182.37 256.798C181.952 256.783 181.606 256.675 181.333 256.476C181.063 256.277 180.854 256.021 180.706 255.708C180.558 255.392 180.462 255.052 180.419 254.689C180.376 254.322 180.372 253.966 180.407 253.623ZM181.491 253.488L181.474 253.617C181.446 253.851 181.438 254.097 181.45 254.355C181.462 254.613 181.507 254.857 181.585 255.087C181.663 255.314 181.788 255.501 181.96 255.65C182.136 255.794 182.374 255.871 182.675 255.878C182.995 255.89 183.292 255.82 183.565 255.667C183.839 255.515 184.073 255.312 184.269 255.058C184.464 254.804 184.604 254.529 184.69 254.232L184.919 252.808C184.931 252.593 184.905 252.386 184.843 252.187C184.78 251.988 184.687 251.81 184.562 251.654C184.44 251.498 184.292 251.373 184.116 251.279C183.94 251.185 183.741 251.136 183.519 251.132C183.19 251.121 182.907 251.185 182.669 251.326C182.431 251.462 182.229 251.648 182.065 251.882C181.905 252.117 181.778 252.375 181.685 252.656C181.591 252.937 181.526 253.214 181.491 253.488ZM189.278 247.675L187.714 256.675H186.653L188.218 247.675H189.278ZM188.077 253.265L187.644 253.253C187.698 252.875 187.798 252.503 187.942 252.14C188.091 251.773 188.284 251.443 188.522 251.15C188.765 250.857 189.052 250.626 189.384 250.458C189.72 250.287 190.103 250.207 190.532 250.218C190.872 250.226 191.155 250.292 191.382 250.417C191.612 250.539 191.792 250.705 191.921 250.916C192.05 251.126 192.136 251.371 192.179 251.648C192.222 251.921 192.226 252.212 192.19 252.521L191.499 256.675H190.433L191.136 252.503C191.163 252.25 191.153 252.021 191.106 251.818C191.063 251.611 190.966 251.447 190.813 251.326C190.665 251.201 190.45 251.134 190.169 251.126C189.872 251.119 189.604 251.175 189.366 251.296C189.128 251.417 188.919 251.583 188.739 251.794C188.563 252.001 188.419 252.234 188.306 252.492C188.196 252.746 188.12 253.003 188.077 253.265ZM199.702 250.335L199.556 251.167H196.222L196.368 250.335H199.702ZM197.763 248.794H198.817L197.745 255.117C197.733 255.253 197.737 255.376 197.757 255.486C197.776 255.595 197.823 255.683 197.897 255.75C197.972 255.812 198.085 255.845 198.237 255.849C198.323 255.849 198.407 255.843 198.489 255.832C198.575 255.816 198.661 255.802 198.747 255.791L198.671 256.681C198.546 256.716 198.417 256.742 198.284 256.757C198.155 256.777 198.026 256.785 197.897 256.781C197.573 256.777 197.319 256.695 197.136 256.535C196.952 256.375 196.827 256.167 196.761 255.914C196.694 255.66 196.675 255.388 196.702 255.099L197.763 248.794ZM202.45 247.675L200.886 256.675H199.825L201.39 247.675H202.45ZM201.249 253.265L200.815 253.253C200.87 252.875 200.97 252.503 201.114 252.14C201.263 251.773 201.456 251.443 201.694 251.15C201.937 250.857 202.224 250.626 202.556 250.458C202.892 250.287 203.274 250.207 203.704 250.218C204.044 250.226 204.327 250.292 204.554 250.417C204.784 250.539 204.964 250.705 205.093 250.916C205.222 251.126 205.308 251.371 205.351 251.648C205.394 251.921 205.397 252.212 205.362 252.521L204.671 256.675H203.604L204.308 252.503C204.335 252.25 204.325 252.021 204.278 251.818C204.235 251.611 204.138 251.447 203.985 251.326C203.837 251.201 203.622 251.134 203.341 251.126C203.044 251.119 202.776 251.175 202.538 251.296C202.3 251.417 202.091 251.583 201.911 251.794C201.735 252.001 201.591 252.234 201.478 252.492C201.368 252.746 201.292 253.003 201.249 253.265ZM208.919 256.792C208.485 256.785 208.108 256.699 207.788 256.535C207.472 256.367 207.212 256.142 207.009 255.861C206.81 255.576 206.667 255.251 206.581 254.888C206.495 254.525 206.47 254.144 206.505 253.746L206.528 253.494C206.567 253.087 206.667 252.689 206.827 252.298C206.987 251.904 207.2 251.548 207.466 251.232C207.735 250.916 208.052 250.666 208.415 250.482C208.782 250.294 209.188 250.207 209.634 250.218C210.075 250.226 210.442 250.32 210.735 250.5C211.028 250.679 211.257 250.917 211.421 251.214C211.589 251.507 211.698 251.837 211.749 252.205C211.8 252.568 211.804 252.941 211.761 253.324L211.696 253.81H207.097L207.237 252.925L210.747 252.931L210.765 252.837C210.804 252.556 210.788 252.285 210.718 252.023C210.647 251.761 210.519 251.546 210.331 251.378C210.147 251.207 209.899 251.117 209.587 251.109C209.263 251.097 208.981 251.164 208.743 251.308C208.505 251.449 208.306 251.64 208.146 251.882C207.985 252.121 207.858 252.382 207.765 252.667C207.675 252.949 207.612 253.224 207.577 253.494L207.554 253.74C207.53 253.99 207.538 254.242 207.577 254.496C207.616 254.75 207.69 254.982 207.8 255.193C207.913 255.4 208.069 255.57 208.269 255.703C208.468 255.832 208.714 255.9 209.007 255.908C209.362 255.916 209.681 255.839 209.962 255.679C210.247 255.515 210.507 255.308 210.741 255.058L211.345 255.574C211.161 255.843 210.942 256.07 210.688 256.253C210.435 256.437 210.157 256.574 209.856 256.664C209.556 256.753 209.243 256.796 208.919 256.792ZM219.05 250.335L218.903 251.167H215.569L215.716 250.335H219.05ZM217.11 248.794H218.165L217.093 255.117C217.081 255.253 217.085 255.376 217.104 255.486C217.124 255.595 217.171 255.683 217.245 255.75C217.319 255.812 217.433 255.845 217.585 255.849C217.671 255.849 217.755 255.843 217.837 255.832C217.923 255.816 218.009 255.802 218.095 255.791L218.019 256.681C217.894 256.716 217.765 256.742 217.632 256.757C217.503 256.777 217.374 256.785 217.245 256.781C216.921 256.777 216.667 256.695 216.483 256.535C216.3 256.375 216.175 256.167 216.108 255.914C216.042 255.66 216.022 255.388 216.05 255.099L217.11 248.794ZM223.204 255.152L224.036 250.335H225.103L224.001 256.675H222.987L223.204 255.152ZM223.603 253.875L224.036 253.857C223.985 254.255 223.896 254.634 223.767 254.994C223.638 255.349 223.462 255.666 223.239 255.943C223.021 256.216 222.747 256.431 222.419 256.587C222.095 256.74 221.71 256.81 221.265 256.798C220.917 256.787 220.626 256.716 220.392 256.587C220.161 256.458 219.979 256.285 219.847 256.066C219.714 255.847 219.626 255.597 219.583 255.316C219.54 255.035 219.534 254.738 219.565 254.425L220.251 250.335H221.312L220.626 254.443C220.61 254.615 220.608 254.785 220.62 254.953C220.632 255.117 220.667 255.267 220.726 255.404C220.784 255.541 220.874 255.652 220.995 255.738C221.12 255.82 221.284 255.865 221.487 255.873C221.909 255.888 222.267 255.81 222.56 255.638C222.853 255.462 223.085 255.22 223.257 254.912C223.429 254.603 223.544 254.257 223.603 253.875ZM227.511 251.753L226.655 256.675H225.595L226.696 250.335H227.698L227.511 251.753ZM227.019 253.265L226.585 253.253C226.64 252.875 226.739 252.503 226.884 252.14C227.032 251.773 227.226 251.443 227.464 251.15C227.706 250.857 227.993 250.626 228.325 250.458C228.661 250.287 229.044 250.207 229.474 250.218C229.813 250.226 230.097 250.292 230.323 250.417C230.554 250.539 230.733 250.705 230.862 250.916C230.991 251.126 231.077 251.371 231.12 251.648C231.163 251.921 231.167 252.212 231.132 252.521L230.44 256.675H229.374L230.077 252.503C230.104 252.25 230.095 252.021 230.048 251.818C230.005 251.611 229.907 251.447 229.755 251.326C229.606 251.201 229.392 251.134 229.11 251.126C228.813 251.119 228.546 251.175 228.308 251.296C228.069 251.417 227.86 251.583 227.681 251.794C227.505 252.001 227.36 252.234 227.247 252.492C227.138 252.746 227.062 253.003 227.019 253.265ZM233.944 251.753L233.089 256.675H232.028L233.13 250.335H234.132L233.944 251.753ZM233.452 253.265L233.019 253.253C233.073 252.875 233.173 252.503 233.317 252.14C233.466 251.773 233.659 251.443 233.897 251.15C234.14 250.857 234.427 250.626 234.759 250.458C235.095 250.287 235.478 250.207 235.907 250.218C236.247 250.226 236.53 250.292 236.757 250.417C236.987 250.539 237.167 250.705 237.296 250.916C237.425 251.126 237.511 251.371 237.554 251.648C237.597 251.921 237.601 252.212 237.565 252.521L236.874 256.675H235.808L236.511 252.503C236.538 252.25 236.528 252.021 236.481 251.818C236.438 251.611 236.341 251.447 236.188 251.326C236.04 251.201 235.825 251.134 235.544 251.126C235.247 251.119 234.979 251.175 234.741 251.296C234.503 251.417 234.294 251.583 234.114 251.794C233.938 252.001 233.794 252.234 233.681 252.492C233.571 252.746 233.495 253.003 233.452 253.265ZM241.146 256.792C240.712 256.785 240.335 256.699 240.015 256.535C239.698 256.367 239.438 256.142 239.235 255.861C239.036 255.576 238.894 255.251 238.808 254.888C238.722 254.525 238.696 254.144 238.731 253.746L238.755 253.494C238.794 253.087 238.894 252.689 239.054 252.298C239.214 251.904 239.427 251.548 239.692 251.232C239.962 250.916 240.278 250.666 240.642 250.482C241.009 250.294 241.415 250.207 241.86 250.218C242.302 250.226 242.669 250.32 242.962 250.5C243.255 250.679 243.483 250.917 243.647 251.214C243.815 251.507 243.925 251.837 243.976 252.205C244.026 252.568 244.03 252.941 243.987 253.324L243.923 253.81H239.323L239.464 252.925L242.974 252.931L242.991 252.837C243.03 252.556 243.015 252.285 242.944 252.023C242.874 251.761 242.745 251.546 242.558 251.378C242.374 251.207 242.126 251.117 241.813 251.109C241.489 251.097 241.208 251.164 240.97 251.308C240.731 251.449 240.532 251.64 240.372 251.882C240.212 252.121 240.085 252.382 239.991 252.667C239.901 252.949 239.839 253.224 239.804 253.494L239.78 253.74C239.757 253.99 239.765 254.242 239.804 254.496C239.843 254.75 239.917 254.982 240.026 255.193C240.14 255.4 240.296 255.57 240.495 255.703C240.694 255.832 240.94 255.9 241.233 255.908C241.589 255.916 241.907 255.839 242.188 255.679C242.474 255.515 242.733 255.308 242.968 255.058L243.571 255.574C243.388 255.843 243.169 256.07 242.915 256.253C242.661 256.437 242.384 256.574 242.083 256.664C241.782 256.753 241.47 256.796 241.146 256.792ZM247.351 247.675L245.786 256.675H244.726L246.284 247.675H247.351Z" fill="#5E6C84"/>
<mask id="mask0_406_2041" style="mask-type:alpha" maskUnits="userSpaceOnUse" x="0" y="0" width="325" height="233">
<path d="M36.0826 73.5337C40.7487 93.5572 23.4931 105.744 15.2382 115.899C10.0112 122.601 -2.69937 133.563 0.513338 173.856C2.05971 193.251 12.0619 220.881 34.0077 227.24C46.2371 235.104 155.966 222.889 213.595 229.75C274.645 237.018 287.363 229.249 317.195 206.682C329.529 197.351 324.94 171.429 319.107 154.264C312.701 137.646 308.589 110.667 320.446 76.6112C333.303 39.6794 314.677 25.39 305.434 19.0642C293.992 12.0205 270.247 4.80573 241.849 17.9359C205.241 34.862 189.164 28.3989 176.161 26.5525C163.157 24.7061 118.791 9.72951 80.1618 1.21544C49.2585 -5.59582 30.9194 17.9359 28.3377 29.2195C25.7561 47.8889 31.4166 53.5103 36.0826 73.5337Z" fill="#FFEBE5"/>
</mask>
<g mask="url(#mask0_406_2041)">
<path d="M185.653 14.5781V129.486" stroke="#DDDDDD" stroke-width="1.89444"/>
<path fill-rule="evenodd" clip-rule="evenodd" d="M134.631 129.486H230.673V11.1479H134.631V129.486Z" stroke="#DDDDDD" stroke-width="1.89444"/>
<path d="M230.673 90.2849H134.631" stroke="#DDDDDD" stroke-width="1.89444"/>
<path fill-rule="evenodd" clip-rule="evenodd" d="M199.018 198.319L166.595 211.913L153.784 181.36C153.351 180.328 154.567 178.833 156.503 178.021L185.424 165.895L199.018 198.319Z" fill="#2565C1"/>
<path fill-rule="evenodd" clip-rule="evenodd" d="M246.468 178.424L199.019 198.319L185.424 165.895L229.387 147.462C231.311 146.655 233.224 146.838 233.657 147.871L246.468 178.424Z" fill="#2873F0"/>
<path fill-rule="evenodd" clip-rule="evenodd" d="M174.616 200.785L185.262 196.322L174.436 170.503L163.791 174.966L174.616 200.785Z" fill="#F85A4F"/>
<mask id="mask1_406_2041" style="mask-type:alpha" maskUnits="userSpaceOnUse" x="191" y="162" width="36" height="36">
<path fill-rule="evenodd" clip-rule="evenodd" d="M191.443 173.599L216.75 162.989L226.568 186.406L201.262 197.016L191.443 173.599Z" fill="white"/>
</mask>
<g mask="url(#mask1_406_2041)">
<path fill-rule="evenodd" clip-rule="evenodd" d="M215.749 179.889L218.047 178.926C218.904 178.567 219.183 177.684 218.824 176.115C218.474 174.613 217.903 174.117 217.043 174.478L214.74 175.443L214.221 173.185C213.62 170.611 214.331 168.918 216.313 168.087L216.69 167.928C217.793 167.466 218.318 167.027 218.177 166.456C218.094 166.066 217.787 165.612 217.447 165.111C217.106 164.627 216.768 164.167 216.47 163.951C216.001 163.578 215.289 163.601 214.329 164.004C211.946 165.003 210.273 166.508 209.308 168.542C208.348 170.563 208.142 172.824 208.764 175.515L209.263 177.74L204.432 179.765C204.352 179.799 199.602 182.472 199.602 182.472L204.502 181.269L204.981 181.889L202.269 183.315L205.413 182.519L205.768 183.038L197.164 187.242C197.164 187.242 206.838 183.625 206.914 183.593L210.265 182.188L212.968 193.635L218.12 190.035L215.749 179.889Z" fill="white"/>
</g>
<path fill-rule="evenodd" clip-rule="evenodd" d="M251.582 166.426L244.904 178.094L238.887 176.41L240.653 160.638C234.737 163.874 233.845 161.842 234.674 161.3C235.503 160.758 236.231 159.922 241.629 155.443L246.865 154.421" fill="#F5B7A3"/>
<path fill-rule="evenodd" clip-rule="evenodd" d="M239.448 171.884L234.763 176.494C234.763 176.494 227.566 179.119 228.2 181.304C228.611 181.483 236.127 179.109 236.127 179.109L240.174 175.872" fill="#F5B7A3"/>
<path fill-rule="evenodd" clip-rule="evenodd" d="M239.496 175.267L236.651 179.751C236.651 179.751 230.013 183.148 230.887 185.182C231.304 185.306 238.281 182.114 238.281 182.114L242.426 177.402" fill="#F5B7A3"/>
<path fill-rule="evenodd" clip-rule="evenodd" d="M242.413 175.604L240.266 180.684C240.266 180.684 234.612 185.544 235.94 187.316C236.374 187.339 242.406 182.596 242.406 182.596L245.135 177.691" fill="#F5B7A3"/>
<path d="M213.385 156.592C213.385 156.592 260.009 139.982 271.92 119.247C273.403 116.828 290.305 80.9327 290.305 80.9327L292.389 51.4512C292.389 51.4512 283.093 57.8397 280.786 61.0983C268.009 75.0158 252.583 122.84 252.583 122.84L212.622 149.809L213.385 156.592Z" fill="#F5B7A3"/>
<path d="M208.742 156.931L200 158.5L194.5 161" stroke="#F5B7A3" stroke-width="2.25" stroke-miterlimit="10" stroke-linecap="round"/>
<path d="M200.5 159.5L206.5 157L203.184 156.379L201 157.261L200.5 159.5Z" fill="#F5B7A3"/>
<path d="M321.141 113.621L294.986 130.772C294.986 130.772 285.554 119.195 282.981 115.336C279.917 110.741 278.265 105.475 280.837 101.616C271.833 90.4683 261.114 98.186 261.114 98.186C264.544 82.7506 277.747 64.318 280.837 60.4551C284.267 56.1675 288.126 52.7374 291.985 51.8799L305.749 54.8812L346.009 63.0276L333.575 97.3284L314.394 90.4683L321.141 113.621Z" fill="#5353E5"/>
<path d="M294.987 56.062C294.987 56.062 280.899 24.2908 278.989 19.7231C276.885 23.2582 271.331 19.6727 269.896 24.7028C268.48 29.5936 271.981 30.7147 270.357 35.5484C268.733 40.3822 265.038 39.2041 263.42 44.0378C261.803 48.8716 265.499 50.0435 263.881 54.8773C262.264 59.711 257.594 59.4766 255.97 64.304C254.346 69.1314 257.971 72.3496 256.347 77.177H269.987L294.987 56.062Z" fill="#231F20"/>
<path d="M273.117 31.1782C272.626 39.2289 278.755 46.1537 286.806 46.6447C294.856 47.1357 301.781 41.007 302.272 32.9562C302.763 24.9054 296.634 17.981 288.584 17.49C280.533 16.999 273.608 23.1274 273.117 31.1782Z" fill="#D39884"/>
<path d="M283.839 68.0267L285.81 42.0623L298.733 30.0132L308.707 55.4241C308.707 55.4241 303.7 84.7548 295.015 88.0116C286.329 91.2685 283.839 68.0267 283.839 68.0267Z" fill="#D39884"/>
<path d="M286.036 45.9253C285.823 49.248 285.554 53.1664 285.554 53.1664L297.559 41.1611C297.559 41.1611 294.407 46.1148 286.036 45.9253Z" fill="#B57261"/>
<path d="M287.269 28.5311C285.823 27.9935 283.379 28.4647 282.981 29.1559" stroke="#231F20" stroke-width="1.07" stroke-miterlimit="10" stroke-linecap="round"/>
<path d="M279.551 30.4621C278.394 29.4244 276.433 30.3274 276.121 31.7282" stroke="#231F20" stroke-width="1.07" stroke-miterlimit="10" stroke-linecap="round"/>
<path d="M352.44 70.3166C346.772 65.4261 350.4 61.1671 344.764 56.2766C339.127 51.3861 335.468 55.6323 329.8 50.7547C324.132 45.8771 327.759 41.6052 322.123 36.7147C316.487 31.8242 312.834 36.0703 307.166 31.1991C301.498 26.328 303.968 22.0174 298.376 17.0238C292.785 12.0302 287.002 11.6502 280.157 15.2456C274.802 18.0613 273.58 26.9465 283.995 26.663C287.072 26.5728 291.109 26.2571 292.868 28.5123C294.474 30.5613 293.035 33.4027 294.148 34.7172C296.342 37.2945 298.901 36.1993 300.366 39.0472C300.685 39.75 301.055 40.4283 301.473 41.0768L309.136 57.4538C325.078 55.7335 343.471 66.8502 343.471 66.8502" fill="#231F20"/>
<path d="M280.022 31.7285C280.022 31.7285 279.702 34.7143 279.56 35.8026C279.419 36.891 281.05 37.2343 282.124 36.437" stroke="#231F20" stroke-width="1.32" stroke-miterlimit="10" stroke-linecap="round"/>
<path d="M285.554 38.5884C285.336 38.885 281.912 39.9052 279.552 39.2053" stroke="#231F20" stroke-width="1.32" stroke-miterlimit="10" stroke-linecap="round"/>
<path d="M220.065 144.758L212.622 149.766L204 152.5L199.5 157.5L213.394 156.592L228.726 150.435L220.065 144.758Z" fill="#F5B7A3"/>
<path d="M213.609 152.922C212.039 156.832 210.372 158.792 206.436 160.825C202.5 162.858 205.729 159.221 205.729 159.221L209.109 155.128L212.345 150L213.609 152.922Z" fill="#F5B7A3"/>
<path d="M312.566 159.499L299 133.5L329.288 108.048L348.153 171.504L312.566 159.499Z" fill="#5353E5"/>
<path d="M312.565 215.666V158.641L322.856 162.5L359.729 198.087L312.565 215.666Z" fill="#42526E"/>
<path fill-rule="evenodd" clip-rule="evenodd" d="M308.5 90L290 120.5L246.436 154.85L251.153 166.855C251.153 166.855 293.51 142.939 304.319 133.841C315.128 124.742 328.746 84.5859 328.746 84.5859L308.5 90Z" fill="#F5B7A3"/>
<path d="M275.263 113.193C275.263 113.193 273.548 105.475 261.114 98.6149L265.831 84.8945L291.556 92.6122C289.841 102.474 275.263 113.193 275.263 113.193Z" fill="#5353E5"/>
<path d="M310.242 103.013C307.46 100.743 303.026 100.475 301.157 100.625L300.831 85.7953L330.927 85.3716L316.332 113.588C312.539 111.95 313.72 105.85 310.242 103.013Z" fill="#5353E5"/>
<rect x="43.7334" y="149.208" width="136.346" height="107.19" fill="#F4F5F7"/>
<rect x="136.346" y="186.939" width="152.639" height="32.5858" fill="#F4F5F7"/>
<path d="M74.8867 182.733V185.299H75.7949C75.916 185.299 76.002 185.323 76.0527 185.37C76.1035 185.413 76.1289 185.471 76.1289 185.545C76.1289 185.616 76.1035 185.674 76.0527 185.721C76.002 185.768 75.916 185.792 75.7949 185.792H73.7324C73.6152 185.792 73.5312 185.768 73.4805 185.721C73.4297 185.674 73.4043 185.616 73.4043 185.545C73.4043 185.471 73.4297 185.413 73.4805 185.37C73.5312 185.323 73.6152 185.299 73.7324 185.299H74.3945V179.428H73.7324C73.6152 179.428 73.5312 179.407 73.4805 179.364C73.4297 179.317 73.4043 179.256 73.4043 179.182C73.4043 179.108 73.4297 179.049 73.4805 179.006C73.5312 178.959 73.6152 178.936 73.7324 178.936H76.709C77.3223 178.936 77.8379 179.131 78.2559 179.522C78.6777 179.909 78.8887 180.346 78.8887 180.834C78.8887 181.186 78.7578 181.518 78.4961 181.831C78.2383 182.139 77.8047 182.397 77.1953 182.604C77.5469 182.846 77.8477 183.12 78.0977 183.424C78.3477 183.729 78.748 184.354 79.2988 185.299H79.6738C79.791 185.299 79.875 185.323 79.9258 185.37C79.9766 185.413 80.002 185.471 80.002 185.545C80.002 185.616 79.9766 185.674 79.9258 185.721C79.875 185.768 79.791 185.792 79.6738 185.792H79.0176C78.4082 184.702 77.9355 183.971 77.5996 183.6C77.2676 183.229 76.8848 182.94 76.4512 182.733H74.8867ZM74.8867 182.241H76.2285C76.6582 182.241 77.0469 182.163 77.3945 182.006C77.7461 181.85 78 181.667 78.1562 181.456C78.3164 181.245 78.3965 181.03 78.3965 180.811C78.3965 180.483 78.2305 180.17 77.8984 179.874C77.5703 179.577 77.1699 179.428 76.6973 179.428H74.8867V182.241ZM82.5098 182.481V185.299H84.1973C84.3145 185.299 84.3984 185.323 84.4492 185.37C84.5 185.413 84.5254 185.471 84.5254 185.545C84.5254 185.616 84.5 185.674 84.4492 185.721C84.3984 185.768 84.3145 185.792 84.1973 185.792H81.3555C81.2383 185.792 81.1543 185.768 81.1035 185.721C81.0527 185.674 81.0273 185.616 81.0273 185.545C81.0273 185.471 81.0527 185.413 81.1035 185.37C81.1543 185.323 81.2383 185.299 81.3555 185.299H82.0176V179.428H81.3555C81.2383 179.428 81.1543 179.407 81.1035 179.364C81.0527 179.317 81.0273 179.256 81.0273 179.182C81.0273 179.108 81.0566 179.045 81.1152 178.995C81.1582 178.956 81.2383 178.936 81.3555 178.936H86.7754V180.629C86.7754 180.747 86.752 180.831 86.7051 180.881C86.6582 180.932 86.5996 180.958 86.5293 180.958C86.4551 180.958 86.3945 180.932 86.3477 180.881C86.3008 180.831 86.2773 180.747 86.2773 180.629V179.428H82.5098V181.989H84.2734V181.432C84.2734 181.315 84.2969 181.231 84.3438 181.18C84.3906 181.129 84.4512 181.104 84.5254 181.104C84.5957 181.104 84.6543 181.129 84.7012 181.18C84.748 181.231 84.7715 181.315 84.7715 181.432V183.038C84.7715 183.155 84.748 183.239 84.7012 183.29C84.6543 183.34 84.5957 183.366 84.5254 183.366C84.4512 183.366 84.3906 183.34 84.3438 183.29C84.2969 183.239 84.2734 183.155 84.2734 183.038V182.481H82.5098ZM91.1523 179.428V185.299H92.8398C92.957 185.299 93.041 185.323 93.0918 185.37C93.1426 185.413 93.168 185.471 93.168 185.545C93.168 185.616 93.1426 185.674 93.0918 185.721C93.041 185.768 92.957 185.792 92.8398 185.792H88.9727C88.8555 185.792 88.7715 185.768 88.7207 185.721C88.6699 185.674 88.6445 185.616 88.6445 185.545C88.6445 185.471 88.6699 185.413 88.7207 185.37C88.7715 185.323 88.8555 185.299 88.9727 185.299H90.6602V179.428H88.9727C88.8555 179.428 88.7715 179.407 88.7207 179.364C88.6699 179.317 88.6445 179.256 88.6445 179.182C88.6445 179.108 88.6699 179.049 88.7207 179.006C88.7715 178.959 88.8555 178.936 88.9727 178.936H92.8398C92.957 178.936 93.041 178.959 93.0918 179.006C93.1426 179.049 93.168 179.108 93.168 179.182C93.168 179.256 93.1426 179.317 93.0918 179.364C93.041 179.407 92.957 179.428 92.8398 179.428H91.1523ZM96.1797 185.299V179.428H95.7637C95.6465 179.428 95.5625 179.407 95.5117 179.364C95.4609 179.317 95.4355 179.256 95.4355 179.182C95.4355 179.108 95.4609 179.049 95.5117 179.006C95.5625 178.959 95.6465 178.936 95.7637 178.936H98.4121C98.8262 178.936 99.2031 179.022 99.543 179.194C99.8867 179.366 100.148 179.561 100.328 179.78C100.637 180.151 100.871 180.543 101.031 180.958C101.145 181.258 101.201 181.614 101.201 182.024V182.704C101.201 183.208 101.09 183.696 100.867 184.168C100.645 184.641 100.273 185.053 99.7539 185.405C99.3672 185.663 98.9199 185.792 98.4121 185.792H95.7637C95.6465 185.792 95.5625 185.768 95.5117 185.721C95.4609 185.674 95.4355 185.616 95.4355 185.545C95.4355 185.471 95.4609 185.413 95.5117 185.37C95.5625 185.323 95.6465 185.299 95.7637 185.299H96.1797ZM96.6719 185.299H98.459C98.873 185.299 99.2598 185.165 99.6191 184.895C99.9824 184.625 100.254 184.303 100.434 183.928C100.617 183.549 100.709 183.176 100.709 182.809V181.918C100.709 181.614 100.66 181.342 100.562 181.104C100.422 180.756 100.223 180.426 99.9648 180.114C99.8242 179.942 99.6172 179.786 99.3438 179.645C99.0703 179.5 98.7754 179.428 98.459 179.428H96.6719V185.299ZM114.285 179.428V179.264C114.285 179.147 114.307 179.063 114.35 179.012C114.396 178.961 114.457 178.936 114.531 178.936C114.605 178.936 114.664 178.961 114.707 179.012C114.754 179.063 114.777 179.147 114.777 179.264V180.518C114.777 180.635 114.754 180.719 114.707 180.77C114.664 180.821 114.605 180.846 114.531 180.846C114.461 180.846 114.402 180.823 114.355 180.776C114.312 180.729 114.289 180.653 114.285 180.547C114.266 180.219 114.096 179.924 113.775 179.663C113.459 179.401 113.043 179.27 112.527 179.27C111.984 179.27 111.553 179.411 111.232 179.692C110.912 179.969 110.752 180.297 110.752 180.676C110.752 180.872 110.797 181.049 110.887 181.209C110.977 181.37 111.096 181.5 111.244 181.602C111.393 181.7 111.561 181.78 111.748 181.842C111.936 181.901 112.229 181.963 112.627 182.03C113.295 182.139 113.756 182.25 114.01 182.364C114.35 182.516 114.605 182.727 114.777 182.997C114.953 183.266 115.041 183.584 115.041 183.952C115.041 184.514 114.816 184.995 114.367 185.393C113.918 185.788 113.312 185.985 112.551 185.985C111.695 185.985 111.012 185.717 110.5 185.182V185.463C110.5 185.581 110.477 185.665 110.43 185.715C110.387 185.766 110.328 185.792 110.254 185.792C110.184 185.792 110.125 185.766 110.078 185.715C110.031 185.665 110.008 185.581 110.008 185.463V184.104C110.008 183.983 110.029 183.897 110.072 183.846C110.119 183.795 110.18 183.77 110.254 183.77C110.324 183.77 110.381 183.793 110.424 183.84C110.471 183.887 110.496 183.963 110.5 184.069C110.52 184.428 110.711 184.756 111.074 185.053C111.441 185.346 111.934 185.493 112.551 185.493C113.168 185.493 113.654 185.338 114.01 185.03C114.369 184.721 114.549 184.356 114.549 183.934C114.549 183.676 114.48 183.448 114.344 183.249C114.207 183.045 114.004 182.885 113.734 182.768C113.547 182.686 113.156 182.594 112.562 182.493C111.746 182.356 111.158 182.147 110.799 181.866C110.439 181.584 110.26 181.184 110.26 180.665C110.26 180.149 110.465 179.706 110.875 179.334C111.289 178.963 111.834 178.778 112.51 178.778C113.197 178.778 113.789 178.995 114.285 179.428ZM121.896 179.61V179.264C121.896 179.147 121.918 179.063 121.961 179.012C122.008 178.961 122.068 178.936 122.143 178.936C122.217 178.936 122.275 178.961 122.318 179.012C122.365 179.063 122.389 179.147 122.389 179.264V180.629C122.389 180.75 122.365 180.836 122.318 180.887C122.275 180.938 122.217 180.963 122.143 180.963C122.076 180.963 122.02 180.94 121.973 180.893C121.93 180.846 121.904 180.77 121.896 180.665C121.877 180.336 121.699 180.045 121.363 179.792C120.91 179.444 120.395 179.27 119.816 179.27C119.438 179.27 119.08 179.354 118.744 179.522C118.494 179.643 118.295 179.792 118.146 179.967C117.889 180.272 117.684 180.61 117.531 180.981C117.422 181.254 117.367 181.563 117.367 181.907V182.768C117.367 183.502 117.633 184.141 118.164 184.684C118.695 185.223 119.312 185.493 120.016 185.493C120.438 185.493 120.814 185.401 121.146 185.217C121.482 185.034 121.807 184.756 122.119 184.385C122.186 184.303 122.26 184.262 122.342 184.262C122.412 184.262 122.469 184.284 122.512 184.327C122.555 184.37 122.576 184.424 122.576 184.491C122.576 184.581 122.492 184.717 122.324 184.901C122.004 185.26 121.643 185.532 121.24 185.715C120.842 185.895 120.438 185.985 120.027 185.985C119.672 185.985 119.311 185.917 118.943 185.78C118.662 185.674 118.43 185.551 118.246 185.411C118.062 185.27 117.836 185.034 117.566 184.702C117.301 184.366 117.119 184.057 117.021 183.776C116.924 183.491 116.875 183.178 116.875 182.838V181.836C116.875 181.352 117.004 180.858 117.262 180.354C117.523 179.846 117.879 179.458 118.328 179.188C118.781 178.915 119.271 178.778 119.799 178.778C120.611 178.778 121.311 179.055 121.896 179.61ZM128.559 183.5H125.324L124.662 185.299H125.605C125.723 185.299 125.807 185.323 125.857 185.37C125.908 185.413 125.934 185.471 125.934 185.545C125.934 185.616 125.908 185.674 125.857 185.721C125.807 185.768 125.723 185.792 125.605 185.792H123.766C123.648 185.792 123.564 185.768 123.514 185.721C123.463 185.674 123.438 185.616 123.438 185.545C123.438 185.471 123.463 185.413 123.514 185.37C123.564 185.323 123.648 185.299 123.766 185.299H124.146L126.32 179.428H124.867C124.75 179.428 124.666 179.407 124.615 179.364C124.564 179.317 124.539 179.256 124.539 179.182C124.539 179.108 124.564 179.049 124.615 179.006C124.666 178.959 124.75 178.936 124.867 178.936H127.346L129.748 185.299H130.129C130.246 185.299 130.33 185.323 130.381 185.37C130.432 185.413 130.457 185.471 130.457 185.545C130.457 185.616 130.432 185.674 130.381 185.721C130.33 185.768 130.246 185.792 130.129 185.792H128.295C128.174 185.792 128.088 185.768 128.037 185.721C127.986 185.674 127.961 185.616 127.961 185.545C127.961 185.471 127.986 185.413 128.037 185.37C128.088 185.323 128.174 185.299 128.295 185.299H129.232L128.559 183.5ZM128.371 183.008L127.012 179.428H126.83L125.512 183.008H128.371ZM136.557 185.792H135.924L132.297 179.657V185.299H133.205C133.326 185.299 133.412 185.323 133.463 185.37C133.514 185.413 133.539 185.471 133.539 185.545C133.539 185.616 133.514 185.674 133.463 185.721C133.412 185.768 133.326 185.792 133.205 185.792H131.395C131.273 185.792 131.188 185.768 131.137 185.721C131.086 185.674 131.061 185.616 131.061 185.545C131.061 185.471 131.086 185.413 131.137 185.37C131.188 185.323 131.273 185.299 131.395 185.299H131.805V179.428H131.143C131.025 179.428 130.941 179.407 130.891 179.364C130.84 179.317 130.814 179.256 130.814 179.182C130.814 179.108 130.84 179.049 130.891 179.006C130.941 178.959 131.025 178.936 131.143 178.936H132.432L136.064 185.083V179.428H135.156C135.039 179.428 134.955 179.407 134.904 179.364C134.854 179.317 134.828 179.256 134.828 179.182C134.828 179.108 134.852 179.049 134.898 179.006C134.949 178.959 135.035 178.936 135.156 178.936H136.973C137.09 178.936 137.174 178.959 137.225 179.006C137.275 179.049 137.301 179.108 137.301 179.182C137.301 179.256 137.275 179.317 137.225 179.364C137.174 179.407 137.09 179.428 136.973 179.428H136.557V185.792ZM143.764 185.792H143.131L139.504 179.657V185.299H140.412C140.533 185.299 140.619 185.323 140.67 185.37C140.721 185.413 140.746 185.471 140.746 185.545C140.746 185.616 140.721 185.674 140.67 185.721C140.619 185.768 140.533 185.792 140.412 185.792H138.602C138.48 185.792 138.395 185.768 138.344 185.721C138.293 185.674 138.268 185.616 138.268 185.545C138.268 185.471 138.293 185.413 138.344 185.37C138.395 185.323 138.48 185.299 138.602 185.299H139.012V179.428H138.35C138.232 179.428 138.148 179.407 138.098 179.364C138.047 179.317 138.021 179.256 138.021 179.182C138.021 179.108 138.047 179.049 138.098 179.006C138.148 178.959 138.232 178.936 138.35 178.936H139.639L143.271 185.083V179.428H142.363C142.246 179.428 142.162 179.407 142.111 179.364C142.061 179.317 142.035 179.256 142.035 179.182C142.035 179.108 142.059 179.049 142.105 179.006C142.156 178.959 142.242 178.936 142.363 178.936H144.18C144.297 178.936 144.381 178.959 144.432 179.006C144.482 179.049 144.508 179.108 144.508 179.182C144.508 179.256 144.482 179.317 144.432 179.364C144.381 179.407 144.297 179.428 144.18 179.428H143.764V185.792ZM146.957 182.481V185.299H150.742V183.846C150.742 183.729 150.764 183.645 150.807 183.594C150.854 183.543 150.914 183.518 150.988 183.518C151.062 183.518 151.121 183.543 151.164 183.594C151.211 183.645 151.234 183.729 151.234 183.846V185.792H145.803C145.686 185.792 145.602 185.768 145.551 185.721C145.5 185.674 145.475 185.616 145.475 185.545C145.475 185.471 145.5 185.413 145.551 185.37C145.602 185.323 145.686 185.299 145.803 185.299H146.465V179.428H145.803C145.686 179.428 145.602 179.407 145.551 179.364C145.5 179.317 145.475 179.256 145.475 179.182C145.475 179.108 145.5 179.049 145.551 179.006C145.602 178.959 145.686 178.936 145.803 178.936H150.977V180.629C150.977 180.747 150.953 180.831 150.906 180.881C150.863 180.932 150.805 180.958 150.73 180.958C150.656 180.958 150.596 180.932 150.549 180.881C150.506 180.831 150.484 180.747 150.484 180.629V179.428H146.957V181.989H148.721V181.432C148.721 181.315 148.744 181.231 148.791 181.18C148.838 181.129 148.898 181.104 148.973 181.104C149.043 181.104 149.102 181.129 149.148 181.18C149.195 181.231 149.219 181.315 149.219 181.432V183.038C149.219 183.155 149.195 183.239 149.148 183.29C149.102 183.34 149.043 183.366 148.973 183.366C148.898 183.366 148.838 183.34 148.791 183.29C148.744 183.239 148.721 183.155 148.721 183.038V182.481H146.957ZM154.164 182.733V185.299H155.072C155.193 185.299 155.279 185.323 155.33 185.37C155.381 185.413 155.406 185.471 155.406 185.545C155.406 185.616 155.381 185.674 155.33 185.721C155.279 185.768 155.193 185.792 155.072 185.792H153.01C152.893 185.792 152.809 185.768 152.758 185.721C152.707 185.674 152.682 185.616 152.682 185.545C152.682 185.471 152.707 185.413 152.758 185.37C152.809 185.323 152.893 185.299 153.01 185.299H153.672V179.428H153.01C152.893 179.428 152.809 179.407 152.758 179.364C152.707 179.317 152.682 179.256 152.682 179.182C152.682 179.108 152.707 179.049 152.758 179.006C152.809 178.959 152.893 178.936 153.01 178.936H155.986C156.6 178.936 157.115 179.131 157.533 179.522C157.955 179.909 158.166 180.346 158.166 180.834C158.166 181.186 158.035 181.518 157.773 181.831C157.516 182.139 157.082 182.397 156.473 182.604C156.824 182.846 157.125 183.12 157.375 183.424C157.625 183.729 158.025 184.354 158.576 185.299H158.951C159.068 185.299 159.152 185.323 159.203 185.37C159.254 185.413 159.279 185.471 159.279 185.545C159.279 185.616 159.254 185.674 159.203 185.721C159.152 185.768 159.068 185.792 158.951 185.792H158.295C157.686 184.702 157.213 183.971 156.877 183.6C156.545 183.229 156.162 182.94 155.729 182.733H154.164ZM154.164 182.241H155.506C155.936 182.241 156.324 182.163 156.672 182.006C157.023 181.85 157.277 181.667 157.434 181.456C157.594 181.245 157.674 181.03 157.674 180.811C157.674 180.483 157.508 180.17 157.176 179.874C156.848 179.577 156.447 179.428 155.975 179.428H154.164V182.241Z" fill="#979797"/>
<rect x="71.9697" y="103.317" width="6.00264" height="47.1636" transform="rotate(-12.9472 71.9697 103.317)" fill="#C4C4C4"/>
<rect x="83.1797" y="144.063" width="53.1662" height="5.14512" fill="#C4C4C4"/>
</g>
</svg>
