<?xml version="1.0" encoding="UTF-8"?>
<svg width="272" height="166" viewBox="0 0 272 166" fill="none" xmlns="http://www.w3.org/2000/svg">
<ellipse cx="135.848" cy="159.514" rx="135.848" ry="5.51384" fill="#E6E6E6"/>
<path d="M146.486 94.2688C146.246 94.2688 146.045 94.2287 145.805 94.1485C145.245 93.9481 144.765 93.5073 144.564 92.9461L139.882 79.7598V160L197.956 128.056L197.996 62.6055L147.486 93.9882C147.206 94.1886 146.846 94.2688 146.486 94.2688Z" fill="#FDAF2A"/>
<path d="M128.595 94.1885C128.395 94.2286 128.195 94.2687 128.035 94.2687C127.674 94.2687 127.274 94.1485 126.954 93.9481L78.2849 62.6855L78.325 127.054L135.919 159.92V79.2386L129.836 93.0663C129.636 93.6274 129.155 94.0282 128.595 94.1885Z" fill="#FDAF2A"/>
<path d="M195.635 35.2304L137.921 0L80.1661 35.992L80.1261 36.032L137.2 71.9438L137.921 72.3847L195.915 35.3908L195.635 35.2304Z" fill="#FDC72E"/>
<path d="M133.678 74.469L78.2849 39.7596L77.0442 38.998L76.2838 40.481L74.2826 44.3287L70 52.6253L74.2826 55.3507L76.2838 56.6734L78.2849 57.956L127.154 89.2986L133.678 74.469Z" fill="#FDC72E"/>
<path d="M202.039 48.417L200.038 42.5653L198.637 38.437L198.036 38.7977L142.243 74.3889L147.526 89.2586L198.036 57.8759L200.038 56.6334L202.039 55.3909L204 54.1885L202.039 48.417Z" fill="#FDC72E"/>
<path d="M163 132.5C163 147.171 151.549 159 137.5 159C123.451 159 112 147.171 112 132.5C112 117.829 123.451 106 137.5 106C151.549 106 163 117.829 163 132.5Z" fill="#2E77EC" stroke="white" stroke-width="2"/>
<path d="M148.334 126.942H123.11L128.552 121.215C129.251 120.479 129.251 119.287 128.552 118.551C127.853 117.816 126.72 117.816 126.021 118.551L117.525 127.492C117.189 127.845 117 128.324 117 128.824C117 129.324 117.189 129.803 117.525 130.156L126.021 139.097C126.72 139.832 127.853 139.832 128.552 139.097C129.251 138.361 129.251 137.169 128.552 136.433L123.11 130.706H148.334C151.817 130.706 154.639 133.677 154.639 137.342C154.639 141.006 151.817 143.977 148.334 143.977V147.742C153.792 147.742 158.217 143.085 158.217 137.342C158.217 131.598 153.792 126.942 148.334 126.942Z" fill="white"/>
</svg>
