<?xml version="1.0" encoding="UTF-8"?>
<svg xmlns="http://www.w3.org/2000/svg" width="176" height="168" viewBox="0 0 176 168" fill="none">
  <path d="M88.8165 9.60043C52.1914 10.349 48.6938 40.6552 37.2497 55.188C33.8366 59.519 -8.82222 88.328 9.596 115.768C16.0207 125.35 23.7769 127.446 28.0037 138.792C37.7358 164.895 56.154 176.188 96.2557 145.208C102.342 140.503 109.803 136.097 116.375 132.354C127.048 126.291 141.535 121.874 146.533 109.02C166.114 58.6528 120.496 8.9695 88.8165 9.60043Z" fill="#FEF7E9"/>
  <path d="M137.075 27.9722H113.211L110.96 156.895H141.189V33.9796C141.189 29.0472 138.446 27.9195 137.075 27.9722Z" fill="#FFE380"/>
  <path d="M122.324 97.3198C119.396 97.3198 118.975 100.333 119.131 101.839L119.442 114.05C119.442 116.207 121.882 116.587 123.258 116.508C126.684 116.085 134.082 115.16 136.262 114.843C138.442 114.526 139.197 112.623 138.987 111.275C138.494 108.103 137.586 101.443 137.274 99.8571C136.967 98.2909 135.405 97.3198 134.004 97.3198H122.324Z" fill="white"/>
  <path d="M134.209 100.491L134.521 104.614M121.361 101.126L121.75 105.724M122.607 100.095V102.077M123.074 103.742V104.614M124.787 104.456V105.328M124.632 102.632V103.584M124.943 100.888V101.839M126.189 102.315V103.266M127.357 103.346V104.297M128.681 104.297V105.328M127.746 99.4605V100.491M129.537 99.1433V100.174M128.603 101.046V102.077M129.693 102.077V103.028M131.406 101.284V102.315M132.418 102.315V103.266M131.25 103.266V104.297M132.574 104.059V105.09M132.808 101.601V100.491" stroke="black" stroke-width="0.789199"/>
  <path d="M121.283 107.944L122.062 114.605" stroke="black" stroke-width="0.657666" stroke-linecap="round"/>
  <path d="M126.417 107.745L126.901 114.053" stroke="black" stroke-width="0.657666" stroke-linecap="round"/>
  <path d="M129.86 107.079L130.547 113.803" stroke="black" stroke-width="0.657666" stroke-linecap="round"/>
  <path d="M134.691 106.889L135.3 113.178" stroke="black" stroke-width="0.657666" stroke-linecap="round"/>
  <path d="M136.074 106.993L136.309 113.236" stroke="black" stroke-width="0.263066" stroke-linecap="round"/>
  <path d="M136.735 106.834L137.246 113.061" stroke="black" stroke-width="0.263066" stroke-linecap="round"/>
  <path d="M132.997 106.834L133.586 113.336" stroke="black" stroke-width="0.263066" stroke-linecap="round"/>
  <path d="M132.071 106.834L132.66 113.336" stroke="black" stroke-width="0.263066" stroke-linecap="round"/>
  <path d="M131.136 106.993L131.726 113.495" stroke="black" stroke-width="0.263066" stroke-linecap="round"/>
  <path d="M128.177 107.469L128.767 113.97" stroke="black" stroke-width="0.263066" stroke-linecap="round"/>
  <path d="M127.398 107.627L127.988 114.129" stroke="black" stroke-width="0.263066" stroke-linecap="round"/>
  <path d="M124.595 107.627L125.185 114.129" stroke="black" stroke-width="0.263066" stroke-linecap="round"/>
  <path d="M123.505 107.627L124.094 114.129" stroke="black" stroke-width="0.263066" stroke-linecap="round"/>
  <path d="M122.727 107.786L123.316 114.288" stroke="black" stroke-width="0.263066" stroke-linecap="round"/>
  <path d="M113.517 156.895H21.4277V32.765C21.4277 29.8558 23.7888 27.4988 26.698 27.5037L114.763 27.6534L113.517 156.895Z" fill="#FFF0B3"/>
  <path d="M66.4353 60.3205V26.8605H81.1524C81.8013 36.6923 83.2081 57.4344 83.6441 61.7478C84.0802 66.0611 81.386 66.5051 79.9843 66.188C78.1415 66.0294 73.4901 65.5854 69.6279 65.0779C66.8246 64.7096 66.4353 61.7478 66.4353 60.3205Z" fill="#FFFAE5"/>
  <line x1="1.11803" y1="-1.11803" x2="30.3275" y2="-1.11803" transform="matrix(0.0536273 0.998561 -0.998449 0.0556811 72.0415 26.8605)" stroke="white" stroke-width="2.23607" stroke-linecap="round"/>
  <circle cx="131.622" cy="42.6219" r="33.6219" fill="#DE350B"/>
  <path d="M119.707 23.1203L136.054 40.9241L131.412 45.5656L113.609 29.2186L119.707 23.1203Z" fill="white"/>
  <path d="M146.54 62.1496L130.193 44.3458L134.834 39.7043L152.638 56.0513L146.54 62.1496Z" fill="white"/>
  <path d="M152.638 29.2187L134.834 45.5656L130.193 40.9241L146.54 23.1204L152.638 29.2187Z" fill="white"/>
  <path d="M113.609 56.0513L131.412 39.7044L136.054 44.3459L119.707 62.1497L113.609 56.0513Z" fill="white"/>
</svg>
