<?xml version="1.0" encoding="UTF-8"?>
<svg width="24" height="24" viewBox="0 0 24 24" fill="none" xmlns="http://www.w3.org/2000/svg">
<rect width="24" height="24" fill="white" fill-opacity="0.01"/>
<path fill-rule="evenodd" clip-rule="evenodd" d="M16.436 15.0844L20.376 19.0944C20.5525 19.2852 20.6478 19.5372 20.6417 19.797C20.6356 20.0569 20.5286 20.3041 20.3433 20.4864C20.158 20.6686 19.9091 20.7716 19.6492 20.7735C19.3893 20.7754 19.1389 20.676 18.951 20.4964L15.013 16.4904C13.4935 17.6351 11.5959 18.1595 9.70428 17.9576C7.81266 17.7557 6.06845 16.8426 4.82482 15.403C3.58118 13.9634 2.93106 12.1051 3.00608 10.2042C3.08111 8.30333 3.87568 6.50199 5.22891 5.16493C6.58214 3.82787 8.3929 3.055 10.2945 3.00282C12.1962 2.95065 14.0466 3.62306 15.4711 4.8839C16.8956 6.14475 17.7878 7.89981 17.9669 9.79371C18.1461 11.6876 17.5988 13.5788 16.436 15.0844ZM10.5 15.9994C11.9587 15.9994 13.3576 15.42 14.3891 14.3885C15.4205 13.3571 16 11.9581 16 10.4994C16 9.04073 15.4205 7.64178 14.3891 6.61033C13.3576 5.57888 11.9587 4.99942 10.5 4.99942C9.04131 4.99942 7.64236 5.57888 6.61091 6.61033C5.57946 7.64178 5 9.04073 5 10.4994C5 11.9581 5.57946 13.3571 6.61091 14.3885C7.64236 15.42 9.04131 15.9994 10.5 15.9994Z" fill="#42526E"/>
</svg>
