<?xml version="1.0" encoding="UTF-8"?>
<svg width="20" height="20" viewBox="0 0 20 20" fill="none" xmlns="http://www.w3.org/2000/svg">
<path d="M4.68944 18.6276C4.23795 18.6276 3.85002 18.4654 3.52565 18.141C3.20126 17.8166 3.03906 17.4287 3.03906 16.9772V6.49714C3.03906 6.04242 3.20126 5.65171 3.52565 5.32502C3.85002 4.99834 4.23795 4.835 4.68944 4.835H6.67494V4.62666C6.69063 3.7124 7.01949 2.93945 7.66152 2.30781C8.30356 1.67617 9.0824 1.36035 9.99804 1.36035C10.9137 1.36035 11.6932 1.67617 12.3366 2.30781C12.9801 2.93945 13.3096 3.7124 13.3253 4.62666V4.835H15.3108C15.7655 4.835 16.1562 4.99834 16.4829 5.32502C16.8096 5.65171 16.973 6.04242 16.973 6.49714V16.9772C16.973 17.4287 16.8096 17.8166 16.4829 18.141C16.1562 18.4654 15.7655 18.6276 15.3108 18.6276H4.68944ZM4.68944 16.9772H15.3108V6.49714H13.3253V8.17196C13.3253 8.404 13.2454 8.59954 13.0857 8.75858C12.926 8.91762 12.7295 8.99714 12.4965 8.99714C12.2634 8.99714 12.0682 8.91762 11.9109 8.75858C11.7536 8.59954 11.6749 8.404 11.6749 8.17196V6.49714H8.32531V8.17196C8.32531 8.404 8.24544 8.59954 8.08571 8.75858C7.92596 8.91762 7.72955 8.99714 7.49648 8.99714C7.2634 8.99714 7.0682 8.91762 6.9109 8.75858C6.75359 8.59954 6.67494 8.404 6.67494 8.17196V6.49714H4.68944V16.9772ZM8.33708 4.835H11.6632V4.62666C11.6475 4.17739 11.4803 3.79771 11.1616 3.48762C10.8429 3.17754 10.4553 3.0225 9.99898 3.0225C9.54262 3.0225 9.15547 3.17754 8.83754 3.48762C8.51961 3.79771 8.35279 4.17739 8.33708 4.62666V4.835Z" fill="#2A55E5"/>
</svg>
