<?xml version="1.0" encoding="UTF-8"?>
<svg width="24" height="24" viewBox="0 0 24 24" fill="none" xmlns="http://www.w3.org/2000/svg">
  <path d="M5.41851 21.3533C4.97212 21.3533 4.56668 21.2203 4.20218 20.9544C3.83768 20.6884 3.59963 20.3417 3.48803 19.9141L0.695655 9.89349C0.610155 9.57538 0.665097 9.2857 0.86048 9.02447C1.05588 8.76323 1.32268 8.63262 1.66088 8.63262H6.59783L11.0533 2.05219C11.1649 1.90507 11.2982 1.78587 11.4532 1.69457C11.6082 1.60327 11.7814 1.55762 11.9728 1.55762C12.1641 1.55762 12.338 1.60327 12.4946 1.69457C12.6511 1.78587 12.7852 1.90507 12.8968 2.05219L17.3272 8.63262H22.3641C22.7023 8.63262 22.9691 8.76323 23.1645 9.02447C23.3599 9.2857 23.4149 9.57538 23.3294 9.89349L20.5402 19.9C20.4286 20.337 20.1929 20.6884 19.8332 20.9544C19.4734 21.2203 19.0703 21.3533 18.6239 21.3533H5.41851ZM5.39023 19.3728H18.6098L21.0641 10.6272H2.96088L5.39023 19.3728ZM12.0027 16.5848C12.4458 16.5848 12.8203 16.431 13.1261 16.1234C13.4319 15.8159 13.5848 15.4405 13.5848 14.9973C13.5848 14.5542 13.431 14.1797 13.1234 13.8739C12.8158 13.5681 12.4405 13.4152 11.9973 13.4152C11.5542 13.4152 11.1797 13.569 10.8739 13.8766C10.5681 14.1842 10.4152 14.5595 10.4152 15.0027C10.4152 15.4458 10.569 15.8203 10.8766 16.1261C11.1842 16.4319 11.5595 16.5848 12.0027 16.5848ZM8.95981 8.63262H14.9793L11.9609 4.26852L8.95981 8.63262Z" fill="#22A148"/>
</svg> 
