<?xml version="1.0" encoding="UTF-8"?>
<svg width="217" height="197" viewBox="0 0 217 197" fill="none" xmlns="http://www.w3.org/2000/svg">
<path d="M103.199 7.00732C58.1045 7.92899 53.798 45.2434 39.7075 63.137C35.5051 68.4695 -17.0186 103.941 5.65883 137.726C13.5693 149.524 23.119 152.104 28.3232 166.074C40.306 198.214 62.9834 212.118 112.359 173.974C119.853 168.181 129.038 162.756 137.131 158.148C150.271 150.682 168.109 145.245 174.263 129.418C198.371 67.403 142.205 6.23049 103.199 7.00732Z" fill="#FFFAE5"/>
<path d="M162.617 29.6276H139.391L136.619 188.364H167.683V37.0243C167.683 30.9512 164.305 29.5627 162.617 29.6276Z" fill="#FFE380"/>
<path d="M144.455 115.012C140.85 115.012 140.332 118.722 140.524 120.576L140.907 135.611C140.907 138.266 143.911 138.735 145.605 138.637C149.824 138.116 158.932 136.977 161.616 136.587C164.301 136.196 165.23 133.853 164.972 132.194C164.365 128.289 163.246 120.088 162.863 118.136C162.484 116.208 160.562 115.012 158.836 115.012H144.455Z" fill="white"/>
<path d="M159.089 118.917L159.472 123.993M143.27 119.698L143.749 125.36M144.804 118.429V120.869M145.379 122.919V123.993M147.488 123.798V124.872M147.296 121.553V122.724M147.68 119.405V120.576M149.214 121.162V122.334M150.652 122.431V123.603M152.282 123.603V124.872M151.131 117.648V118.917M153.336 117.257V118.526M152.186 119.6V120.869M153.528 120.869V122.041M155.637 119.893V121.162M156.884 121.162V122.334M155.446 122.334V123.603M157.076 123.31V124.579M157.363 120.283V118.917" stroke="black" stroke-width="0.971702"/>
<path d="M143.174 128.094L144.133 136.294" stroke="black" stroke-width="0.809752" stroke-linecap="round"/>
<path d="M149.494 127.848L150.091 135.615" stroke="black" stroke-width="0.809752" stroke-linecap="round"/>
<path d="M153.734 127.028L154.58 135.307" stroke="black" stroke-width="0.809752" stroke-linecap="round"/>
<path d="M159.682 126.794L160.431 134.537" stroke="black" stroke-width="0.809752" stroke-linecap="round"/>
<path d="M161.385 126.922L161.674 134.609" stroke="black" stroke-width="0.323901" stroke-linecap="round"/>
<path d="M162.198 126.727L162.828 134.393" stroke="black" stroke-width="0.323901" stroke-linecap="round"/>
<path d="M157.596 126.727L158.322 134.732" stroke="black" stroke-width="0.323901" stroke-linecap="round"/>
<path d="M156.456 126.727L157.182 134.732" stroke="black" stroke-width="0.323901" stroke-linecap="round"/>
<path d="M155.306 126.922L156.031 134.927" stroke="black" stroke-width="0.323901" stroke-linecap="round"/>
<path d="M151.662 127.508L152.388 135.513" stroke="black" stroke-width="0.323901" stroke-linecap="round"/>
<path d="M150.703 127.703L151.429 135.708" stroke="black" stroke-width="0.323901" stroke-linecap="round"/>
<path d="M147.252 127.703L147.978 135.708" stroke="black" stroke-width="0.323901" stroke-linecap="round"/>
<path d="M145.909 127.703L146.635 135.708" stroke="black" stroke-width="0.323901" stroke-linecap="round"/>
<path d="M144.951 127.898L145.677 135.903" stroke="black" stroke-width="0.323901" stroke-linecap="round"/>
<path d="M138.536 188.364H20.2266V35.5283C20.2266 31.9464 23.1333 29.0444 26.7151 29.0503L140.07 29.235L138.536 188.364Z" fill="#FFF0B3"/>
<path d="M75.6426 69.4564V28.2587H93.763C94.5619 40.3642 96.2941 65.9029 96.831 71.2137C97.3679 76.5245 94.0506 77.0712 92.3248 76.6807C90.0558 76.4854 84.3289 75.9387 79.5735 75.3139C76.122 74.8605 75.6426 71.2137 75.6426 69.4564Z" fill="#FFFAE5"/>
<line x1="1.37658" y1="-1.37658" x2="37.3407" y2="-1.37658" transform="matrix(0.0536273 0.998561 -0.998449 0.0556811 82.5449 28.2587)" stroke="white" stroke-width="2.75316" stroke-linecap="round"/>
<circle cx="169" cy="48" r="48" fill="#DE350B"/>
<path d="M177.5 13.7973L175.43 61.6985H162.239L160.169 13.7973H177.5ZM159.735 76.6225C159.735 74.3116 160.57 72.386 162.239 70.8454C163.908 69.2728 166.074 68.4865 168.738 68.4865C171.402 68.4865 173.552 69.2728 175.189 70.8454C176.858 72.386 177.692 74.3116 177.692 76.6225C177.692 78.9333 176.858 80.875 175.189 82.4476C173.552 83.9882 171.402 84.7584 168.738 84.7584C166.074 84.7584 163.908 83.9882 162.239 82.4476C160.57 80.875 159.735 78.9333 159.735 76.6225Z" fill="white"/>
</svg>
