<?xml version="1.0" encoding="UTF-8"?>
<svg xmlns="http://www.w3.org/2000/svg" width="20" height="20" viewBox="0 0 20 20" fill="none">
  <path d="M7.87506 12.7772L15.2845 5.37955C15.4507 5.2153 15.6476 5.13318 15.8752 5.13318C16.1028 5.13318 16.2987 5.21567 16.4629 5.38066C16.6272 5.54564 16.7093 5.74323 16.7093 5.97341C16.7093 6.2036 16.6272 6.40239 16.4629 6.56978L8.46564 14.5671C8.29853 14.7313 8.10095 14.8134 7.87291 14.8134C7.64487 14.8134 7.44872 14.7313 7.28447 14.5671L3.51635 10.7989C3.3521 10.6306 3.27148 10.4312 3.2745 10.2008C3.27752 9.97032 3.36153 9.77297 3.52652 9.60872C3.6915 9.44447 3.88909 9.36235 4.11927 9.36235C4.34946 9.36235 4.54825 9.44447 4.71564 9.60872L7.87506 12.7772Z" fill="white"/>
</svg> 
