<?xml version="1.0" encoding="UTF-8"?>
<svg xmlns="http://www.w3.org/2000/svg" width="20" height="20" viewBox="0 0 20 20" fill="none">
  <path d="M2.01088 17.6531C1.84282 17.6531 1.69751 17.6135 1.57494 17.5342C1.45236 17.455 1.35823 17.3551 1.29257 17.2347C1.219 17.1194 1.17932 16.9884 1.17352 16.8416C1.16775 16.6948 1.20743 16.5468 1.29257 16.3977L9.28169 2.60422C9.36684 2.4617 9.47262 2.35829 9.59902 2.29399C9.72544 2.22967 9.8595 2.19751 10.0012 2.19751C10.1429 2.19751 10.2766 2.22967 10.4022 2.29399C10.5278 2.35829 10.6332 2.4617 10.7183 2.60422L18.7074 16.3977C18.7926 16.5468 18.8323 16.6948 18.8265 16.8416C18.8207 16.9884 18.781 17.1194 18.7074 17.2347C18.6404 17.352 18.5459 17.451 18.424 17.5319C18.3021 17.6127 18.1572 17.6531 17.9891 17.6531H2.01088ZM3.22375 16.1205H16.7763L10 4.41401L3.22375 16.1205ZM10.087 15.039C10.2696 15.039 10.4267 14.972 10.5582 14.8381C10.6897 14.7042 10.7554 14.5459 10.7554 14.3632C10.7554 14.1806 10.6885 14.0255 10.5545 13.8979C10.4206 13.7704 10.2623 13.7066 10.0797 13.7066C9.89705 13.7066 9.73998 13.7716 9.60848 13.9016C9.47698 14.0316 9.41123 14.1879 9.41123 14.3706C9.41123 14.5532 9.4782 14.7103 9.61213 14.8418C9.74607 14.9733 9.90436 15.039 10.087 15.039ZM10.087 12.7501C10.2651 12.7501 10.4132 12.6902 10.5313 12.5704C10.6493 12.4506 10.7083 12.3021 10.7083 12.1251V8.80259C10.7083 8.62551 10.6481 8.47707 10.5276 8.35728C10.4071 8.23749 10.2578 8.17759 10.0797 8.17759C9.90157 8.17759 9.75348 8.23749 9.63542 8.35728C9.51737 8.47707 9.45834 8.62551 9.45834 8.80259V12.1251C9.45834 12.3021 9.51858 12.4506 9.63907 12.5704C9.75957 12.6902 9.90887 12.7501 10.087 12.7501Z" fill="#FBB129"/>
</svg> 
