<?xml version="1.0" encoding="UTF-8"?>
<svg width="94" height="94" viewBox="0 0 94 94" fill="none" xmlns="http://www.w3.org/2000/svg">
<path d="M82.9338 37.7525C81.5486 36.3082 80.1164 34.815 79.5753 33.5066C79.078 32.3046 79.0479 30.3138 79.0188 28.3882C78.9647 24.8049 78.9034 20.7436 76.0799 17.9201C73.2564 15.0966 69.1951 15.0353 65.6118 14.9812C63.6862 14.9521 61.6954 14.922 60.4934 14.4247C59.1853 13.8836 57.6918 12.4514 56.2475 11.0662C53.7105 8.63285 50.8343 5.875 47 5.875C43.1657 5.875 40.2899 8.63285 37.7525 11.0662C36.3082 12.4514 34.815 13.8836 33.5066 14.4247C32.3046 14.922 30.3138 14.9521 28.3882 14.9812C24.8049 15.0353 20.7436 15.0966 17.9201 17.9201C15.0966 20.7436 15.0353 24.8049 14.9812 28.3882C14.9521 30.3138 14.922 32.3046 14.4247 33.5066C13.8836 34.8147 12.4514 36.3082 11.0662 37.7525C8.63285 40.2895 5.875 43.1657 5.875 47C5.875 50.8343 8.63285 53.7101 11.0662 56.2475C12.4514 57.6918 13.8836 59.185 14.4247 60.4934C14.922 61.6954 14.9521 63.6862 14.9812 65.6118C15.0353 69.1951 15.0966 73.2564 17.9201 76.0799C20.7436 78.9034 24.8049 78.9647 28.3882 79.0188C30.3138 79.0479 32.3046 79.078 33.5066 79.5753C34.8147 80.1164 36.3082 81.5486 37.7525 82.9338C40.2895 85.3671 43.1657 88.125 47 88.125C50.8343 88.125 53.7101 85.3671 56.2475 82.9338C57.6918 81.5486 59.185 80.1164 60.4934 79.5753C61.6954 79.078 63.6862 79.0479 65.6118 79.0188C69.1951 78.9647 73.2564 78.9034 76.0799 76.0799C78.9034 73.2564 78.9647 69.1951 79.0188 65.6118C79.0479 63.6862 79.078 61.6954 79.5753 60.4934C80.1164 59.1853 81.5486 57.6918 82.9338 56.2475C85.3671 53.7105 88.125 50.8343 88.125 47C88.125 43.1657 85.3671 40.2899 82.9338 37.7525ZM65.1844 40.3125L43.6426 60.875C43.0962 61.3965 42.3698 61.6875 41.6145 61.6875C40.8591 61.6875 40.1327 61.3965 39.5863 60.875L28.8156 50.5937C28.5364 50.3274 28.3124 50.0087 28.1564 49.6558C28.0003 49.3029 27.9154 48.9227 27.9063 48.537C27.8972 48.1513 27.9643 47.7675 28.1035 47.4077C28.2428 47.0479 28.4516 46.719 28.718 46.4399C28.9844 46.1608 29.3032 45.9369 29.6562 45.781C30.0091 45.6251 30.3893 45.5402 30.7751 45.5313C31.1608 45.5224 31.5445 45.5896 31.9043 45.729C32.2641 45.8684 32.5929 46.0773 32.8719 46.3438L41.6145 54.6891L61.1281 36.0625C61.4071 35.796 61.7359 35.5871 62.0957 35.4477C62.4555 35.3083 62.8392 35.2411 63.2249 35.2501C63.6107 35.259 63.9909 35.3438 64.3438 35.4997C64.6968 35.6556 65.0156 35.8795 65.282 36.1586C65.5484 36.4377 65.7572 36.7666 65.8965 37.1264C66.0357 37.4863 66.1027 37.87 66.0937 38.2558C66.0846 38.6415 65.9997 39.0217 65.8436 39.3746C65.6876 39.7275 65.4636 40.0462 65.1844 40.3125Z" fill="#00875A"/>
</svg>
