<?xml version="1.0" encoding="UTF-8"?>
<svg width="160" height="160" viewBox="0 0 160 160" fill="none" xmlns="http://www.w3.org/2000/svg">
<path d="M83.7483 30.0309H76.2518C69.0106 30.0309 63.1404 36.1091 63.1404 43.607V78.3864H53.4529V43.607C53.4529 30.5692 63.6603 20 76.2518 20H83.7483C96.3398 20 106.547 30.5692 106.547 43.607V78.3864H96.8597V43.607C96.8597 36.1091 90.9895 30.0309 83.7483 30.0309Z" fill="#1C41D6"/>
<path d="M40.0054 100.027C40.0054 77.9499 57.9233 60.0532 80.0001 60.0532C102.077 60.0532 119.995 77.9499 119.995 100.027C119.995 122.103 102.077 140 80.0001 140C57.9233 140 40.0054 122.103 40.0054 100.027Z" fill="#5482FF"/>
<path d="M93.1067 75C94.1422 75 94.9817 75.8395 94.9817 76.875L94.9817 83.125C94.9817 84.1605 94.1422 85 93.1067 85L66.8933 85C65.8578 85 65.0183 84.1605 65.0183 83.125L65.0183 76.875C65.0183 75.8395 65.8578 75 66.8933 75L93.1067 75Z" fill="#F9CBCE"/>
<circle cx="80.0001" cy="105.771" r="5.74425" fill="#F0F5FF"/>
<path d="M77.1875 109.915H82.8125L84.0625 124.766H75.9375L77.1875 109.915Z" fill="#F0F5FF"/>
</svg>
