<?xml version="1.0" encoding="UTF-8"?>
<svg width="14" height="14" viewBox="0 0 14 14" fill="none" xmlns="http://www.w3.org/2000/svg">
<path fill-rule="evenodd" clip-rule="evenodd" d="M0.583984 7.00065C0.583984 10.5445 3.45682 13.4173 7.00065 13.4173C10.5445 13.4173 13.4173 10.5445 13.4173 7.00065C13.4173 3.45682 10.5445 0.583984 7.00065 0.583984C3.45682 0.583984 0.583984 3.45682 0.583984 7.00065ZM12.2507 7.00065C12.2507 9.90015 9.90015 12.2507 7.00065 12.2507C4.10116 12.2507 1.75065 9.90015 1.75065 7.00065C1.75065 4.10116 4.10116 1.75065 7.00065 1.75065C9.90015 1.75065 12.2507 4.10116 12.2507 7.00065ZM6.41732 4.66732V7.00065C6.41732 7.32282 6.67848 7.58398 7.00065 7.58398C7.32282 7.58398 7.58398 7.32282 7.58398 7.00065V4.66732C7.58398 4.34515 7.32282 4.08398 7.00065 4.08398C6.67848 4.08398 6.41732 4.34515 6.41732 4.66732ZM7.41313 8.33817C7.64094 8.56598 7.64094 8.93532 7.41313 9.16313C7.18532 9.39094 6.81598 9.39094 6.58817 9.16313C6.36037 8.93532 6.36037 8.56598 6.58817 8.33817C6.81598 8.11037 7.18532 8.11037 7.41313 8.33817Z" fill="black"/>
<mask id="mask0_8121_9136" style="mask-type:alpha" maskUnits="userSpaceOnUse" x="0" y="0" width="14" height="14">
<path fill-rule="evenodd" clip-rule="evenodd" d="M0.583984 7.00065C0.583984 10.5445 3.45682 13.4173 7.00065 13.4173C10.5445 13.4173 13.4173 10.5445 13.4173 7.00065C13.4173 3.45682 10.5445 0.583984 7.00065 0.583984C3.45682 0.583984 0.583984 3.45682 0.583984 7.00065ZM12.2507 7.00065C12.2507 9.90015 9.90015 12.2507 7.00065 12.2507C4.10116 12.2507 1.75065 9.90015 1.75065 7.00065C1.75065 4.10116 4.10116 1.75065 7.00065 1.75065C9.90015 1.75065 12.2507 4.10116 12.2507 7.00065ZM6.41732 4.66732V7.00065C6.41732 7.32282 6.67848 7.58398 7.00065 7.58398C7.32282 7.58398 7.58398 7.32282 7.58398 7.00065V4.66732C7.58398 4.34515 7.32282 4.08398 7.00065 4.08398C6.67848 4.08398 6.41732 4.34515 6.41732 4.66732ZM7.41313 8.33817C7.64094 8.56598 7.64094 8.93532 7.41313 9.16313C7.18532 9.39094 6.81598 9.39094 6.58817 9.16313C6.36037 8.93532 6.36037 8.56598 6.58817 8.33817C6.81598 8.11037 7.18532 8.11037 7.41313 8.33817Z" fill="white"/>
</mask>
<g mask="url(#mask0_8121_9136)">
<rect width="14" height="14" fill="#C0732D"/>
</g>
</svg>
