<?xml version="1.0" encoding="UTF-8"?>
<svg width="24" height="24" viewBox="0 0 24 24" fill="none" xmlns="http://www.w3.org/2000/svg">
  <path d="M11.4756 14.8146L7.28096 10.645C7.22989 10.5939 7.1895 10.5389 7.15978 10.48C7.13008 10.4211 7.11523 10.3594 7.11523 10.2947C7.11523 10.1518 7.16221 10.031 7.25616 9.93249C7.35011 9.83394 7.47053 9.78467 7.61741 9.78467H16.3827C16.5295 9.78467 16.65 9.83508 16.7439 9.93589C16.8379 10.0367 16.8848 10.1575 16.8848 10.2982C16.8848 10.3334 16.829 10.4495 16.7174 10.6466L12.5244 14.8147C12.4574 14.8816 12.3779 14.9341 12.2858 14.9722C12.1937 15.0102 12.098 15.0292 11.9988 15.0292C11.8995 15.0292 11.8043 15.0102 11.713 14.9722C11.6217 14.9341 11.5426 14.8816 11.4756 14.8146Z" fill="#212121"/>
</svg> 
