<?xml version="1.0" encoding="UTF-8"?>
<svg width="24" height="24" viewBox="0 0 24 24" fill="none" xmlns="http://www.w3.org/2000/svg">
<rect width="24" height="24" fill="white" fill-opacity="0.01"/>
<path fill-rule="evenodd" clip-rule="evenodd" d="M8.41403 11.5H18C18.2652 11.5 18.5196 11.6054 18.7071 11.7929C18.8947 11.9804 19 12.2348 19 12.5C19 12.7652 18.8947 13.0196 18.7071 13.2071C18.5196 13.3947 18.2652 13.5 18 13.5H8.41403L12.207 17.293C12.3892 17.4816 12.49 17.7342 12.4877 17.9964C12.4854 18.2586 12.3803 18.5094 12.1948 18.6948C12.0094 18.8802 11.7586 18.9854 11.4964 18.9877C11.2342 18.99 10.9816 18.8892 10.793 18.707L5.29303 13.207C5.10556 13.0195 5.00024 12.7652 5.00024 12.5C5.00024 12.2348 5.10556 11.9805 5.29303 11.793L10.793 6.29301C10.9816 6.11085 11.2342 6.01006 11.4964 6.01234C11.7586 6.01461 12.0094 6.11978 12.1948 6.30519C12.3803 6.4906 12.4854 6.74141 12.4877 7.00361C12.49 7.26581 12.3892 7.51841 12.207 7.70701L8.41403 11.5Z" fill="white"/>
</svg>
