<?xml version="1.0" encoding="UTF-8"?>
<svg width="36" height="36" viewBox="0 0 36 36" fill="none" xmlns="http://www.w3.org/2000/svg">
<rect width="36" height="36" transform="translate(36 36) rotate(-180)" fill="white" fill-opacity="0.01"/>
<path fill-rule="evenodd" clip-rule="evenodd" d="M23.3788 18.7499H8.99983C8.60201 18.7499 8.22048 18.5918 7.93917 18.3105C7.65787 18.0292 7.49983 17.6477 7.49983 17.2499C7.49983 16.8521 7.65787 16.4705 7.93917 16.1892C8.22048 15.9079 8.60201 15.7499 8.99983 15.7499L23.3788 15.7499L17.6893 10.0604C17.4161 9.77748 17.2649 9.39857 17.2683 9.00528C17.2717 8.61198 17.4295 8.23576 17.7076 7.95765C17.9857 7.67954 18.3619 7.52178 18.7552 7.51837C19.1485 7.51495 19.5274 7.66614 19.8103 7.93938L28.0603 16.1894C28.3415 16.4707 28.4995 16.8521 28.4995 17.2499C28.4995 17.6476 28.3415 18.0291 28.0603 18.3104L19.8103 26.5604C19.5274 26.8336 19.1485 26.9848 18.7552 26.9814C18.3619 26.978 17.9857 26.8202 17.7076 26.5421C17.4295 26.264 17.2717 25.8878 17.2683 25.4945C17.2649 25.1012 17.4161 24.7223 17.6893 24.4394L23.3788 18.7499Z" fill="#42526E"/>
</svg>
