<?xml version="1.0" encoding="UTF-8"?>
<svg width="40" height="40" viewBox="0 0 40 40" fill="none" xmlns="http://www.w3.org/2000/svg">
<rect width="40" height="40" fill="white" fill-opacity="0.01"/>
<path fill-rule="evenodd" clip-rule="evenodd" d="M36.6667 20C36.6667 29.2048 29.2048 36.6667 20 36.6667C10.7953 36.6667 3.33334 29.2048 3.33334 20C3.33334 10.7953 10.7953 3.33337 20 3.33337C29.2048 3.33337 36.6667 10.7953 36.6667 20ZM25 15C25 17.7615 22.7614 20 20 20C17.2386 20 15 17.7615 15 15C15 12.2386 17.2386 10 20 10C22.7614 10 25 12.2386 25 15ZM20 33.3334C16.9698 33.3379 14.0293 32.3058 11.6667 30.4084V25C11.6667 23.1584 13.145 21.6667 15 21.6667H25C26.8417 21.6667 28.3333 23.1417 28.3333 25V30.4084C26.05 32.2384 23.1533 33.3334 20 33.3334Z" fill="white"/>
</svg>
