<?xml version="1.0" encoding="UTF-8"?>
<svg width="328" height="80" viewBox="0 0 328 80" fill="none" xmlns="http://www.w3.org/2000/svg">
<rect width="328" height="80" rx="8" fill="#FEF7E9"/>
<rect x="77" y="12" width="68" height="57" rx="4" fill="#FDDFA9"/>
<rect x="96" y="22" width="30" height="20" rx="2" fill="#F9A825"/>
<path d="M104.474 36.3203H103.766V35.376H104.474V36.3203ZM107.2 36.3203H106.492V35.376H107.2V36.3203ZM109.321 36.3203H108.613V35.376H109.321V36.3203ZM111.442 36.3203H110.734V35.376H111.442V36.3203ZM113.571 36.3203H112.863V35.376H113.571V36.3203ZM115.692 36.3203H114.984V35.376H115.692V36.3203ZM117.821 36.3203H117.113V35.376H117.821V36.3203ZM119.942 36.3203H119.234V35.376H119.942V36.3203ZM103.717 34.3154H102.715V35.71H100V27H103.717V34.3154ZM121.946 35.71H121.189V27H121.946V35.71ZM107.61 34.3154H104.962V27H107.61V34.3154ZM110.255 34.3154H109.498V27H110.255V34.3154ZM111.729 34.3154H110.973V27H111.729V34.3154ZM113.622 34.3154H112.865V27H113.622V34.3154ZM116.648 34.3154H115.892V27H116.648V34.3154ZM118.541 34.3154H117.784V27H118.541V34.3154ZM120.054 34.3154H119.298V27H120.054V34.3154Z" fill="white"/>
<path opacity="0.1" d="M205.126 39.0192L201.624 25.4474L127.5 20H94.333C93.5969 20 93.0003 20.5967 93.0002 21.3327L93 42.6672C93 43.4033 93.5967 44 94.3328 44H127.5L205.126 39.0192Z" fill="#DF4535"/>
<path d="M225.465 39.3226C225.516 39.1638 225.398 39.0011 225.231 39.0011H220.588C220.481 39.0011 220.387 39.0698 220.354 39.1713L217.668 47.4782C217.617 47.637 217.735 47.7997 217.902 47.7997H222.545C222.652 47.7997 222.746 47.7309 222.779 47.6295L225.465 39.3226Z" fill="#112AB8"/>
<path d="M230.673 38.4398H219.799L224.194 59.0788C224.454 60.2991 225.532 61.1715 226.779 61.1715H232.249C233.93 61.1715 235.184 59.6222 234.834 57.9776L230.673 38.4398Z" fill="#1C41D6"/>
<path d="M238.321 31.8448C238.321 27.3887 234.708 23.7764 230.252 23.7764H199.884C199.485 23.7764 199.192 24.1495 199.286 24.5365L202.916 39.4438C202.983 39.7193 203.23 39.9131 203.513 39.9131H230.252C234.708 39.9131 238.321 36.3008 238.321 31.8448Z" fill="#ABC8FF"/>
<path d="M234.813 31.8448C234.813 29.3261 232.771 27.2844 230.252 27.2844H212.725C212.326 27.2844 212.033 27.6586 212.128 28.046L214.071 35.9374C214.138 36.2121 214.385 36.4051 214.668 36.4051H230.252C232.771 36.4051 234.813 34.3634 234.813 31.8448Z" fill="#5482FF"/>
<path d="M207.31 23.7764H199.884C199.485 23.7764 199.192 24.1495 199.286 24.5365L202.916 39.4438C202.983 39.7193 203.23 39.9131 203.513 39.9131H211.239L207.31 23.7764Z" fill="#1C41D6"/>
</svg>
