<?xml version="1.0" encoding="UTF-8"?><svg width="113px" height="80px" viewBox="0 0 113 80" version="1.1" xmlns="http://www.w3.org/2000/svg" xmlns:xlink="http://www.w3.org/1999/xlink"> <title>Group 4</title> <desc>Created with Sketch.</desc> <defs> <path d="M88,37.892554 L88,40.3356189 C88,42.3595455 86.3584028,44.0002163 84.3333333,44.0002163 L83.1111111,44.0002163 L79.121625,71.9104006 C78.6055417,75.5210978 75.5114861,78.203125 71.8620833,78.203125 L16.1379167,78.203125 C12.4885139,78.203125 9.39445833,75.5210978 8.87822222,71.9104006 L4.88888889,44.0002163 L3.66666667,44.0002163 C1.64159722,44.0002163 0,42.3595455 0,40.3356189 L0,37.892554 C0,35.8686275 1.64159722,34.2279567 3.66666667,34.2279567 L13.954875,34.2279567 L30.2684861,11.8096296 C31.8566111,9.6273619 34.914,9.14470389 37.0978056,10.7319326 C39.2814583,12.3191614 39.7642361,15.3749775 38.1761111,17.5573979 L26.0450972,34.2279567 L61.9549028,34.2279567 L49.8238889,17.5572452 C48.2357639,15.3749775 48.7186944,12.3190087 50.9023472,10.7317799 C53.0856944,9.1445512 56.1435417,9.62705652 57.7316667,11.8094769 L74.045125,34.2279567 L84.3333333,34.2279567 C86.3584028,34.2279567 88,35.8686275 88,37.892554 Z M47.6666667,64.766268 L47.6666667,47.6648137 C47.6666667,45.6408871 46.0250694,44.0002163 44,44.0002163 C41.9749306,44.0002163 40.3333333,45.6408871 40.3333333,47.6648137 L40.3333333,64.766268 C40.3333333,66.7901946 41.9749306,68.4308654 44,68.4308654 C46.0250694,68.4308654 47.6666667,66.7901946 47.6666667,64.766268 Z M64.7777778,64.766268 L64.7777778,47.6648137 C64.7777778,45.6408871 63.1361806,44.0002163 61.1111111,44.0002163 C59.0860417,44.0002163 57.4444444,45.6408871 57.4444444,47.6648137 L57.4444444,64.766268 C57.4444444,66.7901946 59.0860417,68.4308654 61.1111111,68.4308654 C63.1361806,68.4308654 64.7777778,66.7901946 64.7777778,64.766268 Z M30.5555556,64.766268 L30.5555556,47.6648137 C30.5555556,45.6408871 28.9139583,44.0002163 26.8888889,44.0002163 C24.8638194,44.0002163 23.2222222,45.6408871 23.2222222,47.6648137 L23.2222222,64.766268 C23.2222222,66.7901946 24.8638194,68.4308654 26.8888889,68.4308654 C28.9139583,68.4308654 30.5555556,66.7901946 30.5555556,64.766268 Z" id="path-1"></path> <linearGradient x1="0%" y1="0%" x2="100%" y2="100%" id="linearGradient-3"> <stop stop-color="#FFD3A5" offset="0%"></stop> <stop stop-color="#FD6585" offset="100%"></stop> </linearGradient> <path d="M35,8.75 C49.4974747,8.75 61.25,20.5025253 61.25,35 C61.25,49.4974747 49.4974747,61.25 35,61.25 C20.5025253,61.25 8.75,49.4974747 8.75,35 C8.75,20.5025253 20.5025253,8.75 35,8.75 Z M41.6876052,27.1042719 L32.0833333,36.7085438 L28.3123948,32.9376052 C27.1733656,31.798576 25.3266344,31.798576 24.1876052,32.9376052 C23.048576,34.0766344 23.048576,35.9233656 24.1876052,37.0623948 L30.0209386,42.8957281 C31.1599677,44.0347573 33.0066989,44.0347573 34.1457281,42.8957281 L45.8123948,31.2290614 C46.951424,30.0900323 46.951424,28.2433011 45.8123948,27.1042719 C44.6733656,25.9652427 42.8266344,25.9652427 41.6876052,27.1042719 Z" id="path-4"></path> </defs> <g id="Page-1" stroke="none" stroke-width="1" fill="none" fill-rule="evenodd"> <g id="rc_3" transform="translate(-114.000000, -178.000000)"> <g id="Group-4" transform="translate(118.000000, 170.000000)"> <g id="Solid/shopping-basket"> <mask id="mask-2" fill="white"> <use xlink:href="#path-1"></use> </mask> <use id="Mask" fill="#000000" fill-rule="nonzero" xlink:href="#path-1"></use> <g id="Gradient/2" mask="url(#mask-2)" fill="url(#linearGradient-3)" fill-rule="evenodd"> <rect id="2" x="0" y="0" width="88" height="88"></rect> </g> </g> <g id="standard/action/check-circle" transform="translate(47.000000, 26.000000)"> <mask id="mask-5" fill="white"> <use xlink:href="#path-4"></use> </mask> <use id="Combined-Shape" fill="#42526E" fill-rule="evenodd" xlink:href="#path-4"></use> <g id="Neutral-/-N000" mask="url(#mask-5)" fill="#FFFFFF" fill-rule="evenodd"> <polygon id="N0" points="0 70 70 70 70 0 0 0"></polygon> </g> </g> </g> </g> </g></svg>
