<?xml version="1.0" encoding="UTF-8"?>
<svg width="20" height="20" viewBox="0 0 20 20" fill="none" xmlns="http://www.w3.org/2000/svg">
  <path d="M2.1975 17.5861C1.96546 17.5861 1.76992 17.5062 1.61088 17.3465C1.45184 17.1867 1.37231 16.9903 1.37231 16.7572C1.37231 16.5242 1.45184 16.329 1.61088 16.1717C1.76992 16.0144 1.96546 15.9357 2.1975 15.9357H17.8026C18.0336 15.9357 18.2309 16.0156 18.3944 16.1753C18.5578 16.3351 18.6395 16.5315 18.6395 16.7645C18.6395 16.9976 18.5578 17.1928 18.3944 17.3501C18.2309 17.5074 18.0336 17.5861 17.8026 17.5861H2.1975ZM3.4409 14.5091C3.09411 14.5091 2.80153 14.3883 2.56317 14.1468C2.32482 13.9054 2.20565 13.6122 2.20565 13.2672V10.1141C2.20565 9.7659 2.32622 9.4699 2.56736 9.22614C2.8085 8.98239 3.10131 8.86051 3.44579 8.86051C3.79028 8.86051 4.08366 8.98239 4.32594 9.22614C4.56822 9.4699 4.68936 9.7659 4.68936 10.1141V13.2672C4.68936 13.6122 4.56798 13.9054 4.32523 14.1468C4.08247 14.3883 3.78769 14.5091 3.4409 14.5091ZM7.79561 14.5091C7.44995 14.5091 7.15697 14.3883 6.91667 14.1468C6.67635 13.9054 6.55619 13.6122 6.55619 13.2672V5.94747C6.55619 5.59924 6.67716 5.30324 6.91911 5.05947C7.16106 4.81572 7.45486 4.69385 7.8005 4.69385C8.14614 4.69385 8.43912 4.81572 8.67944 5.05947C8.91975 5.30324 9.0399 5.59924 9.0399 5.94747V13.2672C9.0399 13.6122 8.91893 13.9054 8.67698 14.1468C8.43504 14.3883 8.14124 14.5091 7.79561 14.5091ZM12.167 14.5091C11.8213 14.5091 11.5284 14.3883 11.288 14.1468C11.0477 13.9054 10.9276 13.6122 10.9276 13.2672V8.44747C10.9276 8.09924 11.0489 7.80324 11.2917 7.55947C11.5345 7.31572 11.8292 7.19385 12.176 7.19385C12.5228 7.19385 12.8174 7.31572 13.0596 7.55947C13.3019 7.80324 13.4231 8.09924 13.4231 8.44747V13.2672C13.4231 13.6122 13.3009 13.9054 13.0567 14.1468C12.8125 14.3883 12.5159 14.5091 12.167 14.5091ZM16.5501 14.5091C16.2045 14.5091 15.9115 14.3883 15.6712 14.1468C15.4309 13.9054 15.3107 13.6122 15.3107 13.2672V3.44747C15.3107 3.09924 15.4321 2.80324 15.6749 2.55947C15.9176 2.31572 16.2124 2.19385 16.5592 2.19385C16.906 2.19385 17.2005 2.31572 17.4428 2.55947C17.6851 2.80324 17.8062 3.09924 17.8062 3.44747V13.2672C17.8062 13.6122 17.6841 13.9054 17.4399 14.1468C17.1956 14.3883 16.899 14.5091 16.5501 14.5091Z" fill="#5482FF"/>
</svg> 
