<?xml version="1.0" encoding="UTF-8"?>
<svg width="422" height="349" viewBox="0 0 422 349" fill="none" xmlns="http://www.w3.org/2000/svg">
<path d="M46.827 95.43C52.8825 121.416 30.4887 137.231 19.7757 150.41C12.9922 159.108 -3.50317 173.334 0.666195 225.626C2.67303 250.795 15.6535 286.653 44.1343 294.905C60.0052 305.112 202.409 289.259 277.198 298.163C356.426 307.595 372.931 297.513 411.647 268.226C427.654 256.116 421.698 222.475 414.128 200.199C405.814 178.633 400.479 143.621 415.865 99.4238C432.551 51.4947 408.379 32.9504 396.384 24.741C381.535 15.5998 350.719 6.23674 313.865 23.2767C266.356 45.243 245.492 36.8553 228.616 34.4591C211.74 32.0629 154.163 12.6267 104.032 1.57736C63.9263 -7.2621 40.1263 23.2767 36.7759 37.9203C33.4255 62.1489 40.7715 69.4441 46.827 95.43Z" fill="#FFEBE5"/>
<path d="M124.815 323.812L122.53 323.806L122.694 322.886L124.844 322.892C125.212 322.892 125.548 322.829 125.852 322.704C126.161 322.579 126.415 322.392 126.614 322.142C126.817 321.892 126.942 321.573 126.989 321.187C127.032 320.855 126.999 320.569 126.889 320.331C126.784 320.089 126.616 319.901 126.385 319.769C126.155 319.636 125.876 319.564 125.548 319.552L123.532 319.546L122.214 327.151H121.106L122.589 318.62L125.577 318.626C126.085 318.638 126.536 318.745 126.93 318.948C127.329 319.147 127.633 319.435 127.844 319.81C128.055 320.185 128.137 320.64 128.09 321.175C128.04 321.776 127.86 322.272 127.551 322.663C127.247 323.054 126.854 323.343 126.374 323.53C125.897 323.718 125.378 323.812 124.815 323.812ZM131.008 318.151L129.444 327.151H128.383L129.942 318.151H131.008ZM134.964 326.067L135.491 322.792C135.518 322.55 135.495 322.337 135.421 322.153C135.35 321.97 135.231 321.827 135.063 321.726C134.899 321.624 134.692 321.569 134.442 321.562C134.223 321.558 134.008 321.593 133.798 321.667C133.59 321.741 133.411 321.853 133.258 322.001C133.106 322.149 133.006 322.337 132.96 322.564L131.905 322.569C131.932 322.253 132.032 321.978 132.204 321.743C132.376 321.505 132.59 321.308 132.848 321.151C133.106 320.991 133.383 320.874 133.68 320.8C133.977 320.722 134.266 320.685 134.548 320.689C134.973 320.696 135.342 320.788 135.655 320.964C135.971 321.136 136.21 321.378 136.37 321.69C136.53 322.003 136.589 322.378 136.546 322.815L136.059 325.769C136.024 325.983 136.003 326.2 135.995 326.419C135.991 326.634 136.016 326.845 136.071 327.052L136.059 327.151L134.987 327.157C134.944 326.978 134.923 326.796 134.923 326.612C134.926 326.429 134.94 326.247 134.964 326.067ZM135.614 323.308L135.491 324.069L134.489 324.064C134.278 324.064 134.055 324.079 133.821 324.11C133.587 324.142 133.364 324.2 133.153 324.286C132.942 324.372 132.764 324.497 132.62 324.661C132.475 324.821 132.387 325.03 132.356 325.288C132.333 325.499 132.358 325.683 132.432 325.839C132.51 325.991 132.628 326.11 132.784 326.196C132.94 326.282 133.122 326.327 133.329 326.331C133.598 326.335 133.864 326.282 134.126 326.173C134.387 326.064 134.616 325.907 134.811 325.704C135.006 325.501 135.141 325.267 135.215 325.001L135.602 325.522C135.528 325.78 135.407 326.019 135.239 326.237C135.071 326.452 134.872 326.638 134.641 326.794C134.415 326.95 134.171 327.071 133.909 327.157C133.647 327.243 133.385 327.284 133.124 327.28C132.768 327.272 132.446 327.192 132.157 327.04C131.872 326.888 131.645 326.675 131.477 326.401C131.313 326.124 131.243 325.802 131.266 325.435C131.29 325.032 131.395 324.694 131.583 324.421C131.77 324.147 132.01 323.929 132.303 323.765C132.6 323.601 132.924 323.483 133.276 323.413C133.628 323.339 133.975 323.302 134.319 323.302L135.614 323.308ZM140.114 326.384C140.372 326.388 140.612 326.339 140.835 326.237C141.057 326.136 141.247 325.991 141.403 325.804C141.559 325.616 141.671 325.399 141.737 325.153L142.745 325.147C142.682 325.573 142.516 325.946 142.247 326.267C141.981 326.587 141.655 326.837 141.268 327.017C140.885 327.192 140.485 327.276 140.067 327.269C139.622 327.261 139.243 327.169 138.93 326.993C138.622 326.814 138.374 326.575 138.186 326.278C137.999 325.981 137.87 325.647 137.799 325.276C137.729 324.901 137.714 324.517 137.753 324.122L137.776 323.87C137.823 323.444 137.926 323.04 138.087 322.657C138.247 322.271 138.46 321.929 138.725 321.632C138.995 321.331 139.313 321.097 139.68 320.929C140.048 320.761 140.46 320.683 140.917 320.694C141.362 320.702 141.749 320.808 142.077 321.011C142.405 321.21 142.659 321.481 142.839 321.825C143.018 322.169 143.108 322.56 143.108 322.997L142.112 322.991C142.108 322.741 142.059 322.511 141.965 322.3C141.872 322.089 141.733 321.919 141.549 321.79C141.366 321.661 141.139 321.591 140.87 321.579C140.546 321.571 140.262 321.632 140.02 321.761C139.782 321.89 139.579 322.067 139.411 322.294C139.247 322.517 139.116 322.765 139.018 323.038C138.924 323.312 138.86 323.589 138.825 323.87L138.796 324.116C138.772 324.366 138.768 324.622 138.784 324.884C138.803 325.146 138.858 325.39 138.948 325.616C139.038 325.839 139.176 326.021 139.364 326.161C139.551 326.302 139.801 326.376 140.114 326.384ZM146.249 327.269C145.815 327.261 145.438 327.175 145.118 327.011C144.801 326.843 144.542 326.618 144.339 326.337C144.139 326.052 143.997 325.728 143.911 325.364C143.825 325.001 143.799 324.62 143.835 324.222L143.858 323.97C143.897 323.564 143.997 323.165 144.157 322.774C144.317 322.38 144.53 322.024 144.796 321.708C145.065 321.392 145.381 321.142 145.745 320.958C146.112 320.771 146.518 320.683 146.964 320.694C147.405 320.702 147.772 320.796 148.065 320.976C148.358 321.155 148.587 321.394 148.751 321.69C148.919 321.983 149.028 322.314 149.079 322.681C149.13 323.044 149.133 323.417 149.09 323.8L149.026 324.286H144.426L144.567 323.401L148.077 323.407L148.094 323.314C148.133 323.032 148.118 322.761 148.048 322.499C147.977 322.237 147.848 322.022 147.661 321.855C147.477 321.683 147.229 321.593 146.917 321.585C146.592 321.573 146.311 321.64 146.073 321.784C145.835 321.925 145.635 322.116 145.475 322.358C145.315 322.597 145.188 322.858 145.094 323.144C145.005 323.425 144.942 323.7 144.907 323.97L144.883 324.216C144.86 324.466 144.868 324.718 144.907 324.972C144.946 325.226 145.02 325.458 145.13 325.669C145.243 325.876 145.399 326.046 145.598 326.179C145.798 326.308 146.044 326.376 146.337 326.384C146.692 326.392 147.01 326.315 147.292 326.155C147.577 325.991 147.837 325.784 148.071 325.534L148.674 326.05C148.491 326.319 148.272 326.546 148.018 326.73C147.764 326.913 147.487 327.05 147.186 327.14C146.885 327.23 146.573 327.272 146.249 327.269ZM156.608 325.435C156.643 325.192 156.598 325.003 156.473 324.866C156.352 324.73 156.192 324.626 155.993 324.556C155.798 324.481 155.606 324.421 155.419 324.374C155.184 324.315 154.948 324.243 154.71 324.157C154.471 324.071 154.253 323.962 154.053 323.829C153.858 323.692 153.702 323.524 153.585 323.325C153.471 323.122 153.421 322.876 153.432 322.587C153.448 322.274 153.53 321.999 153.678 321.761C153.831 321.522 154.026 321.323 154.264 321.163C154.506 321.003 154.77 320.884 155.055 320.806C155.34 320.728 155.624 320.69 155.905 320.694C156.303 320.702 156.665 320.784 156.989 320.94C157.317 321.097 157.577 321.321 157.768 321.614C157.96 321.907 158.049 322.263 158.038 322.681L156.989 322.675C156.997 322.452 156.952 322.261 156.854 322.101C156.756 321.94 156.622 321.817 156.45 321.731C156.278 321.642 156.083 321.595 155.864 321.591C155.657 321.587 155.454 321.62 155.255 321.69C155.055 321.757 154.885 321.862 154.745 322.007C154.604 322.147 154.518 322.331 154.487 322.558C154.464 322.726 154.489 322.864 154.563 322.974C154.637 323.079 154.739 323.165 154.868 323.231C155.001 323.294 155.139 323.347 155.284 323.39C155.432 323.429 155.567 323.464 155.688 323.495C156.008 323.585 156.325 323.698 156.637 323.835C156.95 323.972 157.204 324.161 157.399 324.403C157.594 324.642 157.682 324.956 157.663 325.347C157.647 325.679 157.559 325.968 157.399 326.214C157.243 326.456 157.04 326.657 156.79 326.817C156.544 326.974 156.272 327.089 155.975 327.163C155.678 327.237 155.381 327.272 155.085 327.269C154.674 327.261 154.292 327.177 153.936 327.017C153.585 326.853 153.303 326.618 153.092 326.314C152.881 326.005 152.782 325.63 152.794 325.189L153.854 325.194C153.854 325.448 153.907 325.663 154.012 325.839C154.122 326.011 154.272 326.142 154.464 326.231C154.655 326.321 154.874 326.368 155.12 326.372C155.327 326.376 155.538 326.349 155.753 326.29C155.971 326.231 156.159 326.134 156.315 325.997C156.475 325.856 156.573 325.669 156.608 325.435ZM161.331 318.151L159.766 327.151H158.706L160.27 318.151H161.331ZM160.13 323.741L159.696 323.73C159.751 323.351 159.85 322.98 159.995 322.616C160.143 322.249 160.337 321.919 160.575 321.626C160.817 321.333 161.104 321.103 161.436 320.935C161.772 320.763 162.155 320.683 162.585 320.694C162.924 320.702 163.208 320.769 163.434 320.894C163.665 321.015 163.844 321.181 163.973 321.392C164.102 321.603 164.188 321.847 164.231 322.124C164.274 322.397 164.278 322.689 164.243 322.997L163.551 327.151H162.485L163.188 322.98C163.215 322.726 163.206 322.497 163.159 322.294C163.116 322.087 163.018 321.923 162.866 321.802C162.717 321.677 162.503 321.61 162.221 321.603C161.924 321.595 161.657 321.651 161.419 321.772C161.18 321.894 160.971 322.06 160.792 322.271C160.616 322.478 160.471 322.71 160.358 322.968C160.249 323.222 160.173 323.48 160.13 323.741ZM167.366 320.812L166.264 327.151H165.204L166.305 320.812H167.366ZM166.516 319.147C166.516 318.964 166.573 318.812 166.686 318.69C166.803 318.565 166.954 318.501 167.137 318.497C167.321 318.493 167.471 318.55 167.589 318.667C167.71 318.784 167.768 318.933 167.764 319.112C167.764 319.292 167.704 319.442 167.583 319.564C167.465 319.681 167.317 319.741 167.137 319.745C166.958 319.749 166.809 319.696 166.692 319.587C166.575 319.474 166.516 319.327 166.516 319.147ZM169.891 322.095L168.59 329.589H167.524L169.048 320.812H170.02L169.891 322.095ZM173.706 323.894L173.694 324.017C173.643 324.399 173.549 324.786 173.413 325.177C173.28 325.564 173.098 325.917 172.868 326.237C172.637 326.558 172.354 326.814 172.018 327.005C171.686 327.196 171.296 327.286 170.846 327.274C170.452 327.267 170.114 327.181 169.833 327.017C169.551 326.849 169.325 326.628 169.153 326.355C168.981 326.077 168.858 325.769 168.784 325.429C168.714 325.085 168.69 324.733 168.714 324.374L168.796 323.724C168.862 323.341 168.973 322.968 169.13 322.605C169.29 322.237 169.493 321.907 169.739 321.614C169.985 321.321 170.276 321.093 170.612 320.929C170.952 320.761 171.337 320.683 171.766 320.694C172.2 320.706 172.551 320.812 172.821 321.011C173.094 321.206 173.301 321.462 173.442 321.778C173.587 322.091 173.676 322.433 173.712 322.804C173.747 323.171 173.745 323.534 173.706 323.894ZM172.628 324.011L172.645 323.882C172.673 323.647 172.678 323.399 172.663 323.138C172.651 322.876 172.602 322.632 172.516 322.405C172.434 322.175 172.303 321.985 172.124 321.837C171.948 321.689 171.708 321.61 171.403 321.603C171.161 321.595 170.93 321.636 170.712 321.726C170.497 321.812 170.301 321.935 170.126 322.095C169.95 322.251 169.799 322.433 169.674 322.64C169.549 322.843 169.458 323.058 169.399 323.284L169.147 324.814C169.143 325.091 169.204 325.349 169.329 325.587C169.454 325.821 169.624 326.011 169.839 326.155C170.057 326.3 170.305 326.376 170.583 326.384C170.907 326.392 171.188 326.327 171.426 326.19C171.669 326.05 171.872 325.862 172.036 325.628C172.2 325.39 172.331 325.13 172.428 324.849C172.526 324.564 172.592 324.284 172.628 324.011ZM176.413 322.136L175.546 327.151H174.479L175.581 320.812H176.589L176.413 322.136ZM175.938 323.741L175.458 323.73C175.512 323.335 175.61 322.954 175.751 322.587C175.891 322.22 176.079 321.892 176.313 321.603C176.551 321.314 176.839 321.087 177.174 320.923C177.51 320.759 177.899 320.683 178.34 320.694C178.669 320.702 178.946 320.767 179.173 320.888C179.399 321.005 179.581 321.167 179.717 321.374C179.858 321.577 179.952 321.812 179.999 322.077C180.049 322.343 180.061 322.626 180.034 322.927L179.325 327.151H178.264L178.967 322.974C178.999 322.708 178.983 322.474 178.921 322.271C178.862 322.067 178.751 321.907 178.587 321.79C178.423 321.669 178.2 321.605 177.919 321.597C177.602 321.589 177.327 321.644 177.092 321.761C176.862 321.878 176.669 322.04 176.512 322.247C176.36 322.45 176.237 322.683 176.143 322.944C176.049 323.202 175.981 323.468 175.938 323.741ZM180.034 323.144L179.272 323.366C179.319 323.003 179.417 322.659 179.565 322.335C179.717 322.011 179.915 321.724 180.157 321.474C180.399 321.224 180.68 321.028 181.001 320.888C181.321 320.747 181.674 320.681 182.061 320.689C182.405 320.696 182.696 320.761 182.934 320.882C183.173 320.999 183.362 321.161 183.503 321.368C183.647 321.575 183.743 321.817 183.79 322.095C183.84 322.368 183.848 322.665 183.813 322.985L183.116 327.151H182.049L182.753 322.968C182.784 322.698 182.77 322.462 182.712 322.259C182.657 322.056 182.548 321.897 182.383 321.784C182.219 321.667 181.993 321.606 181.704 321.603C181.473 321.595 181.262 321.63 181.071 321.708C180.88 321.786 180.714 321.897 180.573 322.042C180.432 322.183 180.315 322.347 180.221 322.534C180.131 322.722 180.069 322.925 180.034 323.144ZM187.381 327.269C186.948 327.261 186.571 327.175 186.251 327.011C185.934 326.843 185.674 326.618 185.471 326.337C185.272 326.052 185.13 325.728 185.044 325.364C184.958 325.001 184.932 324.62 184.967 324.222L184.991 323.97C185.03 323.564 185.13 323.165 185.29 322.774C185.45 322.38 185.663 322.024 185.928 321.708C186.198 321.392 186.514 321.142 186.878 320.958C187.245 320.771 187.651 320.683 188.096 320.694C188.538 320.702 188.905 320.796 189.198 320.976C189.491 321.155 189.719 321.394 189.883 321.69C190.051 321.983 190.161 322.314 190.212 322.681C190.262 323.044 190.266 323.417 190.223 323.8L190.159 324.286H185.559L185.7 323.401L189.21 323.407L189.227 323.314C189.266 323.032 189.251 322.761 189.18 322.499C189.11 322.237 188.981 322.022 188.794 321.855C188.61 321.683 188.362 321.593 188.049 321.585C187.725 321.573 187.444 321.64 187.206 321.784C186.967 321.925 186.768 322.116 186.608 322.358C186.448 322.597 186.321 322.858 186.227 323.144C186.137 323.425 186.075 323.7 186.04 323.97L186.016 324.216C185.993 324.466 186.001 324.718 186.04 324.972C186.079 325.226 186.153 325.458 186.262 325.669C186.376 325.876 186.532 326.046 186.731 326.179C186.93 326.308 187.176 326.376 187.469 326.384C187.825 326.392 188.143 326.315 188.424 326.155C188.71 325.991 188.969 325.784 189.204 325.534L189.807 326.05C189.624 326.319 189.405 326.546 189.151 326.73C188.897 326.913 188.62 327.05 188.319 327.14C188.018 327.23 187.706 327.272 187.381 327.269ZM192.79 322.23L191.934 327.151H190.874L191.975 320.812H192.977L192.79 322.23ZM192.298 323.741L191.864 323.73C191.919 323.351 192.018 322.98 192.163 322.616C192.311 322.249 192.505 321.919 192.743 321.626C192.985 321.333 193.272 321.103 193.604 320.935C193.94 320.763 194.323 320.683 194.753 320.694C195.092 320.702 195.376 320.769 195.602 320.894C195.833 321.015 196.012 321.181 196.141 321.392C196.27 321.603 196.356 321.847 196.399 322.124C196.442 322.397 196.446 322.689 196.411 322.997L195.719 327.151H194.653L195.356 322.98C195.383 322.726 195.374 322.497 195.327 322.294C195.284 322.087 195.186 321.923 195.034 321.802C194.885 321.677 194.671 321.61 194.389 321.603C194.092 321.595 193.825 321.651 193.587 321.772C193.348 321.894 193.139 322.06 192.96 322.271C192.784 322.478 192.639 322.71 192.526 322.968C192.417 323.222 192.34 323.48 192.298 323.741ZM200.993 320.812L200.846 321.644H197.512L197.659 320.812H200.993ZM199.053 319.271H200.108L199.036 325.593C199.024 325.73 199.028 325.853 199.048 325.962C199.067 326.071 199.114 326.159 199.188 326.226C199.262 326.288 199.376 326.321 199.528 326.325C199.614 326.325 199.698 326.319 199.78 326.308C199.866 326.292 199.952 326.278 200.038 326.267L199.962 327.157C199.837 327.192 199.708 327.218 199.575 327.233C199.446 327.253 199.317 327.261 199.188 327.257C198.864 327.253 198.61 327.171 198.426 327.011C198.243 326.851 198.118 326.644 198.051 326.39C197.985 326.136 197.965 325.864 197.993 325.575L199.053 319.271ZM204.344 324.087L204.362 323.952C204.409 323.526 204.514 323.116 204.678 322.722C204.846 322.327 205.067 321.976 205.34 321.667C205.614 321.358 205.938 321.116 206.313 320.94C206.688 320.765 207.106 320.683 207.567 320.694C208.012 320.702 208.393 320.798 208.71 320.981C209.03 321.165 209.288 321.409 209.483 321.714C209.682 322.015 209.821 322.355 209.899 322.733C209.977 323.112 209.997 323.503 209.958 323.905L209.946 324.04C209.895 324.466 209.786 324.874 209.618 325.265C209.45 325.655 209.227 326.003 208.95 326.308C208.676 326.612 208.352 326.853 207.977 327.028C207.602 327.2 207.186 327.28 206.729 327.269C206.288 327.261 205.907 327.167 205.587 326.987C205.27 326.804 205.014 326.562 204.819 326.261C204.624 325.96 204.487 325.622 204.409 325.247C204.331 324.872 204.309 324.485 204.344 324.087ZM205.417 323.952L205.405 324.093C205.378 324.339 205.376 324.595 205.399 324.86C205.426 325.126 205.489 325.372 205.587 325.599C205.688 325.825 205.835 326.011 206.026 326.155C206.217 326.3 206.465 326.376 206.77 326.384C207.094 326.392 207.38 326.329 207.626 326.196C207.872 326.06 208.081 325.876 208.253 325.646C208.428 325.415 208.567 325.159 208.669 324.878C208.774 324.597 208.844 324.317 208.88 324.04L208.891 323.905C208.919 323.659 208.919 323.403 208.891 323.138C208.868 322.868 208.805 322.618 208.704 322.388C208.606 322.153 208.462 321.964 208.27 321.819C208.079 321.671 207.831 321.593 207.526 321.585C207.202 321.573 206.915 321.638 206.665 321.778C206.419 321.915 206.21 322.101 206.038 322.335C205.866 322.569 205.727 322.829 205.622 323.114C205.52 323.396 205.452 323.675 205.417 323.952ZM212.63 322.23L211.774 327.151H210.714L211.815 320.812H212.817L212.63 322.23ZM212.137 323.741L211.704 323.73C211.758 323.351 211.858 322.98 212.003 322.616C212.151 322.249 212.344 321.919 212.583 321.626C212.825 321.333 213.112 321.103 213.444 320.935C213.78 320.763 214.163 320.683 214.592 320.694C214.932 320.702 215.215 320.769 215.442 320.894C215.673 321.015 215.852 321.181 215.981 321.392C216.11 321.603 216.196 321.847 216.239 322.124C216.282 322.397 216.286 322.689 216.251 322.997L215.559 327.151H214.493L215.196 322.98C215.223 322.726 215.214 322.497 215.167 322.294C215.124 322.087 215.026 321.923 214.874 321.802C214.725 321.677 214.51 321.61 214.229 321.603C213.932 321.595 213.665 321.651 213.426 321.772C213.188 321.894 212.979 322.06 212.799 322.271C212.624 322.478 212.479 322.71 212.366 322.968C212.256 323.222 212.18 323.48 212.137 323.741ZM223.786 320.812L223.639 321.644H220.305L220.452 320.812H223.786ZM221.846 319.271H222.901L221.829 325.593C221.817 325.73 221.821 325.853 221.84 325.962C221.86 326.071 221.907 326.159 221.981 326.226C222.055 326.288 222.169 326.321 222.321 326.325C222.407 326.325 222.491 326.319 222.573 326.308C222.659 326.292 222.745 326.278 222.831 326.267L222.755 327.157C222.63 327.192 222.501 327.218 222.368 327.233C222.239 327.253 222.11 327.261 221.981 327.257C221.657 327.253 221.403 327.171 221.219 327.011C221.036 326.851 220.911 326.644 220.844 326.39C220.778 326.136 220.758 325.864 220.786 325.575L221.846 319.271ZM226.534 318.151L224.969 327.151H223.909L225.473 318.151H226.534ZM225.333 323.741L224.899 323.73C224.954 323.351 225.053 322.98 225.198 322.616C225.346 322.249 225.54 321.919 225.778 321.626C226.02 321.333 226.307 321.103 226.639 320.935C226.975 320.763 227.358 320.683 227.788 320.694C228.128 320.702 228.411 320.769 228.637 320.894C228.868 321.015 229.048 321.181 229.176 321.392C229.305 321.603 229.391 321.847 229.434 322.124C229.477 322.397 229.481 322.689 229.446 322.997L228.755 327.151H227.688L228.391 322.98C228.419 322.726 228.409 322.497 228.362 322.294C228.319 322.087 228.221 321.923 228.069 321.802C227.921 321.677 227.706 321.61 227.424 321.603C227.128 321.595 226.86 321.651 226.622 321.772C226.383 321.894 226.174 322.06 225.995 322.271C225.819 322.478 225.674 322.71 225.561 322.968C225.452 323.222 225.376 323.48 225.333 323.741ZM233.003 327.269C232.569 327.261 232.192 327.175 231.872 327.011C231.555 326.843 231.296 326.618 231.092 326.337C230.893 326.052 230.751 325.728 230.665 325.364C230.579 325.001 230.553 324.62 230.589 324.222L230.612 323.97C230.651 323.564 230.751 323.165 230.911 322.774C231.071 322.38 231.284 322.024 231.549 321.708C231.819 321.392 232.135 321.142 232.499 320.958C232.866 320.771 233.272 320.683 233.717 320.694C234.159 320.702 234.526 320.796 234.819 320.976C235.112 321.155 235.34 321.394 235.505 321.69C235.673 321.983 235.782 322.314 235.833 322.681C235.883 323.044 235.887 323.417 235.844 323.8L235.78 324.286H231.18L231.321 323.401L234.831 323.407L234.848 323.314C234.887 323.032 234.872 322.761 234.801 322.499C234.731 322.237 234.602 322.022 234.415 321.855C234.231 321.683 233.983 321.593 233.671 321.585C233.346 321.573 233.065 321.64 232.827 321.784C232.589 321.925 232.389 322.116 232.229 322.358C232.069 322.597 231.942 322.858 231.848 323.144C231.758 323.425 231.696 323.7 231.661 323.97L231.637 324.216C231.614 324.466 231.622 324.718 231.661 324.972C231.7 325.226 231.774 325.458 231.883 325.669C231.997 325.876 232.153 326.046 232.352 326.179C232.551 326.308 232.798 326.376 233.09 326.384C233.446 326.392 233.764 326.315 234.046 326.155C234.331 325.991 234.59 325.784 234.825 325.534L235.428 326.05C235.245 326.319 235.026 326.546 234.772 326.73C234.518 326.913 234.241 327.05 233.94 327.14C233.639 327.23 233.327 327.272 233.003 327.269ZM243.133 320.812L242.987 321.644H239.653L239.799 320.812H243.133ZM241.194 319.271H242.249L241.176 325.593C241.165 325.73 241.169 325.853 241.188 325.962C241.208 326.071 241.255 326.159 241.329 326.226C241.403 326.288 241.516 326.321 241.669 326.325C241.755 326.325 241.839 326.319 241.921 326.308C242.007 326.292 242.092 326.278 242.178 326.267L242.102 327.157C241.977 327.192 241.848 327.218 241.715 327.233C241.587 327.253 241.458 327.261 241.329 327.257C241.005 327.253 240.751 327.171 240.567 327.011C240.383 326.851 240.258 326.644 240.192 326.39C240.126 326.136 240.106 325.864 240.133 325.575L241.194 319.271ZM243.415 324.087L243.432 323.952C243.479 323.526 243.585 323.116 243.749 322.722C243.917 322.327 244.137 321.976 244.411 321.667C244.684 321.358 245.008 321.116 245.383 320.94C245.758 320.765 246.176 320.683 246.637 320.694C247.083 320.702 247.464 320.798 247.78 320.981C248.1 321.165 248.358 321.409 248.553 321.714C248.753 322.015 248.891 322.355 248.969 322.733C249.048 323.112 249.067 323.503 249.028 323.905L249.016 324.04C248.965 324.466 248.856 324.874 248.688 325.265C248.52 325.655 248.298 326.003 248.02 326.308C247.747 326.612 247.423 326.853 247.048 327.028C246.673 327.2 246.257 327.28 245.799 327.269C245.358 327.261 244.977 327.167 244.657 326.987C244.34 326.804 244.085 326.562 243.889 326.261C243.694 325.96 243.557 325.622 243.479 325.247C243.401 324.872 243.38 324.485 243.415 324.087ZM244.487 323.952L244.475 324.093C244.448 324.339 244.446 324.595 244.469 324.86C244.497 325.126 244.559 325.372 244.657 325.599C244.758 325.825 244.905 326.011 245.096 326.155C245.288 326.3 245.536 326.376 245.84 326.384C246.165 326.392 246.45 326.329 246.696 326.196C246.942 326.06 247.151 325.876 247.323 325.646C247.499 325.415 247.637 325.159 247.739 324.878C247.844 324.597 247.915 324.317 247.95 324.04L247.962 323.905C247.989 323.659 247.989 323.403 247.962 323.138C247.938 322.868 247.876 322.618 247.774 322.388C247.676 322.153 247.532 321.964 247.34 321.819C247.149 321.671 246.901 321.593 246.596 321.585C246.272 321.573 245.985 321.638 245.735 321.778C245.489 321.915 245.28 322.101 245.108 322.335C244.936 322.569 244.798 322.829 244.692 323.114C244.59 323.396 244.522 323.675 244.487 323.952ZM251.723 322.095L250.423 329.589H249.356L250.88 320.812H251.852L251.723 322.095ZM255.538 323.894L255.526 324.017C255.475 324.399 255.382 324.786 255.245 325.177C255.112 325.564 254.93 325.917 254.7 326.237C254.469 326.558 254.186 326.814 253.85 327.005C253.518 327.196 253.128 327.286 252.678 327.274C252.284 327.267 251.946 327.181 251.665 327.017C251.383 326.849 251.157 326.628 250.985 326.355C250.813 326.077 250.69 325.769 250.616 325.429C250.546 325.085 250.522 324.733 250.546 324.374L250.628 323.724C250.694 323.341 250.805 322.968 250.962 322.605C251.122 322.237 251.325 321.907 251.571 321.614C251.817 321.321 252.108 321.093 252.444 320.929C252.784 320.761 253.169 320.683 253.598 320.694C254.032 320.706 254.383 320.812 254.653 321.011C254.926 321.206 255.133 321.462 255.274 321.778C255.419 322.091 255.508 322.433 255.544 322.804C255.579 323.171 255.577 323.534 255.538 323.894ZM254.46 324.011L254.477 323.882C254.505 323.647 254.51 323.399 254.495 323.138C254.483 322.876 254.434 322.632 254.348 322.405C254.266 322.175 254.135 321.985 253.956 321.837C253.78 321.689 253.54 321.61 253.235 321.603C252.993 321.595 252.762 321.636 252.544 321.726C252.329 321.812 252.133 321.935 251.958 322.095C251.782 322.251 251.632 322.433 251.507 322.64C251.382 322.843 251.29 323.058 251.231 323.284L250.979 324.814C250.975 325.091 251.036 325.349 251.161 325.587C251.286 325.821 251.456 326.011 251.671 326.155C251.889 326.3 252.137 326.376 252.415 326.384C252.739 326.392 253.02 326.327 253.258 326.19C253.501 326.05 253.704 325.862 253.868 325.628C254.032 325.39 254.163 325.13 254.26 324.849C254.358 324.564 254.424 324.284 254.46 324.011ZM263.19 325.435C263.225 325.192 263.18 325.003 263.055 324.866C262.934 324.73 262.774 324.626 262.575 324.556C262.38 324.481 262.188 324.421 262.001 324.374C261.766 324.315 261.53 324.243 261.292 324.157C261.053 324.071 260.835 323.962 260.635 323.829C260.44 323.692 260.284 323.524 260.167 323.325C260.053 323.122 260.003 322.876 260.014 322.587C260.03 322.274 260.112 321.999 260.26 321.761C260.413 321.522 260.608 321.323 260.846 321.163C261.089 321.003 261.352 320.884 261.637 320.806C261.923 320.728 262.206 320.69 262.487 320.694C262.885 320.702 263.247 320.784 263.571 320.94C263.899 321.097 264.159 321.321 264.35 321.614C264.542 321.907 264.632 322.263 264.62 322.681L263.571 322.675C263.579 322.452 263.534 322.261 263.436 322.101C263.339 321.94 263.204 321.817 263.032 321.731C262.86 321.642 262.665 321.595 262.446 321.591C262.239 321.587 262.036 321.62 261.837 321.69C261.637 321.757 261.467 321.862 261.327 322.007C261.186 322.147 261.1 322.331 261.069 322.558C261.046 322.726 261.071 322.864 261.145 322.974C261.219 323.079 261.321 323.165 261.45 323.231C261.583 323.294 261.721 323.347 261.866 323.39C262.014 323.429 262.149 323.464 262.27 323.495C262.59 323.585 262.907 323.698 263.219 323.835C263.532 323.972 263.786 324.161 263.981 324.403C264.176 324.642 264.264 324.956 264.245 325.347C264.229 325.679 264.141 325.968 263.981 326.214C263.825 326.456 263.622 326.657 263.372 326.817C263.126 326.974 262.854 327.089 262.557 327.163C262.26 327.237 261.964 327.272 261.667 327.269C261.257 327.261 260.874 327.177 260.518 327.017C260.167 326.853 259.885 326.618 259.674 326.314C259.464 326.005 259.364 325.63 259.376 325.189L260.436 325.194C260.436 325.448 260.489 325.663 260.594 325.839C260.704 326.011 260.854 326.142 261.046 326.231C261.237 326.321 261.456 326.368 261.702 326.372C261.909 326.376 262.12 326.349 262.335 326.29C262.553 326.231 262.741 326.134 262.897 325.997C263.057 325.856 263.155 325.669 263.19 325.435ZM267.93 326.384C268.188 326.388 268.428 326.339 268.651 326.237C268.874 326.136 269.063 325.991 269.219 325.804C269.376 325.616 269.487 325.399 269.553 325.153L270.561 325.147C270.499 325.573 270.333 325.946 270.063 326.267C269.798 326.587 269.471 326.837 269.085 327.017C268.702 327.192 268.301 327.276 267.883 327.269C267.438 327.261 267.059 327.169 266.747 326.993C266.438 326.814 266.19 326.575 266.003 326.278C265.815 325.981 265.686 325.647 265.616 325.276C265.546 324.901 265.53 324.517 265.569 324.122L265.592 323.87C265.639 323.444 265.743 323.04 265.903 322.657C266.063 322.271 266.276 321.929 266.542 321.632C266.811 321.331 267.13 321.097 267.497 320.929C267.864 320.761 268.276 320.683 268.733 320.694C269.178 320.702 269.565 320.808 269.893 321.011C270.221 321.21 270.475 321.481 270.655 321.825C270.835 322.169 270.924 322.56 270.924 322.997L269.928 322.991C269.924 322.741 269.876 322.511 269.782 322.3C269.688 322.089 269.549 321.919 269.366 321.79C269.182 321.661 268.956 321.591 268.686 321.579C268.362 321.571 268.079 321.632 267.837 321.761C267.598 321.89 267.395 322.067 267.227 322.294C267.063 322.517 266.932 322.765 266.835 323.038C266.741 323.312 266.676 323.589 266.641 323.87L266.612 324.116C266.589 324.366 266.585 324.622 266.6 324.884C266.62 325.146 266.674 325.39 266.764 325.616C266.854 325.839 266.993 326.021 267.18 326.161C267.368 326.302 267.618 326.376 267.93 326.384ZM275.214 326.067L275.741 322.792C275.768 322.55 275.745 322.337 275.671 322.153C275.6 321.97 275.481 321.827 275.313 321.726C275.149 321.624 274.942 321.569 274.692 321.562C274.473 321.558 274.258 321.593 274.048 321.667C273.84 321.741 273.661 321.853 273.508 322.001C273.356 322.149 273.257 322.337 273.21 322.564L272.155 322.569C272.182 322.253 272.282 321.978 272.454 321.743C272.626 321.505 272.84 321.308 273.098 321.151C273.356 320.991 273.633 320.874 273.93 320.8C274.227 320.722 274.516 320.685 274.798 320.689C275.223 320.696 275.592 320.788 275.905 320.964C276.221 321.136 276.46 321.378 276.62 321.69C276.78 322.003 276.839 322.378 276.796 322.815L276.309 325.769C276.274 325.983 276.253 326.2 276.245 326.419C276.241 326.634 276.266 326.845 276.321 327.052L276.309 327.151L275.237 327.157C275.194 326.978 275.173 326.796 275.173 326.612C275.176 326.429 275.19 326.247 275.214 326.067ZM275.864 323.308L275.741 324.069L274.739 324.064C274.528 324.064 274.305 324.079 274.071 324.11C273.837 324.142 273.614 324.2 273.403 324.286C273.192 324.372 273.014 324.497 272.87 324.661C272.725 324.821 272.637 325.03 272.606 325.288C272.583 325.499 272.608 325.683 272.682 325.839C272.76 325.991 272.878 326.11 273.034 326.196C273.19 326.282 273.372 326.327 273.579 326.331C273.848 326.335 274.114 326.282 274.376 326.173C274.637 326.064 274.866 325.907 275.061 325.704C275.257 325.501 275.391 325.267 275.465 325.001L275.852 325.522C275.778 325.78 275.657 326.019 275.489 326.237C275.321 326.452 275.122 326.638 274.891 326.794C274.665 326.95 274.421 327.071 274.159 327.157C273.897 327.243 273.635 327.284 273.374 327.28C273.018 327.272 272.696 327.192 272.407 327.04C272.122 326.888 271.895 326.675 271.727 326.401C271.563 326.124 271.493 325.802 271.516 325.435C271.54 325.032 271.645 324.694 271.833 324.421C272.02 324.147 272.26 323.929 272.553 323.765C272.85 323.601 273.174 323.483 273.526 323.413C273.878 323.339 274.225 323.302 274.569 323.302L275.864 323.308ZM279.637 322.23L278.782 327.151H277.721L278.823 320.812H279.825L279.637 322.23ZM279.145 323.741L278.712 323.73C278.766 323.351 278.866 322.98 279.01 322.616C279.159 322.249 279.352 321.919 279.59 321.626C279.833 321.333 280.12 321.103 280.452 320.935C280.788 320.763 281.171 320.683 281.6 320.694C281.94 320.702 282.223 320.769 282.45 320.894C282.68 321.015 282.86 321.181 282.989 321.392C283.118 321.603 283.204 321.847 283.247 322.124C283.29 322.397 283.294 322.689 283.258 322.997L282.567 327.151H281.501L282.204 322.98C282.231 322.726 282.221 322.497 282.174 322.294C282.132 322.087 282.034 321.923 281.882 321.802C281.733 321.677 281.518 321.61 281.237 321.603C280.94 321.595 280.673 321.651 280.434 321.772C280.196 321.894 279.987 322.06 279.807 322.271C279.632 322.478 279.487 322.71 279.374 322.968C279.264 323.222 279.188 323.48 279.145 323.741ZM286.071 322.23L285.215 327.151H284.155L285.257 320.812H286.258L286.071 322.23ZM285.579 323.741L285.145 323.73C285.2 323.351 285.299 322.98 285.444 322.616C285.592 322.249 285.786 321.919 286.024 321.626C286.266 321.333 286.553 321.103 286.885 320.935C287.221 320.763 287.604 320.683 288.034 320.694C288.374 320.702 288.657 320.769 288.883 320.894C289.114 321.015 289.294 321.181 289.423 321.392C289.551 321.603 289.637 321.847 289.68 322.124C289.723 322.397 289.727 322.689 289.692 322.997L289.001 327.151H287.934L288.637 322.98C288.665 322.726 288.655 322.497 288.608 322.294C288.565 322.087 288.467 321.923 288.315 321.802C288.167 321.677 287.952 321.61 287.671 321.603C287.374 321.595 287.106 321.651 286.868 321.772C286.63 321.894 286.421 322.06 286.241 322.271C286.065 322.478 285.921 322.71 285.807 322.968C285.698 323.222 285.622 323.48 285.579 323.741ZM293.272 327.269C292.839 327.261 292.462 327.175 292.141 327.011C291.825 326.843 291.565 326.618 291.362 326.337C291.163 326.052 291.02 325.728 290.934 325.364C290.848 325.001 290.823 324.62 290.858 324.222L290.882 323.97C290.921 323.564 291.02 323.165 291.18 322.774C291.34 322.38 291.553 322.024 291.819 321.708C292.089 321.392 292.405 321.142 292.768 320.958C293.135 320.771 293.542 320.683 293.987 320.694C294.428 320.702 294.796 320.796 295.089 320.976C295.382 321.155 295.61 321.394 295.774 321.69C295.942 321.983 296.051 322.314 296.102 322.681C296.153 323.044 296.157 323.417 296.114 323.8L296.049 324.286H291.45L291.59 323.401L295.1 323.407L295.118 323.314C295.157 323.032 295.141 322.761 295.071 322.499C295.001 322.237 294.872 322.022 294.684 321.855C294.501 321.683 294.253 321.593 293.94 321.585C293.616 321.573 293.335 321.64 293.096 321.784C292.858 321.925 292.659 322.116 292.499 322.358C292.339 322.597 292.212 322.858 292.118 323.144C292.028 323.425 291.965 323.7 291.93 323.97L291.907 324.216C291.883 324.466 291.891 324.718 291.93 324.972C291.969 325.226 292.044 325.458 292.153 325.669C292.266 325.876 292.423 326.046 292.622 326.179C292.821 326.308 293.067 326.376 293.36 326.384C293.715 326.392 294.034 326.315 294.315 326.155C294.6 325.991 294.86 325.784 295.094 325.534L295.698 326.05C295.514 326.319 295.296 326.546 295.042 326.73C294.788 326.913 294.51 327.05 294.21 327.14C293.909 327.23 293.596 327.272 293.272 327.269ZM298.745 321.855L297.825 327.151H296.764L297.866 320.812H298.897L298.745 321.855ZM300.801 320.759L300.702 321.778C300.62 321.763 300.536 321.749 300.45 321.737C300.368 321.726 300.286 321.72 300.204 321.72C299.95 321.716 299.721 321.755 299.518 321.837C299.319 321.915 299.141 322.026 298.985 322.171C298.833 322.315 298.702 322.485 298.592 322.681C298.487 322.876 298.403 323.087 298.34 323.314L298.007 323.489C298.049 323.173 298.12 322.849 298.217 322.517C298.319 322.185 298.458 321.878 298.633 321.597C298.813 321.315 299.038 321.089 299.307 320.917C299.581 320.745 299.909 320.665 300.292 320.677C300.378 320.677 300.462 320.685 300.544 320.7C300.63 320.716 300.715 320.735 300.801 320.759Z" fill="#5E6C84"/>
<mask id="mask0_412_5712" style="mask-type:alpha" maskUnits="userSpaceOnUse" x="0" y="0" width="422" height="302">
<path d="M46.827 95.43C52.8825 121.416 30.4887 137.231 19.7757 150.41C12.9922 159.108 -3.50317 173.334 0.666195 225.626C2.67303 250.795 15.6535 286.653 44.1343 294.905C60.0052 305.112 202.409 289.259 277.198 298.163C356.426 307.595 372.931 297.513 411.647 268.226C427.654 256.116 421.698 222.475 414.128 200.199C405.814 178.633 400.479 143.621 415.865 99.4238C432.551 51.4947 408.379 32.9504 396.384 24.741C381.535 15.5998 350.719 6.23674 313.865 23.2767C266.356 45.243 245.492 36.8553 228.616 34.4591C211.74 32.0629 154.163 12.6267 104.032 1.57736C63.9263 -7.2621 40.1263 23.2767 36.7759 37.9203C33.4255 62.1489 40.7715 69.4441 46.827 95.43Z" fill="#FFEBE5"/>
</mask>
<g mask="url(#mask0_412_5712)">
<path d="M240.943 18.9193V168.043" stroke="#DDDDDD" stroke-width="1.89444"/>
<path fill-rule="evenodd" clip-rule="evenodd" d="M174.725 168.043H299.365V14.4677H174.725V168.043Z" stroke="#DDDDDD" stroke-width="1.89444"/>
<path d="M299.365 117.169H174.725" stroke="#DDDDDD" stroke-width="1.89444"/>
<path fill-rule="evenodd" clip-rule="evenodd" d="M287.131 244.83H241.504V201.835C241.504 200.382 243.709 199.203 246.433 199.203H287.131V244.83Z" fill="#2565C1"/>
<path fill-rule="evenodd" clip-rule="evenodd" d="M353.903 244.83H287.131V199.203H348.997C351.705 199.203 353.903 200.382 353.903 201.835V244.83Z" fill="#2873F0"/>
<path fill-rule="evenodd" clip-rule="evenodd" d="M256.689 235.537H271.67V199.204H256.689V235.537Z" fill="#F85A4F"/>
<mask id="mask1_412_5712" style="mask-type:alpha" maskUnits="userSpaceOnUse" x="290" y="211" width="37" height="34">
<path fill-rule="evenodd" clip-rule="evenodd" d="M290.469 211.444H326.08V244.398H290.469V211.444Z" fill="white"/>
</mask>
<g mask="url(#mask1_412_5712)">
<path fill-rule="evenodd" clip-rule="evenodd" d="M316.402 231.169H319.636C320.841 231.169 321.619 230.253 321.976 228.195C322.311 226.221 321.876 225.342 320.666 225.342H317.425L317.938 222.379C318.51 218.997 320.21 217.326 323 217.326H323.531C325.083 217.326 325.93 217.064 326.049 216.31C326.145 215.802 326.006 215.104 325.851 214.334C325.684 213.584 325.511 212.864 325.263 212.456C324.889 211.775 324.025 211.444 322.674 211.444C319.321 211.444 316.564 212.406 314.387 214.357C312.224 216.294 310.843 218.897 310.237 222.429L309.717 225.342H302.919C302.807 225.342 295.781 226.158 295.781 226.158L302.249 227.176L302.511 228.159L298.55 228.505L302.712 229.13L302.876 229.929L290.469 230.643C290.469 230.643 303.863 231.169 303.97 231.169H308.685L306.176 246.225L314.148 244.502L316.402 231.169Z" fill="white"/>
</g>
<path fill-rule="evenodd" clip-rule="evenodd" d="M356.685 206.437L348.02 221.579L340.211 219.394L342.502 198.925C334.825 203.125 333.667 200.488 334.743 199.784C335.82 199.08 336.763 197.995 343.769 192.183L350.565 190.857" fill="#F5B7A3"/>
<path fill-rule="evenodd" clip-rule="evenodd" d="M340.938 213.519L334.859 219.503C334.859 219.503 325.519 222.909 326.342 225.745C326.875 225.977 336.629 222.896 336.629 222.896L341.881 218.696" fill="#F5B7A3"/>
<path fill-rule="evenodd" clip-rule="evenodd" d="M340.999 217.91L337.307 223.729C337.307 223.729 328.692 228.137 329.826 230.777C330.368 230.938 339.422 226.795 339.422 226.795L344.801 220.68" fill="#F5B7A3"/>
<path fill-rule="evenodd" clip-rule="evenodd" d="M344.785 218.347L341.999 224.939C341.999 224.939 334.662 231.247 336.384 233.546C336.948 233.576 344.776 227.421 344.776 227.421L348.318 221.055" fill="#F5B7A3"/>
<path d="M262.864 195.219L258.691 196.477L253.783 199.76" stroke="#DD9480" stroke-width="2.25" stroke-miterlimit="10" stroke-linecap="round"/>
<path d="M276.928 203.221C276.928 203.221 337.434 181.665 352.892 154.756C354.817 151.617 376.752 105.033 376.752 105.033L379.456 66.7725C379.456 66.7725 367.393 75.0634 364.399 79.2923C347.818 97.3541 327.797 159.419 327.797 159.419L275.938 194.418L276.928 203.221Z" fill="#F5B7A3"/>
<path d="M261.965 194.129L255.744 194.841L249.289 197.912" stroke="#F5B7A3" stroke-width="2.25" stroke-miterlimit="10" stroke-linecap="round"/>
<path d="M256.561 197.889L261.58 199.147L260.934 196.621L257.818 196.632L256.561 197.889Z" fill="#DD9480"/>
<path d="M416.776 147.455L382.833 169.712C382.833 169.712 370.592 154.688 367.253 149.68C363.277 143.716 361.132 136.882 364.471 131.874C352.786 117.407 338.875 127.423 338.875 127.423C343.326 107.391 360.46 83.4701 364.471 78.4569C368.922 72.8926 373.93 68.4411 378.938 67.3282L396.801 71.2233L449.049 81.7955L432.912 126.31L408.02 117.407L416.776 147.455Z" fill="#5353E5"/>
<path d="M382.829 72.7561C382.829 72.7561 364.545 31.5243 362.067 25.5965C359.336 30.1842 352.129 25.531 350.266 32.059C348.429 38.4061 352.972 39.861 350.865 46.1341C348.757 52.4072 343.961 50.8783 341.862 57.1514C339.763 63.4245 344.559 64.9454 342.461 71.2185C340.362 77.4916 334.301 77.1874 332.194 83.4522C330.086 89.7171 334.79 93.8936 332.683 100.158H350.384L382.829 72.7561Z" fill="#231F20"/>
<path d="M354.455 40.4627C353.817 50.9108 361.771 59.8975 372.219 60.5347C382.667 61.1719 391.653 53.2183 392.29 42.7702C392.928 32.3222 384.974 23.3359 374.526 22.6987C364.078 22.0615 355.092 30.0147 354.455 40.4627Z" fill="#D39884"/>
<path d="M368.371 88.284L370.929 54.5882L387.701 38.9512L400.644 71.9288C400.644 71.9288 394.147 109.993 382.875 114.22C371.603 118.447 368.371 88.284 368.371 88.284Z" fill="#D39884"/>
<path d="M371.214 59.6004C370.938 63.9126 370.588 68.9977 370.588 68.9977L386.168 53.4176C386.168 53.4176 382.078 59.8463 371.214 59.6004Z" fill="#B57261"/>
<path d="M372.814 37.0268C370.938 36.3292 367.766 36.9406 367.25 37.8376" stroke="#231F20" stroke-width="1.07" stroke-miterlimit="10" stroke-linecap="round"/>
<path d="M362.807 39.5337C361.306 38.1871 358.761 39.3589 358.355 41.1769" stroke="#231F20" stroke-width="1.07" stroke-miterlimit="10" stroke-linecap="round"/>
<path d="M457.4 91.2552C450.045 84.9084 454.752 79.3811 447.438 73.0344C440.123 66.6876 435.374 72.1983 428.019 65.8683C420.663 59.5383 425.37 53.9943 418.056 47.6475C410.742 41.3008 406.001 46.8113 398.645 40.4896C391.289 34.1679 394.494 28.5738 387.238 22.0932C379.981 15.6127 372.476 15.1195 363.593 19.7855C356.644 23.4397 355.058 34.9707 368.574 34.6027C372.568 34.4857 377.806 34.076 380.089 37.0027C382.173 39.6618 380.305 43.3494 381.75 45.0552C384.598 48.4 387.918 46.9787 389.82 50.6747C390.234 51.5867 390.714 52.4669 391.256 53.3086L401.201 74.5622C421.89 72.3296 445.761 86.7565 445.761 86.7565" fill="#231F20"/>
<path d="M363.415 41.1764C363.415 41.1764 362.999 45.0512 362.816 46.4637C362.632 47.8761 364.749 48.3217 366.143 47.2869" stroke="#231F20" stroke-width="1.32" stroke-miterlimit="10" stroke-linecap="round"/>
<path d="M370.595 50.0794C370.311 50.4643 365.868 51.7883 362.805 50.88" stroke="#231F20" stroke-width="1.32" stroke-miterlimit="10" stroke-linecap="round"/>
<path d="M285.605 187.863L275.945 194.362L263.314 192.56L254.656 194.04L276.947 203.221L296.845 195.23L285.605 187.863Z" fill="#F5B7A3"/>
<path d="M278.259 202.898C273.074 204.634 269.735 204.634 264.415 202.453C259.096 200.272 265.406 200.405 265.406 200.405L272.295 200.305L280.085 199.192L278.259 202.898Z" fill="#F5B7A3"/>
<path d="M405.65 206.993L395.078 181.397L427.351 140.221L451.834 222.573L405.65 206.993Z" fill="#5353E5"/>
<path d="M405.646 279.886V205.88L419.001 210.888L466.854 257.072L405.646 279.886Z" fill="#42526E"/>
<path fill-rule="evenodd" clip-rule="evenodd" d="M422.265 106.391L427.495 129.359L350.001 191.413L356.121 206.993C356.121 206.993 411.091 175.955 425.119 164.147C439.147 152.34 456.82 100.226 456.82 100.226L422.265 106.391Z" fill="#F5B7A3"/>
<path d="M357.237 146.898C357.237 146.898 355.012 136.882 338.875 127.979L344.996 110.173L378.382 120.189C376.156 132.987 357.237 146.898 357.237 146.898Z" fill="#5353E5"/>
<path d="M418.442 126.867C413.991 125.531 408.056 126.31 405.644 126.867L400.08 114.069L439.587 106.835L430.127 134.657C424.563 134.1 424.007 128.536 418.442 126.867Z" fill="#5353E5"/>
<rect x="56.7637" y="193.639" width="176.946" height="139.108" fill="#F4F5F7"/>
<rect x="176.955" y="242.605" width="198.09" height="42.2889" fill="#F4F5F7"/>
<path d="M96.6055 235.079V237.645H97.5137C97.6348 237.645 97.7207 237.669 97.7715 237.716C97.8223 237.759 97.8477 237.817 97.8477 237.892C97.8477 237.962 97.8223 238.02 97.7715 238.067C97.7207 238.114 97.6348 238.138 97.5137 238.138H95.4512C95.334 238.138 95.25 238.114 95.1992 238.067C95.1484 238.02 95.123 237.962 95.123 237.892C95.123 237.817 95.1484 237.759 95.1992 237.716C95.25 237.669 95.334 237.645 95.4512 237.645H96.1133V231.774H95.4512C95.334 231.774 95.25 231.753 95.1992 231.71C95.1484 231.663 95.123 231.603 95.123 231.528C95.123 231.454 95.1484 231.395 95.1992 231.353C95.25 231.306 95.334 231.282 95.4512 231.282H98.4277C99.041 231.282 99.5566 231.478 99.9746 231.868C100.396 232.255 100.607 232.692 100.607 233.181C100.607 233.532 100.477 233.864 100.215 234.177C99.957 234.485 99.5234 234.743 98.9141 234.95C99.2656 235.192 99.5664 235.466 99.8164 235.77C100.066 236.075 100.467 236.7 101.018 237.645H101.393C101.51 237.645 101.594 237.669 101.645 237.716C101.695 237.759 101.721 237.817 101.721 237.892C101.721 237.962 101.695 238.02 101.645 238.067C101.594 238.114 101.51 238.138 101.393 238.138H100.736C100.127 237.048 99.6543 236.317 99.3184 235.946C98.9863 235.575 98.6035 235.286 98.1699 235.079H96.6055ZM96.6055 234.587H97.9473C98.377 234.587 98.7656 234.509 99.1133 234.353C99.4648 234.196 99.7188 234.013 99.875 233.802C100.035 233.591 100.115 233.376 100.115 233.157C100.115 232.829 99.9492 232.517 99.6172 232.22C99.2891 231.923 98.8887 231.774 98.416 231.774H96.6055V234.587ZM104.229 234.827V237.645H105.916C106.033 237.645 106.117 237.669 106.168 237.716C106.219 237.759 106.244 237.817 106.244 237.892C106.244 237.962 106.219 238.02 106.168 238.067C106.117 238.114 106.033 238.138 105.916 238.138H103.074C102.957 238.138 102.873 238.114 102.822 238.067C102.771 238.02 102.746 237.962 102.746 237.892C102.746 237.817 102.771 237.759 102.822 237.716C102.873 237.669 102.957 237.645 103.074 237.645H103.736V231.774H103.074C102.957 231.774 102.873 231.753 102.822 231.71C102.771 231.663 102.746 231.603 102.746 231.528C102.746 231.454 102.775 231.392 102.834 231.341C102.877 231.302 102.957 231.282 103.074 231.282H108.494V232.976C108.494 233.093 108.471 233.177 108.424 233.228C108.377 233.278 108.318 233.304 108.248 233.304C108.174 233.304 108.113 233.278 108.066 233.228C108.02 233.177 107.996 233.093 107.996 232.976V231.774H104.229V234.335H105.992V233.778C105.992 233.661 106.016 233.577 106.062 233.526C106.109 233.476 106.17 233.45 106.244 233.45C106.314 233.45 106.373 233.476 106.42 233.526C106.467 233.577 106.49 233.661 106.49 233.778V235.384C106.49 235.501 106.467 235.585 106.42 235.636C106.373 235.686 106.314 235.712 106.244 235.712C106.17 235.712 106.109 235.686 106.062 235.636C106.016 235.585 105.992 235.501 105.992 235.384V234.827H104.229ZM112.871 231.774V237.645H114.559C114.676 237.645 114.76 237.669 114.811 237.716C114.861 237.759 114.887 237.817 114.887 237.892C114.887 237.962 114.861 238.02 114.811 238.067C114.76 238.114 114.676 238.138 114.559 238.138H110.691C110.574 238.138 110.49 238.114 110.439 238.067C110.389 238.02 110.363 237.962 110.363 237.892C110.363 237.817 110.389 237.759 110.439 237.716C110.49 237.669 110.574 237.645 110.691 237.645H112.379V231.774H110.691C110.574 231.774 110.49 231.753 110.439 231.71C110.389 231.663 110.363 231.603 110.363 231.528C110.363 231.454 110.389 231.395 110.439 231.353C110.49 231.306 110.574 231.282 110.691 231.282H114.559C114.676 231.282 114.76 231.306 114.811 231.353C114.861 231.395 114.887 231.454 114.887 231.528C114.887 231.603 114.861 231.663 114.811 231.71C114.76 231.753 114.676 231.774 114.559 231.774H112.871ZM117.898 237.645V231.774H117.482C117.365 231.774 117.281 231.753 117.23 231.71C117.18 231.663 117.154 231.603 117.154 231.528C117.154 231.454 117.18 231.395 117.23 231.353C117.281 231.306 117.365 231.282 117.482 231.282H120.131C120.545 231.282 120.922 231.368 121.262 231.54C121.605 231.712 121.867 231.907 122.047 232.126C122.355 232.497 122.59 232.89 122.75 233.304C122.863 233.604 122.92 233.96 122.92 234.37V235.05C122.92 235.554 122.809 236.042 122.586 236.515C122.363 236.987 121.992 237.399 121.473 237.751C121.086 238.009 120.639 238.138 120.131 238.138H117.482C117.365 238.138 117.281 238.114 117.23 238.067C117.18 238.02 117.154 237.962 117.154 237.892C117.154 237.817 117.18 237.759 117.23 237.716C117.281 237.669 117.365 237.645 117.482 237.645H117.898ZM118.391 237.645H120.178C120.592 237.645 120.979 237.511 121.338 237.241C121.701 236.972 121.973 236.649 122.152 236.274C122.336 235.895 122.428 235.522 122.428 235.155V234.265C122.428 233.96 122.379 233.688 122.281 233.45C122.141 233.103 121.941 232.772 121.684 232.46C121.543 232.288 121.336 232.132 121.062 231.991C120.789 231.847 120.494 231.774 120.178 231.774H118.391V237.645ZM136.004 231.774V231.61C136.004 231.493 136.025 231.409 136.068 231.358C136.115 231.308 136.176 231.282 136.25 231.282C136.324 231.282 136.383 231.308 136.426 231.358C136.473 231.409 136.496 231.493 136.496 231.61V232.864C136.496 232.981 136.473 233.065 136.426 233.116C136.383 233.167 136.324 233.192 136.25 233.192C136.18 233.192 136.121 233.169 136.074 233.122C136.031 233.075 136.008 232.999 136.004 232.894C135.984 232.565 135.814 232.27 135.494 232.009C135.178 231.747 134.762 231.616 134.246 231.616C133.703 231.616 133.271 231.757 132.951 232.038C132.631 232.315 132.471 232.644 132.471 233.022C132.471 233.218 132.516 233.395 132.605 233.556C132.695 233.716 132.814 233.847 132.963 233.948C133.111 234.046 133.279 234.126 133.467 234.188C133.654 234.247 133.947 234.31 134.346 234.376C135.014 234.485 135.475 234.597 135.729 234.71C136.068 234.862 136.324 235.073 136.496 235.343C136.672 235.612 136.76 235.931 136.76 236.298C136.76 236.86 136.535 237.341 136.086 237.739C135.637 238.134 135.031 238.331 134.27 238.331C133.414 238.331 132.73 238.063 132.219 237.528V237.81C132.219 237.927 132.195 238.011 132.148 238.061C132.105 238.112 132.047 238.138 131.973 238.138C131.902 238.138 131.844 238.112 131.797 238.061C131.75 238.011 131.727 237.927 131.727 237.81V236.45C131.727 236.329 131.748 236.243 131.791 236.192C131.838 236.142 131.898 236.116 131.973 236.116C132.043 236.116 132.1 236.14 132.143 236.186C132.189 236.233 132.215 236.31 132.219 236.415C132.238 236.774 132.43 237.103 132.793 237.399C133.16 237.692 133.652 237.839 134.27 237.839C134.887 237.839 135.373 237.685 135.729 237.376C136.088 237.067 136.268 236.702 136.268 236.28C136.268 236.022 136.199 235.794 136.062 235.595C135.926 235.392 135.723 235.231 135.453 235.114C135.266 235.032 134.875 234.94 134.281 234.839C133.465 234.702 132.877 234.493 132.518 234.212C132.158 233.931 131.979 233.53 131.979 233.011C131.979 232.495 132.184 232.052 132.594 231.681C133.008 231.31 133.553 231.124 134.229 231.124C134.916 231.124 135.508 231.341 136.004 231.774ZM143.615 231.956V231.61C143.615 231.493 143.637 231.409 143.68 231.358C143.727 231.308 143.787 231.282 143.861 231.282C143.936 231.282 143.994 231.308 144.037 231.358C144.084 231.409 144.107 231.493 144.107 231.61V232.976C144.107 233.097 144.084 233.183 144.037 233.233C143.994 233.284 143.936 233.31 143.861 233.31C143.795 233.31 143.738 233.286 143.691 233.239C143.648 233.192 143.623 233.116 143.615 233.011C143.596 232.683 143.418 232.392 143.082 232.138C142.629 231.79 142.113 231.616 141.535 231.616C141.156 231.616 140.799 231.7 140.463 231.868C140.213 231.989 140.014 232.138 139.865 232.313C139.607 232.618 139.402 232.956 139.25 233.327C139.141 233.601 139.086 233.909 139.086 234.253V235.114C139.086 235.849 139.352 236.487 139.883 237.03C140.414 237.569 141.031 237.839 141.734 237.839C142.156 237.839 142.533 237.747 142.865 237.563C143.201 237.38 143.525 237.103 143.838 236.731C143.904 236.649 143.979 236.608 144.061 236.608C144.131 236.608 144.188 236.63 144.23 236.673C144.273 236.716 144.295 236.77 144.295 236.837C144.295 236.927 144.211 237.063 144.043 237.247C143.723 237.606 143.361 237.878 142.959 238.061C142.561 238.241 142.156 238.331 141.746 238.331C141.391 238.331 141.029 238.263 140.662 238.126C140.381 238.02 140.148 237.897 139.965 237.757C139.781 237.616 139.555 237.38 139.285 237.048C139.02 236.712 138.838 236.403 138.74 236.122C138.643 235.837 138.594 235.524 138.594 235.185V234.183C138.594 233.698 138.723 233.204 138.98 232.7C139.242 232.192 139.598 231.804 140.047 231.534C140.5 231.261 140.99 231.124 141.518 231.124C142.33 231.124 143.029 231.401 143.615 231.956ZM150.277 235.847H147.043L146.381 237.645H147.324C147.441 237.645 147.525 237.669 147.576 237.716C147.627 237.759 147.652 237.817 147.652 237.892C147.652 237.962 147.627 238.02 147.576 238.067C147.525 238.114 147.441 238.138 147.324 238.138H145.484C145.367 238.138 145.283 238.114 145.232 238.067C145.182 238.02 145.156 237.962 145.156 237.892C145.156 237.817 145.182 237.759 145.232 237.716C145.283 237.669 145.367 237.645 145.484 237.645H145.865L148.039 231.774H146.586C146.469 231.774 146.385 231.753 146.334 231.71C146.283 231.663 146.258 231.603 146.258 231.528C146.258 231.454 146.283 231.395 146.334 231.353C146.385 231.306 146.469 231.282 146.586 231.282H149.064L151.467 237.645H151.848C151.965 237.645 152.049 237.669 152.1 237.716C152.15 237.759 152.176 237.817 152.176 237.892C152.176 237.962 152.15 238.02 152.1 238.067C152.049 238.114 151.965 238.138 151.848 238.138H150.014C149.893 238.138 149.807 238.114 149.756 238.067C149.705 238.02 149.68 237.962 149.68 237.892C149.68 237.817 149.705 237.759 149.756 237.716C149.807 237.669 149.893 237.645 150.014 237.645H150.951L150.277 235.847ZM150.09 235.354L148.73 231.774H148.549L147.23 235.354H150.09ZM158.275 238.138H157.643L154.016 232.003V237.645H154.924C155.045 237.645 155.131 237.669 155.182 237.716C155.232 237.759 155.258 237.817 155.258 237.892C155.258 237.962 155.232 238.02 155.182 238.067C155.131 238.114 155.045 238.138 154.924 238.138H153.113C152.992 238.138 152.906 238.114 152.855 238.067C152.805 238.02 152.779 237.962 152.779 237.892C152.779 237.817 152.805 237.759 152.855 237.716C152.906 237.669 152.992 237.645 153.113 237.645H153.523V231.774H152.861C152.744 231.774 152.66 231.753 152.609 231.71C152.559 231.663 152.533 231.603 152.533 231.528C152.533 231.454 152.559 231.395 152.609 231.353C152.66 231.306 152.744 231.282 152.861 231.282H154.15L157.783 237.429V231.774H156.875C156.758 231.774 156.674 231.753 156.623 231.71C156.572 231.663 156.547 231.603 156.547 231.528C156.547 231.454 156.57 231.395 156.617 231.353C156.668 231.306 156.754 231.282 156.875 231.282H158.691C158.809 231.282 158.893 231.306 158.943 231.353C158.994 231.395 159.02 231.454 159.02 231.528C159.02 231.603 158.994 231.663 158.943 231.71C158.893 231.753 158.809 231.774 158.691 231.774H158.275V238.138ZM165.482 238.138H164.85L161.223 232.003V237.645H162.131C162.252 237.645 162.338 237.669 162.389 237.716C162.439 237.759 162.465 237.817 162.465 237.892C162.465 237.962 162.439 238.02 162.389 238.067C162.338 238.114 162.252 238.138 162.131 238.138H160.32C160.199 238.138 160.113 238.114 160.062 238.067C160.012 238.02 159.986 237.962 159.986 237.892C159.986 237.817 160.012 237.759 160.062 237.716C160.113 237.669 160.199 237.645 160.32 237.645H160.73V231.774H160.068C159.951 231.774 159.867 231.753 159.816 231.71C159.766 231.663 159.74 231.603 159.74 231.528C159.74 231.454 159.766 231.395 159.816 231.353C159.867 231.306 159.951 231.282 160.068 231.282H161.357L164.99 237.429V231.774H164.082C163.965 231.774 163.881 231.753 163.83 231.71C163.779 231.663 163.754 231.603 163.754 231.528C163.754 231.454 163.777 231.395 163.824 231.353C163.875 231.306 163.961 231.282 164.082 231.282H165.898C166.016 231.282 166.1 231.306 166.15 231.353C166.201 231.395 166.227 231.454 166.227 231.528C166.227 231.603 166.201 231.663 166.15 231.71C166.1 231.753 166.016 231.774 165.898 231.774H165.482V238.138ZM168.676 234.827V237.645H172.461V236.192C172.461 236.075 172.482 235.991 172.525 235.94C172.572 235.89 172.633 235.864 172.707 235.864C172.781 235.864 172.84 235.89 172.883 235.94C172.93 235.991 172.953 236.075 172.953 236.192V238.138H167.521C167.404 238.138 167.32 238.114 167.27 238.067C167.219 238.02 167.193 237.962 167.193 237.892C167.193 237.817 167.219 237.759 167.27 237.716C167.32 237.669 167.404 237.645 167.521 237.645H168.184V231.774H167.521C167.404 231.774 167.32 231.753 167.27 231.71C167.219 231.663 167.193 231.603 167.193 231.528C167.193 231.454 167.219 231.395 167.27 231.353C167.32 231.306 167.404 231.282 167.521 231.282H172.695V232.976C172.695 233.093 172.672 233.177 172.625 233.228C172.582 233.278 172.523 233.304 172.449 233.304C172.375 233.304 172.314 233.278 172.268 233.228C172.225 233.177 172.203 233.093 172.203 232.976V231.774H168.676V234.335H170.439V233.778C170.439 233.661 170.463 233.577 170.51 233.526C170.557 233.476 170.617 233.45 170.691 233.45C170.762 233.45 170.82 233.476 170.867 233.526C170.914 233.577 170.938 233.661 170.938 233.778V235.384C170.938 235.501 170.914 235.585 170.867 235.636C170.82 235.686 170.762 235.712 170.691 235.712C170.617 235.712 170.557 235.686 170.51 235.636C170.463 235.585 170.439 235.501 170.439 235.384V234.827H168.676ZM175.883 235.079V237.645H176.791C176.912 237.645 176.998 237.669 177.049 237.716C177.1 237.759 177.125 237.817 177.125 237.892C177.125 237.962 177.1 238.02 177.049 238.067C176.998 238.114 176.912 238.138 176.791 238.138H174.729C174.611 238.138 174.527 238.114 174.477 238.067C174.426 238.02 174.4 237.962 174.4 237.892C174.4 237.817 174.426 237.759 174.477 237.716C174.527 237.669 174.611 237.645 174.729 237.645H175.391V231.774H174.729C174.611 231.774 174.527 231.753 174.477 231.71C174.426 231.663 174.4 231.603 174.4 231.528C174.4 231.454 174.426 231.395 174.477 231.353C174.527 231.306 174.611 231.282 174.729 231.282H177.705C178.318 231.282 178.834 231.478 179.252 231.868C179.674 232.255 179.885 232.692 179.885 233.181C179.885 233.532 179.754 233.864 179.492 234.177C179.234 234.485 178.801 234.743 178.191 234.95C178.543 235.192 178.844 235.466 179.094 235.77C179.344 236.075 179.744 236.7 180.295 237.645H180.67C180.787 237.645 180.871 237.669 180.922 237.716C180.973 237.759 180.998 237.817 180.998 237.892C180.998 237.962 180.973 238.02 180.922 238.067C180.871 238.114 180.787 238.138 180.67 238.138H180.014C179.404 237.048 178.932 236.317 178.596 235.946C178.264 235.575 177.881 235.286 177.447 235.079H175.883ZM175.883 234.587H177.225C177.654 234.587 178.043 234.509 178.391 234.353C178.742 234.196 178.996 234.013 179.152 233.802C179.312 233.591 179.393 233.376 179.393 233.157C179.393 232.829 179.227 232.517 178.895 232.22C178.566 231.923 178.166 231.774 177.693 231.774H175.883V234.587Z" fill="#979797"/>
<rect x="93.4062" y="134.082" width="7.79005" height="61.2076" transform="rotate(-12.9472 93.4062 134.082)" fill="#C4C4C4"/>
<rect x="107.959" y="186.962" width="68.9976" height="6.67719" fill="#C4C4C4"/>
</g>
</svg>
