<?xml version="1.0" encoding="UTF-8"?>
<svg width="102" height="102" viewBox="0 0 102 102" fill="none" xmlns="http://www.w3.org/2000/svg">
<rect opacity="0.5" width="102" height="102" rx="8" fill="#6998df"/>
<path d="M21.5928 45.0346C22.989 43.3136 30.9096 40.4595 38.7193 41.453C46.529 42.4464 61.4137 43.0478 67.0944 41.8941C72.775 40.7404 79.4197 43.1496 80.6242 45.6812V48.1564H22.1659L21.5928 45.0346Z" fill="#EDEBEB"/>
<path opacity="0.4" d="M79.3877 44.2711C76.7269 42.533 71.749 41.3379 67.3499 42.2182C61.5828 43.3738 46.4557 42.7686 38.5163 41.779C31.6706 40.925 24.7422 42.9289 22.0532 44.6066C24.263 42.8893 31.5372 40.548 38.7212 41.4585C46.5309 42.4482 61.4137 43.0533 67.0962 41.8977C71.6832 40.9533 76.9204 42.3577 79.3877 44.2711Z" fill="#FFFAE5"/>
<path d="M21.5928 46.5542C22.989 44.835 30.9096 41.981 38.7193 42.9726C46.529 43.9641 61.4137 44.5673 67.0944 43.4118C72.775 42.2562 79.4197 44.6673 80.6242 47.1989V49.674H22.1659L21.5928 46.5542Z" fill="#EDEBEB"/>
<path d="M62.0394 43.9264L59.3673 43.4721C59.4011 43.3892 59.4331 43.3156 59.4481 43.2704C60.3745 40.4729 59.636 37.8678 58.7284 35.1645C58.1647 33.5057 57.46 31.9071 57.2251 30.1559C57.0372 28.7628 57.071 27.3641 57.1142 25.9653C57.1518 24.7325 57.3153 23.313 56.9169 22.1235C56.5824 21.1282 55.5583 20.8586 54.6168 20.7172C53.3832 20.5184 52.1197 20.78 51.0652 21.4524C48.8103 22.87 47.3784 25.6204 46.7714 28.1464C46.5534 29.055 46.5948 29.9749 46.4294 30.8911C46.2085 32.1777 45.6733 33.3895 44.8716 34.418C44.0354 35.4775 42.8891 36.1391 41.9552 37.0854C41.6132 37.4323 41.6132 37.651 41.5305 38.1185C41.3426 39.1326 41.1791 40.1468 41.0024 41.161C40.9836 41.2703 40.9705 41.4947 40.9498 41.7435V41.7586C40.9328 42.044 40.8901 42.3273 40.822 42.605V42.6276C40.8052 42.6843 40.7792 42.7378 40.745 42.7859L40.7243 42.8086C40.5627 42.9556 39.7378 42.7068 39.4897 42.6672L37.9582 42.4259L38.4318 39.0139C38.5502 38.1694 38.5727 37.2381 38.8527 36.4275C39.2436 35.2965 40.2094 34.5425 41.0776 33.7884C42.0284 32.9609 42.8083 32.0579 43.0826 30.7911C43.3081 29.7393 43.1822 28.6478 43.372 27.5865C43.6366 26.176 44.0661 24.8017 44.6517 23.4921C45.6965 21.1093 47.2637 18.8284 49.5375 17.49C50.7561 16.7949 52.1202 16.3961 53.5202 16.3258C54.9203 16.2554 56.3173 16.5153 57.599 17.0847C63.5766 19.7483 59.683 26.708 60.9627 31.4377C61.3874 33.0137 61.9023 34.5575 62.2781 36.1504C62.9039 38.8574 62.9696 41.3514 62.0394 43.9264Z" fill="#EDEBEB"/>
<path d="M40.7187 42.8086C40.7585 42.7498 40.7913 42.6865 40.8164 42.6201C40.7996 42.6768 40.7736 42.7303 40.7394 42.7784L40.7187 42.8086Z" fill="white"/>
<path opacity="0.3" d="M59.448 43.2704C60.3744 40.4729 59.6359 37.8677 58.7283 35.1645C58.1646 33.5056 57.4599 31.9071 57.225 30.1558C57.0371 28.7627 57.0709 27.364 57.1141 25.9653C57.1517 24.7324 57.3152 23.313 56.9168 22.1235C56.5823 21.1281 55.5582 20.8586 54.6167 20.7172C53.3831 20.5184 52.1196 20.7799 51.0652 21.4524C48.8102 22.87 47.3783 25.6203 46.7713 28.1463C46.5533 29.0549 46.5947 29.9748 46.4293 30.891C46.2084 32.1777 45.6732 33.3894 44.8715 34.418C44.0353 35.4774 42.889 36.1391 41.9551 37.0854C41.6131 37.4322 41.6131 37.6509 41.5304 38.1184C41.3425 39.1326 41.179 40.1468 41.0023 41.1609C40.9835 41.2703 40.9704 41.4946 40.9497 41.7434C40.9648 41.2401 40.9234 40.6991 40.9629 40.3428C41.0493 39.5341 41.0474 38.6462 41.2429 37.8639C41.5529 36.6235 42.5451 36.0241 43.4377 35.1683C44.3206 34.3554 44.9949 33.3407 45.4033 32.2106C45.7584 31.1926 45.7885 30.1841 45.8825 29.1266C46.0387 27.5536 46.4961 26.0258 47.2298 24.6269C48.2915 22.5533 50.0147 20.5551 52.3524 19.9632C53.882 19.5861 56.261 19.7143 57.3246 21.0772C58.5892 22.6965 57.9259 25.477 57.877 27.332C57.8 30.1596 58.5122 32.5122 59.2864 35.206C60.0606 37.8997 60.6507 40.8612 59.3653 43.4721C59.401 43.3891 59.433 43.3156 59.448 43.2704Z" fill="white"/>
<path d="M81 79.7317C81 84.2879 79.0532 89.4474 75.1239 88.9686C69.6406 88.2937 48.5641 88.109 44.2815 88.0901C39.999 88.0713 31.3342 88.1429 28.3408 88.403C26.4616 88.5689 24.9583 89.142 23.9981 88.5237C22.7033 87.6848 22.1189 84.7856 21.5871 82.3029C21.0553 79.8203 20.9106 67.9027 21.0497 65.8235C21.1887 63.7442 21.8671 52.3527 21.6679 50.7937C21.6397 50.5713 21.6078 50.313 21.5758 50.0302C21.5627 49.9134 21.5495 49.7946 21.5364 49.6702C21.5364 49.6118 21.5213 49.5514 21.5157 49.4911C21.3391 47.8228 21.2 45.6682 21.5928 45.0348C22.0231 44.3354 26.3301 44.7784 29.2183 44.6973C32.1066 44.6163 45.8149 44.5088 49.6409 44.7784C53.4668 45.048 68.5075 45.4174 73.1903 45.4363C77.8731 45.4551 80.0849 45.097 80.6223 45.6776C80.9079 45.9849 80.8666 47.9944 80.7783 50.1905C80.7783 50.2527 80.7783 50.3149 80.7783 50.379C80.7783 50.5015 80.7689 50.6259 80.7632 50.756C80.6881 52.5318 80.596 54.3471 80.6298 55.4178C80.7012 57.9288 81 78.6157 81 79.7317Z" fill="white"/>
<path opacity="0.8" d="M80.8195 82.158C80.2557 85.9281 78.3634 89.3665 75.1238 88.9688C69.6404 88.2939 48.564 88.1092 44.2814 88.0903C39.9988 88.0715 31.3341 88.1431 28.3406 88.4033C26.4615 88.5691 24.9582 89.1422 23.9979 88.5239C22.7032 87.685 22.1188 84.7858 21.587 82.3031C21.555 82.1599 21.5268 81.9864 21.4987 81.7828C21.9854 83.9658 22.5754 86.1958 23.6973 86.914C24.6631 87.5323 26.189 87.6681 28.0888 87.4984C31.1105 87.2345 46.9686 86.4541 51.3 86.4748C55.6314 86.4955 69.8471 87.3174 75.3925 87.9923C78.1943 88.3429 80.0039 85.2382 80.8195 82.158Z" fill="white"/>
<path opacity="0.4" d="M76.4451 81.1793C76.1407 84.1031 75.436 86.3614 73.9572 86.3614C71.5406 86.3614 69.1108 86.2389 66.6792 86.0919C63.5993 85.9034 60.5156 85.679 57.4489 85.6187C53.2158 85.5333 48.9827 85.4773 44.7496 85.4509C41.6641 85.4359 38.5766 85.4509 35.493 85.5226C34.5759 85.5452 33.6602 85.5729 32.7457 85.6055C31.3551 85.6564 28.7769 86.4576 27.5367 86.0994C26.4919 85.7997 26.2213 83.1379 26.0127 81.9051L25.9507 81.5281C25.1596 76.5062 25.3118 70.9377 25.5391 65.8819C25.821 59.6215 26.0409 53.5289 25.8173 47.2817C28.9874 47.2629 32.1575 47.2478 35.3276 47.2535C41.0721 47.2535 46.8186 47.3307 52.5612 47.5777C57.3079 47.7813 62.0603 47.9547 66.8127 48.0188C69.9959 48.0659 73.1792 48.0659 76.3625 48C76.3362 50.2495 76.318 52.494 76.308 54.7335C76.2892 58.5313 76.2992 62.3304 76.338 66.1307C76.3455 66.9262 76.3549 67.7223 76.3662 68.5191C76.3869 69.9895 76.9394 76.4553 76.4451 81.1793Z" fill="#FFFAE5"/>
<path d="M36.2596 85.5074L35.4929 85.5225C35.4609 85.1304 35.4327 84.7685 35.4064 84.4782C34.869 78.4817 34.9648 71.7859 35.1114 65.714C35.2599 59.4933 35.382 53.4139 35.3275 47.2402H36.3366C36.3366 53.3271 36.2389 59.3707 36.1224 65.5255C36.0002 71.9763 35.9138 79.0077 36.2596 85.5074Z" fill="white"/>
<path d="M66.6791 86.0917L65.9011 86.0427C66.1379 79.5693 65.8391 71.1732 65.8259 69.1938C65.7846 62.1078 65.779 55.0557 65.7977 47.9923L66.8125 48.0092C66.7805 54.9426 66.7805 61.8495 66.8332 68.7999C66.8501 70.8094 67.3105 80.674 66.6791 86.0917Z" fill="white"/>
<path d="M78.1757 51.1009C78.1231 56.9051 78.1269 62.6886 78.2152 68.5078C78.2509 70.9056 79.7805 86.3596 75.6295 86.3596C69.7553 86.3596 63.8078 85.7281 57.9186 85.6169C53.3773 85.5314 48.8354 85.4761 44.2929 85.451C40.0009 85.4302 35.7033 85.451 31.4151 85.6055C29.9231 85.6564 27.157 86.4557 25.8247 86.0994C24.6972 85.7997 24.4134 83.1361 24.1917 81.9051C23.2671 76.7815 23.44 71.0602 23.6824 65.8819C23.9399 60.5622 24.1485 55.3631 24.0583 50.0887" fill="white"/>
<path d="M78.1757 51.1009C78.1231 56.9051 78.1269 62.6886 78.2152 68.5078C78.2509 70.9056 79.7805 86.3596 75.6295 86.3596C69.7553 86.3596 63.8078 85.7281 57.9186 85.6169C53.3773 85.5314 48.8354 85.4761 44.2929 85.451C40.0009 85.4302 35.7033 85.451 31.4151 85.6055C29.9231 85.6564 27.157 86.4557 25.8247 86.0994C24.6972 85.7997 24.4134 83.1361 24.1917 81.9051C23.2671 76.7815 23.44 71.0602 23.6824 65.8819C23.9399 60.5622 24.1485 55.3631 24.0583 50.0887" stroke="#2684FF" stroke-width="0.714058" stroke-linecap="round" stroke-linejoin="round" stroke-dasharray="2.86 2.86"/>
<path opacity="0.25" d="M80.8402 48.0624C80.8233 47.265 80.7613 46.7013 80.6222 46.5543C80.0848 45.9737 77.873 46.3337 73.1902 46.313C68.5074 46.2923 53.4592 45.9134 49.6408 45.6551C45.8224 45.3969 32.1065 45.4949 29.2183 45.5741C26.33 45.6532 22.023 45.2121 21.5927 45.9115C21.4424 46.1547 21.3691 46.6241 21.3484 47.2028C21.3183 46.2357 21.371 45.3931 21.5927 45.0349C22.023 44.3356 26.33 44.7786 29.2183 44.6975C32.1065 44.6164 45.8149 44.509 49.6408 44.7786C53.4667 45.0481 68.5074 45.4176 73.1902 45.4364C77.873 45.4553 80.0848 45.0971 80.6222 45.6777C80.8102 45.8794 80.8571 46.8201 80.8402 48.0624Z" fill="white"/>
<path opacity="0.4" d="M62.4717 47.1196C62.3233 41.7924 62.2105 36.4029 60.3539 31.3471C59.4416 28.8788 58.7499 26.334 58.2869 23.7427C57.8678 21.4184 57.4074 18.947 55.906 17.0488C53.1136 13.5199 47.9704 14.2532 45.2869 17.4616C44.0768 18.9018 43.2913 20.6267 42.7971 22.425C42.2333 24.4986 42.254 26.5289 42.2653 28.6458C42.2784 30.9946 41.5136 33.2511 40.5891 35.3793C39.9972 36.7328 39.3113 38.0467 38.7344 39.4078C38.1349 40.8159 37.9827 42.2901 37.8061 43.7962C37.7816 42.1487 37.7685 40.7688 38.3097 39.1684C39.4935 35.6621 41.4234 31.9692 41.0175 28.1538C40.6802 25.2881 41.0566 22.3832 42.1131 19.6992C43.5074 16.2287 46.2829 13.4068 50.1389 13.0411C54.0851 12.6641 57.18 14.913 58.5631 18.5512C59.7883 21.7803 59.6906 25.2885 60.6865 28.5666C61.2691 30.4951 61.9681 32.2878 62.3007 34.2954C63.0054 38.5482 62.8194 42.8443 62.4717 47.1196Z" fill="#FFFAE5"/>
<path d="M40.2168 45.7116H38.4279C38.3241 45.7116 38.24 45.796 38.24 45.9001V47.5043C38.24 47.6084 38.3241 47.6928 38.4279 47.6928H40.2168C40.3206 47.6928 40.4048 47.6084 40.4048 47.5043V45.9001C40.4048 45.796 40.3206 45.7116 40.2168 45.7116Z" fill="white" stroke="#2684FF" stroke-width="0.476038" stroke-linecap="round" stroke-linejoin="round" stroke-dasharray="1.43 1.43"/>
<path d="M38.3001 47.657L40.3521 45.7531" stroke="#2684FF" stroke-width="0.476038" stroke-linecap="round" stroke-linejoin="round" stroke-dasharray="1.43 1.43"/>
<path d="M38.2665 45.7812L40.3523 47.6493" stroke="#2684FF" stroke-width="0.476038" stroke-linecap="round" stroke-linejoin="round" stroke-dasharray="1.43 1.43"/>
<path d="M61.9491 46.1711L59.9813 46.0548C59.8777 46.0487 59.7888 46.128 59.7827 46.2319L59.6789 48.0008C59.6727 48.1048 59.7518 48.194 59.8554 48.2001L61.8232 48.3163C61.9268 48.3225 62.0157 48.2432 62.0218 48.1392L62.1257 46.3703C62.1318 46.2664 62.0527 46.1772 61.9491 46.1711Z" fill="white" stroke="#2684FF" stroke-width="0.476038" stroke-linecap="round" stroke-linejoin="round" stroke-dasharray="1.43 1.43"/>
<path d="M59.7392 48.1528L62.0806 46.2225" stroke="#2684FF" stroke-width="0.476038" stroke-linecap="round" stroke-linejoin="round" stroke-dasharray="1.43 1.43"/>
<path d="M59.8221 46.1204L61.9605 48.277" stroke="#2684FF" stroke-width="0.476038" stroke-linecap="round" stroke-linejoin="round" stroke-dasharray="1.43 1.43"/>
<path d="M79.6184 50.2C78.4858 49.8684 76.743 50.0498 72.46 50.0315C67.9219 50.0132 53.3391 49.6431 49.6388 49.3921C45.9385 49.1412 32.6467 49.2364 29.8478 49.3134C27.0489 49.3903 23.9714 48.8646 22.3816 49.5863" fill="white"/>
<path d="M79.6184 50.2C78.4858 49.8684 76.743 50.0498 72.46 50.0315C67.9219 50.0132 53.3391 49.6431 49.6388 49.3921C45.9385 49.1412 32.6467 49.2364 29.8478 49.3134C27.0489 49.3903 23.9714 48.8646 22.3816 49.5863" stroke="#2684FF" stroke-width="0.7" stroke-linecap="round" stroke-linejoin="round" stroke-dasharray="1.43 1.43"/>
<path opacity="0.4" d="M80.7707 50.3771C80.7707 50.4996 80.7613 50.624 80.7557 50.7541C79.5888 50.3319 77.8412 50.5411 73.1903 50.5204C68.5075 50.5015 53.4593 50.1207 49.6408 49.8625C45.8224 49.6042 32.1066 49.7022 29.2183 49.7814C26.3658 49.8606 23.2314 49.3328 21.5758 50.0359C21.5627 49.919 21.5495 49.8003 21.5364 49.6758C23.1806 48.9463 26.3432 49.4873 29.2183 49.4044C32.0934 49.3215 45.8149 49.2159 49.6408 49.4855C53.4668 49.755 68.5075 50.1245 73.1903 50.1433C77.8731 50.1622 79.6038 49.9473 80.7707 50.3771Z" fill="white"/>
<g filter="url(#filter0_d_224_654)">
<path d="M45.9274 60.3683C43.9419 60.3683 43.6567 62.3812 43.7623 63.3877L43.9735 71.5456C43.9735 72.9865 45.6281 73.2407 46.561 73.1878C48.8845 72.9052 53.9011 72.2872 55.3797 72.0753C56.8583 71.8634 57.37 70.5921 57.2279 69.6915C56.8935 67.5726 56.2774 63.1229 56.0662 62.0634C55.8576 61.0171 54.7988 60.3683 53.8483 60.3683H45.9274Z" fill="white"/>
</g>
<path fill-rule="evenodd" clip-rule="evenodd" d="M50.5022 62.2756V61.587H51.1359V62.2756H50.5022ZM49.2877 62.4875V61.7989H49.9213V62.4875H49.2877ZM45.8024 63.547V62.2227H46.4361V63.547H45.8024ZM53.8827 65.2665L53.6715 62.5119L54.3033 62.4631L54.5145 65.2177L53.8827 65.2665ZM53.3537 62.4875V63.2291H52.7201V62.4875H53.3537ZM47.3866 63.3881V62.7524H48.0203V63.3881H47.3866ZM49.8685 63.547V62.8583H50.5022V63.547H49.8685ZM45.2227 66.0111L44.9587 62.9386L45.59 62.884L45.8541 65.9565L45.2227 66.0111ZM51.7695 63.7059V63.0173H52.4032V63.7059H51.7695ZM50.6078 64.1827V63.547H51.2415V64.1827H50.6078ZM48.2315 64.3416V63.7059H48.8652V64.3416H48.2315ZM52.456 64.3416V63.7059H53.0897V64.3416H52.456ZM47.1754 64.5535V63.9178H47.8091V64.5535H47.1754ZM51.6639 65.0302V64.3416H52.2976V65.0302H51.6639ZM49.0236 65.0302V64.3946H49.6573V65.0302H49.0236ZM46.1193 65.2421V64.6594H46.753V65.2421H46.1193ZM52.5616 65.56V64.8713H53.1953V65.56H52.5616ZM49.9213 65.7189V65.0302H50.555V65.7189H49.9213ZM47.281 65.7189V65.1362H47.9147V65.7189H47.281Z" fill="black"/>
<path fill-rule="evenodd" clip-rule="evenodd" d="M45.1907 67.2038C45.3355 67.1865 45.4668 67.2902 45.4841 67.4355L46.0121 71.8852C46.0294 72.0305 45.926 72.1623 45.7812 72.1796C45.6364 72.1968 45.505 72.0931 45.4878 71.9479L44.9597 67.4981C44.9425 67.3529 45.0459 67.2211 45.1907 67.2038Z" fill="black"/>
<path fill-rule="evenodd" clip-rule="evenodd" d="M48.6826 67.0696C48.828 67.0582 48.955 67.1672 48.9664 67.313L49.2952 71.5275C49.3066 71.6734 49.1979 71.8009 49.0526 71.8123C48.9072 71.8237 48.7801 71.7147 48.7687 71.5689L48.44 67.3543C48.4286 67.2085 48.5372 67.081 48.6826 67.0696Z" fill="black"/>
<path fill-rule="evenodd" clip-rule="evenodd" d="M51.0113 66.6254C51.1564 66.6102 51.2862 66.7159 51.3013 66.8614L51.7671 71.3536C51.7822 71.4991 51.6768 71.6293 51.5318 71.6445C51.3868 71.6596 51.257 71.5539 51.2419 71.4084L50.776 66.9162C50.7609 66.7707 50.8663 66.6405 51.0113 66.6254Z" fill="black"/>
<path fill-rule="evenodd" clip-rule="evenodd" d="M54.288 66.4978C54.4331 66.4834 54.5624 66.5898 54.5767 66.7354L54.9897 70.9369C55.004 71.0825 54.8979 71.2121 54.7528 71.2265C54.6077 71.2409 54.4785 71.1345 54.4642 70.9889L54.0512 66.7873C54.0369 66.6418 54.1429 66.5121 54.288 66.4978Z" fill="black"/>
<path fill-rule="evenodd" clip-rule="evenodd" d="M55.2486 66.7252C55.3069 66.7229 55.3559 66.7685 55.3582 66.827L55.5176 70.9981C55.5198 71.0566 55.4744 71.1058 55.4161 71.1081C55.3578 71.1103 55.3088 71.0647 55.3065 71.0063L55.1471 66.8351C55.1448 66.7766 55.1903 66.7274 55.2486 66.7252Z" fill="black"/>
<path fill-rule="evenodd" clip-rule="evenodd" d="M55.6914 66.6198C55.7495 66.615 55.8006 66.6583 55.8055 66.7166L56.1522 70.8763C56.1571 70.9346 56.1139 70.9858 56.0558 70.9907C55.9976 70.9956 55.9466 70.9522 55.9417 70.8939L55.595 66.7342C55.5901 66.6759 55.6333 66.6247 55.6914 66.6198Z" fill="black"/>
<path fill-rule="evenodd" clip-rule="evenodd" d="M53.1556 66.6199C53.2137 66.6145 53.2651 66.6574 53.2705 66.7157L53.6703 71.0595C53.6756 71.1177 53.6329 71.1693 53.5748 71.1747C53.5167 71.1801 53.4653 71.1372 53.4599 71.0789L53.0602 66.7351C53.0548 66.6769 53.0976 66.6253 53.1556 66.6199Z" fill="black"/>
<path fill-rule="evenodd" clip-rule="evenodd" d="M52.5277 66.6199C52.5858 66.6145 52.6372 66.6574 52.6425 66.7157L53.0423 71.0595C53.0477 71.1177 53.0049 71.1693 52.9469 71.1747C52.8888 71.1801 52.8373 71.1372 52.832 71.0789L52.4322 66.7351C52.4269 66.6769 52.4696 66.6253 52.5277 66.6199Z" fill="black"/>
<path fill-rule="evenodd" clip-rule="evenodd" d="M51.894 66.7257C51.9521 66.7203 52.0036 66.7632 52.0089 66.8214L52.4087 71.1652C52.414 71.2235 52.3713 71.2751 52.3132 71.2805C52.2551 71.2859 52.2037 71.243 52.1983 71.1847L51.7986 66.8409C51.7932 66.7827 51.836 66.7311 51.894 66.7257Z" fill="black"/>
<path fill-rule="evenodd" clip-rule="evenodd" d="M49.8875 67.0436C49.9456 67.0382 49.997 67.081 50.0024 67.1393L50.4021 71.4831C50.4075 71.5414 50.3648 71.593 50.3067 71.5984C50.2486 71.6037 50.1972 71.5609 50.1918 71.5026L49.7921 67.1588C49.7867 67.1005 49.8294 67.0489 49.8875 67.0436Z" fill="black"/>
<path fill-rule="evenodd" clip-rule="evenodd" d="M49.3593 67.1493C49.4174 67.1439 49.4688 67.1868 49.4742 67.2451L49.8739 71.5889C49.8793 71.6472 49.8365 71.6987 49.7785 71.7041C49.7204 71.7095 49.6689 71.6666 49.6636 71.6084L49.2638 67.2646C49.2585 67.2063 49.3012 67.1547 49.3593 67.1493Z" fill="black"/>
<path fill-rule="evenodd" clip-rule="evenodd" d="M47.4584 67.1493C47.5165 67.1439 47.5679 67.1868 47.5733 67.2451L47.9731 71.5889C47.9784 71.6472 47.9357 71.6987 47.8776 71.7041C47.8195 71.7095 47.7681 71.6666 47.7627 71.6084L47.363 67.2646C47.3576 67.2063 47.4003 67.1547 47.4584 67.1493Z" fill="black"/>
<path fill-rule="evenodd" clip-rule="evenodd" d="M46.7191 67.1493C46.7772 67.1439 46.8287 67.1868 46.834 67.2451L47.2338 71.5889C47.2391 71.6472 47.1964 71.6987 47.1383 71.7041C47.0802 71.7095 47.0288 71.6666 47.0234 71.6084L46.6237 67.2646C46.6183 67.2063 46.6611 67.1547 46.7191 67.1493Z" fill="black"/>
<path fill-rule="evenodd" clip-rule="evenodd" d="M46.1911 67.2554C46.2492 67.25 46.3006 67.2929 46.306 67.3512L46.7058 71.695C46.7111 71.7532 46.6684 71.8048 46.6103 71.8102C46.5522 71.8156 46.5008 71.7727 46.4954 71.7144L46.0957 67.3706C46.0903 67.3124 46.133 67.2608 46.1911 67.2554Z" fill="black"/>
<path fill-rule="evenodd" clip-rule="evenodd" d="M54.9557 36.5654L64.1685 37.6464L63.7857 45.2847L57.8351 45.116L54.9557 36.5654Z" fill="#FF8F73"/>
<path fill-rule="evenodd" clip-rule="evenodd" d="M71.8135 42.6766L77.1362 42.283L76.9788 45.422L73.1655 45.4263L71.8135 42.6766Z" fill="#FF8F73"/>
<path fill-rule="evenodd" clip-rule="evenodd" d="M42.8782 44.6201L42.6214 32.5919L58.1824 33.3768L57.8352 45.1161L42.8782 44.6201Z" fill="#FFC400"/>
<g style="mix-blend-mode:soft-light">
<path fill-rule="evenodd" clip-rule="evenodd" d="M49.5208 32.9367L49.3333 41.129L54.0118 41.2797L55.0985 33.218L49.5208 32.9367Z" fill="#FFF0B3"/>
</g>
<path fill-rule="evenodd" clip-rule="evenodd" d="M63.5214 45.2408L63.747 40.9095L73.7213 40.285L73.4104 45.4888L63.5214 45.2408Z" fill="#FFBDAD"/>
<path opacity="0.5" fill-rule="evenodd" clip-rule="evenodd" d="M41.2016 42.7769L42.8906 42.8621L42.8783 44.6201L40.7769 44.6201L41.2016 42.7769Z" fill="#FF8F73"/>
<path fill-rule="evenodd" clip-rule="evenodd" d="M25.3529 44.62L25.5099 41.4876L41.1738 41.5303L41.024 44.62L25.3529 44.62Z" fill="#2684FF"/>
<path d="M62.4714 47.1196C62.4394 47.4967 62.4883 48.8879 62.2346 49.0255C61.9527 49.18 61.1278 49.0255 60.8158 49.0255C60.4137 49.0255 59.5944 48.9765 59.1923 48.9765C59.2017 43.5832 60.0849 38.1881 58.4256 32.9532C57.9765 31.5319 57.2981 30.2048 56.8659 28.774C55.9507 25.6787 55.8136 22.1215 54.1204 19.3052C52.3371 16.34 48.5262 17.4672 46.7711 19.85C45.3167 21.8293 44.3602 24.6871 44.5706 27.1585C44.8506 30.4668 44.0069 33.5527 42.7967 36.6103C42.0112 38.6009 40.9007 40.5011 40.865 42.6708C40.8412 44.2619 40.8199 45.8522 40.8011 47.442C40.8011 47.5985 40.8894 48.2111 40.7879 48.3393C40.6865 48.4675 40.5117 48.3996 40.3313 48.3996H37.8734C37.8521 46.8677 37.832 45.3357 37.8132 43.8038C37.7888 42.1562 37.7757 40.7763 38.3169 39.1759C39.5007 35.6696 41.4306 31.9768 41.0247 28.1613C40.6873 25.2956 41.0638 22.3907 42.1202 19.7067C43.507 16.2287 46.2825 13.4068 50.1385 13.0411C54.0847 12.6641 57.1797 14.913 58.5627 18.5512C59.7879 21.7803 59.6902 25.2885 60.6862 28.5666C61.2687 30.4951 61.9678 32.2878 62.3004 34.2954C63.005 38.5482 62.819 42.8443 62.4714 47.1196Z" fill="white"/>
<path d="M80.7782 50.1906C79.6112 49.7589 77.8711 49.9701 73.1902 49.9493C68.5093 49.9286 53.4592 49.5497 49.6408 49.2914C45.8224 49.0332 32.1065 49.1312 29.2182 49.2104C26.33 49.2896 23.1542 48.7485 21.5138 49.4913C21.3371 47.823 21.1981 45.6683 21.5908 45.0349C22.0211 44.3356 26.3281 44.7786 29.2164 44.6975C32.1046 44.6164 45.813 44.509 49.6389 44.7786C53.4648 45.0481 68.5055 45.4176 73.1883 45.4364C77.8712 45.4553 80.0829 45.0971 80.6203 45.6777C80.9078 45.9888 80.8665 47.9945 80.7782 50.1906Z" fill="white"/>
<defs>
<filter id="filter0_d_224_654" x="43.5434" y="60.1683" width="13.9073" height="13.2259" filterUnits="userSpaceOnUse" color-interpolation-filters="sRGB">
<feFlood flood-opacity="0" result="BackgroundImageFix"/>
<feColorMatrix in="SourceAlpha" type="matrix" values="0 0 0 0 0 0 0 0 0 0 0 0 0 0 0 0 0 0 127 0" result="hardAlpha"/>
<feOffset/>
<feGaussianBlur stdDeviation="0.1"/>
<feComposite in2="hardAlpha" operator="out"/>
<feColorMatrix type="matrix" values="0 0 0 0 0 0 0 0 0 0 0 0 0 0 0 0 0 0 0.5 0"/>
<feBlend mode="normal" in2="BackgroundImageFix" result="effect1_dropShadow_224_654"/>
<feBlend mode="normal" in="SourceGraphic" in2="effect1_dropShadow_224_654" result="shape"/>
</filter>
</defs>
</svg>
