<?xml version="1.0" encoding="UTF-8"?>
<svg width="328" height="164" viewBox="0 0 328 164" fill="none" xmlns="http://www.w3.org/2000/svg">
<g clip-path="url(#clip0_1118_7470)">
<rect width="328" height="164" rx="8" fill="#EEEEEE"/>
<path d="M129.969 20.125H225.875V143.875H129.969V20.125Z" fill="#D5AB88"/>
<rect x="198.031" y="20.125" width="18.5625" height="123.75" fill="#F3D2A2"/>
<rect x="102.489" y="39.0901" width="123.386" height="9.28125" fill="#DF4535"/>
<path fill-rule="evenodd" clip-rule="evenodd" d="M216.594 20.125H225.875V39.0742V48.3555V143.875H216.594V110.087H130.25V100.805H216.594V48.3555H188.177V53.261C188.177 54.8405 186.896 56.1209 185.317 56.1209H161.246C159.666 56.1209 158.386 54.8405 158.386 53.261V48.3555H129.969L129.969 143.875H120.688V20.125H129.969L129.969 39.0742H216.594V20.125Z" fill="#AF7357"/>
<path d="M102.125 20.125H120.687V143.875H102.125V20.125Z" fill="#F3D2A2"/>
<path fill-rule="evenodd" clip-rule="evenodd" d="M162.199 42.8932H165.953V50.2816H164.94V51.6895H162.199V42.8932ZM182.453 50.2816V42.8932H181.689V50.2816H182.453ZM180.925 50.2816V42.8932H180.16V50.2816H180.925ZM179.014 50.2816V42.8932H178.25V50.2816H179.014ZM175.957 50.2816V42.8932H175.192V50.2816H175.957ZM174.046 50.2816V42.8932H173.282V50.2816H174.046ZM172.556 50.2816V42.8932H171.792V50.2816H172.556ZM169.885 50.2816V42.8932H167.21V50.2816H169.885ZM183.6 42.8932H184.364V51.6895H183.6V42.8932ZM166.012 51.3543H166.727V52.3076H166.012V51.3543ZM169.468 51.3543H168.753V52.3076H169.468V51.3543ZM170.898 51.3543H171.613V52.3076H170.898V51.3543ZM173.758 51.3543H173.043V52.3076H173.758V51.3543ZM175.188 51.3543H175.903V52.3076H175.188V51.3543ZM178.048 51.3543H177.333V52.3076H178.048V51.3543ZM179.478 51.3543H180.193V52.3076H179.478V51.3543ZM182.338 51.3543H181.623V52.3076H182.338V51.3543Z" fill="white"/>
<path d="M230.735 82.1874C230.814 81.9435 230.632 81.6936 230.376 81.6936H223.244C223.08 81.6936 222.935 81.7992 222.885 81.9551L218.76 94.7134C218.681 94.9573 218.863 95.2072 219.119 95.2072H226.251C226.415 95.2072 226.56 95.1016 226.61 94.9458L230.735 82.1874Z" fill="#112AB8"/>
<path d="M238.735 80.8315H222.032L228.783 112.531C229.182 114.405 230.837 115.745 232.754 115.745H241.154C243.737 115.745 245.663 113.365 245.125 110.839L238.735 80.8315Z" fill="#1C41D6"/>
<path d="M250.48 70.7026C250.48 63.8586 244.932 58.3105 238.088 58.3105H191.446C190.834 58.3105 190.384 58.8836 190.528 59.478L196.103 82.3738C196.206 82.7968 196.585 83.0946 197.02 83.0946H238.088C244.932 83.0946 250.48 77.5465 250.48 70.7026Z" fill="#ABC8FF"/>
<path d="M245.092 70.7024C245.092 66.8341 241.956 63.6982 238.088 63.6982H211.168C210.555 63.6982 210.105 64.273 210.251 64.868L213.235 76.9881C213.339 77.4101 213.717 77.7066 214.152 77.7066H238.088C241.956 77.7066 245.092 74.5707 245.092 70.7024Z" fill="#5482FF"/>
<path d="M202.851 58.3105H191.446C190.834 58.3105 190.383 58.8836 190.528 59.478L196.103 82.3738C196.206 82.7968 196.585 83.0946 197.02 83.0946H208.886L202.851 58.3105Z" fill="#1C41D6"/>
</g>
<defs>
<clipPath id="clip0_1118_7470">
<rect width="328" height="164" fill="white"/>
</clipPath>
</defs>
</svg>
