<?xml version="1.0" encoding="UTF-8"?>
<svg width="328" height="164" viewBox="0 0 328 164" fill="none" xmlns="http://www.w3.org/2000/svg">
<g clip-path="url(#clip0_86_6789)">
<rect width="328" height="164" rx="8" fill="#FEF7E9"/>
<path d="M126.859 14.0625H232.938V150.938H126.859V14.0625Z" fill="#D5AB88"/>
<rect x="202.141" y="14.0625" width="20.5312" height="136.875" fill="#F3D2A2"/>
<rect x="96.4646" y="35.0391" width="136.473" height="10.2656" fill="#DF4535"/>
<path d="M126.859 35.0215H222.672V14.0625H232.938V150.938H222.672V113.565H127.171V103.3H222.672V45.2871H191.241V50.7129C191.241 52.4598 189.825 53.8758 188.078 53.876H161.453C159.706 53.8758 158.29 52.4598 158.29 50.7129V45.2871H126.859V150.938H116.594V14.0625H126.859V35.0215Z" fill="#AF7357"/>
<path d="M96.0625 14.0625H116.594V150.938H96.0625V14.0625Z" fill="#F3D2A2"/>
<path d="M167.517 49.6592H166.726V48.6045H167.517V49.6592ZM170.548 49.6592H169.757V48.6045H170.548V49.6592ZM172.92 49.6592H172.13V48.6045H172.92V49.6592ZM175.293 49.6592H174.502V48.6045H175.293V49.6592ZM177.665 49.6592H176.874V48.6045H177.665V49.6592ZM180.038 49.6592H179.247V48.6045H180.038V49.6592ZM182.41 49.6592H181.619V48.6045H182.41V49.6592ZM184.782 49.6592H183.992V48.6045H184.782V49.6592ZM166.659 47.4189H165.539V48.9766H162.508V39.2471H166.659V47.4189ZM187.023 48.9766H186.178V39.2471H187.023V48.9766ZM171.009 47.4189H168.051V39.2471H171.009V47.4189ZM173.964 47.4189H173.118V39.2471H173.964V47.4189ZM175.611 47.4189H174.766V39.2471H175.611V47.4189ZM177.725 47.4189H176.879V39.2471H177.725V47.4189ZM181.105 47.4189H180.261V39.2471H181.105V47.4189ZM183.219 47.4189H182.374V39.2471H183.219V47.4189ZM184.91 47.4189H184.064V39.2471H184.91V47.4189Z" fill="white"/>
<path d="M238.313 82.7073C238.4 82.4376 238.199 82.1611 237.916 82.1611H230.028C229.847 82.1611 229.686 82.2779 229.63 82.4503L225.068 96.5618C224.981 96.8316 225.182 97.108 225.466 97.108H233.353C233.535 97.108 233.695 96.9912 233.751 96.8188L238.313 82.7073Z" fill="#112AB8"/>
<path d="M247.161 81.208H228.687L236.154 116.269C236.595 118.342 238.426 119.824 240.546 119.824H249.837C252.694 119.824 254.824 117.192 254.229 114.398L247.161 81.208Z" fill="#1C41D6"/>
<path d="M260.152 70.0042C260.152 62.4344 254.016 56.2979 246.446 56.2979H194.856C194.18 56.2979 193.682 56.9316 193.842 57.5892L200.008 82.9133C200.122 83.3812 200.541 83.7105 201.022 83.7105H246.446C254.016 83.7105 260.152 77.574 260.152 70.0042Z" fill="#ABC8FF"/>
<path d="M254.193 70.0039C254.193 65.7253 250.724 62.2568 246.446 62.2568H216.671C215.993 62.2568 215.495 62.8925 215.657 63.5507L218.957 76.9563C219.072 77.4229 219.49 77.7509 219.971 77.7509H246.446C250.724 77.7509 254.193 74.2825 254.193 70.0039Z" fill="#5482FF"/>
<path d="M207.472 56.2979H194.856C194.18 56.2979 193.682 56.9316 193.842 57.5892L200.008 82.9133C200.122 83.3812 200.541 83.7105 201.022 83.7105H214.146L207.472 56.2979Z" fill="#1C41D6"/>
</g>
<defs>
<clipPath id="clip0_86_6789">
<rect width="328" height="164" fill="white"/>
</clipPath>
</defs>
</svg>
