<?xml version="1.0" encoding="UTF-8"?>
<svg width="20" height="20" viewBox="0 0 20 20" fill="none" xmlns="http://www.w3.org/2000/svg">
<path d="M10 18.6276C8.808 18.6276 7.68737 18.401 6.63815 17.9478C5.58894 17.4946 4.67363 16.8773 3.89223 16.0959C3.11083 15.3145 2.49548 14.3992 2.04619 13.35C1.59694 12.3007 1.37231 11.1762 1.37231 9.97631C1.37231 8.79213 1.59891 7.67543 2.05211 6.62621C2.50531 5.57698 3.12065 4.66364 3.89813 3.88616C4.67561 3.10869 5.58896 2.49335 6.63817 2.04014C7.68739 1.58695 8.80802 1.36035 10 1.36035C11.1921 1.36035 12.3127 1.58695 13.3619 2.04014C14.4111 2.49335 15.3245 3.10869 16.102 3.88616C16.8794 4.66364 17.4967 5.57698 17.9539 6.62621C18.411 7.67543 18.6395 8.79213 18.6395 9.97631C18.6395 11.1762 18.4129 12.3007 17.9598 13.35C17.5065 14.3992 16.8892 15.3145 16.1078 16.0959C15.3264 16.8773 14.4111 17.4946 13.3619 17.9478C12.3127 18.401 11.1921 18.6276 10 18.6276ZM10 16.9772C10.8003 16.9772 11.5751 16.8505 12.3244 16.5972C13.0737 16.3439 13.7452 15.9582 14.3388 15.4401L4.53625 5.6611C4.04772 6.26859 3.67333 6.94276 3.41306 7.68362C3.1528 8.4245 3.02267 9.18873 3.02267 9.97631C3.02267 11.9302 3.69906 13.5855 5.05184 14.9422C6.4046 16.2989 8.054 16.9772 10 16.9772ZM15.4547 14.3033C15.9137 13.7018 16.2822 13.0304 16.5603 12.2889C16.8383 11.5475 16.9774 10.7766 16.9774 9.97631C16.9774 8.03813 16.301 6.39461 14.9482 5.04577C13.5954 3.69692 11.9461 3.0225 10 3.0225C9.20459 3.0225 8.44037 3.15067 7.70736 3.40702C6.97433 3.66335 6.30015 4.0388 5.68481 4.53337L15.4547 14.3033Z" fill="#F2A29E"/>
</svg>
