<?xml version="1.0" encoding="UTF-8"?>
<svg xmlns="http://www.w3.org/2000/svg" width="20" height="20" viewBox="0 0 20 20" fill="none">
  <path d="M3.85594 18.6276C3.40446 18.6276 3.01652 18.4654 2.69215 18.141C2.36776 17.8166 2.20557 17.4287 2.20557 16.9772V4.2725C2.20557 3.81777 2.36776 3.42707 2.69215 3.10037C3.01652 2.77369 3.40446 2.61035 3.85594 2.61035H5.10413V2.133C5.10413 1.91937 5.18055 1.73719 5.3334 1.58646C5.48625 1.43572 5.66813 1.36035 5.87905 1.36035C6.09588 1.36035 6.28 1.43572 6.4314 1.58646C6.58279 1.73719 6.65848 1.91937 6.65848 2.133V2.61035H13.3414V2.133C13.3414 1.91937 13.4179 1.73719 13.5707 1.58646C13.7235 1.43572 13.9054 1.36035 14.1164 1.36035C14.3332 1.36035 14.5173 1.43572 14.6687 1.58646C14.8201 1.73719 14.8958 1.91937 14.8958 2.133V2.61035H16.144C16.5987 2.61035 16.9894 2.77369 17.3161 3.10037C17.6428 3.42707 17.8061 3.81777 17.8061 4.2725V16.9772C17.8061 17.4287 17.6428 17.8166 17.3161 18.141C16.9894 18.4654 16.5987 18.6276 16.144 18.6276H3.85594ZM3.85594 16.9772H16.144V8.12485H3.85594V16.9772ZM3.85594 6.87485H16.144V4.2725H3.85594V6.87485ZM10.0012 11.7372C9.74542 11.7372 9.5306 11.6507 9.35675 11.4776C9.18291 11.3046 9.09598 11.0902 9.09598 10.8344C9.09598 10.5786 9.18249 10.3638 9.3555 10.19C9.52853 10.0161 9.74293 9.92921 9.99871 9.92921C10.2545 9.92921 10.4693 10.0157 10.6432 10.1887C10.817 10.3618 10.9039 10.5762 10.9039 10.8319C10.9039 11.0877 10.8174 11.3025 10.6444 11.4764C10.4714 11.6502 10.257 11.7372 10.0012 11.7372ZM6.66788 11.7372C6.41209 11.7372 6.19727 11.6507 6.02342 11.4776C5.84957 11.3046 5.76265 11.0902 5.76265 10.8344C5.76265 10.5786 5.84916 10.3638 6.02217 10.19C6.1952 10.0161 6.4096 9.92921 6.66538 9.92921C6.92117 9.92921 7.13599 10.0157 7.30984 10.1887C7.48368 10.3618 7.57061 10.5762 7.57061 10.8319C7.57061 11.0877 7.4841 11.3025 7.31109 11.4764C7.13806 11.6502 6.92366 11.7372 6.66788 11.7372ZM13.3345 11.7372C13.0898 11.7372 12.8777 11.6507 12.6983 11.4776C12.519 11.3046 12.4293 11.0902 12.4293 10.8344C12.4293 10.5786 12.5186 10.3638 12.6971 10.19C12.8756 10.0161 13.0892 9.92921 13.3379 9.92921C13.5866 9.92921 13.7987 10.0157 13.9741 10.1887C14.1496 10.3618 14.2373 10.5762 14.2373 10.8319C14.2373 11.0877 14.1508 11.3025 13.9778 11.4764C13.8047 11.6502 13.5903 11.7372 13.3345 11.7372ZM10.0012 15.0705C9.74542 15.0705 9.5306 14.9812 9.35675 14.8027C9.18291 14.6242 9.09598 14.4106 9.09598 14.1619C9.09598 13.9132 9.18249 13.7011 9.3555 13.5257C9.52853 13.3502 9.74293 13.2625 9.99871 13.2625C10.2545 13.2625 10.4693 13.349 10.6432 13.5221C10.817 13.6951 10.9039 13.9095 10.9039 14.1653C10.9039 14.4101 10.8174 14.6221 10.6444 14.8015C10.4714 14.9808 10.257 15.0705 10.0012 15.0705ZM6.66788 15.0705C6.41209 15.0705 6.19727 14.9812 6.02342 14.8027C5.84957 14.6242 5.76265 14.4106 5.76265 14.1619C5.76265 13.9132 5.84916 13.7011 6.02217 13.5257C6.1952 13.3502 6.4096 13.2625 6.66538 13.2625C6.92117 13.2625 7.13599 13.349 7.30984 13.5221C7.48368 13.6951 7.57061 13.9095 7.57061 14.1653C7.57061 14.4101 7.4841 14.6221 7.31109 14.8015C7.13806 14.9808 6.92366 15.0705 6.66788 15.0705ZM13.3345 15.0705C13.0898 15.0705 12.8777 14.9812 12.6983 14.8027C12.519 14.6242 12.4293 14.4106 12.4293 14.1619C12.4293 13.9132 12.5186 13.7011 12.6971 13.5257C12.8756 13.3502 13.0892 13.2625 13.3379 13.2625C13.5866 13.2625 13.7987 13.349 13.9741 13.5221C14.1496 13.6951 14.2373 13.9095 14.2373 14.1653C14.2373 14.4101 14.1508 14.6221 13.9778 14.8015C13.8047 14.9808 13.5903 15.0705 13.3345 15.0705Z" fill="#2A55E5"/>
</svg>

