<?xml version="1.0" encoding="UTF-8"?>
<svg width="20" height="20" viewBox="0 0 20 20" fill="none" xmlns="http://www.w3.org/2000/svg">
<g id="camera">
<path id="vector" d="M10.2709 7.32879H16.4692C16.0489 6.34812 15.4387 5.49094 14.6386 4.75725C13.8385 4.02356 12.9085 3.51087 11.8488 3.21921L9.90584 6.69383C9.82068 6.84419 9.82145 6.98761 9.90813 7.12408C9.99481 7.26056 10.1157 7.32879 10.2709 7.32879ZM7.07338 8.423C7.15159 8.56551 7.27083 8.63873 7.43111 8.64265C7.5914 8.64658 7.71944 8.57336 7.81523 8.423L10.9457 3.04077C10.8104 3.03473 10.6556 3.0302 10.4813 3.02719C10.307 3.02416 10.1466 3.02265 10 3.02265C9.00923 3.02265 8.10114 3.2032 7.27575 3.56431C6.45036 3.92542 5.71141 4.4215 5.0589 5.05254L7.07338 8.423ZM3.22623 11.8125H7.17936C7.34236 11.8125 7.46523 11.7462 7.54798 11.6137C7.63073 11.4811 7.62561 11.3397 7.53263 11.1893L4.49731 5.72375C4.00879 6.34089 3.64088 7.00814 3.39359 7.7255C3.14631 8.44285 3.02267 9.20213 3.02267 10.0034C3.02267 10.2692 3.03852 10.5776 3.07023 10.9284C3.10193 11.2793 3.15393 11.574 3.22623 11.8125ZM8.1839 16.76L10.1775 13.3152C10.2627 13.1727 10.2662 13.0298 10.188 12.8863C10.1098 12.7429 9.98854 12.6712 9.82429 12.6712H3.55167C3.94056 13.6362 4.53944 14.4875 5.34831 15.2251C6.15719 15.9627 7.10238 16.4743 8.1839 16.76ZM10.0016 16.9774C11.0006 16.9774 11.9123 16.7988 12.7369 16.4416C13.5615 16.0844 14.3001 15.5863 14.9529 14.9475L12.9357 11.5535C12.8469 11.4109 12.7243 11.3417 12.5679 11.3456C12.4115 11.3495 12.2908 11.4227 12.2056 11.5652L9.05438 16.9592C9.20353 16.9653 9.36257 16.9698 9.53148 16.9728C9.7004 16.9758 9.85711 16.9774 10.0016 16.9774ZM15.5236 14.2763C15.9408 13.74 16.2875 13.0963 16.5634 12.3451C16.8394 11.5939 16.9774 10.8162 16.9774 10.0118C16.9774 9.69838 16.9635 9.38345 16.9357 9.06702C16.9079 8.7506 16.858 8.45049 16.7858 8.16667H12.8415C12.682 8.16667 12.5565 8.23294 12.4651 8.3655C12.3737 8.49804 12.3744 8.63557 12.4674 8.77808L15.5236 14.2763ZM10 18.6277C8.82161 18.6277 7.70786 18.4011 6.65877 17.9479C5.6097 17.4947 4.69295 16.8759 3.90852 16.0915C3.12411 15.3071 2.50529 14.3903 2.05209 13.3413C1.5989 12.2922 1.37231 11.1784 1.37231 10C1.37231 8.80797 1.59891 7.69082 2.05211 6.64854C2.50531 5.60628 3.12361 4.69274 3.907 3.90792C4.69038 3.12311 5.60694 2.50234 6.65669 2.0456C7.70641 1.58887 8.82086 1.3605 10 1.3605C11.1921 1.3605 12.3088 1.58821 13.3503 2.04362C14.3919 2.49904 15.3061 3.12019 16.0929 3.90708C16.8798 4.69396 17.501 5.60816 17.9564 6.64969C18.4118 7.6912 18.6395 8.80797 18.6395 10C18.6395 11.1792 18.4112 12.2936 17.9544 13.3434C17.4977 14.3931 16.8769 15.3097 16.0921 16.093C15.3073 16.8764 14.3937 17.4947 13.3515 17.9479C12.3092 18.4011 11.1921 18.6277 10 18.6277Z" fill="#2A55E5"/>
</g>
</svg>
