<?xml version="1.0" encoding="UTF-8"?>
<svg width="132" height="90" viewBox="0 0 132 90" fill="none" xmlns="http://www.w3.org/2000/svg">
<path fill-rule="evenodd" clip-rule="evenodd" d="M20.0592 69.3515L11.649 66.0409C11.649 66.0409 9.17548 64.496 10.4123 62.0682C11.649 59.6404 19.0698 62.7303 19.0698 62.7303L49 71.5586L42.5687 72L20.0592 69.3515Z" fill="#FEC800"/>
<path fill-rule="evenodd" clip-rule="evenodd" d="M49.9021 72L31.3007 65.5942L22.7343 59.6811C22.7343 59.6811 21.2657 57.9565 22.7343 55.9855C24.2028 54.0145 27.1399 55.9855 27.1399 55.9855L57 71.5072L49.9021 72Z" fill="#FEC800"/>
<path fill-rule="evenodd" clip-rule="evenodd" d="M58.0515 72L40.2371 62.6815L37.5155 59.9111C37.5155 59.9111 36.2784 57.6444 38.0103 55.8815C39.7423 54.1185 42.4639 55.8815 42.4639 55.8815L63 71.4963L58.0515 72Z" fill="#FEC800"/>
<g clip-path="url(#clip0_27_2860)">
<rect x="17.5859" y="30.295" width="87" height="47" rx="3" transform="rotate(-20 17.5859 30.295)" fill="#1D54C9"/>
<path d="M25.1678 34.6096L23.5234 35.2082L25.1678 34.6096ZM24.8258 33.67L24.2273 32.0255C23.7911 32.1842 23.4359 32.5097 23.2398 32.9304C23.0436 33.351 23.0226 33.8323 23.1813 34.2685L24.8258 33.67ZM25.2957 33.4989L25.8942 35.1434L25.2957 33.4989ZM25.7655 33.3279L25.167 31.6835L25.7655 33.3279ZM38.1714 28.8125L37.5729 27.1681L38.1714 28.8125ZM38.6413 28.6415L40.2857 28.043C39.9552 27.1348 38.951 26.6665 38.0428 26.9971L38.6413 28.6415ZM38.9833 29.5812L39.5818 31.2257C40.4901 30.8951 40.9583 29.8909 40.6278 28.9827L38.9833 29.5812ZM26.1075 34.2676L25.509 32.6232C24.6008 32.9537 24.1325 33.9579 24.4631 34.8662L26.1075 34.2676ZM37.9773 66.8796L36.3328 67.4781C36.4916 67.9143 36.8171 68.2695 37.2377 68.4656C37.6584 68.6618 38.1397 68.6828 38.5758 68.524L37.9773 66.8796ZM50.3832 62.3642L49.7847 60.7197L50.3832 62.3642ZM50.8531 62.1932L52.4975 61.5946C52.167 60.6864 51.1628 60.2182 50.2546 60.5487L50.8531 62.1932ZM51.1951 63.1329L51.7936 64.7773C52.7019 64.4468 53.1701 63.4425 52.8396 62.5343L51.1951 63.1329ZM37.3796 68.1613L35.7352 68.7598C35.8939 69.196 36.2194 69.5512 36.64 69.7473C37.0607 69.9435 37.542 69.9645 37.9782 69.8058L37.3796 68.1613ZM37.2086 67.6914L38.8531 67.0929L37.2086 67.6914ZM37.0376 67.2216L38.6821 66.6231L37.0376 67.2216ZM26.8123 34.0111L26.6413 33.5413L23.3524 34.7383L23.5234 35.2082L26.8123 34.0111ZM26.6413 33.5413L26.4703 33.0714L23.1813 34.2685L23.3524 34.7383L26.6413 33.5413ZM25.4243 35.3144L25.8942 35.1434L24.6971 31.8545L24.2273 32.0255L25.4243 35.3144ZM25.8942 35.1434L26.364 34.9724L25.167 31.6835L24.6971 31.8545L25.8942 35.1434ZM37.5729 27.1681L25.167 31.6835L26.364 34.9724L38.77 30.457L37.5729 27.1681ZM38.0428 26.9971L37.5729 27.1681L38.77 30.457L39.2398 30.286L38.0428 26.9971ZM40.6278 28.9827L40.2857 28.043L36.9968 29.2401L37.3388 30.1798L40.6278 28.9827ZM39.112 31.3967L39.5818 31.2257L38.3848 27.9368L37.9149 28.1078L39.112 31.3967ZM26.7061 35.9121L39.112 31.3967L37.9149 28.1078L25.509 32.6232L26.7061 35.9121ZM24.4631 34.8662L36.3328 67.4781L39.6218 66.281L27.752 33.6691L24.4631 34.8662ZM49.7847 60.7197L37.3788 65.2351L38.5758 68.524L50.9818 64.0086L49.7847 60.7197ZM50.2546 60.5487L49.7847 60.7197L50.9818 64.0086L51.4516 63.8376L50.2546 60.5487ZM52.8396 62.5343L52.4975 61.5946L49.2086 62.7917L49.5506 63.7314L52.8396 62.5343ZM51.3238 64.9483L51.7936 64.7773L50.5966 61.4884L50.1267 61.6594L51.3238 64.9483ZM38.9179 69.4637L51.3238 64.9483L50.1267 61.6594L37.7208 66.1748L38.9179 69.4637ZM37.7208 66.1748L37.2509 66.3458L38.448 69.6347L38.9179 69.4637L37.7208 66.1748ZM37.2509 66.3458L36.7811 66.5168L37.9782 69.8058L38.448 69.6347L37.2509 66.3458ZM39.0241 67.5628L38.8531 67.0929L35.5642 68.29L35.7352 68.7598L39.0241 67.5628ZM38.8531 67.0929L38.6821 66.6231L35.3931 67.8201L35.5642 68.29L38.8531 67.0929ZM38.6821 66.6231L26.8123 34.0111L23.5234 35.2082L35.3931 67.8201L38.6821 66.6231Z" fill="#379EFC"/>
<path d="M95.9625 7.77829L95.364 6.13383C96.2722 5.80327 97.2764 6.27154 97.607 7.17975L95.9625 7.77829ZM82.147 12.8067L80.5026 13.4052C80.172 12.497 80.6403 11.4928 81.5485 11.1623L82.147 12.8067ZM82.4891 13.7464L83.0876 15.3909C82.1794 15.7214 81.1752 15.2532 80.8446 14.3449L82.4891 13.7464ZM95.3649 9.06L94.7663 7.41554C95.6745 7.08498 96.6788 7.55326 97.0093 8.46147L95.3649 9.06ZM107.235 41.672L108.879 41.0734C109.21 41.9816 108.741 42.9859 107.833 43.3164L107.235 41.672ZM94.3588 46.3584L92.7144 46.9569C92.3838 46.0487 92.8521 45.0445 93.7603 44.7139L94.3588 46.3584ZM94.7009 47.2981L95.2994 48.9425C94.3912 49.2731 93.387 48.8048 93.0564 47.8966L94.7009 47.2981ZM108.516 42.2696L110.161 41.6711C110.32 42.1072 110.299 42.5886 110.102 43.0092C109.906 43.4299 109.551 43.7554 109.115 43.9141L108.516 42.2696ZM108.345 41.7998L106.701 42.3983L108.345 41.7998ZM108.174 41.3299L109.819 40.7314L108.174 41.3299ZM94.6601 9.31652L94.4891 8.84667L97.778 7.6496L97.949 8.11945L94.6601 9.31652ZM94.4891 8.84667L94.3181 8.37683L97.607 7.17975L97.778 7.6496L94.4891 8.84667ZM96.5611 9.42275L96.0912 9.59376L94.8941 6.30484L95.364 6.13383L96.5611 9.42275ZM96.0912 9.59376L95.6214 9.76477L94.4243 6.47585L94.8941 6.30484L96.0912 9.59376ZM82.0184 10.9912L94.4243 6.47585L95.6214 9.76477L83.2154 14.2802L82.0184 10.9912ZM81.5485 11.1623L82.0184 10.9912L83.2154 14.2802L82.7456 14.4512L81.5485 11.1623ZM80.8446 14.3449L80.5026 13.4052L83.7915 12.2082L84.1335 13.1479L80.8446 14.3449ZM83.5574 15.2199L83.0876 15.3909L81.8905 12.1019L82.3604 11.9309L83.5574 15.2199ZM95.9634 10.7045L83.5574 15.2199L82.3604 11.9309L94.7663 7.41554L95.9634 10.7045ZM97.0093 8.46147L108.879 41.0734L105.59 42.2705L93.7204 9.65854L97.0093 8.46147ZM94.2302 44.5429L106.636 40.0275L107.833 43.3164L95.4272 47.8318L94.2302 44.5429ZM93.7603 44.7139L94.2302 44.5429L95.4272 47.8318L94.9574 48.0028L93.7603 44.7139ZM93.0564 47.8966L92.7144 46.9569L96.0033 45.7598L96.3453 46.6995L93.0564 47.8966ZM95.7692 48.7715L95.2994 48.9425L94.1023 45.6536L94.5722 45.4826L95.7692 48.7715ZM108.175 44.2561L95.7692 48.7715L94.5722 45.4826L106.978 40.9672L108.175 44.2561ZM106.978 40.9672L107.448 40.7962L108.645 44.0851L108.175 44.2561L106.978 40.9672ZM107.448 40.7962L107.918 40.6252L109.115 43.9141L108.645 44.0851L107.448 40.7962ZM106.872 42.8682L106.701 42.3983L109.99 41.2012L110.161 41.6711L106.872 42.8682ZM106.701 42.3983L106.53 41.9285L109.819 40.7314L109.99 41.2012L106.701 42.3983ZM106.53 41.9285L94.6601 9.31652L97.949 8.11945L109.819 40.7314L106.53 41.9285Z" fill="#379EFC"/>
<circle cx="66.5" cy="37.4999" r="14.5" transform="rotate(-20 66.5 37.4999)" fill="#379EFC"/>
<path d="M69.7182 29.187L67.1193 30.1329C67.8056 30.5566 68.3675 31.1751 68.8049 31.9887L71.0183 31.183L71.145 33.1073L69.4712 33.7165C69.8147 35.0714 69.6552 36.2435 68.9927 37.2329C68.3302 38.2223 67.195 39.0095 65.5873 39.5947L73.3088 43.9176L73.3569 44.0498L70.8572 44.9596L62.5479 40.2894L62.0358 38.917L64.7778 37.9189C65.6928 37.5776 66.3658 37.1082 66.7968 36.5107C67.2252 35.9058 67.3935 35.2376 67.3018 34.5061L60.9259 36.8268L60.7992 34.9025L66.6466 32.7742C65.7865 31.5076 64.4428 31.1736 62.6154 31.7722L59.521 32.8985L59.4053 30.9702L69.5915 27.2628L69.7182 29.187Z" fill="#2874F0"/>
</g>
<g clip-path="url(#clip1_27_2860)">
<rect x="23" y="27" width="87" height="47" rx="3" fill="#2874F0"/>
<path d="M28.6489 32.6475V30.8975C27.6824 30.8975 26.8989 31.681 26.8989 32.6475H28.6489ZM43.3511 32.6475H45.1011C45.1011 31.681 44.3176 30.8975 43.3511 30.8975V32.6475ZM43.3511 33.6475V35.3975C44.3176 35.3975 45.1011 34.614 45.1011 33.6475H43.3511ZM29.6489 33.6475V31.8975C28.6824 31.8975 27.8989 32.681 27.8989 33.6475H29.6489ZM29.6489 68.3524H27.8989C27.8989 69.3189 28.6824 70.1024 29.6489 70.1024V68.3524ZM43.3511 68.3524H45.1011C45.1011 67.3859 44.3176 66.6024 43.3511 66.6024V68.3524ZM43.3511 69.3524V71.1024C44.3176 71.1024 45.1011 70.3189 45.1011 69.3524H43.3511ZM28.6489 69.3524H26.8989C26.8989 70.3189 27.6824 71.1024 28.6489 71.1024V69.3524ZM30.3989 33.6475V33.1475H26.8989V33.6475H30.3989ZM30.3989 33.1475V32.6475H26.8989V33.1475H30.3989ZM28.6489 34.3975H29.1489V30.8975H28.6489V34.3975ZM29.1489 34.3975H29.6489V30.8975H29.1489V34.3975ZM42.8511 30.8975H29.6489V34.3975H42.8511V30.8975ZM43.3511 30.8975H42.8511V34.3975H43.3511V30.8975ZM45.1011 33.6475V32.6475H41.6011V33.6475H45.1011ZM42.8511 35.3975H43.3511V31.8975H42.8511V35.3975ZM29.6489 35.3975H42.8511V31.8975H29.6489V35.3975ZM27.8989 33.6475V68.3524H31.3989V33.6475H27.8989ZM42.8511 66.6024H29.6489V70.1024H42.8511V66.6024ZM43.3511 66.6024H42.8511V70.1024H43.3511V66.6024ZM45.1011 69.3524V68.3524H41.6011V69.3524H45.1011ZM42.8511 71.1024H43.3511V67.6024H42.8511V71.1024ZM29.6489 71.1024H42.8511V67.6024H29.6489V71.1024ZM29.6489 67.6024H29.1489V71.1024H29.6489V67.6024ZM29.1489 67.6024H28.6489V71.1024H29.1489V67.6024ZM30.3989 69.3524V68.8524H26.8989V69.3524H30.3989ZM30.3989 68.8524V68.3524H26.8989V68.8524H30.3989ZM30.3989 68.3524V33.6475H26.8989V68.3524H30.3989Z" fill="#379EFC"/>
<path d="M104.351 32.6475V30.8975C105.318 30.8975 106.101 31.681 106.101 32.6475H104.351ZM89.6489 32.6475H87.8989C87.8989 31.681 88.6824 30.8975 89.6489 30.8975V32.6475ZM89.6489 33.6475V35.3975C88.6824 35.3975 87.8989 34.614 87.8989 33.6475H89.6489ZM103.351 33.6475V31.8975C104.318 31.8975 105.101 32.681 105.101 33.6475H103.351ZM103.351 68.3524H105.101C105.101 69.3189 104.318 70.1024 103.351 70.1024V68.3524ZM89.6489 68.3524H87.8989C87.8989 67.3859 88.6824 66.6024 89.6489 66.6024V68.3524ZM89.6489 69.3524V71.1024C88.6824 71.1024 87.8989 70.3189 87.8989 69.3524H89.6489ZM104.351 69.3524H106.101C106.101 70.3189 105.318 71.1024 104.351 71.1024V69.3524ZM102.601 33.6475V33.1475H106.101V33.6475H102.601ZM102.601 33.1475V32.6475H106.101V33.1475H102.601ZM104.351 34.3975H103.851V30.8975H104.351V34.3975ZM103.851 34.3975H103.351V30.8975H103.851V34.3975ZM90.1489 30.8975H103.351V34.3975H90.1489V30.8975ZM89.6489 30.8975H90.1489V34.3975H89.6489V30.8975ZM87.8989 33.6475V32.6475H91.3989V33.6475H87.8989ZM90.1489 35.3975H89.6489V31.8975H90.1489V35.3975ZM103.351 35.3975H90.1489V31.8975H103.351V35.3975ZM105.101 33.6475V68.3524H101.601V33.6475H105.101ZM90.1489 66.6024H103.351V70.1024H90.1489V66.6024ZM89.6489 66.6024H90.1489V70.1024H89.6489V66.6024ZM87.8989 69.3524V68.3524H91.3989V69.3524H87.8989ZM90.1489 71.1024H89.6489V67.6024H90.1489V71.1024ZM103.351 71.1024H90.1489V67.6024H103.351V71.1024ZM103.351 67.6024H103.851V71.1024H103.351V67.6024ZM103.851 67.6024H104.351V71.1024H103.851V67.6024ZM102.601 69.3524V68.8524H106.101V69.3524H102.601ZM102.601 68.8524V68.3524H106.101V68.8524H102.601ZM102.601 68.3524V33.6475H106.101V68.3524H102.601Z" fill="#379EFC"/>
<circle cx="66.5" cy="50.5" r="14.5" fill="#379EFC"/>
<path d="M72.3672 43.789H69.6016C70.1016 44.4218 70.418 45.1953 70.5508 46.1093H72.9062L72.3672 47.9609H70.5859C70.4453 49.3515 69.8945 50.3984 68.9336 51.1015C67.9727 51.8047 66.6367 52.1562 64.9258 52.1562L70.7031 58.8593V59H68.043L61.832 51.7695L61.8203 50.3047H64.7383C65.7148 50.2968 66.5078 50.0859 67.1172 49.6718C67.7266 49.25 68.1133 48.6797 68.2773 47.9609H61.4922L62.0312 46.1093H68.2539C67.8789 44.625 66.7305 43.8515 64.8086 43.789H61.5156L62.0664 41.9375H72.9062L72.3672 43.789Z" fill="#2874F0"/>
</g>
<path fill-rule="evenodd" clip-rule="evenodd" d="M132 78.2105L116.2 90L108.546 84.1052C108.546 84.1052 104.596 81.4035 99.1646 82.1403C93.7332 82.8772 66.5761 85.8245 66.5761 85.8245L42.3815 83.1228L1.64589 72.807C1.64589 72.807 -0.822943 71.3333 0.411471 68.8772C1.64589 66.421 4.3616 67.6491 4.3616 67.6491L29.7905 71.3333L42.3815 72.807L66.0823 71.3333C66.0823 71.3333 73.2419 70.1052 73.9825 66.1754C74.7232 62.2456 67.5636 60.5263 67.5636 60.5263L50.2818 54.3859C50.2818 54.3859 47.3192 53.1579 48.3067 49.7193C49.2943 46.2807 59.1696 49.7193 59.1696 49.7193L78.4264 54.3859L104.102 56.8421C104.102 56.8421 112.496 58.0701 119.903 65.4386C127.309 72.807 132 78.2105 132 78.2105Z" fill="#FFE000"/>
<defs>
<clipPath id="clip0_27_2860">
<rect width="87" height="47" fill="white" transform="translate(17.5859 30.295) rotate(-20)"/>
</clipPath>
<clipPath id="clip1_27_2860">
<rect width="87" height="47" fill="white" transform="translate(23 27)"/>
</clipPath>
</defs>
</svg>
