<?xml version="1.0" encoding="UTF-8"?>
<svg xmlns="http://www.w3.org/2000/svg" width="20" height="20" viewBox="0 0 20 20" fill="none">
  <path d="M4.72755 14.3668L2.66485 16.4312C2.53622 16.5598 2.38435 16.5917 2.20922 16.5268C2.0341 16.4619 1.94653 16.337 1.94653 16.1522V3.95018C1.94653 3.49653 2.10819 3.10805 2.43149 2.78474C2.75478 2.46145 3.14326 2.2998 3.59693 2.2998H14.3832C14.8368 2.2998 15.2253 2.46145 15.5486 2.78474C15.8719 3.10805 16.0335 3.49653 16.0335 3.95018V8.44293C15.8659 8.39683 15.6943 8.36704 15.5187 8.35356C15.3432 8.34007 15.1693 8.33333 14.9971 8.33333C14.8943 8.33333 14.7914 8.33841 14.6886 8.34858C14.5858 8.35874 14.484 8.3763 14.3832 8.40126V3.95018H3.59693V12.7165H10.068C10.043 12.8173 10.0254 12.9191 10.0153 13.0219C10.0051 13.1248 10 13.2276 10 13.3304C10 13.5026 10.0068 13.6765 10.0202 13.8521C10.0337 14.0276 10.0635 14.1992 10.1096 14.3668H4.72755ZM6.14039 7.24818H11.8515C12.0652 7.24818 12.2445 7.17576 12.3891 7.03093C12.5337 6.88608 12.606 6.7066 12.606 6.49247C12.606 6.27836 12.5337 6.09927 12.3891 5.9552C12.2445 5.81114 12.0652 5.73912 11.8515 5.73912H6.14039C5.92661 5.73912 5.74741 5.81154 5.60278 5.95639C5.45817 6.10124 5.38587 6.28071 5.38587 6.49483C5.38587 6.70895 5.45817 6.88804 5.60278 7.0321C5.74741 7.17615 5.92661 7.24818 6.14039 7.24818ZM6.14039 10.7192H9.35147C9.56525 10.7192 9.74445 10.6468 9.88908 10.5019C10.0337 10.3571 10.106 10.1776 10.106 9.96349C10.106 9.74937 10.0337 9.57028 9.88908 9.42622C9.74445 9.28217 9.56525 9.21014 9.35147 9.21014H6.14039C5.92661 9.21014 5.74741 9.28256 5.60278 9.42739C5.45817 9.57224 5.38587 9.75172 5.38587 9.96585C5.38587 10.18 5.45817 10.359 5.60278 10.5031C5.74741 10.6472 5.92661 10.7192 6.14039 10.7192ZM14.1748 14.1585H12.5C12.268 14.1585 12.0724 14.0786 11.9134 13.9189C11.7543 13.7592 11.6748 13.5627 11.6748 13.3297C11.6748 13.0966 11.7543 12.9014 11.9134 12.7441C12.0724 12.5868 12.268 12.5081 12.5 12.5081H14.1748V10.8333C14.1748 10.6013 14.2547 10.4057 14.4144 10.2467C14.5742 10.0877 14.7706 10.0081 15.0037 10.0081C15.2367 10.0081 15.4319 10.0877 15.5892 10.2467C15.7465 10.4057 15.8252 10.6013 15.8252 10.8333V12.5081H17.5C17.7321 12.5081 17.9276 12.588 18.0866 12.7477C18.2457 12.9075 18.3252 13.1039 18.3252 13.337C18.3252 13.5701 18.2457 13.7652 18.0866 13.9226C17.9276 14.0799 17.7321 14.1585 17.5 14.1585H15.8252V15.8333C15.8252 16.0654 15.7453 16.2609 15.5856 16.42C15.4258 16.579 15.2294 16.6585 14.9964 16.6585C14.7633 16.6585 14.5681 16.579 14.4108 16.42C14.2535 16.2609 14.1748 16.0654 14.1748 15.8333V14.1585Z" fill="#2A55E5"/>
</svg>
