<?xml version="1.0" encoding="UTF-8"?>
<svg width="20" height="20" viewBox="0 0 20 20" fill="none" xmlns="http://www.w3.org/2000/svg">
<mask id="mask0_11441_84" style="mask-type:alpha" maskUnits="userSpaceOnUse" x="0" y="0" width="20" height="20">
<rect width="20" height="20" fill="#D9D9D9"/>
</mask>
<g mask="url(#mask0_11441_84)">
<path d="M7.95832 14.6458C7.84721 14.6458 7.74304 14.6285 7.64582 14.5937C7.5486 14.559 7.45832 14.5 7.37498 14.4166L3.79165 10.8333C3.63887 10.6805 3.56596 10.4826 3.5729 10.2396C3.57985 9.99651 3.65971 9.79859 3.81248 9.64581C3.96526 9.49304 4.15971 9.41665 4.39582 9.41665C4.63193 9.41665 4.82637 9.49304 4.97915 9.64581L7.95832 12.625L15.0208 5.56248C15.1736 5.4097 15.3715 5.33331 15.6146 5.33331C15.8576 5.33331 16.0555 5.4097 16.2083 5.56248C16.3611 5.71526 16.4375 5.91317 16.4375 6.15623C16.4375 6.39929 16.3611 6.5972 16.2083 6.74998L8.54165 14.4166C8.45832 14.5 8.36804 14.559 8.27082 14.5937C8.1736 14.6285 8.06943 14.6458 7.95832 14.6458Z" fill="#0066CC"/>
</g>
</svg>
