<?xml version="1.0" encoding="UTF-8"?>
<svg width="20" height="20" viewBox="0 0 20 20" fill="none" xmlns="http://www.w3.org/2000/svg">
  <path d="M8.74079 9.97932L12.287 13.5255C12.4512 13.6898 12.5299 13.8827 12.5229 14.1043C12.516 14.3259 12.4304 14.5189 12.2661 14.6831C12.1019 14.8474 11.9055 14.9295 11.6769 14.9295C11.4483 14.9295 11.2519 14.8474 11.0877 14.6831L6.97445 10.5699C6.88932 10.4848 6.825 10.3918 6.78152 10.2909C6.73804 10.1901 6.71631 10.0862 6.71631 9.97932C6.71631 9.87243 6.73804 9.76857 6.78152 9.66772C6.825 9.56687 6.88932 9.47388 6.97445 9.38874L11.1085 5.25468C11.2728 5.09043 11.4692 5.0083 11.6977 5.0083C11.9263 5.0083 12.1227 5.09043 12.287 5.25468C12.4512 5.41893 12.5334 5.61534 12.5334 5.84391C12.5334 6.07247 12.4512 6.26888 12.287 6.43313L8.74079 9.97932Z" fill="#2A55E5"/>
</svg> 
