<?xml version="1.0" encoding="UTF-8"?>
<svg width="16" height="16" viewBox="0 0 16 16" fill="none" xmlns="http://www.w3.org/2000/svg">
<g id="chevron_right">
<mask id="mask0_892_947" style="mask-type:alpha" maskUnits="userSpaceOnUse" x="0" y="0" width="16" height="16">
<rect id="Bounding box" width="16" height="16" fill="#D9D9D9"/>
</mask>
<g mask="url(#mask0_892_947)">
<path id="chevron_right_2" d="M5.76672 11.5C5.62227 11.3555 5.55005 11.1889 5.55005 11C5.55005 10.8111 5.62227 10.6444 5.76672 10.5L8.26672 7.99999L5.76672 5.49999C5.62227 5.35555 5.55005 5.18888 5.55005 4.99999C5.55005 4.8111 5.62227 4.64444 5.76672 4.49999C5.91116 4.35555 6.07783 4.28333 6.26672 4.28333C6.4556 4.28333 6.62227 4.35555 6.76672 4.49999L9.76672 7.49999C9.84449 7.57777 9.90005 7.65833 9.93338 7.74166C9.96672 7.82499 9.98338 7.9111 9.98338 7.99999C9.98338 8.08888 9.96672 8.17499 9.93338 8.25833C9.90005 8.34166 9.84449 8.42221 9.76672 8.49999L6.76672 11.5C6.62227 11.6444 6.4556 11.7167 6.26672 11.7167C6.07783 11.7167 5.91116 11.6444 5.76672 11.5Z" fill="#C1C7D0"/>
</g>
</g>
</svg>
