<?xml version="1.0" encoding="UTF-8"?>
<svg width="20" height="20" viewBox="0 0 20 20" fill="none" xmlns="http://www.w3.org/2000/svg">
  <path d="M10.7591 9.97924L7.21294 6.43305C7.04869 6.2688 6.97004 6.07587 6.97699 5.85424C6.98393 5.63262 7.06953 5.43968 7.23378 5.27543C7.39803 5.11118 7.59444 5.02905 7.82301 5.02905C8.05158 5.02905 8.24799 5.11118 8.41224 5.27543L12.5255 9.38866C12.6106 9.4738 12.6749 9.56679 12.7184 9.66764C12.7619 9.76848 12.7836 9.87235 12.7836 9.97924C12.7836 10.0861 12.7619 10.19 12.7184 10.2908C12.6749 10.3917 12.6106 10.4847 12.5255 10.5698L8.3914 14.7039C8.22715 14.8681 8.03421 14.9468 7.81259 14.9398C7.59096 14.9329 7.39803 14.8473 7.23378 14.6831C7.06953 14.5188 6.9874 14.3224 6.9874 14.0938C6.9874 13.8653 7.06953 13.6688 7.23378 13.5046L10.7591 9.97924Z" fill="#2A55E5"/>
</svg> 
