<?xml version="1.0" encoding="UTF-8"?>
<svg width="72" height="72" viewBox="0 0 72 72" fill="none" xmlns="http://www.w3.org/2000/svg">
<path d="M23.1445 40.6256C14.09 40.6256 6.74989 38.3325 6.74989 35.5037V30.3818H39.5391V35.5037C39.5391 38.3325 32.199 40.6256 23.1445 40.6256Z" fill="#FBB129"/>
<path d="M23.1445 39.8522C14.09 39.8522 6.74989 37.559 6.74989 34.7303V29.6084H39.5391V34.7303C39.5391 37.559 32.199 39.8522 23.1445 39.8522Z" fill="#FFEB3B"/>
<ellipse cx="16.3946" cy="5.12189" rx="16.3946" ry="5.12189" transform="matrix(-1 0 0 1 39.5391 24.4863)" fill="#FFF9C4"/>
<path d="M11.9954 29.6083C11.9954 31.5319 16.9869 33.0913 23.1442 33.0913C29.3015 33.0913 34.293 31.5319 34.293 29.6083C34.293 27.6847 29.3015 26.1252 23.1442 26.1252C16.9869 26.1252 11.9954 27.6847 11.9954 29.6083Z" fill="#FFF9C4"/>
<path fill-rule="evenodd" clip-rule="evenodd" d="M13.1892 29.5884C13.1892 29.5884 13.1893 29.5888 13.1894 29.5895C13.1893 29.5888 13.1892 29.5884 13.1892 29.5884ZM13.1962 29.6083C13.2173 29.5598 13.2972 29.4241 13.5817 29.214C13.9966 28.9075 14.6734 28.5812 15.6172 28.2863C17.4906 27.7011 20.152 27.3206 23.1442 27.3206C26.1364 27.3206 28.7978 27.7011 30.6711 28.2863C31.6149 28.5812 32.2917 28.9075 32.7067 29.214C32.9912 29.4241 33.0711 29.5598 33.0921 29.6083C33.0711 29.6567 32.9912 29.7924 32.7067 30.0026C32.2917 30.309 31.6149 30.6354 30.6711 30.9302C28.7978 31.5155 26.1364 31.896 23.1442 31.896C20.152 31.896 17.4906 31.5155 15.6172 30.9302C14.6734 30.6354 13.9966 30.309 13.5817 30.0026C13.2972 29.7924 13.2173 29.6567 13.1962 29.6083ZM33.0992 29.5884C33.0991 29.5884 33.099 29.5888 33.0989 29.5895C33.0991 29.5888 33.0992 29.5884 33.0992 29.5884ZM33.0992 29.6282C33.0992 29.6282 33.0991 29.6278 33.0989 29.6271C33.099 29.6278 33.0991 29.6282 33.0992 29.6282ZM13.1894 29.6271C13.1893 29.6278 13.1892 29.6282 13.1892 29.6282C13.1892 29.6282 13.1893 29.6278 13.1894 29.6271ZM23.1442 33.0913C16.9869 33.0913 11.9954 31.5319 11.9954 29.6083C11.9954 27.6847 16.9869 26.1252 23.1442 26.1252C29.3015 26.1252 34.293 27.6847 34.293 29.6083C34.293 31.5319 29.3015 33.0913 23.1442 33.0913Z" fill="#FFEB3B"/>
<path d="M23.1445 34.195C14.09 34.195 6.74989 31.9018 6.74989 29.0731V23.9512H39.5391V29.0731C39.5391 31.9018 32.199 34.195 23.1445 34.195Z" fill="#FBB129"/>
<path d="M23.1445 33.4215C14.09 33.4215 6.74989 31.1284 6.74989 28.2996V23.1777H39.5391V28.2996C39.5391 31.1284 32.199 33.4215 23.1445 33.4215Z" fill="#FFEB3B"/>
<ellipse cx="16.3946" cy="5.12189" rx="16.3946" ry="5.12189" transform="matrix(-1 0 0 1 39.5391 18.0557)" fill="#FFF9C4"/>
<path d="M11.9954 23.1774C11.9954 25.101 16.9869 26.6604 23.1442 26.6604C29.3015 26.6604 34.293 25.101 34.293 23.1774C34.293 21.2537 29.3015 19.6943 23.1442 19.6943C16.9869 19.6943 11.9954 21.2537 11.9954 23.1774Z" fill="#FFF9C4"/>
<path fill-rule="evenodd" clip-rule="evenodd" d="M13.1892 23.1575C13.1892 23.1575 13.1893 23.1578 13.1894 23.1586C13.1893 23.1578 13.1892 23.1575 13.1892 23.1575ZM13.1962 23.1774C13.2173 23.1289 13.2972 22.9932 13.5817 22.7831C13.9966 22.4766 14.6734 22.1503 15.6172 21.8554C17.4906 21.2702 20.152 20.8896 23.1442 20.8896C26.1364 20.8896 28.7978 21.2702 30.6711 21.8554C31.6149 22.1503 32.2917 22.4766 32.7067 22.7831C32.9912 22.9932 33.0711 23.1289 33.0921 23.1774C33.0711 23.2258 32.9912 23.3615 32.7067 23.5717C32.2917 23.8781 31.6149 24.2045 30.6711 24.4993C28.7978 25.0846 26.1364 25.4651 23.1442 25.4651C20.152 25.4651 17.4906 25.0846 15.6172 24.4993C14.6734 24.2045 13.9966 23.8781 13.5817 23.5717C13.2972 23.3615 13.2173 23.2258 13.1962 23.1774ZM33.0992 23.1575C33.0991 23.1575 33.099 23.1578 33.0989 23.1586C33.0991 23.1579 33.0992 23.1575 33.0992 23.1575ZM33.0992 23.1973C33.0992 23.1973 33.0991 23.1969 33.0989 23.1961C33.099 23.1969 33.0991 23.1973 33.0992 23.1973ZM13.1894 23.1962C13.1893 23.1969 13.1892 23.1973 13.1892 23.1973C13.1892 23.1973 13.1893 23.1969 13.1894 23.1962ZM23.1442 26.6604C16.9869 26.6604 11.9954 25.101 11.9954 23.1774C11.9954 21.2537 16.9869 19.6943 23.1442 19.6943C29.3015 19.6943 34.293 21.2537 34.293 23.1774C34.293 25.101 29.3015 26.6604 23.1442 26.6604Z" fill="#FFEB3B"/>
<path d="M23.1445 27.7643C14.09 27.7643 6.74989 25.4711 6.74989 22.6424V17.5205H39.5391V22.6424C39.5391 25.4711 32.199 27.7643 23.1445 27.7643Z" fill="#FBB129"/>
<path d="M23.1445 26.9909C14.09 26.9909 6.74989 24.6977 6.74989 21.869V16.7471H39.5391V21.869C39.5391 24.6977 32.199 26.9909 23.1445 26.9909Z" fill="#FFEB3B"/>
<ellipse cx="16.3946" cy="5.12189" rx="16.3946" ry="5.12189" transform="matrix(-1 0 0 1 39.5391 11.625)" fill="#FFF9C4"/>
<path d="M11.9954 16.7467C11.9954 18.6703 16.9869 20.2297 23.1442 20.2297C29.3015 20.2297 34.293 18.6703 34.293 16.7467C34.293 14.8231 29.3015 13.2637 23.1442 13.2637C16.9869 13.2637 11.9954 14.8231 11.9954 16.7467Z" fill="#FFF9C4"/>
<path fill-rule="evenodd" clip-rule="evenodd" d="M13.1892 16.7268C13.1892 16.7268 13.1893 16.7272 13.1894 16.7279C13.1893 16.7272 13.1892 16.7268 13.1892 16.7268ZM13.1962 16.7467C13.2173 16.6983 13.2972 16.5626 13.5817 16.3524C13.9966 16.0459 14.6734 15.7196 15.6172 15.4248C17.4906 14.8395 20.152 14.459 23.1442 14.459C26.1364 14.459 28.7978 14.8395 30.6711 15.4248C31.6149 15.7196 32.2917 16.0459 32.7067 16.3524C32.9912 16.5626 33.0711 16.6983 33.0921 16.7467C33.0711 16.7951 32.9912 16.9308 32.7067 17.141C32.2917 17.4475 31.6149 17.7738 30.6711 18.0687C28.7978 18.6539 26.1364 19.0344 23.1442 19.0344C20.152 19.0344 17.4906 18.6539 15.6172 18.0687C14.6734 17.7738 13.9966 17.4475 13.5817 17.141C13.2972 16.9308 13.2173 16.7951 13.1962 16.7467ZM33.0992 16.7268C33.0991 16.7268 33.099 16.7272 33.0989 16.7279C33.0991 16.7272 33.0992 16.7268 33.0992 16.7268ZM33.0992 16.7666C33.0992 16.7666 33.0991 16.7662 33.0989 16.7655C33.099 16.7662 33.0991 16.7666 33.0992 16.7666ZM13.1894 16.7655C13.1893 16.7662 13.1892 16.7666 13.1892 16.7666C13.1892 16.7666 13.1893 16.7662 13.1894 16.7655ZM23.1442 20.2297C16.9869 20.2297 11.9954 18.6703 11.9954 16.7467C11.9954 14.8231 16.9869 13.2637 23.1442 13.2637C29.3015 13.2637 34.293 14.8231 34.293 16.7467C34.293 18.6703 29.3015 20.2297 23.1442 20.2297Z" fill="#FFEB3B"/>
<path d="M48.8554 50.0714C39.8009 50.0714 32.4608 47.7783 32.4608 44.9495V39.8276H65.25V44.9495C65.25 47.7783 57.9099 50.0714 48.8554 50.0714Z" fill="#FBB129"/>
<path d="M48.8554 49.298C39.8009 49.298 32.4608 47.0048 32.4608 44.1761V39.0542H65.25V44.1761C65.25 47.0048 57.9099 49.298 48.8554 49.298Z" fill="#FFEB3B"/>
<ellipse cx="16.3946" cy="5.12189" rx="16.3946" ry="5.12189" transform="matrix(-1 0 0 1 65.25 33.9321)" fill="#FFF9C4"/>
<path d="M37.7063 39.0541C37.7063 40.9777 42.6978 42.5371 48.8551 42.5371C55.0124 42.5371 60.0039 40.9777 60.0039 39.0541C60.0039 37.1305 55.0124 35.571 48.8551 35.571C42.6978 35.571 37.7063 37.1305 37.7063 39.0541Z" fill="#FFF9C4"/>
<path fill-rule="evenodd" clip-rule="evenodd" d="M38.9001 39.0342C38.9001 39.0342 38.9002 39.0346 38.9004 39.0353C38.9002 39.0346 38.9002 39.0342 38.9001 39.0342ZM38.9072 39.0541C38.9282 39.0056 39.0081 38.8699 39.2926 38.6598C39.7076 38.3533 40.3844 38.027 41.3282 37.7321C43.2015 37.1469 45.8629 36.7664 48.8551 36.7664C51.8473 36.7664 54.5087 37.1469 56.3821 37.7321C57.3259 38.027 58.0027 38.3533 58.4176 38.6598C58.7021 38.8699 58.782 39.0056 58.8031 39.0541C58.782 39.1025 58.7021 39.2382 58.4176 39.4484C58.0027 39.7548 57.3259 40.0812 56.3821 40.376C54.5087 40.9613 51.8473 41.3418 48.8551 41.3418C45.8629 41.3418 43.2015 40.9613 41.3282 40.376C40.3844 40.0812 39.7076 39.7548 39.2926 39.4484C39.0081 39.2382 38.9282 39.1025 38.9072 39.0541ZM58.8101 39.0342C58.8101 39.0342 58.81 39.0346 58.8099 39.0353C58.81 39.0346 58.8101 39.0342 58.8101 39.0342ZM58.8101 39.074C58.8101 39.074 58.81 39.0736 58.8099 39.0729C58.81 39.0736 58.8101 39.074 58.8101 39.074ZM38.9004 39.0729C38.9002 39.0736 38.9001 39.074 38.9001 39.074C38.9002 39.074 38.9003 39.0736 38.9004 39.0729ZM48.8551 42.5371C42.6978 42.5371 37.7063 40.9777 37.7063 39.0541C37.7063 37.1305 42.6978 35.571 48.8551 35.571C55.0124 35.571 60.0039 37.1305 60.0039 39.0541C60.0039 40.9777 55.0124 42.5371 48.8551 42.5371Z" fill="#FFEB3B"/>
<path d="M23.1445 61.0888C14.09 61.0888 6.74989 58.7956 6.74989 55.9669V50.845H39.5391V55.9669C39.5391 58.7956 32.199 61.0888 23.1445 61.0888Z" fill="#FBB129"/>
<path d="M23.1445 60.3153C14.09 60.3153 6.74989 58.0222 6.74989 55.1934V50.0715H39.5391V55.1934C39.5391 58.0222 32.199 60.3153 23.1445 60.3153Z" fill="#FFEB3B"/>
<ellipse cx="16.3946" cy="5.12189" rx="16.3946" ry="5.12189" transform="matrix(-1 0 0 1 39.5391 44.9495)" fill="#FFF9C4"/>
<path d="M11.9954 50.0714C11.9954 51.995 16.9869 53.5544 23.1442 53.5544C29.3015 53.5544 34.293 51.995 34.293 50.0714C34.293 48.1478 29.3015 46.5884 23.1442 46.5884C16.9869 46.5884 11.9954 48.1478 11.9954 50.0714Z" fill="#FFF9C4"/>
<path fill-rule="evenodd" clip-rule="evenodd" d="M13.1892 50.0515C13.1892 50.0515 13.1893 50.0519 13.1894 50.0526C13.1893 50.0519 13.1892 50.0515 13.1892 50.0515ZM13.1962 50.0714C13.2173 50.023 13.2972 49.8873 13.5817 49.6771C13.9966 49.3707 14.6734 49.0443 15.6172 48.7495C17.4906 48.1642 20.152 47.7837 23.1442 47.7837C26.1364 47.7837 28.7978 48.1642 30.6711 48.7495C31.6149 49.0443 32.2917 49.3707 32.7067 49.6771C32.9912 49.8873 33.0711 50.023 33.0921 50.0714C33.0711 50.1198 32.9912 50.2555 32.7067 50.4657C32.2917 50.7722 31.6149 51.0985 30.6711 51.3934C28.7978 51.9786 26.1364 52.3591 23.1442 52.3591C20.152 52.3591 17.4906 51.9786 15.6172 51.3934C14.6734 51.0985 13.9966 50.7722 13.5817 50.4657C13.2972 50.2555 13.2173 50.1198 13.1962 50.0714ZM33.0992 50.0515C33.0991 50.0515 33.099 50.0519 33.0989 50.0526C33.0991 50.0519 33.0992 50.0515 33.0992 50.0515ZM33.0992 50.0913C33.0992 50.0913 33.0991 50.0909 33.0989 50.0902C33.099 50.0909 33.0991 50.0913 33.0992 50.0913ZM13.1894 50.0902C13.1893 50.0909 13.1892 50.0913 13.1892 50.0913C13.1892 50.0913 13.1893 50.0909 13.1894 50.0902ZM23.1442 53.5544C16.9869 53.5544 11.9954 51.995 11.9954 50.0714C11.9954 48.1478 16.9869 46.5884 23.1442 46.5884C29.3015 46.5884 34.293 48.1478 34.293 50.0714C34.293 51.995 29.3015 53.5544 23.1442 53.5544Z" fill="#FFEB3B"/>
</svg>
