<?xml version="1.0" encoding="UTF-8"?>
<svg width="150" height="148" viewBox="0 0 150 148" fill="none" xmlns="http://www.w3.org/2000/svg">
<g clip-path="url(#clip0_1911_3771)">
<path d="M132.455 127.497C129.453 130.633 126.612 132.656 124.368 134.253C97.9858 153.038 66.7698 147.562 60.1352 146.226C50.3383 144.251 31.4013 140.434 17.7103 124.456C-3.00364 100.284 0.222036 62.2007 16.2886 37.0613C19.2278 32.4627 34.7516 6.94064 66.3037 2.84738C85.3989 0.370492 107.658 5.36655 123.776 18.768C157.612 46.8991 155.205 103.729 132.455 127.497Z" fill="#E6FCFF"/>
<path d="M36.2265 2.95999C34.4695 3.11286 32.8337 3.9127 31.641 5.20215C30.4482 6.4916 29.7849 8.1773 29.7816 9.92761C29.7182 32.1081 29.6133 108.612 31.07 135.693C31.1444 137.074 31.746 138.376 32.7525 139.333C33.7591 140.29 35.0951 140.831 36.4891 140.846C50.8071 140.999 91.9904 141.28 115.373 139.796C117.719 139.649 119.92 138.621 121.528 136.92C123.136 135.219 124.029 132.974 124.027 130.642C123.998 107.363 123.624 41.8946 120.411 11.969C120.224 10.2319 119.431 8.61445 118.168 7.39717C116.906 6.17989 115.254 5.4396 113.499 5.30473C97.8841 4.09536 56.4158 1.2157 36.2265 2.95999Z" fill="#FFBDAD"/>
<path d="M35.531 15.7382C35.2498 34.714 34.4492 97.828 35.8469 121.123C36.0509 124.528 38.7162 127.216 42.0074 127.33C55.5568 127.799 90.3032 128.705 110.102 126.544C113.667 126.154 116.392 123.087 116.487 119.374C116.982 100.012 118.32 41.2265 116.962 18.1919C116.745 14.5172 113.916 11.5847 110.37 11.3479C95.6983 10.3669 58.0245 8.10461 41.1882 9.49792C38.0275 9.75692 35.5795 12.4532 35.531 15.7382Z" fill="#FF8F73"/>
<path d="M68.2688 6.25659C68.2739 6.50845 68.3762 6.74876 68.5546 6.92802C68.733 7.10728 68.9738 7.21184 69.2275 7.22017C71.8348 7.29893 79.1794 7.52199 82.4621 7.63933C82.6131 7.64495 82.7634 7.61626 82.9015 7.55543C83.0397 7.4946 83.162 7.40325 83.2591 7.28836C83.3562 7.17347 83.4256 7.03807 83.4619 6.8925C83.4983 6.74694 83.5006 6.59506 83.4688 6.44846C83.4576 6.4289 83.374 5.62336 82.5446 5.56627C80.3241 5.41299 73.6245 4.99965 69.1972 5.25336C68.2885 5.30305 68.2395 6.329 68.2688 6.25659Z" fill="#FF8F73"/>
<path d="M57.6414 58.2109C67.4561 58.2109 75.4125 50.3154 75.4125 40.5757C75.4125 30.836 67.4561 22.9404 57.6414 22.9404C47.8267 22.9404 39.8704 30.836 39.8704 40.5757C39.8704 50.3154 47.8267 58.2109 57.6414 58.2109Z" fill="white"/>
<path d="M64.6075 38.6929C65.6395 34.9054 63.382 31.0048 59.5653 29.9807C55.7486 28.9566 51.818 31.1968 50.786 34.9844C49.7541 38.7719 52.0115 42.6725 55.8282 43.6966C59.6449 44.7206 63.5756 42.4804 64.6075 38.6929Z" fill="#FF8F73"/>
<path d="M46.8204 58.1701H69.6282C71.0269 58.1701 71.8648 56.3773 71.1126 55.0089C69.1751 51.4882 65.1199 46.3165 58.1023 46.5522C51.3365 46.7775 47.3262 51.4489 45.3101 54.7994C44.4536 56.218 45.3261 58.1701 46.8204 58.1701Z" fill="#FF8F73"/>
<path d="M84.5202 109.805H62.416C61.6906 109.805 61.1025 110.389 61.1025 111.109V117.348C61.1025 118.067 61.6906 118.651 62.416 118.651H84.5202C85.2456 118.651 85.8336 118.067 85.8336 117.348V111.109C85.8336 110.389 85.2456 109.805 84.5202 109.805Z" fill="#FFFAE5"/>
<g opacity="0.8">
<path opacity="0.8" d="M101.066 72.9043H51.1984C50.8007 72.9043 50.4783 73.2242 50.4783 73.6189V77.0599C50.4783 77.4546 50.8007 77.7745 51.1984 77.7745H101.066C101.464 77.7745 101.786 77.4546 101.786 77.0599V73.6189C101.786 73.2242 101.464 72.9043 101.066 72.9043Z" fill="#FFEBE5"/>
<path opacity="0.8" d="M43.897 78.2773C45.5402 78.2773 46.8723 76.9554 46.8723 75.3247C46.8723 73.694 45.5402 72.3721 43.897 72.3721C42.2537 72.3721 40.9216 73.694 40.9216 75.3247C40.9216 76.9554 42.2537 78.2773 43.897 78.2773Z" fill="#FFEBE5"/>
</g>
<g opacity="0.8">
<path opacity="0.8" d="M101.066 82.0439H51.1986C50.8009 82.0439 50.4785 82.3639 50.4785 82.7586V86.1996C50.4785 86.5943 50.8009 86.9142 51.1986 86.9142H101.066C101.464 86.9142 101.786 86.5943 101.786 86.1996V82.7586C101.786 82.3639 101.464 82.0439 101.066 82.0439Z" fill="#FFEBE5"/>
<path opacity="0.8" d="M46.8364 84.9426C47.0997 83.333 45.9982 81.8164 44.3762 81.5551C42.7542 81.2938 41.2259 82.3868 40.9626 83.9964C40.6993 85.606 41.8007 87.1227 43.4227 87.384C45.0447 87.6452 46.5731 86.5522 46.8364 84.9426Z" fill="#FFEBE5"/>
</g>
<g opacity="0.8">
<path opacity="0.8" d="M101.066 91.1833H51.1984C50.8007 91.1833 50.4783 91.5033 50.4783 91.898V95.339C50.4783 95.7337 50.8007 96.0536 51.1984 96.0536H101.066C101.464 96.0536 101.786 95.7337 101.786 95.339V91.898C101.786 91.5033 101.464 91.1833 101.066 91.1833Z" fill="#FFEBE5"/>
<path opacity="0.8" d="M43.897 96.5563C45.5402 96.5563 46.8723 95.2344 46.8723 93.6037C46.8723 91.973 45.5402 90.6511 43.897 90.6511C42.2537 90.6511 40.9216 91.973 40.9216 93.6037C40.9216 95.2344 42.2537 96.5563 43.897 96.5563Z" fill="#FFEBE5"/>
</g>
<path opacity="0.8" d="M101.066 100.323H51.1986C50.8009 100.323 50.4785 100.642 50.4785 101.037V104.478C50.4785 104.873 50.8009 105.193 51.1986 105.193H101.066C101.464 105.193 101.786 104.873 101.786 104.478V101.037C101.786 100.642 101.464 100.323 101.066 100.323Z" fill="#FFEBE5"/>
<path opacity="0.8" d="M43.897 105.696C45.5402 105.696 46.8723 104.374 46.8723 102.743C46.8723 101.113 45.5402 99.7908 43.897 99.7908C42.2537 99.7908 40.9216 101.113 40.9216 102.743C40.9216 104.374 42.2537 105.696 43.897 105.696Z" fill="#FFEBE5"/>
<path opacity="0.8" d="M80.7923 63.3853H41.6777C41.3247 63.3853 41.0386 63.6692 41.0386 64.0195V67.6212C41.0386 67.9715 41.3247 68.2555 41.6777 68.2555H80.7923C81.1453 68.2555 81.4315 67.9715 81.4315 67.6212V64.0195C81.4315 63.6692 81.1453 63.3853 80.7923 63.3853Z" fill="#FFEBE5"/>
<path d="M150.392 19.3755C150.315 18.2196 149.928 17.105 149.271 16.147C148.614 15.189 147.711 14.4225 146.655 13.9267L118.823 0.819944C117.943 0.405625 116.981 0.190674 116.006 0.190674C115.032 0.190674 114.07 0.405625 113.189 0.819944L85.3553 13.9267C84.2993 14.4225 83.3961 15.189 82.739 16.147C82.082 17.105 81.6951 18.2196 81.6183 19.3755C79.007 59.3875 104.884 73.9655 113.366 77.6482C114.198 78.0094 115.096 78.1958 116.004 78.1958C116.912 78.1958 117.81 78.0094 118.642 77.6482C127.126 73.9655 153.003 59.3875 150.392 19.3755Z" fill="#FFE380"/>
<path d="M107.572 6.29367C107.481 6.29349 107.392 6.26219 107.321 6.2049C107.25 6.14761 107.2 6.06773 107.18 5.97833C107.16 5.88892 107.171 5.79531 107.211 5.7128C107.25 5.63029 107.317 5.56378 107.399 5.52417L114.072 2.33488C114.12 2.30956 114.172 2.29426 114.226 2.28988C114.28 2.2855 114.335 2.29215 114.386 2.30941C114.437 2.32668 114.485 2.35421 114.525 2.39036C114.566 2.4265 114.599 2.47052 114.622 2.51976C114.645 2.56901 114.658 2.62245 114.66 2.67691C114.663 2.73137 114.654 2.78571 114.635 2.83667C114.615 2.88763 114.586 2.93416 114.549 2.97347C114.511 3.01278 114.466 3.04406 114.416 3.06543L107.745 6.25789C107.691 6.28251 107.632 6.29472 107.572 6.29367Z" fill="white"/>
<path d="M83.7929 27.8454C83.6905 27.8455 83.592 27.806 83.5183 27.7354C83.4446 27.6648 83.4014 27.5685 83.3978 27.4669C83.3101 24.8672 83.3566 22.1572 83.5352 19.4118C83.5902 18.5875 83.8659 17.7927 84.3336 17.1096C84.8014 16.4265 85.4443 15.8799 86.1959 15.5262L104.863 6.7202C104.91 6.69565 104.962 6.6808 105.015 6.67656C105.068 6.67232 105.121 6.67876 105.172 6.6955C105.222 6.71225 105.269 6.73895 105.309 6.77401C105.349 6.80906 105.381 6.85175 105.404 6.89951C105.426 6.94726 105.439 6.9991 105.441 7.05192C105.444 7.10474 105.435 7.15744 105.416 7.20686C105.397 7.25629 105.369 7.30141 105.332 7.33954C105.295 7.37766 105.251 7.40799 105.202 7.42872L86.539 16.2347C85.9144 16.5285 85.3802 16.9825 84.9914 17.55C84.6027 18.1175 84.3735 18.7778 84.3277 19.4627C84.1507 22.1827 84.1049 24.8664 84.1918 27.4399C84.1936 27.4914 84.1851 27.5428 84.1669 27.5911C84.1486 27.6394 84.121 27.6836 84.0855 27.7213C84.05 27.7589 84.0074 27.7893 83.9602 27.8106C83.9129 27.8319 83.8618 27.8437 83.8099 27.8454H83.7929Z" fill="white"/>
<path d="M143.75 20.8423C143.735 20.5494 143.641 20.266 143.476 20.0222C143.312 19.7785 143.083 19.5836 142.816 19.4583L116.804 7.21296C116.585 7.11003 116.346 7.05664 116.103 7.05664C115.861 7.05664 115.622 7.11003 115.403 7.21296L89.3871 19.4583C89.1196 19.5836 88.8914 19.7785 88.7269 20.0222C88.5624 20.266 88.4677 20.5494 88.4529 20.8423C87.6838 35.7591 91.1604 48.2057 98.7939 57.852C104.614 65.2071 111.423 69.1484 115.412 70.9876C115.629 71.0874 115.865 71.1391 116.105 71.1391C116.344 71.1391 116.58 71.0874 116.797 70.9876C120.786 69.1484 127.594 65.2071 133.415 57.852C141.043 48.2057 144.517 35.7591 143.75 20.8423Z" fill="#2684FF"/>
<path d="M100.227 33.834C100.801 33.6487 101.406 33.5785 102.008 33.6277C102.61 33.6768 103.196 33.8442 103.731 34.1202C104.267 34.3962 104.742 34.7751 105.129 35.2348C105.515 35.6944 105.805 36.2256 105.982 36.7973L109.472 48.1288C109.55 48.3846 109.699 48.6138 109.902 48.7908C110.104 48.9678 110.353 49.0856 110.619 49.1312C110.885 49.1767 111.159 49.1481 111.409 49.0486C111.659 48.949 111.877 48.7825 112.037 48.5676L132.959 20.4942C134.003 19.0933 136.224 20.1225 135.827 21.8174C131.775 31.9563 117.415 66.6701 109.84 61.5114C109.84 61.5114 103.135 58.6224 97.0767 39.3056C96.8249 38.1683 97.0075 36.9797 97.5894 35.9692C98.1712 34.9588 99.111 34.1981 100.227 33.834Z" fill="#FFFAE5"/>
</g>
<defs>
<clipPath id="clip0_1911_3771">
<rect width="150" height="148" fill="white"/>
</clipPath>
</defs>
</svg>
