<?xml version="1.0" encoding="UTF-8"?>
<svg width="283" height="284" viewBox="0 0 283 284" fill="none" xmlns="http://www.w3.org/2000/svg">
<path d="M157.142 0.0109432C88.476 1.3886 81.9185 57.1639 60.4628 83.91C54.0638 91.8808 -25.9143 144.901 8.61673 195.402C20.662 213.036 35.2035 216.893 43.128 237.774C61.3742 285.815 95.9052 306.598 171.089 249.583C182.5 240.923 196.487 232.815 208.81 225.926C228.819 214.767 255.98 206.639 265.351 182.983C302.061 90.2866 216.536 -1.15022 157.142 0.0109432Z" fill="#E3FCEF"/>
<path fill-rule="evenodd" clip-rule="evenodd" d="M200.207 209.999L211.793 119.656L60.6004 117.708L67.2303 209.999H200.207Z" fill="url(#paint0_linear_76_1234)"/>
<path fill-rule="evenodd" clip-rule="evenodd" d="M60.6005 115.678H22.0515L36.9853 209.999H67.2305L60.6005 115.678Z" fill="url(#paint1_linear_76_1234)"/>
<g style="mix-blend-mode:multiply" opacity="0.2">
<path fill-rule="evenodd" clip-rule="evenodd" d="M173.999 209.999H92.733L93.1597 122.701H181.466L173.999 209.999Z" fill="#B32472"/>
</g>
<path fill-rule="evenodd" clip-rule="evenodd" d="M200.601 236.828L212.203 116.464L61.0105 113.845L67.6241 236.828H200.601Z" fill="#2684FF"/>
<path fill-rule="evenodd" clip-rule="evenodd" d="M61.0109 113.845H22.4456L37.3794 236.828H67.6245L61.0109 113.845Z" fill="#0747A6"/>
<path fill-rule="evenodd" clip-rule="evenodd" d="M215.863 116.53L219.867 122.701H53.8556L57.2691 113.845L215.863 116.53Z" fill="#2684FF"/>
<path fill-rule="evenodd" clip-rule="evenodd" d="M22.4453 113.845L15.9138 121.686L53.8556 122.701L57.269 113.845H22.4453Z" fill="#0747A6"/>
<path fill-rule="evenodd" clip-rule="evenodd" d="M175.739 236.828L183.928 122.701H181.86L174.393 236.828H175.739Z" fill="#0747A6"/>
<g style="mix-blend-mode:multiply" opacity="0.2">
<path fill-rule="evenodd" clip-rule="evenodd" d="M174.393 236.828H93.1433L93.5535 122.701H181.86L174.393 236.828Z" fill="#2684FF"/>
</g>
<g style="mix-blend-mode:multiply" opacity="0.5">
<path fill-rule="evenodd" clip-rule="evenodd" d="M210.743 131.524L61.6508 129.887L23.9552 126.27L23.3972 121.686L53.8557 122.701H211.596L210.743 131.524Z" fill="#B32472"/>
</g>
<g style="mix-blend-mode:multiply" opacity="0.2">
<path fill-rule="evenodd" clip-rule="evenodd" d="M56.4651 236.828L48.8669 122.537L30.536 121.932L44.2226 236.828H56.4651Z" fill="#B32472"/>
</g>
<g style="mix-blend-mode:multiply" opacity="0.5">
<path fill-rule="evenodd" clip-rule="evenodd" d="M44.2222 236.829H45.8633L33.4403 121.686L30.5356 121.932L44.2222 236.829Z" fill="#334462"/>
</g>
<path fill-rule="evenodd" clip-rule="evenodd" d="M156.817 135.305L155.176 142.393H119.335L117.694 134.651L156.817 135.305Z" fill="#334462"/>
<path d="M149.708 162.239C155.841 162.239 156.722 168.525 156.395 171.668L155.743 197.142C155.743 201.641 150.632 202.435 147.751 202.27C140.575 201.388 125.08 199.458 120.513 198.796C115.947 198.135 114.366 194.165 114.805 191.353C115.838 184.736 117.741 170.841 118.393 167.533C119.037 164.265 122.308 162.239 125.243 162.239H149.708Z" fill="white"/>
<path d="M125.379 166.643L124.747 175.007M151.448 167.929L150.658 177.259M148.92 165.839V169.86M147.972 173.237V175.007M144.496 174.685V176.454M144.812 170.986V172.916M144.18 167.447V169.377M141.652 170.342V172.272M139.282 172.433V174.363M136.597 174.363V176.454M138.493 164.552V166.643M134.859 163.908V165.999M136.755 167.769V169.86M134.543 169.86V171.79M131.067 168.251V170.342M129.013 170.342V172.272M131.383 172.272V174.363M128.697 173.881V175.972M128.223 168.895V166.643" stroke="black" stroke-width="1.28358"/>
<path d="M151.448 183.933L149.779 197.284" stroke="black" stroke-width="1.06965" stroke-linecap="round"/>
<path d="M141.282 182.94L140.266 195.921" stroke="black" stroke-width="1.06965" stroke-linecap="round"/>
<path d="M134.066 181.57L132.627 195.407" stroke="black" stroke-width="1.06965" stroke-linecap="round"/>
<path d="M123.945 181.178L122.669 194.119" stroke="black" stroke-width="1.06965" stroke-linecap="round"/>
<path d="M121.045 181.393L120.553 194.24" stroke="black" stroke-width="0.42786" stroke-linecap="round"/>
<path d="M119.663 181.067L118.591 193.879" stroke="black" stroke-width="0.42786" stroke-linecap="round"/>
<path d="M127.494 181.067L126.259 194.446" stroke="black" stroke-width="0.42786" stroke-linecap="round"/>
<path d="M129.435 181.067L128.199 194.446" stroke="black" stroke-width="0.42786" stroke-linecap="round"/>
<path d="M131.393 181.393L130.158 194.772" stroke="black" stroke-width="0.42786" stroke-linecap="round"/>
<path d="M137.593 182.372L136.358 195.751" stroke="black" stroke-width="0.42786" stroke-linecap="round"/>
<path d="M139.224 182.698L137.989 196.077" stroke="black" stroke-width="0.42786" stroke-linecap="round"/>
<path d="M145.098 182.698L143.863 196.077" stroke="black" stroke-width="0.42786" stroke-linecap="round"/>
<path d="M147.383 182.698L146.147 196.077" stroke="black" stroke-width="0.42786" stroke-linecap="round"/>
<path d="M149.014 183.025L147.779 196.404" stroke="black" stroke-width="0.42786" stroke-linecap="round"/>
<circle cx="214.175" cy="105.888" r="67.9397" fill="#FF5630"/>
<path d="M226.207 57.4773L223.277 125.277H204.606L201.676 57.4773H226.207ZM201.063 146.401C201.063 143.13 202.244 140.404 204.606 138.224C206.968 135.998 210.035 134.885 213.805 134.885C217.576 134.885 220.619 135.998 222.936 138.224C225.298 140.404 226.479 143.13 226.479 146.401C226.479 149.671 225.298 152.42 222.936 154.646C220.619 156.826 217.576 157.916 213.805 157.916C210.035 157.916 206.968 156.826 204.606 154.646C202.244 152.42 201.063 149.671 201.063 146.401Z" fill="white"/>
<defs>
<linearGradient id="paint0_linear_76_1234" x1="136.205" y1="209.999" x2="136.205" y2="117.708" gradientUnits="userSpaceOnUse">
<stop stop-color="#6D3EAD"/>
<stop offset="1" stop-color="#655EC9"/>
</linearGradient>
<linearGradient id="paint1_linear_76_1234" x1="44.6492" y1="209.999" x2="44.6492" y2="115.678" gradientUnits="userSpaceOnUse">
<stop stop-color="#400F5B"/>
<stop offset="1" stop-color="#4E48A4"/>
</linearGradient>
</defs>
</svg>
