<?xml version="1.0" encoding="UTF-8"?>
<svg width="16" height="16" viewBox="0 0 16 16" fill="none" xmlns="http://www.w3.org/2000/svg">
<rect width="16" height="16" fill="white" fill-opacity="0.01"/>
<path fill-rule="evenodd" clip-rule="evenodd" d="M3.33333 3.33366C3.15652 3.33366 2.98695 3.4039 2.86193 3.52892C2.7369 3.65395 2.66666 3.82351 2.66666 4.00033V4.66699H13.3333V4.00033C13.3333 3.82351 13.2631 3.65395 13.1381 3.52892C13.013 3.4039 12.8435 3.33366 12.6667 3.33366H3.33333ZM10.7667 13.3337H5.23C5.07229 13.3336 4.91971 13.2777 4.79936 13.1757C4.67901 13.0738 4.59869 12.9325 4.57266 12.777L3.33333 5.33366H12.6667L11.424 12.7777C11.398 12.9331 11.3176 13.0743 11.1972 13.1762C11.0769 13.278 10.9243 13.3338 10.7667 13.3337ZM6 3.00033C5.99998 2.91295 6.03428 2.82906 6.0955 2.76672C6.15672 2.70438 6.23997 2.66856 6.32733 2.66699H9.67266C9.76003 2.66856 9.84328 2.70438 9.9045 2.76672C9.96572 2.82906 10 2.91295 10 3.00033V3.33366H6V3.00033Z" fill="#0065FF"/>
</svg>
