<?xml version="1.0" encoding="UTF-8"?>
<svg width="25px" height="21px" viewBox="0 0 25 21" version="1.1" xmlns="http://www.w3.org/2000/svg" xmlns:xlink="http://www.w3.org/1999/xlink">
    <!-- Generator: Sketch 63.1 (92452) - https://sketch.com -->
    <title>Solid/delivery_bag</title>
    <desc>Created with Sketch.</desc>
    <defs>
        <path d="M25,10.7649301 L25,11.4589827 C25,12.0339618 24.5336372,12.5000614 23.9583333,12.5000614 L23.6111111,12.5000614 L22.4777344,20.4290911 C22.3311198,21.4548573 21.4521267,22.2167969 20.4153646,22.2167969 L4.58463542,22.2167969 C3.54787326,22.2167969 2.66888021,21.4548573 2.52222222,20.4290911 L1.38888889,12.5000614 L1.04166667,12.5000614 C0.466362847,12.5000614 0,12.0339618 0,11.4589827 L0,10.7649301 C0,10.189951 0.466362847,9.72385133 1.04166667,9.72385133 L3.96445312,9.72385133 L8.59900174,3.35500842 C9.05017361,2.735046 9.91875,2.59792724 10.5391493,3.0488445 C11.1595052,3.49976175 11.296658,4.36789133 10.8454861,4.98789713 L7.39917535,9.72385133 L17.6008247,9.72385133 L14.1545139,4.98785375 C13.703342,4.36789133 13.8405382,3.49971837 14.4608941,3.04880112 C15.0811632,2.59788386 15.9498698,2.73495924 16.4010417,3.35496504 L21.0355469,9.72385133 L23.9583333,9.72385133 C24.5336372,9.72385133 25,10.189951 25,10.7649301 Z M13.5416667,18.399508 L13.5416667,13.5411402 C13.5416667,12.9661611 13.0753038,12.5000614 12.5,12.5000614 C11.9246962,12.5000614 11.4583333,12.9661611 11.4583333,13.5411402 L11.4583333,18.399508 C11.4583333,18.9744871 11.9246962,19.4405868 12.5,19.4405868 C13.0753038,19.4405868 13.5416667,18.9744871 13.5416667,18.399508 Z M18.4027778,18.399508 L18.4027778,13.5411402 C18.4027778,12.9661611 17.9364149,12.5000614 17.3611111,12.5000614 C16.7858073,12.5000614 16.3194444,12.9661611 16.3194444,13.5411402 L16.3194444,18.399508 C16.3194444,18.9744871 16.7858073,19.4405868 17.3611111,19.4405868 C17.9364149,19.4405868 18.4027778,18.9744871 18.4027778,18.399508 Z M8.68055556,18.399508 L8.68055556,13.5411402 C8.68055556,12.9661611 8.21419271,12.5000614 7.63888889,12.5000614 C7.06358507,12.5000614 6.59722222,12.9661611 6.59722222,13.5411402 L6.59722222,18.399508 C6.59722222,18.9744871 7.06358507,19.4405868 7.63888889,19.4405868 C8.21419271,19.4405868 8.68055556,18.9744871 8.68055556,18.399508 Z" id="path-1"></path>
        <linearGradient x1="0%" y1="0%" x2="100%" y2="100%" id="linearGradient-3">
            <stop stop-color="#FFD3A5" offset="0%"></stop>
            <stop stop-color="#FD6585" offset="100%"></stop>
        </linearGradient>
    </defs>
    <g id="Symbols" stroke="none" stroke-width="1" fill="none" fill-rule="evenodd">
        <g id="agent_assignment_task" transform="translate(0.000000, -307.000000)">
            <g id="Group-6" transform="translate(0.000000, 305.000000)">
                <g id="Group-3">
                    <g id="Solid/shopping-basket">
                        <mask id="mask-2" fill="white">
                            <use xlink:href="#path-1"></use>
                        </mask>
                        <use id="Mask" fill="#000000" fill-rule="nonzero" xlink:href="#path-1"></use>
                        <g id="Gradient/2" mask="url(#mask-2)" fill="url(#linearGradient-3)" fill-rule="evenodd">
                            <rect id="2" x="0" y="0" width="25" height="25"></rect>
                        </g>
                    </g>
                </g>
            </g>
        </g>
    </g>
</svg>