<?xml version="1.0" encoding="UTF-8"?>
<svg width="20" height="20" viewBox="0 0 20 20" fill="none" xmlns="http://www.w3.org/2000/svg">
<path d="M12.0045 7.00439L5.12954 13.8794C5.01232 13.9966 4.85335 14.0624 4.6876 14.0624C4.52185 14.0624 4.36289 13.9966 4.24567 13.8794L0.808093 10.442C0.690875 10.3248 0.625014 10.1659 0.625 10.0001C0.624986 9.83437 0.690819 9.6754 0.808016 9.55818C0.925214 9.44096 1.08418 9.3751 1.24993 9.37508C1.41569 9.37507 1.57466 9.4409 1.69188 9.5581L4.68756 12.5536L11.1205 6.12045C11.2377 6.00323 11.3967 5.93738 11.5625 5.93738C11.7283 5.93738 11.8872 6.00323 12.0045 6.12045C12.1217 6.23767 12.1875 6.39665 12.1875 6.56242C12.1875 6.72819 12.1217 6.88717 12.0045 7.00439H12.0045ZM19.192 6.12045C19.0747 6.00328 18.9157 5.93746 18.75 5.93746C18.5842 5.93746 18.4253 6.00328 18.308 6.12045L11.8751 12.5536L10.4909 11.1695C10.3736 11.0523 10.2147 10.9865 10.0489 10.9865C9.88316 10.9865 9.72419 11.0524 9.607 11.1696C9.4898 11.2868 9.42397 11.4458 9.42398 11.6115C9.42399 11.7773 9.48985 11.9362 9.60707 12.0534L11.4332 13.8794C11.5504 13.9966 11.7093 14.0624 11.8751 14.0624C12.0409 14.0624 12.1998 13.9966 12.317 13.8794L19.192 7.00439C19.3092 6.88717 19.375 6.72819 19.375 6.56242C19.375 6.39665 19.3092 6.23767 19.192 6.12045Z" fill="#979797"/>
</svg>
