<?xml version="1.0" encoding="UTF-8"?>
<svg width="20" height="20" viewBox="0 0 20 20" fill="none" xmlns="http://www.w3.org/2000/svg">
<g id="download">
<path id="vector" d="M9.99604 13.0408C9.89188 13.0408 9.78957 13.0189 9.68913 12.9751C9.58867 12.9312 9.49547 12.8671 9.40954 12.7827L6.13417 9.50728C5.96992 9.33924 5.89126 9.14189 5.89821 8.91522C5.90515 8.68854 5.98803 8.49308 6.14685 8.32883C6.31967 8.16337 6.51958 8.0829 6.74658 8.08743C6.97358 8.09196 7.16921 8.17635 7.33346 8.3406L9.17494 10.1911V3.86418C9.17494 3.63312 9.25481 3.43587 9.41454 3.27241C9.57429 3.10895 9.7707 3.02722 10.0038 3.02722C10.2369 3.02722 10.432 3.10895 10.5894 3.27241C10.7467 3.43587 10.8253 3.63312 10.8253 3.86418V10.1911L12.6876 8.3406C12.8491 8.17635 13.0388 8.09345 13.2567 8.09191C13.4746 8.09038 13.6686 8.17205 13.8389 8.33693C14.0074 8.50182 14.0897 8.69979 14.0857 8.93085C14.0818 9.16192 13.9977 9.36101 13.8335 9.52812L10.5907 12.7827C10.5043 12.8671 10.4096 12.9312 10.3067 12.9751C10.2037 13.0189 10.1002 13.0408 9.99604 13.0408ZM4.68944 16.9611C4.23795 16.9611 3.85002 16.7989 3.52565 16.4745C3.20126 16.1502 3.03906 15.7622 3.03906 15.3107V13.1568C3.03906 12.9247 3.11894 12.7292 3.27869 12.5701C3.43842 12.4111 3.63483 12.3316 3.8679 12.3316C4.10098 12.3316 4.29617 12.4111 4.45348 12.5701C4.61078 12.7292 4.68944 12.9247 4.68944 13.1568V15.3107H15.3108V13.1568C15.3108 12.9247 15.3907 12.7292 15.5504 12.5701C15.7102 12.4111 15.9062 12.3316 16.1386 12.3316C16.371 12.3316 16.5682 12.4111 16.7301 12.5701C16.892 12.7292 16.973 12.9247 16.973 13.1568V15.3107C16.973 15.7622 16.8096 16.1502 16.4829 16.4745C16.1562 16.7989 15.7655 16.9611 15.3108 16.9611H4.68944Z" fill="#2A55E5"/>
</g>
</svg>
