<?xml version="1.0" encoding="UTF-8"?>
<svg width="61" height="17" viewBox="0 0 61 17" fill="none" xmlns="http://www.w3.org/2000/svg">
<path d="M24.4316 12H22.9551V3.46875H24.4316V12ZM27.4375 5.66016L27.4785 6.39258C27.9473 5.82617 28.5625 5.54297 29.3242 5.54297C30.6445 5.54297 31.3164 6.29883 31.3398 7.81055V12H29.916V7.89258C29.916 7.49023 29.8281 7.19336 29.6523 7.00195C29.4805 6.80664 29.1973 6.70898 28.8027 6.70898C28.2285 6.70898 27.8008 6.96875 27.5195 7.48828V12H26.0957V5.66016H27.4375ZM35.0312 10.1953L36.373 5.66016H37.8438L35.6465 12H34.4102L32.1953 5.66016H33.6719L35.0312 10.1953ZM38.377 8.77148C38.377 8.15039 38.5 7.5918 38.7461 7.0957C38.9922 6.5957 39.3379 6.21289 39.7832 5.94727C40.2285 5.67773 40.7402 5.54297 41.3184 5.54297C42.1738 5.54297 42.8672 5.81836 43.3984 6.36914C43.9336 6.91992 44.2227 7.65039 44.2656 8.56055L44.2715 8.89453C44.2715 9.51953 44.1504 10.0781 43.9082 10.5703C43.6699 11.0625 43.3262 11.4434 42.877 11.7129C42.4316 11.9824 41.916 12.1172 41.3301 12.1172C40.4355 12.1172 39.7188 11.8203 39.1797 11.2266C38.6445 10.6289 38.377 9.83398 38.377 8.8418V8.77148ZM39.8008 8.89453C39.8008 9.54688 39.9355 10.0586 40.2051 10.4297C40.4746 10.7969 40.8496 10.9805 41.3301 10.9805C41.8105 10.9805 42.1836 10.793 42.4492 10.418C42.7188 10.043 42.8535 9.49414 42.8535 8.77148C42.8535 8.13086 42.7148 7.62305 42.4375 7.24805C42.1641 6.87305 41.791 6.68555 41.3184 6.68555C40.8535 6.68555 40.4844 6.87109 40.2109 7.24219C39.9375 7.60938 39.8008 8.16016 39.8008 8.89453ZM46.9902 12H45.5664V5.66016H46.9902V12ZM45.4785 4.01367C45.4785 3.79492 45.5469 3.61328 45.6836 3.46875C45.8242 3.32422 46.0234 3.25195 46.2812 3.25195C46.5391 3.25195 46.7383 3.32422 46.8789 3.46875C47.0195 3.61328 47.0898 3.79492 47.0898 4.01367C47.0898 4.22852 47.0195 4.4082 46.8789 4.55273C46.7383 4.69336 46.5391 4.76367 46.2812 4.76367C46.0234 4.76367 45.8242 4.69336 45.6836 4.55273C45.5469 4.4082 45.4785 4.22852 45.4785 4.01367ZM51.1504 10.9805C51.5059 10.9805 51.8008 10.877 52.0352 10.6699C52.2695 10.4629 52.3945 10.207 52.4102 9.90234H53.752C53.7363 10.2969 53.6133 10.666 53.3828 11.0098C53.1523 11.3496 52.8398 11.6191 52.4453 11.8184C52.0508 12.0176 51.625 12.1172 51.168 12.1172C50.2812 12.1172 49.5781 11.8301 49.0586 11.2559C48.5391 10.6816 48.2793 9.88867 48.2793 8.87695V8.73047C48.2793 7.76562 48.5371 6.99414 49.0527 6.41602C49.5684 5.83398 50.2715 5.54297 51.1621 5.54297C51.916 5.54297 52.5293 5.76367 53.002 6.20508C53.4785 6.64258 53.7285 7.21875 53.752 7.93359H52.4102C52.3945 7.57031 52.2695 7.27148 52.0352 7.03711C51.8047 6.80273 51.5098 6.68555 51.1504 6.68555C50.6895 6.68555 50.334 6.85352 50.084 7.18945C49.834 7.52148 49.707 8.02734 49.7031 8.70703V8.93555C49.7031 9.62305 49.8262 10.1367 50.0723 10.4766C50.3223 10.8125 50.6816 10.9805 51.1504 10.9805ZM57.6191 12.1172C56.7168 12.1172 55.9844 11.834 55.4219 11.2676C54.8633 10.6973 54.584 9.93945 54.584 8.99414V8.81836C54.584 8.18555 54.7051 7.62109 54.9473 7.125C55.1934 6.625 55.5371 6.23633 55.9785 5.95898C56.4199 5.68164 56.9121 5.54297 57.4551 5.54297C58.3184 5.54297 58.9844 5.81836 59.4531 6.36914C59.9258 6.91992 60.1621 7.69922 60.1621 8.70703V9.28125H56.0195C56.0625 9.80469 56.2363 10.2188 56.541 10.5234C56.8496 10.8281 57.2363 10.9805 57.7012 10.9805C58.3535 10.9805 58.8848 10.7168 59.2949 10.1895L60.0625 10.9219C59.8086 11.3008 59.4688 11.5957 59.043 11.8066C58.6211 12.0137 58.1465 12.1172 57.6191 12.1172ZM57.4492 6.68555C57.0586 6.68555 56.7422 6.82227 56.5 7.0957C56.2617 7.36914 56.1094 7.75 56.043 8.23828H58.7559V8.13281C58.7246 7.65625 58.5977 7.29688 58.375 7.05469C58.1523 6.80859 57.8438 6.68555 57.4492 6.68555Z" fill="#0065FF"/>
<path d="M14 6H10V0H4V6H0L7 13L14 6Z" fill="#0065FF"/>
<path d="M0 15V17H14V15H0Z" fill="#0065FF"/>
</svg>
