<?xml version="1.0" encoding="UTF-8"?>
<svg width="26" height="24" viewBox="0 0 26 24" fill="none" xmlns="http://www.w3.org/2000/svg">
<path fill-rule="evenodd" clip-rule="evenodd" d="M11.9988 14.6969L7.11886 10.104C6.7081 9.71741 6.7081 9.09061 7.11886 8.70401C7.52962 8.31741 8.1956 8.31741 8.60636 8.70401L12.7501 12.604L16.8939 8.70401C17.3046 8.31741 17.9706 8.31741 18.3814 8.70401C18.7921 9.09061 18.7921 9.71741 18.3814 10.104L13.5014 14.6969C13.0865 15.0874 12.4137 15.0874 11.9988 14.6969Z" fill="white"/>
<mask id="mask0_1821_226" style="mask-type:alpha" maskUnits="userSpaceOnUse" x="6" y="8" width="13" height="7">
<path fill-rule="evenodd" clip-rule="evenodd" d="M11.9988 14.6969L7.11886 10.104C6.7081 9.71741 6.7081 9.09061 7.11886 8.70401C7.52962 8.31741 8.1956 8.31741 8.60636 8.70401L12.7501 12.604L16.8939 8.70401C17.3046 8.31741 17.9706 8.31741 18.3814 8.70401C18.7921 9.09061 18.7921 9.71741 18.3814 10.104L13.5014 14.6969C13.0865 15.0874 12.4137 15.0874 11.9988 14.6969Z" fill="white"/>
</mask>
<g mask="url(#mask0_1821_226)">
<path fill-rule="evenodd" clip-rule="evenodd" d="M0 24H25.5V0H0V24Z" fill="#42526E"/>
</g>
</svg>
