<?xml version="1.0" encoding="UTF-8"?>
<svg width="38" height="40" viewBox="0 0 38 40" fill="none" xmlns="http://www.w3.org/2000/svg">
<rect width="31.5584" height="15.7666" rx="1" transform="matrix(0.761695 0.647936 -0.647716 0.761882 11.9529 3.49219)" fill="#1D54C9"/>
<path d="M12.3646 7.18953L12.6312 7.41631L12.3646 7.18953ZM12.6885 6.80859L12.9152 6.54194C12.7679 6.41669 12.5471 6.43454 12.4219 6.58182L12.6885 6.80859ZM16.3605 9.93222L16.6271 10.159C16.7523 10.0117 16.7345 9.79081 16.5872 9.66556L16.3605 9.93222ZM16.0367 10.3132L15.81 10.5798C15.9572 10.7051 16.1781 10.6872 16.3033 10.5399L16.0367 10.3132ZM12.7455 7.5135L12.9722 7.24684C12.8249 7.1216 12.6041 7.13945 12.4789 7.28673L12.7455 7.5135ZM5.81665 15.6636L5.55006 15.4368C5.48993 15.5075 5.46036 15.5992 5.46784 15.6918C5.47532 15.7843 5.51925 15.8701 5.58995 15.9302L5.81665 15.6636ZM9.10787 18.4633L9.37446 18.69C9.49966 18.5428 9.4818 18.3218 9.33457 18.1966L9.10787 18.4633ZM8.78401 18.8442L8.55731 19.1109C8.62801 19.171 8.71971 19.2006 8.81222 19.1931C8.90473 19.1856 8.99048 19.1417 9.0506 19.071L8.78401 18.8442ZM5.49279 16.0445L5.7195 15.7779C5.64879 15.7177 5.5571 15.6881 5.46459 15.6956C5.37208 15.7031 5.28633 15.747 5.2262 15.8178L5.49279 16.0445ZM5.49267 16.0447L5.26596 16.3113C5.33667 16.3715 5.42836 16.4011 5.52087 16.3936C5.61338 16.3861 5.69913 16.3422 5.75926 16.2715L5.49267 16.0447ZM5.11182 15.7207L4.84522 15.4939C4.72002 15.6412 4.73788 15.8621 4.88512 15.9874L5.11182 15.7207ZM5.27375 15.5302L5.00715 15.3035L5.27375 15.5302ZM12.6312 7.41631L12.7931 7.22584L12.26 6.77229L12.098 6.96276L12.6312 7.41631ZM12.7931 7.22584L12.9551 7.03537L12.4219 6.58182L12.26 6.77229L12.7931 7.22584ZM12.4618 7.07525L12.6522 7.23724L13.1056 6.70392L12.9152 6.54194L12.4618 7.07525ZM12.6522 7.23724L12.8426 7.39922L13.296 6.8659L13.1056 6.70392L12.6522 7.23724ZM16.3968 9.50358L13.296 6.8659L12.8426 7.39922L15.9434 10.0369L16.3968 9.50358ZM16.5872 9.66556L16.3968 9.50358L15.9434 10.0369L16.1338 10.1989L16.5872 9.66556ZM16.3033 10.5399L16.6271 10.159L16.0939 9.70544L15.7701 10.0864L16.3033 10.5399ZM15.6195 10.4178L15.81 10.5798L16.2634 10.0465L16.0729 9.88452L15.6195 10.4178ZM12.5188 7.78016L15.6195 10.4178L16.0729 9.88452L12.9722 7.24684L12.5188 7.78016ZM12.4789 7.28673L5.55006 15.4368L6.08325 15.8904L13.0121 7.74028L12.4789 7.28673ZM9.14414 18.0346L6.04335 15.3969L5.58995 15.9302L8.69074 18.5679L9.14414 18.0346ZM9.33457 18.1966L9.14414 18.0346L8.69074 18.5679L8.88117 18.7299L9.33457 18.1966ZM9.0506 19.071L9.37446 18.69L8.84127 18.2365L8.51742 18.6174L9.0506 19.071ZM8.36688 18.9489L8.55731 19.1109L9.01071 18.5775L8.82029 18.4156L8.36688 18.9489ZM5.26609 16.3112L8.36688 18.9489L8.82029 18.4156L5.7195 15.7779L5.26609 16.3112ZM5.2262 15.8178L5.22607 15.8179L5.75926 16.2715L5.75939 16.2713L5.2262 15.8178ZM5.71937 15.778L5.33852 15.4541L4.88512 15.9874L5.26596 16.3113L5.71937 15.778ZM5.37841 15.9475L5.54034 15.757L5.00715 15.3035L4.84522 15.4939L5.37841 15.9475ZM5.54034 15.757L12.6312 7.41631L12.098 6.96276L5.00715 15.3035L5.54034 15.757Z" fill="#379EFC"/>
<path d="M25.811 33.3281L25.5843 33.5948C25.7316 33.72 25.9524 33.7022 26.0776 33.5549L25.811 33.3281ZM22.139 30.2045L21.8724 29.9777C21.7472 30.125 21.7651 30.3459 21.9123 30.4712L22.139 30.2045ZM22.4628 29.8236L22.6895 29.5569C22.5423 29.4317 22.3215 29.4495 22.1963 29.5968L22.4628 29.8236ZM22.6533 29.9855L22.4266 30.2522L22.6533 29.9855ZM25.754 32.6232L25.5273 32.8899C25.6746 33.0151 25.8954 32.9973 26.0206 32.85L25.754 32.6232ZM32.6829 24.4731L32.9495 24.6999C33.0747 24.5526 33.0568 24.3317 32.9096 24.2065L32.6829 24.4731ZM29.5821 21.8354L29.8088 21.5688L29.5821 21.8354ZM29.3916 21.6735L29.1251 21.4467C28.9998 21.594 29.0177 21.8149 29.1649 21.9401L29.3916 21.6735ZM29.7155 21.2925L29.9422 21.0259C29.795 20.9006 29.5741 20.9185 29.4489 21.0657L29.7155 21.2925ZM33.0067 24.0922L32.78 24.3588C32.9273 24.4841 33.1481 24.4662 33.2733 24.319L33.0067 24.0922ZM33.0068 24.092L33.2335 23.8254C33.1628 23.7652 33.0711 23.7356 32.9786 23.7431C32.8861 23.7506 32.8004 23.7945 32.7403 23.8653L33.0068 24.092ZM33.3877 24.416L33.6543 24.6428C33.7795 24.4955 33.7616 24.2746 33.6144 24.1493L33.3877 24.416ZM25.8683 32.7204L25.7064 32.9109L26.2396 33.3644L26.4015 33.174L25.8683 32.7204ZM25.7064 32.9109L25.5444 33.1013L26.0776 33.5549L26.2396 33.3644L25.7064 32.9109ZM26.0377 33.0615L25.8473 32.8995L25.3939 33.4328L25.5843 33.5948L26.0377 33.0615ZM25.8473 32.8995L25.6569 32.7375L25.2035 33.2708L25.3939 33.4328L25.8473 32.8995ZM22.1027 30.6331L25.2035 33.2708L25.6569 32.7375L22.5561 30.0998L22.1027 30.6331ZM21.9123 30.4712L22.1027 30.6331L22.5561 30.0998L22.3657 29.9378L21.9123 30.4712ZM22.1963 29.5968L21.8724 29.9777L22.4056 30.4313L22.7294 30.0503L22.1963 29.5968ZM22.88 29.7189L22.6895 29.5569L22.2361 30.0902L22.4266 30.2522L22.88 29.7189ZM25.9807 32.3566L22.88 29.7189L22.4266 30.2522L25.5273 32.8899L25.9807 32.3566ZM26.0206 32.85L32.9495 24.6999L32.4163 24.2464L25.4875 32.3964L26.0206 32.85ZM29.3554 22.1021L32.4562 24.7398L32.9096 24.2065L29.8088 21.5688L29.3554 22.1021ZM29.1649 21.9401L29.3554 22.1021L29.8088 21.5688L29.6183 21.4068L29.1649 21.9401ZM29.4489 21.0657L29.1251 21.4467L29.6582 21.9002L29.9821 21.5193L29.4489 21.0657ZM30.1326 21.1878L29.9422 21.0259L29.4888 21.5592L29.6792 21.7212L30.1326 21.1878ZM33.2334 23.8255L30.1326 21.1878L29.6792 21.7212L32.78 24.3588L33.2334 23.8255ZM33.2733 24.319L33.2734 24.3188L32.7403 23.8653L32.7401 23.8654L33.2733 24.319ZM32.7801 24.3587L33.161 24.6827L33.6144 24.1493L33.2335 23.8254L32.7801 24.3587ZM33.1211 24.1892L32.9592 24.3797L33.4924 24.8333L33.6543 24.6428L33.1211 24.1892ZM32.9592 24.3797L25.8683 32.7204L26.4015 33.174L33.4924 24.8333L32.9592 24.3797Z" fill="#379EFC"/>
<ellipse rx="4.60226" ry="4.59859" transform="matrix(0.761695 0.647936 -0.647716 0.761882 17.9395 19.7971)" fill="#379EFC"/>
<path d="M20.479 18.8047L19.9524 18.3567C19.9451 18.5582 19.8801 18.7568 19.7574 18.9524L20.2059 19.3339L19.8035 19.5993L19.4643 19.3108C19.2123 19.5529 18.9379 19.663 18.6411 19.6413C18.3442 19.6196 18.0329 19.4701 17.7071 19.193L17.7218 21.4056L17.699 21.4324L17.1925 21.0015L17.1806 18.6182L17.4156 18.3373L17.9712 18.81C18.1584 18.9667 18.3436 19.0549 18.5267 19.0748C18.711 19.0931 18.877 19.0471 19.0247 18.9368L17.7326 17.8377L18.1351 17.5724L19.32 18.5803C19.489 18.2369 19.3955 17.9035 19.0397 17.5803L18.4126 17.0469L18.8173 16.7834L20.8815 18.5393L20.479 18.8047Z" fill="#2874F0"/>
<rect x="17.7219" y="1.87891" width="31.5592" height="15.7662" rx="1" transform="rotate(50.3279 17.7219 1.87891)" fill="#2874F0"/>
<path d="M17.4889 5.59166L17.7124 5.86106L17.4889 5.59166ZM17.6814 5.43206L17.4579 5.16266L17.6814 5.43206ZM17.8738 5.27246L18.1432 5.04902C18.0198 4.90024 17.7991 4.87966 17.6503 5.00306L17.8738 5.27246ZM18.193 5.65732L18.4624 5.43388L18.193 5.65732ZM20.7919 8.7908L20.5225 9.01424L20.7919 8.7908ZM20.9515 8.98323L21.1749 9.25263C21.3237 9.12923 21.3443 8.90858 21.2209 8.75979L20.9515 8.98323ZM20.5666 9.30243L20.2972 9.52587C20.3565 9.59732 20.4417 9.6423 20.5341 9.65092C20.6265 9.65954 20.7186 9.63109 20.7901 9.57183L20.5666 9.30243ZM17.8081 5.97651L18.0775 5.75308C17.9541 5.60429 17.7335 5.58371 17.5847 5.70711L17.8081 5.97651ZM9.57434 12.8056L9.3509 12.5362C9.20212 12.6596 9.18154 12.8802 9.30494 13.029L9.57434 12.8056ZM12.1732 15.9391L11.9038 16.1625L12.1732 15.9391ZM12.3328 16.1315L12.5563 16.4009C12.6277 16.3416 12.6727 16.2564 12.6813 16.164C12.6899 16.0716 12.6615 15.9795 12.6022 15.908L12.3328 16.1315ZM11.948 16.4507L11.6786 16.6741C11.802 16.8229 12.0226 16.8435 12.1714 16.7201L11.948 16.4507ZM11.7884 16.2582L11.519 16.4817L11.7884 16.2582ZM9.02989 12.9323L9.29928 12.7089L9.02989 12.9323ZM8.87029 12.7399L8.64685 12.4705C8.49807 12.5939 8.47749 12.8146 8.60089 12.9633L8.87029 12.7399ZM8.87031 12.7399L8.64687 12.4705L8.87031 12.7399ZM9.06273 12.5803L9.28617 12.8497L9.06273 12.5803ZM9.25514 12.4207L9.0317 12.1513L9.25514 12.4207ZM17.7124 5.86106L17.9048 5.70146L17.4579 5.16266L17.2655 5.32226L17.7124 5.86106ZM17.9048 5.70146L18.0972 5.54186L17.6503 5.00306L17.4579 5.16266L17.9048 5.70146ZM17.6044 5.4959L17.764 5.68833L18.3028 5.24145L18.1432 5.04902L17.6044 5.4959ZM17.764 5.68833L17.9236 5.88075L18.4624 5.43388L18.3028 5.24145L17.764 5.68833ZM21.0613 8.56737L18.4624 5.43388L17.9236 5.88075L20.5225 9.01424L21.0613 8.56737ZM21.2209 8.75979L21.0613 8.56737L20.5225 9.01424L20.6821 9.20667L21.2209 8.75979ZM20.7901 9.57183L21.1749 9.25263L20.728 8.71383L20.3432 9.03303L20.7901 9.57183ZM20.1376 9.33344L20.2972 9.52587L20.836 9.07899L20.6764 8.88656L20.1376 9.33344ZM17.5387 6.19995L20.1376 9.33344L20.6764 8.88656L18.0775 5.75308L17.5387 6.19995ZM17.5847 5.70711L9.3509 12.5362L9.79778 13.075L18.0316 6.24591L17.5847 5.70711ZM12.4426 15.7156L9.84374 12.5821L9.30494 13.029L11.9038 16.1625L12.4426 15.7156ZM12.6022 15.908L12.4426 15.7156L11.9038 16.1625L12.0634 16.3549L12.6022 15.908ZM12.1714 16.7201L12.5563 16.4009L12.1094 15.8621L11.7245 16.1813L12.1714 16.7201ZM11.519 16.4817L11.6786 16.6741L12.2174 16.2272L12.0578 16.0348L11.519 16.4817ZM8.76049 13.1558L11.519 16.4817L12.0578 16.0348L9.29928 12.7089L8.76049 13.1558ZM8.60089 12.9633L8.76049 13.1558L9.29928 12.7089L9.13969 12.5165L8.60089 12.9633ZM8.64687 12.4705L8.64685 12.4705L9.09373 13.0093L9.09374 13.0093L8.64687 12.4705ZM9.09374 13.0093L9.28617 12.8497L8.8393 12.3109L8.64687 12.4705L9.09374 13.0093ZM9.28617 12.8497L9.47858 12.6901L9.0317 12.1513L8.8393 12.3109L9.28617 12.8497ZM9.47858 12.6901L17.7124 5.86106L17.2655 5.32226L9.0317 12.1513L9.47858 12.6901Z" fill="#379EFC"/>
<path d="M26.4114 33.4976L26.6349 33.767L26.4114 33.4976ZM26.219 33.6572L25.9496 33.8807C26.073 34.0294 26.2936 34.05 26.4424 33.9266L26.219 33.6572ZM23.1413 29.9465L22.9179 29.6771C22.7691 29.8005 22.7485 30.0211 22.8719 30.1699L23.1413 29.9465ZM23.5262 29.6273L23.7956 29.4038C23.7363 29.3324 23.6511 29.2874 23.5587 29.2788C23.4662 29.2702 23.3742 29.2986 23.3027 29.3579L23.5262 29.6273ZM26.2847 32.9532L26.0153 33.1766C26.1387 33.3254 26.3593 33.346 26.5081 33.2226L26.2847 32.9532ZM34.5184 26.1241L34.7419 26.3935C34.8133 26.3343 34.8583 26.249 34.8669 26.1566C34.8755 26.0642 34.8471 25.9721 34.7878 25.9007L34.5184 26.1241ZM31.7599 22.7982L31.5365 22.5288C31.3877 22.6522 31.3671 22.8729 31.4905 23.0216L31.7599 22.7982ZM32.1448 22.479L32.4142 22.2556C32.3549 22.1841 32.2697 22.1391 32.1773 22.1305C32.0849 22.1219 31.9928 22.1504 31.9214 22.2096L32.1448 22.479ZM32.3044 22.6714L32.5738 22.448L32.3044 22.6714ZM35.0629 25.9974L34.7935 26.2208L35.0629 25.9974ZM35.2225 26.1898L35.4459 26.4592C35.5174 26.3999 35.5624 26.3147 35.571 26.2223C35.5796 26.1299 35.5511 26.0378 35.4919 25.9663L35.2225 26.1898ZM35.2225 26.1898L35.4459 26.4592L35.2225 26.1898ZM35.03 26.3494L34.8066 26.08L35.03 26.3494ZM34.8376 26.509L35.0611 26.7784L34.8376 26.509ZM26.3804 33.0686L26.188 33.2282L26.6349 33.767L26.8273 33.6074L26.3804 33.0686ZM26.188 33.2282L25.9956 33.3878L26.4424 33.9266L26.6349 33.767L26.188 33.2282ZM26.4884 33.4338L26.3288 33.2414L25.79 33.6882L25.9496 33.8807L26.4884 33.4338ZM26.3288 33.2414L26.1692 33.0489L25.6304 33.4958L25.79 33.6882L26.3288 33.2414ZM23.0315 30.3623L25.6304 33.4958L26.1692 33.0489L23.5703 29.9154L23.0315 30.3623ZM22.8719 30.1699L23.0315 30.3623L23.5703 29.9154L23.4107 29.723L22.8719 30.1699ZM23.3027 29.3579L22.9179 29.6771L23.3647 30.2159L23.7496 29.8967L23.3027 29.3579ZM23.9552 29.5962L23.7956 29.4038L23.2568 29.8507L23.4164 30.0431L23.9552 29.5962ZM26.5541 32.7297L23.9552 29.5962L23.4164 30.0431L26.0153 33.1766L26.5541 32.7297ZM26.5081 33.2226L34.7419 26.3935L34.295 25.8547L26.0612 32.6838L26.5081 33.2226ZM31.6501 23.2141L34.249 26.3476L34.7878 25.9007L32.1889 22.7672L31.6501 23.2141ZM31.4905 23.0216L31.6501 23.2141L32.1889 22.7672L32.0293 22.5748L31.4905 23.0216ZM31.9214 22.2096L31.5365 22.5288L31.9834 23.0676L32.3682 22.7484L31.9214 22.2096ZM32.5738 22.448L32.4142 22.2556L31.8754 22.7025L32.035 22.8949L32.5738 22.448ZM35.3323 25.7739L32.5738 22.448L32.035 22.8949L34.7935 26.2208L35.3323 25.7739ZM35.4919 25.9663L35.3323 25.7739L34.7935 26.2208L34.9531 26.4132L35.4919 25.9663ZM35.4459 26.4592L35.4459 26.4592L34.999 25.9204L34.999 25.9204L35.4459 26.4592ZM34.999 25.9204L34.8066 26.08L35.2535 26.6188L35.4459 26.4592L34.999 25.9204ZM34.8066 26.08L34.6142 26.2396L35.0611 26.7784L35.2535 26.6188L34.8066 26.08ZM34.6142 26.2396L26.3804 33.0686L26.8273 33.6074L35.0611 26.7784L34.6142 26.2396Z" fill="#379EFC"/>
<ellipse cx="20.8024" cy="18.9703" rx="4.60238" ry="4.59847" transform="rotate(50.3279 20.8024 18.9703)" fill="#379EFC"/>
<path d="M23.9564 18.5925L23.3678 17.883C23.3119 18.1459 23.1808 18.3917 22.9745 18.6203L23.4758 19.2246L22.886 19.4803L22.5069 19.0233C22.1202 19.2831 21.7344 19.3646 21.3495 19.2677C20.9647 19.1707 20.5902 18.9028 20.2261 18.4638L19.7357 21.3725L19.6996 21.4024L19.1335 20.7199L19.667 17.5878L20.0403 17.273L20.6612 18.0217C20.8711 18.2706 21.0939 18.4292 21.3298 18.4974C21.5677 18.564 21.7964 18.5418 22.0157 18.431L20.5718 16.6901L21.1616 16.4344L22.4857 18.0309C22.7868 17.6189 22.7409 17.1596 22.3479 16.6532L21.6472 15.8083L22.2394 15.5557L24.5461 18.3368L23.9564 18.5925Z" fill="#2874F0"/>
</svg>
