<?xml version="1.0" encoding="UTF-8"?>
<svg width="160" height="161" viewBox="0 0 160 161" fill="none" xmlns="http://www.w3.org/2000/svg">
<g id="empty">
<path id="Rectangle 575853" d="M14.9688 72.3071H63.491V130.5H24.3438C19.1661 130.5 14.9688 126.303 14.9688 121.125V72.3071Z" fill="#ABC8FF"/>
<path id="Rectangle 575853_2" d="M51.2305 72.3071H145V121.125C145 126.303 140.803 130.5 135.625 130.5H60.6055C55.4278 130.5 51.2305 126.303 51.2305 121.125V72.3071Z" fill="#CFE1FF"/>
<path id="Rectangle 575853_3" d="M80.1641 72.3071H118.57L116.095 78.566C115.317 80.5336 113.416 81.8262 111.3 81.8262H87.434C85.3182 81.8262 83.4171 80.5336 82.6391 78.566L80.1641 72.3071Z" fill="#ABC8FF"/>
<path id="Vector 20" d="M101.904 33.5238C99.8552 31.5777 92.402 26.3055 82.0769 26.5513C69.1706 26.8585 63.4922 29.8364 63.4922 33.5238C63.4922 39.2392 101.904 35.7788 101.904 45.8154C101.904 52.5758 71.7891 45.8154 71.7891 55.3415C71.7891 62.9623 84.9003 66.7113 91.4559 67.6332" stroke="#ABC8FF" stroke-width="1.5625" stroke-linecap="round" stroke-dasharray="3.12 3.12"/>
</g>
</svg>
