<?xml version="1.0" encoding="UTF-8"?>
<svg xmlns="http://www.w3.org/2000/svg" width="232" height="160" viewBox="0 0 232 160" fill="none">
  <path d="M47.2476 73.4053H98.5703V134.957H57.1637C51.6871 134.957 47.2476 130.517 47.2476 125.041V73.4053Z" fill="#ABC8FF"/>
  <path d="M85.6018 73.4053H184.784V125.041C184.784 130.517 180.344 134.957 174.868 134.957H95.5179C90.0414 134.957 85.6018 130.517 85.6018 125.041V73.4053Z" fill="#CFE1FF"/>
  <path d="M116.203 73.4053H156.826L154.208 80.0254C153.385 82.1066 151.374 83.4737 149.136 83.4737H123.893C121.655 83.4737 119.644 82.1066 118.821 80.0254L116.203 73.4053Z" fill="#ABC8FF"/>
  <path d="M139.198 32.3837C137.031 30.3253 129.148 24.7489 118.227 25.0088C104.576 25.3337 98.5693 28.4835 98.5693 32.3837C98.5693 38.429 139.198 34.7689 139.198 45.3847C139.198 52.5354 107.345 45.3847 107.345 55.4606C107.345 63.5214 121.213 67.4867 128.147 68.4618" stroke="#ABC8FF" stroke-width="1.65268" stroke-linecap="round" stroke-dasharray="3.31 3.31"/>
</svg>
