<?xml version="1.0" encoding="UTF-8"?>
<svg width="20" height="20" viewBox="0 0 20 20" fill="none" xmlns="http://www.w3.org/2000/svg">
<path d="M10.6248 5.10751V3.125C10.6248 2.95924 10.5589 2.80027 10.4417 2.68306C10.3245 2.56585 10.1655 2.5 9.99976 2.5C9.834 2.5 9.67503 2.56585 9.55782 2.68306C9.44061 2.80027 9.37476 2.95924 9.37476 3.125V5.10751C9.00921 5.23669 8.6927 5.47604 8.46883 5.79258C8.24497 6.10913 8.12476 6.48729 8.12476 6.875C8.12476 7.26271 8.24497 7.64088 8.46883 7.95742C8.6927 8.27397 9.00921 8.51331 9.37476 8.64249V16.875C9.37476 17.0408 9.44061 17.1997 9.55782 17.3169C9.67503 17.4342 9.834 17.5 9.99976 17.5C10.1655 17.5 10.3245 17.4342 10.4417 17.3169C10.5589 17.1997 10.6248 17.0408 10.6248 16.875V8.64249C10.9903 8.51331 11.3068 8.27397 11.5307 7.95742C11.7546 7.64088 11.8748 7.26271 11.8748 6.875C11.8748 6.48729 11.7546 6.10912 11.5307 5.79258C11.3068 5.47604 10.9903 5.23669 10.6248 5.10751V5.10751Z" fill="#0065FF"/>
<path d="M17.4998 13.125C17.4993 12.7374 17.3789 12.3595 17.1551 12.043C16.9313 11.7266 16.615 11.4871 16.2498 11.3575L16.2498 3.125C16.2498 2.95924 16.184 2.80027 16.0668 2.68306C15.9496 2.56585 15.7906 2.5 15.6248 2.5C15.4591 2.5 15.3001 2.56585 15.1829 2.68306C15.0657 2.80027 14.9998 2.95924 14.9998 3.125L14.9998 11.3575C14.6342 11.4867 14.3177 11.726 14.0938 12.0426C13.87 12.3591 13.7498 12.7373 13.7498 13.125C13.7498 13.5127 13.87 13.8909 14.0938 14.2074C14.3177 14.524 14.6342 14.7633 14.9998 14.8925L14.9998 16.875C14.9998 17.0408 15.0657 17.1997 15.1829 17.3169C15.3001 17.4342 15.4591 17.5 15.6248 17.5C15.7906 17.5 15.9496 17.4342 16.0668 17.3169C16.184 17.1997 16.2498 17.0408 16.2498 16.875L16.2498 14.8925C16.615 14.7629 16.9313 14.5234 17.1551 14.207C17.3789 13.8905 17.4993 13.5126 17.4998 13.125Z" fill="#0065FF"/>
<path d="M4.99976 8.85751L4.99972 3.125C4.99972 2.95924 4.93387 2.80027 4.81666 2.68306C4.69945 2.56585 4.54048 2.5 4.37472 2.5C4.20896 2.5 4.04999 2.56585 3.93278 2.68306C3.81557 2.80027 3.74972 2.95924 3.74972 3.125L3.74976 8.85751C3.38421 8.98669 3.0677 9.22603 2.84383 9.54258C2.61997 9.85912 2.49976 10.2373 2.49976 10.625C2.49976 11.0127 2.61997 11.3909 2.84383 11.7074C3.0677 12.024 3.38421 12.2633 3.74976 12.3925L3.74972 16.875C3.74972 17.0408 3.81557 17.1997 3.93278 17.3169C4.04999 17.4342 4.20896 17.5 4.37472 17.5C4.54048 17.5 4.69945 17.4342 4.81666 17.3169C4.93387 17.1997 4.99972 17.0408 4.99972 16.875L4.99976 12.3925C5.36531 12.2633 5.68182 12.024 5.90569 11.7074C6.12955 11.3909 6.24976 11.0127 6.24976 10.625C6.24976 10.2373 6.12955 9.85912 5.90569 9.54258C5.68182 9.22603 5.36531 8.98669 4.99976 8.85751Z" fill="#0065FF"/>
</svg>
