<?xml version="1.0" encoding="UTF-8"?>
<svg width="30" height="30" xmlns="http://www.w3.org/2000/svg">
 <g>
  <title>Layer 1</title>
  <g stroke="null" id="svg_1">
   <path stroke="null" fill="#B3BAC5" d="m27.01302,1.22098c-0.00035,-0.0237 -0.00168,-0.04741 -0.00357,-0.0712c-0.00127,-0.01612 -0.00274,-0.03213 -0.00471,-0.04805c-0.00244,-0.01985 -0.00553,-0.03971 -0.00905,-0.05955c-0.0035,-0.01999 -0.00736,-0.03978 -0.01186,-0.05934c-0.00365,-0.01558 -0.00771,-0.03108 -0.01199,-0.04659c-0.00638,-0.02307 -0.01325,-0.0458 -0.02105,-0.06824c-0.00216,-0.00646 -0.00357,-0.01298 -0.00588,-0.01943c-0.00259,-0.00694 -0.00588,-0.0134 -0.00856,-0.02027c-0.00869,-0.02252 -0.01805,-0.04463 -0.02805,-0.06636c-0.00646,-0.01418 -0.01318,-0.02816 -0.0202,-0.04196c-0.00947,-0.01851 -0.01943,-0.03672 -0.02988,-0.05464c-0.00927,-0.01606 -0.01874,-0.03185 -0.0287,-0.04735c-0.00946,-0.01459 -0.01936,-0.02876 -0.02945,-0.04293c-0.01214,-0.01712 -0.02449,-0.03388 -0.03754,-0.05015c-0.00953,-0.012 -0.01949,-0.02358 -0.02945,-0.03514c-0.01439,-0.01656 -0.02898,-0.03291 -0.04419,-0.04855c-0.01067,-0.01095 -0.02176,-0.02146 -0.03284,-0.03198c-0.01528,-0.01459 -0.03072,-0.02891 -0.04678,-0.04259c-0.01292,-0.011 -0.02632,-0.02139 -0.03971,-0.03185c-0.01502,-0.01164 -0.0301,-0.02321 -0.04568,-0.03416c-0.01592,-0.01115 -0.03233,-0.0216 -0.04881,-0.03191c-0.01396,-0.00877 -0.02792,-0.01761 -0.04231,-0.02574c-0.01873,-0.01067 -0.03787,-0.02049 -0.05724,-0.0301c-0.01325,-0.00659 -0.02644,-0.0132 -0.03997,-0.01929c-0.02035,-0.00912 -0.04104,-0.0174 -0.06202,-0.02541c-0.01389,-0.00525 -0.0277,-0.01052 -0.04188,-0.01528c-0.02005,-0.00681 -0.04047,-0.01277 -0.06102,-0.01845c-0.01642,-0.00456 -0.03276,-0.00884 -0.04931,-0.0127c-0.01824,-0.00415 -0.03669,-0.00772 -0.05521,-0.01102c-0.0202,-0.00365 -0.04034,-0.00674 -0.06074,-0.00925c-0.01565,-0.0019 -0.03136,-0.00344 -0.04721,-0.00478c-0.02351,-0.00188 -0.04715,-0.00307 -0.07092,-0.00357c-0.00758,-0.00013 -0.01487,-0.00112 -0.02245,-0.00112c-0.00694,0 -0.01375,0.00091 -0.02062,0.00104c-0.02357,0.00043 -0.04715,0.00169 -0.07079,0.00359c-0.0162,0.00127 -0.03226,0.00272 -0.04825,0.00469c-0.01986,0.00246 -0.03963,0.00555 -0.05949,0.00905c-0.01999,0.00352 -0.03976,0.00737 -0.05934,0.01193c-0.01556,0.00357 -0.03107,0.00765 -0.04658,0.01192c-0.02308,0.00633 -0.04581,0.01327 -0.06826,0.02105c-0.00644,0.00218 -0.01298,0.00357 -0.01942,0.00588c-0.01418,0.00519 -0.02814,0.01137 -0.04224,0.01662c-0.00533,0.00218 -0.0108,0.00407 -0.01614,0.00633c-2.96087,1.11274 -5.332,4.74507 -7.04767,10.80031c-0.77826,2.79416 -1.3429,5.64349 -1.68902,8.52318c-0.01717,0.16035 -0.00043,0.32261 0.04918,0.47605c0.04959,0.15344 0.13093,0.29466 0.2387,0.41456c0.10777,0.12004 0.23958,0.21596 0.38686,0.28157c0.14727,0.06576 0.30671,0.09959 0.46797,0.09959l6.89581,0l0,8.04519c0,0.30481 0.12109,0.59712 0.33662,0.81264c0.21553,0.21552 0.50787,0.33659 0.81268,0.33659c0.30481,0 0.59714,-0.12107 0.81267,-0.33659c0.21555,-0.21552 0.33663,-0.50783 0.33663,-0.81264l0,-27.58325c0,-0.00687 -0.00091,-0.01348 -0.00106,-0.02035z" id="svg_2"/>
  </g>
  <g stroke="null" id="svg_3">
   <path stroke="null" fill="#B3BAC5" d="m15.30005,8.05171c-0.00063,-0.02079 -0.0014,-0.04157 -0.00317,-0.0625c-0.00175,-0.021 -0.00434,-0.04171 -0.00716,-0.06235c-0.00155,-0.01068 -0.00196,-0.02128 -0.00373,-0.03203l-1.15056,-6.90338c-0.02476,-0.14911 -0.07866,-0.29189 -0.15861,-0.42017c-0.07995,-0.12827 -0.18441,-0.23954 -0.30739,-0.32743c-0.12297,-0.08791 -0.26206,-0.1507 -0.40931,-0.18483c-0.14726,-0.03411 -0.2998,-0.03888 -0.4489,-0.01404c-0.1491,0.02486 -0.29183,0.07885 -0.42006,0.15889c-0.12822,0.08004 -0.23942,0.18456 -0.32724,0.30761c-0.0878,0.12303 -0.15051,0.26216 -0.18455,0.40943c-0.03402,0.14729 -0.03869,0.29982 -0.01374,0.4489l0.92725,5.56363l-2.66875,0l0,-5.75281c0,-0.30515 -0.12123,-0.59779 -0.337,-0.81357c-0.21577,-0.21577 -0.50841,-0.33699 -0.81357,-0.33699c-0.30515,0 -0.59779,0.12122 -0.81356,0.33699c-0.21577,0.21578 -0.33699,0.50843 -0.33699,0.81357l0,5.75281l-2.66876,0l0.92725,-5.56363c0.02495,-0.14908 0.02028,-0.30161 -0.01374,-0.4489c-0.03403,-0.14727 -0.09674,-0.2864 -0.18456,-0.40943c-0.0878,-0.12305 -0.19901,-0.22756 -0.32724,-0.30761c-0.12822,-0.08004 -0.27097,-0.13403 -0.42006,-0.15889c-0.1491,-0.02484 -0.30163,-0.02007 -0.44889,0.01404c-0.14726,0.03412 -0.28634,0.09692 -0.40933,0.18483c-0.12297,0.08789 -0.22742,0.19916 -0.30739,0.32743c-0.07995,0.12827 -0.13386,0.27105 -0.15861,0.42017l-1.15056,6.90338c-0.00175,0.01075 -0.00216,0.02135 -0.00371,0.03203c-0.00281,0.02063 -0.0054,0.04135 -0.00717,0.06235c-0.00175,0.02093 -0.00252,0.04171 -0.00317,0.0625c-0.00027,0.01081 -0.00161,0.02141 -0.00161,0.0323c0,0.01025 0.00071,0.02029 0.00078,0.03049c0.00021,0.00708 0.00021,0.01411 0.00056,0.02113c0.01389,1.46898 0.53773,2.88749 1.48192,4.01291c0.94419,1.12542 2.25007,1.88784 3.69427,2.15681l0,14.48877c0,0.30515 0.12122,0.59778 0.33699,0.81353c0.21577,0.2159 0.50841,0.33711 0.81356,0.33711c0.30516,0 0.59781,-0.1212 0.81357,-0.33711c0.21577,-0.21575 0.337,-0.50838 0.337,-0.81353l0,-14.48877c1.44419,-0.26898 2.75007,-1.03139 3.69426,-2.15681c0.94419,-1.12542 1.46804,-2.54395 1.48192,-4.01291c0.00035,-0.00702 0.00035,-0.01405 0.00057,-0.02115c0.00006,-0.01018 0.00077,-0.02022 0.00077,-0.03047c0,-0.01088 -0.00134,-0.02149 -0.00162,-0.0323z" id="svg_4"/>
  </g>
 </g>

</svg>
