<?xml version="1.0" encoding="UTF-8"?>
<svg width="68" height="68" viewBox="0 0 68 68" fill="none" xmlns="http://www.w3.org/2000/svg">
<path d="M34 7.75C38.9458 7.75 42.955 11.7593 42.9551 16.7051C42.9551 21.6509 38.9458 25.6602 34 25.6602C29.0542 25.6601 25.0449 21.6509 25.0449 16.7051C25.045 11.7594 29.0543 7.75006 34 7.75ZM34 9.85938C30.2193 9.85957 27.1545 12.9244 27.1543 16.7051C27.1543 20.486 30.2191 23.5516 34 23.5518C37.781 23.5518 40.8467 20.4861 40.8467 16.7051C40.8464 12.9243 37.7809 9.85938 34 9.85938Z" fill="#C0A3FF"/>
<path d="M12.9893 56.4707H57.8407L54.1341 15.4633C54.1232 15.3425 54.0219 15.25 53.9007 15.25H16.9195C16.7982 15.25 16.6969 15.3425 16.6861 15.4633L12.9893 56.4707Z" fill="#C0A3FF"/>
<path d="M12.9893 56.4707H57.8407L52.5933 52.7925C52.5539 52.7648 52.5069 52.75 52.4588 52.75H16.8025C16.7402 52.75 16.6806 52.7747 16.6366 52.8188L12.9893 56.4707Z" fill="#8359DF"/>
<path d="M11.583 56.4707H52.7522L49.35 15.465C49.3399 15.3435 49.2384 15.25 49.1164 15.25H15.2097C15.0878 15.25 14.9862 15.3435 14.9762 15.465L11.583 56.4707Z" fill="#E9DEFF"/>
<path d="M38.6569 32.6778C38.511 32.22 38.3148 31.81 38.0683 31.4477C37.8268 31.0805 37.5375 30.7686 37.2005 30.512C36.8634 30.2504 36.4785 30.0517 36.0459 29.9159C35.6183 29.78 35.1479 29.7121 34.6348 29.7121C33.7644 29.7121 32.9796 29.936 32.2804 30.3837C31.5811 30.8315 31.0277 31.488 30.6202 32.3533C30.2177 33.2135 30.0165 34.2675 30.0165 35.5151C30.0165 36.7678 30.2203 37.8268 30.6278 38.6921C31.0352 39.5573 31.5937 40.2139 32.303 40.6616C33.0123 41.1093 33.8198 41.3332 34.7253 41.3332C35.5655 41.3332 36.2974 41.1622 36.9213 40.8201C37.5501 40.478 38.0356 39.995 38.3777 39.3712C38.7248 38.7424 38.8983 38.0028 38.8983 37.1526L39.502 37.2658H35.08V35.3416H41.1547V37.0998C41.1547 38.3978 40.878 39.5246 40.3246 40.4805C39.7762 41.4313 39.0166 42.1658 38.0456 42.684C37.0797 43.2021 35.973 43.4612 34.7253 43.4612C33.3268 43.4612 32.0993 43.1393 31.0428 42.4953C29.9914 41.8514 29.1713 40.9383 28.5827 39.7561C27.9941 38.5688 27.6998 37.1602 27.6998 35.5302C27.6998 34.2977 27.8709 33.1909 28.213 32.2099C28.5551 31.2289 29.0355 30.3963 29.6543 29.7121C30.2781 29.0229 31.0101 28.4972 31.8502 28.135C32.6954 27.7677 33.6185 27.5841 34.6197 27.5841C35.4548 27.5841 36.232 27.7074 36.9514 27.9539C37.6759 28.2004 38.3198 28.55 38.8833 29.0028C39.4517 29.4555 39.9221 29.9938 40.2944 30.6177C40.6667 31.2364 40.9182 31.9231 41.049 32.6778H38.6569Z" fill="#8359DF"/>
</svg>
