<?xml version="1.0" encoding="UTF-8"?>
<svg width="112" height="56" viewBox="0 0 112 56" fill="none" xmlns="http://www.w3.org/2000/svg">
<path d="M82.6675 3.5C87.2835 3.50012 91.0259 7.24237 91.0259 11.8584C91.0258 16.4743 87.2834 20.2167 82.6675 20.2168C78.0515 20.2168 74.3092 16.4744 74.3091 11.8584C74.3091 7.2423 78.0514 3.5 82.6675 3.5ZM82.6675 5.46875C79.1386 5.46875 76.2779 8.32948 76.2778 11.8584C76.2778 15.3874 79.1385 18.248 82.6675 18.248C86.1964 18.248 89.0571 15.3873 89.0571 11.8584C89.0571 8.32951 86.1964 5.46879 82.6675 5.46875Z" fill="#C0A3FF"/>
<path d="M64.0571 48.9727H105.919L102.459 10.699C102.449 10.5863 102.354 10.5 102.241 10.5H67.7253C67.6121 10.5 67.5176 10.5863 67.5075 10.6991L64.0571 48.9727Z" fill="#C0A3FF"/>
<path d="M64.0571 48.9727H105.919L101.021 45.5396C100.984 45.5138 100.94 45.5 100.895 45.5H67.6161C67.5581 45.5 67.5024 45.5231 67.4613 45.5642L64.0571 48.9727Z" fill="#8359DF"/>
<path d="M62.7446 48.9727H101.169L97.9938 10.7006C97.9844 10.5872 97.8896 10.5 97.7758 10.5H66.1296C66.0158 10.5 65.921 10.5873 65.9116 10.7007L62.7446 48.9727Z" fill="#E9DEFF"/>
<path d="M87.0134 26.2993C86.8772 25.872 86.6941 25.4894 86.464 25.1513C86.2387 24.8085 85.9687 24.5174 85.6541 24.278C85.3395 24.0338 84.9803 23.8483 84.5765 23.7215C84.1774 23.5948 83.7384 23.5314 83.2594 23.5314C82.4471 23.5314 81.7147 23.7403 81.062 24.1582C80.4093 24.5761 79.8928 25.1889 79.5125 25.9965C79.1369 26.7994 78.9491 27.7831 78.9491 28.9475C78.9491 30.1167 79.1392 31.1051 79.5196 31.9127C79.8999 32.7203 80.4211 33.333 81.0831 33.7509C81.7452 34.1688 82.4988 34.3777 83.344 34.3777C84.1281 34.3777 84.8113 34.2181 85.3935 33.8988C85.9804 33.5795 86.4335 33.1288 86.7528 32.5465C87.0768 31.9596 87.2388 31.2694 87.2388 30.4759L87.8022 30.5815H83.675V28.7855H89.3447V30.4266C89.3447 31.638 89.0864 32.6897 88.5699 33.5819C88.0581 34.4693 87.3491 35.1548 86.4429 35.6385C85.5414 36.1221 84.5084 36.3639 83.344 36.3639C82.0386 36.3639 80.893 36.0634 79.9069 35.4624C78.9256 34.8614 78.1602 34.0092 77.6109 32.9057C77.0615 31.7976 76.7868 30.4829 76.7868 28.9616C76.7868 27.8112 76.9465 26.7782 77.2658 25.8626C77.5851 24.947 78.0335 24.17 78.611 23.5314C79.1932 22.8881 79.8764 22.3974 80.6605 22.0594C81.4494 21.7166 82.311 21.5452 83.2454 21.5452C84.0248 21.5452 84.7502 21.6603 85.4217 21.8903C86.0978 22.1204 86.6988 22.4467 87.2247 22.8693C87.7553 23.2919 88.1943 23.7943 88.5418 24.3766C88.8892 24.9541 89.124 25.595 89.2461 26.2993H87.0134Z" fill="#8359DF"/>
<path fill-rule="evenodd" clip-rule="evenodd" d="M13.4515 46.2147L12.9788 18.7373C12.9673 18.0658 13.5216 17.5353 14.191 17.5772L41.7367 19.3022C42.3723 19.342 42.8698 19.8847 42.8546 20.5216L42.242 46.2377C42.2267 46.8799 41.6961 47.3775 41.0548 47.3511L13.4515 46.2147Z" fill="#ABF5D1"/>
<path d="M39.9129 40.1048C39.9129 39.8617 39.4991 39.4971 38.8784 39.4465H35.0165C34.2993 39.4465 34.0281 39.8516 33.9821 40.0542C33.8672 40.645 33.6097 41.9989 33.4994 42.6876C33.389 43.3763 34.0051 43.5823 34.3269 43.5992C35.4533 43.7004 37.9267 43.9131 38.8095 43.9537C39.6922 43.9942 39.9129 43.4979 39.9129 43.2447V40.1048Z" fill="white"/>
<path d="M36.3956 40.3072L36.3267 42.6874" stroke="#334462" stroke-width="0.413772" stroke-linecap="round"/>
<path d="M38.8788 40.4084L38.6719 42.7379" stroke="#334462" stroke-width="0.413772" stroke-linecap="round"/>
<path d="M38.1895 40.6111V42.5355" stroke="#334462" stroke-width="0.275848" stroke-linecap="round"/>
<path d="M37.7061 40.6111V42.5355" stroke="#334462" stroke-width="0.275848" stroke-linecap="round"/>
<path d="M37.2476 40.6134L37.062 42.533" stroke="#334462" stroke-width="0.275848" stroke-linecap="round"/>
<path d="M35.7749 40.6111V42.5355" stroke="#334462" stroke-width="0.275848" stroke-linecap="round"/>
<path d="M35.2241 40.5604V42.4848" stroke="#334462" stroke-width="0.275848" stroke-linecap="round"/>
<path d="M34.6714 40.6618V42.5862" stroke="#334462" stroke-width="0.275848" stroke-linecap="round"/>
<g style="mix-blend-mode:soft-light">
<path fill-rule="evenodd" clip-rule="evenodd" d="M22.6089 18.1016L22.2483 37.6588L31.2451 38.0188L33.3349 18.7733L22.6089 18.1016Z" fill="#FF8F73"/>
</g>
<path d="M28.3335 30.6884L28.8852 18.6666" stroke="#57D9A3" stroke-width="0.68962" stroke-linecap="round"/>
<path d="M8.8731 24.0815C7.65937 24.0815 5.90774 24.4226 5.70085 26.6394C5.53993 30.533 5.17673 39.1557 5.01123 42.498C4.84572 45.8402 6.55138 46.96 7.4249 47.1021C12.8269 47.2726 24.1827 47.6136 26.3895 47.6136C28.5962 47.6136 29.2399 45.4537 29.2859 44.3737C29.3088 39.8833 29.341 30.1351 29.2859 27.0657C29.2307 23.9963 27.4239 23.3995 26.5274 23.4847L8.8731 24.0815Z" fill="#FFEBE5"/>
<path d="M12.8034 37.9789C11.8655 38.0472 11.769 36.8706 11.8379 36.2737L12.5965 23.6551L17.0101 23.4846V35.4211C17.0101 37.1263 16.3664 37.5526 16.0446 37.5526C15.355 37.6663 13.7413 37.9107 12.8034 37.9789Z" fill="#FFBDAD"/>
<path d="M14.459 35.5918L15.0107 23.57" stroke="#FF8F73" stroke-width="0.68962" stroke-linecap="round"/>
<path d="M27.4934 29.0263C27.4934 28.617 27.0796 28.0032 26.459 27.9179H22.5971C21.8799 27.9179 21.6087 28.6 21.5627 28.941C21.4477 29.9358 21.1903 32.2151 21.08 33.3746C20.9696 34.5342 21.5857 34.8809 21.9075 34.9093C23.0339 35.0798 25.5073 35.4379 26.39 35.5061C27.2727 35.5744 27.4934 34.7388 27.4934 34.3125V29.0263Z" fill="white"/>
<path d="M23.9767 29.3677L23.9077 33.3749" stroke="#334462" stroke-width="0.413772" stroke-linecap="round"/>
<path d="M26.4588 29.538L26.252 33.46" stroke="#334462" stroke-width="0.413772" stroke-linecap="round"/>
<path d="M25.7695 29.8786V33.1185" stroke="#334462" stroke-width="0.275848" stroke-linecap="round"/>
<path d="M25.2866 29.8787V33.1186" stroke="#334462" stroke-width="0.275848" stroke-linecap="round"/>
<path d="M24.8276 29.8829L24.6421 33.1147" stroke="#334462" stroke-width="0.275848" stroke-linecap="round"/>
<path d="M23.3555 29.8787V33.1186" stroke="#334462" stroke-width="0.275848" stroke-linecap="round"/>
<path d="M22.8042 29.7935V33.0334" stroke="#334462" stroke-width="0.275848" stroke-linecap="round"/>
<path d="M22.2515 29.9644V33.2043" stroke="#334462" stroke-width="0.275848" stroke-linecap="round"/>
<path d="M45.8335 31.7917C45.5113 31.7917 45.2502 32.0528 45.2502 32.375C45.2502 32.6972 45.5113 32.9583 45.8335 32.9583V32.375V31.7917ZM61.4126 32.7875C61.6404 32.5597 61.6404 32.1903 61.4126 31.9625L57.7003 28.2502C57.4725 28.0224 57.1032 28.0224 56.8754 28.2502C56.6476 28.478 56.6476 28.8474 56.8754 29.0752L60.1752 32.375L56.8754 35.6748C56.6476 35.9026 56.6476 36.272 56.8754 36.4998C57.1032 36.7276 57.4725 36.7276 57.7003 36.4998L61.4126 32.7875ZM45.8335 32.375V32.9583H61.0002V32.375V31.7917H45.8335V32.375Z" fill="#C0A3FF"/>
</svg>
