<?xml version="1.0" encoding="UTF-8"?>
<svg width="25px" height="15px" viewBox="0 0 25 15" version="1.1" xmlns="http://www.w3.org/2000/svg" xmlns:xlink="http://www.w3.org/1999/xlink">
    <!-- Generator: Sketch 63.1 (92452) - https://sketch.com -->
    <title>Solid/handover</title>
    <desc>Created with Sketch.</desc>
    <defs>
        <path d="M2.80700684,6.90282744 L0.935668945,6.90282744 C0.418906784,6.90282744 0,7.32222506 0,7.83959272 L0,15.9582252 C0,16.4755928 0.418906784,16.8949904 0.935668945,16.8949904 L2.80700684,16.8949904 C3.323769,16.8949904 3.74267578,16.4755928 3.74267578,15.9582252 L3.74267578,7.83959272 C3.74267578,7.32222506 3.323769,6.90282744 2.80700684,6.90282744 Z M1.87133789,15.8020976 C1.44069626,15.8020976 1.09161377,15.4526061 1.09161377,15.0214599 C1.09161377,14.5903137 1.44069626,14.2408221 1.87133789,14.2408221 C2.30197952,14.2408221 2.65106201,14.5903137 2.65106201,15.0214599 C2.65106201,15.4526061 2.30197952,15.8020976 1.87133789,15.8020976 Z M24.0155029,6.90282744 L22.144165,6.90282744 C21.6274029,6.90282744 21.2084961,7.32222506 21.2084961,7.83959272 L21.2084961,15.9582252 C21.2084961,16.4755928 21.6274029,16.8949904 22.144165,16.8949904 L24.0155029,16.8949904 C24.5322651,16.8949904 24.9511719,16.4755928 24.9511719,15.9582252 L24.9511719,7.83959272 C24.9511719,7.32222506 24.5322651,6.90282744 24.0155029,6.90282744 Z M23.079834,15.8020976 C22.6491924,15.8020976 22.3001099,15.4526061 22.3001099,15.0214599 C22.3001099,14.5903137 22.6491924,14.2408221 23.079834,14.2408221 C23.5104756,14.2408221 23.8595581,14.5903137 23.8595581,15.0214599 C23.8595581,15.4526061 23.5104756,15.8020976 23.079834,15.8020976 Z M18.944957,6.14834107 L20.5847168,8.02460386 L20.5847168,15.0214599 L19.8373512,15.0214599 C19.8591835,14.4375429 19.6665916,13.8903158 19.2915443,13.4715037 L16.1367805,9.61085974 C16.2510101,9.4859577 16.2443825,9.29235955 16.1219658,9.17526389 C16.0120247,9.06987779 15.8459435,9.06129078 15.7266457,9.14559965 C15.7102715,9.15730922 13.3738281,11.6018763 13.3738281,11.6018763 L13.3660309,11.610073 C12.4341046,12.6602259 10.78799,12.6328645 9.89041061,11.5546477 C9.28690414,10.8294352 9.29431152,9.78299036 9.90795441,9.0659746 L12.5032661,6.03436796 C13.0332446,5.41493192 13.8219356,5.02929688 14.6861038,5.02929688 L16.4814186,5.02929688 C17.4253263,5.02929688 18.3232907,5.43723228 18.944957,6.14834107 L18.944957,6.14834107 Z M18.8135735,13.8735321 C19.4163002,14.5284872 19.3044098,15.5842997 18.7211761,16.1276236 C18.0306915,16.7701665 17.0668745,16.6351942 16.9305397,16.4867169 C16.9949839,17.0978782 16.0966637,18.3309345 14.730938,18.2306616 C14.4843502,19.0575521 13.4717615,19.7493533 12.4237343,19.3863958 C12.0252953,19.7849113 11.4171104,19.9707031 10.8716934,19.9707031 C9.75317917,19.9707031 8.73057098,19.5027108 8.04207458,18.768521 L4.36645508,15.0214599 L4.36645508,7.82085742 L6.75864868,5.8470149 C7.28151885,5.32348493 7.99069774,5.02929688 8.73018112,5.02929688 L10.189045,5.02929688 C10.8412842,5.02929688 11.4631142,5.29627498 11.9126251,5.76504794 L9.434272,8.65965266 C8.62179947,9.60851783 8.61205292,10.9941498 9.41127014,11.9547245 C10.5564899,13.3304815 12.6473981,13.3541348 13.8287971,12.0296658 L15.7044235,10.0644103 L18.8135735,13.8735321 L18.8135735,13.8735321 Z" id="path-1"></path>
        <linearGradient x1="0%" y1="0%" x2="100%" y2="100%" id="linearGradient-3">
            <stop stop-color="#FEB692" offset="0%"></stop>
            <stop stop-color="#EA5455" offset="100%"></stop>
        </linearGradient>
    </defs>
    <g id="Symbols" stroke="none" stroke-width="1" fill="none" fill-rule="evenodd">
        <g id="agent_assignment_task" transform="translate(0.000000, -45.000000)">
            <g id="Group-5" transform="translate(0.000000, 40.000000)">
                <g id="Solid/handshake">
                    <mask id="mask-2" fill="white">
                        <use xlink:href="#path-1"></use>
                    </mask>
                    <use id="Mask" fill="#000000" fill-rule="nonzero" xlink:href="#path-1"></use>
                    <g id="Gradient/5" mask="url(#mask-2)" fill="url(#linearGradient-3)" fill-rule="evenodd">
                        <rect id="5" x="0" y="0" width="25" height="25"></rect>
                    </g>
                </g>
            </g>
        </g>
    </g>
</svg>