<?xml version="1.0" encoding="UTF-8"?>
<svg width="20" height="20" viewBox="0 0 20 20" fill="none" xmlns="http://www.w3.org/2000/svg">
<g id="inventory_2">
<path id="vector" d="M3.85576 18.6277C3.39386 18.6277 3.00332 18.4681 2.68415 18.149C2.36497 17.8298 2.20538 17.4392 2.20538 16.9773V6.9737C1.96142 6.85265 1.76154 6.66721 1.60574 6.41739C1.44996 6.16758 1.37207 5.89046 1.37207 5.58602V3.02262C1.37207 2.55748 1.53165 2.16417 1.85082 1.84268C2.17 1.52121 2.56054 1.36047 3.02245 1.36047H16.9772C17.4423 1.36047 17.8356 1.52121 18.1571 1.84268C18.4786 2.16417 18.6393 2.55748 18.6393 3.02262V5.58602C18.6393 5.89046 18.5594 6.1672 18.3997 6.41624C18.24 6.6653 18.0421 6.85112 17.806 6.9737V16.9773C17.806 17.4392 17.6452 17.8298 17.3238 18.1489C17.0023 18.4681 16.609 18.6277 16.1438 18.6277H3.85576ZM3.85576 7.23639V16.9891H16.1556V7.23639H3.85576ZM3.02242 5.58602H16.9889V3.02262H3.02242V5.58602ZM8.08945 11.4619H11.9219C12.1282 11.4619 12.3036 11.3892 12.448 11.2436C12.5924 11.098 12.6646 10.9213 12.6646 10.7132C12.6646 10.5052 12.5924 10.3304 12.448 10.1888C12.3036 10.0472 12.1282 9.97643 11.9219 9.97643H8.08945C7.88313 9.97643 7.70775 10.0492 7.56332 10.1948C7.4189 10.3403 7.3467 10.5171 7.3467 10.7251C7.3467 10.9331 7.4189 11.1079 7.56332 11.2495C7.70775 11.3911 7.88313 11.4619 8.08945 11.4619Z" fill="#212121"/>
</g>
</svg>
