<?xml version="1.0" encoding="UTF-8"?>
<svg width="25" height="25" viewBox="0 0 25 25" fill="none" xmlns="http://www.w3.org/2000/svg">
<path d="M19.9681 4.44434H5.0319C4.70812 4.44434 4.44465 4.70781 4.44465 5.03158V11.9544H2.11459C1.79026 11.9544 1.52734 12.2173 1.52734 12.5416C1.52734 12.866 1.79026 13.1289 2.11459 13.1289H4.44465V13.1291H5.61914V13.1289H19.3809V13.1291H20.5554V13.1289H22.886C23.2103 13.1289 23.4733 12.866 23.4733 12.5416C23.4733 12.2173 23.2103 11.9544 22.886 11.9544H20.5554V5.03158C20.5554 4.70781 20.2936 4.44434 19.9681 4.44434ZM5.61914 11.9544V5.61883H19.3809V11.9544H5.61914Z" fill="white"/>
<path d="M4.44434 13.5488V19.9683C4.44434 20.2921 4.70781 20.5555 5.03158 20.5555H19.9678C20.2933 20.5555 20.5551 20.2921 20.5551 19.9683V13.5488H19.3806V19.381H5.61883V13.5488H4.44434Z" fill="white"/>
<path d="M0.587248 8.01294C0.911581 8.01294 1.1745 7.75002 1.1745 7.42569V1.1745H7.42569C7.75002 1.1745 8.01294 0.911581 8.01294 0.587248C8.01294 0.262915 7.75002 0 7.42569 0H0.587248C0.262915 0 0 0.262915 0 0.587248V7.42569C0 7.75002 0.262915 8.01294 0.587248 8.01294Z" fill="white"/>
<path d="M24.413 0H17.5746C17.2502 0 16.9873 0.262915 16.9873 0.587248C16.9873 0.911581 17.2502 1.1745 17.5746 1.1745H23.8257V7.42569C23.8257 7.75002 24.0887 8.01294 24.413 8.01294C24.7373 8.01294 25.0002 7.75002 25.0002 7.42569V0.587248C25.0002 0.262915 24.7373 0 24.413 0Z" fill="white"/>
<path d="M24.413 16.9868C24.0887 16.9868 23.8257 17.2497 23.8257 17.5741V23.8253H17.5746C17.2502 23.8253 16.9873 24.0882 16.9873 24.4125C16.9873 24.7368 17.2502 24.9998 17.5746 24.9998H24.413C24.7373 24.9998 25.0002 24.7368 25.0002 24.4125V17.5741C25.0002 17.2499 24.7373 16.9868 24.413 16.9868Z" fill="white"/>
<path d="M7.42569 23.8253H1.1745V17.5741C1.1745 17.2497 0.911581 16.9868 0.587248 16.9868C0.262915 16.9868 0 17.2497 0 17.5741V24.4125C0 24.7368 0.262915 24.9998 0.587248 24.9998H7.42569C7.75002 24.9998 8.01294 24.7368 8.01294 24.4125C8.01294 24.0882 7.75002 23.8253 7.42569 23.8253Z" fill="white"/>
<path d="M9.32705 6.56543H7.09134C6.8597 6.56543 6.67188 6.75325 6.67188 6.98489V9.22022C6.67188 9.45186 6.8597 9.63968 7.09134 9.63968H9.32667C9.55831 9.63968 9.74613 9.45186 9.74613 9.22022L9.74632 6.98489C9.7465 6.75307 9.55849 6.56543 9.32704 6.56543H9.32705ZM8.90759 8.80076H7.51118V7.40436H8.90759V8.80076Z" fill="white"/>
<path d="M11.3111 7.40436H14.5563C14.7879 7.40436 14.9757 7.21653 14.9757 6.98489C14.9757 6.75325 14.7879 6.56543 14.5563 6.56543H11.3111C11.0794 6.56543 10.8916 6.75325 10.8916 6.98489C10.8916 7.21653 11.0792 7.40436 11.3111 7.40436Z" fill="white"/>
<path d="M18.1646 6.56543C17.9329 6.56543 17.7451 6.75325 17.7451 6.98489V10.9125C17.7451 11.1441 17.9329 11.332 18.1646 11.332C18.396 11.332 18.584 11.1441 18.584 10.9125V6.98489C18.584 6.75307 18.3962 6.56543 18.1646 6.56543Z" fill="white"/>
<path d="M16.3255 10.4927H13.1499C12.9183 10.4927 12.7305 10.6805 12.7305 10.9121C12.7305 11.1438 12.9183 11.3316 13.1499 11.3316H16.3255C16.5571 11.3316 16.7449 11.1438 16.7449 10.9121C16.7449 10.6805 16.5571 10.4927 16.3255 10.4927Z" fill="white"/>
<path d="M13.778 8.94827C13.778 8.71663 13.5902 8.52881 13.3586 8.52881H11.3111C11.0794 8.52881 10.8916 8.71663 10.8916 8.94827V10.9123C10.8916 11.1439 11.0794 11.3317 11.3111 11.3317C11.5427 11.3317 11.7305 11.1439 11.7305 10.9123V9.36773H13.3586C13.5902 9.36773 13.778 9.1801 13.778 8.94827Z" fill="white"/>
<path d="M14.5693 8.94851C14.5693 9.18014 14.7572 9.36797 14.9888 9.36797H16.2005C16.4322 9.36797 16.62 9.18014 16.62 8.94851V6.98489C16.62 6.75325 16.4322 6.56543 16.2005 6.56543C15.9689 6.56543 15.7811 6.75325 15.7811 6.98489V8.52923H14.9888C14.7572 8.52905 14.5693 8.71687 14.5693 8.94851V8.94851Z" fill="white"/>
<path d="M9.32705 10.4619H7.09134C6.8597 10.4619 6.67188 10.6497 6.67188 10.8814C6.67188 11.113 6.8597 11.3008 7.09134 11.3008H9.32667C9.55831 11.3008 9.74613 11.113 9.74613 10.8814C9.74632 10.6496 9.55849 10.4619 9.32704 10.4619H9.32705Z" fill="white"/>
<path d="M15.2539 18.0156C15.2539 18.2473 15.4417 18.4351 15.6734 18.4351H17.9087C18.1403 18.4351 18.3282 18.2473 18.3282 18.0156L18.3284 15.7803C18.3284 15.5487 18.1405 15.3608 17.9089 15.3608H15.6734C15.4417 15.3608 15.2539 15.5487 15.2539 15.7803L15.2539 18.0156ZM16.0928 16.1998H17.4892V17.5962H16.0928V16.1998Z" fill="white"/>
<path d="M10.4429 18.4346H13.6881C13.9197 18.4346 14.1076 18.2468 14.1076 18.0152C14.1076 17.7835 13.9197 17.5957 13.6881 17.5957H10.4429C10.2113 17.5957 10.0234 17.7835 10.0234 18.0152C10.0234 18.247 10.2113 18.4346 10.4429 18.4346Z" fill="white"/>
<path d="M7.25494 18.015V14.0874C7.25494 13.8558 7.06712 13.668 6.83548 13.668C6.60384 13.668 6.41602 13.8558 6.41602 14.0874V18.015C6.41602 18.2467 6.60384 18.4345 6.83548 18.4345C7.06712 18.4345 7.25494 18.2469 7.25494 18.015Z" fill="white"/>
<path d="M11.8501 13.668H8.67435C8.44271 13.668 8.25488 13.8558 8.25488 14.0874C8.25488 14.3191 8.44271 14.5069 8.67435 14.5069H11.8499C12.0815 14.5069 12.2694 14.3191 12.2694 14.0874C12.2694 13.8556 12.0817 13.668 11.8501 13.668H11.8501Z" fill="white"/>
<path d="M14.1079 14.0874C14.1079 13.8558 13.9201 13.668 13.6885 13.668C13.4568 13.668 13.269 13.8558 13.269 14.0874V15.632H11.6411C11.4095 15.632 11.2217 15.8198 11.2217 16.0514C11.2217 16.2831 11.4095 16.4709 11.6411 16.4709H13.6886C13.9203 16.4709 14.1081 16.2831 14.1081 16.0514V14.0874H14.1079Z" fill="white"/>
<path d="M10.4315 16.0518C10.4315 15.8201 10.2437 15.6323 10.0121 15.6323H8.80032C8.56868 15.6323 8.38086 15.8201 8.38086 16.0518V18.0156C8.38086 18.2472 8.56868 18.4351 8.80032 18.4351C9.03196 18.4351 9.21978 18.2472 9.21978 18.0156V16.4712H10.0121C10.2437 16.4712 10.4315 16.2834 10.4315 16.0518Z" fill="white"/>
<path d="M15.6734 14.5381H17.9087C18.1403 14.5381 18.3282 14.3503 18.3282 14.1187C18.3282 13.887 18.1403 13.6992 17.9087 13.6992H15.6734C15.4417 13.6992 15.2539 13.887 15.2539 14.1187C15.2539 14.3505 15.4419 14.5381 15.6734 14.5381Z" fill="white"/>
</svg>
