<?xml version="1.0" encoding="UTF-8"?>
<svg width="24px" height="16px" viewBox="0 0 24 16" version="1.1" xmlns="http://www.w3.org/2000/svg" xmlns:xlink="http://www.w3.org/1999/xlink">
    <!-- Generator: Sketch 62 (91390) - https://sketch.com -->
    <title>standard/action/edit</title>
    <desc>Created with Sketch.</desc>
    <defs>
        <path d="M19.2355663,9.62511243 C18.6782417,9.62106506 18.1428172,9.71213074 17.6442926,9.8827196 L16.4095686,7.82617188 L19.4999785,7.82617188 C19.9970406,7.82617188 20.3999778,7.4234967 20.3999778,6.92675781 L20.3999778,5.72753906 C20.3999778,5.23080017 19.9970406,4.828125 19.4999785,4.828125 L17.8008175,4.828125 C17.5456797,4.828125 17.3025321,4.93634797 17.1318555,5.12586853 L15.7257567,6.68721387 L14.8717324,5.26479053 C14.7090795,4.99388167 14.4161209,4.828125 14.0999831,4.828125 L11.0999856,4.828125 C10.7685984,4.828125 10.4999861,5.09656262 10.4999861,5.42773438 L10.4999861,6.02734375 C10.4999861,6.3585155 10.7685984,6.62695312 11.0999856,6.62695312 L13.590396,6.62695312 L14.3103954,7.82617188 L8.54638777,7.82617188 C7.88162583,6.96149768 6.86173919,6.32714844 4.79999093,6.32714844 L2.72024268,6.32714844 C2.21568061,6.32714844 1.79058097,6.73979211 1.80014346,7.24395117 C1.80944345,7.73267029 2.20874312,8.12597656 2.6999927,8.12597656 L4.79999093,8.12597656 C5.71889016,8.12597656 6.25071471,8.53517249 6.59200192,9.05420935 L6.16858978,9.82354565 C5.68086519,9.67870251 5.16092813,9.60858569 4.62167858,9.62829785 C2.09463071,9.72052527 0.058682429,11.7837811 0.00126997742,14.3102352 C-0.0601174708,17.0105386 2.1118807,19.21875 4.79999093,19.21875 C7.03656404,19.21875 8.91538746,17.6899709 9.44822451,15.6210938 L12.6070718,15.6210938 C13.1198089,15.6210938 13.5291586,15.1930851 13.5061711,14.6813185 C13.4267462,12.9154689 14.1632455,11.1711677 15.6131068,9.99589587 L16.0812939,10.7756879 C15.0445698,11.6621354 14.3901578,12.9822504 14.4001328,14.4550034 C14.4177578,17.0616553 16.5452435,19.1938662 19.1535538,19.2185251 C21.8396391,19.2439336 24.0225122,17.0641661 24,14.3804645 C23.9777748,11.772501 21.8452641,9.64407507 19.2355663,9.62511243 Z M4.79999346,17.4199219 C3.14579233,17.4199219 1.79999346,16.074998 1.79999346,14.421875 C1.79999346,12.768752 3.14579233,11.4238281 4.79999346,11.4238281 C4.9590658,11.4238281 5.11517816,11.4366073 5.26757804,11.4606292 L3.71136685,14.2882371 C3.38200463,14.8868346 3.81606676,15.6210938 4.49999118,15.6210938 L7.54862611,15.6210938 C7.0847515,16.6788422 6.02762739,17.4199219 4.79999346,17.4199219 Z M19.3631411,17.4155747 C17.6351801,17.5075023 16.1999813,16.1290378 16.1999813,14.421875 C16.1999813,13.6212841 16.516256,12.8935831 17.0296681,12.3553213 L18.8826166,15.4415107 C19.0530914,15.7254633 19.4216786,15.8175408 19.7058159,15.6471768 L20.2203154,15.3386777 C20.5044527,15.1683137 20.5965901,14.7999662 20.4261153,14.5160137 L18.6052668,11.4832269 C18.8010316,11.4436946 19.0002572,11.4238281 19.1999813,11.4238281 C20.9082523,11.4238281 22.2876512,12.8581312 22.1956263,14.5849688 C22.1146263,16.1049036 20.8841024,17.3346274 19.3631411,17.4155747 L19.3631411,17.4155747 Z" id="path-1"></path>
    </defs>
    <g id="Symbols" stroke="none" stroke-width="1" fill="none" fill-rule="evenodd">
        <g id="OFD_disabled" transform="translate(-48.000000, -4.000000)">
            <g id="Solid/motorcycle" transform="translate(48.000000, 0.000000)">
                <mask id="mask-2" fill="white">
                    <use xlink:href="#path-1"></use>
                </mask>
                <use id="Mask" fill="#000000" fill-rule="nonzero" xlink:href="#path-1"></use>
                <g id="Color/Purple" mask="url(#mask-2)" fill="#DFE1E5" fill-rule="evenodd">
                    <rect id="Purple" x="0" y="0" width="24" height="24"></rect>
                </g>
            </g>
        </g>
    </g>
</svg>