<?xml version="1.0" encoding="UTF-8"?>
<svg xmlns="http://www.w3.org/2000/svg" width="20" height="20" viewBox="0 0 20 20" fill="none">
  <path d="M6.87859 6.88336C6.64656 6.88336 6.45102 6.80348 6.29196 6.64373C6.13292 6.48398 6.0534 6.28561 6.0534 6.04863C6.0534 5.81163 6.13292 5.61447 6.29196 5.45715C6.45102 5.29984 6.64656 5.22119 6.87859 5.22119H16.9692C17.2002 5.22119 17.3975 5.30107 17.5609 5.46082C17.7244 5.62057 17.8061 5.81893 17.8061 6.05592C17.8061 6.29292 17.7244 6.49008 17.5609 6.6474C17.3975 6.80471 17.2002 6.88336 16.9692 6.88336H6.87859ZM6.87859 10.8254C6.64656 10.8254 6.45102 10.7455 6.29196 10.5858C6.13292 10.426 6.0534 10.2296 6.0534 9.99657C6.0534 9.76348 6.13292 9.56829 6.29196 9.41098C6.45102 9.25368 6.64656 9.17502 6.87859 9.17502H16.9692C17.2002 9.17502 17.3975 9.25489 17.5609 9.41463C17.7244 9.57438 17.8061 9.77079 17.8061 10.0039C17.8061 10.2369 17.7244 10.4321 17.5609 10.5894C17.3975 10.7467 17.2002 10.8254 16.9692 10.8254H6.87859ZM6.87859 14.7792C6.64656 14.7792 6.45102 14.6994 6.29196 14.5396C6.13292 14.3799 6.0534 14.1815 6.0534 13.9445C6.0534 13.7075 6.13292 13.5103 6.29196 13.353C6.45102 13.1957 6.64656 13.1171 6.87859 13.1171H16.9692C17.2002 13.1171 17.3975 13.1969 17.5609 13.3567C17.7244 13.5164 17.8061 13.7148 17.8061 13.9518C17.8061 14.1888 17.7244 14.386 17.5609 14.5433C17.3975 14.7006 17.2002 14.7792 16.9692 14.7792H6.87859ZM3.01609 6.88336C2.79253 6.88336 2.60156 6.80116 2.44317 6.63675C2.28477 6.47235 2.20557 6.27423 2.20557 6.04238C2.20557 5.81386 2.28477 5.61987 2.44317 5.4604C2.60156 5.30093 2.796 5.22119 3.0265 5.22119C3.257 5.22119 3.45286 5.30184 3.61409 5.46313C3.77532 5.62442 3.85594 5.82428 3.85594 6.06271C3.85594 6.28405 3.77446 6.47615 3.61148 6.63903C3.44852 6.80191 3.25006 6.88336 3.01609 6.88336ZM3.01609 10.8254C2.79253 10.8254 2.60156 10.7433 2.44317 10.579C2.28477 10.4148 2.20557 10.2135 2.20557 9.97513C2.20557 9.74895 2.28477 9.55905 2.44317 9.40544C2.60156 9.25183 2.796 9.17502 3.0265 9.17502C3.257 9.17502 3.45286 9.2527 3.61409 9.40805C3.77532 9.56339 3.85594 9.75589 3.85594 9.98555C3.85594 10.2169 3.77446 10.4148 3.61148 10.579C3.44852 10.7433 3.25006 10.8254 3.01609 10.8254ZM3.01609 14.7675C2.79253 14.7675 2.60156 14.6853 2.44317 14.5209C2.28477 14.3565 2.20557 14.1583 2.20557 13.9265C2.20557 13.698 2.28477 13.504 2.44317 13.3445C2.60156 13.185 2.796 13.1053 3.0265 13.1053C3.257 13.1053 3.45286 13.1859 3.61409 13.3472C3.77532 13.5085 3.85594 13.7084 3.85594 13.9468C3.85594 14.1681 3.77446 14.3603 3.61148 14.5231C3.44852 14.686 3.25006 14.7675 3.01609 14.7675Z" fill="#666666"/>
</svg>
