<?xml version="1.0" encoding="UTF-8"?>
<svg width="12" height="14" viewBox="0 0 12 14" fill="none" xmlns="http://www.w3.org/2000/svg">
<path d="M6.00206 7.53354C6.37846 7.53354 6.69999 7.39952 6.96666 7.13147C7.23332 6.86343 7.36665 6.54121 7.36665 6.16481C7.36665 5.78841 7.23263 5.46687 6.96459 5.20021C6.69654 4.93354 6.37432 4.80021 5.99792 4.80021C5.62152 4.80021 5.29999 4.93423 5.03332 5.20227C4.76666 5.47032 4.63332 5.79254 4.63332 6.16894C4.63332 6.54534 4.76734 6.86687 5.03539 7.13354C5.30343 7.40021 5.62566 7.53354 6.00206 7.53354ZM5.99999 12.3002C7.34443 11.0669 8.3361 9.95188 8.97499 8.95522C9.61388 7.95857 9.93332 7.07356 9.93332 6.30021C9.93332 5.0891 9.55554 4.10854 8.79999 3.35854C8.04443 2.60854 7.1111 2.23354 5.99999 2.23354C4.88888 2.23354 3.95554 2.60854 3.19999 3.35854C2.44443 4.10854 2.06666 5.0891 2.06666 6.30021C2.06666 7.07356 2.3861 7.95857 3.02499 8.95522C3.66388 9.95188 4.65555 11.0669 5.99999 12.3002ZM5.99582 13.8835C5.8986 13.8835 5.80554 13.8669 5.71666 13.8335C5.62777 13.8002 5.54443 13.7558 5.46666 13.7002C3.84443 12.2558 2.63888 10.928 1.84999 9.71687C1.0611 8.50576 0.666656 7.36471 0.666656 6.29371C0.666656 4.62026 1.19999 3.29187 2.26666 2.30854C3.33332 1.32521 4.57777 0.833542 5.99999 0.833542C7.42221 0.833542 8.66666 1.32521 9.73332 2.30854C10.8 3.29187 11.3333 4.62026 11.3333 6.29371C11.3333 7.36471 10.9389 8.50576 10.15 9.71687C9.3611 10.928 8.15554 12.2556 6.53332 13.6996C6.46666 13.7556 6.38471 13.8002 6.28749 13.8335C6.19027 13.8669 6.09304 13.8835 5.99582 13.8835Z" fill="#607080"/>
</svg>
