<svg width="22" height="43" viewBox="0 0 22 43" xmlns="http://www.w3.org/2000/svg" xmlns:xlink="http://www.w3.org/1999/xlink"><title>google_maps_pin</title><desc>Created with Sketch.</desc><defs><filter x="-37.5%" y="-200%" width="175%" height="500%" filterUnits="objectBoundingBox" id="filter-1"><feGaussianBlur stdDeviation="1" in="SourceGraphic"/></filter><linearGradient x1="50%" y1="0" x2="50%" y2="100%" id="linearGradient-2"><stop stop-color="#fb7467" offset="0"/><stop stop-color="#f3443b" offset="100%"/></linearGradient></defs><g id="Page-1" stroke="none" stroke-width="1" fill="none" fill-rule="evenodd"><g id="Desktop-HD-Copy-6" transform="translate(-520.000000, -394.000000)"><g id="google_maps_pin" transform="translate(520.000000, 394.000000)"><path d="M11 41.2C13.209139 41.2 15 40.8642136 15 40.45 15 40.0357864 13.209139 39.7 11 39.7 8.790861 39.7 7 40.0357864 7 40.45 7 40.8642136 8.790861 41.2 11 41.2z" id="circle" fill-opacity=".5" fill="#000" filter="url(#filter-1)"/><path d="M10.7534547 39.5H11.1982344L11.2021423 37.9773435C11.7001254 34.5484817 12.3504736 31.3640671 13.1606259 28.9962495 14.1346945 26.1493563 16.6501368 21.6852741 19.5549842 17.0893699 20.8132917 15.324891 21.5 13.2147168 21.5 11 21.5 5.20101013 16.7989899.5 11 .5 5.20101013.5.5 5.20101013.5 11 .5 13.2125342 1.18535021 15.3207496 2.45784347 17.1089014 5.30943191 21.6619913 7.81077631 26.1349328 8.78977997 28.9962495 9.59993222 31.3640671 10.2502804 34.5484817 10.7534547 38.049206V39.5z" id="pin" stroke="#b73830" fill="url(#linearGradient-2)"/><path d="M11 16C13.209139 16 15 14.209139 15 12 15 9.790861 13.209139 8 11 8 8.790861 8 7 9.790861 7 12 7 14.209139 8.790861 16 11 16z" id="circle" fill="#5c1410"/></g></g></g></svg>