<?xml version="1.0" encoding="UTF-8"?>
<svg width="20" height="20" viewBox="0 0 20 20" fill="none" xmlns="http://www.w3.org/2000/svg">
<path d="M10.0001 16.452C11.8081 14.8185 13.1452 13.3551 14.0114 12.0616C14.8777 10.7681 15.3108 9.56914 15.3108 8.46467C15.3108 6.8682 14.7976 5.56208 13.7712 4.54632C12.7449 3.53054 11.4877 3.02265 9.99971 3.02265C8.51171 3.02265 7.25467 3.53054 6.22858 4.54632C5.20249 5.56208 4.68944 6.8682 4.68944 8.46467C4.68944 9.56914 5.13298 10.7662 6.02006 12.0557C6.90713 13.3453 8.23382 14.8107 10.0001 16.452ZM9.9921 18.164C9.82898 18.164 9.66237 18.1357 9.49227 18.0793C9.32219 18.0228 9.17444 17.9351 9.04904 17.8161C8.4186 17.2727 7.75132 16.6532 7.04721 15.9579C6.34311 15.2625 5.69351 14.5131 5.0984 13.7097C4.50328 12.9063 4.01128 12.0602 3.6224 11.1717C3.23351 10.2831 3.03906 9.38074 3.03906 8.46467C3.03906 6.30503 3.73963 4.58109 5.14077 3.29286C6.54192 2.00462 8.16171 1.3605 10.0001 1.3605C11.8385 1.3605 13.4603 2.00462 14.8654 3.29286C16.2704 4.58109 16.973 6.30503 16.973 8.46467C16.973 9.38074 16.7766 10.2831 16.3837 11.1717C15.9909 12.0602 15.497 12.9063 14.9019 13.7097C14.3067 14.5131 13.6571 15.2625 12.953 15.9579C12.2489 16.6532 11.5856 17.2727 10.963 17.8161C10.8287 17.9351 10.6741 18.0228 10.4992 18.0793C10.3243 18.1357 10.1552 18.164 9.9921 18.164ZM10.002 9.87411C10.4349 9.87411 10.8016 9.72524 11.102 9.4275C11.4025 9.12978 11.5527 8.76444 11.5527 8.33148C11.5527 7.89854 11.4018 7.53186 11.1002 7.23144C10.7985 6.93101 10.4312 6.7808 9.99827 6.7808C9.56533 6.7808 9.2006 6.93162 8.9041 7.23328C8.6076 7.53493 8.45935 7.90223 8.45935 8.33519C8.45935 8.76814 8.60822 9.13286 8.90596 9.42936C9.20368 9.72586 9.56902 9.87411 10.002 9.87411Z" fill="#2A55E5"/>
</svg>
