<?xml version="1.0" encoding="UTF-8"?>
<svg width="1614" height="551" viewBox="0 0 1614 551" fill="none" xmlns="http://www.w3.org/2000/svg">
<path d="M1002.36 391.897V307.162H1017.71V379.029H1055.03V391.897H1002.36ZM1140.76 349.529C1140.76 358.659 1139.05 366.479 1135.63 372.989C1132.24 379.471 1127.61 384.435 1121.73 387.883C1115.88 391.331 1109.25 393.055 1101.83 393.055C1094.41 393.055 1087.76 391.331 1081.89 387.883C1076.04 384.408 1071.41 379.429 1067.99 372.947C1064.59 366.438 1062.9 358.632 1062.9 349.529C1062.9 340.399 1064.59 332.594 1067.99 326.112C1071.41 319.602 1076.04 314.623 1081.89 311.176C1087.76 307.728 1094.41 306.004 1101.83 306.004C1109.25 306.004 1115.88 307.728 1121.73 311.176C1127.61 314.623 1132.24 319.602 1135.63 326.112C1139.05 332.594 1140.76 340.399 1140.76 349.529ZM1125.33 349.529C1125.33 343.103 1124.33 337.683 1122.31 333.269C1120.33 328.829 1117.57 325.477 1114.04 323.215C1110.51 320.926 1106.44 319.781 1101.83 319.781C1097.23 319.781 1093.16 320.926 1089.63 323.215C1086.1 325.477 1083.32 328.829 1081.31 333.269C1079.32 337.683 1078.33 343.103 1078.33 349.529C1078.33 355.956 1079.32 361.39 1081.31 365.831C1083.32 370.244 1086.1 373.595 1089.63 375.885C1093.16 378.147 1097.23 379.277 1101.83 379.277C1106.44 379.277 1110.51 378.147 1114.04 375.885C1117.57 373.595 1120.33 370.244 1122.31 365.831C1124.33 361.39 1125.33 355.956 1125.33 349.529ZM1212.04 334.221C1211.35 331.987 1210.4 329.987 1209.19 328.222C1208 326.429 1206.57 324.898 1204.88 323.629C1203.23 322.36 1201.33 321.409 1199.17 320.774C1197.02 320.112 1194.68 319.781 1192.14 319.781C1187.59 319.781 1183.54 320.926 1179.98 323.215C1176.42 325.505 1173.62 328.87 1171.58 333.311C1169.56 337.724 1168.56 343.103 1168.56 349.447C1168.56 355.846 1169.56 361.266 1171.58 365.707C1173.59 370.148 1176.39 373.526 1179.98 375.843C1183.56 378.133 1187.73 379.277 1192.47 379.277C1196.77 379.277 1200.5 378.45 1203.64 376.795C1206.81 375.14 1209.26 372.795 1210.97 369.761C1212.68 366.7 1213.53 363.114 1213.53 359.004L1217.01 359.542H1194V347.543H1228.38V357.721C1228.38 364.976 1226.84 371.251 1223.75 376.547C1220.66 381.843 1216.41 385.925 1211.01 388.793C1205.6 391.635 1199.4 393.055 1192.39 393.055C1184.58 393.055 1177.73 391.304 1171.83 387.801C1165.95 384.27 1161.36 379.264 1158.05 372.782C1154.77 366.272 1153.13 358.549 1153.13 349.612C1153.13 342.772 1154.09 336.662 1156.02 331.283C1157.98 325.905 1160.71 321.34 1164.21 317.589C1167.72 313.81 1171.83 310.941 1176.54 308.983C1181.26 306.997 1186.39 306.004 1191.93 306.004C1196.62 306.004 1200.99 306.693 1205.05 308.072C1209.1 309.424 1212.7 311.355 1215.85 313.865C1219.02 316.375 1221.63 319.354 1223.67 322.802C1225.71 326.25 1227.05 330.056 1227.68 334.221H1212.04ZM1258.58 307.162V391.897H1243.23V307.162H1258.58ZM1321.25 330.456C1320.86 326.843 1319.24 324.029 1316.37 322.016C1313.53 320.002 1309.83 318.995 1305.28 318.995C1302.08 318.995 1299.33 319.478 1297.05 320.443C1294.76 321.409 1293 322.719 1291.79 324.374C1290.58 326.029 1289.96 327.918 1289.93 330.042C1289.93 331.807 1290.33 333.338 1291.13 334.635C1291.96 335.931 1293.07 337.034 1294.48 337.945C1295.89 338.827 1297.45 339.572 1299.16 340.179C1300.87 340.786 1302.59 341.296 1304.33 341.71L1312.27 343.696C1315.47 344.44 1318.55 345.447 1321.5 346.716C1324.48 347.985 1327.14 349.585 1329.48 351.515C1331.85 353.446 1333.73 355.777 1335.11 358.508C1336.49 361.238 1337.18 364.438 1337.18 368.106C1337.18 373.071 1335.91 377.443 1333.37 381.222C1330.83 384.973 1327.17 387.911 1322.37 390.035C1317.59 392.131 1311.82 393.179 1305.03 393.179C1298.44 393.179 1292.71 392.159 1287.86 390.117C1283.03 388.076 1279.25 385.097 1276.52 381.181C1273.82 377.264 1272.36 372.492 1272.14 366.865H1287.24C1287.46 369.817 1288.37 372.271 1289.97 374.23C1291.57 376.188 1293.65 377.65 1296.22 378.615C1298.81 379.581 1301.71 380.064 1304.91 380.064C1308.24 380.064 1311.17 379.567 1313.68 378.574C1316.22 377.554 1318.2 376.147 1319.64 374.354C1321.07 372.533 1321.8 370.41 1321.83 367.982C1321.8 365.776 1321.15 363.955 1319.88 362.521C1318.61 361.059 1316.84 359.845 1314.55 358.88C1312.28 357.887 1309.64 357.004 1306.6 356.232L1296.96 353.75C1289.98 351.957 1284.47 349.24 1280.41 345.599C1276.39 341.93 1274.37 337.062 1274.37 330.994C1274.37 326.001 1275.72 321.629 1278.43 317.878C1281.16 314.127 1284.87 311.217 1289.56 309.148C1294.25 307.052 1299.56 306.004 1305.49 306.004C1311.5 306.004 1316.77 307.052 1321.29 309.148C1325.84 311.217 1329.41 314.099 1332.01 317.795C1334.6 321.464 1335.94 325.684 1336.02 330.456H1321.25ZM1347.14 320.03V307.162H1414.74V320.03H1388.55V391.897H1373.33V320.03H1347.14ZM1443.13 307.162V391.897H1427.78V307.162H1443.13ZM1532.28 335.752H1516.8C1516.36 333.214 1515.55 330.966 1514.36 329.008C1513.18 327.022 1511.7 325.339 1509.94 323.96C1508.17 322.581 1506.16 321.547 1503.9 320.857C1501.66 320.14 1499.25 319.781 1496.65 319.781C1492.05 319.781 1487.97 320.94 1484.41 323.257C1480.85 325.546 1478.06 328.911 1476.05 333.352C1474.04 337.765 1473.03 343.158 1473.03 349.529C1473.03 356.011 1474.04 361.473 1476.05 365.914C1478.09 370.327 1480.88 373.664 1484.41 375.926C1487.97 378.16 1492.03 379.277 1496.61 379.277C1499.15 379.277 1501.52 378.946 1503.73 378.284C1505.96 377.595 1507.96 376.588 1509.73 375.264C1511.52 373.94 1513.03 372.313 1514.24 370.382C1515.48 368.451 1516.34 366.245 1516.8 363.762L1532.28 363.845C1531.7 367.872 1530.44 371.651 1528.51 375.181C1526.61 378.712 1524.11 381.829 1521.02 384.532C1517.93 387.207 1514.32 389.304 1510.18 390.821C1506.05 392.31 1501.45 393.055 1496.41 393.055C1488.96 393.055 1482.31 391.331 1476.46 387.883C1470.62 384.435 1466.01 379.457 1462.65 372.947C1459.28 366.438 1457.6 358.632 1457.6 349.529C1457.6 340.399 1459.29 332.594 1462.69 326.112C1466.08 319.602 1470.7 314.623 1476.55 311.176C1482.39 307.728 1489.01 306.004 1496.41 306.004C1501.12 306.004 1505.51 306.666 1509.56 307.99C1513.62 309.314 1517.23 311.258 1520.4 313.823C1523.58 316.361 1526.18 319.478 1528.22 323.174C1530.29 326.843 1531.64 331.035 1532.28 335.752ZM1592.38 330.456C1592 326.843 1590.37 324.029 1587.5 322.016C1584.66 320.002 1580.96 318.995 1576.41 318.995C1573.21 318.995 1570.47 319.478 1568.18 320.443C1565.89 321.409 1564.14 322.719 1562.93 324.374C1561.71 326.029 1561.09 327.918 1561.06 330.042C1561.06 331.807 1561.46 333.338 1562.26 334.635C1563.09 335.931 1564.21 337.034 1565.62 337.945C1567.02 338.827 1568.58 339.572 1570.29 340.179C1572 340.786 1573.72 341.296 1575.46 341.71L1583.41 343.696C1586.61 344.44 1589.68 345.447 1592.63 346.716C1595.61 347.985 1598.27 349.585 1600.62 351.515C1602.99 353.446 1604.87 355.777 1606.24 358.508C1607.62 361.238 1608.31 364.438 1608.31 368.106C1608.31 373.071 1607.04 377.443 1604.51 381.222C1601.97 384.973 1598.3 387.911 1593.5 390.035C1588.73 392.131 1582.95 393.179 1576.17 393.179C1569.57 393.179 1563.85 392.159 1559 390.117C1554.17 388.076 1550.39 385.097 1547.66 381.181C1544.96 377.264 1543.49 372.492 1543.27 366.865H1558.37C1558.6 369.817 1559.51 372.271 1561.11 374.23C1562.71 376.188 1564.79 377.65 1567.35 378.615C1569.95 379.581 1572.84 380.064 1576.04 380.064C1579.38 380.064 1582.3 379.567 1584.81 378.574C1587.35 377.554 1589.34 376.147 1590.77 374.354C1592.2 372.533 1592.94 370.41 1592.96 367.982C1592.94 365.776 1592.29 363.955 1591.02 362.521C1589.75 361.059 1587.97 359.845 1585.68 358.88C1583.42 357.887 1580.77 357.004 1577.74 356.232L1568.1 353.75C1561.12 351.957 1555.6 349.24 1551.55 345.599C1547.52 341.93 1545.51 337.062 1545.51 330.994C1545.51 326.001 1546.86 321.629 1549.56 317.878C1552.29 314.127 1556 311.217 1560.69 309.148C1565.38 307.052 1570.69 306.004 1576.62 306.004C1582.63 306.004 1587.9 307.052 1592.43 309.148C1596.98 311.217 1600.55 314.099 1603.14 317.795C1605.73 321.464 1607.07 325.684 1607.15 330.456H1592.38Z" fill="white"/>
<path fill-rule="evenodd" clip-rule="evenodd" d="M874.544 375.806L874.724 352.562C875.044 341.91 869.572 340.873 864.118 339.376C842.175 334.569 830.793 313.63 830.411 292.312C830.629 292.312 830.858 274.389 831.033 254.47L859.72 254.445C868.698 254.708 874.117 251.137 874.459 242.1V220.594C874.859 211.621 869.495 207.039 861.217 207.116H831.193L831.383 179.044C831.646 170.067 828.077 164.647 819.04 164.305H797.534C788.562 163.905 783.729 169.31 784.059 177.548L783.514 287.038C782.582 335.084 811.282 378.662 861.836 385.536C876.391 387.515 874.26 380.409 874.539 375.806M703.014 385.596H681.508C672.535 385.931 667.703 381.391 668.033 374.469C667.306 322.918 667.773 272.113 668.033 220.329C667.703 212.091 672.535 206.687 681.508 207.086H703.014C711.307 207.401 714.997 211.991 715.344 219.685C729.189 211.102 744.276 205.83 757.814 204.865C763.635 204.246 767.044 206.589 767.163 212.968L767.396 240.763C767.431 245.458 769.03 250.812 757.811 250.812C738.089 250.812 724.967 262.324 718.655 277.505C714.49 287.53 714.817 293.694 714.74 304.088L715.354 373.213C715.617 380.756 712.049 385.311 703.011 385.598L703.014 385.596ZM555.17 249.706C580.948 249.706 601.844 270.604 601.844 296.38C601.844 322.156 580.948 343.054 555.17 343.054C529.392 343.054 508.496 322.158 508.496 296.38C508.496 270.602 529.392 249.706 555.17 249.706V249.706ZM615.797 207.084H637.302C646.34 207.426 649.91 212.846 649.646 221.823V370.851C649.908 379.829 646.34 385.249 637.302 385.591H615.797C607.596 385.956 602.856 381.473 602.354 374.41C588.589 382.75 572.443 387.552 555.172 387.552C504.82 387.552 464 346.732 464 296.38C464 246.028 504.82 205.207 555.172 205.207C572.623 205.207 588.926 210.112 602.784 218.615C602.809 210.555 607.886 206.732 615.799 207.084H615.797Z" fill="white"/>
<path fill-rule="evenodd" clip-rule="evenodd" d="M392.145 309.62L392.215 328.925L429.084 378.008C431.875 381.503 434.776 385.553 442.852 385.553H481.91C490.918 385.553 488.232 377.98 486.86 376.229L422.823 290.591L417.85 284.142L392.147 309.618L392.145 309.62Z" fill="white"/>
<path fill-rule="evenodd" clip-rule="evenodd" d="M356.089 164.687H382.035C387.744 164.687 392.414 169.354 392.414 175.059V375.224C392.414 380.928 387.744 385.596 382.035 385.596H356.089C350.382 385.596 345.71 380.928 345.71 375.224V175.059C345.71 169.354 350.38 164.687 356.089 164.687Z" fill="white"/>
<path fill-rule="evenodd" clip-rule="evenodd" d="M210.584 303.888C203.381 269.322 230.741 245.465 262.973 251.687L210.584 303.888V303.888ZM304.268 329.124C286.145 341.495 266.034 346.684 243.863 336.907L324.337 258.101C328.332 253.711 332.894 250.078 325.753 240.615C305.724 214.087 267.97 200.63 235.585 207.396C196.927 215.474 164.592 248.841 164.677 294.763C170.494 373.48 238.007 395.69 293.114 383.922C321.791 377.8 328.512 370.152 349.755 351.632L527.5 175.461C532.257 171.346 531.45 164.505 522.753 164.697L482.997 164.689C475.833 165.112 473.38 165.447 467.056 171.631L322.238 313.31C316.179 319.237 311.324 324.309 304.268 329.127V329.124Z" fill="#F7BE00"/>
</svg>
