<?xml version="1.0" encoding="UTF-8"?>
<svg width="29" height="52" viewBox="0 0 29 52" fill="none" xmlns="http://www.w3.org/2000/svg">
<path fill-rule="evenodd" clip-rule="evenodd" d="M13.5159 52V49.464C13.0611 46.3757 12.2122 41.5063 10.9629 37.9055C9.37612 33.3318 4.5213 25.484 2.6813 22.5866C0.992984 20.2488 0 17.3888 0 14.3C0 6.40233 6.49187 0 14.5 0C22.5081 0 29 6.40233 29 14.3C29 17.3918 28.005 20.2545 26.3136 22.5936C24.4148 25.5573 19.547 33.365 17.9717 37.9055C16.7225 41.5063 15.8735 46.3757 15.4187 49.464V52H13.5159Z" fill="#5482FF"/>
<g filter="url(#filter0_d_488_68222)">
<circle cx="15" cy="15" r="10" fill="url(#paint0_linear_488_68222)"/>
</g>
<defs>
<filter id="filter0_d_488_68222" x="5" y="5" width="20" height="21" filterUnits="userSpaceOnUse" color-interpolation-filters="sRGB">
<feFlood flood-opacity="0" result="BackgroundImageFix"/>
<feColorMatrix in="SourceAlpha" type="matrix" values="0 0 0 0 0 0 0 0 0 0 0 0 0 0 0 0 0 0 127 0" result="hardAlpha"/>
<feOffset dy="1"/>
<feColorMatrix type="matrix" values="0 0 0 0 0 0 0 0 0 0 0 0 0 0 0 0 0 0 0.5 0"/>
<feBlend mode="normal" in2="BackgroundImageFix" result="effect1_dropShadow_488_68222"/>
<feBlend mode="normal" in="SourceGraphic" in2="effect1_dropShadow_488_68222" result="shape"/>
</filter>
<linearGradient id="paint0_linear_488_68222" x1="5" y1="5" x2="5" y2="25" gradientUnits="userSpaceOnUse">
<stop stop-color="#F8E831"/>
<stop offset="1" stop-color="#FDCD00"/>
</linearGradient>
</defs>
</svg>
