<?xml version="1.0" encoding="UTF-8"?>
<svg width="48" height="48" viewBox="0 0 48 48" fill="none" xmlns="http://www.w3.org/2000/svg">
<path d="M22.2851 16.2906C22.5126 16.2906 22.7307 16.2002 22.8914 16.0394C23.0521 15.8786 23.1425 15.6605 23.1425 15.4333V12.4323C20.5369 13.0602 18.1555 14.3951 16.2603 16.2906L22.2851 16.2906Z" fill="#FFC400"/>
<path d="M36.8575 16.2657V36.8932C39.6009 34.1627 41.1431 30.4508 41.1431 26.5795C41.1431 22.7082 39.6009 18.9963 36.8575 16.2657Z" fill="#FFC400"/>
<path d="M3.42789 13.7184H16.3277V13.9312C17.6084 12.8923 19.0388 12.0537 20.5709 11.4444V3.42957H3.42725L3.42789 13.7184Z" fill="#FFC400"/>
<path d="M26.5713 38.5836H18.3237C20.8037 40.2989 23.7573 41.1978 26.7722 41.1544C29.7871 41.1106 32.7134 40.1273 35.1429 38.3406V14.8185C32.6585 12.9902 29.6555 12.004 26.5713 12.0033C25.9984 12.0065 25.4258 12.0431 24.8568 12.1131V15.4332C24.8568 16.1154 24.586 16.7696 24.1038 17.2519C23.6217 17.7342 22.9673 18.0054 22.2853 18.0054H14.8137C14.4098 18.5509 14.0446 19.124 13.7206 19.72H31.7148C32.1883 19.72 32.5718 20.104 32.5718 20.5777C32.5718 21.051 32.1883 21.435 31.7148 21.435H12.9547C12.7423 21.9951 12.5655 22.5678 12.4241 23.1499H31.715C32.1886 23.1499 32.5721 23.5335 32.5721 24.0072C32.5721 24.4809 32.1886 24.8645 31.715 24.8645H12.11C12.0401 25.4336 12.0035 26.0064 12.0002 26.5794H31.7154C32.189 26.5794 32.5725 26.9634 32.5725 27.4367C32.5725 27.9104 32.189 28.2943 31.7154 28.2943H12.1105C12.1808 28.8717 12.2859 29.4441 12.4251 30.0089H31.716C32.1895 30.0089 32.573 30.3929 32.573 30.8666C32.573 31.3399 32.1895 31.7238 31.716 31.7238H12.9559C13.0201 31.8954 13.0732 32.0669 13.1446 32.2384L13.1532 32.2589C13.3247 32.6626 13.5166 33.0555 13.7226 33.4395H31.7158C32.1893 33.4395 32.5728 33.8235 32.5728 34.2968C32.5728 34.7705 32.1893 35.1545 31.7158 35.1545H14.8154C15.2531 35.762 15.7367 36.3354 16.2623 36.8691H26.5731C27.0467 36.8691 27.4302 37.253 27.4302 37.7267C27.4302 38.2 27.0467 38.584 26.5731 38.584L26.5713 38.5836Z" fill="#FFC400"/>
<path d="M39.2268 40.4427L40.4322 39.2374L38.6584 37.4625C38.2769 37.8849 37.8743 38.2875 37.4519 38.669L39.2268 40.4427Z" fill="#FFC400"/>
<path d="M25.7145 5.1447H29.6453L25.7145 1.2124V5.1447Z" fill="#FFC400"/>
<path d="M42.2523 39.8412L39.829 42.2641L45.0764 47.5116H45.0768C45.4014 47.8241 45.8341 47.9993 46.2843 48C46.7349 48.001 47.1682 47.8277 47.494 47.5166L47.499 47.5116H47.4994C47.8201 47.19 48.0002 46.7544 48.0002 46.3001C48.0002 45.8458 47.8201 45.4098 47.4994 45.0885L42.2523 39.8412Z" fill="#FFC400"/>
<path d="M0.856306 44.5852H29.9998C30.2272 44.5852 30.4453 44.4947 30.6061 44.334C30.7668 44.1732 30.8572 43.955 30.8572 43.7279V42.2789C28.6681 42.89 26.3743 43.0296 24.1274 42.6883C21.8806 42.3467 19.7317 41.5321 17.8228 40.298H2.57104C2.0975 40.298 1.71364 39.9144 1.71364 39.4407C1.71364 38.967 2.0975 38.5834 2.57104 38.5834H15.6003C15.5293 38.5181 15.4565 38.4557 15.3869 38.3889V38.3885C15.3438 38.357 15.3036 38.3211 15.2674 38.2816C14.8039 37.8363 14.3669 37.3647 13.9587 36.8684H2.5715C2.09796 36.8684 1.7141 36.4845 1.7141 36.0112C1.7141 35.5375 2.09796 35.1535 2.5715 35.1535H12.7501C12.6557 35.0017 12.5614 34.851 12.4724 34.6963V34.6967C12.4552 34.6719 12.4394 34.6461 12.4251 34.6195C12.2066 34.2363 12.0075 33.8408 11.8199 33.4389H2.57161C2.09807 33.4389 1.71421 33.0549 1.71421 32.5812C1.71421 32.1079 2.09807 31.724 2.57161 31.724H11.1313C11.0739 31.5524 11.0165 31.3809 10.9599 31.2036C10.9599 31.195 10.9599 31.1846 10.953 31.1764C10.84 30.7924 10.7371 30.4048 10.6521 30.0094L2.57164 30.009C2.09809 30.009 1.71423 29.6254 1.71423 29.1517C1.71423 28.6781 2.09809 28.2945 2.57164 28.2945H10.378C10.3532 28.0501 10.3507 27.7996 10.3353 27.5527H10.335C10.3245 27.5147 10.3167 27.4759 10.3116 27.4368C10.3152 27.4135 10.3202 27.3902 10.3263 27.3675C10.3134 27.1052 10.2862 26.8454 10.2862 26.5795H2.57164C2.09809 26.5795 1.71423 26.1956 1.71423 25.7222C1.71423 25.2486 2.09809 24.8646 2.57164 24.8646H10.378C10.4089 24.5757 10.4637 24.2937 10.5093 24.0073V23.9937C10.5549 23.7116 10.595 23.4278 10.6542 23.15H2.57162C2.09808 23.15 1.71421 22.766 1.71421 22.2924C1.71421 21.819 2.09808 21.4351 2.57162 21.4351H11.1313C11.3269 20.8509 11.5557 20.2781 11.8169 19.7201H2.57142C2.09787 19.7201 1.71401 19.3365 1.71401 18.8629C1.71401 18.3892 2.09787 18.0056 2.57142 18.0056H12.75C13.3218 17.0844 13.9844 16.2228 14.7274 15.4333H3.42837C2.97384 15.4333 2.5376 15.2525 2.21618 14.9309C1.89476 14.6094 1.71393 14.1731 1.71393 13.7184V3.4295C1.71393 2.97484 1.89474 2.53848 2.21618 2.21697C2.53762 1.89546 2.97386 1.71457 3.42837 1.71457H20.5721C21.0266 1.71457 21.4628 1.89544 21.7843 2.21697C22.1057 2.5385 22.2861 2.97486 22.2861 3.4295V10.8802C25.0891 10.0915 28.0551 10.0915 30.8581 10.8802V6.85901H25.7151C25.2602 6.85901 24.8243 6.67852 24.5029 6.35699C24.1811 6.03546 24.0006 5.5991 24.0006 5.14446V0H0.857047C0.383504 0 0 0.383611 0 0.857287V43.7281C0 43.9552 0.0900459 44.1734 0.250768 44.3342C0.411845 44.4949 0.629606 44.5854 0.857056 44.5854L0.856306 44.5852Z" fill="#FFC400"/>
</svg>
