<?xml version="1.0" encoding="UTF-8"?>
<svg width="36px" height="36px" viewBox="0 0 36 36" version="1.1" xmlns="http://www.w3.org/2000/svg" xmlns:xlink="http://www.w3.org/1999/xlink">
    <!-- Generator: Sketch 61.2 (89653) - https://sketch.com -->
    <title>icon/Records/Missed</title>
    <desc>Created with Sketch.</desc>
    <g id="icon/Records/Missed" stroke="none" stroke-width="1" fill="none" fill-rule="evenodd">
        <g id="box" transform="translate(7.000000, 6.000000)" fill="#FEB000" fill-rule="nonzero">
            <path d="M22.8029979,5.86949199 L18.9265549,3.84207358 L18.7222217,4.14850627 L18.9259438,3.84227531 L11.6896688,0.0473212515 C11.5702094,-0.0157737505 11.4226283,-0.0157737505 11.3031689,0.0473212515 L0.200506416,5.86702076 C0.0764063657,5.92916722 -0.000467979555,6.04781781 2.14403879e-06,6.17647945 L2.14403879e-06,17.8235443 C2.14403879e-06,17.9496677 0.0741313237,18.0662093 0.194450863,18.129271 L11.3055578,23.9527025 C11.4258804,24.0157658 11.5741239,24.0157658 11.6944465,23.9527025 L22.8055535,18.1291701 C22.925873,18.0661084 23.0000021,17.9495668 23.0000021,17.8234435 L23.0000021,6.17647945 C22.9995975,6.04951561 22.9244626,5.932432 22.8029979,5.86949199 Z M5.57672662,3.59132866 L16.2390342,9.31849454 L17.3112445,8.77172546 L6.59346721,3.07140242 L5.57672662,3.59132866 Z M11.5000022,0.760599326 L21.8478325,6.17597512 L11.5000011,11.6121492 L1.16778383,6.17597512 L11.5000022,0.760599326 Z M11.1111134,23.0355731 L0.777783977,17.6197434 L0.777783977,6.78667188 L4.38889373,8.69037742 L8.00000348,10.5721949 L11.1111134,12.2028042 L11.1111134,23.0355731 Z M22.2222204,17.6197434 L11.8888909,23.0355731 L11.8888909,12.2028042 L22.2222204,6.78687361 L22.2222204,17.6197434 Z" id="Shape"></path>
            <path d="M16.2310393,14.5532248 C16.4519425,14.7090076 16.7331635,14.6147933 16.860193,14.3424465 L17.1946748,13.6267731 L17.1946748,17.8442847 C17.1946748,18.1576952 17.4002176,18.4117647 17.6537675,18.4117647 C17.9073174,18.4117647 18.1128602,18.1576952 18.1128602,17.8442847 L18.1128602,13.0400798 L18.5063682,13.5589187 C18.6186297,13.7077445 18.7868335,13.7707301 18.9470382,13.7239319 C19.1072428,13.6771337 19.2348428,13.5277393 19.2813319,13.33254 C19.327821,13.1373408 19.2860589,12.9263169 19.1719214,12.7796876 L17.9481771,11.1780157 C17.8483974,11.0473124 17.7044299,10.9827538 17.5600622,11.0039756 C17.4156945,11.0251974 17.2879912,11.129691 17.2157931,11.2856748 L16.0607815,13.7785335 C16.0002142,13.9091619 15.9841258,14.0641877 16.0160582,14.2094833 C16.0479905,14.3547789 16.1253258,14.4784332 16.2310393,14.5532248 Z" id="Path"></path>
        </g>
        <g id="minus" transform="translate(17.500000, 18.248737) rotate(135.000000) translate(-17.500000, -18.248737) translate(0.000000, 0.748737)" fill="#FF5C5B" fill-rule="nonzero">
            <path d="M17.1116021,34.3137085 C7.71496962,34.3137085 0.0977132561,26.7024109 0.0977132561,17.3137085 C0.0977132561,7.92500614 7.71496962,0.313708499 17.1116021,0.313708499 C26.5082347,0.313708499 34.125491,7.92474669 34.125491,17.3137085 C34.1143277,26.6980011 26.5035616,34.3025543 17.1116021,34.3137085 Z M17.2206662,2.04736409 C8.72240891,2.04736409 1.83310496,8.93104412 1.83310496,17.4223641 C1.83310496,25.9136841 8.72240891,32.7973641 17.2206662,32.7973641 C25.7189235,32.7973641 32.6082275,25.9136841 32.6082275,17.4223641 C32.5991041,8.93479782 25.7151668,2.05648009 17.2206662,2.04736409 Z" id="Shape"></path>
            <path d="M32.5296805,18.4904852 L2.03725626,18.4904852 C1.1952901,18.4904852 0.512635043,18.0427313 0.512635043,17.4904852 C0.512635043,16.9382391 1.1952901,16.4904852 2.03725626,16.4904852 L32.5296805,16.4904852 C33.3716467,16.4904852 34.0543017,16.9382391 34.0543017,17.4904852 C34.0543017,18.0427313 33.3716467,18.4904852 32.5296805,18.4904852 Z" id="Path"></path>
        </g>
    </g>
</svg>