<?xml version="1.0" encoding="UTF-8"?>
<svg width="89" height="13" viewBox="0 0 89 13" fill="none" xmlns="http://www.w3.org/2000/svg">
<path d="M0 0H89L81.2175 6.5L89 13H0V0Z" fill="#FF8B00"/>
<path d="M16.2891 10H15.3467L11.7676 4.52148V10H10.8252V2.89062H11.7676L15.3564 8.39355V2.89062H16.2891V10ZM20.0049 10.0977C19.2887 10.0977 18.7061 9.86328 18.2568 9.39453C17.8076 8.92253 17.583 8.29264 17.583 7.50488V7.33887C17.583 6.81478 17.6823 6.34766 17.8809 5.9375C18.0827 5.52409 18.3626 5.20182 18.7207 4.9707C19.082 4.73633 19.4727 4.61914 19.8926 4.61914C20.5794 4.61914 21.1133 4.84538 21.4941 5.29785C21.875 5.75033 22.0654 6.39811 22.0654 7.24121V7.61719H18.4863C18.4993 8.13802 18.6507 8.55957 18.9404 8.88184C19.2334 9.20085 19.6045 9.36035 20.0537 9.36035C20.3727 9.36035 20.6429 9.29525 20.8643 9.16504C21.0856 9.03483 21.2793 8.8623 21.4453 8.64746L21.9971 9.07715C21.5544 9.75749 20.8903 10.0977 20.0049 10.0977ZM19.8926 5.36133C19.528 5.36133 19.222 5.49479 18.9746 5.76172C18.7272 6.02539 18.5742 6.39648 18.5156 6.875H21.1621V6.80664C21.1361 6.34766 21.0124 5.99284 20.791 5.74219C20.5697 5.48828 20.2702 5.36133 19.8926 5.36133ZM27.793 8.75488L28.8086 4.7168H29.7119L28.1738 10H27.4414L26.1572 5.99609L24.9072 10H24.1748L22.6416 4.7168H23.54L24.5801 8.67188L25.8105 4.7168H26.5381L27.793 8.75488ZM34.0967 10H33.1934V4.7168H34.0967V10ZM33.1201 3.31543C33.1201 3.16895 33.1641 3.04525 33.252 2.94434C33.3431 2.84342 33.4766 2.79297 33.6523 2.79297C33.8281 2.79297 33.9616 2.84342 34.0527 2.94434C34.1439 3.04525 34.1895 3.16895 34.1895 3.31543C34.1895 3.46191 34.1439 3.58398 34.0527 3.68164C33.9616 3.7793 33.8281 3.82812 33.6523 3.82812C33.4766 3.82812 33.3431 3.7793 33.252 3.68164C33.1641 3.58398 33.1201 3.46191 33.1201 3.31543ZM36.4014 4.7168L36.4307 5.38086C36.8343 4.87305 37.3617 4.61914 38.0127 4.61914C39.1292 4.61914 39.6924 5.24902 39.7021 6.50879V10H38.7988V6.50391C38.7956 6.12305 38.7077 5.84147 38.5352 5.65918C38.3659 5.47689 38.1006 5.38574 37.7393 5.38574C37.4463 5.38574 37.1891 5.46387 36.9678 5.62012C36.7464 5.77637 36.5739 5.98145 36.4502 6.23535V10H35.5469V4.7168H36.4014ZM42.8076 8.77441L44.1162 4.7168H45.0391L43.1445 10H42.4561L40.542 4.7168H41.4648L42.8076 8.77441ZM45.5908 7.30957C45.5908 6.79199 45.6917 6.3265 45.8936 5.91309C46.0986 5.49967 46.3818 5.18066 46.7432 4.95605C47.1077 4.73145 47.5228 4.61914 47.9883 4.61914C48.7077 4.61914 49.2887 4.86816 49.7314 5.36621C50.1774 5.86426 50.4004 6.52669 50.4004 7.35352V7.41699C50.4004 7.93132 50.3011 8.39355 50.1025 8.80371C49.9072 9.21061 49.6257 9.52799 49.2578 9.75586C48.8932 9.98372 48.4733 10.0977 47.998 10.0977C47.2819 10.0977 46.7008 9.84863 46.2549 9.35059C45.8122 8.85254 45.5908 8.19336 45.5908 7.37305V7.30957ZM46.499 7.41699C46.499 8.00293 46.6341 8.47331 46.9043 8.82812C47.1777 9.18294 47.5423 9.36035 47.998 9.36035C48.457 9.36035 48.8216 9.18132 49.0918 8.82324C49.362 8.46191 49.4971 7.95736 49.4971 7.30957C49.4971 6.73014 49.3587 6.26139 49.082 5.90332C48.8086 5.54199 48.444 5.36133 47.9883 5.36133C47.5423 5.36133 47.1826 5.53874 46.9092 5.89355C46.6357 6.24837 46.499 6.75618 46.499 7.41699ZM52.5146 10H51.6113V4.7168H52.5146V10ZM51.5381 3.31543C51.5381 3.16895 51.582 3.04525 51.6699 2.94434C51.7611 2.84342 51.8945 2.79297 52.0703 2.79297C52.2461 2.79297 52.3796 2.84342 52.4707 2.94434C52.5618 3.04525 52.6074 3.16895 52.6074 3.31543C52.6074 3.46191 52.5618 3.58398 52.4707 3.68164C52.3796 3.7793 52.2461 3.82812 52.0703 3.82812C51.8945 3.82812 51.7611 3.7793 51.6699 3.68164C51.582 3.58398 51.5381 3.46191 51.5381 3.31543ZM56.084 9.36035C56.4062 9.36035 56.6878 9.2627 56.9287 9.06738C57.1696 8.87207 57.3031 8.62793 57.3291 8.33496H58.1836C58.1673 8.6377 58.0632 8.92578 57.8711 9.19922C57.679 9.47266 57.4219 9.69076 57.0996 9.85352C56.7806 10.0163 56.4421 10.0977 56.084 10.0977C55.3646 10.0977 54.7917 9.8584 54.3652 9.37988C53.9421 8.89811 53.7305 8.24056 53.7305 7.40723V7.25586C53.7305 6.74154 53.8249 6.28418 54.0137 5.88379C54.2025 5.4834 54.4727 5.17253 54.8242 4.95117C55.179 4.72982 55.5973 4.61914 56.0791 4.61914C56.6715 4.61914 57.1631 4.79655 57.5537 5.15137C57.9476 5.50618 58.1576 5.9668 58.1836 6.5332H57.3291C57.3031 6.19141 57.1729 5.91146 56.9385 5.69336C56.7074 5.47201 56.4209 5.36133 56.0791 5.36133C55.6201 5.36133 55.2637 5.52734 55.0098 5.85938C54.7591 6.18815 54.6338 6.66504 54.6338 7.29004V7.46094C54.6338 8.06966 54.7591 8.53841 55.0098 8.86719C55.2604 9.19596 55.6185 9.36035 56.084 9.36035ZM61.3916 10.0977C60.6755 10.0977 60.0928 9.86328 59.6436 9.39453C59.1943 8.92253 58.9697 8.29264 58.9697 7.50488V7.33887C58.9697 6.81478 59.069 6.34766 59.2676 5.9375C59.4694 5.52409 59.7493 5.20182 60.1074 4.9707C60.4688 4.73633 60.8594 4.61914 61.2793 4.61914C61.9661 4.61914 62.5 4.84538 62.8809 5.29785C63.2617 5.75033 63.4521 6.39811 63.4521 7.24121V7.61719H59.873C59.8861 8.13802 60.0374 8.55957 60.3271 8.88184C60.6201 9.20085 60.9912 9.36035 61.4404 9.36035C61.7594 9.36035 62.0296 9.29525 62.251 9.16504C62.4723 9.03483 62.666 8.8623 62.832 8.64746L63.3838 9.07715C62.9411 9.75749 62.277 10.0977 61.3916 10.0977ZM61.2793 5.36133C60.9147 5.36133 60.6087 5.49479 60.3613 5.76172C60.1139 6.02539 59.9609 6.39648 59.9023 6.875H62.5488V6.80664C62.5228 6.34766 62.3991 5.99284 62.1777 5.74219C61.9564 5.48828 61.6569 5.36133 61.2793 5.36133Z" fill="white"/>
</svg>
