<?xml version="1.0" encoding="UTF-8"?>
<svg width="251px" height="175px" viewBox="0 0 251 175" version="1.1" xmlns="http://www.w3.org/2000/svg" xmlns:xlink="http://www.w3.org/1999/xlink">
    <!-- Generator: Sketch 61.2 (89653) - https://sketch.com -->
    <title>1</title>
    <desc>Created with Sketch.</desc>
    <defs>
        <linearGradient x1="50.0295703%" y1="99.99835%" x2="50.0295703%" y2="-0.00449966702%" id="linearGradient-1">
            <stop stop-color="#808080" stop-opacity="0.25" offset="0%"></stop>
            <stop stop-color="#808080" stop-opacity="0.12" offset="54%"></stop>
            <stop stop-color="#808080" stop-opacity="0.1" offset="100%"></stop>
        </linearGradient>
    </defs>
    <g id="1" stroke="none" stroke-width="1" fill="none" fill-rule="evenodd">
        <g id="undraw_booking_33fn-(1)">
            <g>
                <path d="M145.832101,27.6995653 C129.741843,27.1410134 114.417046,21.944923 99.7820537,16.2614905 C85.1470617,10.5780581 70.6522558,4.28044104 54.9447282,1.26960153 C44.8446477,-0.66864032 33.2915264,-0.942353003 25.1518273,4.4740427 C17.3192027,9.68571022 14.7891759,18.6826239 13.4273673,27.0319734 C12.4037857,33.3140132 11.8029878,39.9231732 14.6067114,45.8046579 C16.5537417,49.8858698 20.0116674,53.3172922 22.3948325,57.2271555 C30.7147709,70.8349039 24.8425277,87.6114886 15.8172079,100.898793 C11.5893708,107.129651 6.68062932,113.075669 3.41851918,119.709308 C0.156409043,126.342946 -1.34781091,133.944593 1.52044282,140.722876 C4.35086853,147.429949 11.0887058,152.468043 18.4028641,156.012956 C33.2314466,163.19847 50.7191162,165.259104 67.770651,166.425164 C105.518561,169.00652 143.468963,167.889416 181.317006,166.770087 C195.322273,166.353955 209.39207,165.935597 223.170368,163.768149 C230.822754,162.566483 238.722134,160.65272 244.278402,156.048561 C251.329989,150.19823 253.078979,140.291166 248.352702,132.954331 C240.42662,120.648387 218.510847,117.599717 212.97238,104.385848 C209.921662,97.1179975 213.054712,89.0201076 217.487265,82.2796546 C226.993223,67.8151632 242.927719,55.1309169 243.766611,38.5991159 C244.345157,27.2500534 236.683871,15.8742872 224.839252,10.5023977 C212.422761,4.87237254 195.208789,5.58001996 186.047733,14.9018283 C176.615206,24.4995747 160.039859,28.191358 145.832101,27.6995653 Z" id="Path" fill="#2870F0" fill-rule="nonzero" opacity="0.1"></path>
                <path d="M201,151.363723 C199.992862,151.044578 198.929045,150.933682 197.875883,151.038054 C196.592985,151.174154 196.77413,153.086851 198.06199,152.996927 C198.706084,152.948193 199.343169,152.833336 199.962763,152.654246 L201,151.363723 Z" id="Path" fill="#2870F0" fill-rule="nonzero"></path>
                <path d="M201.244471,151 C201.702321,151.937323 201.959392,152.959312 201.999337,154.000979 C202.041002,155.270718 200.104819,155.361065 200.016588,154.093768 C199.978345,153.459359 200.006271,152.822709 200.099917,152.194043 L201.244471,151 Z" id="Path" fill="#2870F0" fill-rule="nonzero"></path>
                <path d="M204,148.238931 C204,148.238931 203.453676,146.472801 200.113112,147.157899 C198.601544,147.467083 198.642572,149.700325 200.156299,149.936106 L200.221081,149.936106 C202.42581,150.251963 203.192391,149.351103 204,148.238931 Z" id="Path" fill="#2870F0" fill-rule="nonzero"></path>
                <path d="M204.099208,148 C204.099208,148 205.887186,148.141228 205.999069,151.563292 C206.050707,153.103764 203.93999,153.570902 203.374119,152.14124 C203.374119,152.119513 203.359058,152.099958 203.350452,152.078231 C202.560815,149.990229 203.234265,149.038569 204.099208,148 Z" id="Path" fill="#2870F0" fill-rule="nonzero"></path>
                <path d="M207,142.750979 C206.734138,141.500925 205.779564,140.485548 204.504571,140.096601 C202.16343,139.393596 200.926895,142.729676 203.214372,143.577543 C204.161049,143.906929 205.169009,144.046187 206.174899,143.986565 L207,142.750979 Z" id="Path" fill="#2870F0" fill-rule="nonzero"></path>
                <path d="M210,137.539556 C210,137.539556 209.020301,135.454456 206.479569,135.037436 C203.785976,134.593309 202.970719,138.235979 205.631886,138.817722 C206.825935,139.05126 208.060666,139.060488 209.258857,138.844828 L210,137.539556 Z" id="Path" fill="#2870F0" fill-rule="nonzero"></path>
                <path d="M211,131.645015 C210.146272,130.297438 208.783492,129.356534 207.224905,129.038577 C204.86547,128.593113 204.070341,132.140238 206.387306,132.746828 C207.842413,133.104125 209.364208,133.082922 210.808886,132.685221 L211,131.645015 Z" id="Path" fill="#2870F0" fill-rule="nonzero"></path>
                <path d="M213,125.675992 C212.216116,124.456039 210.996452,123.540574 209.560843,123.094604 C207.104302,122.382577 205.890771,125.898646 208.332573,126.664017 C209.780103,127.117485 211.344957,127.111784 212.788737,126.647782 L213,125.675992 Z" id="Path" fill="#2870F0" fill-rule="nonzero"></path>
                <path d="M213,120.801261 C213,120.801261 212.031237,118.521439 210.057382,117.315904 C207.85829,115.97183 205.76334,119.260315 207.877665,120.740498 C209.180652,121.656802 210.849346,122.288735 212.798982,121.865826 L213,120.801261 Z" id="Path" fill="#2870F0" fill-rule="nonzero"></path>
                <path d="M214,114.663253 C214,114.663253 212.96117,112.361231 210.968314,111.260053 C208.739895,110.044625 206.801217,113.404069 208.900077,114.852859 C210.273405,115.798463 211.988298,116.411038 213.809195,115.672058 L214,114.663253 Z" id="Path" fill="#2870F0" fill-rule="nonzero"></path>
                <path d="M214,109.605638 C213.280773,108.39351 212.399343,107.304493 211.38472,106.374429 C209.941957,105.093782 208.11562,107.399421 209.482103,108.767654 C210.743976,110.02463 212.315324,111.080395 213.938977,110.995176 L214,109.605638 Z" id="Path" fill="#2870F0" fill-rule="nonzero"></path>
                <path d="M212.867252,103.697431 C212.07069,102.133186 211.110993,100.689648 210.01002,99.39969 C208.91854,98.1731657 207.304498,100.042389 208.324336,101.335145 C209.502208,102.806975 211.090964,104.332771 213,105 L212.867252,103.697431 Z" id="Path" fill="#2870F0" fill-rule="nonzero"></path>
                <path d="M211.689107,98.3818397 C210.976466,97.2956741 210.14643,96.2880234 209.213395,95.3763647 C208.020116,94.2311017 206.221053,95.9545993 207.366327,97.1446867 C208.582466,98.4109756 210.155217,99.5965805 212,100 L211.689107,98.3818397 Z" id="Path" fill="#2870F0" fill-rule="nonzero"></path>
                <path d="M210.984945,91.9782563 C210.295551,91.0449508 209.547779,90.1562285 208.746116,89.3174205 C207.847143,88.3903225 206.410506,89.6938524 207.257864,90.6704243 C208.253616,91.8190794 209.531104,92.836521 211,93 L210.984945,91.9782563 Z" id="Path" fill="#2870F0" fill-rule="nonzero"></path>
                <path d="M210,87.3992208 C209.329848,86.012969 208.563569,84.6809989 207.707435,83.4142134 C206.989862,82.3773847 205.495109,83.4868883 206.171416,84.5527869 C207.056346,85.9505676 208.285161,87.3338134 209.899127,88 L210,87.3992208 Z" id="Path" fill="#2870F0" fill-rule="nonzero"></path>
                <path d="M209,79.5380696 C209,79.5380696 208.465695,78.5611176 207.702094,77.4256151 C206.996898,76.3787143 205.508633,77.4605895 206.161912,78.5447963 C206.897392,79.7595742 207.818905,80.7948168 208.891841,81 L209,79.5380696 Z" id="Path" fill="#2870F0" fill-rule="nonzero"></path>
                <path d="M208.875713,74.2330574 L208.267874,70.6136002 C208.10669,69.6561208 206.90849,69.8850833 207.005589,70.8448754 C207.22309,72.7783362 207.78238,74.7233608 209,76 L208.875713,74.2330574 Z" id="Path" fill="#2870F0" fill-rule="nonzero"></path>
                <path d="M209,64.4592465 L209,64.4592465 C208.897704,64.1091489 208.630214,63.9244917 208.377039,64.0291947 C208.123864,64.1338977 207.964829,64.4949482 208.006659,64.8700521 C208.124621,65.9330238 208.303794,66.9799636 208.542317,68 L209,64.4592465 Z" id="Path" fill="#2870F0" fill-rule="nonzero"></path>
                <path d="M206.719343,143.171269 C207.990099,142.78539 209.388346,143.062152 210.374139,143.89468 C212.161325,145.429875 209.744156,148.004973 207.838568,146.588977 C207.070556,145.989902 206.444728,145.251877 206,144.420798 L206.719343,143.171269 Z" id="Path" fill="#2870F0" fill-rule="nonzero"></path>
                <path d="M209.764365,137.094582 C209.764365,137.094582 212.309022,136.503445 214.277987,138.276857 C216.365477,140.157326 213.479758,143.23636 211.281,141.474585 C210.320242,140.665721 209.543657,139.674488 209,138.563116 L209.764365,137.094582 Z" id="Path" fill="#2870F0" fill-rule="nonzero"></path>
                <path d="M211.192336,132.136011 C212.450567,131.172932 214.021568,130.799839 215.542786,131.102831 C217.832497,131.59249 217.262359,135.296757 214.95662,134.980927 C213.518271,134.757758 212.15668,134.146924 211,133.205915 L211.192336,132.136011 Z" id="Path" fill="#2870F0" fill-rule="nonzero"></path>
                <path d="M212.192579,126.273703 C213.361162,125.363404 214.80468,124.916282 216.262893,125.012944 C218.749779,125.237463 218.483496,129.157904 215.994233,128.995066 C214.520609,128.899879 213.117628,128.306244 212,127.305008 L212.192579,126.273703 Z" id="Path" fill="#2870F0" fill-rule="nonzero"></path>
                <path d="M213,120.686359 C213,120.686359 214.294303,118.876728 216.360524,118.136809 C218.652956,117.314442 220.124497,120.428444 217.897363,121.386111 C216.498116,121.984388 214.812024,122.286698 213.020989,121.629227 L213,120.686359 Z" id="Path" fill="#2870F0" fill-rule="nonzero"></path>
                <path d="M213,114.625699 C213,114.625699 214.289554,112.815186 216.35146,112.123899 C218.65013,111.352374 220.118979,114.397328 217.909958,115.374593 C216.464095,116.012388 214.728599,116.329227 213.059765,115.502152 L213,114.625699 Z" id="Path" fill="#2870F0" fill-rule="nonzero"></path>
                <path d="M213,108.826053 C213.511748,107.644309 214.225216,106.534788 215.116907,105.534032 C216.391862,104.144758 218.872011,105.741077 217.688467,107.190395 C216.601147,108.521696 215.148179,109.741193 213.358431,110 L213,108.826053 Z" id="Path" fill="#2870F0" fill-rule="nonzero"></path>
                <path d="M213,104.722367 C213.395145,102.967609 213.981187,101.275477 214.744618,99.6849819 C215.515946,98.1684023 217.550617,99.4240912 216.858786,100.989435 C216.068122,102.781535 214.882125,104.744311 213.176181,106 L213,104.722367 Z" id="Path" fill="#2870F0" fill-rule="nonzero"></path>
                <path d="M211,97.2857279 C211.463635,95.9849354 212.058362,94.7445558 212.773198,93.5874964 C213.657651,92.1804331 215.617615,93.5593552 214.808298,95.0133206 C213.928139,96.5986119 212.687329,98.1932837 211.023614,99 L211,97.2857279 Z" id="Path" fill="#2870F0" fill-rule="nonzero"></path>
                <path d="M210,92.0558322 C210.248553,90.9107404 210.570864,89.7820193 210.965022,88.6763627 C211.41076,87.4456888 213.329661,88.040406 212.950784,89.2927849 C212.505046,90.7643843 211.740606,92.2338133 210.427908,93 L210,92.0558322 Z" id="Path" fill="#2870F0" fill-rule="nonzero"></path>
                <path d="M210,86.5022021 C210.33312,85.1508967 210.765873,83.8262829 211.294685,82.5392979 C211.74351,81.4831007 213.340288,82.1259093 212.93462,83.1994213 C212.408115,84.6062414 211.562254,86.073663 210.220097,87 L210,86.5022021 Z" id="Path" fill="#2870F0" fill-rule="nonzero"></path>
                <path d="M209,79.8132438 C209,79.8132438 209.169314,78.8287521 209.477321,77.6378681 C209.761912,76.5398606 211.210086,76.9712207 210.974127,78.0836757 C210.711151,79.3220299 210.253643,80.4881469 209.46111,81 L209,79.8132438 Z" id="Path" fill="#2870F0" fill-rule="nonzero"></path>
                <path d="M208.389573,74.1778894 L209.586906,70.5336682 C209.903847,69.5618758 211.224434,70.0331951 210.966919,71.0195643 C210.449689,72.9874438 209.55169,74.9067336 208,76 L208.389573,74.1778894 Z" id="Path" fill="#2870F0" fill-rule="nonzero"></path>
                <path d="M210.730565,65.5143474 C210.730565,65.5143474 210.893464,65.3690126 211.142604,65.140324 C211.650467,64.6701232 212.313562,65.4908374 211.834447,65.9952346 C211.000356,66.8407631 210.041404,67.5190168 209,68 L210.730565,65.5143474 Z" id="Path" fill="#2870F0" fill-rule="nonzero"></path>
                <path d="M210.273096,64 C211.07303,62.5087164 211.964256,61.0597236 212.942546,59.6598962 C213.058601,59.460206 212.994082,59.2128806 212.791897,59.0824016 C212.589712,58.9519225 212.312835,58.9789302 212.145402,59.1454636 C211.358098,60.1294002 210.585557,61.5693621 210,63.6854997 L210.273096,64 Z" id="Path" fill="#2870F0" fill-rule="nonzero"></path>
                <path d="M209.55136,81 L209.791078,80.9736714 C208.757812,70.7471965 209.19385,64.441492 211,63.2194052 L210.869808,63 C208.956199,64.3010726 208.501562,70.5234032 209.55136,81 Z" id="Path" fill="#444053" fill-rule="nonzero"></path>
                <path d="M212.641079,106 L213,105.942792 C212.865145,104.994455 212.709544,104.030716 212.53527,103.08238 C211.024896,94.7585812 209.850622,87.0640732 209.263485,81.2200317 L209,81 C209.589212,86.8550431 210.659751,94.8157895 212.180498,103.15059 C212.350622,104.092325 212.506224,105.053864 212.641079,106 Z" id="Path" fill="#444053" fill-rule="nonzero"></path>
                <path d="M194.323207,158 C194.382806,157.953489 200.489359,153.439741 205.850932,144.782115 C208.993389,139.715676 211.283572,134.199384 212.635992,128.439156 C214.329964,121.238863 214.378102,112.853656 213.156332,105 L212.798741,105.276849 C215.549441,122.902173 210.302481,136.58738 205.406235,144.498621 C200.097385,153.076515 194.061891,157.543753 194,157.588048 L194.323207,158 Z" id="Path" fill="#444053" fill-rule="nonzero"></path>
                <ellipse id="Oval" fill="#2870F0" fill-rule="nonzero" cx="43.5" cy="155" rx="14.5" ry="3"></ellipse>
                <ellipse id="Oval" fill="#3F3D56" fill-rule="nonzero" cx="42.5" cy="153.5" rx="1.5" ry="2.5"></ellipse>
                <ellipse id="Oval" fill="#3F3D56" fill-rule="nonzero" cx="42.5" cy="151.5" rx="1.5" ry="2.5"></ellipse>
                <ellipse id="Oval" fill="#3F3D56" fill-rule="nonzero" cx="42.5" cy="148.5" rx="1.5" ry="2.5"></ellipse>
                <ellipse id="Oval" fill="#3F3D56" fill-rule="nonzero" cx="42.5" cy="145.5" rx="1.5" ry="2.5"></ellipse>
                <ellipse id="Oval" fill="#3F3D56" fill-rule="nonzero" cx="42.5" cy="142.5" rx="1.5" ry="2.5"></ellipse>
                <ellipse id="Oval" fill="#3F3D56" fill-rule="nonzero" cx="42.5" cy="140.5" rx="1.5" ry="2.5"></ellipse>
                <ellipse id="Oval" fill="#3F3D56" fill-rule="nonzero" cx="42.5" cy="137.5" rx="1.5" ry="2.5"></ellipse>
                <path d="M49.2839366,118.388795 C49.5125792,118.088712 49.7204997,117.77233 49.906153,117.441999 L45.522649,116.69793 L50.2592447,116.733574 C51.1789683,114.665135 51.2342636,112.295942 50.4121076,110.183977 L44.0521513,113.596896 L49.916918,109.141389 C48.4221992,106.456825 45.602615,104.861996 42.6117608,105.009404 C39.6209067,105.156812 36.9605882,107.021725 35.7192396,109.841139 C34.4778909,112.660553 34.8637855,115.961426 36.7190398,118.39325 C36.3644571,118.861009 36.059154,119.366605 35.8083216,119.90144 L41.4986955,122.960146 L35.4358529,120.85269 C34.5713245,123.500234 35.0572179,126.420458 36.7276518,128.616412 C34.1493982,132.006243 34.5225105,136.877286 37.5846413,139.804551 C40.6467722,142.731816 45.3691222,142.731816 48.431253,139.804551 C51.4933838,136.877286 51.8664962,132.006243 49.2882426,128.616412 C51.5701473,125.617687 51.5701473,121.391976 49.2882426,118.39325 L49.2839366,118.388795 Z" id="Path" fill="#2870F0" fill-rule="nonzero"></path>
                <path d="M35.0022792,123.124575 C35.000454,125.016742 35.6033098,126.854308 36.7134595,128.340426 C34.1326422,131.80016 34.5061255,136.771649 37.5713013,139.759278 C40.636477,142.746907 45.363523,142.746907 48.4286987,139.759278 C51.4938745,136.771649 51.8673578,131.80016 49.2865405,128.340426 C50.3597997,126.905726 35.0022792,122.176445 35.0022792,123.124575 Z" id="Path" fill="#000000" fill-rule="nonzero" opacity="0.1"></path>
                <path d="M51,58 L51,156.559316 C51,157.471842 51.3617234,158.346993 52.0055952,158.992247 C52.649467,159.6375 53.5227446,160 54.4333168,160 L195.566683,160 C197.462852,160 199,158.459553 199,156.559316 L199,58 L51,58 Z" id="Path" fill="#FFFFFF" fill-rule="nonzero"></path>
                <rect id="Rectangle" fill="#000000" fill-rule="nonzero" opacity="0.1" x="63" y="67" width="36" height="21" rx="8.65"></rect>
                <rect id="Rectangle" fill="#000000" fill-rule="nonzero" opacity="0.1" x="107" y="67" width="36" height="21" rx="8.65"></rect>
                <rect id="Rectangle" fill="#2870F0" fill-rule="nonzero" x="64" y="67" width="34" height="20" rx="8.65"></rect>
                <rect id="Rectangle" fill="#444053" fill-rule="nonzero" opacity="0.1" transform="translate(170.000000, 77.000000) rotate(-180.000000) translate(-170.000000, -77.000000) " x="153" y="67" width="34" height="20" rx="8.65"></rect>
                <rect id="Rectangle" fill="#2870F0" fill-rule="nonzero" transform="translate(125.000000, 77.000000) rotate(-180.000000) translate(-125.000000, -77.000000) " x="108" y="67" width="34" height="20" rx="8.65"></rect>
                <rect id="Rectangle" fill="#444053" fill-rule="nonzero" opacity="0.1" x="64" y="96" width="34" height="20" rx="8.65"></rect>
                <rect id="Rectangle" fill="#444053" fill-rule="nonzero" opacity="0.1" transform="translate(170.000000, 106.000000) rotate(-180.000000) translate(-170.000000, -106.000000) " x="153" y="96" width="34" height="20" rx="8.65"></rect>
                <rect id="Rectangle" fill="#444053" fill-rule="nonzero" opacity="0.1" transform="translate(125.000000, 106.000000) rotate(-180.000000) translate(-125.000000, -106.000000) " x="108" y="96" width="34" height="20" rx="8.65"></rect>
                <rect id="Rectangle" fill="#444053" fill-rule="nonzero" opacity="0.1" x="64" y="125" width="34" height="20" rx="8.65"></rect>
                <rect id="Rectangle" fill="#444053" fill-rule="nonzero" opacity="0.1" transform="translate(170.000000, 135.000000) rotate(-180.000000) translate(-170.000000, -135.000000) " x="153" y="125" width="34" height="20" rx="8.65"></rect>
                <rect id="Rectangle" fill="#444053" fill-rule="nonzero" opacity="0.1" transform="translate(125.000000, 135.000000) rotate(-180.000000) translate(-125.000000, -135.000000) " x="108" y="125" width="34" height="20" rx="8.65"></rect>
                <path d="M51,40.5478679 L51,59 L199,59 L199,40.5478679 C199,39.6071263 198.639127,38.7047063 197.995192,38.0392858 C197.351256,37.3738653 196.477641,37 195.566683,37 L54.4333175,37 C53.5223594,37 52.6487442,37.3738653 52.0048084,38.0392858 C51.3608725,38.7047063 51,39.6071263 51,40.5478679 Z M87.6264991,46.0064799 C86.1127615,46.0064799 84.8856347,44.7392324 84.8856347,43.1760033 C84.8856347,41.6127743 86.1127615,40.3455268 87.6264991,40.3455268 C89.1402368,40.3455268 90.3673635,41.6127743 90.3673635,43.1760033 C90.3673635,44.7392324 89.1402368,46.0064799 87.6264991,46.0064799 L87.6264991,46.0064799 Z M162.373501,46.0064837 C160.859763,46.0064837 159.632636,44.7392324 159.632636,43.1760033 C159.632636,41.6127743 160.859763,40.3455268 162.373501,40.3455268 C163.887238,40.3455268 165.114365,41.6127743 165.114365,43.1760033 C165.114365,43.9274899 164.824986,44.6481304 164.310011,45.1790802 C163.795036,45.7100299 163.096741,46.0077009 162.369048,46.0064837 L162.373501,46.0064837 Z" id="Shape" fill="#2870F0" fill-rule="nonzero"></path>
                <path d="M88.5024552,40.0000008 C87.08664,39.9990286 85.809694,40.8511464 85.2672106,42.1589101 C84.7247272,43.4666739 85.0235738,44.9724584 86.0243624,45.9739354 C87.025151,46.9754124 88.5307294,47.2752943 89.8388656,46.7337101 C91.1470018,46.1921258 92,44.9157657 92,43.49995 C92.0006358,42.5719272 91.6324276,41.6816954 90.976442,41.0252586 C90.3204564,40.3688217 89.4304781,40.0000008 88.5024552,40.0000008 L88.5024552,40.0000008 Z M88.5024552,46.4610746 C86.8670715,46.4610746 85.5413311,45.1353339 85.5413311,43.49995 C85.5413311,41.864566 86.8670715,40.5388253 88.5024552,40.5388253 C90.137839,40.5388253 91.4635794,41.864566 91.4635794,43.49995 C91.4635794,45.1353339 90.137839,46.4610746 88.5024552,46.4610746 L88.5024552,46.4610746 Z" id="Shape" fill="#000000" fill-rule="nonzero" opacity="0.1"></path>
                <path d="M162.5,40 C160.567003,40 159,41.5670034 159,43.5 C159,45.4329966 160.567003,47 162.5,47 C164.432997,47 166,45.4329966 166,43.5 C166,41.5670034 164.432997,40 162.5,40 Z M162.5,46.4611684 C160.864592,46.4611684 159.538832,45.1354081 159.538832,43.5 C159.538832,41.8645919 160.864592,40.5388316 162.5,40.5388316 C164.135408,40.5388316 165.461168,41.8645919 165.461168,43.5 C165.461168,45.1354081 164.135408,46.4611684 162.5,46.4611684 Z" id="Shape" fill="#000000" fill-rule="nonzero" opacity="0.1"></path>
                <circle id="Oval" fill="#2870F0" fill-rule="nonzero" opacity="0.1" cx="229.5" cy="93.5" r="3.5"></circle>
                <circle id="Oval" fill="#2870F0" fill-rule="nonzero" opacity="0.1" cx="241.5" cy="78.5" r="5.5"></circle>
                <circle id="Oval" fill="#2870F0" fill-rule="nonzero" opacity="0.1" cx="234.5" cy="105.5" r="5.5"></circle>
                <circle id="Oval" fill="#2870F0" fill-rule="nonzero" opacity="0.1" cx="8" cy="77" r="8"></circle>
                <path d="M205.963336,164.670213 C205.45533,164.288404 204.898503,163.976042 204.307629,163.741415 C204.26269,163.718222 204.213148,163.705289 204.162587,163.70355 C202.939925,162.827596 201.797436,161.845211 200.748528,160.767922 C200.971669,160.589735 201.176959,160.416003 201.395637,160.244498 C200.05679,159.60748 199.31373,158.148576 198.590753,156.832221 C196.679205,153.33281 194.160254,150.200054 191.151228,147.579871 C191.077591,147.296999 190.646929,147.357137 190.417094,147.174496 C190.26454,147.028116 190.20236,146.81131 190.254201,146.606525 C190.289903,146.40161 190.383622,146.212287 190.434945,146.011827 C190.557673,145.541859 190.450565,145.04739 190.397011,144.564059 C190.343457,144.080727 190.365771,143.541712 190.687094,143.180884 C190.789739,143.062835 190.921393,142.971514 191.021806,142.851238 C191.235188,142.564681 191.316328,142.201027 191.244947,141.851164 C191.22069,141.504267 191.145507,141.162809 191.021806,140.837727 C192.115198,137.867947 193.207845,134.892969 194.299749,131.912795 C195.065123,129.832464 195.837192,127.707586 195.915291,125.48916 C195.977771,123.707292 195.5181,121.856377 194.438097,120.495475 C194.634461,120.448701 194.830825,120.399699 195.024958,120.344016 C193.748591,118.655696 193.610243,116.419451 193.576772,114.292346 C193.558921,113.232135 193.522474,112.171181 193.467433,111.109484 C193.837847,111.27208 194.212724,111.416857 194.596527,111.541587 L194.953553,111.650727 C195.53328,111.820121 196.124715,111.946678 196.723062,112.029374 C196.986369,112.067238 197.254138,112.096194 197.519676,112.114013 L197.519676,112.114013 C197.135873,111.154774 196.752814,110.19405 196.370499,109.231841 C196.17165,108.806042 196.050736,108.348162 196.013473,107.879848 L196.013473,107.879848 L196.013473,107.790755 C196.013473,107.737299 196.013473,107.683843 196.02463,107.630387 C196.039871,107.50286 196.069053,107.377381 196.111655,107.256195 C196.131416,107.196303 196.15451,107.137558 196.180829,107.080235 C196.260326,106.904739 196.355942,106.736972 196.46645,106.579085 C196.54678,106.456581 196.636037,106.338532 196.725293,106.218256 C197.057854,105.830914 197.328103,105.394346 197.52637,104.924175 C197.604809,104.686136 197.6462,104.437495 197.649098,104.186927 C197.653412,103.932852 197.630975,103.679028 197.582155,103.429633 C197.550916,103.26481 197.51075,103.09776 197.466122,102.937392 L197.466122,102.937392 C197.437114,102.837162 197.405874,102.736931 197.374634,102.638929 L197.347857,102.558745 C197.323312,102.483015 197.298766,102.409513 197.271989,102.336011 L197.245212,102.260282 C197.216204,102.180098 197.187196,102.102141 197.155956,102.021957 L197.138104,101.975183 C196.711905,100.881561 196.145126,99.8391684 195.799258,98.7143641 C195.708328,98.4149825 195.633837,98.1108702 195.576117,97.803384 C195.560497,97.7254273 195.54934,97.6452432 195.535951,97.5672865 C195.522563,97.4893298 195.515868,97.4336464 195.506943,97.3668263 C195.498017,97.3000063 195.48686,97.2109129 195.477934,97.1329561 L195.457852,96.9102226 C195.457852,96.8389479 195.446695,96.7676732 195.442232,96.6874891 C195.442232,96.5516217 195.428843,96.4157542 195.426612,96.2798868 C195.426612,96.2308854 195.426612,96.1841114 195.426612,96.13511 C195.426612,96.0326526 195.426612,95.9279678 195.426612,95.8255104 C195.426612,95.769827 195.426612,95.7141436 195.426612,95.6606876 C195.426612,95.5582302 195.442232,95.4557728 195.451158,95.3555427 C195.451158,95.3065413 195.451158,95.2575399 195.466777,95.2107659 C195.481653,95.0622769 195.501736,94.9137879 195.527026,94.7652989 L195.527026,94.7652989 C195.54934,94.6338861 195.573885,94.500246 195.600662,94.3666059 C195.681486,94.0008111 195.723372,93.6275173 195.725621,93.2529383 C195.725621,93.1816635 195.725621,93.1081615 195.710001,93.0302048 C195.694381,92.952248 195.69215,92.9099287 195.680993,92.8520179 C195.679921,92.8342153 195.679921,92.8163645 195.680993,92.7985619 C195.680993,92.7584699 195.66091,92.7183778 195.651985,92.6782858 C195.643059,92.6381938 195.640827,92.6404211 195.634133,92.6226024 C195.627439,92.6047837 195.609588,92.5446457 195.596199,92.506781 C195.582811,92.4689163 195.585042,92.473371 195.578348,92.4555523 C195.571654,92.4377336 195.547108,92.3753682 195.529257,92.3375035 L195.513637,92.2974115 C195.491323,92.2484101 195.466777,92.2016361 195.442232,92.154862 L195.442232,92.154862 C195.355755,91.9923363 195.255733,91.8373611 195.143223,91.6915763 L195.143223,91.6915763 C194.409088,90.7293675 193.188506,89.9965742 192.516852,88.9363627 C192.124698,88.2492424 191.86935,87.4929155 191.764866,86.7090275 C191.731395,86.5308407 191.702387,86.3526539 191.671147,86.1766944 C191.639907,86.0007349 191.61313,85.8270028 191.58189,85.6532707 C191.561808,85.5463586 191.541725,85.4305371 191.519411,85.3325344 L191.506022,85.263487 C191.488171,85.1788483 191.47032,85.0919822 191.450237,85.0073434 L191.436849,84.9472054 C191.416766,84.858112 191.396683,84.7690186 191.374369,84.6799252 L191.360981,84.6331511 C191.338666,84.5396031 191.314121,84.446055 191.289575,84.3525069 C191.288565,84.3413931 191.288565,84.3302107 191.289575,84.3190969 C191.262799,84.2210941 191.23379,84.1230914 191.204782,84.0250886 L191.204782,84.0050426 C191.173542,83.9025852 191.142302,83.8023551 191.108831,83.702125 L191.108831,83.702125 C191.07536,83.5996676 191.039657,83.4949829 191.001723,83.3925254 L191.001723,83.3925254 C190.961558,83.2878407 190.923624,83.1831559 190.881227,83.0806985 L190.881227,83.0806985 C190.600573,82.3631078 190.220509,81.6883391 189.752133,81.0760969 C188.730147,79.7664238 187.150307,78.8264883 185.512452,78.8888537 C184.633276,78.9222638 183.789802,79.229636 182.961948,79.5347809 L180.813099,80.3254849 L181.413349,80.0492953 C180.788554,80.1049787 180.15037,80.1628894 179.585823,80.439079 C179.021276,80.7152686 178.543754,81.256511 178.525903,81.8890742 C178.514746,82.2565845 178.659787,82.6218675 178.612928,82.9871504 C178.534828,83.5907583 177.979207,84.0005879 177.691355,84.5351484 C177.522657,84.8572315 177.445489,85.2192589 177.468214,85.5819959 L177.468214,85.5998146 C177.468214,85.642134 177.468214,85.682226 177.468214,85.7245454 C177.46713,85.7363999 177.46713,85.7483283 177.468214,85.7601827 L177.468214,85.8314575 C176.575649,85.4439011 175.683085,85.0407535 174.79052,84.6086505 C173.315557,83.8847665 171.822743,83.0339245 170.903402,81.661886 C170.608855,81.216419 170.381252,80.7353146 170.088937,80.2943022 C169.753555,79.8196796 169.380449,79.3727699 168.973231,78.9579011 L166.235289,76 C166.025537,76.3942383 166.295537,76.8597514 166.507521,77.2517624 C166.732644,77.662935 166.902931,78.1017281 167.014052,78.5569808 C167.068052,78.7053228 167.063263,78.8686489 167.000663,79.0135845 C166.901013,79.1330708 166.771773,79.2244484 166.625786,79.2786374 C166.111536,79.6017241 165.879747,80.2299785 166.061239,80.8088166 C166.258898,81.3727502 166.739737,81.7909165 167.326449,81.9091202 C167.519733,81.9310948 167.709434,81.9774981 167.890996,82.047215 C168.221245,82.2098105 168.377444,82.5884574 168.613974,82.871329 C169.044636,83.3880708 169.729679,83.5818489 170.383483,83.7511264 C171.396544,84.91825 172.44977,86.0363723 173.462831,87.2034959 C174.99581,88.9697727 176.564492,90.7672322 178.563837,91.9610839 C178.771358,92.0858146 178.983342,92.2016361 179.197558,92.3085482 C179.197558,92.3441855 179.197558,92.3798229 179.186401,92.4154602 C179.130435,92.6787273 179.164207,92.953112 179.282351,93.1950276 C179.460864,93.4778991 179.829047,93.5625379 180.157064,93.6204486 L181.669961,93.8899561 C181.656555,94.0857163 181.631969,94.2805536 181.596325,94.4735179 C181.576242,94.5915667 181.551696,94.7073881 181.529382,94.8254369 L181.529382,94.8254369 L181.502605,94.9768957 C181.502605,94.9768957 181.502605,94.992487 181.502605,94.999169 C181.502605,95.0058511 181.502605,95.0793531 181.486986,95.1216725 C181.471366,95.1639918 181.486986,95.1506278 181.486986,95.1639918 L181.486986,95.2709039 L181.486986,95.3154506 C181.486986,95.3622247 181.486986,95.4112261 181.486986,95.4602274 C181.538308,96.0526986 181.933268,96.5427123 182.328228,96.9948614 L182.540212,97.2510049 C182.203817,97.6737658 181.968047,98.167292 181.850706,98.6943181 C181.783426,99.0248949 181.750524,99.3615228 181.752524,99.6988463 C181.550195,99.891505 181.397148,100.129823 181.306241,100.393775 C181.200474,100.758764 181.161174,101.139735 181.190208,101.518579 L181.190208,101.545307 C181.190208,101.685629 181.190208,101.823724 181.190208,101.964046 C181.164301,102.496225 181.25255,103.027791 181.449052,103.523181 C181.469134,103.563273 181.491448,103.59891 181.511531,103.636775 C181.176819,104.291611 180.618967,104.801671 180.219544,105.418643 C179.391903,106.821944 179.533766,108.592431 180.574338,109.846585 C180.880042,110.198504 181.27277,110.537059 181.308473,111.0048 C181.303144,111.216894 181.282262,111.428314 181.245993,111.637363 C181.210291,112.140741 181.442357,112.61739 181.567316,113.105177 C181.672193,113.510552 181.676656,113.996111 181.444589,114.321302 C181.209839,114.663031 181.101739,115.075739 181.138885,115.488425 C181.252687,116.118761 180.991612,116.749097 180.946984,117.388342 C180.926901,117.662304 180.946984,117.940721 180.922439,118.214684 C180.890287,118.477202 180.835793,118.736511 180.759545,118.989796 C180.759545,119.016524 180.746157,119.04548 180.737231,119.074435 C180.186073,119.317214 179.639377,119.568903 179.112764,119.860684 C178.828369,119.987152 178.593259,120.203058 178.443341,120.475429 C178.354323,120.749027 178.341977,121.041717 178.407638,121.321816 L178.882929,124.622727 L178.800366,124.58709 C178.837557,125.12759 178.876234,125.670317 178.9164,126.215272 C178.945408,126.627329 178.983342,127.063886 179.228797,127.393532 C179.353678,127.526551 179.466438,127.670412 179.56574,127.823408 C179.753179,128.202055 179.530038,128.643067 179.364913,129.030623 C179.199789,129.41818 179.141772,129.968331 179.505492,130.177701 C179.695166,130.309416 179.899611,130.418553 180.114668,130.502892 C179.668385,132.360489 180.078965,134.30718 180.494008,136.17146 C180.810868,137.596954 181.128472,139.020964 181.44682,140.443489 C181.571316,141.047814 181.641512,141.662026 181.656573,142.278813 C181.656573,142.367906 181.656573,142.457 181.656573,142.546093 C181.701342,143.394319 181.851245,144.233739 182.102855,145.045163 C182.598228,146.71121 182.122938,148.711357 182.279137,150.526635 C182.382971,151.399806 182.557593,152.263131 182.801287,153.108116 C183.879058,157.375691 184.840797,161.558626 185.211211,165.946476 C185.607497,166.450157 186.145043,166.824666 186.755348,167.022279 C186.710719,167.561294 186.770968,168.178266 186.755348,168.49232 C186.754727,168.752374 186.714088,169.010789 186.634851,169.258524 C186.445181,169.752992 185.965428,170.075956 185.467823,170.249688 C185.311625,170.303144 185.153194,170.345463 184.992533,170.383328 L185.171046,170.231869 C184.150866,170.010595 183.084435,170.19774 182.201037,170.753066 C181.920775,170.895616 181.709409,171.1443 181.614176,171.44354 C181.577466,171.726486 181.650949,172.012704 181.819466,172.243153 C182.310723,172.960945 183.042738,173.479924 183.883521,173.706512 C184.714376,173.924892 185.56832,174.043777 186.42733,174.060658 L188.002707,174.151979 C187.892045,174.337733 187.935888,174.57653 188.105352,174.71104 C188.274205,174.834129 188.474648,174.906744 188.683287,174.92041 C189.327012,175.015744 189.980558,175.025481 190.626846,174.949365 C190.788925,174.944738 190.945285,174.888551 191.073129,174.788997 C191.133209,174.734538 191.167468,174.657294 191.167468,174.576287 C191.167468,174.495279 191.133209,174.418035 191.073129,174.363576 C191.266573,174.35741 191.436532,174.233708 191.50156,174.051749 C191.563322,173.870703 191.583159,173.678034 191.559576,173.488233 C191.517179,172.75544 191.452468,171.690774 191.070897,171.038165 C190.935285,170.794097 190.653296,170.670213 190.381391,170.735247 C190.134549,169.431037 189.985376,168.110286 189.935109,166.783954 C190.32826,166.63675 190.711386,166.464137 191.082054,166.267213 C189.986431,164.500936 189.966349,162.258009 190.30106,160.204406 C190.433844,159.556046 190.531424,158.900997 190.593375,158.242124 C190.667012,156.927996 190.468416,155.440136 189.738745,154.353197 C191.068878,155.19753 192.245904,156.260943 193.219746,157.498194 C194.761651,159.502796 195.701076,161.930591 197.591081,163.601092 C197.839511,163.359055 198.090917,163.118503 198.345298,162.879436 C198.743977,163.553576 199.121085,164.241823 199.476624,164.944176 C199.755555,165.460734 199.975607,166.00687 200.132658,166.572358 C200.306708,167.437418 200.327101,168.326279 200.192907,169.198386 C200.14084,169.661671 200.077617,170.12273 200.003237,170.581561 C199.97324,170.777878 199.927725,170.971519 199.86712,171.160668 C199.866271,171.10031 199.851779,171.040922 199.824724,170.986936 C199.706459,170.779794 199.378441,170.873342 199.199929,171.015891 C198.881996,171.254026 198.619387,171.557944 198.430092,171.906825 C198.32595,172.077191 198.277591,172.27572 198.291744,172.474796 C198.350239,172.71737 198.513776,172.921417 198.738026,173.03163 C199.56588,173.514961 200.605718,173.16527 201.493819,172.808896 C201.739163,172.720779 201.972928,172.603362 202.19002,172.459204 C202.636302,172.138468 202.879526,171.61059 203.323577,171.298763 C203.560618,171.168942 203.789401,171.024633 204.00862,170.86666 C204.421431,170.49024 204.454902,169.85545 204.756143,169.3788 C205.255979,168.556913 206.373916,168.345316 206.811272,167.474428 C207.317803,166.51222 206.726479,165.298322 205.963336,164.670213 Z" id="Path" fill="url(#linearGradient-1)" fill-rule="nonzero"></path>
                <path d="M186.452034,168.557907 C186.450736,168.82407 186.411422,169.088396 186.3355,169.341429 C186.15752,169.846109 185.699859,170.175649 185.229484,170.353093 C184.759109,170.530538 184.259072,170.583541 183.780222,170.737941 C183.569896,170.790028 183.375214,170.899468 183.214501,171.055958 C182.79074,171.516853 183.044997,172.346464 183.540797,172.689831 C184.036597,173.033197 184.668001,173.021675 185.257029,172.97789 C186.506885,172.898752 187.748537,172.706821 188.969174,172.404076 C189.409885,172.291156 189.924754,172.069927 189.994675,171.583683 C190.007906,171.429074 189.996436,171.273142 189.960774,171.122788 C189.660086,169.473163 189.500494,167.796799 189.484043,166.115164 C189.484043,166.004549 187.02623,165.933111 186.797399,166.094424 C186.284649,166.460835 186.479579,167.991007 186.452034,168.557907 Z" id="Path" fill="#A1616A" fill-rule="nonzero"></path>
                <path d="M198.480456,163.195366 C198.895986,163.879133 199.286266,164.576518 199.651297,165.287521 C199.921678,165.778738 200.135134,166.298827 200.287577,166.837824 C200.455311,167.661445 200.475093,168.508052 200.346011,169.338519 C200.295512,169.778596 200.233471,170.217956 200.159888,170.656599 C200.088469,171.086641 199.973766,171.574739 199.603684,171.822014 C199.937815,172.018836 200.343778,172.054424 200.707435,171.918773 C201.064546,171.781422 201.393744,171.581103 201.679168,171.327465 C203.533902,169.807266 204.925493,167.598999 204.994748,165.210114 C205.014309,165.023523 204.978975,164.835301 204.89303,164.66826 C204.80558,164.551362 204.695135,164.453336 204.568397,164.380132 C203.184417,163.443586 201.898879,162.370953 200.731241,161.178468 C200.66262,161.086755 200.562509,161.023251 200.449893,161 C200.36127,161.000514 200.274469,161.025048 200.198844,161.070957 C199.486817,161.425742 198.296498,161.931041 198,162.737371 C198.20267,162.838833 198.370037,162.998377 198.480456,163.195366 L198.480456,163.195366 Z" id="Path" fill="#A1616A" fill-rule="nonzero"></path>
                <path d="M188.775334,171.001393 C187.16025,171.701339 185.410576,171.95332 183.663145,172.193635 C183.438828,172.221633 183.198809,172.240298 183.050759,172.076977 C182.93045,171.921021 182.91442,171.704279 183.010382,171.531019 C183.105611,171.362701 183.233126,171.216569 183.384992,171.101718 L184.544712,170.091462 C183.533531,169.868315 182.478579,170.057039 181.597184,170.618755 C181.320188,170.762311 181.108948,171.013892 181.009473,171.318702 C180.972115,171.612199 181.046138,171.909289 181.215845,172.146972 C181.712177,172.890981 182.446929,173.426932 183.288535,173.658856 C184.123582,173.883979 184.981046,174.006914 185.843508,174.025162 L187.413729,174.118488 C187.301749,174.311083 187.347192,174.560486 187.519158,174.69711 C187.689637,174.82661 187.891793,174.903438 188.102382,174.91876 C188.748934,175.016721 189.405039,175.026134 190.053942,174.946758 C190.216854,174.94391 190.374404,174.885737 190.502576,174.781104 C190.562653,174.725328 190.597003,174.645546 190.597003,174.561787 C190.597003,174.478029 190.562653,174.398247 190.502576,174.342471 C190.69647,174.336379 190.867161,174.207849 190.933265,174.018162 C190.993207,173.831252 191.013113,173.632965 190.991588,173.437207 C190.948968,172.681264 190.883916,171.570682 190.500333,170.910399 C190.116751,170.250117 189.318182,170.768077 188.775334,171.001393 Z" id="Path" fill="#3F3D56" fill-rule="nonzero"></path>
                <path d="M205.919893,164.910069 C205.392344,164.551417 204.81532,164.258387 204.203864,164.038616 C204.154412,164.003791 204.090277,163.991673 204.029836,164.005733 C203.969395,164.019793 203.91932,164.05848 203.893961,164.110707 C202.801774,165.469552 201.948812,166.977044 201.366171,168.578226 C201.035454,169.489964 200.774118,170.461072 200.103433,171.198944 C200.01555,171.296478 199.872162,171.396133 199.751901,171.338885 C199.578448,171.258313 199.684832,171.001754 199.587699,170.84697 C199.467438,170.6519 199.139033,170.740954 198.942453,170.874534 C198.611922,171.099636 198.340164,171.389346 198.146882,171.722663 C198.036145,171.88062 197.985713,172.067802 198.003494,172.254864 C198.061936,172.481476 198.227161,172.672575 198.454472,172.776463 C199.312486,173.232332 200.390208,172.903682 201.308353,172.564431 C201.561949,172.482448 201.803528,172.372063 202.027606,172.235781 C202.490147,171.936816 202.742232,171.43854 203.202461,171.148056 C203.448066,171.025919 203.685186,170.889959 203.912463,170.740954 C204.338001,170.38686 204.375004,169.79105 204.684907,169.341542 C205.202954,168.571865 206.36162,168.372554 206.814911,167.55411 C207.321394,166.640251 206.710839,165.499518 205.919893,164.910069 Z" id="Path" fill="#3F3D56" fill-rule="nonzero"></path>
                <path d="M193.314458,120.135485 C195.023322,121.445848 195.740785,123.77563 195.66469,125.956607 C195.588596,128.137584 194.838522,130.229723 194.09497,132.275223 C193.029647,135.202441 191.965774,138.128919 190.90335,141.054656 C191.021803,141.375596 191.095005,141.712103 191.120763,142.054086 C191.188894,142.398009 191.109768,142.755277 190.90335,143.035748 C190.80334,143.153458 190.685937,143.244517 190.577231,143.360007 C190.264157,143.71536 190.244589,144.248389 190.294594,144.721452 C190.344599,145.194515 190.451132,145.683125 190.331555,146.145084 C190.28155,146.342749 190.190236,146.529309 190.15545,146.729195 C190.106051,146.931335 190.166643,147.145008 190.314161,147.288876 C190.531574,147.466552 190.9664,147.408807 191.02945,147.688647 C193.95279,150.260814 196.404347,153.344259 198.269295,156.794561 C198.973713,158.089378 199.684653,159.524114 201,160.150423 C199.718366,161.18755 198.48981,162.291343 197.319202,163.457425 C195.482063,161.813918 194.566756,159.42195 193.066607,157.460847 C192.117018,156.241213 190.971652,155.195091 189.679316,154.367058 C190.390256,155.435337 190.583753,156.901167 190.512007,158.191541 C190.451798,158.839728 190.356718,159.484038 190.227196,160.121551 C189.890207,162.14262 189.920644,164.341365 190.988141,166.087035 C189.848898,166.691135 188.540073,167.139767 187.268208,166.95987 C186.470149,166.843936 185.745448,166.421355 185.241921,165.778322 C184.881016,161.460787 183.937444,157.338695 182.896037,153.147754 C182.657295,152.311669 182.48784,151.456547 182.389465,150.591435 C182.237276,148.814671 182.700366,146.838022 182.215535,145.198957 C181.97127,144.401796 181.825203,143.576646 181.78071,142.742582 C181.78071,142.653743 181.78071,142.567126 181.78071,142.478288 C181.765904,141.872088 181.697503,141.268495 181.576342,140.674873 L180.650163,136.472827 C180.245775,134.636097 179.841387,132.721635 180.278387,130.893789 C180.069956,130.81153 179.871521,130.704958 179.687024,130.576192 C179.332642,130.369644 179.389169,129.829952 179.550054,129.447947 C179.71094,129.065943 179.926178,128.632857 179.745726,128.259737 C179.649465,128.108201 179.539556,127.966184 179.417433,127.835534 C179.178278,127.511275 179.141318,127.082631 179.113055,126.678417 L179,125.074888 C179.656304,125.340698 180.202956,125.82932 180.547979,126.458543 C179.691373,125.10376 180.113153,123.17153 180.745825,121.692374 C180.987323,120.761811 181.799631,120.104656 182.741674,120.07774 C186.226801,119.469199 190.483743,117.96117 193.314458,120.135485 Z" id="Path" fill="#3F3D56" fill-rule="nonzero"></path>
                <path d="M191,129 C191,129 189.493628,130.190012 189.493628,131.08139 C189.493628,131.972768 189.1113,139.995168 189.1113,139.995168 L189.1113,145.651119 C189.1113,145.651119 189.361725,148.623887 189.1113,149.365948 C188.860875,150.108008 189.1113,153.526465 189.1113,153.972154 C189.1113,154.417843 189.493628,149.365948 189.493628,149.365948 L189.493628,144.008631 L189.875956,131.823451 L191,129 Z" id="Path" fill="#000000" fill-rule="nonzero" opacity="0.1"></path>
                <path d="M182,88.786182 L180.977193,88.3795269 C178.887013,87.5253241 176.794604,86.6688494 174.771274,85.6669785 C173.300572,84.9377255 171.809814,84.0767072 170.893968,82.7022585 C170.599827,82.2478952 170.372537,81.7708138 170.080625,81.3232661 C169.74517,80.8445499 169.372585,80.3940424 168.966456,79.9760791 L166.234515,77 C166.025051,77.3975678 166.292452,77.8655619 166.506372,78.2585861 C166.730227,78.6728245 166.900265,79.1149964 167.012205,79.5739677 C167.064746,79.7217939 167.059156,79.8846115 166.996606,80.0283309 C166.89823,80.1499235 166.769747,80.2424795 166.624474,80.2964052 C166.112563,80.6163811 165.880088,81.2505965 166.060705,81.8344247 C166.259659,82.4050648 166.739035,82.8264435 167.321943,82.943071 C167.514678,82.9658172 167.703988,83.0123518 167.885713,83.0816517 C168.215507,83.2474943 168.37149,83.6268876 168.607694,83.9108646 C169.037763,84.4311105 169.721862,84.6287585 170.372537,84.7968729 C171.384202,85.9714018 172.433749,87.0959508 173.445414,88.2704798 C174.974053,90.04704 176.538346,91.8554056 178.534936,93.0594681 C179.243961,93.501353 180.020475,93.8192475 180.832351,94 C181.100844,92.2362334 181.491029,90.4939708 182,88.786182 Z" id="Path" fill="#A1616A" fill-rule="nonzero"></path>
                <path d="M182,88.786182 L180.977193,88.3795269 C178.887013,87.5253241 176.794604,86.6688494 174.771274,85.6669785 C173.300572,84.9377255 171.809814,84.0767072 170.893968,82.7022585 C170.599827,82.2478952 170.372537,81.7708138 170.080625,81.3232661 C169.74517,80.8445499 169.372585,80.3940424 168.966456,79.9760791 L166.234515,77 C166.025051,77.3975678 166.292452,77.8655619 166.506372,78.2585861 C166.730227,78.6728245 166.900265,79.1149964 167.012205,79.5739677 C167.064746,79.7217939 167.059156,79.8846115 166.996606,80.0283309 C166.89823,80.1499235 166.769747,80.2424795 166.624474,80.2964052 C166.112563,80.6163811 165.880088,81.2505965 166.060705,81.8344247 C166.259659,82.4050648 166.739035,82.8264435 167.321943,82.943071 C167.514678,82.9658172 167.703988,83.0123518 167.885713,83.0816517 C168.215507,83.2474943 168.37149,83.6268876 168.607694,83.9108646 C169.037763,84.4311105 169.721862,84.6287585 170.372537,84.7968729 C171.384202,85.9714018 172.433749,87.0959508 173.445414,88.2704798 C174.974053,90.04704 176.538346,91.8554056 178.534936,93.0594681 C179.243961,93.501353 180.020475,93.8192475 180.832351,94 C181.100844,92.2362334 181.491029,90.4939708 182,88.786182 Z" id="Path" fill="#000000" fill-rule="nonzero" opacity="0.15"></path>
                <path d="M179.975646,95.3092162 C179.654664,95.2494132 179.294378,95.1666091 179.119694,94.8767946 C179.004083,94.6310846 178.970983,94.3513406 179.025801,94.0832548 C179.199481,92.3496437 179.565919,90.6435306 180.117577,89 C180.604509,89.9499476 181.563089,90.5042754 182.471447,91.0034004 C183.282343,91.4783125 184.127869,91.8844175 185,92.2178613 C184.781645,92.1442576 184.246674,95.6818349 183.945344,95.8980458 C183.565406,96.1786598 182.648314,95.7991408 182.226889,95.723237 L179.975646,95.3092162 Z" id="Path" fill="#2870F0" fill-rule="nonzero"></path>
                <circle id="Oval" fill="#A1616A" fill-rule="nonzero" cx="182.5" cy="88.5" r="4.5"></circle>
                <path d="M181,92.3276695 C181,92.3276695 184.048637,95.03289 182.742078,96.8363703 C181.43552,98.6398506 180.70818,99.8436966 182.450258,99.9947495 C184.192336,100.145802 190,96.9874232 190,96.9874232 C190,96.9874232 184.627856,92.4787224 185.498895,89.7735019 C186.369934,87.0682814 181,92.3276695 181,92.3276695 Z" id="Path" fill="#FBBEBE" fill-rule="nonzero"></path>
                <path d="M184.767651,96.3300197 C183.45788,96.6544342 182.437481,97.7124201 182.130357,99.0644597 C181.791682,100.659174 182.510547,102.443092 181.833197,103.911671 C181.514187,104.609922 180.922053,105.132484 180.522198,105.787939 C179.715203,107.186338 179.853657,108.957766 180.867428,110.204938 C181.166772,110.556315 181.551332,110.896431 181.586292,111.36043 C181.581179,111.571934 181.560728,111.782748 181.525112,111.991108 C181.490152,112.493398 181.717392,112.970912 181.839752,113.457435 C181.942447,113.860618 181.946817,114.344889 181.719577,114.669237 C181.490377,115.00912 181.385122,115.421591 181.422417,115.83374 C181.531667,116.464418 181.276022,117.092843 181.232322,117.730279 C181.212657,118.005074 181.232322,118.27987 181.208287,118.554665 C181.176475,118.816201 181.123858,119.074598 181.050968,119.327246 L180.666408,120.789067 C182.750897,121.708055 184.966485,122.039161 187.221404,121.996365 C189.240343,121.955822 191.230877,121.525609 193.206116,121.095397 C193.806991,120.964756 194.407865,120.834116 195,120.665184 C193.750181,118.980373 193.616896,116.748223 193.581936,114.628694 C193.527472,111.094951 193.271385,107.567571 192.815001,104.064836 C193.420246,102.886819 193.689001,101.573658 193.938091,100.265001 C194.049928,99.7378506 194.096911,99.1982786 194.07793,98.6590238 C194.016751,97.5328129 193.514201,96.4629126 193.022576,95.4425656 C192.572466,94.510063 192.085212,93.5280071 191.082297,93.1248236 C190.590027,92.9109643 190.025464,92.9748717 189.589943,93.2937552 C188.831748,93.8838897 189.056803,94.9019844 188.862338,95.7714192 C188.606693,96.89763 187.599409,97.7062494 186.526575,98.0238409 C185.725905,98.2401415 184.896315,98.3200301 184.070636,98.2603452 C183.905691,98.2506345 183.76016,98.1458619 183.694521,97.9895681 C183.628883,97.8332743 183.65436,97.652183 183.760366,97.5215508 C184.112151,97.1206198 184.466121,96.7129314 184.767651,96.3300197 Z" id="Path" fill="#2870F0" fill-rule="nonzero"></path>
                <path d="M188.174557,115 C186.374825,116.460261 184.554273,117.934299 182.476947,118.967503 C181.257849,119.573649 179.962412,120.021371 178.775699,120.673437 C178.482273,120.801427 178.23871,121.020609 178.081714,121.297951 C177.987234,121.575638 177.974396,121.87429 178.044702,122.158954 L178.57213,125.76828 C178.717867,126.746379 179.663998,127.375486 180.422754,128 C180.381115,127.671671 180.31403,127.416814 180.471333,127.125221 C180.525867,127.034083 180.585328,126.945941 180.649456,126.86118 C180.973315,126.374426 180.984882,125.743024 180.90623,125.16443 C180.827578,124.585835 180.674902,124.016425 180.704975,123.424055 C180.691737,123.224638 180.7848,123.032931 180.950182,122.918933 C183.534117,121.685977 186.316993,120.740021 188.928687,119.569057 C189.619703,119.291816 190.27075,118.925103 190.864903,118.478453 C191.461939,118.023888 191.863579,117.361946 191.989157,116.625574 C192.013368,116.529122 191.996644,116.427035 191.942891,116.343165 C191.890486,116.286125 191.821954,116.246114 191.746263,116.228365 C190.575743,115.805899 189.340451,115.417874 188.174557,115 Z" id="Path" fill="#A1616A" fill-rule="nonzero"></path>
                <path d="M183.130616,100.011806 C182.29057,100.156254 181.406999,100.600708 181.121906,101.422948 C181.019355,101.783424 180.981025,102.159774 181.008739,102.534084 C180.982655,103.060244 181.069559,103.585865 181.263365,104.074117 C181.406558,104.3436 181.577257,104.596866 181.772615,104.829689 C183.783501,107.460858 184.793296,110.765375 186.751952,113.438767 C186.926054,113.674327 187.243792,113.981001 187.145859,114.258785 C187.110274,114.330851 187.079023,114.405064 187.052279,114.481012 C187.034192,114.626927 187.087969,114.77253 187.195913,114.869909 C187.300328,114.967685 187.381467,115.088545 187.433128,115.22325 C187.470125,115.363253 187.378721,115.545479 187.237263,115.534368 C187.472301,116.276607 188.192651,116.709949 188.876004,117.061068 C190.012024,117.645525 191.269916,118.105535 192.534337,117.978866 C192.771552,117.007734 193.102347,115.909932 192.969593,114.921021 C192.830662,114.165821 192.585082,113.43522 192.240538,112.752085 L191.389612,110.854266 C190.664909,109.23423 189.933678,107.603083 188.923882,106.15194 C188.560087,105.692549 188.253773,105.188656 188.01202,104.651908 C187.753042,103.965226 187.041397,103.482993 186.610493,102.894091 C185.970666,102.005183 185.304723,101.116275 184.447267,100.474038 C184.103415,100.202921 183.550639,99.9406934 183.130616,100.011806 Z" id="Path" fill="#000000" fill-rule="nonzero" opacity="0.1"></path>
                <path d="M183.130462,100.011811 C182.290404,100.156276 181.406819,100.600785 181.121722,101.420904 C181.019539,101.781498 180.981215,102.157826 181.008553,102.532177 C180.982468,103.058402 181.069374,103.584088 181.263182,104.0724 C181.406378,104.341917 181.57708,104.595213 181.77244,104.828065 C183.783358,107.459559 184.793169,110.764483 186.751854,113.438204 C186.92596,113.673794 187.243702,113.980505 187.145768,114.258323 C187.110182,114.330398 187.078931,114.404621 187.052186,114.480578 C187.034099,114.626511 187.087877,114.772132 187.195823,114.869523 C187.30024,114.967311 187.38138,115.088186 187.433042,115.222908 C187.470039,115.362928 187.378634,115.545177 187.237173,115.534064 C187.472215,116.276394 188.192577,116.70979 188.87594,117.060952 C190.011978,117.645482 191.269889,118.105548 192.53433,117.978863 C192.771548,117.007611 193.102348,115.909674 192.969593,114.920642 C192.83066,114.165348 192.585076,113.434657 192.240527,112.751438 L191.389587,110.853385 C190.664873,109.233149 189.93363,107.601801 188.923819,106.15048 C188.559567,105.690556 188.253218,105.185806 188.011942,104.648039 C187.75296,103.963496 187.041305,103.481203 186.610394,102.892229 C185.970557,102.003211 185.304603,101.114193 184.447134,100.471878 C184.103276,100.20295 183.550492,99.9406893 183.130462,100.011811 Z" id="Path" fill="#2870F0" fill-rule="nonzero"></path>
                <path d="M180.908811,81.1648386 C180.291988,81.2186407 179.657478,81.2769263 179.100347,81.5504204 C178.543216,81.8239145 178.067886,82.3619357 178.050199,82.9896271 C178.050199,83.3550331 178.182849,83.7181974 178.136422,84.0791199 C178.059042,84.6799103 177.508544,85.0856679 177.225557,85.6169638 C176.730329,86.5405668 177.115015,87.7152464 177.756158,88.5312452 C178.3973,89.347244 179.266159,89.9749353 179.924989,90.7864506 C180.976554,92.0993647 181.413817,93.8107056 181.123263,95.4762019 C181.041488,95.7960284 181.002083,96.1254733 181.006088,96.4558488 C181.056937,97.0431886 181.448256,97.5296494 181.837363,97.9780004 C183.730173,100.222333 185.481676,102.585339 187.081468,105.052979 C187.561447,105.7697 187.992818,106.518678 188.372597,107.294734 C188.74844,108.097282 189.035848,108.953632 189.557606,109.664269 C190.039285,110.274428 190.629442,110.787678 191.297535,111.177453 C192.982717,112.231207 194.894058,112.856466 196.868844,113 L195.730263,110.137279 C195.529077,109.628401 195.321258,109.092621 195.387583,108.547875 C195.513601,107.516667 196.539429,106.839658 196.873266,105.857769 C197.094349,105.225594 196.994862,104.528408 196.813573,103.885025 C196.411201,102.434609 195.606456,101.129908 195.173132,99.6884594 C194.793204,98.4245714 194.708433,97.0883955 194.925518,95.7855641 C195.020584,95.2116748 195.175343,94.6355438 195.104596,94.0594128 C194.894567,92.3063604 192.867229,91.4679441 191.929834,89.9816606 C191.324065,89.026673 191.20689,87.8497517 191.003493,86.7333577 C190.709452,85.1036019 190.185484,83.4760879 189.17292,82.17587 C188.160357,80.8756522 186.599506,79.9341151 184.97233,80.0036095 C184.10126,80.0372358 183.267774,80.3443563 182.447554,80.6447514 L180.316307,81.4316074" id="Path" fill="#3F3D56" fill-rule="nonzero"></path>
                <g id="Group" opacity="0.1" transform="translate(177.000000, 84.000000)" fill="#000000" fill-rule="nonzero">
                    <path d="M14.0380435,0.783 C14.2275,1.78461538 14.3461957,2.83530769 14.8255435,3.72984615 C14.7593478,3.38184615 14.7045652,3.03161538 14.6383696,2.68807692 C14.4833569,1.81362615 14.2370708,0.956998963 13.9033696,0.131615385 C13.9604348,0.348 13.9992391,0.564384615 14.0380435,0.783 Z" id="Path"></path>
                    <path d="M18.0873913,9.79084615 C17.8644874,11.0880973 17.9519904,12.4181723 18.3430435,13.6768462 C18.4503261,14.0181538 18.5713043,14.3460769 18.7173913,14.6806923 C18.5272664,13.695284 18.5172199,12.6847556 18.6877174,11.6959231 C18.7858696,11.1248462 18.9456522,10.5515385 18.8726087,9.97823077 C18.8053807,9.48698762 18.5999258,9.02362863 18.2791304,8.63976923 C18.2448913,9.02792308 18.153587,9.40938462 18.0873913,9.79084615 Z" id="Path"></path>
                    <path d="M20.6370652,19.7556923 C20.5105985,19.3365582 20.3581427,18.9253362 20.1805435,18.5243077 C20.2573398,18.9547084 20.227598,19.3968222 20.0938043,19.8136923 C19.7491304,20.7885385 18.6877174,21.4644615 18.5598913,22.4906154 C18.491413,23.0326923 18.7036957,23.5658462 18.9136957,24.0722308 C18.9913043,24.2618462 19.068913,24.4536923 19.1419565,24.6433077 C19.1362615,24.5608631 19.1362615,24.4781369 19.1419565,24.3956923 C19.2720652,23.3695385 20.3311957,22.6958462 20.6758696,21.7187692 C20.9223913,21.0896923 20.8242391,20.3959231 20.6370652,19.7556923 Z" id="Path"></path>
                    <path d="M14.343913,25.1073077 C13.6542155,24.718393 13.0449548,24.2069488 12.5475,23.5993077 C12.0065217,22.8921538 11.7097826,22.0377692 11.3217391,21.2413846 C10.9302202,20.4688215 10.4848225,19.7234749 9.98869565,19.0106154 C8.3375866,16.5545022 6.52999436,14.2023432 4.57663043,11.9680769 C4.50586957,11.89 4.4373913,11.8096923 4.36891304,11.7293846 C4.32182817,11.9357098 4.30416087,12.1474067 4.31641304,12.3584615 C4.36891304,12.9429231 4.77293478,13.427 5.17467391,13.8731538 C7.1289311,16.1064886 8.93729449,18.4579139 10.5890217,20.9134615 C11.0845822,21.6266702 11.5299568,22.3719782 11.9220652,23.1442308 C12.3101087,23.9428462 12.6068478,24.795 13.1455435,25.5021538 C13.6428593,26.1093234 14.2521754,26.6200575 14.9419565,27.0079231 C16.6818455,28.0565133 18.6552356,28.6787077 20.6941304,28.8215385 L19.8952174,26.9030769 C17.9270487,26.7346147 16.0262369,26.1197287 14.343913,25.1073077 L14.343913,25.1073077 Z" id="Path"></path>
                    <path d="M2.5998913,4.81846154 C1.9151087,4.01092308 1.0226087,3.39746154 0.360652174,2.57653846 C0.301304348,2.50069231 0.24423913,2.42261538 0.187173913,2.34007692 C0.173559963,3.12090372 0.448269875,3.88038385 0.960978261,4.47938462 C1.62293478,5.30253846 2.52,5.916 3.20021739,6.72353846 C3.46578384,7.03717345 3.69541302,7.37828297 3.885,7.74076923 C3.74364942,6.66866359 3.29854039,5.65649588 2.5998913,4.81846154 L2.5998913,4.81846154 Z" id="Path"></path>
                </g>
                <path d="M92.7412082,65.8022974 L91.0958695,64.2437893 C90.9317854,64.0877721 90.7083169,64 90.4751796,64 C90.2420423,64 90.0185737,64.0877721 89.8544897,64.2437893 L79.5217622,73.8877262 L75.1508346,69.7402561 C74.8105225,69.4197408 74.2588447,69.4197408 73.9185326,69.7402561 L72.2550383,71.2902127 C71.9149872,71.6142052 71.9149872,72.1356357 72.2550383,72.4596282 L78.8931293,78.7599346 C79.236285,79.0800218 79.7890839,79.0800218 80.1322396,78.7599346 L92.7412082,66.9717129 C92.9068265,66.817141 93,66.6066272 93,66.3870052 C93,66.1673831 92.9068265,65.9568693 92.7412082,65.8022974 L92.7412082,65.8022974 Z" id="Path" fill="#3ACC6C" fill-rule="nonzero"></path>
                <path d="M137.741208,65.8022974 L136.095869,64.2437893 C135.931785,64.0877721 135.708317,64 135.47518,64 C135.242042,64 135.018574,64.0877721 134.85449,64.2437893 L124.521762,73.8877262 L120.150835,69.7402561 C119.810523,69.4197408 119.258845,69.4197408 118.918533,69.7402561 L117.255038,71.2902127 C116.914987,71.6142052 116.914987,72.1356357 117.255038,72.4596282 L123.893129,78.7599346 C124.236285,79.0800218 124.789084,79.0800218 125.13224,78.7599346 L137.741208,66.9717129 C137.906827,66.817141 138,66.6066272 138,66.3870052 C138,66.1673831 137.906827,65.9568693 137.741208,65.8022974 L137.741208,65.8022974 Z" id="Path" fill="#3ACC6C" fill-rule="nonzero"></path>
            </g>
        </g>
    </g>
</svg>