<?xml version="1.0" encoding="UTF-8"?>
<svg width="260" height="180" viewBox="0 0 260 180" fill="none" xmlns="http://www.w3.org/2000/svg">
<g clip-path="url(#clip0_777_5860)">
<path fill-rule="evenodd" clip-rule="evenodd" d="M217.68 74.2264C228.985 105.453 240.192 140.533 139.595 146.53C17.8255 151.203 21.2891 87.1825 47.4538 48.4918C73.6184 9.80115 206.375 43.0003 217.68 74.2264Z" fill="#E5EDF6"/>
<mask id="mask0_777_5860" style="mask-type:alpha" maskUnits="userSpaceOnUse" x="32" y="31" width="193" height="116">
<path fill-rule="evenodd" clip-rule="evenodd" d="M217.68 74.2283C228.985 105.454 240.192 140.535 139.595 146.532C17.8255 151.205 21.2891 87.1843 47.4538 48.4937C73.6184 9.80298 206.375 43.0021 217.68 74.2283Z" fill="#FAFAFA"/>
</mask>
<g mask="url(#mask0_777_5860)">
<rect width="110.931" height="147.049" transform="translate(91.832 -22.0137)" fill="#F0F5FB"/>
<rect x="156.195" y="67.3125" width="32" height="54" fill="#E5EDF6"/>
<rect x="160.355" y="99.2148" width="39" height="23" fill="#E5EDF6"/>
<path fill-rule="evenodd" clip-rule="evenodd" d="M117.229 37.3986C115.894 38.2593 114.285 38.7617 112.554 38.7617C107.931 38.7617 104.184 35.18 104.184 30.7617C104.184 26.3434 107.931 22.7617 112.554 22.7617C116.199 22.7617 119.3 24.9889 120.448 28.0971C120.531 28.0936 120.614 28.0918 120.697 28.0918C123.727 28.0918 126.184 30.4395 126.184 33.3356C126.184 36.2316 123.727 38.5793 120.697 38.5793C119.382 38.5793 118.174 38.1366 117.229 37.3986Z" fill="white"/>
<rect x="93.7739" y="-20.0718" width="107.116" height="144.116" stroke="#D4DFEC" stroke-width="3.88377"/>
<rect x="95" y="57" width="105" height="3" fill="#D4DFEC"/>
<rect x="162.668" y="77.6719" width="6" height="7" fill="white"/>
<rect x="175.609" y="77.6719" width="6" height="7" fill="white"/>
<rect x="147.5" y="100.973" width="5.17836" height="6.47295" fill="white"/>
<rect x="165.625" y="107.445" width="6" height="7" fill="white"/>
<rect x="175.984" y="107.445" width="6" height="7" fill="white"/>
<rect x="186.34" y="107.445" width="6" height="7" fill="white"/>
<path fill-rule="evenodd" clip-rule="evenodd" d="M83.0735 121.455C82.4984 122.459 81.9856 123.483 81.5327 124.523C81.5167 122.382 81.6339 120.226 81.9541 118.04C82.5013 114.295 83.3371 110.57 84.1224 106.851C84.6869 104.179 84.6512 99.3782 86.7933 97.2484C87.3807 96.7881 87.5221 97.6911 87.5221 98.083C87.5295 98.1658 87.5205 96.4835 86.9503 96.7765C83.5613 98.5439 82.4632 104.101 81.3782 106.884C79.7951 110.945 78.4482 115.097 77.8936 119.322C77.7534 120.389 77.6772 121.456 77.6596 122.522C77.5444 122.237 77.4362 121.95 77.3165 121.666C75.3605 117.033 72.7207 112.513 69.4284 108.345C68.6181 107.319 58.4284 97.1985 57.6308 98.7475C57.7095 98.9725 57.8742 99.1592 58.1255 99.3076C58.1403 99.3245 58.1407 99.3151 58.1321 99.29C58.7305 100.266 60.432 101.774 60.962 102.629C62.2958 104.781 63.3324 107.066 64.3859 109.306C66.6116 114.041 68.6763 118.824 70.6778 123.616C71.1438 124.733 71.6296 125.843 72.1251 126.949C67.0166 119.509 60.2016 112.755 50.8203 108.888C54.0245 110.534 56.1252 113.631 58.2891 116.002C60.8989 118.862 63.6476 121.645 66.2624 124.501C69.3464 127.872 72.9753 131.42 75.9417 135.15C78.8151 141.241 81.6073 147.339 83.3309 153.742C82.6247 151.53 83.2756 148.473 83.1547 146.151C83.0587 144.303 82.8448 142.47 82.5517 140.64C82.9141 141.465 83.2264 142.291 83.3678 143.059C83.2387 141.771 83.0899 140.491 82.93 139.217C83.3403 138.025 83.7433 136.912 84.0154 135.996C85.4103 131.295 87.0712 126.674 89.333 122.171C91.426 118.005 93.8267 113.892 96.4427 109.905C97.663 108.046 98.9001 106.194 100.129 104.339C100.934 103.124 101.7 101.179 102.82 100.016C95.5791 106.701 87.6676 113.434 83.0735 121.455Z" fill="#6FBB96"/>
<path fill-rule="evenodd" clip-rule="evenodd" d="M61.6484 131.244C61.6484 146.156 62.8272 158.244 78.6484 158.244C94.4697 158.244 95.6484 146.156 95.6484 131.244" fill="#ABD5FE"/>
<path d="M103.876 113.129C103.938 115.118 103.99 117.117 104.042 119.106C103.952 120.011 104.203 120.916 104.747 121.649C105.483 122.366 106.821 122.295 107.993 122.182C108.318 122.196 108.641 122.119 108.925 121.962C109.209 121.804 109.442 121.572 109.6 121.29C110.004 120.429 108.968 119.988 108.563 119.352C108.272 118.775 108.16 118.126 108.242 117.486C108.147 115.637 108.613 113.802 109.579 112.216C109.652 112.113 109.735 112.021 109.818 111.919C110.71 110.985 111.729 110.177 112.846 109.519C113.72 108.911 114.561 108.257 115.365 107.561C117.27 105.921 118.95 104.043 120.363 101.973C121.265 100.657 122.026 99.2515 122.634 97.7798C122.748 97.5133 122.842 97.2467 122.945 96.9801C123.23 96.2453 123.415 95.4765 123.495 94.6937C123.538 93.8366 123.308 92.9878 122.837 92.2668C122.367 91.5458 121.679 90.9889 120.871 90.6745C120.596 90.5662 120.311 90.4805 120.021 90.4182C117.686 90.1067 115.316 90.6659 113.375 91.9869C113.239 92.059 113.091 92.1076 112.939 92.1305C112.317 92.2535 111.435 92.1305 110.865 92.274C110.481 92.274 110.202 92.4688 110.139 92.7662C110.139 92.8482 110.139 92.9404 110.077 93.0122V93.0635C109.911 93.812 109.787 94.4784 109.683 95.1141C109.393 96.9186 109.31 98.19 109.03 99.6357C108.82 100.71 108.547 101.771 108.211 102.814C107.818 104.031 107.282 105.197 106.614 106.29C105.672 107.513 104.878 108.841 104.25 110.247C103.957 111.179 103.831 112.154 103.876 113.129Z" fill="#5F5D5D"/>
<path d="M144.667 101.177C144.652 101.327 144.652 101.478 144.667 101.628C144.809 102.063 145.004 102.48 145.248 102.868C145.599 103.557 145.856 104.288 146.015 105.042C146.195 105.936 146.32 106.84 146.389 107.749C146.389 108.241 146.472 108.774 146.523 109.225C146.596 110.117 146.689 111.02 146.772 111.922C146.798 112.551 146.917 113.172 147.125 113.767C147.192 113.935 147.268 114.099 147.353 114.259C147.529 114.577 147.726 114.875 147.934 115.182L150.007 118.33C150.6 119.279 151.277 120.175 152.03 121.006C152.223 121.232 152.459 121.42 152.724 121.56C152.983 121.669 153.262 121.724 153.543 121.724C154.745 121.811 155.951 121.811 157.152 121.724C157.24 121.737 157.329 121.723 157.409 121.685C157.489 121.646 157.554 121.585 157.598 121.508C157.631 121.438 157.648 121.361 157.648 121.283C157.648 121.205 157.631 121.128 157.598 121.057C157.417 120.57 157.125 120.131 156.743 119.775C156.362 119.42 155.902 119.156 155.4 119.007C155.071 118.961 154.758 118.838 154.487 118.648C154.359 118.512 154.254 118.356 154.176 118.186C153.761 117.407 153.336 116.638 152.921 115.869C152.733 115.543 152.577 115.2 152.455 114.844C152.343 114.398 152.308 113.937 152.351 113.48C152.483 110.903 152.791 108.337 153.274 105.801C153.44 104.868 153.616 103.924 153.792 103.002L154.29 100.295C154.29 100.172 154.342 100.039 154.373 99.9053C154.755 98.5402 154.981 97.137 155.047 95.7221C155.05 95.6753 155.044 95.6284 155.028 95.5843C155.011 95.5401 154.986 95.4998 154.954 95.4658C154.56 94.9736 152.88 95.4658 152.185 95.1069C151.744 94.8797 151.273 94.714 150.785 94.6148C149.896 94.2786 148.92 94.239 148.006 94.502C147.65 94.7021 147.339 94.9716 147.091 95.2941C146.843 95.6166 146.664 95.9854 146.565 96.3783C146.43 96.7576 146.306 97.1575 146.181 97.5266C145.957 98.2359 145.666 98.9225 145.31 99.5772C144.975 100.055 144.756 100.602 144.667 101.177Z" fill="#5F5D5D"/>
<path d="M109.831 95.0658C109.831 95.2914 109.831 95.517 109.914 95.7425V95.8041C110.215 97.6086 111.054 99.7719 111.48 102.243C111.604 102.909 113.294 101.72 113.927 102.007C114.47 102.236 115.058 102.345 115.648 102.325C117.21 102.299 118.768 102.176 120.314 101.956C121.185 101.864 122.056 101.771 122.938 101.751H123.622C127.065 101.925 130.472 102.528 133.763 103.545C136.728 104.436 139.786 104.994 142.878 105.206C143.455 105.237 144.033 105.237 144.609 105.206C145.092 105.184 145.573 105.136 146.051 105.062C147.999 104.783 149.861 104.083 151.505 103.012C152.532 102.336 153.416 101.469 154.108 100.459L154.243 100.254C154.446 99.9441 154.629 99.6222 154.792 99.2901C155.471 97.8284 155.902 96.2661 156.068 94.666C156.213 93.6407 156.296 92.6154 156.379 91.5901C156.545 89.3037 156.721 86.7404 156.887 84.413C156.882 84.3825 156.882 84.3513 156.887 84.3208C155.549 83.1519 154.18 82.1061 152.739 81.091C151.702 80.3118 150.561 79.5634 149.442 78.8047L148.664 78.2715C148.322 79.0405 147.959 79.8094 147.627 80.5682C146.994 81.86 146.32 83.1314 145.615 84.3823C145.383 84.9052 145.027 85.3657 144.578 85.7254C143.789 86.1464 142.875 86.2806 141.996 86.1048C137.268 85.6844 132.56 84.9769 127.822 84.7719C123.237 84.4503 118.631 84.954 114.227 86.2585C114.072 86.3006 113.92 86.3519 113.771 86.4123C113.394 86.5268 113.042 86.7112 112.734 86.9557C112.437 87.2492 112.201 87.5975 112.04 87.981L111.832 88.3912C111.305 89.384 110.847 90.4117 110.463 91.4671C110.319 91.8804 110.197 92.3014 110.1 92.7282C110.1 92.8102 110.101 92.9025 110.038 92.9743V93.0255C109.884 93.6946 109.815 94.3799 109.831 95.0658Z" fill="#5F5D5D"/>
<path d="M152.274 101.188C152.274 101.188 152.274 101.26 152.274 101.301C152.274 101.342 152.326 101.218 152.274 101.188Z" fill="#5F5D5D"/>
<path d="M104.649 74.6517C105.467 81.249 106.993 87.7415 109.201 94.0195C109.325 94.3681 109.45 94.727 109.595 95.0448C109.691 95.2939 109.801 95.537 109.927 95.7728C110.193 96.309 110.543 96.8003 110.964 97.2287C111.247 96.1838 111.593 95.1566 112.001 94.1528C112.281 93.4454 112.592 92.7482 112.924 92.1022C113.048 91.8562 113.172 91.5998 113.307 91.3538L113.442 91.1179C114.078 89.9184 114.802 88.767 115.609 87.673C115.962 87.1911 116.335 86.7297 116.719 86.2786C115.892 86.3811 115.056 86.3811 114.23 86.2786C113.636 86.1947 113.074 85.9578 112.602 85.5916C111.857 84.8558 111.342 83.9231 111.119 82.9053C107.903 72.5288 106.817 61.6212 107.926 50.8238C108.042 50.2217 107.999 49.6002 107.801 49.0193C107.689 48.7321 107.468 48.4995 107.186 48.3711C106.903 48.2428 106.58 48.2289 106.287 48.3323C105.941 48.5583 105.696 48.907 105.603 49.3064C105.177 50.4707 104.847 51.6674 104.618 52.8847C104.359 54.3805 104.193 55.8904 104.12 57.4062C103.762 63.1586 103.939 68.9313 104.649 74.6517Z" fill="#5F5D5D"/>
<path d="M155.387 73.523C155.371 73.608 155.338 73.689 155.29 73.7613C155.242 73.8335 155.18 73.8954 155.107 73.9434C154.181 74.7231 153.13 75.3435 151.996 75.7786C151.757 75.8709 151.457 75.9324 151.301 75.7786C152.089 73.7793 152.069 71.5237 152.867 69.5346C152.937 69.3029 153.088 69.1032 153.292 68.9707C154.039 70.3754 154.713 71.8005 155.314 73.2667C155.355 73.3466 155.38 73.4337 155.387 73.523Z" fill="#5F5D5D"/>
<path d="M147.655 80.5905C147.673 81.1047 147.771 81.613 147.945 82.0977C148.006 82.2814 148.082 82.4598 148.173 82.6309C148.27 82.8222 148.384 83.0042 148.516 83.1743C148.946 83.6945 149.478 84.1233 150.081 84.4352C150.683 84.747 151.343 84.9354 152.02 84.9891H152.331C152.952 85.0507 153.577 85.0507 154.198 84.9891C154.723 84.9139 155.252 84.8216 155.784 84.7122L156.054 84.661L156.894 84.4662C158.346 84.1278 159.787 83.7177 161.197 83.2461C161.702 83.1041 162.179 82.8788 162.607 82.5796C162.997 82.2628 163.294 81.8486 163.468 81.38C163.648 80.9096 163.777 80.4215 163.852 79.9241C163.852 79.9241 163.852 79.8523 163.852 79.8216C163.857 79.7225 163.857 79.6233 163.852 79.5242C163.872 79.33 163.872 79.1341 163.852 78.9398C163.824 78.591 163.69 78.2585 163.468 77.9863C163.415 77.9075 163.352 77.8353 163.281 77.771C163.11 77.5859 162.915 77.4239 162.701 77.2891C162.12 76.92 161.456 76.6739 160.865 76.3253C159.663 75.5973 158.792 74.408 157.599 73.7005C157.086 73.4011 156.525 73.1897 155.94 73.0751C155.67 73.0208 155.396 72.9865 155.121 72.9726C154.425 72.9387 153.728 72.9938 153.047 73.1366L152.622 73.2187L151.865 73.4135L151.492 73.5263H151.388C151.071 73.6165 150.762 73.7331 150.465 73.8749L150.341 73.9364C150.105 74.0724 149.882 74.2303 149.677 74.408C149.384 74.6731 149.139 74.9851 148.951 75.3308C148.808 75.5893 148.69 75.8604 148.599 76.1408C148.09 77.2705 147.741 78.4643 147.562 79.6883V79.8011C147.578 80.0658 147.609 80.3293 147.655 80.5905Z" fill="#5F5D5D"/>
<path d="M163.136 78.5195C163.188 78.622 163.229 78.7348 163.281 78.8476C163.277 78.8644 163.277 78.882 163.281 78.8988C163.343 78.8988 163.395 78.8476 163.416 78.786C163.437 78.7245 163.509 78.6425 163.561 78.6835C163.648 79.019 163.696 79.3628 163.706 79.7088C163.706 79.7601 163.706 79.8318 163.789 79.8421C163.789 79.8421 163.789 79.7703 163.789 79.7396C163.794 79.6405 163.794 79.5413 163.789 79.4422C163.81 79.248 163.81 79.0521 163.789 78.8578C163.762 78.509 163.628 78.1765 163.406 77.9043L163.084 78.0581C163.03 78.0729 162.982 78.1054 162.949 78.1504C163.043 78.2939 163.094 78.4477 163.136 78.5195Z" fill="#5F5D5D"/>
<path d="M157.412 77.1228C157.77 77.0066 158.097 76.8141 158.371 76.559C158.645 76.3038 158.86 75.9923 158.999 75.6464C159.055 75.4189 159.165 75.208 159.32 75.0312C159.337 75.4756 159.466 75.9088 159.693 76.2923C160.119 76.9485 160.958 77.3176 161.27 77.9841C160.702 77.6336 160.051 77.4357 159.382 77.4099C158.717 77.387 158.056 77.2907 157.412 77.1228Z" fill="#484848"/>
<path d="M159.883 76.3933C159.986 76.5987 160.049 76.8212 160.07 77.0495C160.075 77.0904 160.075 77.1317 160.07 77.1726C160.076 77.1996 160.076 77.2275 160.07 77.2546C160.052 77.2622 160.032 77.2661 160.013 77.2661C159.993 77.2661 159.974 77.2622 159.956 77.2546C159.662 77.2579 159.371 77.2093 159.095 77.111C159.054 77.0967 159.015 77.076 158.981 77.0495C158.981 77.0495 158.981 76.988 158.981 76.9572C158.913 76.6158 158.935 76.2629 159.043 75.9319C159.043 75.8294 159.137 75.7166 159.24 75.7166C159.258 75.709 159.278 75.7051 159.297 75.7051C159.317 75.7051 159.336 75.709 159.354 75.7166C159.416 75.745 159.475 75.7793 159.531 75.8192C159.695 75.9779 159.817 76.1755 159.883 76.3933Z" fill="#5F5D5D"/>
<path d="M159.407 76.4462C159.492 76.6392 159.6 76.8216 159.728 76.9896C159.78 77.0614 159.873 77.1537 159.967 77.1229C159.99 77.1142 160.012 77.1005 160.03 77.0828C160.048 77.0651 160.062 77.0438 160.07 77.0204C160.075 76.9658 160.075 76.9109 160.07 76.8564C160.042 76.6847 159.986 76.5185 159.905 76.3642C159.84 76.2217 159.749 76.0929 159.635 75.9849C159.6 75.9511 159.561 75.9202 159.521 75.8926C159.454 75.9307 159.406 75.9934 159.386 76.0669C159.352 76.1923 159.36 76.3251 159.407 76.4462Z" fill="white"/>
<path d="M159.543 76.0664C159.595 76.2547 159.668 76.4369 159.76 76.6098C159.76 76.6611 159.76 76.7329 159.812 76.7944C159.823 76.8242 159.841 76.8509 159.864 76.8723C159.888 76.8938 159.916 76.9092 159.947 76.9174C159.968 76.9178 159.99 76.9122 160.008 76.9013C160.026 76.8905 160.041 76.8747 160.051 76.8559C160.022 76.6842 159.966 76.518 159.885 76.3637C159.821 76.2213 159.729 76.0925 159.615 75.9844C159.615 75.9844 159.563 75.9844 159.553 75.9844C159.541 76.0099 159.537 76.0386 159.543 76.0664Z" fill="#5F5D5D"/>
<path d="M109.542 89.2741C109.811 90.0123 110.091 90.7607 110.413 91.4887C110.527 91.745 110.641 92.0014 110.775 92.2577C111.107 92.9413 111.506 93.5904 111.968 94.1955V94.2468C112.07 94.3866 112.181 94.5201 112.3 94.6466C113.779 96.2292 115.716 97.3214 117.847 97.7738C119.382 98.1326 124.349 95.0977 124.567 94.175C124.826 99.7936 136.471 101.916 140.535 100.911C141.914 100.573 143.511 100.173 144.413 99.1477C144.071 99.5373 144.642 100.327 144.818 100.809C144.994 101.291 145.544 101.178 145.855 101.516C146.186 101.856 146.585 102.125 147.027 102.306C148.375 102.859 148.696 102.306 150.075 101.834C150.822 101.567 151.278 98.0814 151.9 97.5892C152.087 97.4559 152.595 99.7628 153.341 99.5168C153.55 99.4069 153.715 99.2296 153.808 99.0144C154.224 98.045 154.533 97.0345 154.731 96C154.731 95.8052 154.824 95.6207 154.855 95.4361C154.886 95.2515 154.969 94.8414 155.011 94.5441C155.414 91.3237 155.117 88.0553 154.14 84.9576C153.75 83.6499 153.282 82.3661 152.74 81.1127C152.512 80.5898 152.273 80.0874 152.035 79.5748C152.551 80.4809 153.298 81.2374 154.202 81.7689C153.881 80.3335 154.202 78.7545 153.632 77.3704C153.761 77.9286 154.001 78.456 154.337 78.9223C154.674 79.3885 155.1 79.7845 155.592 80.0874C156.628 80.5591 157.956 80.4565 158.536 81.369C158.65 81.5536 158.723 81.7689 158.848 81.9535C159.102 82.2212 159.417 82.425 159.767 82.5481C160.117 82.6711 160.491 82.7098 160.859 82.6609C161.799 82.4502 162.667 82.0015 163.379 81.3588C163.205 81.8273 162.908 82.2415 162.518 82.5584C162.09 82.8575 161.613 83.0828 161.108 83.2248C159.698 83.6965 158.256 84.1066 156.805 84.4449C156.639 86.7416 156.463 89.3048 156.297 91.622C156.214 92.6473 156.131 93.6726 155.986 94.6979C155.82 96.298 155.389 97.8603 154.71 99.3219C154.547 99.6541 154.364 99.976 154.161 100.286L154.026 100.491C153.334 101.501 152.45 102.368 151.423 103.044C149.779 104.115 147.917 104.815 145.969 105.094C145.491 105.168 145.01 105.215 144.528 105.238C143.951 105.269 143.373 105.269 142.796 105.238C139.704 105.026 136.646 104.468 133.681 103.577C130.39 102.56 126.983 101.957 123.54 101.783H122.856C121.974 101.783 121.103 101.895 120.232 101.988C118.686 102.207 117.128 102.331 115.566 102.357C114.976 102.376 114.388 102.268 113.845 102.039C113.212 101.752 111.522 102.941 111.398 102.275C110.973 99.8038 110.133 97.6405 109.832 95.8359C109.707 95.6001 109.596 95.3571 109.5 95.108C109.355 94.7594 109.23 94.4005 109.106 94.0827C106.898 87.8046 105.372 81.3121 104.554 74.7148C106.109 79.5953 107.772 84.4483 109.542 89.2741Z" fill="#484848"/>
<path d="M142.271 114.248C142.385 114.708 142.555 115.152 142.779 115.571L144.252 118.534C144.644 119.427 145.138 120.273 145.724 121.056C145.88 121.269 146.082 121.444 146.315 121.569C146.56 121.675 146.825 121.728 147.093 121.722C148.298 121.804 149.507 121.804 150.712 121.722C150.847 121.726 150.979 121.682 151.085 121.599C151.129 121.537 151.159 121.467 151.173 121.393C151.188 121.319 151.186 121.242 151.168 121.169C151.094 120.707 150.888 120.276 150.573 119.927C150.259 119.578 149.85 119.326 149.395 119.2C149.088 119.167 148.797 119.05 148.555 118.862C148.452 118.735 148.378 118.588 148.337 118.431C148.171 117.97 148.005 117.519 147.85 117.057C147.746 116.791 147.653 116.524 147.559 116.247C147.429 115.918 147.342 115.573 147.3 115.222C147.28 114.898 147.311 114.573 147.394 114.258C147.394 114.156 147.394 114.053 147.477 113.951C148 111.994 148.641 110.07 149.395 108.188C149.924 106.815 150.494 105.451 151.054 104.087L151.51 103.062C151.749 102.488 152.122 101.165 152.143 101.093C152.182 100.99 152.213 100.884 152.236 100.776C152.436 100.111 152.482 99.4099 152.371 98.725C152.302 98.3229 152.149 97.9394 151.923 97.5987C151.696 97.2581 151.4 96.9678 151.054 96.7461C150.651 96.5291 150.218 96.3735 149.768 96.2848C148.879 95.9669 147.912 95.9276 147 96.172C146.835 96.2437 146.676 96.3259 146.523 96.418C145.677 97.1267 145.006 98.0176 144.563 99.0223C144.355 99.3812 144.138 99.7298 143.909 100.048C143.681 100.365 143.505 100.612 143.287 100.888C142.724 101.412 142.358 102.11 142.25 102.867C142.3 103.27 142.408 103.664 142.572 104.036C142.707 104.428 142.797 104.834 142.841 105.246C142.934 106.378 142.893 107.517 142.717 108.64L142.561 109.942C142.561 110.126 142.51 110.311 142.489 110.495C142.416 111.182 142.333 111.859 142.25 112.546C142.163 113.111 142.17 113.686 142.271 114.248Z" fill="#5F5D5D"/>
<path d="M142.276 114.248C142.389 114.708 142.56 115.152 142.784 115.57L144.256 118.533C144.649 119.427 145.143 120.273 145.729 121.056C145.884 121.268 146.086 121.444 146.32 121.568C146.565 121.675 146.83 121.728 147.097 121.722C148.302 121.804 149.511 121.804 150.716 121.722C150.851 121.725 150.984 121.682 151.09 121.599C151.134 121.537 151.164 121.467 151.178 121.393C151.192 121.318 151.19 121.242 151.173 121.168C151.099 120.707 150.892 120.276 150.578 119.927C150.264 119.578 149.855 119.326 149.399 119.2C149.093 119.167 148.802 119.05 148.56 118.862C148.457 118.735 148.383 118.588 148.342 118.431C148.176 117.97 148.01 117.518 147.854 117.057C147.854 117.857 147.803 118.656 147.782 119.456C146.994 119.702 146.216 119.056 145.708 118.431C143.956 116.155 143.271 113.304 142.525 110.516C142.452 111.203 142.369 111.879 142.286 112.566C142.191 113.123 142.188 113.69 142.276 114.248Z" fill="#484848"/>
<path d="M109.535 112.209C109.608 112.527 109.701 112.845 109.784 113.163C110.334 115.141 110.883 117.13 111.443 119.109C111.534 119.457 111.645 119.799 111.775 120.135C111.974 120.716 112.333 121.231 112.812 121.621C113.833 122.217 115.045 122.407 116.203 122.154C116.856 122.093 117.675 121.898 117.81 121.262C117.997 120.411 116.856 119.96 116.255 119.335C115.887 118.896 115.644 118.369 115.55 117.807C115.55 117.694 115.498 117.582 115.467 117.479C115.062 115.613 114.689 113.562 115.643 111.912C116.306 110.983 117.127 110.174 118.069 109.523C118.463 109.195 118.837 108.856 119.2 108.497C121.158 106.577 122.681 104.267 123.669 101.72C124.262 100.212 124.652 98.6331 124.83 97.0244C124.83 96.8501 124.83 96.6655 124.882 96.4912C124.931 95.9095 124.906 95.324 124.809 94.7482C124.576 93.782 124.089 92.8939 123.397 92.1737C122.705 91.4536 121.833 90.9269 120.869 90.647C120.673 90.5802 120.472 90.5288 120.268 90.4932C119.179 90.3193 118.065 90.3669 116.995 90.6331C115.926 90.8993 114.922 91.3785 114.046 92.0415C113.346 92.525 112.75 93.142 112.294 93.8562C112.221 93.9793 112.159 94.1023 112.097 94.2253C111.298 95.8556 111.474 97.8139 111.557 99.6491C111.557 100.5 111.62 101.372 111.557 102.233C111.516 103.304 111.352 104.366 111.07 105.401C110.992 105.7 110.899 105.994 110.79 106.283L110.51 106.959C109.96 107.981 109.588 109.086 109.411 110.23C109.341 110.892 109.383 111.561 109.535 112.209Z" fill="#5F5D5D"/>
<path d="M109.537 112.209C109.61 112.527 109.703 112.845 109.786 113.163C110.335 115.142 110.885 117.131 111.445 119.11C111.536 119.457 111.647 119.8 111.777 120.135C111.976 120.716 112.335 121.231 112.814 121.622C113.835 122.217 115.047 122.408 116.204 122.155C116.858 122.093 117.677 121.899 117.812 121.263C117.998 120.412 116.858 119.961 116.256 119.335C115.889 118.897 115.645 118.37 115.551 117.808C115.536 117.995 115.536 118.184 115.551 118.372C114.557 117.922 113.769 117.121 113.342 116.126L113.031 117.008C112.834 116.904 112.664 116.757 112.534 116.577C111.2 114.662 110.511 112.381 110.564 110.056C110.564 109.031 110.564 108.006 110.564 106.98C110.013 108.002 109.641 109.107 109.464 110.251C109.38 110.903 109.405 111.565 109.537 112.209Z" fill="#484848"/>
<path opacity="0.5" d="M108.173 75.5653C108.405 77.7828 108.79 79.982 109.324 82.1477C109.947 84.3026 110.77 86.3962 111.781 88.402C112.258 89.4273 112.767 90.3809 113.275 91.3652L113.409 91.6112C113.389 91.4512 113.389 91.2893 113.409 91.1293C113.485 90.4641 113.703 89.8224 114.05 89.2476C114.397 88.6728 114.865 88.1782 115.421 87.7971L115.608 87.6741C116.838 86.9262 118.225 86.4667 119.662 86.331C122.598 86.0609 125.556 86.1297 128.476 86.536L134.2 87.0999C136.759 87.1984 139.279 87.7578 141.635 88.7506C143.916 89.8785 145.855 92.0726 145.896 94.6051C146.83 91.642 145.357 88.2893 146.467 85.3774C146.868 84.4586 147.391 83.5966 148.022 82.8142L148.178 82.6194C148.336 82.3889 148.555 82.2048 148.81 82.0862C148.892 82.0463 148.98 82.0228 149.071 82.0172C149.162 82.0116 149.253 82.0239 149.339 82.0535C149.425 82.0831 149.504 82.1294 149.572 82.1896C149.639 82.2497 149.694 82.3227 149.733 82.4041C149.39 81.2393 149.312 80.0137 149.505 78.8155C149.612 77.8326 149.973 76.8933 150.552 76.0873C151.131 75.2814 151.909 74.6357 152.813 74.2119C154.337 73.5763 156.038 73.7403 157.707 73.6583C157.194 73.3588 156.633 73.1474 156.048 73.0329C155.778 72.9785 155.504 72.9443 155.229 72.9303C154.533 72.8964 153.836 72.9515 153.155 73.0944L152.73 73.1764L151.973 73.3712L151.6 73.484H151.496C151.179 73.5742 150.87 73.6908 150.573 73.8326L150.449 73.8941C150.213 74.0301 149.99 74.1881 149.785 74.3657C149.492 74.6309 149.247 74.9428 149.059 75.2885C148.916 75.547 148.798 75.8182 148.706 76.0985C148.198 77.2282 147.849 78.422 147.67 79.646V79.7588C147.654 80.0286 147.654 80.299 147.67 80.5688C147.037 81.8607 146.363 83.132 145.658 84.3829C145.425 84.9058 145.07 85.3663 144.621 85.726C143.832 86.147 142.918 86.2812 142.039 86.1054C137.311 85.685 132.603 84.9776 127.864 84.7725C123.279 84.4509 118.673 84.9546 114.27 86.2592C113.676 86.1753 113.114 85.9384 112.642 85.5722C111.897 84.8365 111.382 83.9037 111.159 82.8859C109.251 76.7347 108.089 70.3813 107.696 63.959C107.623 64.6459 107.572 65.3329 107.54 66.0096C107.485 69.2066 107.697 72.4027 108.173 75.5653Z" fill="#5F5D5D"/>
<path d="M152.356 71.2703C152.636 71.865 152.895 72.4596 153.155 73.0646L153.31 73.4542C153.36 73.5418 153.385 73.6409 153.383 73.7413C153.365 73.8269 153.33 73.9082 153.28 73.9804C153.231 74.0526 153.167 74.1142 153.092 74.1616C152.591 74.5877 152.049 74.9654 151.475 75.2895C151.061 75.5327 150.627 75.7418 150.179 75.9149L149.992 75.9969C149.764 76.0789 149.463 76.1507 149.297 75.9969C149.497 75.4834 149.656 74.9556 149.774 74.418C150.075 73.1466 150.22 71.824 150.593 70.5731C150.666 70.2933 150.76 70.0192 150.873 69.7529C150.946 69.525 151.096 69.3292 151.298 69.1992C151.672 69.8759 152.024 70.5834 152.356 71.2703Z" fill="#5F5D5D"/>
<path d="M151.709 70.6645C151.625 70.363 151.511 70.071 151.367 69.793C151.231 71.4513 151.346 73.1204 151.709 74.7452L152.372 73.7199C152.445 73.6173 152.715 73.3507 152.715 73.2277C152.725 73.1495 152.725 73.0701 152.715 72.9919C152.414 72.1614 151.968 71.4847 151.709 70.6645Z" fill="#5F5D5D"/>
</g>
</g>
<defs>
<clipPath id="clip0_777_5860">
<rect width="260" height="180" fill="white"/>
</clipPath>
</defs>
</svg>
