<?xml version="1.0" encoding="UTF-8"?>
<svg width="20" height="22" viewBox="0 0 20 22" fill="none" xmlns="http://www.w3.org/2000/svg">
<path d="M19.5557 5.63956C19.5532 5.63498 19.5513 5.63031 19.5488 5.62578C19.5477 5.62386 19.5463 5.62212 19.5452 5.6202C19.411 5.38986 19.2177 5.19951 18.9853 5.06878L10.7354 0.42815C10.5106 0.302683 10.2575 0.236816 10 0.236816C9.7426 0.236816 9.48944 0.302683 9.26465 0.42815L1.01455 5.06882C0.781341 5.20017 0.587541 5.39154 0.45327 5.62308C0.451828 5.6256 0.450089 5.62789 0.448669 5.63045C0.446381 5.63453 0.444732 5.63878 0.442535 5.6429C0.316561 5.86677 0.250261 6.11927 0.25 6.37615V15.6239C0.250207 15.89 0.321116 16.1513 0.45547 16.381C0.589824 16.6107 0.782798 16.8006 1.01465 16.9313L9.26474 21.5719C9.47256 21.6881 9.70507 21.7531 9.94301 21.7614C9.96006 21.7628 9.97704 21.7643 9.99441 21.7645H10.0012C10.0248 21.7645 10.0481 21.7631 10.0712 21.761C10.3043 21.7506 10.5317 21.6859 10.7354 21.5719L18.9853 16.9313C19.2172 16.8006 19.4102 16.6108 19.5446 16.381C19.6789 16.1513 19.7498 15.89 19.75 15.6239V6.37615C19.7498 6.11798 19.6828 5.86425 19.5557 5.63956ZM10 1.73552L17.476 5.94077L14.6053 7.57165L7.04124 3.39982L10 1.73552ZM10.0853 10.1395L2.53552 5.93432L5.50361 4.26476L13.0753 8.44085L10.0853 10.1395ZM10.7614 19.8362L10.8352 11.4387L13.8459 9.72826V13.2979C13.8459 13.4968 13.9249 13.6876 14.0655 13.8282C14.2062 13.9689 14.3969 14.0479 14.5959 14.0479C14.7948 14.0479 14.9855 13.9689 15.1262 13.8282C15.2668 13.6876 15.3459 13.4968 15.3459 13.2979V8.87609L18.25 7.22622V15.6239L10.7614 19.8362Z" fill="#B3BAC5"/>
</svg>
