<?xml version="1.0" encoding="UTF-8"?>
<svg width="272" height="166" viewBox="0 0 272 166" fill="none" xmlns="http://www.w3.org/2000/svg">
<ellipse cx="135.848" cy="159.514" rx="135.848" ry="5.51384" fill="#E6E6E6"/>
<path d="M146.486 94.2688C146.246 94.2688 146.045 94.2287 145.805 94.1485C145.245 93.9481 144.765 93.5073 144.564 92.9461L139.882 79.7598V160L197.956 128.056L197.996 62.6055L147.486 93.9882C147.206 94.1886 146.846 94.2688 146.486 94.2688Z" fill="#FDAF2A"/>
<path d="M128.595 94.1885C128.395 94.2286 128.195 94.2687 128.035 94.2687C127.674 94.2687 127.274 94.1485 126.954 93.9481L78.2849 62.6855L78.325 127.054L135.919 159.92V79.2386L129.836 93.0663C129.636 93.6274 129.155 94.0282 128.595 94.1885Z" fill="#FDAF2A"/>
<path d="M195.635 35.2304L137.921 0L80.1661 35.992L80.1261 36.032L137.2 71.9438L137.921 72.3847L195.915 35.3908L195.635 35.2304Z" fill="#FDC72E"/>
<path d="M133.678 74.469L78.2849 39.7596L77.0442 38.998L76.2838 40.481L74.2826 44.3287L70 52.6253L74.2826 55.3507L76.2838 56.6734L78.2849 57.956L127.154 89.2986L133.678 74.469Z" fill="#FDC72E"/>
<path d="M202.039 48.4165L200.038 42.5648L198.637 38.4365L198.036 38.7972L142.243 74.3884L147.526 89.2581L198.036 57.8754L200.038 56.6329L202.039 55.3904L204 54.188L202.039 48.4165Z" fill="#FDC72E"/>
<path d="M163 132.5C163 147.171 151.549 159 137.5 159C123.451 159 112 147.171 112 132.5C112 117.829 123.451 106 137.5 106C151.549 106 163 117.829 163 132.5Z" fill="#2E77EC" stroke="white" stroke-width="2"/>
<rect width="47" height="47" transform="translate(114 111)" fill="white" fill-opacity="0.01"/>
<path fill-rule="evenodd" clip-rule="evenodd" d="M137.5 146.25C136.981 146.25 136.483 146.043 136.115 145.676C135.748 145.309 135.542 144.811 135.542 144.291C135.542 143.772 135.748 143.274 136.115 142.907C136.483 142.539 136.981 142.333 137.5 142.333C138.019 142.333 138.517 142.539 138.885 142.907C139.252 143.274 139.458 143.772 139.458 144.291C139.458 144.811 139.252 145.309 138.885 145.676C138.517 146.043 138.019 146.25 137.5 146.25ZM133.583 128.625C133.583 129.144 133.377 129.642 133.01 130.009C132.642 130.377 132.144 130.583 131.625 130.583C131.106 130.583 130.608 130.377 130.24 130.009C129.873 129.642 129.667 129.144 129.667 128.625C129.667 128.105 129.873 127.607 130.24 127.24C130.608 126.873 131.106 126.666 131.625 126.666C132.144 126.666 132.642 126.873 133.01 127.24C133.377 127.607 133.583 128.105 133.583 128.625Z" fill="white"/>
<path fill-rule="evenodd" clip-rule="evenodd" d="M145.118 126.76C144.782 125.36 144.064 124.08 143.044 123.063C142.024 122.046 140.741 121.333 139.339 121.003C138.172 120.723 136.957 120.714 135.787 120.977C134.616 121.241 133.522 121.769 132.588 122.522C131.653 123.274 130.904 124.231 130.398 125.319C129.891 126.406 129.641 127.596 129.667 128.795C129.672 128.801 129.678 128.806 129.684 128.811L133.362 128.854L133.581 128.627C133.582 127.587 133.995 126.591 134.73 125.856C135.464 125.122 136.461 124.708 137.5 124.708C139.66 124.708 141.417 126.465 141.417 128.625C141.417 130.783 139.66 132.541 137.5 132.541H137.516C137.001 132.542 136.508 132.746 136.142 133.107C135.777 133.469 135.568 133.96 135.561 134.474V138.418C135.561 138.938 135.768 139.436 136.135 139.803C136.502 140.17 137 140.377 137.52 140.377C138.039 140.377 138.537 140.17 138.904 139.803C139.272 139.436 139.478 138.938 139.478 138.418V136.887C139.478 136.462 139.762 136.105 140.161 135.963C141.977 135.311 143.488 134.01 144.403 132.311C145.318 130.612 145.572 128.635 145.116 126.76" fill="white"/>
</svg>
