<?xml version="1.0" encoding="UTF-8"?>
<svg width="186" height="186" viewBox="0 0 186 186" fill="none" xmlns="http://www.w3.org/2000/svg">
<path fill-rule="evenodd" clip-rule="evenodd" d="M156.62 163.447H22.7916V29.4656H156.62V163.447ZM71.1858 48.2445C68.1247 48.2445 65.6431 50.726 65.6431 53.7871C65.6431 56.8482 68.1247 59.3298 71.1858 59.3298H108.222C111.283 59.3298 113.764 56.8482 113.764 53.7871C113.764 50.726 111.283 48.2445 108.222 48.2445H71.1858Z" fill="#FDDFA9"/>
<path d="M155.5 33.5944L163.086 41.1802C163.505 41.5995 163.986 41.8091 164.53 41.8091C165.073 41.8091 165.554 41.5935 165.973 41.1624C166.416 40.7314 166.637 40.2472 166.637 39.71C166.637 39.1728 166.416 38.6887 165.973 38.2576L158.388 30.7068L165.973 23.1209C166.393 22.7017 166.608 22.2204 166.62 21.6771C166.632 21.1338 166.416 20.6525 165.973 20.2333C165.545 19.7907 165.063 19.5694 164.53 19.5694C163.996 19.5694 163.515 19.7907 163.086 20.2333L155.5 27.8192L147.914 20.2333C147.495 19.8141 147.02 19.5987 146.488 19.587C145.956 19.5753 145.481 19.7907 145.062 20.2333C144.619 20.6621 144.398 21.1434 144.398 21.6771C144.398 22.2108 144.619 22.6921 145.062 23.1209L152.612 30.7068L145.027 38.2927C144.607 38.7119 144.398 39.1873 144.398 39.7189C144.398 40.2505 144.613 40.726 145.044 41.1452C145.475 41.5878 145.96 41.8091 146.497 41.8091C147.034 41.8091 147.518 41.5878 147.949 41.1452L155.5 33.5944ZM155.505 56.4115C151.968 56.4115 148.637 55.7422 145.511 54.4037C142.385 53.0651 139.654 51.2273 137.316 48.8903C134.979 46.5533 133.142 43.8234 131.803 40.7007C130.465 37.578 129.795 34.2483 129.795 30.7116C129.795 27.1336 130.465 23.7816 131.803 20.6557C133.142 17.5297 134.978 14.8079 137.311 12.4904C139.644 10.1728 142.373 8.33949 145.498 6.99049C148.622 5.64152 151.954 4.96704 155.492 4.96704C159.072 4.96704 162.427 5.64063 165.555 6.98782C168.684 8.33501 171.406 10.1658 173.722 12.4803C176.038 14.7948 177.87 17.5154 179.218 20.6423C180.566 23.7692 181.24 27.124 181.24 30.7068C181.24 34.2467 180.565 37.5794 179.216 40.705C177.867 43.8305 176.034 46.5604 173.716 48.8946C171.399 51.2288 168.679 53.0651 165.556 54.4037C162.433 55.7422 159.083 56.4115 155.505 56.4115V56.4115ZM155.5 51.4944C161.282 51.4944 166.193 49.4724 170.231 45.4283C174.269 41.3843 176.288 36.4771 176.288 30.7068C176.288 24.9245 174.269 20.0143 170.231 15.9762C166.193 11.9381 161.276 9.91909 155.482 9.91909C149.73 9.91909 144.83 11.9381 140.783 15.9762C136.736 20.0143 134.712 24.9303 134.712 30.7244C134.712 36.4769 136.734 41.3768 140.778 45.4239C144.823 49.471 149.73 51.4945 155.5 51.4945V51.4944Z" fill="#DF4535"/>
</svg>
