<?xml version="1.0" encoding="UTF-8"?>
<svg width="20" height="20" viewBox="0 0 20 20" fill="none" xmlns="http://www.w3.org/2000/svg">
<path d="M7.20639 13.5543L6.48902 16.3614C6.44553 16.5396 6.35208 16.686 6.20866 16.8007C6.06524 16.9155 5.90447 16.9728 5.72633 16.9728C5.46122 16.9728 5.24654 16.8709 5.08229 16.6671C4.91804 16.4633 4.87154 16.2289 4.94279 15.9638L5.55331 13.5543H3.24443C2.97933 13.5543 2.76315 13.4509 2.59587 13.2441C2.42861 13.0373 2.3806 12.8013 2.45185 12.5362C2.49533 12.3581 2.58833 12.2082 2.73085 12.0865C2.87336 11.9648 3.04456 11.904 3.24443 11.904H5.97179L6.92831 8.09602H4.61943C4.35433 8.09602 4.13815 7.99261 3.97087 7.78579C3.80361 7.57895 3.7556 7.34299 3.82685 7.07789C3.87033 6.89975 3.96333 6.74984 4.10585 6.62816C4.24836 6.50648 4.41956 6.44564 4.61943 6.44564H7.34679L8.03156 3.63858C8.07504 3.46044 8.16849 3.314 8.31191 3.19926C8.45533 3.08453 8.61611 3.02716 8.79424 3.02716C9.05936 3.02716 9.27056 3.12755 9.42787 3.32833C9.58518 3.52912 9.63515 3.75814 9.57779 4.01539L8.9881 6.44564H12.8051L13.4899 3.63858C13.5334 3.46044 13.6268 3.314 13.7702 3.19926C13.9137 3.08453 14.0744 3.02716 14.2526 3.02716C14.5177 3.02716 14.7289 3.12755 14.8862 3.32833C15.0435 3.52912 15.0935 3.75814 15.0361 4.01539L14.4464 6.44564H16.7553C17.0204 6.44564 17.2366 6.54905 17.4039 6.75587C17.5711 6.9627 17.6191 7.19867 17.5479 7.46376C17.5044 7.6419 17.4114 7.79181 17.2689 7.91349C17.1264 8.03518 16.9552 8.09602 16.7553 8.09602H14.0397L13.0714 11.904H15.3803C15.6454 11.904 15.8616 12.0074 16.0289 12.2142C16.1961 12.421 16.2441 12.657 16.1729 12.9221C16.1294 13.1002 16.0364 13.2501 15.8939 13.3718C15.7514 13.4935 15.5802 13.5543 15.3803 13.5543H12.6647L11.9473 16.3614C11.9039 16.5396 11.8104 16.686 11.667 16.8007C11.5236 16.9155 11.3628 16.9728 11.1847 16.9728C10.9195 16.9728 10.7049 16.8709 10.5406 16.6671C10.3764 16.4633 10.3299 16.2289 10.4011 15.9638L11.0116 13.5543H7.20639ZM7.6131 11.904H11.4301L12.3866 8.09602H8.58139L7.6131 11.904Z" fill="#9E9E9E"/>
</svg>
