<?xml version="1.0" encoding="UTF-8"?>
<svg width="24" height="24" viewBox="0 0 24 24" fill="none" xmlns="http://www.w3.org/2000/svg">
<path fill-rule="evenodd" clip-rule="evenodd" d="M4.79907 20.9998H17.5444V11.5828H4.79907V20.9998Z" fill="#DDDDDD"/>
<path fill-rule="evenodd" clip-rule="evenodd" d="M17.5195 20.9998H21.0154V11.5828H17.5195V20.9998Z" fill="#C6C6C6"/>
<path fill-rule="evenodd" clip-rule="evenodd" d="M4.06291 12.6749L17.9718 7.44694L16.7504 4.19751L2.84155 9.42544L4.06291 12.6749Z" fill="#EDEDED"/>
<path fill-rule="evenodd" clip-rule="evenodd" d="M17.8828 7.48067L21.1585 6.24942L19.9371 3L16.6614 4.23124L17.8828 7.48067Z" fill="#DDDDDD"/>
<path d="M13.4951 15.9941V11.3706H17.2999V15.9941C17.2999 16.0962 17.1541 16.1141 17.1293 16.0151L17.1096 15.9363C17.0601 15.7382 16.7787 15.7382 16.7292 15.9363C16.6796 16.1344 16.3982 16.1344 16.3487 15.9363C16.2991 15.7382 16.0177 15.7382 15.9682 15.9363C15.9187 16.1344 15.6373 16.1344 15.5877 15.9363C15.5382 15.7382 15.2568 15.7382 15.2073 15.9363C15.1577 16.1344 14.8763 16.1344 14.8268 15.9363C14.7772 15.7382 14.4958 15.7382 14.4463 15.9363C14.3968 16.1344 14.1154 16.1344 14.0658 15.9363C14.0163 15.7382 13.7349 15.7382 13.6854 15.9363L13.6656 16.0151C13.6409 16.1141 13.4951 16.0962 13.4951 15.9941Z" fill="#FFB000"/>
</svg>
