<?xml version="1.0" encoding="UTF-8"?>
<svg width="272" height="161" viewBox="0 0 272 161" fill="none" xmlns="http://www.w3.org/2000/svg">
<ellipse cx="135.848" cy="155.425" rx="135.848" ry="5.51384" fill="#E6E6E6"/>
<path fill-rule="evenodd" clip-rule="evenodd" d="M220.474 155L130.737 0L41 155H220.474ZM138.895 130.526H122.579V114.21H138.895V130.526ZM122.579 97.8944H138.895V65.2628H122.579V97.8944Z" fill="#DE350B"/>
<mask id="mask0" mask-type="alpha" maskUnits="userSpaceOnUse" x="41" y="0" width="180" height="155">
<path fill-rule="evenodd" clip-rule="evenodd" d="M220.474 155L130.737 0L41 155H220.474ZM138.895 130.526H122.579V114.21H138.895V130.526ZM122.579 97.8944H138.895V65.2628H122.579V97.8944Z" fill="white"/>
</mask>
<g mask="url(#mask0)">
</g>
<g clip-path="url(#clip0)">
<rect x="176" y="121.573" width="65.9091" height="35.72" rx="3" transform="rotate(-20 176 121.573)" fill="#006644"/>
<path d="M181.334 124.072L180.992 123.132C180.473 123.321 180.206 123.895 180.395 124.414L181.334 124.072ZM191.559 120.35L191.901 121.29L191.559 120.35ZM192.029 120.179L192.968 119.837C192.878 119.588 192.692 119.385 192.451 119.273C192.211 119.161 191.936 119.149 191.687 119.24L192.029 120.179ZM192.371 121.119L192.713 122.059C193.232 121.87 193.499 121.296 193.31 120.777L192.371 121.119ZM191.901 121.29L192.243 122.23L191.901 121.29ZM182.616 124.669L182.274 123.73C181.755 123.918 181.488 124.492 181.676 125.011L182.616 124.669ZM191.555 149.229L190.615 149.571C190.804 150.09 191.378 150.357 191.897 150.168L191.555 149.229ZM200.84 145.849L200.498 144.91L200.84 145.849ZM201.31 145.678L202.249 145.336C202.06 144.817 201.486 144.55 200.967 144.739L201.31 145.678ZM201.652 146.618L201.994 147.558C202.513 147.369 202.78 146.795 202.591 146.276L201.652 146.618ZM201.182 146.789L201.524 147.729L201.182 146.789ZM191.897 150.168L191.555 149.229L191.897 150.168ZM190.957 150.51L190.018 150.852C190.207 151.371 190.78 151.639 191.299 151.45L190.957 150.51ZM182.616 124.669L182.445 124.199L180.566 124.883L180.737 125.353L182.616 124.669ZM182.445 124.199L182.274 123.73L180.395 124.414L180.566 124.883L182.445 124.199ZM181.676 125.011L182.146 124.84L181.462 122.961L180.992 123.132L181.676 125.011ZM182.146 124.84L182.616 124.669L181.932 122.79L181.462 122.961L182.146 124.84ZM191.217 119.411L181.932 122.79L182.616 124.669L191.901 121.29L191.217 119.411ZM191.687 119.24L191.217 119.411L191.901 121.29L192.371 121.119L191.687 119.24ZM193.31 120.777L192.968 119.837L191.089 120.521L191.431 121.461L193.31 120.777ZM192.243 122.23L192.713 122.059L192.029 120.179L191.559 120.35L192.243 122.23ZM182.958 125.609L192.243 122.23L191.559 120.35L182.274 123.73L182.958 125.609ZM181.676 125.011L190.615 149.571L192.495 148.887L183.556 124.327L181.676 125.011ZM200.498 144.91L191.213 148.289L191.897 150.168L201.182 146.789L200.498 144.91ZM200.967 144.739L200.498 144.91L201.182 146.789L201.652 146.618L200.967 144.739ZM202.591 146.276L202.249 145.336L200.37 146.02L200.712 146.96L202.591 146.276ZM201.524 147.729L201.994 147.558L201.31 145.678L200.84 145.849L201.524 147.729ZM192.239 151.108L201.524 147.729L200.84 145.849L191.555 149.229L192.239 151.108ZM191.555 149.229L191.085 149.4L191.769 151.279L192.239 151.108L191.555 149.229ZM191.085 149.4L190.615 149.571L191.299 151.45L191.769 151.279L191.085 149.4ZM191.897 150.168L191.726 149.699L189.847 150.383L190.018 150.852L191.897 150.168ZM191.726 149.699L191.555 149.229L189.676 149.913L189.847 150.383L191.726 149.699ZM191.555 149.229L182.616 124.669L180.737 125.353L189.676 149.913L191.555 149.229Z" fill="#379EFC"/>
<path d="M235.454 104.374L235.112 103.434C235.631 103.245 236.205 103.513 236.393 104.032L235.454 104.374ZM234.514 104.716L234.172 103.776L234.514 104.716ZM225.229 108.095L225.572 109.035L225.229 108.095ZM224.76 108.266L223.82 108.608C223.631 108.089 223.899 107.515 224.418 107.326L224.76 108.266ZM225.102 109.206L225.444 110.145C224.925 110.334 224.351 110.067 224.162 109.548L225.102 109.206ZM225.572 109.035L225.914 109.974L225.572 109.035ZM234.856 105.655L234.514 104.716C234.763 104.625 235.038 104.637 235.279 104.749C235.519 104.861 235.705 105.064 235.796 105.313L234.856 105.655ZM243.795 130.215L244.735 129.873C244.924 130.392 244.656 130.966 244.137 131.155L243.795 130.215ZM234.51 133.594L234.852 134.534L234.51 133.594ZM234.041 133.765L233.101 134.107C233.01 133.858 233.022 133.583 233.134 133.343C233.246 133.102 233.449 132.916 233.699 132.826L234.041 133.765ZM234.383 134.705L234.725 135.645C234.206 135.834 233.632 135.566 233.443 135.047L234.383 134.705ZM234.852 134.534L235.195 135.474L234.852 134.534ZM245.077 130.813L246.016 130.471C246.205 130.99 245.938 131.564 245.419 131.752L245.077 130.813ZM244.906 130.343L245.845 130.001L244.906 130.343ZM244.735 129.873L243.795 130.215L244.735 129.873ZM234.856 105.655L234.685 105.186L236.564 104.502L236.735 104.971L234.856 105.655ZM234.685 105.186L234.514 104.716L236.393 104.032L236.564 104.502L234.685 105.186ZM235.796 105.313L235.326 105.484L234.642 103.605L235.112 103.434L235.796 105.313ZM235.326 105.484L234.856 105.655L234.172 103.776L234.642 103.605L235.326 105.484ZM224.887 107.155L234.172 103.776L234.856 105.655L225.572 109.035L224.887 107.155ZM224.418 107.326L224.887 107.155L225.572 109.035L225.102 109.206L224.418 107.326ZM224.162 109.548L223.82 108.608L225.699 107.924L226.041 108.864L224.162 109.548ZM225.914 109.974L225.444 110.145L224.76 108.266L225.229 108.095L225.914 109.974ZM235.198 106.595L225.914 109.974L225.229 108.095L234.514 104.716L235.198 106.595ZM235.796 105.313L244.735 129.873L242.855 130.557L233.916 105.998L235.796 105.313ZM234.168 132.655L243.453 129.275L244.137 131.155L234.852 134.534L234.168 132.655ZM233.699 132.826L234.168 132.655L234.852 134.534L234.383 134.705L233.699 132.826ZM233.443 135.047L233.101 134.107L234.98 133.423L235.322 134.363L233.443 135.047ZM235.195 135.474L234.725 135.645L234.041 133.765L234.51 133.594L235.195 135.474ZM244.479 132.094L235.195 135.474L234.51 133.594L243.795 130.215L244.479 132.094ZM243.795 130.215L244.265 130.044L244.949 131.923L244.479 132.094L243.795 130.215ZM244.265 130.044L244.735 129.873L245.419 131.752L244.949 131.923L244.265 130.044ZM244.137 131.155L243.966 130.685L245.845 130.001L246.016 130.471L244.137 131.155ZM243.966 130.685L243.795 130.215L245.674 129.531L245.845 130.001L243.966 130.685ZM243.795 130.215L234.856 105.655L236.735 104.971L245.674 129.531L243.795 130.215Z" fill="#00875A"/>
<ellipse cx="213.076" cy="127.085" rx="10.9848" ry="11.02" transform="rotate(-20 213.076 127.085)" fill="#00875A"/>
<path d="M217.506 118.203L214.907 119.149C215.593 119.573 216.155 120.191 216.592 121.005L218.806 120.199L218.932 122.124L217.259 122.733C217.602 124.088 217.443 125.26 216.78 126.249C216.118 127.239 214.982 128.026 213.375 128.611L221.096 132.934L221.144 133.066L218.645 133.976L210.335 129.306L209.823 127.933L212.565 126.935C213.48 126.594 214.153 126.124 214.584 125.527C215.013 124.922 215.181 124.254 215.089 123.522L208.713 125.843L208.587 123.919L214.434 121.79C213.574 120.524 212.23 120.19 210.403 120.788L207.308 121.915L207.193 119.986L217.379 116.279L217.506 118.203Z" fill="#006644"/>
</g>
<g clip-path="url(#clip1)">
<rect x="180.121" y="119.105" width="65.9091" height="35.72" rx="3" fill="#00875A"/>
<path d="M184.279 123.277V122.277C183.727 122.277 183.279 122.725 183.279 123.277H184.279ZM195.66 123.277H196.66C196.66 122.725 196.212 122.277 195.66 122.277V123.277ZM195.66 124.277V125.277C196.212 125.277 196.66 124.83 196.66 124.277H195.66ZM185.279 124.277V123.277C184.727 123.277 184.279 123.725 184.279 124.277H185.279ZM185.279 150.413H184.279C184.279 150.965 184.727 151.413 185.279 151.413V150.413ZM195.66 150.413H196.66C196.66 149.861 196.212 149.413 195.66 149.413V150.413ZM195.66 151.413V152.413C196.212 152.413 196.66 151.965 196.66 151.413H195.66ZM184.279 151.413H183.279C183.279 151.965 183.727 152.413 184.279 152.413V151.413ZM185.279 124.277V123.777H183.279V124.277H185.279ZM185.279 123.777V123.277H183.279V123.777H185.279ZM184.279 124.277H184.779V122.277H184.279V124.277ZM184.779 124.277H185.279V122.277H184.779V124.277ZM195.16 122.277H185.279V124.277H195.16V122.277ZM195.66 122.277H195.16V124.277H195.66V122.277ZM196.66 124.277V123.277H194.66V124.277H196.66ZM195.16 125.277H195.66V123.277H195.16V125.277ZM185.279 125.277H195.16V123.277H185.279V125.277ZM184.279 124.277V150.413H186.279V124.277H184.279ZM195.16 149.413H185.279V151.413H195.16V149.413ZM195.66 149.413H195.16V151.413H195.66V149.413ZM196.66 151.413V150.413H194.66V151.413H196.66ZM195.16 152.413H195.66V150.413H195.16V152.413ZM185.279 152.413H195.16V150.413H185.279V152.413ZM185.279 150.413H184.779V152.413H185.279V150.413ZM184.779 150.413H184.279V152.413H184.779V150.413ZM185.279 151.413V150.913H183.279V151.413H185.279ZM185.279 150.913V150.413H183.279V150.913H185.279ZM185.279 150.413V124.277H183.279V150.413H185.279Z" fill="#36B37E"/>
<path fill-rule="evenodd" clip-rule="evenodd" d="M241.872 124.277V123.777V123.277H241.372H240.872H230.991H230.491V124.277H230.991H240.872V150.413H230.991H230.491V151.413H230.991H240.872H241.372H241.872V150.913V150.413V124.277Z" fill="#36B37E"/>
<path d="M241.872 123.277V122.277C242.424 122.277 242.872 122.725 242.872 123.277H241.872ZM230.491 123.277H229.491C229.491 122.725 229.939 122.277 230.491 122.277V123.277ZM230.491 124.277V125.277C229.939 125.277 229.491 124.83 229.491 124.277H230.491ZM240.872 124.277V123.277C241.424 123.277 241.872 123.725 241.872 124.277H240.872ZM240.872 150.413H241.872C241.872 150.965 241.424 151.413 240.872 151.413V150.413ZM230.491 150.413H229.491C229.491 149.861 229.939 149.413 230.491 149.413V150.413ZM230.491 151.413V152.413C229.939 152.413 229.491 151.965 229.491 151.413H230.491ZM241.872 151.413H242.872C242.872 151.965 242.424 152.413 241.872 152.413V151.413ZM240.872 124.277V123.777H242.872V124.277H240.872ZM240.872 123.777V123.277H242.872V123.777H240.872ZM241.872 124.277H241.372V122.277H241.872V124.277ZM241.372 124.277H240.872V122.277H241.372V124.277ZM230.991 122.277H240.872V124.277H230.991V122.277ZM230.491 122.277H230.991V124.277H230.491V122.277ZM229.491 124.277V123.277H231.491V124.277H229.491ZM230.991 125.277H230.491V123.277H230.991V125.277ZM240.872 125.277H230.991V123.277H240.872V125.277ZM241.872 124.277V150.413H239.872V124.277H241.872ZM230.991 149.413H240.872V151.413H230.991V149.413ZM230.491 149.413H230.991V151.413H230.491V149.413ZM229.491 151.413V150.413H231.491V151.413H229.491ZM230.991 152.413H230.491V150.413H230.991V152.413ZM240.872 152.413H230.991V150.413H240.872V152.413ZM240.872 150.413H241.372V152.413H240.872V150.413ZM241.372 150.413H241.872V152.413H241.372V150.413ZM240.872 151.413V150.913H242.872V151.413H240.872ZM240.872 150.913V150.413H242.872V150.913H240.872ZM240.872 150.413V124.277H242.872V150.413H240.872Z" fill="#36B37E"/>
<ellipse cx="213.076" cy="136.965" rx="10.9848" ry="11.02" fill="#36B37E"/>
<path d="M218.367 130.789H215.602C216.102 131.422 216.418 132.195 216.551 133.109H218.906L218.367 134.961H216.586C216.445 136.352 215.895 137.398 214.934 138.102C213.973 138.805 212.637 139.156 210.926 139.156L216.703 145.859V146H214.043L207.832 138.77L207.82 137.305H210.738C211.715 137.297 212.508 137.086 213.117 136.672C213.727 136.25 214.113 135.68 214.277 134.961H207.492L208.031 133.109H214.254C213.879 131.625 212.73 130.852 210.809 130.789H207.516L208.066 128.938H218.906L218.367 130.789Z" fill="#006644"/>
</g>
<defs>
<clipPath id="clip0">
<rect width="66" height="36" fill="white" transform="translate(176 121.573) rotate(-20)"/>
</clipPath>
<clipPath id="clip1">
<rect width="66" height="36" fill="white" transform="translate(180.121 119.105)"/>
</clipPath>
</defs>
</svg>
