<?xml version="1.0" encoding="UTF-8"?>
<svg width="272" height="155" viewBox="0 0 272 155" fill="none" xmlns="http://www.w3.org/2000/svg">
<ellipse cx="135.848" cy="149.426" rx="135.848" ry="5.51384" fill="#E6E6E6"/>
<ellipse cx="140.454" cy="85.5849" rx="64.4061" ry="64.4823" fill="#3F3D56"/>
<ellipse cx="140.454" cy="85.5849" rx="59.0744" ry="59.1444" fill="white"/>
<ellipse cx="140.24" cy="85.7985" rx="7.8908" ry="7.90016" fill="#3F3D56"/>
<rect x="138.534" y="29.4298" width="3.41223" height="6.40553" fill="#3F3D56"/>
<rect x="138.534" y="135.762" width="3.41223" height="6.40552" fill="#3F3D56"/>
<rect x="90.3363" y="84.0903" width="3.41631" height="6.39795" transform="rotate(90 90.3363 84.0903)" fill="#3F3D56"/>
<path d="M137.966 89.228L140.882 82.5522L177.421 102.813L137.966 89.228Z" fill="#3F3D56"/>
<g clip-path="url(#clip0)">
<rect x="161" y="115.573" width="65.9091" height="35.72" rx="3" transform="rotate(-20 161 115.573)" fill="#006644"/>
<path d="M166.676 119.011L165.737 119.353L166.676 119.011ZM166.505 118.542L167.445 118.199L166.505 118.542ZM166.334 118.072L165.992 117.132C165.473 117.321 165.206 117.895 165.395 118.414L166.334 118.072ZM176.559 114.35L176.901 115.29L176.559 114.35ZM177.029 114.179L177.968 113.837C177.878 113.588 177.692 113.385 177.451 113.273C177.211 113.161 176.936 113.149 176.687 113.24L177.029 114.179ZM177.371 115.119L177.713 116.059C178.232 115.87 178.499 115.296 178.31 114.777L177.371 115.119ZM167.616 118.669L167.274 117.73C166.755 117.919 166.488 118.492 166.676 119.011L167.616 118.669ZM176.555 143.229L175.615 143.571C175.804 144.09 176.378 144.357 176.897 144.169L176.555 143.229ZM186.31 139.679L187.249 139.337C187.06 138.818 186.486 138.55 185.967 138.739L186.31 139.679ZM186.652 140.618L186.994 141.558C187.243 141.467 187.446 141.281 187.558 141.041C187.67 140.801 187.682 140.525 187.591 140.276L186.652 140.618ZM186.182 140.789L185.84 139.85L186.182 140.789ZM176.897 144.169L177.239 145.108L176.897 144.169ZM176.427 144.34L176.085 143.4L176.427 144.34ZM175.957 144.511L175.018 144.853C175.108 145.102 175.294 145.305 175.535 145.417C175.775 145.529 176.05 145.541 176.299 145.45L175.957 144.511ZM175.786 144.041L174.847 144.383L175.786 144.041ZM175.615 143.571L176.555 143.229L175.615 143.571ZM167.616 118.669L167.445 118.199L165.566 118.884L165.737 119.353L167.616 118.669ZM167.445 118.199L167.274 117.73L165.395 118.414L165.566 118.884L167.445 118.199ZM166.676 119.011L167.146 118.84L166.462 116.961L165.992 117.132L166.676 119.011ZM167.146 118.84L167.616 118.669L166.932 116.79L166.462 116.961L167.146 118.84ZM176.217 113.411L166.932 116.79L167.616 118.669L176.901 115.29L176.217 113.411ZM176.687 113.24L176.217 113.411L176.901 115.29L177.371 115.119L176.687 113.24ZM178.31 114.777L177.968 113.837L176.089 114.521L176.431 115.461L178.31 114.777ZM177.243 116.23L177.713 116.059L177.029 114.179L176.559 114.35L177.243 116.23ZM167.958 119.609L177.243 116.23L176.559 114.35L167.274 117.73L167.958 119.609ZM166.676 119.011L175.615 143.571L177.495 142.887L168.556 118.327L166.676 119.011ZM185.498 138.91L176.213 142.289L176.897 144.169L186.182 140.789L185.498 138.91ZM185.967 138.739L185.498 138.91L186.182 140.789L186.652 140.618L185.967 138.739ZM187.591 140.276L187.249 139.337L185.37 140.021L185.712 140.96L187.591 140.276ZM186.524 141.729L186.994 141.558L186.31 139.679L185.84 139.85L186.524 141.729ZM177.239 145.108L186.524 141.729L185.84 139.85L176.555 143.229L177.239 145.108ZM176.555 143.229L176.085 143.4L176.769 145.279L177.239 145.108L176.555 143.229ZM176.085 143.4L175.615 143.571L176.299 145.45L176.769 145.279L176.085 143.4ZM176.897 144.169L176.726 143.699L174.847 144.383L175.018 144.853L176.897 144.169ZM176.726 143.699L176.555 143.229L174.676 143.913L174.847 144.383L176.726 143.699ZM176.555 143.229L167.616 118.669L165.737 119.353L174.676 143.913L176.555 143.229Z" fill="#379EFC"/>
<path d="M220.454 98.3739L220.112 97.4342C220.631 97.2453 221.205 97.5129 221.393 98.0319L220.454 98.3739ZM209.76 102.266L208.82 102.608C208.631 102.089 208.899 101.515 209.418 101.327L209.76 102.266ZM210.102 103.206L210.444 104.146C209.925 104.335 209.351 104.067 209.162 103.548L210.102 103.206ZM219.856 99.6556L219.514 98.7159C220.033 98.527 220.607 98.7946 220.796 99.3136L219.856 99.6556ZM228.795 124.215L229.735 123.873C229.924 124.392 229.656 124.966 229.137 125.155L228.795 124.215ZM219.041 127.765L218.101 128.108C217.912 127.589 218.18 127.015 218.699 126.826L219.041 127.765ZM219.383 128.705L219.725 129.645C219.206 129.834 218.632 129.566 218.443 129.047L219.383 128.705ZM230.077 124.813L231.016 124.471C231.205 124.99 230.938 125.564 230.419 125.753L230.077 124.813ZM219.856 99.6556L219.685 99.1858L221.564 98.5017L221.735 98.9716L219.856 99.6556ZM219.685 99.1858L219.514 98.7159L221.393 98.0319L221.564 98.5017L219.685 99.1858ZM220.796 99.3136L220.326 99.4846L219.642 97.6052L220.112 97.4342L220.796 99.3136ZM220.326 99.4846L219.856 99.6556L219.172 97.7762L219.642 97.6052L220.326 99.4846ZM209.887 101.156L219.172 97.7762L219.856 99.6556L210.572 103.035L209.887 101.156ZM209.418 101.327L209.887 101.156L210.572 103.035L210.102 103.206L209.418 101.327ZM209.162 103.548L208.82 102.608L210.699 101.924L211.041 102.864L209.162 103.548ZM210.914 103.975L210.444 104.146L209.76 102.266L210.229 102.095L210.914 103.975ZM220.198 100.595L210.914 103.975L210.229 102.095L219.514 98.7159L220.198 100.595ZM220.796 99.3136L229.735 123.873L227.855 124.557L218.916 99.9976L220.796 99.3136ZM219.168 126.655L228.453 123.275L229.137 125.155L219.852 128.534L219.168 126.655ZM218.699 126.826L219.168 126.655L219.852 128.534L219.383 128.705L218.699 126.826ZM218.443 129.047L218.101 128.108L219.98 127.423L220.322 128.363L218.443 129.047ZM220.195 129.474L219.725 129.645L219.041 127.765L219.51 127.594L220.195 129.474ZM229.479 126.095L220.195 129.474L219.51 127.594L228.795 124.215L229.479 126.095ZM228.795 124.215L229.265 124.044L229.949 125.924L229.479 126.095L228.795 124.215ZM229.265 124.044L229.735 123.873L230.419 125.753L229.949 125.924L229.265 124.044ZM229.137 125.155L228.966 124.685L230.845 124.001L231.016 124.471L229.137 125.155ZM228.966 124.685L228.795 124.215L230.674 123.531L230.845 124.001L228.966 124.685ZM228.795 124.215L219.856 99.6556L221.735 98.9716L230.674 123.531L228.795 124.215Z" fill="#00875A"/>
<ellipse cx="198.076" cy="121.085" rx="10.9848" ry="11.02" transform="rotate(-20 198.076 121.085)" fill="#00875A"/>
<path d="M202.506 112.204L199.907 113.149C200.593 113.573 201.155 114.192 201.592 115.005L203.806 114.2L203.932 116.124L202.259 116.733C202.602 118.088 202.443 119.26 201.78 120.249C201.118 121.239 199.982 122.026 198.375 122.611L206.096 126.934L206.144 127.066L203.645 127.976L195.335 123.306L194.823 121.933L197.565 120.935C198.48 120.594 199.153 120.125 199.584 119.527C200.013 118.922 200.181 118.254 200.089 117.523L193.713 119.843L193.587 117.919L199.434 115.791C198.574 114.524 197.23 114.19 195.403 114.789L192.308 115.915L192.193 113.987L202.379 110.279L202.506 112.204Z" fill="#006644"/>
</g>
<g clip-path="url(#clip1)">
<rect x="165.121" y="113.105" width="65.9091" height="35.72" rx="3" fill="#00875A"/>
<path d="M169.279 117.277V116.277C168.727 116.277 168.279 116.725 168.279 117.277H169.279ZM180.66 117.277H181.66C181.66 116.725 181.212 116.277 180.66 116.277V117.277ZM180.66 118.277V119.277C181.212 119.277 181.66 118.83 181.66 118.277H180.66ZM170.279 118.277V117.277C169.727 117.277 169.279 117.725 169.279 118.277H170.279ZM170.279 144.413H169.279C169.279 144.965 169.727 145.413 170.279 145.413V144.413ZM180.66 144.413H181.66C181.66 143.861 181.212 143.413 180.66 143.413V144.413ZM180.66 145.413V146.413C181.212 146.413 181.66 145.965 181.66 145.413H180.66ZM169.279 145.413H168.279C168.279 145.965 168.727 146.413 169.279 146.413V145.413ZM170.279 118.277V117.777H168.279V118.277H170.279ZM170.279 117.777V117.277H168.279V117.777H170.279ZM169.279 118.277H169.779V116.277H169.279V118.277ZM169.779 118.277H170.279V116.277H169.779V118.277ZM180.16 116.277H170.279V118.277H180.16V116.277ZM180.66 116.277H180.16V118.277H180.66V116.277ZM181.66 118.277V117.277H179.66V118.277H181.66ZM180.16 119.277H180.66V117.277H180.16V119.277ZM170.279 119.277H180.16V117.277H170.279V119.277ZM169.279 118.277V144.413H171.279V118.277H169.279ZM180.16 143.413H170.279V145.413H180.16V143.413ZM180.66 143.413H180.16V145.413H180.66V143.413ZM181.66 145.413V144.413H179.66V145.413H181.66ZM180.16 146.413H180.66V144.413H180.16V146.413ZM170.279 146.413H180.16V144.413H170.279V146.413ZM170.279 144.413H169.779V146.413H170.279V144.413ZM169.779 144.413H169.279V146.413H169.779V144.413ZM170.279 145.413V144.913H168.279V145.413H170.279ZM170.279 144.913V144.413H168.279V144.913H170.279ZM170.279 144.413V118.277H168.279V144.413H170.279Z" fill="#36B37E"/>
<path fill-rule="evenodd" clip-rule="evenodd" d="M226.872 118.277V117.777V117.277H226.372H225.872H215.991H215.491V118.277H215.991H225.872V144.413H215.991H215.491V145.413H215.991H225.872H226.372H226.872V144.913V144.413V118.277Z" fill="#36B37E"/>
<path d="M226.872 117.277V116.277C227.424 116.277 227.872 116.725 227.872 117.277H226.872ZM215.491 117.277H214.491C214.491 116.725 214.939 116.277 215.491 116.277V117.277ZM215.491 118.277V119.277C214.939 119.277 214.491 118.83 214.491 118.277H215.491ZM225.872 118.277V117.277C226.424 117.277 226.872 117.725 226.872 118.277H225.872ZM225.872 144.413H226.872C226.872 144.965 226.424 145.413 225.872 145.413V144.413ZM215.491 144.413H214.491C214.491 143.861 214.939 143.413 215.491 143.413V144.413ZM215.491 145.413V146.413C214.939 146.413 214.491 145.965 214.491 145.413H215.491ZM226.872 145.413H227.872C227.872 145.965 227.424 146.413 226.872 146.413V145.413ZM225.872 118.277V117.777H227.872V118.277H225.872ZM225.872 117.777V117.277H227.872V117.777H225.872ZM226.872 118.277H226.372V116.277H226.872V118.277ZM226.372 118.277H225.872V116.277H226.372V118.277ZM215.991 116.277H225.872V118.277H215.991V116.277ZM215.491 116.277H215.991V118.277H215.491V116.277ZM214.491 118.277V117.277H216.491V118.277H214.491ZM215.991 119.277H215.491V117.277H215.991V119.277ZM225.872 119.277H215.991V117.277H225.872V119.277ZM226.872 118.277V144.413H224.872V118.277H226.872ZM215.991 143.413H225.872V145.413H215.991V143.413ZM215.491 143.413H215.991V145.413H215.491V143.413ZM214.491 145.413V144.413H216.491V145.413H214.491ZM215.991 146.413H215.491V144.413H215.991V146.413ZM225.872 146.413H215.991V144.413H225.872V146.413ZM225.872 144.413H226.372V146.413H225.872V144.413ZM226.372 144.413H226.872V146.413H226.372V144.413ZM225.872 145.413V144.913H227.872V145.413H225.872ZM225.872 144.913V144.413H227.872V144.913H225.872ZM225.872 144.413V118.277H227.872V144.413H225.872Z" fill="#36B37E"/>
<ellipse cx="198.076" cy="130.965" rx="10.9848" ry="11.02" fill="#36B37E"/>
<path d="M203.367 124.789H200.602C201.102 125.422 201.418 126.195 201.551 127.109H203.906L203.367 128.961H201.586C201.445 130.352 200.895 131.398 199.934 132.102C198.973 132.805 197.637 133.156 195.926 133.156L201.703 139.859V140H199.043L192.832 132.77L192.82 131.305H195.738C196.715 131.297 197.508 131.086 198.117 130.672C198.727 130.25 199.113 129.68 199.277 128.961H192.492L193.031 127.109H199.254C198.879 125.625 197.73 124.852 195.809 124.789H192.516L193.066 122.938H203.906L203.367 124.789Z" fill="#006644"/>
</g>
<path d="M142.847 84.6793L135.566 84.4502L140.813 43L142.847 84.6793Z" fill="#3F3D56"/>
<defs>
<clipPath id="clip0">
<rect width="66" height="36" fill="white" transform="translate(161 115.573) rotate(-20)"/>
</clipPath>
<clipPath id="clip1">
<rect width="66" height="36" fill="white" transform="translate(165.121 113.105)"/>
</clipPath>
</defs>
</svg>
