<?xml version="1.0" encoding="UTF-8"?>
<svg width="272" height="159" viewBox="0 0 272 159" fill="none" xmlns="http://www.w3.org/2000/svg">
<ellipse cx="135.848" cy="152.514" rx="135.848" ry="5.51384" fill="#E6E6E6"/>
<path d="M158.393 35.6405H157.569V13.0657C157.569 11.3499 157.231 9.65089 156.574 8.06568C155.918 6.48048 154.955 5.04012 153.742 3.82686C152.529 2.6136 151.088 1.65119 149.503 0.994572C147.918 0.337958 146.219 1.45377e-06 144.503 0H96.6732C93.2079 -6.60593e-06 89.8845 1.37655 87.4341 3.82683C84.9837 6.27712 83.6071 9.60043 83.6071 13.0657V136.913C83.6071 138.629 83.945 140.328 84.6017 141.913C85.2583 143.498 86.2208 144.939 87.4341 146.152C88.6474 147.365 90.0878 148.327 91.673 148.984C93.2583 149.641 94.9573 149.979 96.6732 149.979H144.503C147.968 149.979 151.291 148.602 153.742 146.152C156.192 143.702 157.569 140.378 157.569 136.913V51.7097H158.393V35.6405Z" fill="#3F3D56"/>
<path d="M145.03 3.39923H138.787C139.074 4.10312 139.183 4.86681 139.106 5.62303C139.028 6.37925 138.766 7.1048 138.342 7.73574C137.918 8.36668 137.345 8.88366 136.674 9.24114C136.003 9.59862 135.255 9.78563 134.494 9.78569H107.094C106.333 9.78563 105.585 9.59863 104.914 9.24115C104.243 8.88367 103.67 8.36669 103.246 7.73574C102.822 7.1048 102.56 6.37926 102.482 5.62304C102.405 4.86682 102.514 4.10312 102.801 3.39923H96.9701C95.6887 3.39923 94.4198 3.65161 93.236 4.14196C92.0521 4.63231 90.9765 5.35103 90.0704 6.25708C89.1643 7.16313 88.4455 8.23877 87.9552 9.42258C87.4648 10.6064 87.2124 11.8752 87.2124 13.1565V136.822C87.2124 138.103 87.4648 139.372 87.9552 140.556C88.4455 141.74 89.1643 142.816 90.0704 143.722C90.9764 144.628 92.0521 145.346 93.236 145.837C94.4198 146.327 95.6887 146.579 96.9701 146.579H145.03C146.311 146.579 147.58 146.327 148.764 145.837C149.948 145.346 151.024 144.628 151.93 143.722C152.836 142.816 153.554 141.74 154.045 140.556C154.535 139.372 154.788 138.103 154.788 136.822V13.1565C154.788 11.8752 154.535 10.6064 154.045 9.42258C153.554 8.23877 152.836 7.16313 151.93 6.25708C151.024 5.35103 149.948 4.63231 148.764 4.14196C147.58 3.65161 146.311 3.39923 145.03 3.39923Z" fill="white"/>
<path d="M121.37 105.74C138.143 105.74 151.74 92.1429 151.74 75.37C151.74 58.5971 138.143 45 121.37 45C104.597 45 91 58.5971 91 75.37C91 92.1429 104.597 105.74 121.37 105.74Z" fill="#E4FCF2"/>
<path d="M121.372 98.7414C134.279 98.7414 144.743 88.278 144.743 75.3707C144.743 62.4634 134.279 52 121.372 52C108.464 52 98 62.4634 98 75.3707C98 88.278 108.464 98.7414 121.372 98.7414Z" fill="#006644"/>
<path d="M118.933 84.7746C118.407 84.7755 117.895 84.6054 117.475 84.2899L117.448 84.2704L111.956 80.0688C111.701 79.8738 111.488 79.6306 111.328 79.3531C111.167 79.0756 111.063 78.7692 111.021 78.4514C110.979 78.1336 111 77.8107 111.083 77.5011C111.166 77.1914 111.309 76.9011 111.504 76.6468C111.699 76.3924 111.942 76.1789 112.22 76.0185C112.497 75.8581 112.803 75.754 113.121 75.712C113.439 75.67 113.762 75.6911 114.072 75.7739C114.381 75.8567 114.672 75.9997 114.926 76.1947L118.484 78.9228L126.891 67.9554C127.086 67.7011 127.329 67.4877 127.606 67.3274C127.884 67.1671 128.19 67.063 128.507 67.021C128.825 66.9791 129.148 67.0001 129.457 67.0829C129.767 67.1657 130.057 67.3086 130.311 67.5035L130.312 67.5041L130.26 67.5765L130.314 67.5041C130.827 67.8983 131.162 68.48 131.247 69.1214C131.331 69.7628 131.158 70.4116 130.765 70.9254L120.876 83.8198C120.648 84.1169 120.353 84.3573 120.017 84.5224C119.68 84.6875 119.31 84.7728 118.935 84.7717L118.933 84.7746Z" fill="white"/>
<g clip-path="url(#clip0)">
<rect x="137" y="119.573" width="65.9091" height="35.72" rx="3" transform="rotate(-20 137 119.573)" fill="#006644"/>
<path d="M142.676 123.011L141.737 123.353L142.676 123.011ZM142.505 122.541L143.445 122.199L142.505 122.541ZM142.334 122.072L141.992 121.132C141.473 121.321 141.206 121.895 141.395 122.414L142.334 122.072ZM142.804 121.901L142.462 120.961L142.804 121.901ZM143.274 121.73L142.932 120.79L143.274 121.73ZM152.559 118.35L152.901 119.29L152.559 118.35ZM153.029 118.179L153.968 117.837C153.779 117.318 153.205 117.051 152.687 117.24L153.029 118.179ZM153.371 119.119L153.713 120.059C153.962 119.968 154.165 119.782 154.277 119.542C154.389 119.301 154.401 119.026 154.31 118.777L153.371 119.119ZM143.616 122.669L143.274 121.73C142.755 121.918 142.488 122.492 142.676 123.011L143.616 122.669ZM152.555 147.229L151.615 147.571C151.706 147.82 151.892 148.023 152.133 148.135C152.373 148.247 152.648 148.259 152.897 148.169L152.555 147.229ZM161.84 143.85L161.498 142.91L161.84 143.85ZM162.31 143.679L163.249 143.337C163.158 143.087 162.972 142.884 162.732 142.772C162.492 142.66 162.217 142.648 161.967 142.739L162.31 143.679ZM162.652 144.618L162.994 145.558C163.513 145.369 163.78 144.795 163.591 144.276L162.652 144.618ZM151.957 148.511L151.018 148.853C151.207 149.372 151.78 149.639 152.299 149.45L151.957 148.511ZM143.616 122.669L143.445 122.199L141.566 122.883L141.737 123.353L143.616 122.669ZM143.445 122.199L143.274 121.73L141.395 122.414L141.566 122.883L143.445 122.199ZM142.676 123.011L143.146 122.84L142.462 120.961L141.992 121.132L142.676 123.011ZM143.146 122.84L143.616 122.669L142.932 120.79L142.462 120.961L143.146 122.84ZM152.217 117.411L142.932 120.79L143.616 122.669L152.901 119.29L152.217 117.411ZM152.687 117.24L152.217 117.411L152.901 119.29L153.371 119.119L152.687 117.24ZM154.31 118.777L153.968 117.837L152.089 118.521L152.431 119.461L154.31 118.777ZM153.243 120.23L153.713 120.059L153.029 118.179L152.559 118.35L153.243 120.23ZM143.958 123.609L153.243 120.23L152.559 118.35L143.274 121.73L143.958 123.609ZM142.676 123.011L151.615 147.571L153.495 146.887L144.556 122.327L142.676 123.011ZM161.498 142.91L152.213 146.289L152.897 148.169L162.182 144.789L161.498 142.91ZM161.967 142.739L161.498 142.91L162.182 144.789L162.652 144.618L161.967 142.739ZM163.591 144.276L163.249 143.337L161.37 144.021L161.712 144.96L163.591 144.276ZM162.524 145.729L162.994 145.558L162.31 143.679L161.84 143.85L162.524 145.729ZM153.239 149.108L162.524 145.729L161.84 143.85L152.555 147.229L153.239 149.108ZM152.555 147.229L152.085 147.4L152.769 149.279L153.239 149.108L152.555 147.229ZM152.085 147.4L151.615 147.571L152.299 149.45L152.769 149.279L152.085 147.4ZM152.897 148.169L152.726 147.699L150.847 148.383L151.018 148.853L152.897 148.169ZM152.726 147.699L152.555 147.229L150.676 147.913L150.847 148.383L152.726 147.699ZM152.555 147.229L143.616 122.669L141.737 123.353L150.676 147.913L152.555 147.229Z" fill="#379EFC"/>
<path d="M196.796 103.313L195.856 103.655L196.796 103.313ZM196.625 102.844L197.564 102.502L196.625 102.844ZM196.454 102.374L196.112 101.434C196.361 101.343 196.636 101.355 196.876 101.467C197.117 101.58 197.303 101.783 197.393 102.032L196.454 102.374ZM195.984 102.545L196.326 103.484L195.984 102.545ZM195.514 102.716L195.856 103.655L195.514 102.716ZM186.229 106.095L185.887 105.155L186.229 106.095ZM185.76 106.266L184.82 106.608C184.631 106.089 184.899 105.515 185.418 105.326L185.76 106.266ZM186.102 107.206L186.444 108.145C186.194 108.236 185.919 108.224 185.679 108.112C185.439 108 185.253 107.797 185.162 107.548L186.102 107.206ZM195.856 103.655L195.514 102.716C196.033 102.527 196.607 102.794 196.796 103.313L195.856 103.655ZM204.795 128.215L205.735 127.873C205.924 128.392 205.656 128.966 205.137 129.155L204.795 128.215ZM195.51 131.594L195.852 132.534L195.51 131.594ZM195.041 131.765L194.101 132.107C194.01 131.858 194.022 131.583 194.134 131.343C194.246 131.102 194.449 130.916 194.699 130.826L195.041 131.765ZM195.383 132.705L195.725 133.645C195.475 133.735 195.2 133.723 194.96 133.611C194.72 133.499 194.534 133.296 194.443 133.047L195.383 132.705ZM195.852 132.534L195.51 131.594L195.852 132.534ZM205.137 129.155L205.479 130.094L205.137 129.155ZM206.077 128.813L207.016 128.471C207.205 128.99 206.938 129.564 206.419 129.752L206.077 128.813ZM205.906 128.343L206.845 128.001L205.906 128.343ZM195.856 103.655L195.685 103.186L197.564 102.502L197.735 102.971L195.856 103.655ZM195.685 103.186L195.514 102.716L197.393 102.032L197.564 102.502L195.685 103.186ZM196.796 103.313L196.326 103.484L195.642 101.605L196.112 101.434L196.796 103.313ZM196.326 103.484L195.856 103.655L195.172 101.776L195.642 101.605L196.326 103.484ZM185.887 105.155L195.172 101.776L195.856 103.655L186.572 107.035L185.887 105.155ZM185.418 105.326L185.887 105.155L186.572 107.035L186.102 107.206L185.418 105.326ZM185.162 107.548L184.82 106.608L186.699 105.924L187.041 106.864L185.162 107.548ZM186.914 107.974L186.444 108.145L185.76 106.266L186.229 106.095L186.914 107.974ZM196.198 104.595L186.914 107.974L186.229 106.095L195.514 102.716L196.198 104.595ZM196.796 103.313L205.735 127.873L203.855 128.557L194.916 103.998L196.796 103.313ZM195.168 130.655L204.453 127.275L205.137 129.155L195.852 132.534L195.168 130.655ZM194.699 130.826L195.168 130.655L195.852 132.534L195.383 132.705L194.699 130.826ZM194.443 133.047L194.101 132.107L195.98 131.423L196.322 132.363L194.443 133.047ZM196.195 133.474L195.725 133.645L195.041 131.765L195.51 131.594L196.195 133.474ZM205.479 130.094L196.195 133.474L195.51 131.594L204.795 128.215L205.479 130.094ZM204.795 128.215L205.265 128.044L205.949 129.923L205.479 130.094L204.795 128.215ZM205.265 128.044L205.735 127.873L206.419 129.752L205.949 129.923L205.265 128.044ZM205.137 129.155L204.966 128.685L206.845 128.001L207.016 128.471L205.137 129.155ZM204.966 128.685L204.795 128.215L206.674 127.531L206.845 128.001L204.966 128.685ZM204.795 128.215L195.856 103.655L197.735 102.971L206.674 127.531L204.795 128.215Z" fill="#00875A"/>
<ellipse cx="174.076" cy="125.085" rx="10.9848" ry="11.02" transform="rotate(-20 174.076 125.085)" fill="#00875A"/>
<path d="M178.506 116.203L175.907 117.149C176.593 117.573 177.155 118.191 177.592 119.005L179.806 118.199L179.932 120.124L178.259 120.733C178.602 122.088 178.443 123.26 177.78 124.249C177.118 125.239 175.982 126.026 174.375 126.611L182.096 130.934L182.144 131.066L179.645 131.976L171.335 127.306L170.823 125.933L173.565 124.935C174.48 124.594 175.153 124.125 175.584 123.527C176.013 122.922 176.181 122.254 176.089 121.522L169.713 123.843L169.587 121.919L175.434 119.791C174.574 118.524 173.23 118.19 171.403 118.789L168.308 119.915L168.193 117.987L178.379 114.279L178.506 116.203Z" fill="#006644"/>
</g>
<g clip-path="url(#clip1)">
<rect x="141.121" y="117.105" width="65.9091" height="35.72" rx="3" fill="#00875A"/>
<path d="M145.279 121.277V120.277C144.727 120.277 144.279 120.725 144.279 121.277H145.279ZM156.66 121.277H157.66C157.66 120.725 157.212 120.277 156.66 120.277V121.277ZM156.66 122.277V123.277C157.212 123.277 157.66 122.83 157.66 122.277H156.66ZM146.279 122.277V121.277C145.727 121.277 145.279 121.725 145.279 122.277H146.279ZM146.279 148.413H145.279C145.279 148.965 145.727 149.413 146.279 149.413V148.413ZM156.66 148.413H157.66C157.66 147.861 157.212 147.413 156.66 147.413V148.413ZM156.66 149.413V150.413C157.212 150.413 157.66 149.965 157.66 149.413H156.66ZM145.279 149.413H144.279C144.279 149.965 144.727 150.413 145.279 150.413V149.413ZM146.279 122.277V121.777H144.279V122.277H146.279ZM146.279 121.777V121.277H144.279V121.777H146.279ZM145.279 122.277H145.779V120.277H145.279V122.277ZM145.779 122.277H146.279V120.277H145.779V122.277ZM156.16 120.277H146.279V122.277H156.16V120.277ZM156.66 120.277H156.16V122.277H156.66V120.277ZM157.66 122.277V121.277H155.66V122.277H157.66ZM156.16 123.277H156.66V121.277H156.16V123.277ZM146.279 123.277H156.16V121.277H146.279V123.277ZM145.279 122.277V148.413H147.279V122.277H145.279ZM156.16 147.413H146.279V149.413H156.16V147.413ZM156.66 147.413H156.16V149.413H156.66V147.413ZM157.66 149.413V148.413H155.66V149.413H157.66ZM156.16 150.413H156.66V148.413H156.16V150.413ZM146.279 150.413H156.16V148.413H146.279V150.413ZM146.279 148.413H145.779V150.413H146.279V148.413ZM145.779 148.413H145.279V150.413H145.779V148.413ZM146.279 149.413V148.913H144.279V149.413H146.279ZM146.279 148.913V148.413H144.279V148.913H146.279ZM146.279 148.413V122.277H144.279V148.413H146.279Z" fill="#36B37E"/>
<path fill-rule="evenodd" clip-rule="evenodd" d="M202.872 122.277V121.777V121.277H202.372H201.872H191.991H191.491V122.277H191.991H201.872V148.413H191.991H191.491V149.413H191.991H201.872H202.372H202.872V148.913V148.413V122.277Z" fill="#36B37E"/>
<path d="M202.872 121.277V120.277C203.424 120.277 203.872 120.725 203.872 121.277H202.872ZM191.491 121.277H190.491C190.491 120.725 190.939 120.277 191.491 120.277V121.277ZM191.491 122.277V123.277C190.939 123.277 190.491 122.83 190.491 122.277H191.491ZM201.872 122.277V121.277C202.424 121.277 202.872 121.725 202.872 122.277H201.872ZM201.872 148.413H202.872C202.872 148.965 202.424 149.413 201.872 149.413V148.413ZM191.491 148.413H190.491C190.491 147.861 190.939 147.413 191.491 147.413V148.413ZM191.491 149.413V150.413C190.939 150.413 190.491 149.965 190.491 149.413H191.491ZM202.872 149.413H203.872C203.872 149.965 203.424 150.413 202.872 150.413V149.413ZM201.872 122.277V121.777H203.872V122.277H201.872ZM201.872 121.777V121.277H203.872V121.777H201.872ZM202.872 122.277H202.372V120.277H202.872V122.277ZM202.372 122.277H201.872V120.277H202.372V122.277ZM191.991 120.277H201.872V122.277H191.991V120.277ZM191.491 120.277H191.991V122.277H191.491V120.277ZM190.491 122.277V121.277H192.491V122.277H190.491ZM191.991 123.277H191.491V121.277H191.991V123.277ZM201.872 123.277H191.991V121.277H201.872V123.277ZM202.872 122.277V148.413H200.872V122.277H202.872ZM191.991 147.413H201.872V149.413H191.991V147.413ZM191.491 147.413H191.991V149.413H191.491V147.413ZM190.491 149.413V148.413H192.491V149.413H190.491ZM191.991 150.413H191.491V148.413H191.991V150.413ZM201.872 150.413H191.991V148.413H201.872V150.413ZM201.872 148.413H202.372V150.413H201.872V148.413ZM202.372 148.413H202.872V150.413H202.372V148.413ZM201.872 149.413V148.913H203.872V149.413H201.872ZM201.872 148.913V148.413H203.872V148.913H201.872ZM201.872 148.413V122.277H203.872V148.413H201.872Z" fill="#36B37E"/>
<ellipse cx="174.076" cy="134.965" rx="10.9848" ry="11.02" fill="#36B37E"/>
<path d="M179.367 128.789H176.602C177.102 129.422 177.418 130.195 177.551 131.109H179.906L179.367 132.961H177.586C177.445 134.352 176.895 135.398 175.934 136.102C174.973 136.805 173.637 137.156 171.926 137.156L177.703 143.859V144H175.043L168.832 136.77L168.82 135.305H171.738C172.715 135.297 173.508 135.086 174.117 134.672C174.727 134.25 175.113 133.68 175.277 132.961H168.492L169.031 131.109H175.254C174.879 129.625 173.73 128.852 171.809 128.789H168.516L169.066 126.938H179.906L179.367 128.789Z" fill="#006644"/>
</g>
<defs>
<clipPath id="clip0">
<rect width="66" height="36" fill="white" transform="translate(137 119.573) rotate(-20)"/>
</clipPath>
<clipPath id="clip1">
<rect width="66" height="36" fill="white" transform="translate(141.121 117.105)"/>
</clipPath>
</defs>
</svg>
