<svg width="23" height="24" viewBox="0 0 23 24" fill="none" xmlns="http://www.w3.org/2000/svg">
<mask id="mask0_15_61" style="mask-type:alpha" maskUnits="userSpaceOnUse" x="0" y="0" width="23" height="24">
<path fill-rule="evenodd" clip-rule="evenodd" d="M11.3505 12.0002C7.86741 12.0002 5.04382 9.31384 5.04382 6.00009C5.04382 2.68633 7.86741 0 11.3505 0C14.8335 0 17.6571 2.68633 17.6571 6.00009C17.6571 9.31384 14.8335 12.0002 11.3505 12.0002ZM22.704 22.8V20.4C22.704 17.0862 19.8804 14.3999 16.3973 14.3999H6.30665C2.82359 14.3999 0 17.0862 0 20.4V22.8C0 23.4628 0.564717 24.0001 1.26133 24.0001C1.95794 24.0001 2.52266 23.4628 2.52266 22.8V20.4C2.52266 18.4117 4.21681 16.7999 6.30665 16.7999H16.3973C18.4871 16.7999 20.1813 18.4117 20.1813 20.4V22.8C20.1813 23.4628 20.746 24.0001 21.4426 24.0001C22.1392 24.0001 22.704 23.4628 22.704 22.8ZM15.1384 5.99862C15.1384 7.98688 13.4443 9.59867 11.3544 9.59867C9.26457 9.59867 7.57042 7.98688 7.57042 5.99862C7.57042 4.01037 9.26457 2.39857 11.3544 2.39857C13.4443 2.39857 15.1384 4.01037 15.1384 5.99862Z" fill="white"/>
</mask>
<g mask="url(#mask0_15_61)">
<rect x="-3.60007" y="-3.60046" width="28.8004" height="28.8004" fill="#1A5BDA"/>
</g>
</svg>
