<?xml version="1.0" encoding="UTF-8"?>
<svg width="25px" height="25px" viewBox="0 0 25 25" version="1.1" xmlns="http://www.w3.org/2000/svg" xmlns:xlink="http://www.w3.org/1999/xlink">
    <!-- Generator: Sketch 63.1 (92452) - https://sketch.com -->
    <title>Solid/pos</title>
    <desc>Created with Sketch.</desc>
    <defs>
        <path d="M6.25,7.03125 L6.25,22.65625 C6.25,23.9506836 5.20068359,25 3.90625,25 L2.34375,25 C1.04931641,25 0,23.9506836 0,22.65625 L0,7.03125 C0,5.73681641 1.04931641,4.6875 2.34375,4.6875 L3.90625,4.6875 C5.20068359,4.6875 6.25,5.73681641 6.25,7.03125 Z M25,10.15625 L25,22.65625 C25,23.9506836 23.9506836,25 22.65625,25 L9.375,25 C8.08056641,25 7.03125,23.9506836 7.03125,22.65625 L7.03125,1.953125 C7.03125,0.874462891 7.90571289,0 8.984375,0 L19.1128906,0 C19.6308932,0 20.1276809,0.20576852 20.4939453,0.572070313 L22.8654785,2.94360352 C23.2317368,3.30987308 23.4374983,3.80663397 23.4375,4.32460937 L23.4375,7.94638672 C24.3477051,8.26821289 25,9.13583984 25,10.15625 Z M9.375,9.375 L21.09375,9.375 L21.09375,4.6875 L19.921875,4.6875 C19.2771973,4.6875 18.75,4.16030273 18.75,3.515625 L18.75,2.34375 L9.375,2.34375 L9.375,9.375 Z M14.0625,19.3359375 C14.0625,19.0123535 13.8001465,18.75 13.4765625,18.75 L11.5234375,18.75 C11.1998535,18.75 10.9375,19.0123535 10.9375,19.3359375 L10.9375,21.2890625 C10.9375,21.6126465 11.1998535,21.875 11.5234375,21.875 L13.4765625,21.875 C13.8001465,21.875 14.0625,21.6126465 14.0625,21.2890625 L14.0625,19.3359375 Z M14.0625,13.0859375 C14.0625,12.7623535 13.8001465,12.5 13.4765625,12.5 L11.5234375,12.5 C11.1998535,12.5 10.9375,12.7623535 10.9375,13.0859375 L10.9375,15.0390625 C10.9375,15.3626465 11.1998535,15.625 11.5234375,15.625 L13.4765625,15.625 C13.8001465,15.625 14.0625,15.3626465 14.0625,15.0390625 L14.0625,13.0859375 Z M20.3125,19.3359375 C20.3125,19.0123535 20.0501465,18.75 19.7265625,18.75 L17.7734375,18.75 C17.4498535,18.75 17.1875,19.0123535 17.1875,19.3359375 L17.1875,21.2890625 C17.1875,21.6126465 17.4498535,21.875 17.7734375,21.875 L19.7265625,21.875 C20.0501465,21.875 20.3125,21.6126465 20.3125,21.2890625 L20.3125,19.3359375 Z M20.3125,13.0859375 C20.3125,12.7623535 20.0501465,12.5 19.7265625,12.5 L17.7734375,12.5 C17.4498535,12.5 17.1875,12.7623535 17.1875,13.0859375 L17.1875,15.0390625 C17.1875,15.3626465 17.4498535,15.625 17.7734375,15.625 L19.7265625,15.625 C20.0501465,15.625 20.3125,15.3626465 20.3125,15.0390625 L20.3125,13.0859375 Z" id="path-1"></path>
        <linearGradient x1="0%" y1="0%" x2="100%" y2="100%" id="linearGradient-3">
            <stop stop-color="#3C8CE7" offset="0%"></stop>
            <stop stop-color="#00EAFF" offset="100%"></stop>
        </linearGradient>
    </defs>
    <g id="Symbols" stroke="none" stroke-width="1" fill="none" fill-rule="evenodd">
        <g id="agent_assignment_task" transform="translate(0.000000, -370.000000)">
            <g id="Group-6" transform="translate(0.000000, 305.000000)">
                <g id="Group-2" transform="translate(0.000000, 65.000000)">
                    <g id="Solid/fax">
                        <mask id="mask-2" fill="white">
                            <use xlink:href="#path-1"></use>
                        </mask>
                        <use id="Mask" fill="#000000" fill-rule="nonzero" xlink:href="#path-1"></use>
                        <g id="Gradient/1" mask="url(#mask-2)" fill="url(#linearGradient-3)" fill-rule="evenodd">
                            <rect id="1" x="0" y="0" width="25" height="25"></rect>
                        </g>
                    </g>
                </g>
            </g>
        </g>
    </g>
</svg>