<?xml version="1.0" encoding="UTF-8"?>
<svg width="20" height="20" viewBox="0 0 20 20" fill="none" xmlns="http://www.w3.org/2000/svg">
<g id="print">
<path id="vector" d="M6.39745 17.9475C5.93554 17.9475 5.54501 17.7859 5.22584 17.4626C4.90666 17.1393 4.74707 16.7508 4.74707 16.2971V14.0806H3.02245C2.56054 14.0806 2.17001 13.9199 1.85084 13.5984C1.53166 13.2769 1.37207 12.8836 1.37207 12.4185V8.70835C1.37207 8.00729 1.61021 7.41294 2.08649 6.92531C2.56276 6.43767 3.15102 6.19385 3.85126 6.19385H16.1483C16.8541 6.19385 17.4457 6.43767 17.9232 6.92531C18.4006 7.41294 18.6393 8.00729 18.6393 8.70835V12.4185C18.6393 12.8836 18.4786 13.2769 18.1571 13.5984C17.8356 13.9199 17.4423 14.0806 16.9772 14.0806H15.2643V16.2971C15.2643 16.7508 15.1036 17.1393 14.7821 17.4626C14.4606 17.7858 14.0673 17.9475 13.6022 17.9475L6.39745 17.9475ZM3.02245 12.4185H5.26522V12.0852C5.35156 11.8906 5.49751 11.7239 5.70305 11.5851C5.90859 11.4462 6.14006 11.3768 6.39745 11.3768H13.6022C13.8595 11.3768 14.091 11.4462 14.2965 11.5851C14.5021 11.7239 14.648 11.8906 14.7344 12.0852V12.4185H16.9772V8.68033C16.9772 8.44223 16.8977 8.24532 16.7389 8.0896C16.58 7.93386 16.3832 7.85599 16.1483 7.85599H3.85126C3.62192 7.85599 3.42645 7.93802 3.26484 8.10208C3.10324 8.26613 3.02245 8.46822 3.02245 8.70835V12.4185ZM13.6022 6.19385V3.85599H6.39745V6.19385H4.74707V3.85599C4.74707 3.39085 4.90666 2.99754 5.22584 2.67606C5.54501 2.35458 5.93554 2.19385 6.39745 2.19385H13.6022C14.0673 2.19385 14.4606 2.35458 14.7821 2.67606C15.1036 2.99754 15.2643 3.39085 15.2643 3.85599V6.19385H13.6022ZM15.2013 10.106C15.4112 10.106 15.5904 10.0325 15.7389 9.88539C15.8875 9.73831 15.9618 9.56033 15.9618 9.35147C15.9618 9.14556 15.8882 8.96636 15.7411 8.81389C15.594 8.6614 15.4141 8.58516 15.2013 8.58516C14.9915 8.58516 14.8123 8.6614 14.6637 8.81389C14.5152 8.96636 14.4409 9.14556 14.4409 9.35147C14.4409 9.55739 14.5152 9.73463 14.6637 9.88318C14.8123 10.0317 14.9915 10.106 15.2013 10.106ZM13.6022 16.356V13.039H6.39745V16.356H13.6022Z" fill="#2A55E5"/>
</g>
</svg>
