<?xml version="1.0" encoding="UTF-8"?>
<svg xmlns="http://www.w3.org/2000/svg" viewBox="0 0 508 508"><path d="M438.85 94.4h-36.8V14.1c0-7.8-6.3-14.1-14.1-14.1h-267.8c-7.8 0-14.1 6.3-14.1 14.1v80.2h-36.9c-38.1.1-69.1 31.1-69.1 69.3v139.3c0 38.1 31 69.1 69.1 69.1h36.9v121.9c0 7.8 6.3 14.1 14.1 14.1h267.7c7.8 0 14.1-6.3 14.1-14.1V372h36.8c38.2 0 69.2-31 69.2-69.1V163.6c.1-38.2-30.9-69.2-69.1-69.2zm-304.6-66.2h239.5v66.1h-239.5V28.2zm239.5 451.6h-239.5V323.6h239.5v156.2zm65.1-136.1h-36.8v-20.1h17.3c7.8 0 14.1-6.3 14.1-14.1s-6.3-14.1-14.1-14.1H88.75c-7.8 0-14.1 6.3-14.1 14.1s6.3 14.1 14.1 14.1h17.3v20.1h-36.9c-22.6 0-40.9-18.4-40.9-40.9V163.6c0-22.6 18.4-41 40.9-41h369.6c22.6 0 41 18.4 41 41v139.2h.1c0 22.6-18.4 40.9-41 40.9z"/><path d="M331.45 420.6h-154.8c-7.8 0-14.1 6.3-14.1 14.1 0 7.7 6.3 14.1 14.1 14.1h154.8c7.8 0 14.1-6.3 14.1-14.1s-6.3-14.1-14.1-14.1zM331.45 359.5h-154.8c-7.8 0-14.1 6.3-14.1 14.1s6.3 14.1 14.1 14.1h154.8c7.8 0 14.1-6.3 14.1-14.1s-6.3-14.1-14.1-14.1z"/><circle cx="433.45" cy="168.8" r="14.1"/><circle cx="433.45" cy="217.5" r="14.1"/></svg>
