<?xml version="1.0" encoding="UTF-8"?>
<svg width="126" height="90" viewBox="0 0 126 90" fill="none" xmlns="http://www.w3.org/2000/svg">
<path d="M13.989 28.4784C15.798 36.2332 9.10809 40.9528 5.90774 44.8858C3.88126 47.4813 -1.04653 51.7268 0.199017 67.3317C0.798534 74.8428 4.67629 85.5436 13.1845 88.0062C17.9258 91.0521 60.467 86.3213 82.8093 88.9783C106.478 91.7931 111.408 88.7844 122.974 80.0444C127.756 76.4307 125.977 66.3915 123.715 59.7438C121.232 53.308 119.638 42.8597 124.234 29.6702C129.219 15.3672 121.998 9.83312 118.414 7.38327C113.978 4.65533 104.773 1.86118 93.7631 6.94627C79.5703 13.5015 73.3376 10.9984 68.2961 10.2834C63.2546 9.56826 46.0543 3.76808 31.0781 0.470719C19.0972 -2.16717 11.9872 6.94628 10.9863 11.3162C9.98543 18.5466 12.18 20.7237 13.989 28.4784Z" fill="#E7E9ED"/>
<mask id="mask0_898_3924" style="mask-type:alpha" maskUnits="userSpaceOnUse" x="0" y="0" width="126" height="90">
<path d="M13.989 28.4784C15.798 36.2332 9.10809 40.9528 5.90774 44.8858C3.88126 47.4813 -1.04653 51.7268 0.199017 67.3317C0.798534 74.8428 4.67629 85.5436 13.1845 88.0062C17.9258 91.0521 60.467 86.3213 82.8093 88.9783C106.478 91.7931 111.408 88.7844 122.974 80.0444C127.756 76.4307 125.977 66.3915 123.715 59.7438C121.232 53.308 119.638 42.8597 124.234 29.6702C129.219 15.3672 121.998 9.83312 118.414 7.38327C113.978 4.65533 104.773 1.86118 93.7631 6.94627C79.5703 13.5015 73.3376 10.9984 68.2961 10.2834C63.2546 9.56826 46.0543 3.76808 31.0781 0.470719C19.0972 -2.16717 11.9872 6.94628 10.9863 11.3162C9.98543 18.5466 12.18 20.7237 13.989 28.4784Z" fill="#FFFAE5"/>
</mask>
<g mask="url(#mask0_898_3924)">
<path d="M47 57H85C86.1046 57 87 56.1046 87 55V26C87 24.8954 86.1046 24 85 24H47C45.8954 24 45 24.8954 45 26V55C45 56.1046 45.8954 57 47 57Z" fill="white"/>
<path d="M51.8714 34.708L51.7554 43.8009M80.2279 34.3512L80.0062 44.499M77.3444 32.2582L77.6181 36.6094M76.82 40.328L76.9404 42.2426M73.1493 42.1277L73.2698 44.0422M73.2402 38.1034L73.3716 40.1919M72.314 34.3167L72.4454 36.4053M69.7699 37.6192L69.9012 39.7078M67.3423 40.0408L67.4737 42.1294M64.5611 42.3096L64.7034 44.5723M65.9492 31.5655L66.0915 33.8281M61.9649 31.1131L62.1072 33.3757M64.2836 35.163L64.4259 37.4257M62.0273 37.5741L62.1587 39.6627M58.1487 36.0668L58.291 38.3295M56.0637 38.4673L56.1951 40.5558M58.765 40.3968L58.9073 42.6595M55.9619 42.3175L56.1043 44.5802M55.1086 36.9538L54.9553 34.5172" stroke="black" stroke-width="1.61053"/>
<path d="M108 96H24V61C24 56.5817 27.5817 53 32 53H100C104.418 53 108 56.5817 108 61V96Z" fill="#B5BBC6"/>
<rect x="32" y="76" width="68" height="4" rx="2" fill="#8993A4"/>
<rect x="32" y="63" width="6" height="4" rx="2" fill="#8993A4"/>
</g>
</svg>
