<?xml version="1.0" encoding="UTF-8"?>
<svg width="89" height="13" viewBox="0 0 89 13" fill="none" xmlns="http://www.w3.org/2000/svg">
<path d="M0 0H89L81.2175 6.5L89 13H0V0Z" fill="#E3FCEF"/>
<path d="M11.7627 7.2168V10H10.8252V2.89062H13.4473C14.2253 2.89062 14.834 3.08919 15.2734 3.48633C15.7161 3.88346 15.9375 4.40918 15.9375 5.06348C15.9375 5.75358 15.721 6.28581 15.2881 6.66016C14.8584 7.03125 14.2415 7.2168 13.4375 7.2168H11.7627ZM11.7627 6.4502H13.4473C13.9486 6.4502 14.3327 6.33301 14.5996 6.09863C14.8665 5.861 15 5.51921 15 5.07324C15 4.65007 14.8665 4.31152 14.5996 4.05762C14.3327 3.80371 13.9665 3.67188 13.501 3.66211H11.7627V6.4502ZM19.5459 5.52734C19.4092 5.50456 19.2611 5.49316 19.1016 5.49316C18.5091 5.49316 18.1071 5.74544 17.8955 6.25V10H16.9922V4.7168H17.8711L17.8857 5.32715C18.182 4.85514 18.6019 4.61914 19.1455 4.61914C19.3213 4.61914 19.4548 4.64193 19.5459 4.6875V5.52734ZM20.0439 7.30957C20.0439 6.79199 20.1449 6.3265 20.3467 5.91309C20.5518 5.49967 20.835 5.18066 21.1963 4.95605C21.5609 4.73145 21.9759 4.61914 22.4414 4.61914C23.1608 4.61914 23.7419 4.86816 24.1846 5.36621C24.6305 5.86426 24.8535 6.52669 24.8535 7.35352V7.41699C24.8535 7.93132 24.7542 8.39355 24.5557 8.80371C24.3604 9.21061 24.0788 9.52799 23.7109 9.75586C23.3464 9.98372 22.9264 10.0977 22.4512 10.0977C21.735 10.0977 21.154 9.84863 20.708 9.35059C20.2653 8.85254 20.0439 8.19336 20.0439 7.37305V7.30957ZM20.9521 7.41699C20.9521 8.00293 21.0872 8.47331 21.3574 8.82812C21.6309 9.18294 21.9954 9.36035 22.4512 9.36035C22.9102 9.36035 23.2747 9.18132 23.5449 8.82324C23.8151 8.46191 23.9502 7.95736 23.9502 7.30957C23.9502 6.73014 23.8118 6.26139 23.5352 5.90332C23.2617 5.54199 22.8971 5.36133 22.4414 5.36133C21.9954 5.36133 21.6357 5.53874 21.3623 5.89355C21.0889 6.24837 20.9521 6.75618 20.9521 7.41699ZM28.1055 9.36035C28.4277 9.36035 28.7093 9.2627 28.9502 9.06738C29.1911 8.87207 29.3245 8.62793 29.3506 8.33496H30.2051C30.1888 8.6377 30.0846 8.92578 29.8926 9.19922C29.7005 9.47266 29.4434 9.69076 29.1211 9.85352C28.8021 10.0163 28.4635 10.0977 28.1055 10.0977C27.3861 10.0977 26.8132 9.8584 26.3867 9.37988C25.9635 8.89811 25.752 8.24056 25.752 7.40723V7.25586C25.752 6.74154 25.8464 6.28418 26.0352 5.88379C26.224 5.4834 26.4941 5.17253 26.8457 4.95117C27.2005 4.72982 27.6188 4.61914 28.1006 4.61914C28.693 4.61914 29.1846 4.79655 29.5752 5.15137C29.9691 5.50618 30.179 5.9668 30.2051 6.5332H29.3506C29.3245 6.19141 29.1943 5.91146 28.96 5.69336C28.7288 5.47201 28.4424 5.36133 28.1006 5.36133C27.6416 5.36133 27.2852 5.52734 27.0312 5.85938C26.7806 6.18815 26.6553 6.66504 26.6553 7.29004V7.46094C26.6553 8.06966 26.7806 8.53841 27.0312 8.86719C27.2819 9.19596 27.64 9.36035 28.1055 9.36035ZM33.4131 10.0977C32.6969 10.0977 32.1143 9.86328 31.665 9.39453C31.2158 8.92253 30.9912 8.29264 30.9912 7.50488V7.33887C30.9912 6.81478 31.0905 6.34766 31.2891 5.9375C31.4909 5.52409 31.7708 5.20182 32.1289 4.9707C32.4902 4.73633 32.8809 4.61914 33.3008 4.61914C33.9876 4.61914 34.5215 4.84538 34.9023 5.29785C35.2832 5.75033 35.4736 6.39811 35.4736 7.24121V7.61719H31.8945C31.9076 8.13802 32.0589 8.55957 32.3486 8.88184C32.6416 9.20085 33.0127 9.36035 33.4619 9.36035C33.7809 9.36035 34.0511 9.29525 34.2725 9.16504C34.4938 9.03483 34.6875 8.8623 34.8535 8.64746L35.4053 9.07715C34.9626 9.75749 34.2985 10.0977 33.4131 10.0977ZM33.3008 5.36133C32.9362 5.36133 32.6302 5.49479 32.3828 5.76172C32.1354 6.02539 31.9824 6.39648 31.9238 6.875H34.5703V6.80664C34.5443 6.34766 34.4206 5.99284 34.1992 5.74219C33.9779 5.48828 33.6784 5.36133 33.3008 5.36133ZM39.5996 8.59863C39.5996 8.35449 39.5068 8.16569 39.3213 8.03223C39.139 7.89551 38.8184 7.77832 38.3594 7.68066C37.9036 7.58301 37.5407 7.46582 37.2705 7.3291C37.0036 7.19238 36.805 7.02962 36.6748 6.84082C36.5479 6.65202 36.4844 6.42741 36.4844 6.16699C36.4844 5.73405 36.6667 5.36784 37.0312 5.06836C37.3991 4.76888 37.8678 4.61914 38.4375 4.61914C39.0365 4.61914 39.5215 4.77376 39.8926 5.08301C40.2669 5.39225 40.4541 5.78776 40.4541 6.26953H39.5459C39.5459 6.02214 39.4401 5.80892 39.2285 5.62988C39.0202 5.45085 38.7565 5.36133 38.4375 5.36133C38.1087 5.36133 37.8516 5.43294 37.666 5.57617C37.4805 5.7194 37.3877 5.90658 37.3877 6.1377C37.3877 6.35579 37.474 6.52018 37.6465 6.63086C37.819 6.74154 38.1299 6.84733 38.5791 6.94824C39.0316 7.04915 39.3978 7.1696 39.6777 7.30957C39.9577 7.44954 40.1644 7.61882 40.2979 7.81738C40.4346 8.0127 40.5029 8.25195 40.5029 8.53516C40.5029 9.00716 40.3141 9.38639 39.9365 9.67285C39.5589 9.95605 39.069 10.0977 38.4668 10.0977C38.0436 10.0977 37.6693 10.0228 37.3438 9.87305C37.0182 9.72331 36.7627 9.51497 36.5771 9.24805C36.3949 8.97786 36.3037 8.68652 36.3037 8.37402H37.207C37.2233 8.67676 37.3438 8.91764 37.5684 9.09668C37.7962 9.27246 38.0957 9.36035 38.4668 9.36035C38.8086 9.36035 39.082 9.29199 39.2871 9.15527C39.4954 9.0153 39.5996 8.82975 39.5996 8.59863ZM44.7559 8.59863C44.7559 8.35449 44.6631 8.16569 44.4775 8.03223C44.2952 7.89551 43.9746 7.77832 43.5156 7.68066C43.0599 7.58301 42.6969 7.46582 42.4268 7.3291C42.1598 7.19238 41.9613 7.02962 41.8311 6.84082C41.7041 6.65202 41.6406 6.42741 41.6406 6.16699C41.6406 5.73405 41.8229 5.36784 42.1875 5.06836C42.5553 4.76888 43.0241 4.61914 43.5938 4.61914C44.1927 4.61914 44.6777 4.77376 45.0488 5.08301C45.4232 5.39225 45.6104 5.78776 45.6104 6.26953H44.7021C44.7021 6.02214 44.5964 5.80892 44.3848 5.62988C44.1764 5.45085 43.9128 5.36133 43.5938 5.36133C43.265 5.36133 43.0078 5.43294 42.8223 5.57617C42.6367 5.7194 42.5439 5.90658 42.5439 6.1377C42.5439 6.35579 42.6302 6.52018 42.8027 6.63086C42.9753 6.74154 43.2861 6.84733 43.7354 6.94824C44.1878 7.04915 44.554 7.1696 44.834 7.30957C45.1139 7.44954 45.3206 7.61882 45.4541 7.81738C45.5908 8.0127 45.6592 8.25195 45.6592 8.53516C45.6592 9.00716 45.4704 9.38639 45.0928 9.67285C44.7152 9.95605 44.2253 10.0977 43.623 10.0977C43.1999 10.0977 42.8255 10.0228 42.5 9.87305C42.1745 9.72331 41.9189 9.51497 41.7334 9.24805C41.5511 8.97786 41.46 8.68652 41.46 8.37402H42.3633C42.3796 8.67676 42.5 8.91764 42.7246 9.09668C42.9525 9.27246 43.252 9.36035 43.623 9.36035C43.9648 9.36035 44.2383 9.29199 44.4434 9.15527C44.6517 9.0153 44.7559 8.82975 44.7559 8.59863ZM47.8174 10H46.9141V4.7168H47.8174V10ZM46.8408 3.31543C46.8408 3.16895 46.8848 3.04525 46.9727 2.94434C47.0638 2.84342 47.1973 2.79297 47.373 2.79297C47.5488 2.79297 47.6823 2.84342 47.7734 2.94434C47.8646 3.04525 47.9102 3.16895 47.9102 3.31543C47.9102 3.46191 47.8646 3.58398 47.7734 3.68164C47.6823 3.7793 47.5488 3.82812 47.373 3.82812C47.1973 3.82812 47.0638 3.7793 46.9727 3.68164C46.8848 3.58398 46.8408 3.46191 46.8408 3.31543ZM50.1221 4.7168L50.1514 5.38086C50.555 4.87305 51.0824 4.61914 51.7334 4.61914C52.8499 4.61914 53.4131 5.24902 53.4229 6.50879V10H52.5195V6.50391C52.5163 6.12305 52.4284 5.84147 52.2559 5.65918C52.0866 5.47689 51.8213 5.38574 51.46 5.38574C51.167 5.38574 50.9098 5.46387 50.6885 5.62012C50.4671 5.77637 50.2946 5.98145 50.1709 6.23535V10H49.2676V4.7168H50.1221ZM54.5703 7.31445C54.5703 6.49089 54.7607 5.83659 55.1416 5.35156C55.5225 4.86328 56.027 4.61914 56.6553 4.61914C57.2998 4.61914 57.8027 4.84701 58.1641 5.30273L58.208 4.7168H59.0332V9.87305C59.0332 10.5566 58.8298 11.0954 58.4229 11.4893C58.0192 11.8831 57.4756 12.0801 56.792 12.0801C56.4111 12.0801 56.0384 11.9987 55.6738 11.8359C55.3092 11.6732 55.0309 11.4502 54.8389 11.167L55.3076 10.625C55.695 11.1035 56.1686 11.3428 56.7285 11.3428C57.168 11.3428 57.5098 11.2191 57.7539 10.9717C58.0013 10.7243 58.125 10.376 58.125 9.92676V9.47266C57.7637 9.88932 57.2705 10.0977 56.6455 10.0977C56.027 10.0977 55.5257 9.84863 55.1416 9.35059C54.7607 8.85254 54.5703 8.17383 54.5703 7.31445ZM55.4785 7.41699C55.4785 8.0127 55.6006 8.48145 55.8447 8.82324C56.0889 9.16178 56.4307 9.33105 56.8701 9.33105C57.4398 9.33105 57.8581 9.07227 58.125 8.55469V6.14258C57.8483 5.63802 57.4333 5.38574 56.8799 5.38574C56.4404 5.38574 56.097 5.55664 55.8496 5.89844C55.6022 6.24023 55.4785 6.74642 55.4785 7.41699Z" fill="#006644"/>
</svg>
