<?xml version="1.0" encoding="UTF-8"?>
<svg width="20" height="20" viewBox="0 0 20 20" fill="none" xmlns="http://www.w3.org/2000/svg">
<g id="recycling">
<path id="vector" d="M8.00269 6.85414L9.50905 4.41574L8.24455 2.30343C8.06219 2.02565 7.81082 1.88676 7.49046 1.88676C7.17012 1.88676 6.92661 2.02565 6.75994 2.30343L5.06611 5.0987C4.93748 5.29859 4.90532 5.50391 4.96963 5.71466C5.03395 5.92541 5.16605 6.0951 5.36592 6.22372L6.87769 7.15397C7.07757 7.26871 7.28288 7.29739 7.49363 7.24001C7.70439 7.18265 7.87408 7.05403 8.00269 6.85414ZM15.9176 13.4275L14.4438 10.9565C14.3231 10.7566 14.2929 10.5459 14.3533 10.3243C14.4136 10.1027 14.5438 9.93448 14.7437 9.81974L16.2763 8.93116C16.4761 8.82427 16.6869 8.79408 16.9085 8.84058C17.1301 8.88707 17.2983 9.01026 17.413 9.21014L18.375 10.8243C18.5278 11.0761 18.6092 11.3517 18.6191 11.6513C18.6291 11.9508 18.5685 12.2295 18.4375 12.4873C18.2908 12.7808 18.078 13.0109 17.7994 13.1775C17.5207 13.3442 17.2177 13.4275 16.8904 13.4275H15.9176ZM12.721 18.731L10.5906 16.6006C10.4263 16.4363 10.3442 16.2394 10.3442 16.01C10.3442 15.7805 10.4263 15.5836 10.5906 15.4194L12.721 13.2889C12.8496 13.1603 13.0015 13.1301 13.1766 13.1984C13.3517 13.2666 13.4393 13.3898 13.4393 13.568V14.2844H17.5272L16.2835 16.7835C16.1229 17.077 15.9067 17.3071 15.635 17.4737C15.3632 17.6404 15.0637 17.7237 14.7364 17.7237H13.4393V18.452C13.4393 18.6301 13.3517 18.7533 13.1766 18.8216C13.0015 18.8898 12.8496 18.8596 12.721 18.731ZM5.11773 17.7237C4.83211 17.7237 4.57078 17.6508 4.33375 17.505C4.09674 17.3592 3.92268 17.1603 3.81157 16.9085C3.69261 16.6784 3.6366 16.4399 3.64355 16.1929C3.65049 15.946 3.72039 15.7105 3.85323 15.4864L4.58513 14.2844H7.44925C7.68475 14.2844 7.88312 14.365 8.04436 14.5263C8.2056 14.6875 8.28621 14.8859 8.28621 15.1214V16.8985C8.28621 17.134 8.2056 17.3305 8.04436 17.4878C7.88312 17.6451 7.68475 17.7237 7.44925 17.7237H5.11773ZM2.98457 15.2781L1.59509 12.4873C1.45439 12.2295 1.38948 11.9542 1.40034 11.6617C1.4112 11.3691 1.49695 11.09 1.65759 10.8243L2.00269 10.2382L1.39671 9.8741C1.24635 9.7811 1.18008 9.64205 1.1979 9.45697C1.21571 9.27189 1.31761 9.1576 1.50361 9.11412L4.45015 8.37228C4.67178 8.31491 4.87709 8.3451 5.06609 8.46284C5.2551 8.58061 5.3783 8.7503 5.43567 8.97191L6.1775 11.9393C6.22099 12.1174 6.16951 12.2584 6.02307 12.3623C5.87664 12.4662 5.72431 12.4716 5.56609 12.3786L4.95107 12.0054L2.98457 15.2781ZM13.807 7.72462L10.8605 6.98278C10.6824 6.94716 10.5789 6.83484 10.5503 6.64582C10.5216 6.45681 10.5894 6.3158 10.7536 6.2228L11.3804 5.85868L8.68205 1.38403H11.7255C12.025 1.38403 12.3052 1.46087 12.5661 1.61455C12.827 1.76825 13.0377 1.9701 13.1984 2.2201L14.317 4.09147L14.9348 3.71828C15.0851 3.61744 15.2335 3.62438 15.38 3.73912C15.5264 3.85385 15.5818 4.00029 15.5462 4.17843L14.7926 7.12497C14.7273 7.3466 14.6022 7.51628 14.4171 7.63403C14.232 7.7518 14.0287 7.78199 13.807 7.72462Z" fill="#9E9E9E"/>
</g>
</svg>
