<?xml version="1.0" encoding="UTF-8"?>
<svg width="20" height="20" viewBox="0 0 20 20" fill="none" xmlns="http://www.w3.org/2000/svg">
<g id="recycling">
<path id="vector" d="M8.00294 6.85414L9.50929 4.41574L8.24479 2.30343C8.06243 2.02565 7.81107 1.88676 7.49071 1.88676C7.17036 1.88676 6.92685 2.02565 6.76019 2.30343L5.06635 5.0987C4.93773 5.29859 4.90557 5.50391 4.96987 5.71466C5.03419 5.92541 5.16629 6.0951 5.36617 6.22372L6.87794 7.15397C7.07781 7.26871 7.28312 7.29739 7.49387 7.24001C7.70464 7.18265 7.87433 7.05403 8.00294 6.85414ZM15.9178 13.4275L14.4441 10.9565C14.3233 10.7566 14.2931 10.5459 14.3535 10.3243C14.4139 10.1027 14.544 9.93448 14.7439 9.81974L16.2765 8.93116C16.4764 8.82427 16.6871 8.79408 16.9087 8.84058C17.1304 8.88707 17.2986 9.01026 17.4133 9.21014L18.3752 10.8243C18.528 11.0761 18.6094 11.3517 18.6194 11.6513C18.6293 11.9508 18.5688 12.2295 18.4377 12.4873C18.291 12.7808 18.0783 13.0109 17.7996 13.1775C17.5209 13.3442 17.2179 13.4275 16.8906 13.4275H15.9178ZM12.7212 18.731L10.5908 16.6006C10.4266 16.4363 10.3444 16.2394 10.3444 16.01C10.3444 15.7805 10.4266 15.5836 10.5908 15.4194L12.7212 13.2889C12.8499 13.1603 13.0017 13.1301 13.1769 13.1984C13.352 13.2666 13.4395 13.3898 13.4395 13.568V14.2844H17.5274L16.2837 16.7835C16.1231 17.077 15.9069 17.3071 15.6352 17.4737C15.3635 17.6404 15.0639 17.7237 14.7366 17.7237H13.4395V18.452C13.4395 18.6301 13.352 18.7533 13.1769 18.8216C13.0017 18.8898 12.8499 18.8596 12.7212 18.731ZM5.11798 17.7237C4.83235 17.7237 4.57103 17.6508 4.334 17.505C4.09698 17.3592 3.92292 17.1603 3.81181 16.9085C3.69285 16.6784 3.63685 16.4399 3.64379 16.1929C3.65074 15.946 3.72063 15.7105 3.85348 15.4864L4.58537 14.2844H7.4495C7.685 14.2844 7.88337 14.365 8.0446 14.5263C8.20584 14.6875 8.28646 14.8859 8.28646 15.1214V16.8985C8.28646 17.134 8.20584 17.3305 8.0446 17.4878C7.88337 17.6451 7.685 17.7237 7.4495 17.7237H5.11798ZM2.98481 15.2781L1.59533 12.4873C1.45464 12.2295 1.38972 11.9542 1.40058 11.6617C1.41144 11.3691 1.49719 11.09 1.65783 10.8243L2.00294 10.2382L1.39696 9.8741C1.2466 9.7811 1.18033 9.64205 1.19814 9.45697C1.21595 9.27189 1.31785 9.1576 1.50385 9.11412L4.45039 8.37228C4.67202 8.31491 4.87733 8.3451 5.06633 8.46284C5.25535 8.58061 5.37854 8.7503 5.43592 8.97191L6.17775 11.9393C6.22123 12.1174 6.16976 12.2584 6.02331 12.3623C5.87688 12.4662 5.72455 12.4716 5.56633 12.3786L4.95131 12.0054L2.98481 15.2781ZM13.8073 7.72462L10.8607 6.98278C10.6826 6.94716 10.5792 6.83484 10.5505 6.64582C10.5218 6.45681 10.5896 6.3158 10.7539 6.2228L11.3807 5.85868L8.68229 1.38403H11.7258C12.0253 1.38403 12.3055 1.46087 12.5664 1.61455C12.8272 1.76825 13.038 1.9701 13.1986 2.2201L14.3173 4.09147L14.935 3.71828C15.0854 3.61744 15.2338 3.62438 15.3802 3.73912C15.5267 3.85385 15.5821 4.00029 15.5464 4.17843L14.7928 7.12497C14.7276 7.3466 14.6024 7.51628 14.4174 7.63403C14.2323 7.7518 14.0289 7.78199 13.8073 7.72462Z" fill="#2A55E5"/>
</g>
</svg>
