<?xml version="1.0" encoding="UTF-8"?>
<svg width="20" height="20" viewBox="0 0 20 20" fill="none" xmlns="http://www.w3.org/2000/svg">
<g clip-path="url(#clip0_101_3207)">
<path d="M15.5424 13.5712L13.9091 12.6588C13.4982 13.3652 12.8952 13.9692 12.1484 14.4005C9.85783 15.7229 6.96465 15.0048 5.69027 12.7975C4.41589 10.5902 5.24057 7.72557 7.5311 6.40313C9.73861 5.12863 12.5081 5.74749 13.8507 7.76619L13.3527 8.05369L12.9045 8.31244C12.5394 8.52326 12.5378 8.86542 12.8958 9.06394L13.909 9.63055C14.267 9.82906 14.852 10.1524 15.21 10.3509L16.2233 10.9175C16.5813 11.116 16.88 10.9435 16.8871 10.5342L16.903 9.37349C16.9101 8.96415 16.9226 8.29589 16.9297 7.88656L16.929 6.7354C16.9361 6.32606 16.6555 6.14679 16.3071 6.34799L15.5104 6.80794C13.6601 3.90954 9.72801 3.00213 6.60759 4.8037C3.40421 6.65317 2.2482 10.6689 4.03043 13.7558C5.81266 16.8427 9.86843 17.8494 13.0717 16C14.134 15.3867 14.9564 14.5493 15.5423 13.5712L15.5424 13.5712Z" fill="#0066CC"/>
</g>
<defs>
<clipPath id="clip0_101_3207">
<rect width="20" height="20" fill="white"/>
</clipPath>
</defs>
</svg>
