<?xml version="1.0" encoding="UTF-8"?>
<svg width="192" height="192" viewBox="0 0 192 192" fill="none" xmlns="http://www.w3.org/2000/svg">
<path fill-rule="evenodd" clip-rule="evenodd" d="M167.341 167.377H24.6564V24.5293H167.341V167.377ZM76.2531 44.5509C72.9894 44.5509 70.3437 47.1967 70.3437 50.4604C70.3437 53.7241 72.9894 56.3698 76.2531 56.3698H115.74C119.004 56.3698 121.649 53.7241 121.649 50.4604C121.649 47.1967 119.004 44.5509 115.74 44.5509H76.2531Z" fill="#CFE1FF"/>
<path d="M91.7704 98.6025L94.9603 93.4389L92.2826 88.9658C91.8964 88.3775 91.3641 88.0834 90.6857 88.0834C90.0073 88.0834 89.4916 88.3775 89.1387 88.9658L85.5517 94.8851C85.2794 95.3084 85.2113 95.7432 85.3474 96.1895C85.4836 96.6358 85.7634 96.9952 86.1866 97.2675L89.388 99.2375C89.8113 99.4805 90.2461 99.5412 90.6924 99.4197C91.1387 99.2982 91.498 99.0258 91.7704 98.6025ZM108.531 112.523L105.41 107.29C105.155 106.867 105.091 106.42 105.219 105.951C105.347 105.482 105.622 105.126 106.045 104.883L109.291 103.001C109.714 102.775 110.16 102.711 110.63 102.809C111.099 102.908 111.455 103.168 111.698 103.592L113.735 107.01C114.059 107.543 114.231 108.127 114.252 108.761C114.273 109.395 114.145 109.986 113.868 110.532C113.557 111.153 113.106 111.64 112.516 111.993C111.926 112.346 111.285 112.523 110.591 112.523H108.531ZM101.762 123.753L97.2506 119.242C96.9028 118.894 96.7289 118.477 96.7289 117.991C96.7289 117.505 96.9028 117.089 97.2506 116.741L101.762 112.229C102.034 111.957 102.356 111.893 102.727 112.037C103.098 112.182 103.283 112.443 103.283 112.82V114.337H111.94L109.306 119.629C108.966 120.251 108.508 120.738 107.933 121.091C107.357 121.444 106.723 121.621 106.03 121.621H103.283V123.163C103.283 123.54 103.098 123.801 102.727 123.945C102.356 124.09 102.034 124.026 101.762 123.753ZM85.6611 121.621C85.0562 121.621 84.5028 121.466 84.0009 121.157C83.499 120.848 83.1304 120.427 82.8951 119.894C82.6432 119.407 82.5246 118.902 82.5393 118.379C82.554 117.856 82.702 117.357 82.9833 116.883L84.5332 114.337H90.5984C91.0971 114.337 91.5172 114.508 91.8586 114.849C92.2001 115.191 92.3708 115.611 92.3708 116.11V119.873C92.3708 120.372 92.2001 120.788 91.8586 121.121C91.5172 121.454 91.0971 121.621 90.5984 121.621H85.6611ZM81.1438 116.441L78.2013 110.532C77.9034 109.986 77.7659 109.403 77.7889 108.783C77.8119 108.164 77.9935 107.573 78.3337 107.01L79.0645 105.769L77.7813 104.998C77.4628 104.801 77.3225 104.506 77.3602 104.114C77.398 103.722 77.6137 103.48 78.0076 103.388L84.2474 101.817C84.7167 101.696 85.1515 101.76 85.5517 102.009C85.952 102.259 86.2128 102.618 86.3343 103.087L87.9053 109.371C87.9974 109.748 87.8884 110.047 87.5782 110.267C87.2682 110.487 86.9456 110.498 86.6105 110.301L85.3081 109.511L81.1438 116.441ZM104.062 100.446L97.8222 98.875C97.445 98.7995 97.226 98.5617 97.1652 98.1614C97.1045 97.7612 97.248 97.4625 97.5959 97.2656L98.9232 96.4945L93.209 87.0188H99.654C100.288 87.0188 100.882 87.1815 101.434 87.507C101.987 87.8324 102.433 88.2599 102.773 88.7893L105.142 92.7522L106.45 91.9619C106.769 91.7484 107.083 91.7631 107.393 92.006C107.703 92.249 107.82 92.5591 107.745 92.9363L106.149 99.1761C106.011 99.6454 105.746 100.005 105.354 100.254C104.962 100.503 104.531 100.567 104.062 100.446Z" fill="#2A55E5"/>
</svg>
