<?xml version="1.0" encoding="UTF-8"?>
<svg width="104" height="104" viewBox="0 0 104 104" fill="none" xmlns="http://www.w3.org/2000/svg">
<path d="M88.6079 1.66385H38.6567C37.7687 1.66385 36.9329 2.00974 36.3027 2.63885L13.0379 25.9037C12.4099 26.5328 12.0635 27.3685 12.0635 28.2564V78.2076C12.0635 80.0432 13.5562 81.5353 15.3912 81.5353H88.6072C90.4428 81.5353 91.9349 80.0426 91.9349 78.2076L91.9355 4.99163C91.9355 3.15603 90.4428 1.66333 88.6072 1.66333L88.6079 1.66385ZM15.3919 78.2079V28.2552L38.6567 4.99185H88.6079L88.6102 78.2079H15.3919Z" fill="#D8D8D8"/>
<path d="M58.6558 33.28H45.3435C44.4243 33.28 43.6797 34.0246 43.6797 34.9438V48.2561C43.6797 49.1754 44.4243 49.92 45.3435 49.92H58.6558C59.5751 49.92 60.3197 49.1754 60.3197 48.2561V43.2638H68.6397C70.4753 43.2638 71.9674 41.7711 71.9674 39.9361V24.9601C71.9674 23.1245 70.4747 21.6324 68.6397 21.6324H49.3611C48.4725 21.6324 47.6363 21.9783 47.0071 22.6074L33.0066 36.6079C32.3775 37.2364 32.0316 38.0727 32.0316 38.9618V58.2405C32.0316 60.0761 33.5243 61.5682 35.3593 61.5682H78.6233C80.4589 61.5682 81.951 60.0755 81.951 58.2405L81.9516 14.9765C81.9516 13.1409 80.4589 11.6488 78.6239 11.6488L44.3693 11.6482C43.4807 11.6482 42.6445 11.9941 42.0153 12.6232L23.0234 31.6166C22.3943 32.2445 22.0479 33.0808 22.0479 33.9699V68.2246C22.0479 70.0602 23.5405 71.5523 25.3756 71.5523H80.2875C81.2062 71.5523 81.9514 70.8065 81.9514 69.8884C81.9514 68.9697 81.2056 68.2246 80.2875 68.2246H25.3756V33.9699L44.3689 14.9766H78.6235V58.2406H35.3596V38.9619L49.3612 24.9609H68.6398V39.9369H60.3198V34.9446C60.3198 34.0253 59.5752 33.2807 58.656 33.2807L58.6558 33.28ZM56.992 46.5923H47.0075V36.6078H56.9914L56.992 46.5923Z" fill="#D8D8D8"/>
</svg>
