<?xml version="1.0" encoding="UTF-8"?>
<svg width="24" height="24" viewBox="0 0 24 24" fill="none" xmlns="http://www.w3.org/2000/svg">
<rect width="24" height="24" transform="translate(0 24) rotate(-90)" fill="white" fill-opacity="0.01"/>
<path fill-rule="evenodd" clip-rule="evenodd" d="M10.293 15.708C10.4819 15.8948 10.7368 15.9996 11.0025 15.9996C11.2682 15.9996 11.5231 15.8948 11.712 15.708L14.677 12.769C14.892 12.551 14.999 12.269 14.999 11.99C14.999 11.711 14.892 11.434 14.677 11.221L11.722 8.29099C11.533 8.10443 11.2781 7.99982 11.0125 7.99982C10.7469 7.99982 10.492 8.10443 10.303 8.29099C10.2098 8.38282 10.1358 8.49227 10.0853 8.61295C10.0348 8.73364 10.0088 8.86316 10.0088 8.99399C10.0088 9.12482 10.0348 9.25435 10.0853 9.37503C10.1358 9.49572 10.2098 9.60516 10.303 9.69699L12.62 11.995L10.293 14.302C10.2002 14.394 10.1265 14.5035 10.0762 14.6242C10.0259 14.7449 10.0001 14.8743 10.0001 15.005C10.0001 15.1357 10.0259 15.2651 10.0762 15.3858C10.1265 15.5064 10.2002 15.616 10.293 15.708Z" fill="#42526E"/>
</svg>
