<?xml version="1.0" encoding="UTF-8"?>
<svg width="183" height="24" viewBox="0 0 183 24" fill="none" xmlns="http://www.w3.org/2000/svg">
<path d="M19 9H15V3H9V9H5L12 16L19 9ZM5 18V20H19V18H5Z" fill="#0065FF"/>
<path d="M32.2734 17H30.1475L30.1611 15.6396H32.2734C32.8887 15.6396 33.4036 15.5052 33.8184 15.2363C34.2376 14.9674 34.5521 14.5824 34.7617 14.0811C34.9759 13.5798 35.083 12.9827 35.083 12.29V11.75C35.083 11.2122 35.0215 10.736 34.8984 10.3213C34.7799 9.90658 34.6022 9.55794 34.3652 9.27539C34.1328 8.99284 33.8457 8.77865 33.5039 8.63281C33.1667 8.48698 32.777 8.41406 32.335 8.41406H30.1064V7.04688H32.335C32.9958 7.04688 33.5996 7.15853 34.1465 7.38184C34.6934 7.60059 35.165 7.91732 35.5615 8.33203C35.9626 8.74674 36.2702 9.24349 36.4844 9.82227C36.6986 10.401 36.8057 11.0482 36.8057 11.7637V12.29C36.8057 13.0055 36.6986 13.6527 36.4844 14.2314C36.2702 14.8102 35.9626 15.307 35.5615 15.7217C35.1605 16.1318 34.682 16.4486 34.126 16.6719C33.5745 16.8906 32.957 17 32.2734 17ZM31.0977 7.04688V17H29.3818V7.04688H31.0977ZM38.0498 13.3838V13.2266C38.0498 12.6934 38.1273 12.1989 38.2822 11.7432C38.4372 11.2829 38.6605 10.8841 38.9521 10.5469C39.2484 10.2051 39.6084 9.94076 40.0322 9.75391C40.4606 9.5625 40.9437 9.4668 41.4814 9.4668C42.0238 9.4668 42.5068 9.5625 42.9307 9.75391C43.359 9.94076 43.7214 10.2051 44.0176 10.5469C44.3138 10.8841 44.5394 11.2829 44.6943 11.7432C44.8493 12.1989 44.9268 12.6934 44.9268 13.2266V13.3838C44.9268 13.917 44.8493 14.4115 44.6943 14.8672C44.5394 15.3229 44.3138 15.7217 44.0176 16.0635C43.7214 16.4007 43.3613 16.665 42.9375 16.8564C42.5137 17.0433 42.0329 17.1367 41.4951 17.1367C40.9528 17.1367 40.4674 17.0433 40.0391 16.8564C39.6152 16.665 39.2552 16.4007 38.959 16.0635C38.6628 15.7217 38.4372 15.3229 38.2822 14.8672C38.1273 14.4115 38.0498 13.917 38.0498 13.3838ZM39.6973 13.2266V13.3838C39.6973 13.7165 39.7314 14.0309 39.7998 14.3271C39.8682 14.6234 39.9753 14.8831 40.1211 15.1064C40.2669 15.3298 40.4538 15.5052 40.6816 15.6328C40.9095 15.7604 41.1807 15.8242 41.4951 15.8242C41.8005 15.8242 42.0648 15.7604 42.2881 15.6328C42.516 15.5052 42.7028 15.3298 42.8486 15.1064C42.9945 14.8831 43.1016 14.6234 43.1699 14.3271C43.2428 14.0309 43.2793 13.7165 43.2793 13.3838V13.2266C43.2793 12.8984 43.2428 12.5885 43.1699 12.2969C43.1016 12.0007 42.9922 11.7386 42.8418 11.5107C42.696 11.2829 42.5091 11.1051 42.2812 10.9775C42.0579 10.8454 41.7913 10.7793 41.4814 10.7793C41.1715 10.7793 40.9027 10.8454 40.6748 10.9775C40.4515 11.1051 40.2669 11.2829 40.1211 11.5107C39.9753 11.7386 39.8682 12.0007 39.7998 12.2969C39.7314 12.5885 39.6973 12.8984 39.6973 13.2266ZM48.3174 15.3594L50.0264 9.60352H51.0791L50.792 11.3262L49.0693 17H48.126L48.3174 15.3594ZM47.3125 9.60352L48.6455 15.3867L48.7549 17H47.7021L45.6992 9.60352H47.3125ZM52.6787 15.3184L53.9707 9.60352H55.5771L53.5811 17H52.5283L52.6787 15.3184ZM51.2568 9.60352L52.9453 15.291L53.1572 17H52.2139L50.4707 11.3193L50.1836 9.60352H51.2568ZM58.332 11.1826V17H56.6846V9.60352H58.2363L58.332 11.1826ZM58.0381 13.0283L57.5049 13.0215C57.5094 12.4974 57.5824 12.0166 57.7236 11.5791C57.8695 11.1416 58.07 10.7656 58.3252 10.4512C58.585 10.1367 58.8949 9.89518 59.2549 9.72656C59.6149 9.55339 60.016 9.4668 60.458 9.4668C60.8135 9.4668 61.1348 9.51693 61.4219 9.61719C61.7135 9.71289 61.9619 9.87012 62.167 10.0889C62.3766 10.3076 62.5361 10.5924 62.6455 10.9434C62.7549 11.2897 62.8096 11.7158 62.8096 12.2217V17H61.1553V12.2148C61.1553 11.8594 61.1029 11.5791 60.998 11.374C60.8978 11.1644 60.7497 11.0163 60.5537 10.9297C60.3623 10.8385 60.123 10.793 59.8359 10.793C59.5534 10.793 59.3005 10.8522 59.0771 10.9707C58.8538 11.0892 58.6647 11.251 58.5098 11.4561C58.3594 11.6611 58.2432 11.8981 58.1611 12.167C58.0791 12.4359 58.0381 12.723 58.0381 13.0283ZM66.2549 6.5V17H64.6006V6.5H66.2549ZM67.7451 13.3838V13.2266C67.7451 12.6934 67.8226 12.1989 67.9775 11.7432C68.1325 11.2829 68.3558 10.8841 68.6475 10.5469C68.9437 10.2051 69.3037 9.94076 69.7275 9.75391C70.1559 9.5625 70.639 9.4668 71.1768 9.4668C71.7191 9.4668 72.2021 9.5625 72.626 9.75391C73.0544 9.94076 73.4167 10.2051 73.7129 10.5469C74.0091 10.8841 74.2347 11.2829 74.3896 11.7432C74.5446 12.1989 74.6221 12.6934 74.6221 13.2266V13.3838C74.6221 13.917 74.5446 14.4115 74.3896 14.8672C74.2347 15.3229 74.0091 15.7217 73.7129 16.0635C73.4167 16.4007 73.0566 16.665 72.6328 16.8564C72.209 17.0433 71.7282 17.1367 71.1904 17.1367C70.6481 17.1367 70.1628 17.0433 69.7344 16.8564C69.3105 16.665 68.9505 16.4007 68.6543 16.0635C68.3581 15.7217 68.1325 15.3229 67.9775 14.8672C67.8226 14.4115 67.7451 13.917 67.7451 13.3838ZM69.3926 13.2266V13.3838C69.3926 13.7165 69.4268 14.0309 69.4951 14.3271C69.5635 14.6234 69.6706 14.8831 69.8164 15.1064C69.9622 15.3298 70.1491 15.5052 70.377 15.6328C70.6048 15.7604 70.876 15.8242 71.1904 15.8242C71.4958 15.8242 71.7601 15.7604 71.9834 15.6328C72.2113 15.5052 72.3981 15.3298 72.5439 15.1064C72.6898 14.8831 72.7969 14.6234 72.8652 14.3271C72.9382 14.0309 72.9746 13.7165 72.9746 13.3838V13.2266C72.9746 12.8984 72.9382 12.5885 72.8652 12.2969C72.7969 12.0007 72.6875 11.7386 72.5371 11.5107C72.3913 11.2829 72.2044 11.1051 71.9766 10.9775C71.7533 10.8454 71.4867 10.7793 71.1768 10.7793C70.8669 10.7793 70.598 10.8454 70.3701 10.9775C70.1468 11.1051 69.9622 11.2829 69.8164 11.5107C69.6706 11.7386 69.5635 12.0007 69.4951 12.2969C69.4268 12.5885 69.3926 12.8984 69.3926 13.2266ZM80.1729 15.5166V11.9893C80.1729 11.7249 80.125 11.4971 80.0293 11.3057C79.9336 11.1143 79.7878 10.9661 79.5918 10.8613C79.4004 10.7565 79.1589 10.7041 78.8672 10.7041C78.5983 10.7041 78.3659 10.7497 78.1699 10.8408C77.974 10.932 77.8213 11.055 77.7119 11.21C77.6025 11.3649 77.5479 11.5404 77.5479 11.7363H75.9072C75.9072 11.4447 75.9779 11.1621 76.1191 10.8887C76.2604 10.6152 76.4655 10.3714 76.7344 10.1572C77.0033 9.94303 77.3245 9.77441 77.6982 9.65137C78.0719 9.52832 78.4912 9.4668 78.9561 9.4668C79.512 9.4668 80.0042 9.56022 80.4326 9.74707C80.8656 9.93392 81.2051 10.2165 81.4512 10.5947C81.7018 10.9684 81.8271 11.4378 81.8271 12.0029V15.291C81.8271 15.6283 81.8499 15.9313 81.8955 16.2002C81.9456 16.4645 82.0163 16.6947 82.1074 16.8906V17H80.4189C80.3415 16.8223 80.2799 16.5967 80.2344 16.3232C80.1934 16.0452 80.1729 15.7764 80.1729 15.5166ZM80.4121 12.502L80.4258 13.5205H79.2432C78.9378 13.5205 78.6689 13.5501 78.4365 13.6094C78.2041 13.6641 78.0104 13.7461 77.8555 13.8555C77.7005 13.9648 77.5843 14.097 77.5068 14.252C77.4294 14.4069 77.3906 14.5824 77.3906 14.7783C77.3906 14.9743 77.4362 15.1543 77.5273 15.3184C77.6185 15.4779 77.7507 15.6032 77.9238 15.6943C78.1016 15.7855 78.3158 15.8311 78.5664 15.8311C78.9036 15.8311 79.1976 15.7627 79.4482 15.626C79.7035 15.4847 79.904 15.3138 80.0498 15.1133C80.1956 14.9082 80.2731 14.7145 80.2822 14.5322L80.8154 15.2637C80.7607 15.4505 80.6673 15.651 80.5352 15.8652C80.403 16.0794 80.2298 16.2845 80.0156 16.4805C79.806 16.6719 79.5531 16.8291 79.2568 16.9521C78.9652 17.0752 78.6279 17.1367 78.2451 17.1367C77.762 17.1367 77.3314 17.041 76.9531 16.8496C76.5749 16.6536 76.2786 16.3916 76.0645 16.0635C75.8503 15.7308 75.7432 15.3548 75.7432 14.9355C75.7432 14.5436 75.8161 14.1973 75.9619 13.8965C76.1123 13.5911 76.3311 13.3359 76.6182 13.1309C76.9098 12.9258 77.2653 12.7708 77.6846 12.666C78.1038 12.5566 78.5824 12.502 79.1201 12.502H80.4121ZM88.0615 15.4688V6.5H89.7158V17H88.2188L88.0615 15.4688ZM83.249 13.3838V13.2402C83.249 12.6797 83.3151 12.1693 83.4473 11.709C83.5794 11.2441 83.7708 10.8454 84.0215 10.5127C84.2721 10.1755 84.5775 9.91797 84.9375 9.74023C85.2975 9.55794 85.7031 9.4668 86.1543 9.4668C86.6009 9.4668 86.9928 9.55339 87.3301 9.72656C87.6673 9.89974 87.9544 10.1481 88.1914 10.4717C88.4284 10.7907 88.6175 11.1735 88.7588 11.6201C88.9001 12.0622 89.0003 12.5544 89.0596 13.0967V13.5547C89.0003 14.0833 88.9001 14.5664 88.7588 15.0039C88.6175 15.4414 88.4284 15.8197 88.1914 16.1387C87.9544 16.4577 87.665 16.7038 87.3232 16.877C86.986 17.0501 86.5918 17.1367 86.1406 17.1367C85.694 17.1367 85.2907 17.0433 84.9307 16.8564C84.5752 16.6696 84.2721 16.4076 84.0215 16.0703C83.7708 15.7331 83.5794 15.3366 83.4473 14.8809C83.3151 14.4206 83.249 13.9215 83.249 13.3838ZM84.8965 13.2402V13.3838C84.8965 13.721 84.9261 14.0355 84.9854 14.3271C85.0492 14.6188 85.1471 14.8763 85.2793 15.0996C85.4115 15.3184 85.5824 15.4915 85.792 15.6191C86.0062 15.7422 86.2614 15.8037 86.5576 15.8037C86.9313 15.8037 87.2389 15.7217 87.4805 15.5576C87.722 15.3936 87.9111 15.1725 88.0479 14.8945C88.1891 14.612 88.2848 14.2975 88.335 13.9512V12.7139C88.3076 12.445 88.2507 12.1943 88.1641 11.9619C88.082 11.7295 87.9704 11.5267 87.8291 11.3535C87.6878 11.1758 87.5124 11.0391 87.3027 10.9434C87.0977 10.8431 86.8538 10.793 86.5713 10.793C86.2705 10.793 86.0153 10.8568 85.8057 10.9844C85.596 11.112 85.4229 11.2874 85.2861 11.5107C85.154 11.734 85.056 11.9938 84.9922 12.29C84.9284 12.5863 84.8965 12.903 84.8965 13.2402ZM100.968 13.7598H102.677C102.622 14.4115 102.44 14.9925 102.13 15.5029C101.82 16.0088 101.385 16.4076 100.824 16.6992C100.264 16.9909 99.5824 17.1367 98.7803 17.1367C98.165 17.1367 97.6113 17.0273 97.1191 16.8086C96.627 16.5853 96.2054 16.2708 95.8545 15.8652C95.5036 15.4551 95.2347 14.9606 95.0479 14.3818C94.8656 13.8031 94.7744 13.1559 94.7744 12.4404V11.6133C94.7744 10.8978 94.8678 10.2507 95.0547 9.67188C95.2461 9.0931 95.5195 8.59863 95.875 8.18848C96.2305 7.77376 96.6566 7.45703 97.1533 7.23828C97.6546 7.01953 98.2174 6.91016 98.8418 6.91016C99.6348 6.91016 100.305 7.05599 100.852 7.34766C101.398 7.63932 101.822 8.04264 102.123 8.55762C102.428 9.07259 102.615 9.66276 102.684 10.3281H100.975C100.929 9.89974 100.829 9.53288 100.674 9.22754C100.523 8.9222 100.3 8.68978 100.004 8.53027C99.7077 8.36621 99.3203 8.28418 98.8418 8.28418C98.4499 8.28418 98.1081 8.3571 97.8164 8.50293C97.5247 8.64876 97.2809 8.86296 97.085 9.14551C96.889 9.42806 96.7409 9.77669 96.6406 10.1914C96.5449 10.6016 96.4971 11.071 96.4971 11.5996V12.4404C96.4971 12.9417 96.5404 13.3975 96.627 13.8076C96.7181 14.2132 96.8548 14.5618 97.0371 14.8535C97.224 15.1452 97.4609 15.3708 97.748 15.5303C98.0352 15.6898 98.3792 15.7695 98.7803 15.7695C99.2679 15.7695 99.6621 15.6921 99.9629 15.5371C100.268 15.3822 100.498 15.1566 100.653 14.8604C100.813 14.5596 100.918 14.1927 100.968 13.7598ZM109.472 14.4365C109.472 14.2314 109.44 14.0492 109.376 13.8896C109.317 13.7301 109.21 13.5843 109.055 13.4521C108.9 13.32 108.681 13.1924 108.398 13.0693C108.12 12.9417 107.765 12.8118 107.332 12.6797C106.858 12.5339 106.421 12.3721 106.02 12.1943C105.623 12.012 105.277 11.8024 104.98 11.5654C104.684 11.3239 104.454 11.0482 104.29 10.7383C104.126 10.4238 104.044 10.0615 104.044 9.65137C104.044 9.24577 104.128 8.87663 104.297 8.54395C104.47 8.21126 104.714 7.92415 105.028 7.68262C105.347 7.43652 105.723 7.2474 106.156 7.11523C106.589 6.97852 107.068 6.91016 107.592 6.91016C108.33 6.91016 108.966 7.04688 109.499 7.32031C110.037 7.59375 110.449 7.96061 110.736 8.4209C111.028 8.88118 111.174 9.38932 111.174 9.94531H109.472C109.472 9.61719 109.401 9.3278 109.26 9.07715C109.123 8.82194 108.913 8.62142 108.631 8.47559C108.353 8.32975 108 8.25684 107.571 8.25684C107.166 8.25684 106.828 8.31836 106.56 8.44141C106.291 8.56445 106.09 8.73079 105.958 8.94043C105.826 9.15007 105.76 9.38704 105.76 9.65137C105.76 9.83822 105.803 10.0091 105.89 10.1641C105.976 10.3145 106.108 10.4557 106.286 10.5879C106.464 10.7155 106.687 10.8363 106.956 10.9502C107.225 11.0641 107.542 11.1735 107.906 11.2783C108.458 11.4424 108.938 11.6247 109.349 11.8252C109.759 12.0212 110.101 12.2445 110.374 12.4951C110.647 12.7458 110.853 13.0306 110.989 13.3496C111.126 13.6641 111.194 14.0218 111.194 14.4229C111.194 14.8421 111.11 15.2204 110.941 15.5576C110.773 15.8903 110.531 16.1751 110.217 16.4121C109.907 16.6445 109.533 16.8245 109.096 16.9521C108.663 17.0752 108.18 17.1367 107.646 17.1367C107.168 17.1367 106.696 17.0729 106.231 16.9453C105.771 16.8177 105.352 16.624 104.974 16.3643C104.595 16.0999 104.295 15.7718 104.071 15.3799C103.848 14.9834 103.736 14.5208 103.736 13.9922H105.452C105.452 14.3158 105.507 14.5915 105.616 14.8193C105.73 15.0472 105.887 15.234 106.088 15.3799C106.288 15.5212 106.521 15.626 106.785 15.6943C107.054 15.7627 107.341 15.7969 107.646 15.7969C108.048 15.7969 108.382 15.7399 108.651 15.626C108.925 15.512 109.13 15.3525 109.267 15.1475C109.403 14.9424 109.472 14.7054 109.472 14.4365ZM116.123 15.1816L118.741 7.04688H120.635L117.066 17H115.788L116.123 15.1816ZM113.703 7.04688L116.301 15.1816L116.656 17H115.371L111.816 7.04688H113.703ZM129.002 7.04688V17H127.3V7.04688H129.002ZM132.126 7.04688V8.41406H124.203V7.04688H132.126ZM135.879 17.1367C135.332 17.1367 134.838 17.0479 134.396 16.8701C133.958 16.6878 133.584 16.4349 133.274 16.1113C132.969 15.7878 132.734 15.4072 132.57 14.9697C132.406 14.5322 132.324 14.0605 132.324 13.5547V13.2812C132.324 12.7025 132.409 12.1784 132.577 11.709C132.746 11.2396 132.98 10.8385 133.281 10.5059C133.582 10.1686 133.938 9.91113 134.348 9.7334C134.758 9.55566 135.202 9.4668 135.681 9.4668C136.209 9.4668 136.672 9.55566 137.068 9.7334C137.465 9.91113 137.793 10.1618 138.053 10.4854C138.317 10.8044 138.513 11.1849 138.641 11.627C138.773 12.069 138.839 12.5566 138.839 13.0898V13.7939H133.124V12.6113H137.212V12.4814C137.203 12.1852 137.144 11.9072 137.034 11.6475C136.929 11.3877 136.768 11.1781 136.549 11.0186C136.33 10.859 136.038 10.7793 135.674 10.7793C135.4 10.7793 135.157 10.8385 134.942 10.957C134.733 11.071 134.557 11.2373 134.416 11.4561C134.275 11.6748 134.165 11.9391 134.088 12.249C134.015 12.5544 133.979 12.8984 133.979 13.2812V13.5547C133.979 13.8783 134.022 14.179 134.108 14.457C134.2 14.7305 134.332 14.9697 134.505 15.1748C134.678 15.3799 134.888 15.5417 135.134 15.6602C135.38 15.7741 135.66 15.8311 135.975 15.8311C136.371 15.8311 136.724 15.7513 137.034 15.5918C137.344 15.4323 137.613 15.2067 137.841 14.915L138.709 15.7559C138.549 15.9883 138.342 16.2116 138.087 16.4258C137.832 16.6354 137.52 16.8063 137.15 16.9385C136.786 17.0706 136.362 17.1367 135.879 17.1367ZM141.771 11.1074V17H140.124V9.60352H141.676L141.771 11.1074ZM141.505 13.0283L140.944 13.0215C140.944 12.5111 141.008 12.0394 141.136 11.6064C141.263 11.1735 141.45 10.7975 141.696 10.4785C141.942 10.1549 142.248 9.90658 142.612 9.7334C142.981 9.55566 143.408 9.4668 143.891 9.4668C144.228 9.4668 144.535 9.51693 144.813 9.61719C145.096 9.71289 145.34 9.86556 145.545 10.0752C145.755 10.2848 145.914 10.5537 146.023 10.8818C146.137 11.21 146.194 11.6064 146.194 12.0713V17H144.547V12.2148C144.547 11.8548 144.492 11.5723 144.383 11.3672C144.278 11.1621 144.125 11.0163 143.925 10.9297C143.729 10.8385 143.494 10.793 143.221 10.793C142.911 10.793 142.646 10.8522 142.428 10.9707C142.214 11.0892 142.038 11.251 141.901 11.4561C141.765 11.6611 141.664 11.8981 141.601 12.167C141.537 12.4359 141.505 12.723 141.505 13.0283ZM146.092 12.5908L145.319 12.7617C145.319 12.3151 145.381 11.8936 145.504 11.4971C145.632 11.096 145.816 10.7451 146.058 10.4443C146.304 10.139 146.607 9.89974 146.967 9.72656C147.327 9.55339 147.739 9.4668 148.204 9.4668C148.582 9.4668 148.92 9.51921 149.216 9.62402C149.517 9.72428 149.772 9.88379 149.981 10.1025C150.191 10.3213 150.351 10.6061 150.46 10.957C150.569 11.3034 150.624 11.7227 150.624 12.2148V17H148.97V12.208C148.97 11.8343 148.915 11.5449 148.806 11.3398C148.701 11.1348 148.55 10.9935 148.354 10.916C148.159 10.834 147.924 10.793 147.65 10.793C147.395 10.793 147.17 10.8408 146.974 10.9365C146.782 11.0277 146.62 11.1576 146.488 11.3262C146.356 11.4902 146.256 11.6794 146.188 11.8936C146.124 12.1077 146.092 12.3402 146.092 12.5908ZM153.974 11.0254V19.8438H152.326V9.60352H153.844L153.974 11.0254ZM158.793 13.2334V13.377C158.793 13.9147 158.729 14.4137 158.602 14.874C158.479 15.3298 158.294 15.7285 158.048 16.0703C157.806 16.4076 157.508 16.6696 157.152 16.8564C156.797 17.0433 156.387 17.1367 155.922 17.1367C155.462 17.1367 155.058 17.0524 154.712 16.8838C154.37 16.7106 154.081 16.4668 153.844 16.1523C153.607 15.8379 153.415 15.4688 153.27 15.0449C153.128 14.6165 153.028 14.1471 152.969 13.6367V13.083C153.028 12.5407 153.128 12.0485 153.27 11.6064C153.415 11.1644 153.607 10.7839 153.844 10.4648C154.081 10.1458 154.37 9.89974 154.712 9.72656C155.054 9.55339 155.452 9.4668 155.908 9.4668C156.373 9.4668 156.785 9.55794 157.146 9.74023C157.506 9.91797 157.809 10.1732 158.055 10.5059C158.301 10.834 158.485 11.2305 158.608 11.6953C158.731 12.1556 158.793 12.6683 158.793 13.2334ZM157.146 13.377V13.2334C157.146 12.8916 157.114 12.5749 157.05 12.2832C156.986 11.987 156.886 11.7272 156.749 11.5039C156.612 11.2806 156.437 11.1074 156.223 10.9844C156.013 10.8568 155.76 10.793 155.464 10.793C155.172 10.793 154.922 10.8431 154.712 10.9434C154.502 11.0391 154.327 11.1735 154.186 11.3467C154.044 11.5199 153.935 11.7227 153.857 11.9551C153.78 12.1829 153.725 12.4313 153.693 12.7002V14.0264C153.748 14.3545 153.841 14.6553 153.974 14.9287C154.106 15.2021 154.293 15.4209 154.534 15.585C154.78 15.7445 155.095 15.8242 155.478 15.8242C155.774 15.8242 156.027 15.7604 156.236 15.6328C156.446 15.5052 156.617 15.3298 156.749 15.1064C156.886 14.8786 156.986 14.6165 157.05 14.3203C157.114 14.0241 157.146 13.7096 157.146 13.377ZM161.958 6.5V17H160.304V6.5H161.958ZM167.933 15.5166V11.9893C167.933 11.7249 167.885 11.4971 167.789 11.3057C167.693 11.1143 167.548 10.9661 167.352 10.8613C167.16 10.7565 166.919 10.7041 166.627 10.7041C166.358 10.7041 166.126 10.7497 165.93 10.8408C165.734 10.932 165.581 11.055 165.472 11.21C165.362 11.3649 165.308 11.5404 165.308 11.7363H163.667C163.667 11.4447 163.738 11.1621 163.879 10.8887C164.02 10.6152 164.225 10.3714 164.494 10.1572C164.763 9.94303 165.084 9.77441 165.458 9.65137C165.832 9.52832 166.251 9.4668 166.716 9.4668C167.272 9.4668 167.764 9.56022 168.192 9.74707C168.625 9.93392 168.965 10.2165 169.211 10.5947C169.462 10.9684 169.587 11.4378 169.587 12.0029V15.291C169.587 15.6283 169.61 15.9313 169.655 16.2002C169.705 16.4645 169.776 16.6947 169.867 16.8906V17H168.179C168.101 16.8223 168.04 16.5967 167.994 16.3232C167.953 16.0452 167.933 15.7764 167.933 15.5166ZM168.172 12.502L168.186 13.5205H167.003C166.698 13.5205 166.429 13.5501 166.196 13.6094C165.964 13.6641 165.77 13.7461 165.615 13.8555C165.46 13.9648 165.344 14.097 165.267 14.252C165.189 14.4069 165.15 14.5824 165.15 14.7783C165.15 14.9743 165.196 15.1543 165.287 15.3184C165.378 15.4779 165.51 15.6032 165.684 15.6943C165.861 15.7855 166.076 15.8311 166.326 15.8311C166.663 15.8311 166.957 15.7627 167.208 15.626C167.463 15.4847 167.664 15.3138 167.81 15.1133C167.955 14.9082 168.033 14.7145 168.042 14.5322L168.575 15.2637C168.521 15.4505 168.427 15.651 168.295 15.8652C168.163 16.0794 167.99 16.2845 167.775 16.4805C167.566 16.6719 167.313 16.8291 167.017 16.9521C166.725 17.0752 166.388 17.1367 166.005 17.1367C165.522 17.1367 165.091 17.041 164.713 16.8496C164.335 16.6536 164.038 16.3916 163.824 16.0635C163.61 15.7308 163.503 15.3548 163.503 14.9355C163.503 14.5436 163.576 14.1973 163.722 13.8965C163.872 13.5911 164.091 13.3359 164.378 13.1309C164.67 12.9258 165.025 12.7708 165.444 12.666C165.864 12.5566 166.342 12.502 166.88 12.502H168.172ZM174.7 9.60352V10.8066H170.53V9.60352H174.7ZM171.733 7.79199H173.381V14.9561C173.381 15.1839 173.413 15.3594 173.477 15.4824C173.545 15.6009 173.638 15.6807 173.757 15.7217C173.875 15.7627 174.014 15.7832 174.174 15.7832C174.288 15.7832 174.397 15.7764 174.502 15.7627C174.607 15.749 174.691 15.7354 174.755 15.7217L174.762 16.9795C174.625 17.0205 174.465 17.057 174.283 17.0889C174.105 17.1208 173.9 17.1367 173.668 17.1367C173.29 17.1367 172.955 17.0706 172.663 16.9385C172.371 16.8018 172.144 16.5807 171.979 16.2754C171.815 15.9701 171.733 15.5645 171.733 15.0586V7.79199ZM179.232 17.1367C178.686 17.1367 178.191 17.0479 177.749 16.8701C177.312 16.6878 176.938 16.4349 176.628 16.1113C176.323 15.7878 176.088 15.4072 175.924 14.9697C175.76 14.5322 175.678 14.0605 175.678 13.5547V13.2812C175.678 12.7025 175.762 12.1784 175.931 11.709C176.099 11.2396 176.334 10.8385 176.635 10.5059C176.936 10.1686 177.291 9.91113 177.701 9.7334C178.111 9.55566 178.556 9.4668 179.034 9.4668C179.563 9.4668 180.025 9.55566 180.422 9.7334C180.818 9.91113 181.146 10.1618 181.406 10.4854C181.671 10.8044 181.867 11.1849 181.994 11.627C182.126 12.069 182.192 12.5566 182.192 13.0898V13.7939H176.478V12.6113H180.565V12.4814C180.556 12.1852 180.497 11.9072 180.388 11.6475C180.283 11.3877 180.121 11.1781 179.902 11.0186C179.684 10.859 179.392 10.7793 179.027 10.7793C178.754 10.7793 178.51 10.8385 178.296 10.957C178.086 11.071 177.911 11.2373 177.77 11.4561C177.628 11.6748 177.519 11.9391 177.441 12.249C177.368 12.5544 177.332 12.8984 177.332 13.2812V13.5547C177.332 13.8783 177.375 14.179 177.462 14.457C177.553 14.7305 177.685 14.9697 177.858 15.1748C178.032 15.3799 178.241 15.5417 178.487 15.6602C178.733 15.7741 179.014 15.8311 179.328 15.8311C179.725 15.8311 180.078 15.7513 180.388 15.5918C180.698 15.4323 180.966 15.2067 181.194 14.915L182.062 15.7559C181.903 15.9883 181.696 16.2116 181.44 16.4258C181.185 16.6354 180.873 16.8063 180.504 16.9385C180.139 17.0706 179.715 17.1367 179.232 17.1367Z" fill="#0065FF"/>
</svg>
