<?xml version="1.0" encoding="UTF-8"?>
<svg width="328" height="164" viewBox="0 0 328 164" fill="none" xmlns="http://www.w3.org/2000/svg">
<g clip-path="url(#clip0_1133_23487)">
<rect width="328" height="164" rx="8" fill="#EEEEEE"/>
<path d="M28.0873 31.174C28.2863 29.2637 29.8965 27.8125 31.8172 27.8125H190.761C192.682 27.8125 194.292 29.2637 194.491 31.174L196.053 46.174C196.284 48.3868 194.548 50.3125 192.323 50.3125H30.2547C28.0299 50.3125 26.2943 48.3868 26.5248 46.174L28.0873 31.174Z" fill="#5482FF"/>
<path fill-rule="evenodd" clip-rule="evenodd" d="M34.973 46.9233L46.898 140.087C47.1975 142.427 49.1888 144.18 51.5475 144.18H74.1406C74.1406 141.656 76.1868 139.609 78.7109 139.609H143.867C146.391 139.609 148.437 141.656 148.437 144.18H171.581C174.004 144.18 176.028 142.332 176.249 139.919L184.767 46.7549C185.018 44.009 182.856 41.6406 180.099 41.6406H39.6226C36.7975 41.6406 34.6143 44.1211 34.973 46.9233Z" fill="#5482FF"/>
<path d="M61.6011 50.3125H35.4092L35.8866 54.0625H69.0169L74.0234 144.062C74.1796 142.734 75.2656 139.984 78.3593 139.609V54.0625H144.219V139.492C147.312 139.867 148.398 142.617 148.555 143.945L153.555 54.0625H184.107L184.455 50.3125H160.625L156.289 47.5H135.546L131.445 50.3125H90.4292L86.7964 46.6797H64.2964L61.6011 50.3125Z" fill="#1C41D6"/>
<path fill-rule="evenodd" clip-rule="evenodd" d="M87.9688 96.4844H95.3516V111.016H93.3594V113.785H87.9688V96.4844ZM127.804 111.016V96.4844H126.301V111.016H127.804ZM124.798 111.016V96.4844H123.295V111.016H124.798ZM121.04 111.016V96.4844H119.537V111.016H121.04ZM115.027 111.016V96.4844H113.524V111.016H115.027ZM111.269 111.016V96.4844H109.766V111.016H111.269ZM108.339 111.016V96.4844H106.836V111.016H108.339ZM103.086 111.016V96.4844H97.8246V111.016H103.086ZM130.059 96.4844H131.562V113.785H130.059V96.4844Z" fill="white"/>
<rect x="95.4688" y="113.125" width="1.40625" height="1.875" fill="white"/>
<rect x="100.859" y="113.125" width="1.40625" height="1.875" fill="white"/>
<rect x="105.078" y="113.125" width="1.40625" height="1.875" fill="white"/>
<rect x="109.297" y="113.125" width="1.40625" height="1.875" fill="white"/>
<rect x="113.516" y="113.125" width="1.40625" height="1.875" fill="white"/>
<rect x="117.734" y="113.125" width="1.40625" height="1.875" fill="white"/>
<rect x="121.953" y="113.125" width="1.40625" height="1.875" fill="white"/>
<rect x="126.172" y="113.125" width="1.40625" height="1.875" fill="white"/>
<path opacity="0.2" d="M208 80.5L86 94.5V116.5H134L217 101L208 80.5Z" fill="#DF4535"/>
<path d="M259.669 96.9951C259.719 96.6836 259.451 96.4135 259.14 96.4613L250.463 97.793C250.264 97.8236 250.107 97.9792 250.075 98.1782L247.439 114.471C247.388 114.782 247.656 115.052 247.968 115.004L256.645 113.673C256.844 113.642 257.001 113.486 257.033 113.287L259.669 96.9951Z" fill="#112AB8"/>
<path d="M269.148 93.8518L248.828 96.9705L262.96 134.276C263.795 136.481 266.059 137.802 268.391 137.445L278.611 135.876C281.753 135.394 283.652 132.139 282.526 129.167L269.148 93.8518Z" fill="#1C41D6"/>
<path d="M281.546 79.3352C280.268 71.0087 272.482 65.2948 264.156 66.5727L207.41 75.2822C206.666 75.3965 206.225 76.1777 206.512 76.8739L217.569 103.688C217.774 104.184 218.29 104.475 218.82 104.394L268.784 96.7255C277.11 95.4476 282.824 87.6617 281.546 79.3352Z" fill="#ABC8FF"/>
<path d="M274.991 80.3413C274.269 75.635 269.868 72.4054 265.162 73.1277L232.411 78.1544C231.665 78.2688 231.225 79.0522 231.514 79.7488L237.407 93.9373C237.612 94.4312 238.128 94.7213 238.656 94.6402L267.778 90.1706C272.484 89.4483 275.714 85.0475 274.991 80.3413Z" fill="#5482FF"/>
<path d="M221.287 73.1524L207.41 75.2822C206.666 75.3964 206.225 76.1777 206.512 76.8739L217.569 103.688C217.774 104.184 218.29 104.475 218.82 104.394L233.256 102.178L221.287 73.1524Z" fill="#1C41D6"/>
</g>
<defs>
<clipPath id="clip0_1133_23487">
<rect width="328" height="164" fill="white"/>
</clipPath>
</defs>
</svg>
