<?xml version="1.0" encoding="UTF-8"?>
<svg width="127" height="91" viewBox="0 0 127 91" fill="none" xmlns="http://www.w3.org/2000/svg">
<path d="M14.0399 28.6486C15.8555 36.4498 9.14128 41.1976 5.92927 45.1541C3.8954 47.7651 -1.05034 52.036 0.199742 67.7341C0.801444 75.2901 4.69333 86.0549 13.2326 88.5323C17.9911 91.5964 60.6874 86.8373 83.1111 89.5102C106.866 92.3418 111.814 89.3151 123.422 80.5229C128.222 76.8876 126.436 66.7883 124.166 60.1009C121.674 53.6266 120.074 43.1159 124.687 29.8476C129.69 15.459 122.442 9.89189 118.846 7.4274C114.394 4.68316 105.155 1.87231 94.1048 6.98779C79.8603 13.5822 73.6049 11.0642 68.545 10.3448C63.4852 9.62546 46.2221 3.7906 31.1914 0.473532C19.1667 -2.18012 12.0309 6.9878 11.0263 11.3839C10.0218 18.6575 12.2243 20.8475 14.0399 28.6486Z" fill="#E7E9ED"/>
<mask id="mask0_1734_1663" style="mask-type:alpha" maskUnits="userSpaceOnUse" x="0" y="0" width="127" height="91">
<path d="M14.0399 28.6486C15.8555 36.4498 9.14128 41.1976 5.92927 45.1541C3.8954 47.7651 -1.05034 52.036 0.199742 67.7341C0.801444 75.2901 4.69333 86.055 13.2326 88.5323C17.9911 91.5964 60.6874 86.8373 83.1111 89.5102C106.866 92.3418 111.814 89.3151 123.422 80.5229C128.222 76.8876 126.436 66.7883 124.166 60.1009C121.674 53.6266 120.074 43.1159 124.687 29.8476C129.69 15.459 122.442 9.89189 118.846 7.4274C114.394 4.68316 105.155 1.87231 94.1048 6.98779C79.8603 13.5822 73.6049 11.0642 68.545 10.3448C63.4852 9.62546 46.2221 3.7906 31.1914 0.473532C19.1668 -2.18012 12.0309 6.9878 11.0263 11.3839C10.0218 18.6575 12.2243 20.8475 14.0399 28.6486Z" fill="#FFFAE5"/>
</mask>
<g mask="url(#mask0_1734_1663)">
<path fill-rule="evenodd" clip-rule="evenodd" d="M154.446 110.801C150.184 130.994 149.508 139.041 141.116 139.279C120.361 139.869 119.392 115.074 117.053 96.381C115.675 83.44 137.334 98.132 137.334 98.132" fill="#FFBDAD"/>
<path fill-rule="evenodd" clip-rule="evenodd" d="M113.586 56.1839C113.586 56.1839 115.29 83.5494 117.029 96.2619C118.769 108.973 137.421 98.0028 137.421 98.0028L127.063 56.2436C124.849 48.0963 119.298 46.537 119.298 46.537C115.25 45.0307 108.745 45.8977 108.745 45.8977C107.779 46.1007 106.609 45.9597 105.646 46.7084C104.697 47.4469 102.235 48.8089 102.235 48.8089" fill="#FFBDAD"/>
<path d="M112.705 58.1346H108.732C108.588 58.1346 108.467 58.0248 108.454 57.8813L107.343 45.7606H77.8828C77.7288 45.7606 77.604 45.6358 77.604 45.4818V32.1348C77.604 31.9588 77.7651 31.8268 77.9377 31.8615L106.775 37.6595H111.315H122.387C122.541 37.6595 122.665 37.7843 122.665 37.9383V45.4818C122.665 45.6358 122.541 45.7606 122.387 45.7606H111.611L112.982 57.8244C113.001 57.9898 112.872 58.1346 112.705 58.1346Z" fill="#423C3C"/>
<path fill-rule="evenodd" clip-rule="evenodd" d="M118.064 50.3787L112.729 51.2297C107.255 52.8336 106.867 51.0595 107.65 50.7627C108.431 50.467 109.18 49.9204 114.439 47.2386L119.26 46.7847" fill="#FFBDAD"/>
<path d="M53.2154 16.3769C59.7312 14.869 62.2126 21.3311 62.6388 24.7506L68.2092 51.977C69.3155 56.7575 64.0809 58.8577 60.9787 59.3904C53.1369 60.2176 36.1996 61.977 31.1848 62.3969C26.1699 62.8168 23.5142 58.9873 23.2892 55.8916C22.7598 48.6075 21.3651 33.3763 21.2448 29.7008C21.126 26.0709 24.1023 23.1142 27.2215 22.3924L53.2154 16.3769Z" fill="white"/>
<path d="M28.4472 27.0367L29.8323 36.0788M56.4611 21.9941L57.9157 32.1004M53.2612 20.394L54.2499 24.6664M54.0733 28.4884L54.5083 30.3682M50.7362 30.8811L51.1712 32.761M50.1623 26.8727L50.6369 28.9235M48.6208 23.2684L49.0953 25.3192M46.6468 26.9661L47.1214 29.0169M44.643 29.7705L45.1176 31.8212M42.2639 32.4816L42.778 34.7033M41.8658 21.5907L42.3799 23.8124M37.8467 21.8006L38.3609 24.0223M40.8103 25.436L41.3244 27.6577M38.9743 28.2015L39.4489 30.2523M34.8858 27.3472L35.3999 29.5688M33.2177 30.0739L33.6923 32.1246M36.2103 31.5419L36.7244 33.7636M33.7521 33.9113L34.2662 36.133M32.0225 28.73L31.4688 26.3375" stroke="black" stroke-width="1.61053"/>
<path d="M60.3965 38.9995L61.906 53.5943" stroke="black" stroke-width="1.34211" stroke-linecap="round"/>
<path d="M49.3508 40.4429L51.4633 54.4849" stroke="black" stroke-width="1.34211" stroke-linecap="round"/>
<path d="M41.3484 40.7617L43.2212 55.8166" stroke="black" stroke-width="1.34211" stroke-linecap="round"/>
<path d="M30.4985 42.834L32.3248 56.8975" stroke="black" stroke-width="1.34211" stroke-linecap="round"/>
<path d="M27.4712 43.7744L30.1067 57.5458" stroke="black" stroke-width="0.536843" stroke-linecap="round"/>
<path d="M25.9216 43.7681L27.9336 57.6443" stroke="black" stroke-width="0.536843" stroke-linecap="round"/>
<path d="M34.2434 41.8418L36.2207 56.3608" stroke="black" stroke-width="0.536843" stroke-linecap="round"/>
<path d="M36.303 41.3652L38.2803 55.8843" stroke="black" stroke-width="0.536843" stroke-linecap="round"/>
<path d="M38.4636 41.2305L40.441 55.7495" stroke="black" stroke-width="0.536843" stroke-linecap="round"/>
<path d="M45.292 40.7461L47.2693 55.2651" stroke="black" stroke-width="0.536843" stroke-linecap="round"/>
<path d="M47.1064 40.6924L49.0838 55.2114" stroke="black" stroke-width="0.536843" stroke-linecap="round"/>
<path d="M53.3477 39.248L55.325 53.7671" stroke="black" stroke-width="0.536843" stroke-linecap="round"/>
<path d="M55.7747 38.6865L57.752 53.2055" stroke="black" stroke-width="0.536843" stroke-linecap="round"/>
<path d="M57.5886 38.6309L59.566 53.1499" stroke="black" stroke-width="0.536843" stroke-linecap="round"/>
</g>
</svg>
