<?xml version="1.0" encoding="UTF-8"?>
<svg width="328" height="81" viewBox="0 0 328 81" fill="none" xmlns="http://www.w3.org/2000/svg">
<rect width="328" height="80" rx="8" fill="#F0F5FF"/>
<g clip-path="url(#clip0_1118_13598)">
<path d="M100.331 10.1562H157.318V83.6881H100.331V10.1562Z" fill="#D5AB88"/>
<rect x="140.773" y="10.1562" width="11.0298" height="73.5319" fill="#F3D2A2"/>
<rect x="84.002" y="21.4248" width="73.3159" height="5.51489" fill="#DF4535"/>
<path d="M100.33 83.6885H94.8154V10.1562H100.33V83.6885ZM157.317 21.416H157.318V26.9307H157.317V83.6885H151.803V63.6113H100.498V58.0967H151.803V26.9307H137.834V32.043C137.834 33.2265 136.874 34.1865 135.69 34.1865H117.653C116.47 34.1863 115.511 33.2264 115.511 32.043V26.9307H100.331V21.416H151.803V10.1562H157.317V21.416Z" fill="#AF7357"/>
<path d="M83.7861 10.1562H94.8159V83.6881H83.7861V10.1562Z" fill="#F3D2A2"/>
<path d="M121.21 32.1562H120.627V31.3789H121.21V32.1562ZM123.445 32.1562H122.862V31.3789H123.445V32.1562ZM125.193 32.1562H124.61V31.3789H125.193V32.1562ZM126.94 32.1562H126.357V31.3789H126.94V32.1562ZM128.691 32.1562H128.108V31.3789H128.691V32.1562ZM130.439 32.1562H129.856V31.3789H130.439V32.1562ZM132.187 32.1562H131.604V31.3789H132.187V32.1562ZM133.935 32.1562H133.352V31.3789H133.935V32.1562ZM120.579 30.5049H119.753V31.6523H117.52V24.4834H120.579V30.5049ZM135.585 31.6523H134.962V24.4834H135.585V31.6523ZM123.784 30.5049H121.604V24.4834H123.784V30.5049ZM125.961 30.5049H125.338V24.4834H125.961V30.5049ZM127.175 30.5049H126.552V24.4834H127.175V30.5049ZM128.732 30.5049H128.109V24.4834H128.732V30.5049ZM131.225 30.5049H130.602V24.4834H131.225V30.5049ZM132.781 30.5049H132.158V24.4834H132.781V30.5049ZM134.027 30.5049H133.404V24.4834H134.027V30.5049Z" fill="white"/>
</g>
<path opacity="0.2" d="M113.752 34.8074L114.227 21.9699C114.267 20.8949 115.15 20.0439 116.226 20.0439H137.996L203.475 24.4092L207.217 36.8815H137.372H115.75C114.617 36.8815 113.71 35.9403 113.752 34.8074Z" fill="#DD544C"/>
<path d="M223.947 38.6662C224.01 38.4722 223.865 38.2734 223.661 38.2734H217.989C217.859 38.2734 217.743 38.3574 217.703 38.4814L214.422 48.6294C214.359 48.8234 214.504 49.0222 214.708 49.0222H220.38C220.511 49.0222 220.626 48.9382 220.666 48.8143L223.947 38.6662Z" fill="#112AB8"/>
<path d="M230.31 37.5879H217.025L222.394 62.8014C222.712 64.2922 224.028 65.358 225.553 65.358H232.234C234.289 65.358 235.821 63.4653 235.393 61.4562L230.31 37.5879Z" fill="#1C41D6"/>
<path d="M239.652 29.5315C239.652 24.0878 235.239 19.6748 229.796 19.6748H192.696C192.21 19.6748 191.851 20.1306 191.967 20.6034L196.401 38.8148C196.483 39.1513 196.784 39.3881 197.13 39.3881H229.796C235.239 39.3881 239.652 34.9751 239.652 29.5315Z" fill="#ABC8FF"/>
<path d="M235.367 29.5311C235.367 26.4543 232.872 23.96 229.796 23.96H208.383C207.896 23.96 207.538 24.4171 207.654 24.8904L210.027 34.5308C210.11 34.8664 210.411 35.1023 210.756 35.1023H229.796C232.872 35.1023 235.367 32.608 235.367 29.5311Z" fill="#5482FF"/>
<path d="M201.768 19.6748H192.696C192.209 19.6748 191.851 20.1306 191.966 20.6034L196.4 38.8148C196.482 39.1513 196.784 39.3881 197.13 39.3881H206.568L201.768 19.6748Z" fill="#1C41D6"/>
<defs>
<clipPath id="clip0_1118_13598">
<rect width="80.0512" height="67.9222" fill="white" transform="translate(81.1328 5.07715)"/>
</clipPath>
</defs>
</svg>
