<?xml version="1.0" encoding="UTF-8"?>
<svg width="328" height="164" viewBox="0 0 328 164" fill="none" xmlns="http://www.w3.org/2000/svg">
<g clip-path="url(#clip0_85_10372)">
<rect width="328" height="164" rx="8" fill="#EEEEEE"/>
<path d="M28.0873 31.174C28.2863 29.2637 29.8965 27.8125 31.8172 27.8125H190.761C192.682 27.8125 194.292 29.2637 194.491 31.174L196.053 46.174C196.284 48.3868 194.548 50.3125 192.323 50.3125H30.2547C28.0299 50.3125 26.2943 48.3868 26.5248 46.174L28.0873 31.174Z" fill="#5482FF"/>
<path d="M180.099 41.6406C182.856 41.6406 185.018 44.009 184.767 46.7549L176.249 139.919C176.029 142.332 174.005 144.18 171.581 144.18H148.438C148.438 141.656 146.392 139.609 143.867 139.609H78.7112C76.1871 139.609 74.1409 141.656 74.1409 144.18H51.5481C49.1894 144.18 47.1972 142.427 46.8977 140.087L34.9729 46.9229C34.6145 44.121 36.7976 41.6409 39.6223 41.6406H180.099Z" fill="#5482FF"/>
<path d="M61.6011 50.3125H35.4092L35.8866 54.0625H69.0169L74.0234 144.062C74.1796 142.734 75.2656 139.984 78.3593 139.609V54.0625H144.219V139.492C147.312 139.867 148.398 142.617 148.555 143.945L153.555 54.0625H184.107L184.455 50.3125H160.625L156.289 47.5H135.546L131.445 50.3125H90.4292L86.7964 46.6797H64.2964L61.6011 50.3125Z" fill="#1C41D6"/>
<path d="M95.3516 111.016H93.3594V113.785H87.9688V96.4844H95.3516V111.016ZM131.562 113.785H130.06V96.4844H131.562V113.785ZM103.086 111.016H97.8242V96.4844H103.086V111.016ZM108.339 111.016H106.836V96.4844H108.339V111.016ZM111.269 111.016H109.766V96.4844H111.269V111.016ZM115.027 111.016H113.523V96.4844H115.027V111.016ZM121.04 111.016H119.537V96.4844H121.04V111.016ZM124.798 111.016H123.295V96.4844H124.798V111.016ZM127.805 111.016H126.301V96.4844H127.805V111.016Z" fill="white"/>
<rect x="95.4688" y="113.125" width="1.40625" height="1.875" fill="white"/>
<rect x="100.859" y="113.125" width="1.40625" height="1.875" fill="white"/>
<rect x="105.078" y="113.125" width="1.40625" height="1.875" fill="white"/>
<rect x="109.297" y="113.125" width="1.40625" height="1.875" fill="white"/>
<rect x="113.516" y="113.125" width="1.40625" height="1.875" fill="white"/>
<rect x="117.734" y="113.125" width="1.40625" height="1.875" fill="white"/>
<rect x="121.953" y="113.125" width="1.40625" height="1.875" fill="white"/>
<rect x="126.172" y="113.125" width="1.40625" height="1.875" fill="white"/>
<path opacity="0.2" d="M208 80.5L86 94.5V116.5H134L217 101L208 80.5Z" fill="#DF4535"/>
<path d="M259.669 96.9949C259.719 96.6834 259.451 96.4133 259.14 96.4612L250.463 97.7928C250.264 97.8234 250.107 97.979 250.075 98.1781L247.439 114.47C247.388 114.782 247.656 115.052 247.968 115.004L256.645 113.672C256.844 113.642 257.001 113.486 257.033 113.287L259.669 96.9949Z" fill="#112AB8"/>
<path d="M269.148 93.8516L248.828 96.9704L262.96 134.276C263.795 136.481 266.059 137.802 268.391 137.444L278.611 135.876C281.753 135.394 283.652 132.139 282.526 129.166L269.148 93.8516Z" fill="#1C41D6"/>
<path d="M281.546 79.335C280.268 71.0085 272.482 65.2945 264.156 66.5725L207.41 75.282C206.666 75.3962 206.225 76.1774 206.512 76.8736L217.569 103.688C217.774 104.184 218.29 104.475 218.82 104.394L268.784 96.7253C277.11 95.4473 282.824 87.6614 281.546 79.335Z" fill="#ABC8FF"/>
<path d="M274.991 80.341C274.269 75.6348 269.868 72.4051 265.162 73.1275L232.411 78.1542C231.665 78.2686 231.225 79.0519 231.514 79.7486L237.407 93.937C237.612 94.431 238.128 94.7211 238.656 94.64L267.778 90.1704C272.484 89.448 275.714 85.0473 274.991 80.341Z" fill="#5482FF"/>
<path d="M221.287 73.1522L207.41 75.282C206.666 75.3962 206.225 76.1775 206.512 76.8737L217.569 103.688C217.774 104.184 218.29 104.475 218.82 104.394L233.256 102.178L221.287 73.1522Z" fill="#1C41D6"/>
</g>
<defs>
<clipPath id="clip0_85_10372">
<rect width="328" height="164" fill="white"/>
</clipPath>
</defs>
</svg>
