<?xml version="1.0" encoding="UTF-8"?>
<svg width="20" height="20" viewBox="0 0 20 20" fill="none" xmlns="http://www.w3.org/2000/svg">
<g id="shelves">
<path id="vector" d="M3.21515 19.1667C2.97422 19.1667 2.7751 19.0872 2.61779 18.9281C2.46049 18.7691 2.38184 18.5735 2.38184 18.3415V1.65856C2.38184 1.42652 2.4617 1.23098 2.62144 1.07194C2.78119 0.912895 2.98152 0.833374 3.22244 0.833374C3.45552 0.833374 3.65072 0.912895 3.80802 1.07194C3.96533 1.23098 4.04398 1.42652 4.04398 1.65856V2.40583H15.967V1.65856C15.967 1.42652 16.0468 1.23098 16.2066 1.07194C16.3663 0.912895 16.5627 0.833374 16.7958 0.833374C17.0289 0.833374 17.226 0.912895 17.3873 1.07194C17.5485 1.23098 17.6291 1.42652 17.6291 1.65856V18.3415C17.6291 18.5735 17.5473 18.7691 17.3836 18.9281C17.2199 19.0872 17.0216 19.1667 16.7885 19.1667C16.5554 19.1667 16.3602 19.0872 16.2029 18.9281C16.0456 18.7691 15.967 18.5735 15.967 18.3415V17.5825H4.04398V18.3415C4.04398 18.5735 3.96411 18.7691 3.80436 18.9281C3.64462 19.0872 3.44822 19.1667 3.21515 19.1667ZM4.04398 9.37233H5.98238V6.8524C5.98238 6.62037 6.0619 6.42483 6.22094 6.26577C6.37998 6.10673 6.57552 6.02721 6.80757 6.02721H9.97604C10.2081 6.02721 10.4036 6.10673 10.5626 6.26577C10.7217 6.42483 10.8012 6.62037 10.8012 6.8524V9.37233H15.967V4.068H4.04398V9.37233ZM4.04398 16.1087H9.20973V13.5888C9.20973 13.3568 9.28925 13.1612 9.44829 13.0022C9.60734 12.8431 9.80288 12.7636 10.0349 12.7636H13.2034C13.4354 12.7636 13.631 12.8431 13.79 13.0022C13.949 13.1612 14.0286 13.3568 14.0286 13.5888V16.1087H15.967V10.8461H4.04398V16.1087ZM7.45611 9.37233H9.32748V7.50096H7.45611V9.37233ZM10.6835 16.1087H12.5548V14.2491H10.6835V16.1087Z" fill="#212121"/>
</g>
</svg>
