<?xml version="1.0" encoding="UTF-8"?>
<svg width="173" height="179" viewBox="0 0 173 179" fill="none" xmlns="http://www.w3.org/2000/svg">
<path d="M99.0597 0.506859C56.0226 1.37032 51.9126 36.3281 38.4651 53.0915C34.4544 58.0872 -15.6727 91.3181 5.96996 122.97C13.5195 134.022 22.6335 136.44 27.6003 149.528C39.0362 179.638 60.679 192.663 107.801 156.929C114.953 151.501 123.72 146.419 131.443 142.102C143.984 135.108 161.008 130.013 166.881 115.187C189.89 57.0881 136.286 -0.220914 99.0597 0.506859Z" fill="#FFFAE5"/>
<path fill-rule="evenodd" clip-rule="evenodd" d="M126.052 132.119L133.313 75.4958L38.5518 74.2749L42.7072 132.119H126.052Z" fill="url(#paint0_linear_1177_25422)"/>
<path fill-rule="evenodd" clip-rule="evenodd" d="M38.5516 73.0027H14.3906L23.7506 132.119H42.707L38.5516 73.0027Z" fill="url(#paint1_linear_1177_25422)"/>
<g style="mix-blend-mode:multiply" opacity="0.2">
<path fill-rule="evenodd" clip-rule="evenodd" d="M109.626 132.119H58.6911L58.9586 77.4041H114.306L109.626 132.119Z" fill="#B32472"/>
</g>
<path fill-rule="evenodd" clip-rule="evenodd" d="M126.298 148.935L133.57 73.4951L38.8086 71.8535L42.9537 148.935H126.298Z" fill="#2684FF"/>
<path fill-rule="evenodd" clip-rule="evenodd" d="M38.809 71.8535H14.6377L23.9977 148.935H42.9541L38.809 71.8535Z" fill="#0747A6"/>
<path fill-rule="evenodd" clip-rule="evenodd" d="M135.864 73.5361L138.374 77.404H34.3244L36.4638 71.8535L135.864 73.5361Z" fill="#2684FF"/>
<path fill-rule="evenodd" clip-rule="evenodd" d="M14.6377 71.8535L10.544 76.7679L34.3245 77.404L36.4639 71.8535H14.6377Z" fill="#0747A6"/>
<path fill-rule="evenodd" clip-rule="evenodd" d="M110.716 148.935L115.849 77.4041H114.553L109.873 148.935H110.716Z" fill="#0747A6"/>
<g style="mix-blend-mode:multiply" opacity="0.2">
<path fill-rule="evenodd" clip-rule="evenodd" d="M109.873 148.935H58.9485L59.2057 77.4041H114.553L109.873 148.935Z" fill="#2684FF"/>
</g>
<g style="mix-blend-mode:multiply" opacity="0.5">
<path fill-rule="evenodd" clip-rule="evenodd" d="M132.656 82.9341L39.2104 81.9082L15.5843 79.6408L15.2346 76.7681L34.3247 77.4042H133.19L132.656 82.9341Z" fill="#B32472"/>
</g>
<g style="mix-blend-mode:multiply" opacity="0.2">
<path fill-rule="evenodd" clip-rule="evenodd" d="M35.96 148.935L31.1977 77.3015L19.7086 76.9219L28.2869 148.935H35.96Z" fill="#B32472"/>
</g>
<g style="mix-blend-mode:multiply" opacity="0.5">
<path fill-rule="evenodd" clip-rule="evenodd" d="M28.2869 148.935H29.3154L21.5292 76.7681L19.7086 76.922L28.2869 148.935Z" fill="#334462"/>
</g>
<path fill-rule="evenodd" clip-rule="evenodd" d="M98.8564 85.3039L97.8279 89.7464H75.364L74.3355 84.8936L98.8564 85.3039Z" fill="#334462"/>
<path d="M94.401 102.185C98.2447 102.185 98.7967 106.125 98.5922 108.095L98.1833 124.061C98.1833 126.881 94.9803 127.379 93.1743 127.275C88.6765 126.722 78.9651 125.512 76.1028 125.098C73.2406 124.683 72.2498 122.195 72.525 120.432C73.1724 116.285 74.365 107.576 74.7739 105.503C75.1778 103.455 77.2273 102.185 79.0674 102.185H94.401Z" fill="white"/>
<path d="M79.1526 104.945L78.7565 110.187M95.4912 105.752L94.9961 111.599M93.9069 104.441V106.961M93.3127 109.079V110.187M91.1342 109.986V111.095M91.3323 107.667V108.877M90.9362 105.449V106.659M89.3518 107.264V108.474M87.8665 108.574V109.784M86.1831 109.784V111.095M87.3714 103.635V104.945M85.0939 103.231V104.542M86.2822 105.651V106.961M84.8958 106.961V108.171M82.7174 105.953V107.264M81.4301 107.264V108.474M82.9154 108.474V109.784M81.232 109.482V110.792M80.935 106.357V104.945" stroke="black" stroke-width="0.617244"/>
<path d="M95.4912 115.782L94.4453 124.15" stroke="black" stroke-width="0.51437" stroke-linecap="round"/>
<path d="M89.1191 115.159L88.4824 123.295" stroke="black" stroke-width="0.51437" stroke-linecap="round"/>
<path d="M84.5967 114.301L83.6946 122.973" stroke="black" stroke-width="0.51437" stroke-linecap="round"/>
<path d="M78.2539 114.055L77.4542 122.166" stroke="black" stroke-width="0.51437" stroke-linecap="round"/>
<path d="M76.4355 114.19L76.1268 122.242" stroke="black" stroke-width="0.205748" stroke-linecap="round"/>
<path d="M75.5693 113.985L74.8979 122.015" stroke="black" stroke-width="0.205748" stroke-linecap="round"/>
<path d="M80.4775 113.985L79.7034 122.371" stroke="black" stroke-width="0.205748" stroke-linecap="round"/>
<path d="M81.6934 113.985L80.9192 122.371" stroke="black" stroke-width="0.205748" stroke-linecap="round"/>
<path d="M82.9209 114.19L82.1467 122.575" stroke="black" stroke-width="0.205748" stroke-linecap="round"/>
<path d="M86.8066 114.803L86.0325 123.189" stroke="black" stroke-width="0.205748" stroke-linecap="round"/>
<path d="M87.8291 115.008L87.0549 123.394" stroke="black" stroke-width="0.205748" stroke-linecap="round"/>
<path d="M91.5107 115.008L90.7366 123.394" stroke="black" stroke-width="0.205748" stroke-linecap="round"/>
<path d="M92.9424 115.008L92.1682 123.394" stroke="black" stroke-width="0.205748" stroke-linecap="round"/>
<path d="M93.9658 115.213L93.1917 123.598" stroke="black" stroke-width="0.205748" stroke-linecap="round"/>
<circle cx="125.496" cy="77.4961" r="26.9961" fill="#57D9A3"/>
<path d="M118.881 86.3795L110.281 77.7794L107.353 80.6873L118.881 92.216L143.63 67.4675L140.722 64.5596L118.881 86.3795Z" stroke="white" stroke-width="2.30172"/>
<mask id="mask0_1177_25422" style="mask-type:luminance" maskUnits="userSpaceOnUse" x="105" y="62" width="41" height="32">
<path d="M118.881 86.3795L110.281 77.7794L107.353 80.6873L118.881 92.216L143.63 67.4675L140.722 64.5596L118.881 86.3795Z" fill="white" stroke="white" stroke-width="2.30172"/>
</mask>
<g mask="url(#mask0_1177_25422)">
<rect x="101.471" y="54.1816" width="47.1953" height="47.1953" stroke="white" stroke-width="2.30172"/>
<path fill-rule="evenodd" clip-rule="evenodd" d="M100.32 102.528H149.817V53.0308H100.32V102.528Z" fill="white"/>
</g>
<defs>
<linearGradient id="paint0_linear_1177_25422" x1="85.9378" y1="132.119" x2="85.9378" y2="74.2749" gradientUnits="userSpaceOnUse">
<stop stop-color="#6D3EAD"/>
<stop offset="1" stop-color="#655EC9"/>
</linearGradient>
<linearGradient id="paint1_linear_1177_25422" x1="28.554" y1="132.119" x2="28.554" y2="73.0027" gradientUnits="userSpaceOnUse">
<stop stop-color="#400F5B"/>
<stop offset="1" stop-color="#4E48A4"/>
</linearGradient>
</defs>
</svg>
