<?xml version="1.0" encoding="UTF-8"?>
<svg width="68" height="68" viewBox="0 0 68 68" fill="none" xmlns="http://www.w3.org/2000/svg">
<path fill-rule="evenodd" clip-rule="evenodd" d="M33.9988 24.5484C39.6041 24.5484 44.1481 20.0045 44.1481 14.3992C44.1481 8.79396 39.6041 4.25 33.9988 4.25C28.3936 4.25 23.8496 8.79396 23.8496 14.3992C23.8496 20.0045 28.3936 24.5484 33.9988 24.5484ZM33.9988 22.1582C38.284 22.1582 41.7578 18.6844 41.7578 14.3992C41.7578 10.114 38.284 6.64024 33.9988 6.64024C29.7137 6.64024 26.2398 10.114 26.2398 14.3992C26.2398 18.6844 29.7137 22.1582 33.9988 22.1582Z" fill="#ABC8FF"/>
<path d="M10.1855 59.4668H61.0172L56.8163 12.9917C56.804 12.8548 56.6892 12.75 56.5518 12.75H14.6398C14.5023 12.75 14.3876 12.8548 14.3753 12.9917L10.1855 59.4668Z" fill="#FFA9E5"/>
<path d="M10.1855 59.4668H61.0172L55.0702 55.2981C55.0255 55.2668 54.9723 55.25 54.9177 55.25H14.5072C14.4367 55.25 14.3691 55.278 14.3192 55.3279L10.1855 59.4668Z" fill="#F41CB2"/>
<path d="M8.5918 59.4668H55.2502L51.3944 12.9936C51.383 12.8559 51.2679 12.75 51.1297 12.75H12.7021C12.5639 12.75 12.4488 12.856 12.4374 12.9937L8.5918 59.4668Z" fill="#FFD6F3"/>
<path d="M14.8304 43.7149C14.8555 43.2939 15.2042 42.9653 15.6259 42.9653H48.4159C48.8294 42.9653 49.1742 43.2816 49.2098 43.6935L50.1345 54.3845C50.1747 54.8499 49.8078 55.25 49.3406 55.25H14.9902C14.5315 55.25 14.1675 54.8637 14.1947 54.4058L14.8304 43.7149Z" fill="#F0F5FF"/>
<path d="M27.0198 19.7095C27.0448 19.2885 27.3935 18.96 27.8152 18.96H40.0736C40.4871 18.96 40.8319 19.2762 40.8675 19.6882L41.1556 23.0196C41.1959 23.485 40.8289 23.8851 40.3617 23.8851H27.6171C27.1584 23.8851 26.7945 23.4988 26.8217 23.0409L27.0198 19.7095Z" fill="#F41CB2"/>
</svg>
