<?xml version="1.0" encoding="UTF-8"?>
<svg width="26px" height="29px" viewBox="0 0 26 29" version="1.1" xmlns="http://www.w3.org/2000/svg" xmlns:xlink="http://www.w3.org/1999/xlink">
    <!-- Generator: Sketch 61.2 (89653) - https://sketch.com -->
    <title>Artboard Copy 4</title>
    <desc>Created with Sketch.</desc>
    <defs>
        <path d="M22.9166667,3.25 L16.995,3.25 C16.4,1.60666667 14.8416667,0.416666667 13,0.416666667 C11.1583333,0.416666667 9.6,1.60666667 9.005,3.25 L3.08333333,3.25 C1.525,3.25 0.25,4.525 0.25,6.08333333 L0.25,25.9166667 C0.25,27.475 1.525,28.75 3.08333333,28.75 L22.9166667,28.75 C24.475,28.75 25.75,27.475 25.75,25.9166667 L25.75,6.08333333 C25.75,4.525 24.475,3.25 22.9166667,3.25 Z M13,3.25 C13.7791667,3.25 14.4166667,3.8875 14.4166667,4.66666667 C14.4166667,5.44583333 13.7791667,6.08333333 13,6.08333333 C12.2208333,6.08333333 11.5833333,5.44583333 11.5833333,4.66666667 C11.5833333,3.8875 12.2208333,3.25 13,3.25 Z M13,8.91666667 C15.3516667,8.91666667 17.25,10.815 17.25,13.1666667 C17.25,15.5183333 15.3516667,17.4166667 13,17.4166667 C10.6483333,17.4166667 8.75,15.5183333 8.75,13.1666667 C8.75,10.815 10.6483333,8.91666667 13,8.91666667 Z M21.5,25.9166667 L4.5,25.9166667 L4.5,23.9333333 C4.5,21.1 10.1666667,19.5416667 13,19.5416667 C15.8333333,19.5416667 21.5,21.1 21.5,23.9333333 L21.5,25.9166667 Z" id="path-1"></path>
    </defs>
    <g id="Artboard-Copy-4" stroke="none" stroke-width="1" fill="none" fill-rule="evenodd">
        <g id="Slot">
            <g id="Rectangle-Copy">
                <g id="Rectangle">
                    <g id="Group-4">
                        <g id="ic/event">
                            <g id="ic/assignment_ind">
                                <mask id="mask-2" fill="white">
                                    <use xlink:href="#path-1"></use>
                                </mask>
                                <use id="Shape" fill="#8993A4" fill-rule="nonzero" xlink:href="#path-1"></use>
                            </g>
                        </g>
                    </g>
                </g>
            </g>
        </g>
    </g>
</svg>