<?xml version="1.0" encoding="UTF-8"?>
<svg width="92" height="40" viewBox="0 0 92 40" fill="none" xmlns="http://www.w3.org/2000/svg">
<path d="M1 8C1 4.13401 4.13401 1 8 1H84C87.866 1 91 4.13401 91 8V32C91 35.866 87.866 39 84 39H8C4.13401 39 1 35.866 1 32V8Z" stroke="#EEEEEE" stroke-width="2"/>
<path d="M24.873 23.0598L28.834 20.5253C29.0339 20.3929 29.1339 20.2168 29.1339 19.9971C29.1339 19.7774 29.0339 19.6032 28.834 19.4746L24.873 16.9402C24.6731 16.8055 24.4624 16.7985 24.2407 16.919C24.0191 17.0396 23.9083 17.2218 23.9083 17.4656V22.5226C23.9083 22.7776 24.0191 22.9646 24.2407 23.0834C24.4624 23.2023 24.6731 23.1944 24.873 23.0598ZM26.0014 28.6277C24.8144 28.6277 23.6963 28.4027 22.6471 27.9528C21.598 27.5029 20.6815 26.886 19.8977 26.1021C19.1138 25.3182 18.4969 24.4023 18.047 23.3543C17.597 22.3062 17.3721 21.1887 17.3721 20.0016C17.3721 18.8006 17.597 17.6756 18.047 16.6265C18.4969 15.5774 19.1132 14.6641 19.8958 13.8868C20.6784 13.1095 21.5941 12.4941 22.6427 12.0406C23.6913 11.5872 24.8095 11.3605 25.9972 11.3605C27.1988 11.3605 28.3246 11.5869 29.3747 12.0397C30.4247 12.4926 31.3381 13.1071 32.1149 13.8834C32.8916 14.6597 33.5066 15.5726 33.9597 16.622C34.4128 17.6714 34.6393 18.7974 34.6393 20C34.6393 21.1881 34.4126 22.3067 33.9591 23.3557C33.5057 24.4047 32.8903 25.3206 32.113 26.1035C31.3356 26.8865 30.423 27.5029 29.3749 27.9528C28.3269 28.4027 27.2024 28.6277 26.0014 28.6277ZM25.9998 26.9773C27.9406 26.9773 29.5887 26.2986 30.9441 24.9412C32.2995 23.5839 32.9772 21.9368 32.9772 20C32.9772 18.0592 32.2995 16.4111 30.9441 15.0557C29.5887 13.7003 27.9387 13.0226 25.9939 13.0226C24.0631 13.0226 22.4184 13.7003 21.06 15.0557C19.7016 16.4111 19.0224 18.0611 19.0224 20.0059C19.0224 21.9367 19.7011 23.5813 21.0585 24.9397C22.4159 26.2981 24.063 26.9773 25.9998 26.9773Z" fill="#2A55E5"/>
<path d="M48.5376 17.6172C48.4912 17.183 48.2957 16.8449 47.951 16.603C47.6096 16.361 47.1655 16.2401 46.6186 16.2401C46.2341 16.2401 45.9044 16.2981 45.6293 16.4141C45.3542 16.5301 45.1437 16.6875 44.9979 16.8864C44.852 17.0852 44.7775 17.3123 44.7741 17.5675C44.7741 17.7796 44.8222 17.9635 44.9183 18.1193C45.0178 18.2751 45.152 18.4077 45.321 18.517C45.4901 18.6231 45.6773 18.7126 45.8828 18.7855C46.0883 18.8584 46.2955 18.9197 46.5043 18.9695L47.4588 19.2081C47.8433 19.2976 48.2128 19.4186 48.5675 19.571C48.9254 19.7235 49.2453 19.9157 49.527 20.1477C49.812 20.3797 50.0374 20.6598 50.2031 20.9879C50.3688 21.3161 50.4517 21.7005 50.4517 22.1413C50.4517 22.7379 50.2992 23.2633 49.9943 23.7173C49.6894 24.1681 49.2486 24.5211 48.6719 24.7763C48.0985 25.0282 47.4041 25.1541 46.5888 25.1541C45.7966 25.1541 45.1089 25.0315 44.5256 24.7862C43.9455 24.541 43.4915 24.183 43.1634 23.7124C42.8385 23.2417 42.6629 22.6683 42.6364 21.9922H44.451C44.4775 22.3468 44.5869 22.6418 44.7791 22.8771C44.9714 23.1125 45.2216 23.2881 45.5298 23.4041C45.8414 23.5201 46.1894 23.5781 46.5739 23.5781C46.9749 23.5781 47.3262 23.5185 47.6278 23.3991C47.9328 23.2765 48.1714 23.1075 48.3438 22.892C48.5161 22.6733 48.6039 22.4181 48.6072 22.1264C48.6039 21.8613 48.526 21.6425 48.3736 21.4702C48.2211 21.2945 48.0073 21.1487 47.7322 21.0327C47.4605 20.9134 47.1423 20.8073 46.7777 20.7145L45.6193 20.4162C44.7808 20.2008 44.1179 19.8743 43.6307 19.4368C43.1468 18.996 42.9048 18.411 42.9048 17.6818C42.9048 17.0819 43.0672 16.5566 43.392 16.1058C43.7202 15.6551 44.166 15.3054 44.7294 15.0568C45.2929 14.8049 45.9309 14.679 46.6435 14.679C47.366 14.679 47.9991 14.8049 48.5426 15.0568C49.0895 15.3054 49.5187 15.6518 49.8303 16.0959C50.1418 16.5367 50.3026 17.0438 50.3125 17.6172H48.5376ZM55.8297 17.3636V18.7557H51.4398V17.3636H55.8297ZM52.5236 15.5341H54.3233V22.7031C54.3233 22.9451 54.3598 23.1307 54.4327 23.2599C54.5089 23.3859 54.6084 23.4721 54.731 23.5185C54.8536 23.5649 54.9895 23.5881 55.1387 23.5881C55.2514 23.5881 55.3541 23.5798 55.4469 23.5632C55.543 23.5466 55.6159 23.5317 55.6657 23.5185L55.9689 24.9254C55.8728 24.9586 55.7353 24.995 55.5563 25.0348C55.3806 25.0746 55.1652 25.0978 54.91 25.1044C54.4592 25.1177 54.0532 25.0497 53.6919 24.9006C53.3307 24.7481 53.044 24.5128 52.8319 24.1946C52.623 23.8764 52.5203 23.4787 52.5236 23.0014V15.5341ZM59.5323 25.1541C59.0484 25.1541 58.6126 25.0679 58.2248 24.8956C57.8403 24.7199 57.5354 24.4614 57.31 24.12C57.0879 23.7786 56.9769 23.3577 56.9769 22.8572C56.9769 22.4264 57.0565 22.0701 57.2156 21.7884C57.3746 21.5066 57.5917 21.2812 57.8668 21.1122C58.1419 20.9432 58.4518 20.8156 58.7965 20.7294C59.1445 20.6399 59.5041 20.5753 59.8754 20.5355C60.3228 20.4891 60.6857 20.4477 60.9641 20.4112C61.2425 20.3714 61.4447 20.3118 61.5707 20.2322C61.6999 20.1494 61.7646 20.0218 61.7646 19.8494V19.8196C61.7646 19.4451 61.6535 19.1551 61.4315 18.9496C61.2094 18.7441 60.8896 18.6413 60.4719 18.6413C60.0311 18.6413 59.6815 18.7375 59.4229 18.9297C59.1677 19.1219 58.9954 19.349 58.9059 19.6108L57.2255 19.3722C57.3581 18.9081 57.5768 18.5204 57.8817 18.2088C58.1867 17.8939 58.5595 17.6586 59.0004 17.5028C59.4412 17.3438 59.9284 17.2642 60.462 17.2642C60.8299 17.2642 61.1961 17.3073 61.5607 17.3935C61.9253 17.4796 62.2584 17.6222 62.56 17.821C62.8616 18.0166 63.1036 18.2834 63.2859 18.6214C63.4715 18.9595 63.5643 19.3821 63.5643 19.8892V25H61.8342V23.951H61.7745C61.6651 24.1631 61.511 24.362 61.3121 24.5476C61.1166 24.7299 60.8697 24.8774 60.5714 24.9901C60.2764 25.0994 59.93 25.1541 59.5323 25.1541ZM59.9996 23.8317C60.3609 23.8317 60.6741 23.7604 60.9393 23.6179C61.2044 23.4721 61.4083 23.2798 61.5508 23.0412C61.6966 22.8026 61.7695 22.5424 61.7695 22.2607V21.3608C61.7132 21.4072 61.6171 21.4503 61.4812 21.4901C61.3486 21.5298 61.1995 21.5646 61.0337 21.5945C60.868 21.6243 60.704 21.6508 60.5415 21.674C60.3791 21.6972 60.2383 21.7171 60.119 21.7337C59.8505 21.7701 59.6102 21.8298 59.3981 21.9126C59.186 21.9955 59.0186 22.1115 58.896 22.2607C58.7733 22.4065 58.712 22.5954 58.712 22.8274C58.712 23.1589 58.833 23.4091 59.0749 23.5781C59.3169 23.7472 59.6251 23.8317 59.9996 23.8317ZM65.3739 25V17.3636H67.119V18.6364H67.1985C67.3377 18.1955 67.5763 17.8558 67.9144 17.6172C68.2558 17.3752 68.6452 17.2543 69.0827 17.2543C69.1822 17.2543 69.2932 17.2592 69.4158 17.2692C69.5418 17.2758 69.6462 17.2874 69.729 17.304V18.9595C69.6528 18.933 69.5318 18.9098 69.3661 18.8899C69.2037 18.8667 69.0463 18.8551 68.8938 18.8551C68.5657 18.8551 68.2707 18.9264 68.0089 19.0689C67.7504 19.2081 67.5465 19.402 67.3974 19.6506C67.2482 19.8991 67.1737 20.1858 67.1737 20.5107V25H65.3739ZM75.1481 17.3636V18.7557H70.7582V17.3636H75.1481ZM71.842 15.5341H73.6417V22.7031C73.6417 22.9451 73.6781 23.1307 73.7511 23.2599C73.8273 23.3859 73.9267 23.4721 74.0494 23.5185C74.172 23.5649 74.3079 23.5881 74.457 23.5881C74.5697 23.5881 74.6725 23.5798 74.7653 23.5632C74.8614 23.5466 74.9343 23.5317 74.984 23.5185L75.2873 24.9254C75.1912 24.9586 75.0536 24.995 74.8746 25.0348C74.699 25.0746 74.4835 25.0978 74.2283 25.1044C73.7776 25.1177 73.3716 25.0497 73.0103 24.9006C72.649 24.7481 72.3623 24.5128 72.1502 24.1946C71.9414 23.8764 71.8387 23.4787 71.842 23.0014V15.5341Z" fill="#2A55E5"/>
</svg>
