<?xml version="1.0" encoding="UTF-8"?>
<svg width="32" height="32" viewBox="0 0 32 32" fill="none" xmlns="http://www.w3.org/2000/svg">
<circle cx="16" cy="16" r="16" fill="#5482FF"/>
<mask id="mask0_953_3838" style="mask-type:alpha" maskUnits="userSpaceOnUse" x="6" y="6" width="20" height="20">
<rect x="6" y="6" width="20" height="20" fill="#D9D9D9"/>
</mask>
<g mask="url(#mask0_953_3838)">
<path d="M6.83331 23.5V19.3333H8.49998V21.8333H11V23.5H6.83331ZM21 23.5V21.8333H23.5V19.3333H25.1666V23.5H21ZM9.33331 21V11H11V21H9.33331ZM11.8333 21V11H12.6666V21H11.8333ZM14.3333 21V11H16V21H14.3333ZM16.8333 21V11H19.3333V21H16.8333ZM20.1666 21V11H21V21H20.1666ZM21.8333 21V11H22.6666V21H21.8333ZM6.83331 12.6667V8.5H11V10.1667H8.49998V12.6667H6.83331ZM23.5 12.6667V10.1667H21V8.5H25.1666V12.6667H23.5Z" fill="#F0F5FF"/>
</g>
</svg>
