<?xml version="1.0" encoding="UTF-8"?>
<svg width="20" height="20" viewBox="0 0 20 20" fill="none" xmlns="http://www.w3.org/2000/svg">
<path d="M9.99978 18.6278C8.77997 18.6278 7.6435 18.4082 6.59036 17.9689C5.53721 17.5295 4.62386 16.9231 3.85032 16.1496C3.07676 15.376 2.47033 14.4627 2.03101 13.4095C1.59172 12.3564 1.37207 11.2199 1.37207 10.0001C1.37207 8.78633 1.59172 7.65484 2.03103 6.60562C2.47035 5.55639 3.07679 4.64305 3.85034 3.86558C4.62388 3.0881 5.53723 2.47623 6.59038 2.02997C7.64352 1.58372 8.77999 1.3606 9.9998 1.3606C10.786 1.3606 11.5495 1.47034 12.2901 1.68984C13.0307 1.90934 13.7326 2.23166 14.3956 2.65678C14.5955 2.75401 14.7207 2.91342 14.7711 3.13503C14.8215 3.35666 14.7794 3.55654 14.6447 3.73468C14.51 3.92068 14.3299 4.03436 14.1044 4.07572C13.8789 4.1171 13.6622 4.08917 13.4545 3.99195C12.9418 3.67189 12.3914 3.43035 11.8032 3.2673C11.2151 3.10426 10.6139 3.02274 9.9998 3.02274C8.01731 3.02274 6.3588 3.68805 5.02426 5.01866C3.6897 6.34928 3.02242 8.00976 3.02242 10.0001C3.02242 11.9904 3.6897 13.6509 5.02424 14.9815C6.35878 16.3121 8.01729 16.9775 9.99978 16.9775C11.9744 16.9775 13.631 16.3141 14.9694 14.9874C16.3079 13.6607 16.9771 12.0101 16.9771 10.0354C16.9771 9.81864 16.9687 9.6088 16.9518 9.40591C16.9349 9.20301 16.9026 9.00312 16.8548 8.80626C16.8271 8.5629 16.8725 8.34521 16.9912 8.15318C17.1098 7.96115 17.2839 7.84732 17.5134 7.8117C17.7489 7.76217 17.9646 7.80716 18.1606 7.94666C18.3565 8.08616 18.4684 8.27366 18.4962 8.50916C18.536 8.74769 18.5698 8.99119 18.5976 9.23968C18.6254 9.48816 18.6393 9.74164 18.6393 10.0001C18.6393 11.2199 18.4162 12.3564 17.9699 13.4095C17.5236 14.4627 16.9118 15.376 16.1343 16.1496C15.3568 16.9231 14.4435 17.5295 13.3943 17.9689C12.345 18.4082 11.2135 18.6278 9.99978 18.6278ZM8.74707 11.5898L16.8666 3.45841C17.0309 3.30201 17.2268 3.2238 17.4545 3.2238C17.6822 3.2238 17.8811 3.30201 18.0514 3.45841C18.2217 3.63656 18.3069 3.83946 18.3069 4.06712C18.3069 4.29478 18.2217 4.49376 18.0514 4.66405L9.33765 13.3778C9.16554 13.5421 8.96672 13.6242 8.74117 13.6242C8.51563 13.6242 8.32073 13.5421 8.15647 13.3778L5.74434 10.9448C5.58794 10.7884 5.51321 10.5949 5.52015 10.3642C5.5271 10.1336 5.60877 9.93609 5.76517 9.77182C5.92942 9.61542 6.12886 9.53722 6.36347 9.53722C6.59806 9.53722 6.79356 9.61542 6.94997 9.77182L8.74707 11.5898Z" fill="#108934"/>
</svg>
