<?xml version="1.0" encoding="UTF-8"?>
<svg width="20" height="20" viewBox="0 0 20 20" fill="none" xmlns="http://www.w3.org/2000/svg">
<mask id="mask0_570_2605" style="mask-type:alpha" maskUnits="userSpaceOnUse" x="0" y="0" width="20" height="20">
<rect width="20" height="20" fill="#D9D9D9"/>
</mask>
<g mask="url(#mask0_570_2605)">
<path d="M12.7499 16.0624C12.4444 16.2013 12.1735 16.1839 11.9374 16.0103C11.7013 15.8367 11.5833 15.5694 11.5833 15.2083C11.5833 15.0555 11.6353 14.8992 11.7395 14.7395C11.8437 14.5798 11.9721 14.4652 12.1249 14.3958C12.9721 13.993 13.6458 13.3923 14.1458 12.5937C14.6458 11.7951 14.8958 10.9166 14.8958 9.95825C14.8958 9.34714 14.7812 8.75339 14.552 8.177C14.3228 7.60061 13.9652 7.06936 13.4791 6.58325L13.3333 6.43742V7.54159C13.3333 7.7777 13.2464 7.98256 13.0728 8.15617C12.8992 8.32978 12.6944 8.41659 12.4583 8.41659C12.2221 8.41659 12.0173 8.32978 11.8437 8.15617C11.6701 7.98256 11.5833 7.7777 11.5833 7.54159V4.20825C11.5833 3.97214 11.6701 3.76728 11.8437 3.59367C12.0173 3.42006 12.2221 3.33325 12.4583 3.33325H15.7916C16.0277 3.33325 16.2326 3.42006 16.4062 3.59367C16.5798 3.76728 16.6666 3.97214 16.6666 4.20825C16.6666 4.44436 16.5798 4.64922 16.4062 4.82284C16.2326 4.99645 16.0277 5.08325 15.7916 5.08325H14.4166L14.5833 5.22909C15.2777 5.85409 15.7951 6.57978 16.1353 7.40617C16.4756 8.23256 16.6458 9.08325 16.6458 9.95825C16.6458 11.3055 16.2916 12.5277 15.5833 13.6249C14.8749 14.7221 13.9305 15.5346 12.7499 16.0624ZM4.20825 16.6666C3.97214 16.6666 3.76728 16.5798 3.59367 16.4062C3.42006 16.2326 3.33325 16.0277 3.33325 15.7916C3.33325 15.5555 3.42006 15.3506 3.59367 15.177C3.76728 15.0034 3.97214 14.9166 4.20825 14.9166H5.56242L5.39575 14.7708C4.7152 14.1596 4.20131 13.4374 3.85409 12.6041C3.50686 11.7708 3.33325 10.9166 3.33325 10.0416C3.33325 8.69436 3.68742 7.47214 4.39575 6.37492C5.10409 5.2777 6.04853 4.4652 7.22909 3.93742C7.53464 3.79853 7.80547 3.81589 8.04159 3.9895C8.2777 4.16311 8.39575 4.43047 8.39575 4.79159C8.39575 4.94436 8.34367 5.10061 8.2395 5.26034C8.13534 5.42006 8.00686 5.53464 7.85409 5.60409C7.00686 6.00686 6.33325 6.60756 5.83325 7.40617C5.33325 8.20478 5.08325 9.08325 5.08325 10.0416C5.08325 10.6527 5.20131 11.2499 5.43742 11.8333C5.67353 12.4166 6.03464 12.9513 6.52075 13.4374L6.64575 13.5624V12.4791C6.64575 12.243 6.73256 12.0381 6.90617 11.8645C7.07978 11.6909 7.28464 11.6041 7.52075 11.6041C7.75686 11.6041 7.96172 11.6909 8.13534 11.8645C8.30895 12.0381 8.39575 12.243 8.39575 12.4791V15.7916C8.39575 16.0277 8.30895 16.2326 8.13534 16.4062C7.96172 16.5798 7.75686 16.6666 7.52075 16.6666H4.20825Z" fill="#0066CC"/>
</g>
</svg>
