<?xml version="1.0" encoding="UTF-8"?>
<svg xmlns="http://www.w3.org/2000/svg" width="20" height="20" viewBox="0 0 20 20" fill="none">
    <path
        d="M10.0017 18.6278C8.80856 18.6278 7.68739 18.4032 6.63817 17.9539C5.58896 17.5046 4.67365 16.8893 3.89225 16.1079C3.11085 15.3265 2.4955 14.4117 2.04621 13.3636C1.59695 12.3155 1.37231 11.1948 1.37231 10.0017C1.37231 8.80861 1.59695 7.68744 2.04623 6.63822C2.49551 5.58901 3.11023 4.6735 3.8904 3.89168C4.67056 3.10986 5.585 2.49255 6.63371 2.03976C7.68242 1.58698 8.80366 1.3606 9.99744 1.3606C11.1912 1.3606 12.3132 1.58669 13.3633 2.03887C14.4135 2.49105 15.3291 3.10752 16.1104 3.88828C16.8916 4.66906 17.5084 5.58421 17.9609 6.63374C18.4133 7.68328 18.6395 8.8054 18.6395 10.0001C18.6395 11.1943 18.4132 12.3159 17.9604 13.365C17.5076 14.4141 16.8903 15.3289 16.1085 16.1093C15.3266 16.8898 14.4117 17.5046 13.3635 17.9539C12.3154 18.4032 11.1948 18.6278 10.0017 18.6278ZM5.08638 14.9177L10 10.0023V3.02274C8.05922 3.02274 6.41113 3.70002 5.05575 5.05457C3.70038 6.40912 3.02269 8.05566 3.02269 9.9942C3.02269 10.9269 3.20129 11.8159 3.55848 12.6613C3.91566 13.5067 4.42496 14.2589 5.08638 14.9177Z"
        fill="#9E9E9E" />
</svg>
