<?xml version="1.0" encoding="UTF-8"?>
<svg width="325" height="269" viewBox="0 0 325 269" fill="none" xmlns="http://www.w3.org/2000/svg">
<path d="M36.0826 73.5337C40.7487 93.5572 23.4931 105.744 15.2382 115.899C10.0112 122.601 -2.69937 133.563 0.513338 173.856C2.05971 193.251 12.0619 220.881 34.0077 227.24C46.2371 235.104 155.966 222.889 213.595 229.75C274.645 237.018 287.363 229.249 317.195 206.682C329.529 197.351 324.94 171.429 319.107 154.264C312.701 137.646 308.589 110.667 320.446 76.6112C333.303 39.6794 314.677 25.39 305.434 19.0642C293.992 12.0205 270.247 4.80573 241.849 17.9359C205.241 34.862 189.164 28.3989 176.161 26.5525C163.157 24.7061 118.791 9.72951 80.1618 1.21544C49.2585 -5.59582 30.9194 17.9359 28.3377 29.2195C25.7561 47.8889 31.4166 53.5103 36.0826 73.5337Z" fill="#FFEBE5"/>
<path d="M76.4834 253.336L74.1982 253.33L74.3623 252.41L76.5127 252.416C76.8799 252.416 77.2158 252.353 77.5205 252.228C77.8291 252.103 78.083 251.916 78.2822 251.666C78.4854 251.416 78.6104 251.097 78.6572 250.711C78.7002 250.379 78.667 250.094 78.5576 249.855C78.4521 249.613 78.2842 249.426 78.0537 249.293C77.8232 249.16 77.5439 249.088 77.2158 249.076L75.2002 249.07L73.8818 256.676H72.7744L74.2568 248.144L77.2451 248.15C77.7529 248.162 78.2041 248.269 78.5986 248.472C78.9971 248.672 79.3018 248.959 79.5127 249.334C79.7236 249.709 79.8057 250.164 79.7588 250.699C79.708 251.301 79.5283 251.797 79.2197 252.187C78.915 252.578 78.5225 252.867 78.042 253.054C77.5654 253.242 77.0459 253.336 76.4834 253.336ZM82.6768 247.676L81.1123 256.676H80.0518L81.6104 247.676H82.6768ZM86.6318 255.592L87.1592 252.316C87.1865 252.074 87.1631 251.861 87.0889 251.677C87.0186 251.494 86.8994 251.351 86.7314 251.25C86.5674 251.148 86.3604 251.094 86.1104 251.086C85.8916 251.082 85.6768 251.117 85.4658 251.191C85.2588 251.265 85.0791 251.377 84.9268 251.525C84.7744 251.674 84.6748 251.861 84.6279 252.088L83.5732 252.094C83.6006 251.777 83.7002 251.502 83.8721 251.267C84.0439 251.029 84.2588 250.832 84.5166 250.676C84.7744 250.515 85.0518 250.398 85.3486 250.324C85.6455 250.246 85.9346 250.209 86.2158 250.213C86.6416 250.22 87.0107 250.312 87.3232 250.488C87.6396 250.66 87.8779 250.902 88.0381 251.215C88.1982 251.527 88.2568 251.902 88.2139 252.34L87.7275 255.293C87.6924 255.508 87.6709 255.724 87.6631 255.943C87.6592 256.158 87.6846 256.369 87.7393 256.576L87.7275 256.676L86.6553 256.681C86.6123 256.502 86.5908 256.32 86.5908 256.136C86.5947 255.953 86.6084 255.771 86.6318 255.592ZM87.2822 252.832L87.1592 253.594L86.1572 253.588C85.9463 253.588 85.7236 253.603 85.4893 253.635C85.2549 253.666 85.0322 253.724 84.8213 253.81C84.6104 253.896 84.4326 254.021 84.2881 254.185C84.1436 254.345 84.0557 254.554 84.0244 254.812C84.001 255.023 84.0264 255.207 84.1006 255.363C84.1787 255.515 84.2959 255.635 84.4521 255.72C84.6084 255.806 84.79 255.851 84.9971 255.855C85.2666 255.859 85.5322 255.806 85.7939 255.697C86.0557 255.588 86.2842 255.431 86.4795 255.228C86.6748 255.025 86.8096 254.791 86.8838 254.525L87.2705 255.047C87.1963 255.304 87.0752 255.543 86.9072 255.761C86.7393 255.976 86.54 256.162 86.3096 256.318C86.083 256.474 85.8389 256.595 85.5771 256.681C85.3154 256.767 85.0537 256.808 84.792 256.804C84.4365 256.797 84.1143 256.717 83.8252 256.564C83.54 256.412 83.3135 256.199 83.1455 255.926C82.9814 255.648 82.9111 255.326 82.9346 254.959C82.958 254.556 83.0635 254.219 83.251 253.945C83.4385 253.672 83.6787 253.453 83.9717 253.289C84.2686 253.125 84.5928 253.008 84.9443 252.937C85.2959 252.863 85.6436 252.826 85.9873 252.826L87.2822 252.832ZM91.7822 255.908C92.04 255.912 92.2803 255.863 92.5029 255.761C92.7256 255.66 92.915 255.515 93.0713 255.328C93.2275 255.14 93.3389 254.924 93.4053 254.677L94.4131 254.672C94.3506 255.097 94.1846 255.47 93.915 255.791C93.6494 256.111 93.3232 256.361 92.9365 256.541C92.5537 256.717 92.1533 256.801 91.7354 256.793C91.29 256.785 90.9111 256.693 90.5986 256.517C90.29 256.338 90.042 256.099 89.8545 255.802C89.667 255.506 89.5381 255.172 89.4678 254.801C89.3975 254.426 89.3818 254.041 89.4209 253.646L89.4443 253.394C89.4912 252.969 89.5947 252.564 89.7549 252.181C89.915 251.795 90.1279 251.453 90.3936 251.156C90.6631 250.855 90.9814 250.621 91.3486 250.453C91.7158 250.285 92.1279 250.207 92.585 250.219C93.0303 250.226 93.417 250.332 93.7451 250.535C94.0732 250.734 94.3271 251.006 94.5068 251.349C94.6865 251.693 94.7764 252.084 94.7764 252.521L93.7803 252.515C93.7764 252.265 93.7275 252.035 93.6338 251.824C93.54 251.613 93.4014 251.443 93.2178 251.314C93.0342 251.185 92.8076 251.115 92.5381 251.103C92.2139 251.095 91.9307 251.156 91.6885 251.285C91.4502 251.414 91.2471 251.592 91.0791 251.818C90.915 252.041 90.7842 252.289 90.6865 252.562C90.5928 252.836 90.5283 253.113 90.4932 253.394L90.4639 253.64C90.4404 253.89 90.4365 254.146 90.4521 254.408C90.4717 254.67 90.5264 254.914 90.6162 255.14C90.7061 255.363 90.8447 255.545 91.0322 255.685C91.2197 255.826 91.4697 255.9 91.7822 255.908ZM97.917 256.793C97.4834 256.785 97.1064 256.699 96.7861 256.535C96.4697 256.367 96.21 256.142 96.0068 255.861C95.8076 255.576 95.665 255.252 95.5791 254.888C95.4932 254.525 95.4678 254.144 95.5029 253.746L95.5264 253.494C95.5654 253.088 95.665 252.689 95.8252 252.299C95.9854 251.904 96.1982 251.549 96.4639 251.232C96.7334 250.916 97.0498 250.666 97.4131 250.482C97.7803 250.295 98.1865 250.207 98.6318 250.219C99.0732 250.226 99.4404 250.32 99.7334 250.5C100.026 250.679 100.255 250.918 100.419 251.215C100.587 251.508 100.696 251.838 100.747 252.205C100.798 252.568 100.802 252.941 100.759 253.324L100.694 253.81H96.0947L96.2354 252.926L99.7451 252.931L99.7627 252.838C99.8018 252.556 99.7861 252.285 99.7158 252.023C99.6455 251.761 99.5166 251.547 99.3291 251.379C99.1455 251.207 98.8975 251.117 98.585 251.109C98.2607 251.097 97.9795 251.164 97.7412 251.308C97.5029 251.449 97.3037 251.64 97.1436 251.883C96.9834 252.121 96.8564 252.383 96.7627 252.668C96.6729 252.949 96.6104 253.224 96.5752 253.494L96.5518 253.74C96.5283 253.99 96.5361 254.242 96.5752 254.496C96.6143 254.75 96.6885 254.982 96.7979 255.193C96.9111 255.4 97.0674 255.57 97.2666 255.703C97.4658 255.832 97.7119 255.9 98.0049 255.908C98.3604 255.916 98.6787 255.84 98.96 255.679C99.2451 255.515 99.5049 255.308 99.7393 255.058L100.343 255.574C100.159 255.844 99.9404 256.07 99.6865 256.254C99.4326 256.437 99.1553 256.574 98.8545 256.664C98.5537 256.754 98.2412 256.797 97.917 256.793ZM108.276 254.959C108.312 254.717 108.267 254.527 108.142 254.39C108.021 254.254 107.86 254.15 107.661 254.08C107.466 254.006 107.274 253.945 107.087 253.898C106.853 253.84 106.616 253.767 106.378 253.681C106.14 253.595 105.921 253.486 105.722 253.353C105.526 253.217 105.37 253.049 105.253 252.849C105.14 252.646 105.089 252.4 105.101 252.111C105.116 251.799 105.198 251.523 105.347 251.285C105.499 251.047 105.694 250.847 105.933 250.687C106.175 250.527 106.438 250.408 106.724 250.33C107.009 250.252 107.292 250.215 107.573 250.219C107.972 250.226 108.333 250.308 108.657 250.465C108.985 250.621 109.245 250.845 109.437 251.138C109.628 251.431 109.718 251.787 109.706 252.205L108.657 252.199C108.665 251.976 108.62 251.785 108.522 251.625C108.425 251.465 108.29 251.342 108.118 251.256C107.946 251.166 107.751 251.119 107.532 251.115C107.325 251.111 107.122 251.144 106.923 251.215C106.724 251.281 106.554 251.386 106.413 251.531C106.272 251.672 106.187 251.855 106.155 252.082C106.132 252.25 106.157 252.388 106.231 252.498C106.306 252.603 106.407 252.689 106.536 252.756C106.669 252.818 106.808 252.871 106.952 252.914C107.101 252.953 107.235 252.988 107.356 253.019C107.677 253.109 107.993 253.222 108.306 253.359C108.618 253.496 108.872 253.685 109.067 253.927C109.263 254.166 109.351 254.48 109.331 254.871C109.315 255.203 109.228 255.492 109.067 255.738C108.911 255.98 108.708 256.181 108.458 256.342C108.212 256.498 107.94 256.613 107.644 256.687C107.347 256.761 107.05 256.797 106.753 256.793C106.343 256.785 105.96 256.701 105.604 256.541C105.253 256.377 104.972 256.142 104.761 255.838C104.55 255.529 104.45 255.154 104.462 254.713L105.522 254.719C105.522 254.972 105.575 255.187 105.681 255.363C105.79 255.535 105.94 255.666 106.132 255.756C106.323 255.845 106.542 255.892 106.788 255.896C106.995 255.9 107.206 255.873 107.421 255.814C107.64 255.756 107.827 255.658 107.983 255.521C108.144 255.381 108.241 255.193 108.276 254.959ZM112.999 247.676L111.435 256.676H110.374L111.938 247.676H112.999ZM111.798 253.265L111.364 253.254C111.419 252.875 111.519 252.504 111.663 252.14C111.812 251.773 112.005 251.443 112.243 251.15C112.485 250.857 112.772 250.627 113.104 250.459C113.44 250.287 113.823 250.207 114.253 250.219C114.593 250.226 114.876 250.293 115.103 250.418C115.333 250.539 115.513 250.705 115.642 250.916C115.771 251.127 115.856 251.371 115.899 251.648C115.942 251.922 115.946 252.213 115.911 252.521L115.22 256.676H114.153L114.856 252.504C114.884 252.25 114.874 252.021 114.827 251.818C114.784 251.611 114.687 251.447 114.534 251.326C114.386 251.201 114.171 251.135 113.89 251.127C113.593 251.119 113.325 251.176 113.087 251.297C112.849 251.418 112.64 251.584 112.46 251.795C112.284 252.002 112.14 252.234 112.026 252.492C111.917 252.746 111.841 253.004 111.798 253.265ZM119.034 250.336L117.933 256.676H116.872L117.974 250.336H119.034ZM118.185 248.672C118.185 248.488 118.241 248.336 118.354 248.215C118.472 248.09 118.622 248.025 118.806 248.021C118.989 248.017 119.14 248.074 119.257 248.191C119.378 248.308 119.437 248.457 119.433 248.636C119.433 248.816 119.372 248.967 119.251 249.088C119.134 249.205 118.985 249.265 118.806 249.269C118.626 249.273 118.478 249.22 118.36 249.111C118.243 248.998 118.185 248.851 118.185 248.672ZM121.56 251.619L120.259 259.113H119.192L120.716 250.336H121.688L121.56 251.619ZM125.374 253.418L125.362 253.541C125.312 253.924 125.218 254.31 125.081 254.701C124.948 255.088 124.767 255.441 124.536 255.761C124.306 256.082 124.022 256.338 123.687 256.529C123.354 256.72 122.964 256.81 122.515 256.799C122.12 256.791 121.782 256.705 121.501 256.541C121.22 256.373 120.993 256.152 120.821 255.879C120.649 255.601 120.526 255.293 120.452 254.953C120.382 254.609 120.358 254.258 120.382 253.898L120.464 253.248C120.53 252.865 120.642 252.492 120.798 252.129C120.958 251.761 121.161 251.431 121.407 251.138C121.653 250.845 121.944 250.617 122.28 250.453C122.62 250.285 123.005 250.207 123.435 250.219C123.868 250.23 124.22 250.336 124.489 250.535C124.763 250.73 124.97 250.986 125.11 251.302C125.255 251.615 125.345 251.957 125.38 252.328C125.415 252.695 125.413 253.058 125.374 253.418ZM124.296 253.535L124.313 253.406C124.341 253.172 124.347 252.924 124.331 252.662C124.319 252.4 124.271 252.156 124.185 251.929C124.103 251.699 123.972 251.51 123.792 251.361C123.616 251.213 123.376 251.135 123.071 251.127C122.829 251.119 122.599 251.16 122.38 251.25C122.165 251.336 121.97 251.459 121.794 251.619C121.618 251.775 121.468 251.957 121.343 252.164C121.218 252.367 121.126 252.582 121.067 252.808L120.815 254.338C120.812 254.615 120.872 254.873 120.997 255.111C121.122 255.345 121.292 255.535 121.507 255.679C121.726 255.824 121.974 255.9 122.251 255.908C122.575 255.916 122.856 255.851 123.095 255.715C123.337 255.574 123.54 255.386 123.704 255.152C123.868 254.914 123.999 254.654 124.097 254.373C124.194 254.088 124.261 253.808 124.296 253.535ZM128.081 251.66L127.214 256.676H126.147L127.249 250.336H128.257L128.081 251.66ZM127.606 253.265L127.126 253.254C127.181 252.859 127.278 252.478 127.419 252.111C127.56 251.744 127.747 251.416 127.981 251.127C128.22 250.838 128.507 250.611 128.843 250.447C129.179 250.283 129.567 250.207 130.009 250.219C130.337 250.226 130.614 250.291 130.841 250.412C131.067 250.529 131.249 250.691 131.386 250.898C131.526 251.101 131.62 251.336 131.667 251.601C131.718 251.867 131.729 252.15 131.702 252.451L130.993 256.676H129.933L130.636 252.498C130.667 252.232 130.651 251.998 130.589 251.795C130.53 251.592 130.419 251.431 130.255 251.314C130.091 251.193 129.868 251.129 129.587 251.121C129.271 251.113 128.995 251.168 128.761 251.285C128.53 251.402 128.337 251.564 128.181 251.771C128.028 251.974 127.905 252.207 127.812 252.469C127.718 252.726 127.649 252.992 127.606 253.265ZM131.702 252.668L130.94 252.89C130.987 252.527 131.085 252.183 131.233 251.859C131.386 251.535 131.583 251.248 131.825 250.998C132.067 250.748 132.349 250.552 132.669 250.412C132.989 250.271 133.343 250.205 133.729 250.213C134.073 250.22 134.364 250.285 134.603 250.406C134.841 250.523 135.03 250.685 135.171 250.892C135.315 251.099 135.411 251.342 135.458 251.619C135.509 251.892 135.517 252.189 135.481 252.51L134.784 256.676H133.718L134.421 252.492C134.452 252.222 134.438 251.986 134.38 251.783C134.325 251.58 134.216 251.422 134.052 251.308C133.888 251.191 133.661 251.131 133.372 251.127C133.142 251.119 132.931 251.154 132.739 251.232C132.548 251.31 132.382 251.422 132.241 251.566C132.101 251.707 131.983 251.871 131.89 252.058C131.8 252.246 131.737 252.449 131.702 252.668ZM139.05 256.793C138.616 256.785 138.239 256.699 137.919 256.535C137.603 256.367 137.343 256.142 137.14 255.861C136.94 255.576 136.798 255.252 136.712 254.888C136.626 254.525 136.601 254.144 136.636 253.746L136.659 253.494C136.698 253.088 136.798 252.689 136.958 252.299C137.118 251.904 137.331 251.549 137.597 251.232C137.866 250.916 138.183 250.666 138.546 250.482C138.913 250.295 139.319 250.207 139.765 250.219C140.206 250.226 140.573 250.32 140.866 250.5C141.159 250.679 141.388 250.918 141.552 251.215C141.72 251.508 141.829 251.838 141.88 252.205C141.931 252.568 141.935 252.941 141.892 253.324L141.827 253.81H137.228L137.368 252.926L140.878 252.931L140.896 252.838C140.935 252.556 140.919 252.285 140.849 252.023C140.778 251.761 140.649 251.547 140.462 251.379C140.278 251.207 140.03 251.117 139.718 251.109C139.394 251.097 139.112 251.164 138.874 251.308C138.636 251.449 138.437 251.64 138.276 251.883C138.116 252.121 137.989 252.383 137.896 252.668C137.806 252.949 137.743 253.224 137.708 253.494L137.685 253.74C137.661 253.99 137.669 254.242 137.708 254.496C137.747 254.75 137.821 254.982 137.931 255.193C138.044 255.4 138.2 255.57 138.399 255.703C138.599 255.832 138.845 255.9 139.138 255.908C139.493 255.916 139.812 255.84 140.093 255.679C140.378 255.515 140.638 255.308 140.872 255.058L141.476 255.574C141.292 255.844 141.073 256.07 140.819 256.254C140.565 256.437 140.288 256.574 139.987 256.664C139.687 256.754 139.374 256.797 139.05 256.793ZM144.458 251.754L143.603 256.676H142.542L143.644 250.336H144.646L144.458 251.754ZM143.966 253.265L143.532 253.254C143.587 252.875 143.687 252.504 143.831 252.14C143.979 251.773 144.173 251.443 144.411 251.15C144.653 250.857 144.94 250.627 145.272 250.459C145.608 250.287 145.991 250.207 146.421 250.219C146.761 250.226 147.044 250.293 147.271 250.418C147.501 250.539 147.681 250.705 147.81 250.916C147.938 251.127 148.024 251.371 148.067 251.648C148.11 251.922 148.114 252.213 148.079 252.521L147.388 256.676H146.321L147.024 252.504C147.052 252.25 147.042 252.021 146.995 251.818C146.952 251.611 146.854 251.447 146.702 251.326C146.554 251.201 146.339 251.135 146.058 251.127C145.761 251.119 145.493 251.176 145.255 251.297C145.017 251.418 144.808 251.584 144.628 251.795C144.452 252.002 144.308 252.234 144.194 252.492C144.085 252.746 144.009 253.004 143.966 253.265ZM152.661 250.336L152.515 251.168H149.181L149.327 250.336H152.661ZM150.722 248.795H151.776L150.704 255.117C150.692 255.254 150.696 255.377 150.716 255.486C150.735 255.595 150.782 255.683 150.856 255.75C150.931 255.812 151.044 255.845 151.196 255.849C151.282 255.849 151.366 255.844 151.448 255.832C151.534 255.816 151.62 255.802 151.706 255.791L151.63 256.681C151.505 256.717 151.376 256.742 151.243 256.758C151.114 256.777 150.985 256.785 150.856 256.781C150.532 256.777 150.278 256.695 150.095 256.535C149.911 256.375 149.786 256.168 149.72 255.914C149.653 255.66 149.634 255.388 149.661 255.099L150.722 248.795ZM156.013 253.611L156.03 253.476C156.077 253.051 156.183 252.64 156.347 252.246C156.515 251.851 156.735 251.5 157.009 251.191C157.282 250.883 157.606 250.64 157.981 250.465C158.356 250.289 158.774 250.207 159.235 250.219C159.681 250.226 160.062 250.322 160.378 250.506C160.698 250.689 160.956 250.933 161.151 251.238C161.351 251.539 161.489 251.879 161.567 252.258C161.646 252.636 161.665 253.027 161.626 253.429L161.614 253.564C161.563 253.99 161.454 254.398 161.286 254.789C161.118 255.179 160.896 255.527 160.618 255.832C160.345 256.136 160.021 256.377 159.646 256.552C159.271 256.724 158.854 256.804 158.397 256.793C157.956 256.785 157.575 256.691 157.255 256.511C156.938 256.328 156.683 256.086 156.487 255.785C156.292 255.484 156.155 255.146 156.077 254.771C155.999 254.396 155.978 254.01 156.013 253.611ZM157.085 253.476L157.073 253.617C157.046 253.863 157.044 254.119 157.067 254.385C157.095 254.65 157.157 254.896 157.255 255.123C157.356 255.349 157.503 255.535 157.694 255.679C157.886 255.824 158.134 255.9 158.438 255.908C158.763 255.916 159.048 255.853 159.294 255.72C159.54 255.584 159.749 255.4 159.921 255.17C160.097 254.939 160.235 254.683 160.337 254.402C160.442 254.121 160.513 253.842 160.548 253.564L160.56 253.429C160.587 253.183 160.587 252.927 160.56 252.662C160.536 252.392 160.474 252.142 160.372 251.912C160.274 251.677 160.13 251.488 159.938 251.344C159.747 251.195 159.499 251.117 159.194 251.109C158.87 251.097 158.583 251.162 158.333 251.302C158.087 251.439 157.878 251.625 157.706 251.859C157.534 252.094 157.396 252.353 157.29 252.638C157.188 252.92 157.12 253.199 157.085 253.476ZM164.298 251.754L163.442 256.676H162.382L163.483 250.336H164.485L164.298 251.754ZM163.806 253.265L163.372 253.254C163.427 252.875 163.526 252.504 163.671 252.14C163.819 251.773 164.013 251.443 164.251 251.15C164.493 250.857 164.78 250.627 165.112 250.459C165.448 250.287 165.831 250.207 166.261 250.219C166.601 250.226 166.884 250.293 167.11 250.418C167.341 250.539 167.521 250.705 167.649 250.916C167.778 251.127 167.864 251.371 167.907 251.648C167.95 251.922 167.954 252.213 167.919 252.521L167.228 256.676H166.161L166.864 252.504C166.892 252.25 166.882 252.021 166.835 251.818C166.792 251.611 166.694 251.447 166.542 251.326C166.394 251.201 166.179 251.135 165.897 251.127C165.601 251.119 165.333 251.176 165.095 251.297C164.856 251.418 164.647 251.584 164.468 251.795C164.292 252.002 164.147 252.234 164.034 252.492C163.925 252.746 163.849 253.004 163.806 253.265ZM175.454 250.336L175.308 251.168H171.974L172.12 250.336H175.454ZM173.515 248.795H174.569L173.497 255.117C173.485 255.254 173.489 255.377 173.509 255.486C173.528 255.595 173.575 255.683 173.649 255.75C173.724 255.812 173.837 255.845 173.989 255.849C174.075 255.849 174.159 255.844 174.241 255.832C174.327 255.816 174.413 255.802 174.499 255.791L174.423 256.681C174.298 256.717 174.169 256.742 174.036 256.758C173.907 256.777 173.778 256.785 173.649 256.781C173.325 256.777 173.071 256.695 172.888 256.535C172.704 256.375 172.579 256.168 172.513 255.914C172.446 255.66 172.427 255.388 172.454 255.099L173.515 248.795ZM178.202 247.676L176.638 256.676H175.577L177.142 247.676H178.202ZM177.001 253.265L176.567 253.254C176.622 252.875 176.722 252.504 176.866 252.14C177.015 251.773 177.208 251.443 177.446 251.15C177.688 250.857 177.976 250.627 178.308 250.459C178.644 250.287 179.026 250.207 179.456 250.219C179.796 250.226 180.079 250.293 180.306 250.418C180.536 250.539 180.716 250.705 180.845 250.916C180.974 251.127 181.06 251.371 181.103 251.648C181.146 251.922 181.149 252.213 181.114 252.521L180.423 256.676H179.356L180.06 252.504C180.087 252.25 180.077 252.021 180.03 251.818C179.987 251.611 179.89 251.447 179.737 251.326C179.589 251.201 179.374 251.135 179.093 251.127C178.796 251.119 178.528 251.176 178.29 251.297C178.052 251.418 177.843 251.584 177.663 251.795C177.487 252.002 177.343 252.234 177.229 252.492C177.12 252.746 177.044 253.004 177.001 253.265ZM184.671 256.793C184.237 256.785 183.86 256.699 183.54 256.535C183.224 256.367 182.964 256.142 182.761 255.861C182.562 255.576 182.419 255.252 182.333 254.888C182.247 254.525 182.222 254.144 182.257 253.746L182.28 253.494C182.319 253.088 182.419 252.689 182.579 252.299C182.739 251.904 182.952 251.549 183.218 251.232C183.487 250.916 183.804 250.666 184.167 250.482C184.534 250.295 184.94 250.207 185.386 250.219C185.827 250.226 186.194 250.32 186.487 250.5C186.78 250.679 187.009 250.918 187.173 251.215C187.341 251.508 187.45 251.838 187.501 252.205C187.552 252.568 187.556 252.941 187.513 253.324L187.448 253.81H182.849L182.989 252.926L186.499 252.931L186.517 252.838C186.556 252.556 186.54 252.285 186.47 252.023C186.399 251.761 186.271 251.547 186.083 251.379C185.899 251.207 185.651 251.117 185.339 251.109C185.015 251.097 184.733 251.164 184.495 251.308C184.257 251.449 184.058 251.64 183.897 251.883C183.737 252.121 183.61 252.383 183.517 252.668C183.427 252.949 183.364 253.224 183.329 253.494L183.306 253.74C183.282 253.99 183.29 254.242 183.329 254.496C183.368 254.75 183.442 254.982 183.552 255.193C183.665 255.4 183.821 255.57 184.021 255.703C184.22 255.832 184.466 255.9 184.759 255.908C185.114 255.916 185.433 255.84 185.714 255.679C185.999 255.515 186.259 255.308 186.493 255.058L187.097 255.574C186.913 255.844 186.694 256.07 186.44 256.254C186.187 256.437 185.909 256.574 185.608 256.664C185.308 256.754 184.995 256.797 184.671 256.793ZM194.802 250.336L194.655 251.168H191.321L191.468 250.336H194.802ZM192.862 248.795H193.917L192.845 255.117C192.833 255.254 192.837 255.377 192.856 255.486C192.876 255.595 192.923 255.683 192.997 255.75C193.071 255.812 193.185 255.845 193.337 255.849C193.423 255.849 193.507 255.844 193.589 255.832C193.675 255.816 193.761 255.802 193.847 255.791L193.771 256.681C193.646 256.717 193.517 256.742 193.384 256.758C193.255 256.777 193.126 256.785 192.997 256.781C192.673 256.777 192.419 256.695 192.235 256.535C192.052 256.375 191.927 256.168 191.86 255.914C191.794 255.66 191.774 255.388 191.802 255.099L192.862 248.795ZM195.083 253.611L195.101 253.476C195.147 253.051 195.253 252.64 195.417 252.246C195.585 251.851 195.806 251.5 196.079 251.191C196.353 250.883 196.677 250.64 197.052 250.465C197.427 250.289 197.845 250.207 198.306 250.219C198.751 250.226 199.132 250.322 199.448 250.506C199.769 250.689 200.026 250.933 200.222 251.238C200.421 251.539 200.56 251.879 200.638 252.258C200.716 252.636 200.735 253.027 200.696 253.429L200.685 253.564C200.634 253.99 200.524 254.398 200.356 254.789C200.188 255.179 199.966 255.527 199.688 255.832C199.415 256.136 199.091 256.377 198.716 256.552C198.341 256.724 197.925 256.804 197.468 256.793C197.026 256.785 196.646 256.691 196.325 256.511C196.009 256.328 195.753 256.086 195.558 255.785C195.362 255.484 195.226 255.146 195.147 254.771C195.069 254.396 195.048 254.01 195.083 253.611ZM196.155 253.476L196.144 253.617C196.116 253.863 196.114 254.119 196.138 254.385C196.165 254.65 196.228 254.896 196.325 255.123C196.427 255.349 196.573 255.535 196.765 255.679C196.956 255.824 197.204 255.9 197.509 255.908C197.833 255.916 198.118 255.853 198.364 255.72C198.61 255.584 198.819 255.4 198.991 255.17C199.167 254.939 199.306 254.683 199.407 254.402C199.513 254.121 199.583 253.842 199.618 253.564L199.63 253.429C199.657 253.183 199.657 252.927 199.63 252.662C199.606 252.392 199.544 252.142 199.442 251.912C199.345 251.677 199.2 251.488 199.009 251.344C198.817 251.195 198.569 251.117 198.265 251.109C197.94 251.097 197.653 251.162 197.403 251.302C197.157 251.439 196.948 251.625 196.776 251.859C196.604 252.094 196.466 252.353 196.36 252.638C196.259 252.92 196.19 253.199 196.155 253.476ZM203.392 251.619L202.091 259.113H201.024L202.548 250.336H203.521L203.392 251.619ZM207.206 253.418L207.194 253.541C207.144 253.924 207.05 254.31 206.913 254.701C206.78 255.088 206.599 255.441 206.368 255.761C206.138 256.082 205.854 256.338 205.519 256.529C205.187 256.72 204.796 256.81 204.347 256.799C203.952 256.791 203.614 256.705 203.333 256.541C203.052 256.373 202.825 256.152 202.653 255.879C202.481 255.601 202.358 255.293 202.284 254.953C202.214 254.609 202.19 254.258 202.214 253.898L202.296 253.248C202.362 252.865 202.474 252.492 202.63 252.129C202.79 251.761 202.993 251.431 203.239 251.138C203.485 250.845 203.776 250.617 204.112 250.453C204.452 250.285 204.837 250.207 205.267 250.219C205.7 250.23 206.052 250.336 206.321 250.535C206.595 250.73 206.802 250.986 206.942 251.302C207.087 251.615 207.177 251.957 207.212 252.328C207.247 252.695 207.245 253.058 207.206 253.418ZM206.128 253.535L206.146 253.406C206.173 253.172 206.179 252.924 206.163 252.662C206.151 252.4 206.103 252.156 206.017 251.929C205.935 251.699 205.804 251.51 205.624 251.361C205.448 251.213 205.208 251.135 204.903 251.127C204.661 251.119 204.431 251.16 204.212 251.25C203.997 251.336 203.802 251.459 203.626 251.619C203.45 251.775 203.3 251.957 203.175 252.164C203.05 252.367 202.958 252.582 202.899 252.808L202.647 254.338C202.644 254.615 202.704 254.873 202.829 255.111C202.954 255.345 203.124 255.535 203.339 255.679C203.558 255.824 203.806 255.9 204.083 255.908C204.407 255.916 204.688 255.851 204.927 255.715C205.169 255.574 205.372 255.386 205.536 255.152C205.7 254.914 205.831 254.654 205.929 254.373C206.026 254.088 206.093 253.808 206.128 253.535ZM214.858 254.959C214.894 254.717 214.849 254.527 214.724 254.39C214.603 254.254 214.442 254.15 214.243 254.08C214.048 254.006 213.856 253.945 213.669 253.898C213.435 253.84 213.198 253.767 212.96 253.681C212.722 253.595 212.503 253.486 212.304 253.353C212.108 253.217 211.952 253.049 211.835 252.849C211.722 252.646 211.671 252.4 211.683 252.111C211.698 251.799 211.78 251.523 211.929 251.285C212.081 251.047 212.276 250.847 212.515 250.687C212.757 250.527 213.021 250.408 213.306 250.33C213.591 250.252 213.874 250.215 214.155 250.219C214.554 250.226 214.915 250.308 215.239 250.465C215.567 250.621 215.827 250.845 216.019 251.138C216.21 251.431 216.3 251.787 216.288 252.205L215.239 252.199C215.247 251.976 215.202 251.785 215.104 251.625C215.007 251.465 214.872 251.342 214.7 251.256C214.528 251.166 214.333 251.119 214.114 251.115C213.907 251.111 213.704 251.144 213.505 251.215C213.306 251.281 213.136 251.386 212.995 251.531C212.854 251.672 212.769 251.855 212.737 252.082C212.714 252.25 212.739 252.388 212.813 252.498C212.888 252.603 212.989 252.689 213.118 252.756C213.251 252.818 213.39 252.871 213.534 252.914C213.683 252.953 213.817 252.988 213.938 253.019C214.259 253.109 214.575 253.222 214.888 253.359C215.2 253.496 215.454 253.685 215.649 253.927C215.845 254.166 215.933 254.48 215.913 254.871C215.897 255.203 215.81 255.492 215.649 255.738C215.493 255.98 215.29 256.181 215.04 256.342C214.794 256.498 214.522 256.613 214.226 256.687C213.929 256.761 213.632 256.797 213.335 256.793C212.925 256.785 212.542 256.701 212.187 256.541C211.835 256.377 211.554 256.142 211.343 255.838C211.132 255.529 211.032 255.154 211.044 254.713L212.104 254.719C212.104 254.972 212.157 255.187 212.263 255.363C212.372 255.535 212.522 255.666 212.714 255.756C212.905 255.845 213.124 255.892 213.37 255.896C213.577 255.9 213.788 255.873 214.003 255.814C214.222 255.756 214.409 255.658 214.565 255.521C214.726 255.381 214.823 255.193 214.858 254.959ZM219.599 255.908C219.856 255.912 220.097 255.863 220.319 255.761C220.542 255.66 220.731 255.515 220.888 255.328C221.044 255.14 221.155 254.924 221.222 254.677L222.229 254.672C222.167 255.097 222.001 255.47 221.731 255.791C221.466 256.111 221.14 256.361 220.753 256.541C220.37 256.717 219.97 256.801 219.552 256.793C219.106 256.785 218.728 256.693 218.415 256.517C218.106 256.338 217.858 256.099 217.671 255.802C217.483 255.506 217.354 255.172 217.284 254.801C217.214 254.426 217.198 254.041 217.237 253.646L217.261 253.394C217.308 252.969 217.411 252.564 217.571 252.181C217.731 251.795 217.944 251.453 218.21 251.156C218.479 250.855 218.798 250.621 219.165 250.453C219.532 250.285 219.944 250.207 220.401 250.219C220.847 250.226 221.233 250.332 221.562 250.535C221.89 250.734 222.144 251.006 222.323 251.349C222.503 251.693 222.593 252.084 222.593 252.521L221.597 252.515C221.593 252.265 221.544 252.035 221.45 251.824C221.356 251.613 221.218 251.443 221.034 251.314C220.851 251.185 220.624 251.115 220.354 251.103C220.03 251.095 219.747 251.156 219.505 251.285C219.267 251.414 219.063 251.592 218.896 251.818C218.731 252.041 218.601 252.289 218.503 252.562C218.409 252.836 218.345 253.113 218.31 253.394L218.28 253.64C218.257 253.89 218.253 254.146 218.269 254.408C218.288 254.67 218.343 254.914 218.433 255.14C218.522 255.363 218.661 255.545 218.849 255.685C219.036 255.826 219.286 255.9 219.599 255.908ZM226.882 255.592L227.409 252.316C227.437 252.074 227.413 251.861 227.339 251.677C227.269 251.494 227.149 251.351 226.981 251.25C226.817 251.148 226.61 251.094 226.36 251.086C226.142 251.082 225.927 251.117 225.716 251.191C225.509 251.265 225.329 251.377 225.177 251.525C225.024 251.674 224.925 251.861 224.878 252.088L223.823 252.094C223.851 251.777 223.95 251.502 224.122 251.267C224.294 251.029 224.509 250.832 224.767 250.676C225.024 250.515 225.302 250.398 225.599 250.324C225.896 250.246 226.185 250.209 226.466 250.213C226.892 250.22 227.261 250.312 227.573 250.488C227.89 250.66 228.128 250.902 228.288 251.215C228.448 251.527 228.507 251.902 228.464 252.34L227.978 255.293C227.942 255.508 227.921 255.724 227.913 255.943C227.909 256.158 227.935 256.369 227.989 256.576L227.978 256.676L226.905 256.681C226.862 256.502 226.841 256.32 226.841 256.136C226.845 255.953 226.858 255.771 226.882 255.592ZM227.532 252.832L227.409 253.594L226.407 253.588C226.196 253.588 225.974 253.603 225.739 253.635C225.505 253.666 225.282 253.724 225.071 253.81C224.86 253.896 224.683 254.021 224.538 254.185C224.394 254.345 224.306 254.554 224.274 254.812C224.251 255.023 224.276 255.207 224.351 255.363C224.429 255.515 224.546 255.635 224.702 255.72C224.858 255.806 225.04 255.851 225.247 255.855C225.517 255.859 225.782 255.806 226.044 255.697C226.306 255.588 226.534 255.431 226.729 255.228C226.925 255.025 227.06 254.791 227.134 254.525L227.521 255.047C227.446 255.304 227.325 255.543 227.157 255.761C226.989 255.976 226.79 256.162 226.56 256.318C226.333 256.474 226.089 256.595 225.827 256.681C225.565 256.767 225.304 256.808 225.042 256.804C224.687 256.797 224.364 256.717 224.075 256.564C223.79 256.412 223.563 256.199 223.396 255.926C223.231 255.648 223.161 255.326 223.185 254.959C223.208 254.556 223.313 254.219 223.501 253.945C223.688 253.672 223.929 253.453 224.222 253.289C224.519 253.125 224.843 253.008 225.194 252.937C225.546 252.863 225.894 252.826 226.237 252.826L227.532 252.832ZM231.306 251.754L230.45 256.676H229.39L230.491 250.336H231.493L231.306 251.754ZM230.813 253.265L230.38 253.254C230.435 252.875 230.534 252.504 230.679 252.14C230.827 251.773 231.021 251.443 231.259 251.15C231.501 250.857 231.788 250.627 232.12 250.459C232.456 250.287 232.839 250.207 233.269 250.219C233.608 250.226 233.892 250.293 234.118 250.418C234.349 250.539 234.528 250.705 234.657 250.916C234.786 251.127 234.872 251.371 234.915 251.648C234.958 251.922 234.962 252.213 234.927 252.521L234.235 256.676H233.169L233.872 252.504C233.899 252.25 233.89 252.021 233.843 251.818C233.8 251.611 233.702 251.447 233.55 251.326C233.401 251.201 233.187 251.135 232.905 251.127C232.608 251.119 232.341 251.176 232.103 251.297C231.864 251.418 231.655 251.584 231.476 251.795C231.3 252.002 231.155 252.234 231.042 252.492C230.933 252.746 230.856 253.004 230.813 253.265ZM237.739 251.754L236.884 256.676H235.823L236.925 250.336H237.927L237.739 251.754ZM237.247 253.265L236.813 253.254C236.868 252.875 236.968 252.504 237.112 252.14C237.261 251.773 237.454 251.443 237.692 251.15C237.935 250.857 238.222 250.627 238.554 250.459C238.89 250.287 239.272 250.207 239.702 250.219C240.042 250.226 240.325 250.293 240.552 250.418C240.782 250.539 240.962 250.705 241.091 250.916C241.22 251.127 241.306 251.371 241.349 251.648C241.392 251.922 241.396 252.213 241.36 252.521L240.669 256.676H239.603L240.306 252.504C240.333 252.25 240.323 252.021 240.276 251.818C240.233 251.611 240.136 251.447 239.983 251.326C239.835 251.201 239.62 251.135 239.339 251.127C239.042 251.119 238.774 251.176 238.536 251.297C238.298 251.418 238.089 251.584 237.909 251.795C237.733 252.002 237.589 252.234 237.476 252.492C237.366 252.746 237.29 253.004 237.247 253.265ZM244.94 256.793C244.507 256.785 244.13 256.699 243.81 256.535C243.493 256.367 243.233 256.142 243.03 255.861C242.831 255.576 242.688 255.252 242.603 254.888C242.517 254.525 242.491 254.144 242.526 253.746L242.55 253.494C242.589 253.088 242.688 252.689 242.849 252.299C243.009 251.904 243.222 251.549 243.487 251.232C243.757 250.916 244.073 250.666 244.437 250.482C244.804 250.295 245.21 250.207 245.655 250.219C246.097 250.226 246.464 250.32 246.757 250.5C247.05 250.679 247.278 250.918 247.442 251.215C247.61 251.508 247.72 251.838 247.771 252.205C247.821 252.568 247.825 252.941 247.782 253.324L247.718 253.81H243.118L243.259 252.926L246.769 252.931L246.786 252.838C246.825 252.556 246.81 252.285 246.739 252.023C246.669 251.761 246.54 251.547 246.353 251.379C246.169 251.207 245.921 251.117 245.608 251.109C245.284 251.097 245.003 251.164 244.765 251.308C244.526 251.449 244.327 251.64 244.167 251.883C244.007 252.121 243.88 252.383 243.786 252.668C243.696 252.949 243.634 253.224 243.599 253.494L243.575 253.74C243.552 253.99 243.56 254.242 243.599 254.496C243.638 254.75 243.712 254.982 243.821 255.193C243.935 255.4 244.091 255.57 244.29 255.703C244.489 255.832 244.735 255.9 245.028 255.908C245.384 255.916 245.702 255.84 245.983 255.679C246.269 255.515 246.528 255.308 246.763 255.058L247.366 255.574C247.183 255.844 246.964 256.07 246.71 256.254C246.456 256.437 246.179 256.574 245.878 256.664C245.577 256.754 245.265 256.797 244.94 256.793ZM250.413 251.379L249.493 256.676H248.433L249.534 250.336H250.565L250.413 251.379ZM252.47 250.283L252.37 251.302C252.288 251.287 252.204 251.273 252.118 251.261C252.036 251.25 251.954 251.244 251.872 251.244C251.618 251.24 251.39 251.279 251.187 251.361C250.987 251.439 250.81 251.551 250.653 251.695C250.501 251.84 250.37 252.01 250.261 252.205C250.155 252.4 250.071 252.611 250.009 252.838L249.675 253.013C249.718 252.697 249.788 252.373 249.886 252.041C249.987 251.709 250.126 251.402 250.302 251.121C250.481 250.84 250.706 250.613 250.976 250.441C251.249 250.269 251.577 250.189 251.96 250.201C252.046 250.201 252.13 250.209 252.212 250.224C252.298 250.24 252.384 250.26 252.47 250.283Z" fill="#5E6C84"/>
<mask id="mask0_25_5425" style="mask-type:alpha" maskUnits="userSpaceOnUse" x="0" y="0" width="325" height="233">
<path d="M36.0826 73.5337C40.7487 93.5572 23.4931 105.744 15.2382 115.899C10.0112 122.601 -2.69937 133.563 0.513338 173.856C2.05971 193.251 12.0619 220.881 34.0077 227.24C46.2371 235.104 155.966 222.889 213.595 229.75C274.645 237.018 287.363 229.249 317.195 206.682C329.529 197.351 324.94 171.429 319.107 154.264C312.701 137.646 308.589 110.667 320.446 76.6112C333.303 39.6794 314.677 25.39 305.434 19.0642C293.992 12.0205 270.247 4.80573 241.849 17.9359C205.241 34.862 189.164 28.3989 176.161 26.5525C163.157 24.7061 118.791 9.72951 80.1618 1.21544C49.2585 -5.59582 30.9194 17.9359 28.3377 29.2195C25.7561 47.8889 31.4166 53.5103 36.0826 73.5337Z" fill="#FFEBE5"/>
</mask>
<g mask="url(#mask0_25_5425)">
<path d="M185.653 14.5778V129.485" stroke="#DDDDDD" stroke-width="1.89444"/>
<path fill-rule="evenodd" clip-rule="evenodd" d="M134.631 129.485H230.673V11.1477H134.631V129.485Z" stroke="#DDDDDD" stroke-width="1.89444"/>
<path d="M230.673 90.2846H134.631" stroke="#DDDDDD" stroke-width="1.89444"/>
<path fill-rule="evenodd" clip-rule="evenodd" d="M221.24 188.654H186.082V155.524C186.082 154.405 187.781 153.496 189.88 153.496H221.24V188.654Z" fill="#2565C1"/>
<path fill-rule="evenodd" clip-rule="evenodd" d="M272.691 188.654H221.24V153.496H268.911C270.998 153.496 272.691 154.405 272.691 155.524V188.654Z" fill="#2873F0"/>
<path fill-rule="evenodd" clip-rule="evenodd" d="M197.783 181.494H209.326V153.497H197.783V181.494Z" fill="#F85A4F"/>
<mask id="mask1_25_5425" style="mask-type:alpha" maskUnits="userSpaceOnUse" x="223" y="162" width="29" height="27">
<path fill-rule="evenodd" clip-rule="evenodd" d="M223.812 162.929H251.253V188.321H223.812V162.929Z" fill="white"/>
</mask>
<g mask="url(#mask1_25_5425)">
<path fill-rule="evenodd" clip-rule="evenodd" d="M243.795 178.128H246.287C247.216 178.128 247.815 177.422 248.091 175.836C248.349 174.315 248.013 173.637 247.081 173.637H244.584L244.979 171.355C245.42 168.748 246.73 167.461 248.879 167.461H249.288C250.484 167.461 251.138 167.259 251.229 166.678C251.303 166.286 251.196 165.749 251.076 165.155C250.948 164.578 250.814 164.023 250.623 163.708C250.335 163.183 249.669 162.929 248.628 162.929C246.045 162.929 243.92 163.67 242.243 165.173C240.576 166.666 239.512 168.671 239.045 171.393L238.645 173.637H233.406C233.32 173.637 227.906 174.266 227.906 174.266L232.89 175.051L233.092 175.808L230.04 176.075L233.246 176.556L233.373 177.173L223.812 177.722C223.812 177.722 234.133 178.128 234.216 178.128H237.849L235.916 189.729L242.058 188.401L243.795 178.128Z" fill="white"/>
</g>
<path fill-rule="evenodd" clip-rule="evenodd" d="M274.835 159.07L268.158 170.738L262.141 169.054L263.907 153.282C257.991 156.518 257.099 154.486 257.928 153.943C258.757 153.401 259.485 152.565 264.883 148.087L270.119 147.065" fill="#F5B7A3"/>
<path fill-rule="evenodd" clip-rule="evenodd" d="M262.7 164.528L258.016 169.138C258.016 169.138 250.819 171.763 251.453 173.948C251.864 174.127 259.38 171.753 259.38 171.753L263.427 168.516" fill="#F5B7A3"/>
<path fill-rule="evenodd" clip-rule="evenodd" d="M262.749 167.91L259.904 172.394C259.904 172.394 253.266 175.791 254.14 177.825C254.557 177.949 261.534 174.757 261.534 174.757L265.679 170.045" fill="#F5B7A3"/>
<path fill-rule="evenodd" clip-rule="evenodd" d="M265.667 168.248L263.52 173.327C263.52 173.327 257.866 178.188 259.194 179.959C259.628 179.982 265.659 175.239 265.659 175.239L268.389 170.334" fill="#F5B7A3"/>
<path d="M202.546 150.426L199.33 151.395L195.549 153.925" stroke="#DD9480" stroke-width="2.25" stroke-miterlimit="10" stroke-linecap="round"/>
<path d="M213.385 156.592C213.385 156.592 260.009 139.982 271.92 119.247C273.403 116.828 290.305 80.9327 290.305 80.9327L292.389 51.4512C292.389 51.4512 283.093 57.8397 280.786 61.0983C268.009 75.0158 252.583 122.84 252.583 122.84L212.622 149.809L213.385 156.592Z" fill="#F5B7A3"/>
<path d="M201.851 149.586L197.058 150.134L192.084 152.501" stroke="#F5B7A3" stroke-width="2.25" stroke-miterlimit="10" stroke-linecap="round"/>
<path d="M197.684 152.484L201.551 153.453L201.054 151.507L198.653 151.515L197.684 152.484Z" fill="#DD9480"/>
<path d="M321.141 113.621L294.986 130.772C294.986 130.772 285.554 119.195 282.981 115.336C279.917 110.741 278.265 105.475 280.837 101.616C271.833 90.4683 261.114 98.186 261.114 98.186C264.544 82.7506 277.747 64.318 280.837 60.4551C284.267 56.1675 288.126 52.7374 291.985 51.8799L305.749 54.8812L346.009 63.0276L333.575 97.3284L314.394 90.4683L321.141 113.621Z" fill="#5353E5"/>
<path d="M294.987 56.0618C294.987 56.0618 280.899 24.2906 278.989 19.7229C276.885 23.2579 271.331 19.6724 269.896 24.7026C268.48 29.5934 271.981 30.7144 270.357 35.5482C268.733 40.382 265.038 39.2039 263.42 44.0376C261.803 48.8714 265.499 50.0433 263.881 54.877C262.264 59.7108 257.594 59.4763 255.97 64.3037C254.346 69.1311 257.971 72.3493 256.347 77.1767H269.987L294.987 56.0618Z" fill="#231F20"/>
<path d="M273.117 31.178C272.626 39.2288 278.755 46.1535 286.806 46.6445C294.856 47.1355 301.781 41.0069 302.272 32.9561C302.763 24.9053 296.634 17.9809 288.584 17.4899C280.533 16.9989 273.608 23.1273 273.117 31.178Z" fill="#D39884"/>
<path d="M283.839 68.0267L285.81 42.0623L298.733 30.0132L308.707 55.4241C308.707 55.4241 303.7 84.7548 295.015 88.0116C286.329 91.2685 283.839 68.0267 283.839 68.0267Z" fill="#D39884"/>
<path d="M286.036 45.9251C285.823 49.2478 285.554 53.1662 285.554 53.1662L297.559 41.1609C297.559 41.1609 294.407 46.1145 286.036 45.9251Z" fill="#B57261"/>
<path d="M287.269 28.5309C285.823 27.9933 283.379 28.4644 282.981 29.1556" stroke="#231F20" stroke-width="1.07" stroke-miterlimit="10" stroke-linecap="round"/>
<path d="M279.551 30.4621C278.394 29.4244 276.433 30.3274 276.121 31.7282" stroke="#231F20" stroke-width="1.07" stroke-miterlimit="10" stroke-linecap="round"/>
<path d="M352.44 70.3166C346.772 65.4261 350.4 61.1671 344.764 56.2766C339.127 51.3861 335.468 55.6323 329.8 50.7547C324.132 45.8771 327.759 41.6052 322.123 36.7147C316.487 31.8242 312.834 36.0703 307.166 31.1991C301.498 26.328 303.968 22.0174 298.376 17.0238C292.785 12.0302 287.002 11.6502 280.157 15.2456C274.802 18.0613 273.58 26.9465 283.995 26.663C287.072 26.5728 291.109 26.2571 292.868 28.5123C294.474 30.5613 293.035 33.4027 294.148 34.7172C296.342 37.2945 298.901 36.1993 300.366 39.0472C300.685 39.75 301.055 40.4283 301.473 41.0768L309.136 57.4538C325.078 55.7335 343.471 66.8502 343.471 66.8502" fill="#231F20"/>
<path d="M280.022 31.7281C280.022 31.7281 279.702 34.7139 279.56 35.8023C279.419 36.8906 281.05 37.2339 282.124 36.4366" stroke="#231F20" stroke-width="1.32" stroke-miterlimit="10" stroke-linecap="round"/>
<path d="M285.554 38.5884C285.336 38.885 281.912 39.9052 279.552 39.2053" stroke="#231F20" stroke-width="1.32" stroke-miterlimit="10" stroke-linecap="round"/>
<path d="M220.065 144.758L212.622 149.766L202.889 148.377L196.218 149.517L213.394 156.592L228.726 150.435L220.065 144.758Z" fill="#F5B7A3"/>
<path d="M214.406 156.343C210.41 157.681 207.838 157.681 203.739 156C199.64 154.319 204.502 154.422 204.502 154.422L209.81 154.345L215.813 153.488L214.406 156.343Z" fill="#F5B7A3"/>
<path d="M312.565 159.499L304.419 139.776L329.287 108.047L348.152 171.504L312.565 159.499Z" fill="#5353E5"/>
<path d="M312.565 215.666V158.641L322.856 162.5L359.729 198.087L312.565 215.666Z" fill="#42526E"/>
<path fill-rule="evenodd" clip-rule="evenodd" d="M325.374 81.9802L329.403 99.678L269.69 147.493L274.407 159.499C274.407 159.499 316.764 135.582 327.573 126.484C338.382 117.386 352 77.2295 352 77.2295L325.374 81.9802Z" fill="#F5B7A3"/>
<path d="M275.263 113.193C275.263 113.193 273.548 105.475 261.114 98.6148L265.831 84.8944L291.556 92.6121C289.841 102.474 275.263 113.193 275.263 113.193Z" fill="#5353E5"/>
<path d="M322.427 97.7571C318.997 96.7281 314.424 97.3284 312.566 97.7571L308.278 87.8957L338.72 82.3218L331.431 103.76C327.144 103.331 326.715 99.0434 322.427 97.7571Z" fill="#5353E5"/>
<rect x="43.7334" y="149.208" width="136.346" height="107.19" fill="#F4F5F7"/>
<rect x="136.346" y="186.939" width="152.639" height="32.5858" fill="#F4F5F7"/>
<path d="M74.8867 182.733V185.299H75.7949C75.916 185.299 76.002 185.323 76.0527 185.37C76.1035 185.413 76.1289 185.471 76.1289 185.545C76.1289 185.616 76.1035 185.674 76.0527 185.721C76.002 185.768 75.916 185.792 75.7949 185.792H73.7324C73.6152 185.792 73.5312 185.768 73.4805 185.721C73.4297 185.674 73.4043 185.616 73.4043 185.545C73.4043 185.471 73.4297 185.413 73.4805 185.37C73.5312 185.323 73.6152 185.299 73.7324 185.299H74.3945V179.428H73.7324C73.6152 179.428 73.5312 179.407 73.4805 179.364C73.4297 179.317 73.4043 179.256 73.4043 179.182C73.4043 179.108 73.4297 179.049 73.4805 179.006C73.5312 178.959 73.6152 178.936 73.7324 178.936H76.709C77.3223 178.936 77.8379 179.131 78.2559 179.522C78.6777 179.909 78.8887 180.346 78.8887 180.834C78.8887 181.186 78.7578 181.518 78.4961 181.831C78.2383 182.139 77.8047 182.397 77.1953 182.604C77.5469 182.846 77.8477 183.12 78.0977 183.424C78.3477 183.729 78.748 184.354 79.2988 185.299H79.6738C79.791 185.299 79.875 185.323 79.9258 185.37C79.9766 185.413 80.002 185.471 80.002 185.545C80.002 185.616 79.9766 185.674 79.9258 185.721C79.875 185.768 79.791 185.792 79.6738 185.792H79.0176C78.4082 184.702 77.9355 183.971 77.5996 183.6C77.2676 183.229 76.8848 182.94 76.4512 182.733H74.8867ZM74.8867 182.241H76.2285C76.6582 182.241 77.0469 182.163 77.3945 182.006C77.7461 181.85 78 181.667 78.1562 181.456C78.3164 181.245 78.3965 181.03 78.3965 180.811C78.3965 180.483 78.2305 180.17 77.8984 179.874C77.5703 179.577 77.1699 179.428 76.6973 179.428H74.8867V182.241ZM82.5098 182.481V185.299H84.1973C84.3145 185.299 84.3984 185.323 84.4492 185.37C84.5 185.413 84.5254 185.471 84.5254 185.545C84.5254 185.616 84.5 185.674 84.4492 185.721C84.3984 185.768 84.3145 185.792 84.1973 185.792H81.3555C81.2383 185.792 81.1543 185.768 81.1035 185.721C81.0527 185.674 81.0273 185.616 81.0273 185.545C81.0273 185.471 81.0527 185.413 81.1035 185.37C81.1543 185.323 81.2383 185.299 81.3555 185.299H82.0176V179.428H81.3555C81.2383 179.428 81.1543 179.407 81.1035 179.364C81.0527 179.317 81.0273 179.256 81.0273 179.182C81.0273 179.108 81.0566 179.045 81.1152 178.995C81.1582 178.956 81.2383 178.936 81.3555 178.936H86.7754V180.629C86.7754 180.747 86.752 180.831 86.7051 180.881C86.6582 180.932 86.5996 180.958 86.5293 180.958C86.4551 180.958 86.3945 180.932 86.3477 180.881C86.3008 180.831 86.2773 180.747 86.2773 180.629V179.428H82.5098V181.989H84.2734V181.432C84.2734 181.315 84.2969 181.231 84.3438 181.18C84.3906 181.129 84.4512 181.104 84.5254 181.104C84.5957 181.104 84.6543 181.129 84.7012 181.18C84.748 181.231 84.7715 181.315 84.7715 181.432V183.038C84.7715 183.155 84.748 183.239 84.7012 183.29C84.6543 183.34 84.5957 183.366 84.5254 183.366C84.4512 183.366 84.3906 183.34 84.3438 183.29C84.2969 183.239 84.2734 183.155 84.2734 183.038V182.481H82.5098ZM91.1523 179.428V185.299H92.8398C92.957 185.299 93.041 185.323 93.0918 185.37C93.1426 185.413 93.168 185.471 93.168 185.545C93.168 185.616 93.1426 185.674 93.0918 185.721C93.041 185.768 92.957 185.792 92.8398 185.792H88.9727C88.8555 185.792 88.7715 185.768 88.7207 185.721C88.6699 185.674 88.6445 185.616 88.6445 185.545C88.6445 185.471 88.6699 185.413 88.7207 185.37C88.7715 185.323 88.8555 185.299 88.9727 185.299H90.6602V179.428H88.9727C88.8555 179.428 88.7715 179.407 88.7207 179.364C88.6699 179.317 88.6445 179.256 88.6445 179.182C88.6445 179.108 88.6699 179.049 88.7207 179.006C88.7715 178.959 88.8555 178.936 88.9727 178.936H92.8398C92.957 178.936 93.041 178.959 93.0918 179.006C93.1426 179.049 93.168 179.108 93.168 179.182C93.168 179.256 93.1426 179.317 93.0918 179.364C93.041 179.407 92.957 179.428 92.8398 179.428H91.1523ZM96.1797 185.299V179.428H95.7637C95.6465 179.428 95.5625 179.407 95.5117 179.364C95.4609 179.317 95.4355 179.256 95.4355 179.182C95.4355 179.108 95.4609 179.049 95.5117 179.006C95.5625 178.959 95.6465 178.936 95.7637 178.936H98.4121C98.8262 178.936 99.2031 179.022 99.543 179.194C99.8867 179.366 100.148 179.561 100.328 179.78C100.637 180.151 100.871 180.543 101.031 180.958C101.145 181.258 101.201 181.614 101.201 182.024V182.704C101.201 183.208 101.09 183.696 100.867 184.168C100.645 184.641 100.273 185.053 99.7539 185.405C99.3672 185.663 98.9199 185.792 98.4121 185.792H95.7637C95.6465 185.792 95.5625 185.768 95.5117 185.721C95.4609 185.674 95.4355 185.616 95.4355 185.545C95.4355 185.471 95.4609 185.413 95.5117 185.37C95.5625 185.323 95.6465 185.299 95.7637 185.299H96.1797ZM96.6719 185.299H98.459C98.873 185.299 99.2598 185.165 99.6191 184.895C99.9824 184.625 100.254 184.303 100.434 183.928C100.617 183.549 100.709 183.176 100.709 182.809V181.918C100.709 181.614 100.66 181.342 100.562 181.104C100.422 180.756 100.223 180.426 99.9648 180.114C99.8242 179.942 99.6172 179.786 99.3438 179.645C99.0703 179.5 98.7754 179.428 98.459 179.428H96.6719V185.299ZM114.285 179.428V179.264C114.285 179.147 114.307 179.063 114.35 179.012C114.396 178.961 114.457 178.936 114.531 178.936C114.605 178.936 114.664 178.961 114.707 179.012C114.754 179.063 114.777 179.147 114.777 179.264V180.518C114.777 180.635 114.754 180.719 114.707 180.77C114.664 180.821 114.605 180.846 114.531 180.846C114.461 180.846 114.402 180.823 114.355 180.776C114.312 180.729 114.289 180.653 114.285 180.547C114.266 180.219 114.096 179.924 113.775 179.663C113.459 179.401 113.043 179.27 112.527 179.27C111.984 179.27 111.553 179.411 111.232 179.692C110.912 179.969 110.752 180.297 110.752 180.676C110.752 180.872 110.797 181.049 110.887 181.209C110.977 181.37 111.096 181.5 111.244 181.602C111.393 181.7 111.561 181.78 111.748 181.842C111.936 181.901 112.229 181.963 112.627 182.03C113.295 182.139 113.756 182.25 114.01 182.364C114.35 182.516 114.605 182.727 114.777 182.997C114.953 183.266 115.041 183.584 115.041 183.952C115.041 184.514 114.816 184.995 114.367 185.393C113.918 185.788 113.312 185.985 112.551 185.985C111.695 185.985 111.012 185.717 110.5 185.182V185.463C110.5 185.581 110.477 185.665 110.43 185.715C110.387 185.766 110.328 185.792 110.254 185.792C110.184 185.792 110.125 185.766 110.078 185.715C110.031 185.665 110.008 185.581 110.008 185.463V184.104C110.008 183.983 110.029 183.897 110.072 183.846C110.119 183.795 110.18 183.77 110.254 183.77C110.324 183.77 110.381 183.793 110.424 183.84C110.471 183.887 110.496 183.963 110.5 184.069C110.52 184.428 110.711 184.756 111.074 185.053C111.441 185.346 111.934 185.493 112.551 185.493C113.168 185.493 113.654 185.338 114.01 185.03C114.369 184.721 114.549 184.356 114.549 183.934C114.549 183.676 114.48 183.448 114.344 183.249C114.207 183.045 114.004 182.885 113.734 182.768C113.547 182.686 113.156 182.594 112.562 182.493C111.746 182.356 111.158 182.147 110.799 181.866C110.439 181.584 110.26 181.184 110.26 180.665C110.26 180.149 110.465 179.706 110.875 179.334C111.289 178.963 111.834 178.778 112.51 178.778C113.197 178.778 113.789 178.995 114.285 179.428ZM121.896 179.61V179.264C121.896 179.147 121.918 179.063 121.961 179.012C122.008 178.961 122.068 178.936 122.143 178.936C122.217 178.936 122.275 178.961 122.318 179.012C122.365 179.063 122.389 179.147 122.389 179.264V180.629C122.389 180.75 122.365 180.836 122.318 180.887C122.275 180.938 122.217 180.963 122.143 180.963C122.076 180.963 122.02 180.94 121.973 180.893C121.93 180.846 121.904 180.77 121.896 180.665C121.877 180.336 121.699 180.045 121.363 179.792C120.91 179.444 120.395 179.27 119.816 179.27C119.438 179.27 119.08 179.354 118.744 179.522C118.494 179.643 118.295 179.792 118.146 179.967C117.889 180.272 117.684 180.61 117.531 180.981C117.422 181.254 117.367 181.563 117.367 181.907V182.768C117.367 183.502 117.633 184.141 118.164 184.684C118.695 185.223 119.312 185.493 120.016 185.493C120.438 185.493 120.814 185.401 121.146 185.217C121.482 185.034 121.807 184.756 122.119 184.385C122.186 184.303 122.26 184.262 122.342 184.262C122.412 184.262 122.469 184.284 122.512 184.327C122.555 184.37 122.576 184.424 122.576 184.491C122.576 184.581 122.492 184.717 122.324 184.901C122.004 185.26 121.643 185.532 121.24 185.715C120.842 185.895 120.438 185.985 120.027 185.985C119.672 185.985 119.311 185.917 118.943 185.78C118.662 185.674 118.43 185.551 118.246 185.411C118.062 185.27 117.836 185.034 117.566 184.702C117.301 184.366 117.119 184.057 117.021 183.776C116.924 183.491 116.875 183.178 116.875 182.838V181.836C116.875 181.352 117.004 180.858 117.262 180.354C117.523 179.846 117.879 179.458 118.328 179.188C118.781 178.915 119.271 178.778 119.799 178.778C120.611 178.778 121.311 179.055 121.896 179.61ZM128.559 183.5H125.324L124.662 185.299H125.605C125.723 185.299 125.807 185.323 125.857 185.37C125.908 185.413 125.934 185.471 125.934 185.545C125.934 185.616 125.908 185.674 125.857 185.721C125.807 185.768 125.723 185.792 125.605 185.792H123.766C123.648 185.792 123.564 185.768 123.514 185.721C123.463 185.674 123.438 185.616 123.438 185.545C123.438 185.471 123.463 185.413 123.514 185.37C123.564 185.323 123.648 185.299 123.766 185.299H124.146L126.32 179.428H124.867C124.75 179.428 124.666 179.407 124.615 179.364C124.564 179.317 124.539 179.256 124.539 179.182C124.539 179.108 124.564 179.049 124.615 179.006C124.666 178.959 124.75 178.936 124.867 178.936H127.346L129.748 185.299H130.129C130.246 185.299 130.33 185.323 130.381 185.37C130.432 185.413 130.457 185.471 130.457 185.545C130.457 185.616 130.432 185.674 130.381 185.721C130.33 185.768 130.246 185.792 130.129 185.792H128.295C128.174 185.792 128.088 185.768 128.037 185.721C127.986 185.674 127.961 185.616 127.961 185.545C127.961 185.471 127.986 185.413 128.037 185.37C128.088 185.323 128.174 185.299 128.295 185.299H129.232L128.559 183.5ZM128.371 183.008L127.012 179.428H126.83L125.512 183.008H128.371ZM136.557 185.792H135.924L132.297 179.657V185.299H133.205C133.326 185.299 133.412 185.323 133.463 185.37C133.514 185.413 133.539 185.471 133.539 185.545C133.539 185.616 133.514 185.674 133.463 185.721C133.412 185.768 133.326 185.792 133.205 185.792H131.395C131.273 185.792 131.188 185.768 131.137 185.721C131.086 185.674 131.061 185.616 131.061 185.545C131.061 185.471 131.086 185.413 131.137 185.37C131.188 185.323 131.273 185.299 131.395 185.299H131.805V179.428H131.143C131.025 179.428 130.941 179.407 130.891 179.364C130.84 179.317 130.814 179.256 130.814 179.182C130.814 179.108 130.84 179.049 130.891 179.006C130.941 178.959 131.025 178.936 131.143 178.936H132.432L136.064 185.083V179.428H135.156C135.039 179.428 134.955 179.407 134.904 179.364C134.854 179.317 134.828 179.256 134.828 179.182C134.828 179.108 134.852 179.049 134.898 179.006C134.949 178.959 135.035 178.936 135.156 178.936H136.973C137.09 178.936 137.174 178.959 137.225 179.006C137.275 179.049 137.301 179.108 137.301 179.182C137.301 179.256 137.275 179.317 137.225 179.364C137.174 179.407 137.09 179.428 136.973 179.428H136.557V185.792ZM143.764 185.792H143.131L139.504 179.657V185.299H140.412C140.533 185.299 140.619 185.323 140.67 185.37C140.721 185.413 140.746 185.471 140.746 185.545C140.746 185.616 140.721 185.674 140.67 185.721C140.619 185.768 140.533 185.792 140.412 185.792H138.602C138.48 185.792 138.395 185.768 138.344 185.721C138.293 185.674 138.268 185.616 138.268 185.545C138.268 185.471 138.293 185.413 138.344 185.37C138.395 185.323 138.48 185.299 138.602 185.299H139.012V179.428H138.35C138.232 179.428 138.148 179.407 138.098 179.364C138.047 179.317 138.021 179.256 138.021 179.182C138.021 179.108 138.047 179.049 138.098 179.006C138.148 178.959 138.232 178.936 138.35 178.936H139.639L143.271 185.083V179.428H142.363C142.246 179.428 142.162 179.407 142.111 179.364C142.061 179.317 142.035 179.256 142.035 179.182C142.035 179.108 142.059 179.049 142.105 179.006C142.156 178.959 142.242 178.936 142.363 178.936H144.18C144.297 178.936 144.381 178.959 144.432 179.006C144.482 179.049 144.508 179.108 144.508 179.182C144.508 179.256 144.482 179.317 144.432 179.364C144.381 179.407 144.297 179.428 144.18 179.428H143.764V185.792ZM146.957 182.481V185.299H150.742V183.846C150.742 183.729 150.764 183.645 150.807 183.594C150.854 183.543 150.914 183.518 150.988 183.518C151.062 183.518 151.121 183.543 151.164 183.594C151.211 183.645 151.234 183.729 151.234 183.846V185.792H145.803C145.686 185.792 145.602 185.768 145.551 185.721C145.5 185.674 145.475 185.616 145.475 185.545C145.475 185.471 145.5 185.413 145.551 185.37C145.602 185.323 145.686 185.299 145.803 185.299H146.465V179.428H145.803C145.686 179.428 145.602 179.407 145.551 179.364C145.5 179.317 145.475 179.256 145.475 179.182C145.475 179.108 145.5 179.049 145.551 179.006C145.602 178.959 145.686 178.936 145.803 178.936H150.977V180.629C150.977 180.747 150.953 180.831 150.906 180.881C150.863 180.932 150.805 180.958 150.73 180.958C150.656 180.958 150.596 180.932 150.549 180.881C150.506 180.831 150.484 180.747 150.484 180.629V179.428H146.957V181.989H148.721V181.432C148.721 181.315 148.744 181.231 148.791 181.18C148.838 181.129 148.898 181.104 148.973 181.104C149.043 181.104 149.102 181.129 149.148 181.18C149.195 181.231 149.219 181.315 149.219 181.432V183.038C149.219 183.155 149.195 183.239 149.148 183.29C149.102 183.34 149.043 183.366 148.973 183.366C148.898 183.366 148.838 183.34 148.791 183.29C148.744 183.239 148.721 183.155 148.721 183.038V182.481H146.957ZM154.164 182.733V185.299H155.072C155.193 185.299 155.279 185.323 155.33 185.37C155.381 185.413 155.406 185.471 155.406 185.545C155.406 185.616 155.381 185.674 155.33 185.721C155.279 185.768 155.193 185.792 155.072 185.792H153.01C152.893 185.792 152.809 185.768 152.758 185.721C152.707 185.674 152.682 185.616 152.682 185.545C152.682 185.471 152.707 185.413 152.758 185.37C152.809 185.323 152.893 185.299 153.01 185.299H153.672V179.428H153.01C152.893 179.428 152.809 179.407 152.758 179.364C152.707 179.317 152.682 179.256 152.682 179.182C152.682 179.108 152.707 179.049 152.758 179.006C152.809 178.959 152.893 178.936 153.01 178.936H155.986C156.6 178.936 157.115 179.131 157.533 179.522C157.955 179.909 158.166 180.346 158.166 180.834C158.166 181.186 158.035 181.518 157.773 181.831C157.516 182.139 157.082 182.397 156.473 182.604C156.824 182.846 157.125 183.12 157.375 183.424C157.625 183.729 158.025 184.354 158.576 185.299H158.951C159.068 185.299 159.152 185.323 159.203 185.37C159.254 185.413 159.279 185.471 159.279 185.545C159.279 185.616 159.254 185.674 159.203 185.721C159.152 185.768 159.068 185.792 158.951 185.792H158.295C157.686 184.702 157.213 183.971 156.877 183.6C156.545 183.229 156.162 182.94 155.729 182.733H154.164ZM154.164 182.241H155.506C155.936 182.241 156.324 182.163 156.672 182.006C157.023 181.85 157.277 181.667 157.434 181.456C157.594 181.245 157.674 181.03 157.674 180.811C157.674 180.483 157.508 180.17 157.176 179.874C156.848 179.577 156.447 179.428 155.975 179.428H154.164V182.241Z" fill="#979797"/>
<rect x="71.9697" y="103.317" width="6.00264" height="47.1636" transform="rotate(-12.9472 71.9697 103.317)" fill="#C4C4C4"/>
<rect x="83.1797" y="144.063" width="53.1662" height="5.14512" fill="#C4C4C4"/>
</g>
</svg>
