<?xml version="1.0" encoding="UTF-8"?>
<svg width="24" height="24" viewBox="0 0 24 24" fill="none" xmlns="http://www.w3.org/2000/svg">
<path d="M3.66149 19.8286L2.58557 8.75293H21.4142L20.3383 19.8286H3.66149Z" fill="#DDDDDD"/>
<path fill-rule="evenodd" clip-rule="evenodd" d="M16.0063 18.3302C15.3588 18.3302 14.8336 17.8934 14.8336 17.3543V13.0516C14.8336 12.5125 15.3588 12.0757 16.0063 12.0757C16.6539 12.0757 17.1791 12.5125 17.1791 13.0516V17.3543C17.1791 17.8934 16.6539 18.3302 16.0063 18.3302Z" fill="#C6C6C6"/>
<path fill-rule="evenodd" clip-rule="evenodd" d="M12.0975 18.3302C11.4499 18.3302 10.9248 17.8934 10.9248 17.3543V13.0516C10.9248 12.5125 11.4499 12.0757 12.0975 12.0757C12.7451 12.0757 13.2703 12.5125 13.2703 13.0516V17.3543C13.2703 17.8934 12.7451 18.3302 12.0975 18.3302Z" fill="#C6C6C6"/>
<path fill-rule="evenodd" clip-rule="evenodd" d="M8.18859 18.3302C7.54101 18.3302 7.01587 17.8934 7.01587 17.3543V13.0516C7.01587 12.5125 7.54101 12.0757 8.18859 12.0757C8.83617 12.0757 9.36132 12.5125 9.36132 13.0516V17.3543C9.36132 17.8934 8.83617 18.3302 8.18859 18.3302Z" fill="#C6C6C6"/>
<path fill-rule="evenodd" clip-rule="evenodd" d="M1.47803 10.4697H19.1991V6.53784H1.47803V10.4697Z" fill="#EDEDED"/>
<path fill-rule="evenodd" clip-rule="evenodd" d="M18.0917 10.4697H22.5219V6.53784H18.0917V10.4697Z" fill="#DDDDDD"/>
<rect x="7.99963" y="1" width="13" height="13" rx="6.5" fill="#E3FCEF"/>
<path d="M19.5209 7.30499C19.9575 8.2762 19.1507 9.23658 18.7718 9.24416H17.8282L16.4109 6.72893L18.501 5.51966L19.5047 7.25516L19.5209 7.30499ZM14.5276 3.10383L14.0013 2.4912H13.4337C12.9765 2.48389 12.4191 2.64558 12.0903 3.11629L12.0651 3.15745L11.0617 4.89349L13.1523 6.10331L14.6687 3.62464L14.5276 3.10383ZM12.1732 11.6695C11.1113 11.5619 10.6471 10.4764 10.828 10.1387L11.2556 9.25824H14.3867L14.2302 11.6779H12.2228L12.1732 11.6695Z" fill="#00875A"/>
<path d="M18.6906 9.22986C18.9784 9.22146 19.1743 9.04949 19.4186 8.69578L17.8258 11.3776C17.7112 11.6322 17.5544 11.6739 17.3903 11.6579H15.9828L15.9744 12.5129L14.7892 10.4557L15.9822 8.3743V9.22932H18.6906V9.22986ZM14.1403 2.81138C13.9185 2.45632 13.5997 2.49126 13.4995 2.49126H16.428C16.7078 2.46499 16.8226 2.57251 16.8971 2.72905L17.5964 3.94699L18.336 3.51934L17.1511 5.58472L14.7572 5.59365L15.4893 5.16574L14.1403 2.81138ZM10.8892 10.0115C10.7497 10.2588 10.7901 10.4952 10.9607 10.8362L9.45731 8.18526C9.30103 7.95396 9.3422 7.80636 9.43212 7.66634L10.1398 6.44894L9.39989 6.01263H11.7781L12.9879 8.08613L12.2472 7.65903L10.8892 10.0115Z" fill="#00875A"/>
</svg>
