<?xml version="1.0" encoding="UTF-8"?>
<svg width="102" height="102" viewBox="0 0 102 102" fill="none" xmlns="http://www.w3.org/2000/svg">
<rect opacity="0.4" width="102" height="102" rx="8" fill="#ABF5D1"/>
<path fill-rule="evenodd" clip-rule="evenodd" d="M18.7117 65.0922L14.1671 28.3625L73.472 27.5705L70.8714 65.0922H18.7117Z" fill="url(#paint0_linear_215_7157)"/>
<path fill-rule="evenodd" clip-rule="evenodd" d="M73.472 26.7453H88.5928L82.735 65.0922H70.8715L73.472 26.7453Z" fill="url(#paint1_linear_215_7157)"/>
<g style="mix-blend-mode:multiply" opacity="0.2">
<path fill-rule="evenodd" clip-rule="evenodd" d="M28.9919 65.0918H60.8683L60.701 29.6H26.063L28.9919 65.0918Z" fill="#B32472"/>
</g>
<path fill-rule="evenodd" clip-rule="evenodd" d="M18.5577 76L14.0067 27.0648L73.3116 26L70.7175 76H18.5577Z" fill="#36B27E"/>
<path fill-rule="evenodd" clip-rule="evenodd" d="M73.3114 26H88.4386L82.5808 76H70.7173L73.3114 26Z" fill="#006644"/>
<path fill-rule="evenodd" clip-rule="evenodd" d="M12.5706 27.0914L11 29.6004H76.1176L74.7787 26L12.5706 27.0914Z" fill="#36B27E"/>
<path fill-rule="evenodd" clip-rule="evenodd" d="M88.4381 26L91 29.1878L76.1175 29.6004L74.7786 26H88.4381Z" fill="#006644"/>
<path fill-rule="evenodd" clip-rule="evenodd" d="M28.3095 75.9996L25.0974 29.6H25.9085L28.8374 75.9996H28.3095Z" fill="#006644"/>
<g style="mix-blend-mode:multiply" opacity="0.2">
<path fill-rule="evenodd" clip-rule="evenodd" d="M28.8374 75.9996H60.7075L60.5465 29.6H25.9086L28.8374 75.9996Z" fill="#36B27E"/>
</g>
<g style="mix-blend-mode:multiply" opacity="0.5">
<path fill-rule="evenodd" clip-rule="evenodd" d="M14.579 33.1875L73.06 32.522L87.8459 31.0512L88.0648 29.1878L76.1176 29.6004H14.2443L14.579 33.1875Z" fill="#B32472"/>
</g>
<g style="mix-blend-mode:multiply" opacity="0.2">
<path fill-rule="evenodd" clip-rule="evenodd" d="M75.0946 75.9995L78.075 29.5334L85.2652 29.2872L79.8967 75.9995H75.0946Z" fill="#B32472"/>
</g>
<g style="mix-blend-mode:multiply" opacity="0.5">
<path fill-rule="evenodd" clip-rule="evenodd" d="M79.896 76H79.2523L84.1252 29.1878L85.2646 29.2876L79.896 76Z" fill="#006644"/>
</g>
<path fill-rule="evenodd" clip-rule="evenodd" d="M35.7316 34.725L36.3753 37.6067H50.4339L51.0776 34.4588L35.7316 34.725Z" fill="#006644"/>
<path d="M39.1152 44.0124C36.7088 44.0124 36.3632 46.5331 36.4912 47.7934L36.7472 58.009C36.7472 59.8133 38.7525 60.1317 39.8832 60.0653C42.6992 59.7116 48.7791 58.9377 50.5711 58.6723C52.3631 58.407 52.9833 56.8149 52.8111 55.6873C52.4057 53.0339 51.6591 47.4618 51.4031 46.1351C51.1502 44.8248 49.8671 44.0124 48.7151 44.0124H39.1152Z" fill="white"/>
<path fill-rule="evenodd" clip-rule="evenodd" d="M44.6604 46.4006V45.5382H45.4284V46.4006H44.6604ZM43.1884 46.6659V45.8036H43.9564V46.6659H43.1884ZM38.9645 47.9926V46.3343H39.7325V47.9926H38.9645ZM48.7575 50.1459L48.5015 46.6965L49.2672 46.6354L49.5232 50.0848L48.7575 50.1459ZM48.1164 46.6659V47.5946H47.3484V46.6659H48.1164ZM40.8844 47.7936V46.9976H41.6524V47.7936H40.8844ZM43.8924 47.9926V47.1303H44.6604V47.9926H43.8924ZM38.2619 51.0782L37.9419 47.2308L38.707 47.1624L39.027 51.0098L38.2619 51.0782ZM46.1964 48.1916V47.3293H46.9644V48.1916H46.1964ZM44.7884 48.7886V47.9926H45.5564V48.7886H44.7884ZM41.9084 48.9876V48.1916H42.6764V48.9876H41.9084ZM47.0284 48.9876V48.1916H47.7964V48.9876H47.0284ZM40.6284 49.253V48.457H41.3964V49.253H40.6284ZM46.0684 49.85V48.9876H46.8364V49.85H46.0684ZM42.8684 49.85V49.054H43.6364V49.85H42.8684ZM39.3485 50.1153V49.3856H40.1165V50.1153H39.3485ZM47.1564 50.5133V49.651H47.9244V50.5133H47.1564ZM43.9564 50.7123V49.85H44.7244V50.7123H43.9564ZM40.7564 50.7123V49.9827H41.5244V50.7123H40.7564Z" fill="black"/>
<path fill-rule="evenodd" clip-rule="evenodd" d="M38.2224 52.5722C38.3979 52.5505 38.5571 52.6804 38.578 52.8623L39.218 58.4344C39.2389 58.6163 39.1135 58.7813 38.938 58.803C38.7625 58.8246 38.6033 58.6947 38.5825 58.5128L37.9425 52.9407C37.9216 52.7588 38.0469 52.5938 38.2224 52.5722Z" fill="black"/>
<path fill-rule="evenodd" clip-rule="evenodd" d="M42.4551 52.4042C42.6313 52.3899 42.7853 52.5264 42.7991 52.709L43.1976 57.9866C43.2114 58.1692 43.0797 58.3288 42.9035 58.3431C42.7273 58.3574 42.5733 58.221 42.5595 58.0383L42.1611 52.7608C42.1473 52.5782 42.2789 52.4185 42.4551 52.4042Z" fill="black"/>
<path fill-rule="evenodd" clip-rule="evenodd" d="M45.277 51.8479C45.4527 51.829 45.6101 51.9613 45.6284 52.1435L46.1929 57.7688C46.2112 57.951 46.0835 58.1141 45.9078 58.133C45.732 58.152 45.5747 58.0196 45.5564 57.8374L44.9918 52.2121C44.9735 52.0299 45.1012 51.8669 45.277 51.8479Z" fill="black"/>
<path fill-rule="evenodd" clip-rule="evenodd" d="M49.2485 51.6884C49.4244 51.6704 49.581 51.8036 49.5984 51.9859L50.0989 57.2472C50.1162 57.4295 49.9877 57.5918 49.8118 57.6098C49.636 57.6278 49.4793 57.4946 49.462 57.3123L48.9615 52.051C48.9441 51.8687 49.0726 51.7063 49.2485 51.6884Z" fill="black"/>
<path fill-rule="evenodd" clip-rule="evenodd" d="M50.4122 51.9728C50.4828 51.97 50.5423 52.027 50.545 52.1003L50.7383 57.3235C50.741 57.3967 50.6859 57.4583 50.6153 57.4611C50.5446 57.464 50.4851 57.4069 50.4824 57.3337L50.2892 52.1104C50.2865 52.0372 50.3416 51.9756 50.4122 51.9728Z" fill="black"/>
<path fill-rule="evenodd" clip-rule="evenodd" d="M50.9488 51.8405C51.0192 51.8344 51.0811 51.8887 51.087 51.9617L51.5072 57.1706C51.5131 57.2436 51.4608 57.3077 51.3903 57.3138C51.3199 57.3199 51.258 57.2657 51.2521 57.1927L50.8319 51.9838C50.826 51.9108 50.8783 51.8466 50.9488 51.8405Z" fill="black"/>
<path fill-rule="evenodd" clip-rule="evenodd" d="M47.8761 51.8406C47.9465 51.8339 48.0089 51.8876 48.0154 51.9605L48.4998 57.4C48.5063 57.4729 48.4545 57.5375 48.3842 57.5443C48.3138 57.551 48.2514 57.4973 48.2449 57.4244L47.7604 51.9849C47.7539 51.912 47.8057 51.8474 47.8761 51.8406Z" fill="black"/>
<path fill-rule="evenodd" clip-rule="evenodd" d="M47.1154 51.8406C47.1858 51.8339 47.2481 51.8876 47.2546 51.9605L47.7391 57.4C47.7456 57.4729 47.6938 57.5375 47.6234 57.5443C47.553 57.551 47.4907 57.4973 47.4842 57.4244L46.9997 51.9849C46.9932 51.912 47.045 51.8474 47.1154 51.8406Z" fill="black"/>
<path fill-rule="evenodd" clip-rule="evenodd" d="M46.3466 51.9735C46.417 51.9668 46.4793 52.0205 46.4858 52.0934L46.9703 57.5329C46.9768 57.6058 46.925 57.6705 46.8546 57.6772C46.7842 57.6839 46.7219 57.6302 46.7154 57.5573L46.2309 52.1178C46.2244 52.0449 46.2762 51.9803 46.3466 51.9735Z" fill="black"/>
<path fill-rule="evenodd" clip-rule="evenodd" d="M43.9148 52.3711C43.9852 52.3644 44.0475 52.4181 44.054 52.4911L44.5385 57.9305C44.545 58.0035 44.4932 58.0681 44.4229 58.0748C44.3525 58.0815 44.2901 58.0278 44.2836 57.9549L43.7991 52.5154C43.7926 52.4425 43.8444 52.3779 43.9148 52.3711Z" fill="black"/>
<path fill-rule="evenodd" clip-rule="evenodd" d="M43.2753 52.504C43.3457 52.4973 43.408 52.551 43.4145 52.6239L43.899 58.0634C43.9055 58.1363 43.8537 58.2009 43.7833 58.2077C43.7129 58.2144 43.6506 58.1607 43.6441 58.0878L43.1596 52.6483C43.1531 52.5754 43.2049 52.5108 43.2753 52.504Z" fill="black"/>
<path fill-rule="evenodd" clip-rule="evenodd" d="M40.9711 52.504C41.0415 52.4973 41.1038 52.551 41.1103 52.6239L41.5948 58.0634C41.6013 58.1363 41.5495 58.2009 41.4791 58.2077C41.4087 58.2144 41.3464 58.1607 41.3399 58.0878L40.8554 52.6483C40.8489 52.5754 40.9007 52.5108 40.9711 52.504Z" fill="black"/>
<path fill-rule="evenodd" clip-rule="evenodd" d="M40.075 52.504C40.1454 52.4973 40.2077 52.551 40.2142 52.6239L40.6987 58.0634C40.7052 58.1363 40.6534 58.2009 40.583 58.2077C40.5126 58.2144 40.4503 58.1607 40.4438 58.0878L39.9593 52.6483C39.9528 52.5754 40.0046 52.5108 40.075 52.504Z" fill="black"/>
<path fill-rule="evenodd" clip-rule="evenodd" d="M39.4348 52.6369C39.5052 52.6302 39.5676 52.6838 39.5741 52.7568L40.0586 58.1962C40.0651 58.2692 40.0133 58.3338 39.9429 58.3405C39.8725 58.3473 39.8101 58.2936 39.8036 58.2206L39.3192 52.7812C39.3127 52.7082 39.3644 52.6436 39.4348 52.6369Z" fill="black"/>
<defs>
<linearGradient id="paint0_linear_215_7157" x1="43.8164" y1="65.0922" x2="43.8164" y2="27.5705" gradientUnits="userSpaceOnUse">
<stop stop-color="#006644"/>
<stop offset="1" stop-color="#36B27E"/>
</linearGradient>
<linearGradient id="paint1_linear_215_7157" x1="79.7289" y1="65.0922" x2="79.7289" y2="26.7453" gradientUnits="userSpaceOnUse">
<stop stop-color="#006644"/>
<stop offset="1" stop-color="#36B27E"/>
</linearGradient>
</defs>
</svg>
