<?xml version="1.0" encoding="UTF-8"?>
<svg width="12" height="12" viewBox="0 0 12 12" fill="none" xmlns="http://www.w3.org/2000/svg">
<path d="M2.7167 12C2.3317 12 2.00212 11.8629 1.72795 11.5888C1.45378 11.3146 1.3167 10.985 1.3167 10.6V2.1C1.12781 2.1 0.963921 2.03056 0.825033 1.89167C0.686144 1.75278 0.616699 1.58889 0.616699 1.4C0.616699 1.21111 0.686144 1.04722 0.825033 0.908333C0.963921 0.769445 1.12888 0.7 1.3199 0.7H4.0167C4.0167 0.511111 4.08614 0.347222 4.22503 0.208333C4.36392 0.0694445 4.52781 0 4.7167 0H7.2667C7.45559 0 7.61948 0.0694445 7.75837 0.208333C7.89726 0.347222 7.9667 0.511111 7.9667 0.7H10.6635C10.8545 0.7 11.0195 0.769445 11.1584 0.908333C11.2973 1.04722 11.3667 1.21111 11.3667 1.4C11.3667 1.58889 11.2973 1.75278 11.1584 1.89167C11.0195 2.03056 10.8556 2.1 10.6667 2.1V10.6C10.6667 10.985 10.5296 11.3146 10.2555 11.5888C9.98128 11.8629 9.6517 12 9.2667 12H2.7167ZM2.7167 2.1V10.6H9.2667V2.1H2.7167ZM3.9667 8.5C3.9667 8.68889 4.03614 8.85278 4.17503 8.99167C4.31392 9.13056 4.47781 9.2 4.6667 9.2C4.85559 9.2 5.01948 9.13056 5.15837 8.99167C5.29726 8.85278 5.3667 8.68889 5.3667 8.5V4.2C5.3667 4.01111 5.29726 3.84722 5.15837 3.70833C5.01948 3.56944 4.85559 3.5 4.6667 3.5C4.47781 3.5 4.31392 3.56944 4.17503 3.70833C4.03614 3.84722 3.9667 4.01111 3.9667 4.2V8.5ZM6.6167 8.5C6.6167 8.68889 6.68614 8.85278 6.82503 8.99167C6.96392 9.13056 7.12781 9.2 7.3167 9.2C7.50559 9.2 7.66948 9.13056 7.80837 8.99167C7.94726 8.85278 8.0167 8.68889 8.0167 8.5V4.2C8.0167 4.01111 7.94726 3.84722 7.80837 3.70833C7.66948 3.56944 7.50559 3.5 7.3167 3.5C7.12781 3.5 6.96392 3.56944 6.82503 3.70833C6.68614 3.84722 6.6167 4.01111 6.6167 4.2V8.5Z" fill="#1D65F2"/>
</svg>
