<?xml version="1.0" encoding="UTF-8"?>
<svg width="24px" height="20px" viewBox="0 0 24 20" version="1.1" xmlns="http://www.w3.org/2000/svg" xmlns:xlink="http://www.w3.org/1999/xlink">
    <!-- Generator: Sketch 62 (91390) - https://sketch.com -->
    <title>standard/action/edit</title>
    <desc>Created with Sketch.</desc>
    <defs>
        <path d="M22.2,2.390625 L10.2,2.390625 C9.205875,2.390625 8.4,3.19728699 8.4,4.19238281 L8.4,5.99414062 L6.745575,5.99414062 C6.26818627,5.99414312 5.81035106,6.18397227 5.4727875,6.52186798 L1.7272125,10.2711008 C1.38964645,10.608994 1.2000025,11.0672763 1.2,11.5451312 L1.2,15.6035156 L0.9,15.6035156 C0.4029375,15.6035156 0,16.0068466 0,16.5043945 L0,17.1049805 C0,17.6025284 0.4029375,18.0058594 0.9,18.0058594 L2.4,18.0058594 C2.4,19.9960135 4.0117875,21.609375 6,21.609375 C7.9882125,21.609375 9.6,19.9960135 9.6,18.0058594 L14.4,18.0058594 C14.4,19.9960135 16.0117875,21.609375 18,21.609375 C19.9882125,21.609375 21.6,19.9960135 21.6,18.0058594 L23.1,18.0058594 C23.5970625,18.0058594 24,17.6025284 24,17.1049805 L24,4.19238281 C24,3.19728699 23.194125,2.390625 22.2,2.390625 Z M6,19.8076172 C5.0074875,19.8076172 4.2,18.9993411 4.2,18.0058594 C4.2,17.0123776 5.0074875,16.2041016 6,16.2041016 C6.9925125,16.2041016 7.8,17.0123776 7.8,18.0058594 C7.8,18.9993411 6.9925125,19.8076172 6,19.8076172 Z M8.4,12 L3,12 L3,11.5451312 L6.745575,7.79589844 L8.4,7.79589844 L8.4,12 Z M18,19.8076172 C17.0074875,19.8076172 16.2,18.9993411 16.2,18.0058594 C16.2,17.0123776 17.0074875,16.2041016 18,16.2041016 C18.9925125,16.2041016 19.8,17.0123776 19.8,18.0058594 C19.8,18.9993411 18.9925125,19.8076172 18,19.8076172 Z" id="path-1"></path>
        <linearGradient x1="0%" y1="0%" x2="100%" y2="100%" id="linearGradient-3">
            <stop stop-color="#FEB692" offset="0%"></stop>
            <stop stop-color="#EA5455" offset="100%"></stop>
        </linearGradient>
    </defs>
    <g id="Symbols" stroke="none" stroke-width="1" fill="none" fill-rule="evenodd">
        <g id="LDT" transform="translate(-48.000000, -2.000000)">
            <g id="Solid/truck" transform="translate(60.000000, 12.000000) scale(-1, 1) translate(-60.000000, -12.000000) translate(48.000000, 0.000000)">
                <mask id="mask-2" fill="white">
                    <use xlink:href="#path-1"></use>
                </mask>
                <use id="Mask" fill="#000000" fill-rule="nonzero" xlink:href="#path-1"></use>
                <g id="Color/Purple" mask="url(#mask-2)" fill="url(#linearGradient-3)" fill-rule="evenodd">
                    <rect id="Purple" x="0" y="0" width="24" height="24"></rect>
                </g>
            </g>
        </g>
    </g>
</svg>