<?xml version="1.0" encoding="UTF-8"?>
<svg width="26" height="24" viewBox="0 0 26 24" fill="none" xmlns="http://www.w3.org/2000/svg">
<path fill-rule="evenodd" clip-rule="evenodd" d="M11.9986 9.30309L7.11862 13.896C6.70786 14.2826 6.70786 14.9094 7.11862 15.296C7.52938 15.6826 8.19536 15.6826 8.60612 15.296L12.7499 11.396L16.8936 15.296C17.3044 15.6826 17.9704 15.6826 18.3811 15.296C18.7919 14.9094 18.7919 14.2826 18.3811 13.896L13.5012 9.30309C13.0862 8.91257 12.4135 8.91257 11.9986 9.30309Z" fill="white"/>
<mask id="mask0_1821_245" style="mask-type:alpha" maskUnits="userSpaceOnUse" x="6" y="9" width="13" height="7">
<path fill-rule="evenodd" clip-rule="evenodd" d="M11.9986 9.30309L7.11862 13.896C6.70786 14.2826 6.70786 14.9094 7.11862 15.296C7.52938 15.6826 8.19536 15.6826 8.60612 15.296L12.7499 11.396L16.8936 15.296C17.3044 15.6826 17.9704 15.6826 18.3811 15.296C18.7919 14.9094 18.7919 14.2826 18.3811 13.896L13.5012 9.30309C13.0862 8.91257 12.4135 8.91257 11.9986 9.30309Z" fill="white"/>
</mask>
<g mask="url(#mask0_1821_245)">
<path fill-rule="evenodd" clip-rule="evenodd" d="M0 0H25.5V24H0V0Z" fill="#42526E"/>
</g>
</svg>
