<?xml version="1.0" encoding="UTF-8"?>
<svg width="400" height="72" viewBox="0 0 400 72" fill="none" xmlns="http://www.w3.org/2000/svg">
<rect x="0.5" y="0.5" width="399" height="71" rx="2.5" fill="white"/>
<path d="M157.296 20.0469H158.608V26.7803C158.608 27.5277 158.442 28.1497 158.109 28.6465C157.777 29.1432 157.335 29.5169 156.783 29.7676C156.236 30.0137 155.642 30.1367 154.999 30.1367C154.325 30.1367 153.714 30.0137 153.167 29.7676C152.625 29.5169 152.194 29.1432 151.875 28.6465C151.561 28.1497 151.403 27.5277 151.403 26.7803V20.0469H152.709V26.7803C152.709 27.2998 152.805 27.7282 152.996 28.0654C153.188 28.4027 153.454 28.6533 153.796 28.8174C154.142 28.9814 154.543 29.0635 154.999 29.0635C155.459 29.0635 155.86 28.9814 156.202 28.8174C156.549 28.6533 156.817 28.4027 157.009 28.0654C157.2 27.7282 157.296 27.2998 157.296 26.7803V20.0469ZM161.753 24.0254V32.8438H160.481V22.6035H161.644L161.753 24.0254ZM166.736 26.2402V26.3838C166.736 26.9215 166.673 27.4206 166.545 27.8809C166.417 28.3366 166.23 28.7331 165.984 29.0703C165.743 29.4076 165.444 29.6696 165.089 29.8564C164.733 30.0433 164.326 30.1367 163.865 30.1367C163.396 30.1367 162.981 30.0592 162.621 29.9043C162.261 29.7493 161.956 29.5238 161.705 29.2275C161.454 28.9313 161.254 28.5758 161.104 28.1611C160.958 27.7464 160.857 27.2793 160.803 26.7598V25.9941C160.857 25.4473 160.96 24.9574 161.11 24.5244C161.261 24.0915 161.459 23.7223 161.705 23.417C161.956 23.1071 162.259 22.8724 162.614 22.7129C162.97 22.5488 163.38 22.4668 163.845 22.4668C164.31 22.4668 164.722 22.5579 165.082 22.7402C165.442 22.918 165.745 23.1732 165.991 23.5059C166.237 23.8385 166.422 24.2373 166.545 24.7021C166.673 25.1624 166.736 25.6751 166.736 26.2402ZM165.465 26.3838V26.2402C165.465 25.8711 165.426 25.5247 165.349 25.2012C165.271 24.873 165.15 24.5859 164.986 24.3398C164.827 24.0892 164.622 23.8932 164.371 23.752C164.12 23.6061 163.822 23.5332 163.476 23.5332C163.157 23.5332 162.879 23.5879 162.642 23.6973C162.409 23.8066 162.211 23.9548 162.047 24.1416C161.883 24.3239 161.748 24.5335 161.644 24.7705C161.543 25.0029 161.468 25.2445 161.418 25.4951V27.2656C161.509 27.5846 161.637 27.8854 161.801 28.168C161.965 28.446 162.184 28.6715 162.457 28.8447C162.73 29.0133 163.075 29.0977 163.489 29.0977C163.831 29.0977 164.125 29.027 164.371 28.8857C164.622 28.7399 164.827 28.5417 164.986 28.291C165.15 28.0404 165.271 27.7533 165.349 27.4297C165.426 27.1016 165.465 26.7529 165.465 26.3838ZM169.724 19.5V30H168.452V19.5H169.724ZM171.419 26.3838V26.2266C171.419 25.6934 171.496 25.1989 171.651 24.7432C171.806 24.2829 172.03 23.8841 172.321 23.5469C172.613 23.2051 172.966 22.9408 173.381 22.7539C173.796 22.5625 174.26 22.4668 174.775 22.4668C175.295 22.4668 175.762 22.5625 176.177 22.7539C176.596 22.9408 176.951 23.2051 177.243 23.5469C177.539 23.8841 177.765 24.2829 177.92 24.7432C178.075 25.1989 178.152 25.6934 178.152 26.2266V26.3838C178.152 26.917 178.075 27.4115 177.92 27.8672C177.765 28.3229 177.539 28.7217 177.243 29.0635C176.951 29.4007 176.598 29.665 176.184 29.8564C175.773 30.0433 175.309 30.1367 174.789 30.1367C174.27 30.1367 173.802 30.0433 173.388 29.8564C172.973 29.665 172.618 29.4007 172.321 29.0635C172.03 28.7217 171.806 28.3229 171.651 27.8672C171.496 27.4115 171.419 26.917 171.419 26.3838ZM172.684 26.2266V26.3838C172.684 26.7529 172.727 27.1016 172.813 27.4297C172.9 27.7533 173.03 28.0404 173.203 28.291C173.381 28.5417 173.602 28.7399 173.866 28.8857C174.131 29.027 174.438 29.0977 174.789 29.0977C175.135 29.0977 175.438 29.027 175.698 28.8857C175.963 28.7399 176.181 28.5417 176.354 28.291C176.528 28.0404 176.658 27.7533 176.744 27.4297C176.835 27.1016 176.881 26.7529 176.881 26.3838V26.2266C176.881 25.862 176.835 25.5179 176.744 25.1943C176.658 24.8662 176.525 24.5768 176.348 24.3262C176.174 24.071 175.956 23.8704 175.691 23.7246C175.432 23.5788 175.126 23.5059 174.775 23.5059C174.429 23.5059 174.124 23.5788 173.859 23.7246C173.6 23.8704 173.381 24.071 173.203 24.3262C173.03 24.5768 172.9 24.8662 172.813 25.1943C172.727 25.5179 172.684 25.862 172.684 26.2266ZM184.1 28.7354V24.9277C184.1 24.6361 184.04 24.3831 183.922 24.1689C183.808 23.9502 183.635 23.7816 183.402 23.6631C183.17 23.5446 182.883 23.4854 182.541 23.4854C182.222 23.4854 181.942 23.54 181.7 23.6494C181.463 23.7588 181.276 23.9023 181.14 24.0801C181.007 24.2578 180.941 24.4492 180.941 24.6543H179.677C179.677 24.39 179.745 24.1279 179.882 23.8682C180.019 23.6084 180.215 23.3737 180.47 23.1641C180.729 22.9499 181.039 22.7812 181.399 22.6582C181.764 22.5306 182.17 22.4668 182.616 22.4668C183.154 22.4668 183.628 22.5579 184.038 22.7402C184.453 22.9225 184.776 23.1982 185.009 23.5674C185.246 23.932 185.364 24.39 185.364 24.9414V28.3867C185.364 28.6328 185.385 28.8949 185.426 29.1729C185.471 29.4508 185.537 29.6901 185.624 29.8906V30H184.305C184.241 29.8542 184.191 29.6605 184.154 29.4189C184.118 29.1729 184.1 28.945 184.1 28.7354ZM184.318 25.5156L184.332 26.4043H183.054C182.694 26.4043 182.372 26.4339 182.09 26.4932C181.807 26.5479 181.57 26.6322 181.379 26.7461C181.188 26.86 181.042 27.0036 180.941 27.1768C180.841 27.3454 180.791 27.5436 180.791 27.7715C180.791 28.0039 180.843 28.2158 180.948 28.4072C181.053 28.5986 181.21 28.7513 181.42 28.8652C181.634 28.9746 181.896 29.0293 182.206 29.0293C182.593 29.0293 182.935 28.9473 183.231 28.7832C183.528 28.6191 183.762 28.4186 183.936 28.1816C184.113 27.9447 184.209 27.7145 184.223 27.4912L184.763 28.0996C184.731 28.291 184.644 28.5029 184.503 28.7354C184.362 28.9678 184.173 29.1911 183.936 29.4053C183.703 29.6149 183.425 29.7904 183.102 29.9316C182.783 30.0684 182.423 30.1367 182.021 30.1367C181.52 30.1367 181.08 30.0387 180.702 29.8428C180.328 29.6468 180.037 29.3848 179.827 29.0566C179.622 28.724 179.52 28.3525 179.52 27.9424C179.52 27.5459 179.597 27.1973 179.752 26.8965C179.907 26.5911 180.13 26.3382 180.422 26.1377C180.714 25.9326 181.064 25.7777 181.475 25.6729C181.885 25.568 182.343 25.5156 182.849 25.5156H184.318ZM192.016 28.5645V19.5H193.287V30H192.125L192.016 28.5645ZM187.039 26.3838V26.2402C187.039 25.6751 187.107 25.1624 187.244 24.7021C187.385 24.2373 187.584 23.8385 187.839 23.5059C188.099 23.1732 188.406 22.918 188.762 22.7402C189.122 22.5579 189.523 22.4668 189.965 22.4668C190.43 22.4668 190.835 22.5488 191.182 22.7129C191.533 22.8724 191.829 23.1071 192.07 23.417C192.316 23.7223 192.51 24.0915 192.651 24.5244C192.793 24.9574 192.891 25.4473 192.945 25.9941V26.623C192.895 27.1654 192.797 27.653 192.651 28.0859C192.51 28.5189 192.316 28.888 192.07 29.1934C191.829 29.4987 191.533 29.7334 191.182 29.8975C190.831 30.057 190.421 30.1367 189.951 30.1367C189.518 30.1367 189.122 30.0433 188.762 29.8564C188.406 29.6696 188.099 29.4076 187.839 29.0703C187.584 28.7331 187.385 28.3366 187.244 27.8809C187.107 27.4206 187.039 26.9215 187.039 26.3838ZM188.311 26.2402V26.3838C188.311 26.7529 188.347 27.0993 188.42 27.4229C188.497 27.7464 188.616 28.0312 188.775 28.2773C188.935 28.5234 189.138 28.7171 189.384 28.8584C189.63 28.9951 189.924 29.0635 190.266 29.0635C190.685 29.0635 191.029 28.9746 191.298 28.7969C191.571 28.6191 191.79 28.3844 191.954 28.0928C192.118 27.8011 192.246 27.4844 192.337 27.1426V25.4951C192.282 25.2445 192.202 25.0029 192.098 24.7705C191.997 24.5335 191.865 24.3239 191.701 24.1416C191.542 23.9548 191.343 23.8066 191.106 23.6973C190.874 23.5879 190.598 23.5332 190.279 23.5332C189.933 23.5332 189.634 23.6061 189.384 23.752C189.138 23.8932 188.935 24.0892 188.775 24.3398C188.616 24.5859 188.497 24.873 188.42 25.2012C188.347 25.5247 188.311 25.8711 188.311 26.2402ZM204.929 26.835H206.241C206.173 27.4639 205.993 28.0267 205.701 28.5234C205.41 29.0202 204.997 29.4144 204.464 29.7061C203.931 29.9932 203.265 30.1367 202.468 30.1367C201.884 30.1367 201.354 30.0273 200.875 29.8086C200.401 29.5898 199.993 29.2799 199.651 28.8789C199.31 28.4733 199.045 27.988 198.858 27.4229C198.676 26.8532 198.585 26.2197 198.585 25.5225V24.5312C198.585 23.834 198.676 23.2028 198.858 22.6377C199.045 22.068 199.312 21.5804 199.658 21.1748C200.009 20.7692 200.431 20.457 200.923 20.2383C201.415 20.0195 201.969 19.9102 202.584 19.9102C203.336 19.9102 203.972 20.0514 204.491 20.334C205.011 20.6165 205.414 21.0085 205.701 21.5098C205.993 22.0065 206.173 22.583 206.241 23.2393H204.929C204.865 22.7744 204.746 22.3757 204.573 22.043C204.4 21.7057 204.154 21.446 203.835 21.2637C203.516 21.0814 203.099 20.9902 202.584 20.9902C202.142 20.9902 201.752 21.0745 201.415 21.2432C201.082 21.4118 200.802 21.651 200.574 21.9609C200.351 22.2708 200.182 22.6423 200.068 23.0752C199.954 23.5081 199.897 23.9889 199.897 24.5176V25.5225C199.897 26.0101 199.948 26.4681 200.048 26.8965C200.153 27.3249 200.31 27.7008 200.52 28.0244C200.729 28.348 200.996 28.6032 201.319 28.79C201.643 28.9723 202.026 29.0635 202.468 29.0635C203.028 29.0635 203.475 28.9746 203.808 28.7969C204.14 28.6191 204.391 28.3639 204.56 28.0312C204.733 27.6986 204.856 27.2998 204.929 26.835ZM213.344 27.4844C213.344 27.252 213.307 27.0469 213.234 26.8691C213.166 26.6868 213.043 26.5228 212.865 26.377C212.692 26.2311 212.451 26.0921 212.141 25.96C211.835 25.8278 211.448 25.6934 210.979 25.5566C210.486 25.4108 210.042 25.249 209.646 25.0713C209.249 24.889 208.91 24.6816 208.627 24.4492C208.344 24.2168 208.128 23.9502 207.978 23.6494C207.827 23.3486 207.752 23.0046 207.752 22.6172C207.752 22.2298 207.832 21.8721 207.991 21.5439C208.151 21.2158 208.379 20.931 208.675 20.6895C208.976 20.4434 209.333 20.252 209.748 20.1152C210.163 19.9785 210.625 19.9102 211.136 19.9102C211.883 19.9102 212.517 20.0537 213.036 20.3408C213.56 20.6234 213.959 20.9948 214.232 21.4551C214.506 21.9108 214.643 22.3984 214.643 22.918H213.33C213.33 22.5443 213.25 22.2139 213.091 21.9268C212.931 21.6351 212.69 21.4072 212.366 21.2432C212.043 21.0745 211.632 20.9902 211.136 20.9902C210.666 20.9902 210.279 21.0609 209.974 21.2021C209.668 21.3434 209.44 21.5348 209.29 21.7764C209.144 22.0179 209.071 22.2936 209.071 22.6035C209.071 22.8132 209.115 23.0046 209.201 23.1777C209.292 23.3464 209.431 23.5036 209.618 23.6494C209.81 23.7952 210.051 23.9297 210.343 24.0527C210.639 24.1758 210.992 24.2943 211.402 24.4082C211.967 24.5677 212.455 24.7454 212.865 24.9414C213.275 25.1374 213.613 25.3584 213.877 25.6045C214.146 25.846 214.344 26.1217 214.472 26.4316C214.604 26.737 214.67 27.0833 214.67 27.4707C214.67 27.8763 214.588 28.2432 214.424 28.5713C214.26 28.8994 214.025 29.1797 213.72 29.4121C213.414 29.6445 213.048 29.8245 212.619 29.9521C212.195 30.0752 211.721 30.1367 211.197 30.1367C210.737 30.1367 210.284 30.0729 209.837 29.9453C209.395 29.8177 208.992 29.6263 208.627 29.3711C208.267 29.1159 207.978 28.8014 207.759 28.4277C207.545 28.0495 207.438 27.612 207.438 27.1152H208.75C208.75 27.457 208.816 27.751 208.948 27.9971C209.08 28.2386 209.26 28.4391 209.488 28.5986C209.721 28.7581 209.983 28.8766 210.274 28.9541C210.571 29.027 210.878 29.0635 211.197 29.0635C211.658 29.0635 212.047 28.9997 212.366 28.8721C212.685 28.7445 212.927 28.5622 213.091 28.3252C213.259 28.0882 213.344 27.8079 213.344 27.4844ZM219.564 28.4893L222.497 20.0469H223.926L220.241 30H219.223L219.564 28.4893ZM216.823 20.0469L219.729 28.4893L220.091 30H219.072L215.395 20.0469H216.823ZM230.058 20.0469V30H228.738V20.0469H230.058ZM234.228 24.5244V25.6045H229.771V24.5244H234.228ZM234.904 20.0469V21.127H229.771V20.0469H234.904ZM237.659 22.6035V30H236.388V22.6035H237.659ZM236.292 20.6416C236.292 20.4365 236.354 20.2633 236.477 20.1221C236.604 19.9808 236.791 19.9102 237.037 19.9102C237.279 19.9102 237.463 19.9808 237.591 20.1221C237.723 20.2633 237.789 20.4365 237.789 20.6416C237.789 20.8376 237.723 21.0062 237.591 21.1475C237.463 21.2842 237.279 21.3525 237.037 21.3525C236.791 21.3525 236.604 21.2842 236.477 21.1475C236.354 21.0062 236.292 20.8376 236.292 20.6416ZM241.063 19.5V30H239.792V19.5H241.063ZM246.163 30.1367C245.648 30.1367 245.181 30.0501 244.762 29.877C244.347 29.6992 243.989 29.4508 243.688 29.1318C243.392 28.8128 243.164 28.4346 243.005 27.9971C242.845 27.5596 242.766 27.0811 242.766 26.5615V26.2744C242.766 25.6729 242.854 25.1374 243.032 24.668C243.21 24.194 243.451 23.793 243.757 23.4648C244.062 23.1367 244.409 22.8883 244.796 22.7197C245.183 22.5511 245.584 22.4668 245.999 22.4668C246.528 22.4668 246.983 22.5579 247.366 22.7402C247.754 22.9225 248.07 23.1777 248.316 23.5059C248.562 23.8294 248.745 24.2122 248.863 24.6543C248.982 25.0918 249.041 25.5703 249.041 26.0898V26.6572H243.518V25.625H247.776V25.5293C247.758 25.2012 247.69 24.8822 247.571 24.5723C247.457 24.2624 247.275 24.0072 247.024 23.8066C246.774 23.6061 246.432 23.5059 245.999 23.5059C245.712 23.5059 245.448 23.5674 245.206 23.6904C244.965 23.8089 244.757 23.9867 244.584 24.2236C244.411 24.4606 244.276 24.75 244.181 25.0918C244.085 25.4336 244.037 25.8278 244.037 26.2744V26.5615C244.037 26.9124 244.085 27.2428 244.181 27.5527C244.281 27.8581 244.424 28.127 244.611 28.3594C244.803 28.5918 245.033 28.7741 245.302 28.9062C245.575 29.0384 245.885 29.1045 246.231 29.1045C246.678 29.1045 247.056 29.0133 247.366 28.8311C247.676 28.6488 247.947 28.4049 248.18 28.0996L248.945 28.708C248.786 28.9495 248.583 29.1797 248.337 29.3984C248.091 29.6172 247.788 29.7949 247.428 29.9316C247.072 30.0684 246.651 30.1367 246.163 30.1367Z" fill="#5F6D84"/>
<path d="M133.821 41.0469H135.1L138.36 49.1611L141.614 41.0469H142.899L138.853 51H137.854L133.821 41.0469ZM133.404 41.0469H134.532L134.717 47.1172V51H133.404V41.0469ZM142.182 41.0469H143.31V51H141.997V47.1172L142.182 41.0469ZM149.797 49.7354V45.9277C149.797 45.6361 149.738 45.3831 149.619 45.1689C149.505 44.9502 149.332 44.7816 149.1 44.6631C148.867 44.5446 148.58 44.4854 148.238 44.4854C147.919 44.4854 147.639 44.54 147.397 44.6494C147.16 44.7588 146.974 44.9023 146.837 45.0801C146.705 45.2578 146.639 45.4492 146.639 45.6543H145.374C145.374 45.39 145.442 45.1279 145.579 44.8682C145.716 44.6084 145.912 44.3737 146.167 44.1641C146.427 43.9499 146.737 43.7812 147.097 43.6582C147.461 43.5306 147.867 43.4668 148.313 43.4668C148.851 43.4668 149.325 43.5579 149.735 43.7402C150.15 43.9225 150.474 44.1982 150.706 44.5674C150.943 44.932 151.062 45.39 151.062 45.9414V49.3867C151.062 49.6328 151.082 49.8949 151.123 50.1729C151.169 50.4508 151.235 50.6901 151.321 50.8906V51H150.002C149.938 50.8542 149.888 50.6605 149.852 50.4189C149.815 50.1729 149.797 49.945 149.797 49.7354ZM150.016 46.5156L150.029 47.4043H148.751C148.391 47.4043 148.07 47.4339 147.787 47.4932C147.505 47.5479 147.268 47.6322 147.076 47.7461C146.885 47.86 146.739 48.0036 146.639 48.1768C146.538 48.3454 146.488 48.5436 146.488 48.7715C146.488 49.0039 146.541 49.2158 146.646 49.4072C146.75 49.5986 146.908 49.7513 147.117 49.8652C147.331 49.9746 147.593 50.0293 147.903 50.0293C148.291 50.0293 148.632 49.9473 148.929 49.7832C149.225 49.6191 149.46 49.4186 149.633 49.1816C149.811 48.9447 149.906 48.7145 149.92 48.4912L150.46 49.0996C150.428 49.291 150.341 49.5029 150.2 49.7354C150.059 49.9678 149.87 50.1911 149.633 50.4053C149.4 50.6149 149.122 50.7904 148.799 50.9316C148.48 51.0684 148.12 51.1367 147.719 51.1367C147.217 51.1367 146.778 51.0387 146.399 50.8428C146.026 50.6468 145.734 50.3848 145.524 50.0566C145.319 49.724 145.217 49.3525 145.217 48.9424C145.217 48.5459 145.294 48.1973 145.449 47.8965C145.604 47.5911 145.827 47.3382 146.119 47.1377C146.411 46.9326 146.762 46.7777 147.172 46.6729C147.582 46.568 148.04 46.5156 148.546 46.5156H150.016ZM153.905 43.6035L155.525 46.2969L157.166 43.6035H158.649L156.229 47.2539L158.725 51H157.262L155.553 48.2246L153.844 51H152.374L154.862 47.2539L152.449 43.6035H153.905ZM161.37 43.6035V51H160.099V43.6035H161.37ZM160.003 41.6416C160.003 41.4365 160.064 41.2633 160.188 41.1221C160.315 40.9808 160.502 40.9102 160.748 40.9102C160.99 40.9102 161.174 40.9808 161.302 41.1221C161.434 41.2633 161.5 41.4365 161.5 41.6416C161.5 41.8376 161.434 42.0062 161.302 42.1475C161.174 42.2842 160.99 42.3525 160.748 42.3525C160.502 42.3525 160.315 42.2842 160.188 42.1475C160.064 42.0062 160.003 41.8376 160.003 41.6416ZM164.658 45.0732V51H163.387V43.6035H164.59L164.658 45.0732ZM164.398 47.0215L163.811 47.001C163.815 46.4951 163.881 46.028 164.009 45.5996C164.136 45.1667 164.326 44.7907 164.576 44.4717C164.827 44.1527 165.139 43.9066 165.513 43.7334C165.886 43.5557 166.319 43.4668 166.812 43.4668C167.158 43.4668 167.477 43.5169 167.769 43.6172C168.06 43.7129 168.313 43.8656 168.527 44.0752C168.742 44.2848 168.908 44.5537 169.026 44.8818C169.145 45.21 169.204 45.6064 169.204 46.0713V51H167.939V46.1328C167.939 45.7454 167.873 45.4355 167.741 45.2031C167.614 44.9707 167.431 44.8021 167.194 44.6973C166.957 44.5879 166.679 44.5332 166.36 44.5332C165.987 44.5332 165.674 44.5993 165.424 44.7314C165.173 44.8636 164.973 45.0459 164.822 45.2783C164.672 45.5107 164.562 45.7773 164.494 46.0781C164.43 46.3743 164.398 46.6888 164.398 47.0215ZM169.19 46.3242L168.343 46.584C168.347 46.1784 168.413 45.7887 168.541 45.415C168.673 45.0413 168.862 44.7087 169.108 44.417C169.359 44.1253 169.667 43.8952 170.031 43.7266C170.396 43.5534 170.813 43.4668 171.282 43.4668C171.679 43.4668 172.03 43.5192 172.335 43.624C172.645 43.7288 172.905 43.8906 173.114 44.1094C173.328 44.3236 173.49 44.5993 173.6 44.9365C173.709 45.2738 173.764 45.6748 173.764 46.1396V51H172.492V46.126C172.492 45.7113 172.426 45.39 172.294 45.1621C172.166 44.9297 171.984 44.7679 171.747 44.6768C171.515 44.5811 171.237 44.5332 170.913 44.5332C170.635 44.5332 170.389 44.5811 170.175 44.6768C169.961 44.7725 169.781 44.9046 169.635 45.0732C169.489 45.2373 169.377 45.4264 169.3 45.6406C169.227 45.8548 169.19 46.0827 169.19 46.3242ZM180.203 49.291V43.6035H181.475V51H180.265L180.203 49.291ZM180.442 47.7324L180.969 47.7188C180.969 48.2109 180.916 48.6667 180.812 49.0859C180.711 49.5007 180.547 49.8607 180.319 50.166C180.091 50.4714 179.793 50.7106 179.424 50.8838C179.055 51.0524 178.606 51.1367 178.077 51.1367C177.717 51.1367 177.387 51.0843 177.086 50.9795C176.79 50.8747 176.535 50.7129 176.32 50.4941C176.106 50.2754 175.94 49.9906 175.821 49.6396C175.707 49.2887 175.65 48.8672 175.65 48.375V43.6035H176.915V48.3887C176.915 48.7214 176.951 48.9971 177.024 49.2158C177.102 49.43 177.204 49.6009 177.332 49.7285C177.464 49.8516 177.61 49.9382 177.77 49.9883C177.934 50.0384 178.102 50.0635 178.275 50.0635C178.813 50.0635 179.239 49.9609 179.554 49.7559C179.868 49.5462 180.094 49.266 180.23 48.915C180.372 48.5596 180.442 48.1654 180.442 47.7324ZM184.66 45.0732V51H183.389V43.6035H184.592L184.66 45.0732ZM184.4 47.0215L183.812 47.001C183.817 46.4951 183.883 46.028 184.011 45.5996C184.138 45.1667 184.327 44.7907 184.578 44.4717C184.829 44.1527 185.141 43.9066 185.515 43.7334C185.888 43.5557 186.321 43.4668 186.813 43.4668C187.16 43.4668 187.479 43.5169 187.771 43.6172C188.062 43.7129 188.315 43.8656 188.529 44.0752C188.743 44.2848 188.91 44.5537 189.028 44.8818C189.147 45.21 189.206 45.6064 189.206 46.0713V51H187.941V46.1328C187.941 45.7454 187.875 45.4355 187.743 45.2031C187.616 44.9707 187.433 44.8021 187.196 44.6973C186.959 44.5879 186.681 44.5332 186.362 44.5332C185.989 44.5332 185.676 44.5993 185.426 44.7314C185.175 44.8636 184.975 45.0459 184.824 45.2783C184.674 45.5107 184.564 45.7773 184.496 46.0781C184.432 46.3743 184.4 46.6888 184.4 47.0215ZM189.192 46.3242L188.345 46.584C188.349 46.1784 188.415 45.7887 188.543 45.415C188.675 45.0413 188.864 44.7087 189.11 44.417C189.361 44.1253 189.669 43.8952 190.033 43.7266C190.398 43.5534 190.815 43.4668 191.284 43.4668C191.681 43.4668 192.032 43.5192 192.337 43.624C192.647 43.7288 192.907 43.8906 193.116 44.1094C193.33 44.3236 193.492 44.5993 193.602 44.9365C193.711 45.2738 193.766 45.6748 193.766 46.1396V51H192.494V46.126C192.494 45.7113 192.428 45.39 192.296 45.1621C192.168 44.9297 191.986 44.7679 191.749 44.6768C191.517 44.5811 191.239 44.5332 190.915 44.5332C190.637 44.5332 190.391 44.5811 190.177 44.6768C189.963 44.7725 189.783 44.9046 189.637 45.0732C189.491 45.2373 189.379 45.4264 189.302 45.6406C189.229 45.8548 189.192 46.0827 189.192 46.3242ZM205.38 49.9268V51H200.403V49.9268H205.38ZM200.663 41.0469V51H199.344V41.0469H200.663ZM208.073 43.6035V51H206.802V43.6035H208.073ZM206.706 41.6416C206.706 41.4365 206.768 41.2633 206.891 41.1221C207.018 40.9808 207.205 40.9102 207.451 40.9102C207.693 40.9102 207.877 40.9808 208.005 41.1221C208.137 41.2633 208.203 41.4365 208.203 41.6416C208.203 41.8376 208.137 42.0062 208.005 42.1475C207.877 42.2842 207.693 42.3525 207.451 42.3525C207.205 42.3525 207.018 42.2842 206.891 42.1475C206.768 42.0062 206.706 41.8376 206.706 41.6416ZM211.361 45.0732V51H210.09V43.6035H211.293L211.361 45.0732ZM211.102 47.0215L210.514 47.001C210.518 46.4951 210.584 46.028 210.712 45.5996C210.84 45.1667 211.029 44.7907 211.279 44.4717C211.53 44.1527 211.842 43.9066 212.216 43.7334C212.59 43.5557 213.022 43.4668 213.515 43.4668C213.861 43.4668 214.18 43.5169 214.472 43.6172C214.763 43.7129 215.016 43.8656 215.23 44.0752C215.445 44.2848 215.611 44.5537 215.729 44.8818C215.848 45.21 215.907 45.6064 215.907 46.0713V51H214.643V46.1328C214.643 45.7454 214.576 45.4355 214.444 45.2031C214.317 44.9707 214.134 44.8021 213.897 44.6973C213.66 44.5879 213.382 44.5332 213.063 44.5332C212.69 44.5332 212.378 44.5993 212.127 44.7314C211.876 44.8636 211.676 45.0459 211.525 45.2783C211.375 45.5107 211.266 45.7773 211.197 46.0781C211.133 46.3743 211.102 46.6888 211.102 47.0215ZM215.894 46.3242L215.046 46.584C215.05 46.1784 215.117 45.7887 215.244 45.415C215.376 45.0413 215.565 44.7087 215.812 44.417C216.062 44.1253 216.37 43.8952 216.734 43.7266C217.099 43.5534 217.516 43.4668 217.985 43.4668C218.382 43.4668 218.733 43.5192 219.038 43.624C219.348 43.7288 219.608 43.8906 219.817 44.1094C220.032 44.3236 220.193 44.5993 220.303 44.9365C220.412 45.2738 220.467 45.6748 220.467 46.1396V51H219.195V46.126C219.195 45.7113 219.129 45.39 218.997 45.1621C218.869 44.9297 218.687 44.7679 218.45 44.6768C218.218 44.5811 217.94 44.5332 217.616 44.5332C217.338 44.5332 217.092 44.5811 216.878 44.6768C216.664 44.7725 216.484 44.9046 216.338 45.0732C216.192 45.2373 216.08 45.4264 216.003 45.6406C215.93 45.8548 215.894 46.0827 215.894 46.3242ZM223.755 43.6035V51H222.483V43.6035H223.755ZM222.388 41.6416C222.388 41.4365 222.449 41.2633 222.572 41.1221C222.7 40.9808 222.887 40.9102 223.133 40.9102C223.374 40.9102 223.559 40.9808 223.687 41.1221C223.819 41.2633 223.885 41.4365 223.885 41.6416C223.885 41.8376 223.819 42.0062 223.687 42.1475C223.559 42.2842 223.374 42.3525 223.133 42.3525C222.887 42.3525 222.7 42.2842 222.572 42.1475C222.449 42.0062 222.388 41.8376 222.388 41.6416ZM228.882 43.6035V44.5742H224.883V43.6035H228.882ZM226.236 41.8057H227.501V49.168C227.501 49.4186 227.54 49.6077 227.617 49.7354C227.695 49.863 227.795 49.9473 227.918 49.9883C228.041 50.0293 228.173 50.0498 228.314 50.0498C228.419 50.0498 228.529 50.0407 228.643 50.0225C228.761 49.9997 228.85 49.9814 228.909 49.9678L228.916 51C228.816 51.0319 228.684 51.0615 228.52 51.0889C228.36 51.1208 228.166 51.1367 227.938 51.1367C227.629 51.1367 227.344 51.0752 227.084 50.9521C226.824 50.8291 226.617 50.624 226.462 50.3369C226.312 50.0452 226.236 49.6533 226.236 49.1611V41.8057ZM230.311 50.3301C230.311 50.1159 230.377 49.9359 230.509 49.79C230.646 49.6396 230.841 49.5645 231.097 49.5645C231.352 49.5645 231.546 49.6396 231.678 49.79C231.814 49.9359 231.883 50.1159 231.883 50.3301C231.883 50.5397 231.814 50.7174 231.678 50.8633C231.546 51.0091 231.352 51.082 231.097 51.082C230.841 51.082 230.646 51.0091 230.509 50.8633C230.377 50.7174 230.311 50.5397 230.311 50.3301ZM230.317 44.2939C230.317 44.0798 230.383 43.8997 230.516 43.7539C230.652 43.6035 230.848 43.5283 231.104 43.5283C231.359 43.5283 231.552 43.6035 231.685 43.7539C231.821 43.8997 231.89 44.0798 231.89 44.2939C231.89 44.5036 231.821 44.6813 231.685 44.8271C231.552 44.973 231.359 45.0459 231.104 45.0459C230.848 45.0459 230.652 44.973 230.516 44.8271C230.383 44.6813 230.317 44.5036 230.317 44.2939ZM243.613 49.9609V51H237.099V50.0908L240.359 46.4609C240.76 46.0143 241.07 45.6361 241.289 45.3262C241.512 45.0117 241.667 44.7314 241.754 44.4854C241.845 44.2347 241.891 43.9795 241.891 43.7197C241.891 43.3916 241.822 43.0954 241.686 42.8311C241.553 42.5622 241.357 42.348 241.098 42.1885C240.838 42.029 240.523 41.9492 240.154 41.9492C239.712 41.9492 239.343 42.0358 239.047 42.209C238.755 42.3776 238.536 42.6146 238.391 42.9199C238.245 43.2253 238.172 43.5762 238.172 43.9727H236.907C236.907 43.4121 237.03 42.8994 237.276 42.4346C237.522 41.9697 237.887 41.6006 238.37 41.3271C238.853 41.0492 239.448 40.9102 240.154 40.9102C240.783 40.9102 241.321 41.0218 241.768 41.2451C242.214 41.4639 242.556 41.7738 242.793 42.1748C243.035 42.5713 243.155 43.0361 243.155 43.5693C243.155 43.861 243.105 44.1572 243.005 44.458C242.909 44.7542 242.775 45.0505 242.602 45.3467C242.433 45.6429 242.235 45.9346 242.007 46.2217C241.784 46.5088 241.544 46.7913 241.289 47.0693L238.623 49.9609H243.613ZM249.834 45.0732V51H248.562V43.6035H249.766L249.834 45.0732ZM249.574 47.0215L248.986 47.001C248.991 46.4951 249.057 46.028 249.185 45.5996C249.312 45.1667 249.501 44.7907 249.752 44.4717C250.003 44.1527 250.315 43.9066 250.688 43.7334C251.062 43.5557 251.495 43.4668 251.987 43.4668C252.334 43.4668 252.653 43.5169 252.944 43.6172C253.236 43.7129 253.489 43.8656 253.703 44.0752C253.917 44.2848 254.084 44.5537 254.202 44.8818C254.321 45.21 254.38 45.6064 254.38 46.0713V51H253.115V46.1328C253.115 45.7454 253.049 45.4355 252.917 45.2031C252.789 44.9707 252.607 44.8021 252.37 44.6973C252.133 44.5879 251.855 44.5332 251.536 44.5332C251.162 44.5332 250.85 44.5993 250.6 44.7314C250.349 44.8636 250.148 45.0459 249.998 45.2783C249.848 45.5107 249.738 45.7773 249.67 46.0781C249.606 46.3743 249.574 46.6888 249.574 47.0215ZM254.366 46.3242L253.519 46.584C253.523 46.1784 253.589 45.7887 253.717 45.415C253.849 45.0413 254.038 44.7087 254.284 44.417C254.535 44.1253 254.842 43.8952 255.207 43.7266C255.572 43.5534 255.989 43.4668 256.458 43.4668C256.854 43.4668 257.205 43.5192 257.511 43.624C257.821 43.7288 258.08 43.8906 258.29 44.1094C258.504 44.3236 258.666 44.5993 258.775 44.9365C258.885 45.2738 258.939 45.6748 258.939 46.1396V51H257.668V46.126C257.668 45.7113 257.602 45.39 257.47 45.1621C257.342 44.9297 257.16 44.7679 256.923 44.6768C256.69 44.5811 256.412 44.5332 256.089 44.5332C255.811 44.5332 255.565 44.5811 255.351 44.6768C255.136 44.7725 254.956 44.9046 254.811 45.0732C254.665 45.2373 254.553 45.4264 254.476 45.6406C254.403 45.8548 254.366 46.0827 254.366 46.3242ZM260.847 40.5H262.118V49.5645L262.009 51H260.847V40.5ZM267.115 47.2402V47.3838C267.115 47.9215 267.051 48.4206 266.924 48.8809C266.796 49.3366 266.609 49.7331 266.363 50.0703C266.117 50.4076 265.816 50.6696 265.461 50.8564C265.105 51.0433 264.698 51.1367 264.237 51.1367C263.768 51.1367 263.355 51.057 263 50.8975C262.649 50.7334 262.353 50.4987 262.111 50.1934C261.87 49.888 261.676 49.5189 261.53 49.0859C261.389 48.653 261.291 48.1654 261.236 47.623V46.9941C261.291 46.4473 261.389 45.9574 261.53 45.5244C261.676 45.0915 261.87 44.7223 262.111 44.417C262.353 44.1071 262.649 43.8724 263 43.7129C263.351 43.5488 263.759 43.4668 264.224 43.4668C264.688 43.4668 265.101 43.5579 265.461 43.7402C265.821 43.918 266.122 44.1732 266.363 44.5059C266.609 44.8385 266.796 45.2373 266.924 45.7021C267.051 46.1624 267.115 46.6751 267.115 47.2402ZM265.844 47.3838V47.2402C265.844 46.8711 265.81 46.5247 265.741 46.2012C265.673 45.873 265.563 45.5859 265.413 45.3398C265.263 45.0892 265.064 44.8932 264.818 44.752C264.572 44.6061 264.269 44.5332 263.909 44.5332C263.59 44.5332 263.312 44.5879 263.075 44.6973C262.843 44.8066 262.645 44.9548 262.48 45.1416C262.316 45.3239 262.182 45.5335 262.077 45.7705C261.977 46.0029 261.902 46.2445 261.852 46.4951V48.1426C261.924 48.4616 262.043 48.7692 262.207 49.0654C262.376 49.3571 262.599 49.5964 262.877 49.7832C263.16 49.9701 263.508 50.0635 263.923 50.0635C264.265 50.0635 264.556 49.9951 264.798 49.8584C265.044 49.7171 265.242 49.5234 265.393 49.2773C265.548 49.0312 265.661 48.7464 265.734 48.4229C265.807 48.0993 265.844 47.7529 265.844 47.3838Z" fill="#B5BBC6"/>
<rect x="0.5" y="0.5" width="399" height="71" rx="2.5" stroke="#6A778D" stroke-dasharray="6 6"/>
</svg>
