<?xml version="1.0" encoding="UTF-8"?>
<svg width="20" height="20" viewBox="0 0 20 20" fill="none" xmlns="http://www.w3.org/2000/svg">
<g id="warning">
<path id="vector" d="M2.01076 17.6529C1.8427 17.6529 1.69739 17.6133 1.57482 17.534C1.45224 17.4547 1.35811 17.3549 1.29244 17.2344C1.21887 17.1192 1.17919 16.9882 1.1734 16.8413C1.16762 16.6945 1.20731 16.5466 1.29244 16.3975L9.28157 2.60397C9.36672 2.46146 9.4725 2.35805 9.5989 2.29374C9.72532 2.22942 9.85938 2.19727 10.0011 2.19727C10.1428 2.19727 10.2765 2.22942 10.4021 2.29374C10.5277 2.35805 10.633 2.46146 10.7182 2.60397L18.7073 16.3975C18.7925 16.5466 18.8321 16.6945 18.8264 16.8413C18.8206 16.9882 18.7809 17.1192 18.7073 17.2344C18.6403 17.3517 18.5458 17.4508 18.4239 17.5316C18.302 17.6125 18.157 17.6529 17.989 17.6529H2.01076ZM3.22363 16.1203H16.7761L9.99988 4.41376L3.22363 16.1203ZM10.0869 15.0388C10.2695 15.0388 10.4266 14.9718 10.5581 14.8378C10.6896 14.7039 10.7553 14.5456 10.7553 14.363C10.7553 14.1804 10.6884 14.0253 10.5544 13.8977C10.4205 13.7701 10.2622 13.7063 10.0796 13.7063C9.89693 13.7063 9.73986 13.7713 9.60836 13.9013C9.47686 14.0313 9.41111 14.1877 9.41111 14.3703C9.41111 14.5529 9.47808 14.71 9.61201 14.8415C9.74595 14.973 9.90424 15.0388 10.0869 15.0388ZM10.0869 12.7498C10.265 12.7498 10.4131 12.6899 10.5311 12.5701C10.6492 12.4503 10.7082 12.3019 10.7082 12.1248V8.80235C10.7082 8.62526 10.648 8.47683 10.5275 8.35704C10.407 8.23724 10.2577 8.17735 10.0796 8.17735C9.90144 8.17735 9.75335 8.23724 9.6353 8.35704C9.51724 8.47683 9.45822 8.62526 9.45822 8.80235V12.1248C9.45822 12.3019 9.51846 12.4503 9.63894 12.5701C9.75944 12.6899 9.90875 12.7498 10.0869 12.7498Z" fill="#FBB129"/>
</g>
</svg>
