<?xml version="1.0" encoding="UTF-8"?>
<svg width="158" height="159" viewBox="0 0 158 159" fill="none" xmlns="http://www.w3.org/2000/svg">
<g id="warning">
<path id="vector" d="M15.8861 139.959C14.5584 139.959 13.4104 139.646 12.4421 139.02C11.4737 138.394 10.7301 137.605 10.2114 136.653C9.63018 135.743 9.31671 134.708 9.27095 133.548C9.22531 132.388 9.53878 131.219 10.2114 130.041L73.3255 21.0729C73.9982 19.9471 74.8338 19.1301 75.8324 18.6221C76.8311 18.114 77.8902 17.8599 79.0097 17.8599C80.1292 17.8599 81.1851 18.114 82.1774 18.6221C83.1696 19.1301 84.0021 19.9471 84.6748 21.0729L147.789 130.041C148.461 131.219 148.775 132.388 148.729 133.548C148.684 134.708 148.37 135.743 147.789 136.653C147.259 137.58 146.513 138.363 145.55 139.001C144.587 139.64 143.442 139.959 142.114 139.959H15.8861ZM25.4678 127.852H132.533L79.0001 35.3703L25.4678 127.852ZM79.6873 119.308C81.1301 119.308 82.371 118.779 83.4098 117.721C84.4487 116.662 84.9681 115.412 84.9681 113.969C84.9681 112.526 84.4391 111.301 83.381 110.293C82.3229 109.285 81.0724 108.782 79.6297 108.782C78.1868 108.782 76.946 109.295 75.9071 110.322C74.8683 111.349 74.3488 112.584 74.3488 114.027C74.3488 115.47 74.8779 116.711 75.9359 117.749C76.9941 118.788 78.2445 119.308 79.6873 119.308ZM79.6873 101.225C81.0945 101.225 82.2644 100.752 83.197 99.8055C84.1297 98.8591 84.596 97.6865 84.596 96.2875V70.0401C84.596 68.6411 84.12 67.4685 83.1682 66.5221C82.2163 65.5758 81.0368 65.1026 79.6297 65.1026C78.2225 65.1026 77.0526 65.5758 76.1199 66.5221C75.1873 67.4685 74.721 68.6411 74.721 70.0401V96.2875C74.721 97.6865 75.1969 98.8591 76.1487 99.8055C77.1007 100.752 78.2802 101.225 79.6873 101.225Z" fill="#FBB129"/>
</g>
</svg>
