<?xml version="1.0" encoding="UTF-8"?>
<svg width="261" height="181" viewBox="0 0 261 181" fill="none" xmlns="http://www.w3.org/2000/svg">
<path d="M222.423 142.354C234.922 128.553 226.431 107.256 212.403 96.6201C200.188 87.3559 190.028 81.7296 169.321 81.0206C148.613 80.3115 137.261 80.3079 124.902 65.7773C112.543 51.2466 95.8333 29.2903 77.1468 28.5527C59.1115 27.8401 48.0917 33.869 37.7397 76.4134C27.3878 118.958 34.9865 138.464 38.4111 141.288C55.0648 155.021 204.269 157.017 222.423 142.354Z" fill="#E5EDF6"/>
<mask id="mask0_1659_431" style="mask-type:alpha" maskUnits="userSpaceOnUse" x="32" y="28" width="197" height="125">
<path d="M222.423 142.354C234.922 128.553 226.431 107.256 212.403 96.6201C200.188 87.3559 190.028 81.7296 169.321 81.0206C148.613 80.3115 137.261 80.3079 124.902 65.7773C112.543 51.2466 95.8333 29.2903 77.1468 28.5527C59.1115 27.8401 48.0917 33.869 37.7397 76.4134C27.3878 118.958 34.9865 138.464 38.4111 141.288C55.0648 155.021 204.269 157.017 222.423 142.354Z" fill="#E5EDF6"/>
</mask>
<g mask="url(#mask0_1659_431)">
<g clip-path="url(#clip0_1659_431)">
<path fill-rule="evenodd" clip-rule="evenodd" d="M106.53 55.4636C112.586 58.7839 114.812 66.3993 111.501 72.4731C110.178 74.9016 108.169 76.716 105.848 77.8069L104.976 83.9263L96.9881 83.4731L96.5435 78.3406C95.8629 78.1097 95.1928 77.8165 94.5405 77.4589C88.4841 74.1386 86.2583 66.5232 89.569 60.4494C92.8798 54.3755 100.473 52.1433 106.53 55.4636Z" fill="#FFCCA2"/>
<path d="M66.9922 144.666V145.716C66.9937 147.455 67.6854 149.123 68.9154 150.353C70.1455 151.583 71.8134 152.275 73.5529 152.277H129.188C130.928 152.276 132.596 151.585 133.826 150.354C135.057 149.124 135.748 147.456 135.749 145.716V144.666C135.752 143.131 135.213 141.644 134.226 140.467C133.898 140.077 133.527 139.725 133.119 139.418H104.262C103.914 139.417 103.581 139.279 103.335 139.033C103.089 138.787 102.95 138.453 102.95 138.105H73.5529C71.8136 138.108 70.1463 138.8 68.9164 140.03C67.6866 141.26 66.9946 142.927 66.9922 144.666Z" fill="#D4DFEC"/>
<path d="M108.05 83.7785C108.05 83.7785 101.141 78.6519 93.6705 83.7785L88.5 126.5H104.025L106.325 112.829L111.5 92.3228L108.05 83.7785Z" fill="white"/>
<path d="M123.574 149.316L95.6698 140.249L82.367 150.753L96.499 172.253L89.1075 181.899L88.8961 181.66C87.9791 180.62 66.4378 156.123 66.5001 149.175C66.562 142.286 68.8559 135.36 68.8791 135.29L75.8766 125.406L85.8081 122.5L118.688 127.092L118.742 127.1L132.026 135.146C133.341 135.987 134.449 137.11 135.269 138.434C136.089 139.757 136.599 141.247 136.763 142.793C137.334 147.903 138.481 188.819 138.492 189.232L138.5 189.5H124.151L123.574 149.316Z" fill="#9FAAFF"/>
<path d="M106.464 139.207C101.539 137.1 95.2496 128.871 94.213 127.484C92.1866 128.546 77.4083 136.15 73.2422 134.195C72.637 134.517 69.9018 136.088 69.4091 138.459L69.2856 139.054L68.9285 138.555C68.8627 138.462 62.4442 129.273 70.7475 123.562C78.3186 118.356 80.3554 113.096 80.5688 112.494L76.4608 91.5886L76.5686 91.4922C76.9055 91.1909 84.9026 84.1065 92.1996 83.264L96.7008 82.5L96.8976 98.999V120.121C100.535 119.681 106.289 82.7746 106.289 82.7746L109.295 83.8353C110.072 83.9788 118.803 85.658 121.12 89.0042L121.195 89.1129L113.254 109.785L110.932 113.152V117.461L124.5 128.821L124.307 129.015C123.845 129.482 113.84 139.501 108.011 139.5C107.48 139.508 106.953 139.408 106.464 139.207Z" fill="#BFC6FF"/>
<path d="M97.5454 142.998C97.6403 142.297 97.8992 141.623 98.3038 141.025C98.7084 140.427 99.2488 139.919 99.8871 139.536C100.525 139.154 101.246 138.906 101.998 138.811C102.75 138.716 103.515 138.776 104.24 138.986L111.838 130.5L118.5 133.544L107.588 145.388C107.129 146.498 106.247 147.413 105.112 147.959C103.977 148.505 102.666 148.643 101.428 148.349C100.19 148.054 99.1107 147.347 98.3951 146.361C97.6796 145.374 97.3773 144.178 97.5454 142.998Z" fill="#FFCCA2"/>
<path d="M102.5 135.688L114.554 120.363L111.568 105.18L116.412 88.0747L116.534 88.0255C116.631 87.9859 118.95 87.0661 120.714 87.7555C121.075 87.8958 121.401 88.105 121.672 88.37C121.943 88.6349 122.152 88.9499 122.287 89.2949C123.487 92.1183 126.378 120.872 126.5 122.145C126.475 122.377 125.882 127.861 124.675 130.135C123.474 132.397 112.516 143.814 112.05 144.3L111.857 144.5L102.5 135.688Z" fill="#BFC6FF"/>
<path d="M111.139 63.3865C106.989 68.7206 99.8756 67.7432 94.1845 65.7912C94.5155 70.0614 93.381 74.3161 90.9757 77.8242C91.7106 74.7986 89.9743 74.5452 88.4717 73.2016C87.5326 72.4338 85.4606 70.8554 85.1751 69.7465C84.0478 68.2109 83.2128 59.5733 85.1752 58.3388C87.6128 55.0041 90.5386 50.8406 95.183 51.7165C98.8579 47.3353 104.88 48.4747 108.989 51.5395C110.837 52.9364 112.517 54.5502 113.996 56.3477C113.523 58.7131 112.643 60.9737 111.395 63.0241" fill="#5F5D5D"/>
<path d="M102.455 146.692C102.36 145.952 102.101 145.241 101.696 144.61C101.292 143.978 100.751 143.442 100.113 143.038C99.4747 142.634 98.7542 142.373 98.0022 142.273C97.2502 142.173 96.485 142.236 95.7605 142.458L88.1618 133.5L81.5 136.713L92.4115 149.215C92.8714 150.387 93.7525 151.353 94.888 151.929C96.0235 152.505 97.3344 152.651 98.5724 152.34C99.8104 152.029 100.889 151.283 101.605 150.242C102.32 149.201 102.623 147.938 102.455 146.692Z" fill="#FFCCA2"/>
<path d="M88.3535 145.359C87.6734 144.873 71.6756 133.418 69.8883 130.012C68.0983 126.601 68.542 116.501 68.5652 116.041C68.593 115.883 71.3782 100.098 73.7341 94.4867C76.1785 88.6649 82.3268 90.9293 82.3886 90.953L82.5744 91.0238L79.8973 120.78L94.5 139.236L88.5506 145.5L88.3535 145.359Z" fill="#BFC6FF"/>
</g>
<path d="M138.597 89.5H186.235C186.761 89.4993 187.28 89.6327 187.747 89.8889C188.213 90.145 188.614 90.5164 188.915 90.9711C189.216 91.4258 189.407 91.9505 189.474 92.5002C189.54 93.05 189.48 93.6085 189.297 94.1282L177.285 128.5H121.5L133.921 92.9248C134.275 91.919 134.913 91.0514 135.749 90.4391C136.585 89.8267 137.579 89.499 138.597 89.5Z" fill="#D4DFEC"/>
<path d="M177.469 128.646H105.164C104.679 128.646 104.198 128.772 103.75 129.017C103.301 129.262 102.894 129.62 102.551 130.072C102.208 130.525 101.936 131.061 101.75 131.652C101.564 132.243 101.469 132.876 101.469 133.515V133.646H173.774C174.754 133.646 175.694 133.134 176.387 132.22C177.079 131.307 177.469 130.069 177.469 128.778V128.646Z" fill="#F0F5FB"/>
<path d="M37.0703 133.553C40.1384 134.206 43.4572 138.919 46.9984 139.489L213.142 139.553C216.683 138.983 220.002 134.27 223.07 133.616L37.0703 133.553Z" fill="#D4DFEC"/>
<path d="M54.6211 136.5H58.6211V147.5L54.6211 146.812V136.5Z" fill="#D4DFEC"/>
<path d="M208.633 138.145H204.633V149.145L208.633 148.457V138.145Z" fill="#D4DFEC"/>
</g>
<path fill-rule="evenodd" clip-rule="evenodd" d="M153.137 81.2402C143.978 78.6005 137.502 72.1004 137.502 64.5C137.502 54.5589 148.582 46.5 162.251 46.5C175.919 46.5 187 54.5589 187 64.5C187 72.8897 179.108 79.9387 168.429 81.9346C168.731 83.6398 169.284 85.2708 169.835 86.5C164.825 86.5 156.216 85.3385 153.137 81.2402Z" fill="#E66F61"/>
<path d="M169.111 69.281C169.63 69.7997 169.63 70.6066 169.111 71.1254C168.852 71.3847 168.536 71.5 168.19 71.5C167.845 71.5 167.528 71.3847 167.269 71.1254L162 65.8516L156.731 71.1254C156.472 71.3847 156.155 71.5 155.81 71.5C155.464 71.5 155.148 71.3847 154.889 71.1254C154.37 70.6066 154.37 69.7997 154.889 69.281L160.157 64.0072L154.889 58.7334C154.37 58.2147 154.37 57.4078 154.889 56.889C155.407 56.3703 156.213 56.3703 156.731 56.889L162 62.1628L167.269 56.889C167.787 56.3703 168.593 56.3703 169.111 56.889C169.63 57.4078 169.63 58.2147 169.111 58.7334L163.843 64.0072L169.111 69.281Z" fill="white"/>
<defs>
<clipPath id="clip0_1659_431">
<rect width="76" height="110" fill="white" transform="translate(64.5 44.5)"/>
</clipPath>
</defs>
</svg>
