<?xml version="1.0" encoding="UTF-8"?>
<svg width="175" height="180" viewBox="0 0 175 180" fill="none" xmlns="http://www.w3.org/2000/svg">
<g clip-path="url(#clip0_2366_10783)">
<path d="M17.3253 60.3277C0.974548 79.708 -8.24895 109.356 3.3503 126.811C14.9496 144.394 47.6511 149.656 83.5668 151.453C119.483 153.25 158.752 151.453 171.749 133.228C184.606 115.003 171.33 80.478 151.765 59.301C132.06 38.2523 106.206 30.5515 81.4706 31.3216C56.8746 31.9633 33.6761 41.0759 17.3253 60.3277Z" fill="#E5EDF6"/>
<g clip-path="url(#clip1_2366_10783)">
<path d="M113.394 41.9277H109.935C109.233 41.9277 108.664 42.4989 108.664 43.2034V71.6521C108.664 72.3566 109.233 72.9277 109.935 72.9277H113.394C114.095 72.9277 114.664 72.3566 114.664 71.6521V43.2034C114.664 42.4989 114.095 41.9277 113.394 41.9277Z" fill="#D4DFEC"/>
<path d="M106.792 44.4785H103.044C102.422 44.4785 101.918 45.0365 101.918 45.7248V72.2322C101.918 72.9205 102.422 73.4785 103.044 73.4785H106.792C107.414 73.4785 107.918 72.9205 107.918 72.2322V45.7248C107.918 45.0365 107.414 44.4785 106.792 44.4785Z" fill="#F0F5FB"/>
<path d="M101.248 37.6426H99.9473C99.2019 37.6426 98.5977 38.1478 98.5977 38.7711V71.5141C98.5977 72.1373 99.2019 72.6426 99.9473 72.6426H101.248C101.993 72.6426 102.598 72.1373 102.598 71.5141V38.7711C102.598 38.1478 101.993 37.6426 101.248 37.6426Z" fill="#F0F5FB"/>
<path d="M97.6495 46.5234H94.413C93.6499 46.5234 93.0312 47.0822 93.0312 47.7715V71.2754C93.0312 71.9647 93.6499 72.5234 94.413 72.5234H97.6495C98.4126 72.5234 99.0312 71.9647 99.0312 71.2754V47.7715C99.0312 47.0822 98.4126 46.5234 97.6495 46.5234Z" fill="#D4DFEC"/>
<path d="M83.0776 72.8066H78.4727L89.9922 41.2251C90.0368 41.1027 90.1168 40.9971 90.2215 40.9223C90.3263 40.8476 90.4507 40.8072 90.5784 40.8066H93.8454C93.9475 40.8081 94.0478 40.8346 94.1378 40.8841C94.2278 40.9336 94.3048 41.0045 94.3623 41.0909C94.4198 41.1772 94.4561 41.2765 94.4682 41.3803C94.4803 41.4841 94.4677 41.5893 94.4317 41.6871L83.0776 72.8066Z" fill="#F0F5FB"/>
<path d="M35.4151 99.6934H38.874C39.5757 99.6934 40.1445 100.246 40.1445 100.928V128.459C40.1445 129.141 39.5757 129.693 38.874 129.693H35.4151C34.7134 129.693 34.1445 129.141 34.1445 128.459V100.928C34.1445 100.246 34.7134 99.6934 35.4151 99.6934Z" fill="#F0F5FB"/>
<path d="M41.9777 102.203H45.7254C46.3474 102.203 46.8516 102.742 46.8516 103.406V129C46.8516 129.664 46.3474 130.203 45.7254 130.203H41.9777C41.3557 130.203 40.8516 129.664 40.8516 129V103.406C40.8516 102.742 41.3557 102.203 41.9777 102.203Z" fill="#F0F5FB"/>
<path d="M48.145 95.4785H49.1206C49.6796 95.4785 50.1328 95.9982 50.1328 96.6392V130.318C50.1328 130.959 49.6796 131.479 49.1206 131.479H48.145C47.586 131.479 47.1328 130.959 47.1328 130.318V96.6392C47.1328 95.9982 47.586 95.4785 48.145 95.4785Z" fill="#F0F5FB"/>
<path d="M51.0341 104.215H54.2706C55.0337 104.215 55.6523 104.774 55.6523 105.463V128.967C55.6523 129.656 55.0337 130.215 54.2706 130.215H51.0341C50.271 130.215 49.6523 129.656 49.6523 128.967V105.463C49.6523 104.774 50.271 104.215 51.0341 104.215Z" fill="#D4DFEC"/>
<path d="M65.4849 130.592H70.0898L58.5703 99.0102C58.5257 98.8878 58.4457 98.7822 58.341 98.7075C58.2362 98.6327 58.1118 98.5924 57.9841 98.5918H54.7171C54.615 98.5932 54.5147 98.6198 54.4247 98.6693C54.3347 98.7187 54.2577 98.7897 54.2002 98.876C54.1427 98.9624 54.1064 99.0617 54.0943 99.1654C54.0822 99.2692 54.0948 99.3744 54.1308 99.4722L65.4849 130.592Z" fill="#F0F5FB"/>
<rect x="117.027" y="74.8262" width="84" height="3" transform="rotate(-180 117.027 74.8262)" fill="#D4DFEC"/>
<rect x="120" y="31" width="88" height="2.99999" transform="rotate(-180 120 31)" fill="#D4DFEC"/>
<rect x="121" y="28" width="119" height="4" transform="rotate(90 121 28)" fill="#D4DFEC"/>
<path d="M34 28L34 145L30 144L30 28L34 28Z" fill="#D4DFEC"/>
<rect x="117.027" y="132.66" width="84.0061" height="3" transform="rotate(-180 117.027 132.66)" fill="#D4DFEC"/>
<path d="M41.343 58.6641H49.9538C50.989 58.6641 51.8281 59.5016 51.8281 60.5349V69.1293C51.8281 70.1625 50.989 71.0001 49.9538 71.0001H41.343C40.3079 71.0001 39.4687 70.1625 39.4687 69.1293V60.5349C39.4687 59.5016 40.3079 58.6641 41.343 58.6641Z" fill="white"/>
<path d="M46.2807 58.6584C46.2807 58.6584 47.8152 47.238 36.6045 44C36.6045 44 41.4437 48.7592 42.9177 58.6584H46.2807Z" fill="#6FBB96"/>
<path d="M44.3184 58.6599C44.3184 58.6599 45.6528 48.6525 54.6055 47.9824C54.6055 47.9824 48.9762 50.336 48.9115 58.6599H44.3184Z" fill="#6FBB96"/>
<path d="M47.3456 58.6558C47.3456 58.6558 48.5028 50.5171 44.6352 46.6465C44.6352 46.6465 45.5985 53.6448 44.3204 58.6558H47.3456Z" fill="#6FBB96"/>
<path d="M45.6562 58.656C45.6562 58.656 41.8638 56.5417 42.1119 52.6523C42.1119 52.6523 39.9769 56.1151 41.674 58.656H45.6562Z" fill="#6FBB96"/>
<path d="M49.6373 58.6583C49.6373 58.6583 50.7131 55.6013 53.3672 54.6586C53.3672 54.6586 48.5302 54.5317 47.3501 58.6583H49.6373Z" fill="#6FBB96"/>
</g>
<g clip-path="url(#clip2_2366_10783)">
<path d="M99 152C85.7452 152 75 151.256 75 148.319C75 145.381 85.7452 143 99 143C112.255 143 123 145.381 123 148.319C123 151.256 112.255 152 99 152Z" fill="#D4DFEC"/>
<path d="M77.7354 144.805C77.3214 148.164 76.7693 151.098 80 151.656C88.9995 152.175 114.5 152.175 118.545 150.733C122.591 149.291 111.259 134.591 111.259 134.591L111.112 133.973L106.143 133.993L81.1773 134.087L80.8577 135.083L77.7354 144.805Z" fill="#9FAAFF"/>
<path d="M107.824 78.7232V68.0278C107.83 66.1458 107.487 64.2809 106.814 62.5397C106.141 60.7985 105.151 59.215 103.902 57.8798C102.652 56.5445 101.167 55.4836 99.5317 54.7576C97.8961 54.0316 96.1418 53.6548 94.3689 53.6485C92.5961 53.6423 90.8395 54.0068 89.1993 54.7213C87.5592 55.4358 86.0677 56.4862 84.81 57.8126C83.5522 59.1391 82.5529 60.7155 81.869 62.4519C81.1852 64.1884 80.8302 66.0508 80.8243 67.9329C80.8242 67.9645 80.8242 67.9962 80.8243 68.0278V78.7232C80.8248 79.2337 81.0161 79.723 81.356 80.0839C81.696 80.4448 82.157 80.6479 82.6377 80.6484H106.011C106.491 80.6479 106.952 80.4448 107.292 80.0839C107.632 79.723 107.824 79.2337 107.824 78.7232Z" fill="#5F5D5D"/>
<path fill-rule="evenodd" clip-rule="evenodd" d="M90.9476 78.5832C87.5724 76.7048 85.2891 73.1015 85.2891 68.9648C85.2891 62.8897 90.2139 57.9648 96.2891 57.9648C102.364 57.9648 107.289 62.8897 107.289 68.9648C107.289 73.8723 104.075 78.0291 99.6379 79.4458L100.89 85.9111L88.5584 85.3536L90.9476 78.5832Z" fill="#FFCCA2"/>
<path d="M145.744 119.233C145.567 119.423 145.404 119.628 145.258 119.845L122.498 119.262L119.842 114.182L111.996 117.375L115.862 126.847C116.175 127.612 116.716 128.251 117.404 128.667C118.092 129.083 118.891 129.254 119.68 129.154L145.395 125.901C146.002 126.705 146.828 127.297 147.764 127.597C148.699 127.898 149.7 127.893 150.633 127.584C151.566 127.274 152.387 126.674 152.986 125.865C153.585 125.055 153.935 124.073 153.989 123.05C154.042 122.027 153.797 121.011 153.286 120.137C152.775 119.263 152.021 118.573 151.126 118.159C150.231 117.744 149.237 117.625 148.276 117.817C147.315 118.008 146.432 118.502 145.745 119.232L145.744 119.233Z" fill="#FFCCA2"/>
<path d="M115.746 91.3995L105.191 87.8827L102.091 83.5605L87.0052 84.4682L84.7903 89.5119L76.7461 93.3762L77.9824 116.717L80.0973 138.561C90.9724 132.836 111.268 137.2 111.446 137.271L115.746 91.3995Z" fill="white"/>
<path d="M113.057 122.424L124.168 118.126L124.121 117.935C124.073 117.742 119.344 98.6387 118.716 95.5688C118.062 92.3705 115.672 91.4862 115.571 91.4502L115.496 91.4238L111.099 92.7177L109.168 107.386L113.057 122.424Z" fill="white"/>
<path d="M90.3706 137.463C90.1137 137.457 89.8567 137.471 89.602 137.506L74.3588 120.239L76.1318 114.933L68.4717 111.211L64.4196 120.301C64.0922 121.035 64.0119 121.856 64.1907 122.639C64.3695 123.423 64.7978 124.128 65.4113 124.648L85.4047 141.586C85.2524 142.564 85.4015 143.565 85.8322 144.457C86.2629 145.348 86.9548 146.087 87.8159 146.576C88.6769 147.064 89.6663 147.279 90.6525 147.192C91.6387 147.105 92.5749 146.719 93.3366 146.087C94.0983 145.454 94.6495 144.605 94.9167 143.652C95.1839 142.699 95.1546 141.687 94.8326 140.751C94.5106 139.815 93.9113 138.999 93.1142 138.411C92.3172 137.824 91.3602 137.494 90.3706 137.463Z" fill="#FFCCA2"/>
<path d="M75.8669 122.285L82.293 107.264L79.7866 96.8002L77.086 93.4096C76.8882 93.3256 76.675 93.2832 76.4599 93.2852C76.2448 93.2872 76.0325 93.3335 75.8363 93.4212C74.8397 93.8195 73.9926 95.0404 73.3155 97.0499L67.293 114.097L75.8669 122.285Z" fill="white"/>
<path d="M111.656 67.8325C111.653 64.7099 110.4 61.7162 108.173 59.5082C105.946 57.3002 102.926 56.0582 99.7769 56.0547H97.5354C94.3859 56.0582 91.3664 57.3002 89.1394 59.5082C86.9124 61.7162 85.6598 64.7099 85.6562 67.8325V68.0547H90.3931L92.0088 63.5688L92.3318 68.0547H94.7797L95.5947 65.7917L95.7581 68.0547H111.656V67.8325Z" fill="#5F5D5D"/>
<path d="M95.9612 80.844C96.1443 80.5413 96.2537 80.1816 96.2767 79.8064C96.2997 79.4311 96.2354 79.0556 96.0912 78.723C94.1352 74.1818 91.3966 65.7905 95.0316 60.6155L95.2923 60.2441H84.7386V79.5842L94.3258 81.6489C94.4229 81.6698 94.5212 81.6804 94.6197 81.6806C94.8815 81.6806 95.1395 81.6048 95.3725 81.4594C95.6056 81.3141 95.8071 81.1034 95.9605 80.8445L95.9612 80.844Z" fill="#5F5D5D"/>
</g>
<path d="M126.367 78.3594C132.236 76.5617 137.053 70.3702 138.367 66.4612C137.579 61.7533 126.805 60.9828 127.769 64.7491C128.732 68.5154 128.382 72.6242 126.367 78.3594Z" fill="#62A1DF"/>
<ellipse cx="22.5" cy="16.5" rx="22.5" ry="16.5" transform="matrix(-1 0 0 1 160 37)" fill="#62A1DF"/>
<path d="M139.478 44.166C140.651 44.166 141.238 44.9912 141.238 45.9366C141.238 47.1173 140.219 48.2094 138.893 48.2094C137.782 48.2094 137.134 47.5308 137.165 46.4089C137.165 45.4653 137.936 44.166 139.478 44.166ZM135.869 62.2613C134.943 62.2613 134.265 61.6713 134.913 59.0729L135.975 54.4658C136.16 53.7293 136.191 53.4335 135.975 53.4335C135.698 53.4335 134.497 53.942 133.785 54.4441L133.323 53.6479C135.574 51.6701 138.164 50.5111 139.276 50.5111C140.201 50.5111 140.355 51.6629 139.893 53.4335L138.676 58.2758C138.46 59.1308 138.552 59.4257 138.768 59.4257C139.046 59.4257 139.956 59.0711 140.851 58.3337L141.376 59.0702C139.186 61.3746 136.794 62.2613 135.869 62.2613Z" fill="white"/>
</g>
<defs>
<clipPath id="clip0_2366_10783">
<rect width="175" height="180" fill="white"/>
</clipPath>
<clipPath id="clip1_2366_10783">
<rect width="91" height="119" fill="white" transform="translate(30 28)"/>
</clipPath>
<clipPath id="clip2_2366_10783">
<rect width="89" height="100" fill="white" transform="matrix(-1 0 0 1 154 52)"/>
</clipPath>
</defs>
</svg>
