<?xml version="1.0" encoding="UTF-8"?>
<svg width="102" height="102" viewBox="0 0 102 102" fill="none" xmlns="http://www.w3.org/2000/svg">
<rect opacity="0.5" width="102" height="102" rx="8" fill="#FFF0B3"/>
<g clip-path="url(#clip0_199_4057)">
<path d="M90.8305 34.4491H11V80H90.8305V34.4491Z" fill="#FFC400"/>
<path d="M75.4856 34.4491H71.7142V80H75.4856V34.4491Z" fill="white" fill-opacity="0.7"/>
<path d="M55.8175 34.4491H11V80H55.8175V34.4491Z" fill="#FFE380"/>
<path d="M28.3765 58.541C26.1574 58.4526 25.7483 60.6765 25.8212 61.7996L25.691 70.8733C25.6263 72.4742 27.4641 72.8304 28.5091 72.8131C31.1186 72.6026 36.753 72.1392 38.415 71.9696C40.0771 71.8 40.7061 70.4102 40.5877 69.4032C40.309 67.034 39.8203 62.0624 39.6318 60.8758C39.4456 59.7039 38.2914 58.9359 37.2291 58.8936L28.3765 58.541Z" fill="white"/>
<path fill-rule="evenodd" clip-rule="evenodd" d="M33.404 60.8639L33.4349 60.0986L34.1431 60.1268L34.1122 60.8921L33.404 60.8639ZM32.0369 61.0453L32.0679 60.28L32.7761 60.3082L32.7452 61.0735L32.0369 61.0453ZM28.0939 62.0675L28.1534 60.5958L28.8617 60.624L28.8022 62.0957L28.0939 62.0675ZM37.0481 64.3381L36.9357 61.2676L37.6441 61.2415L37.7565 64.312L37.0481 64.3381ZM36.5816 61.2263L36.5483 62.0505L35.8401 62.0223L35.8734 61.1981L36.5816 61.2263ZM29.8717 61.9614L29.9003 61.255L30.6085 61.2832L30.58 61.9896L29.8717 61.9614ZM32.6386 62.2485L32.6695 61.4832L33.3778 61.5114L33.3469 62.2767L32.6386 62.2485ZM27.3354 64.7799L27.1782 61.3538L27.8863 61.3213L28.0435 64.7473L27.3354 64.7799ZM34.7563 62.5098L34.7872 61.7445L35.4954 61.7727L35.4645 62.538L34.7563 62.5098ZM33.4364 62.9878L33.4649 62.2814L34.1732 62.3096L34.1446 63.016L33.4364 62.9878ZM30.7733 63.0586L30.8018 62.3522L31.5101 62.3804L31.4815 63.0869L30.7733 63.0586ZM35.495 63.2467L35.5236 62.5403L36.2318 62.5685L36.2033 63.2749L35.495 63.2467ZM29.5833 63.2471L29.6119 62.5407L30.3201 62.5689L30.2916 63.2753L29.5833 63.2471ZM34.5788 63.9767L34.6097 63.2115L35.3179 63.2397L35.287 64.005L34.5788 63.9767ZM31.6277 63.8592L31.6562 63.1528L32.3645 63.181L32.3359 63.8874L31.6277 63.8592ZM28.372 63.9653L28.3981 63.3178L29.1064 63.346L29.0802 63.9936L28.372 63.9653ZM35.5584 64.6054L35.5893 63.8401L36.2975 63.8683L36.2666 64.6336L35.5584 64.6054ZM32.6001 64.6644L32.631 63.8992L33.3393 63.9274L33.3084 64.6926L32.6001 64.6644ZM29.649 64.5469L29.6752 63.8993L30.3835 63.9275L30.3573 64.5751L29.649 64.5469Z" fill="black"/>
<path fill-rule="evenodd" clip-rule="evenodd" d="M27.2461 66.1024C27.4086 66.0897 27.5507 66.2107 27.5635 66.3729L27.9537 71.34C27.9664 71.5021 27.845 71.6439 27.6825 71.6567C27.5199 71.6694 27.3779 71.5483 27.3651 71.3862L26.9749 66.4191C26.9622 66.257 27.0836 66.1152 27.2461 66.1024Z" fill="black"/>
<path fill-rule="evenodd" clip-rule="evenodd" d="M31.1558 66.1094C31.3187 66.1032 31.4558 66.2299 31.462 66.3925L31.6402 71.0893C31.6463 71.2518 31.5192 71.3886 31.3563 71.3948C31.1934 71.401 31.0563 71.2743 31.0501 71.1118L30.8719 66.4149C30.8657 66.2524 30.9928 66.1156 31.1558 66.1094Z" fill="black"/>
<path fill-rule="evenodd" clip-rule="evenodd" d="M33.7783 65.7199C33.941 65.7096 34.0812 65.8328 34.0916 65.9951L34.4104 71.0066C34.4207 71.1689 34.2972 71.3089 34.1345 71.3192C33.9718 71.3296 33.8315 71.2064 33.8212 71.0441L33.5024 66.0326C33.492 65.8703 33.6156 65.7303 33.7783 65.7199Z" fill="black"/>
<path fill-rule="evenodd" clip-rule="evenodd" d="M37.4468 65.7248C37.6096 65.7153 37.7492 65.8392 37.7586 66.0016L38.0314 70.6878C38.0409 70.8501 37.9166 70.9895 37.7539 70.999C37.5911 71.0084 37.4515 70.8845 37.4421 70.7221L37.1693 66.0359C37.1598 65.8736 37.2841 65.7343 37.4468 65.7248Z" fill="black"/>
<path fill-rule="evenodd" clip-rule="evenodd" d="M38.5099 66.02C38.5752 66.0201 38.6279 66.0729 38.6278 66.138L38.6187 70.779C38.6186 70.8441 38.5656 70.8967 38.5004 70.8966C38.4352 70.8965 38.3824 70.8437 38.3826 70.7787L38.3916 66.1376C38.3918 66.0726 38.4447 66.0199 38.5099 66.02Z" fill="black"/>
<path fill-rule="evenodd" clip-rule="evenodd" d="M39.0095 65.9225C39.0747 65.9196 39.1298 65.97 39.1326 66.035L39.3333 70.6717C39.3361 70.7367 39.2855 70.7917 39.2204 70.7945C39.1552 70.7973 39.1002 70.747 39.0973 70.682L38.8967 66.0453C38.8939 65.9803 38.9444 65.9253 39.0095 65.9225Z" fill="black"/>
<path fill-rule="evenodd" clip-rule="evenodd" d="M36.1756 65.8093C36.2408 65.8059 36.2963 65.8558 36.2997 65.9208L36.5513 70.7644C36.5547 70.8293 36.5046 70.8848 36.4395 70.8882C36.3744 70.8915 36.3189 70.8416 36.3155 70.7767L36.0638 65.9331C36.0605 65.8681 36.1105 65.8127 36.1756 65.8093Z" fill="black"/>
<path fill-rule="evenodd" clip-rule="evenodd" d="M35.4741 65.7812C35.5392 65.7778 35.5948 65.8278 35.5981 65.8927L35.8498 70.7363C35.8532 70.8013 35.8031 70.8567 35.738 70.8601C35.6729 70.8635 35.6173 70.8136 35.6139 70.7486L35.3623 65.905C35.3589 65.84 35.409 65.7846 35.4741 65.7812Z" fill="black"/>
<path fill-rule="evenodd" clip-rule="evenodd" d="M34.7604 65.8708C34.8255 65.8674 34.881 65.9173 34.8844 65.9823L35.136 70.8259C35.1394 70.8909 35.0894 70.9463 35.0242 70.9497C34.9591 70.9531 34.9036 70.9032 34.9002 70.8382L34.6486 65.9946C34.6452 65.9296 34.6952 65.8742 34.7604 65.8708Z" fill="black"/>
<path fill-rule="evenodd" clip-rule="evenodd" d="M32.5033 66.1339C32.5684 66.1305 32.6239 66.1804 32.6273 66.2454L32.879 71.089C32.8823 71.154 32.8323 71.2094 32.7671 71.2128C32.702 71.2162 32.6465 71.1662 32.6431 71.1013L32.3915 66.2577C32.3881 66.1927 32.4382 66.1373 32.5033 66.1339Z" fill="black"/>
<path fill-rule="evenodd" clip-rule="evenodd" d="M31.9088 66.2282C31.9739 66.2248 32.0295 66.2747 32.0328 66.3397L32.2845 71.1833C32.2878 71.2483 32.2378 71.3037 32.1727 71.3071C32.1075 71.3105 32.052 71.2605 32.0486 71.1956L31.797 66.352C31.7936 66.287 31.8437 66.2316 31.9088 66.2282Z" fill="black"/>
<path fill-rule="evenodd" clip-rule="evenodd" d="M29.7837 66.1432C29.8488 66.1398 29.9043 66.1898 29.9077 66.2547L30.1593 71.0983C30.1627 71.1633 30.1127 71.2187 30.0475 71.2221C29.9824 71.2255 29.9269 71.1756 29.9235 71.1106L29.6719 66.267C29.6685 66.202 29.7186 66.1466 29.7837 66.1432Z" fill="black"/>
<path fill-rule="evenodd" clip-rule="evenodd" d="M28.9571 66.1102C29.0223 66.1068 29.0778 66.1567 29.0812 66.2217L29.3328 71.0653C29.3362 71.1303 29.2861 71.1857 29.221 71.1891C29.1559 71.1925 29.1004 71.1426 29.097 71.0776L28.8453 66.234C28.842 66.169 28.892 66.1136 28.9571 66.1102Z" fill="black"/>
<path fill-rule="evenodd" clip-rule="evenodd" d="M28.362 66.2045C28.4272 66.2011 28.4827 66.251 28.4861 66.316L28.7377 71.1596C28.7411 71.2246 28.691 71.28 28.6259 71.2834C28.5608 71.2868 28.5053 71.2369 28.5019 71.1719L28.2502 66.3283C28.2469 66.2633 28.2969 66.2079 28.362 66.2045Z" fill="black"/>
<path d="M11 34.4491L24.456 23L59.896 23.0032L44.1465 34.4491H11Z" fill="#FFC400"/>
<path d="M91 34.4491L73.7278 28.6345H38.7148L55.8175 34.4491H91Z" fill="#FFE380"/>
<path d="M71.7142 34.4491H75.4856L62.3512 28.6505L58.423 28.6345L71.7142 34.4491Z" fill="white" fill-opacity="0.7"/>
<path d="M38.7165 28.6345L55.8175 34.4475L39.2571 29.6352C39.0772 29.541 38.9296 29.3954 38.8333 29.2172C38.737 29.0389 38.6963 28.836 38.7165 28.6345Z" fill="#FFE380"/>
<path d="M59.896 23.0032L24.4559 23L24.6751 23.8143L59.3026 23.4382L59.896 23.0032Z" fill="#FFE380"/>
<path d="M34.3836 34.4491H30.6138V53.8049H34.3836V34.4491Z" fill="white" fill-opacity="0.7"/>
<path d="M11 34.4475L24.456 23L24.7087 23.2056C24.7611 23.2484 24.8032 23.3024 24.8317 23.3636C24.8603 23.4249 24.8747 23.4917 24.8738 23.5592C24.8729 23.6268 24.8567 23.6932 24.8264 23.7536C24.7962 23.8141 24.7526 23.8669 24.6991 23.9083L11 34.4475Z" fill="#FFE380"/>
</g>
<defs>
<clipPath id="clip0_199_4057">
<rect width="80" height="57" fill="white" transform="translate(11 23)"/>
</clipPath>
</defs>
</svg>
