<?xml version="1.0" encoding="UTF-8"?>
<svg width="25px" height="13px" viewBox="0 0 25 13" version="1.1" xmlns="http://www.w3.org/2000/svg" xmlns:xlink="http://www.w3.org/1999/xlink">
    <!-- Generator: Sketch 63.1 (92452) - https://sketch.com -->
    <title>Solid/cash</title>
    <desc>Created with Sketch.</desc>
    <defs>
        <path d="M25,7.1875 L25,17.8125 C25,18.3302734 24.5802734,18.75 24.0625,18.75 L0.9375,18.75 C0.419726563,18.75 0,18.3302734 0,17.8125 L0,7.1875 C0,6.66972656 0.419726563,6.25 0.9375,6.25 L24.0625,6.25 C24.5802734,6.25 25,6.66972656 25,7.1875 Z M3.75,17.5 C3.75,16.1192969 2.63070313,15 1.25,15 L1.25,17.5 L3.75,17.5 Z M3.75,7.5 L1.25,7.5 L1.25,10 C2.63070313,10 3.75,8.88070313 3.75,7.5 Z M15.625,12.5 C15.625,10.4288672 14.2259375,8.75 12.5,8.75 C10.7740625,8.75 9.375,10.4288672 9.375,12.5 C9.375,14.5707812 10.7739844,16.25 12.5,16.25 C14.2252734,16.25 15.625,14.5715234 15.625,12.5 Z M23.75,15 C22.3692969,15 21.25,16.1192969 21.25,17.5 L23.75,17.5 L23.75,15 Z M23.75,7.5 L21.25,7.5 C21.25,8.88070313 22.3692969,10 23.75,10 L23.75,7.5 Z M10.8423047,14.2002734 C10.8423047,13.9082031 10.9953125,13.7482422 11.294375,13.7482422 L11.8854297,13.7482422 L11.8854297,12.1905078 C11.8854297,11.9888281 11.9062891,11.7802344 11.9062891,11.7802344 L11.8923828,11.7802344 C11.8923828,11.7802344 11.8228906,11.8845313 11.7811328,11.92625 C11.6072656,12.0931641 11.3708203,12.1001172 11.1691797,11.8845313 L10.9536328,11.6411328 C10.7449609,11.4325 10.7589453,11.2030078 10.9744922,11.0013281 L11.8229297,10.2224609 C11.9967187,10.0625 12.1497266,9.99992188 12.3862109,9.99992188 L12.8590625,9.99992188 C13.158125,9.99992188 13.3180078,10.1528906 13.3180078,10.4519531 L13.3180078,13.7482031 L13.9230078,13.7482031 C14.2220312,13.7482031 14.3750391,13.908125 14.3750391,14.2002344 L14.3750391,14.5479297 C14.3750391,14.84 14.2220313,14.9999609 13.9230078,14.9999609 L11.294375,14.9999609 C10.9953125,14.9999609 10.8423047,14.84 10.8423047,14.5479297 L10.8423047,14.2002734 L10.8423047,14.2002734 Z" id="path-1"></path>
        <linearGradient x1="0%" y1="0%" x2="100%" y2="100%" id="linearGradient-3">
            <stop stop-color="#79F1A4" offset="0%"></stop>
            <stop stop-color="#0E5CAD" offset="100%"></stop>
        </linearGradient>
    </defs>
    <g id="Symbols" stroke="none" stroke-width="1" fill="none" fill-rule="evenodd">
        <g id="agent_assignment_task" transform="translate(0.000000, -176.000000)">
            <g id="Group" transform="translate(0.000000, 170.000000)">
                <g id="Solid/money-bill-alt">
                    <mask id="mask-2" fill="white">
                        <use xlink:href="#path-1"></use>
                    </mask>
                    <use id="Mask" fill="#000000" fill-rule="nonzero" xlink:href="#path-1"></use>
                    <g id="Gradient/3" mask="url(#mask-2)" fill="url(#linearGradient-3)" fill-rule="evenodd">
                        <rect id="3" x="0" y="0" width="25" height="25"></rect>
                    </g>
                </g>
            </g>
        </g>
    </g>
</svg>